G04 #@! TF.GenerationSoftware,KiCad,Pcbnew,8.0.4*
G04 #@! TF.CreationDate,2024-11-03T11:21:09+01:00*
G04 #@! TF.ProjectId,K_PA_Protec,4b5f5041-5f50-4726-9f74-65632e6b6963,rev?*
G04 #@! TF.SameCoordinates,Original*
G04 #@! TF.FileFunction,Copper,L1,Top*
G04 #@! TF.FilePolarity,Positive*
%FSLAX46Y46*%
G04 Gerber Fmt 4.6, Leading zero omitted, Abs format (unit mm)*
G04 Created by KiCad (PCBNEW 8.0.4) date 2024-11-03 11:21:09*
%MOMM*%
%LPD*%
G01*
G04 APERTURE LIST*
G04 Aperture macros list*
%AMRoundRect*
0 Rectangle with rounded corners*
0 $1 Rounding radius*
0 $2 $3 $4 $5 $6 $7 $8 $9 X,Y pos of 4 corners*
0 Add a 4 corners polygon primitive as box body*
4,1,4,$2,$3,$4,$5,$6,$7,$8,$9,$2,$3,0*
0 Add four circle primitives for the rounded corners*
1,1,$1+$1,$2,$3*
1,1,$1+$1,$4,$5*
1,1,$1+$1,$6,$7*
1,1,$1+$1,$8,$9*
0 Add four rect primitives between the rounded corners*
20,1,$1+$1,$2,$3,$4,$5,0*
20,1,$1+$1,$4,$5,$6,$7,0*
20,1,$1+$1,$6,$7,$8,$9,0*
20,1,$1+$1,$8,$9,$2,$3,0*%
G04 Aperture macros list end*
G04 #@! TA.AperFunction,SMDPad,CuDef*
%ADD10RoundRect,0.250000X-0.350000X-0.450000X0.350000X-0.450000X0.350000X0.450000X-0.350000X0.450000X0*%
G04 #@! TD*
G04 #@! TA.AperFunction,SMDPad,CuDef*
%ADD11RoundRect,0.250000X0.337500X0.475000X-0.337500X0.475000X-0.337500X-0.475000X0.337500X-0.475000X0*%
G04 #@! TD*
G04 #@! TA.AperFunction,ComponentPad*
%ADD12C,0.800000*%
G04 #@! TD*
G04 #@! TA.AperFunction,ComponentPad*
%ADD13C,6.400000*%
G04 #@! TD*
G04 #@! TA.AperFunction,SMDPad,CuDef*
%ADD14RoundRect,0.250000X-0.337500X-0.475000X0.337500X-0.475000X0.337500X0.475000X-0.337500X0.475000X0*%
G04 #@! TD*
G04 #@! TA.AperFunction,SMDPad,CuDef*
%ADD15RoundRect,0.250000X0.475000X-0.337500X0.475000X0.337500X-0.475000X0.337500X-0.475000X-0.337500X0*%
G04 #@! TD*
G04 #@! TA.AperFunction,ComponentPad*
%ADD16R,2.000000X2.000000*%
G04 #@! TD*
G04 #@! TA.AperFunction,ComponentPad*
%ADD17C,2.000000*%
G04 #@! TD*
G04 #@! TA.AperFunction,ComponentPad*
%ADD18R,2.000000X3.200000*%
G04 #@! TD*
G04 #@! TA.AperFunction,ComponentPad*
%ADD19RoundRect,0.250000X0.845000X-0.620000X0.845000X0.620000X-0.845000X0.620000X-0.845000X-0.620000X0*%
G04 #@! TD*
G04 #@! TA.AperFunction,ComponentPad*
%ADD20O,2.190000X1.740000*%
G04 #@! TD*
G04 #@! TA.AperFunction,ComponentPad*
%ADD21RoundRect,0.250000X0.600000X0.600000X-0.600000X0.600000X-0.600000X-0.600000X0.600000X-0.600000X0*%
G04 #@! TD*
G04 #@! TA.AperFunction,ComponentPad*
%ADD22C,1.700000*%
G04 #@! TD*
G04 #@! TA.AperFunction,ComponentPad*
%ADD23RoundRect,0.250000X-0.620000X-0.845000X0.620000X-0.845000X0.620000X0.845000X-0.620000X0.845000X0*%
G04 #@! TD*
G04 #@! TA.AperFunction,ComponentPad*
%ADD24O,1.740000X2.190000*%
G04 #@! TD*
G04 #@! TA.AperFunction,ComponentPad*
%ADD25RoundRect,0.250000X-0.845000X0.620000X-0.845000X-0.620000X0.845000X-0.620000X0.845000X0.620000X0*%
G04 #@! TD*
G04 #@! TA.AperFunction,ComponentPad*
%ADD26R,2.540000X2.540000*%
G04 #@! TD*
G04 #@! TA.AperFunction,ComponentPad*
%ADD27C,2.540000*%
G04 #@! TD*
G04 #@! TA.AperFunction,ComponentPad*
%ADD28RoundRect,0.250000X-0.600000X-0.600000X0.600000X-0.600000X0.600000X0.600000X-0.600000X0.600000X0*%
G04 #@! TD*
G04 #@! TA.AperFunction,ViaPad*
%ADD29C,0.800000*%
G04 #@! TD*
G04 #@! TA.AperFunction,Conductor*
%ADD30C,0.500000*%
G04 #@! TD*
G04 #@! TA.AperFunction,Conductor*
%ADD31C,0.800000*%
G04 #@! TD*
G04 #@! TA.AperFunction,Conductor*
%ADD32C,1.000000*%
G04 #@! TD*
G04 #@! TA.AperFunction,Conductor*
%ADD33C,1.200000*%
G04 #@! TD*
G04 APERTURE END LIST*
D10*
X131000000Y-82000000D03*
X133000000Y-82000000D03*
D11*
X87037500Y-86000000D03*
X84962500Y-86000000D03*
D12*
X67600000Y-55000000D03*
X68302944Y-53302944D03*
X68302944Y-56697056D03*
X70000000Y-52600000D03*
D13*
X70000000Y-55000000D03*
D12*
X70000000Y-57400000D03*
X71697056Y-53302944D03*
X71697056Y-56697056D03*
X72400000Y-55000000D03*
D14*
X75462500Y-85500000D03*
X77537500Y-85500000D03*
D15*
X95500000Y-72500000D03*
X95500000Y-70425000D03*
D10*
X131000000Y-88000000D03*
X133000000Y-88000000D03*
D12*
X156200000Y-96200000D03*
X156902944Y-94502944D03*
X156902944Y-97897056D03*
X158600000Y-93800000D03*
D13*
X158600000Y-96200000D03*
D12*
X158600000Y-98600000D03*
X160297056Y-94502944D03*
X160297056Y-97897056D03*
X161000000Y-96200000D03*
D10*
X131000000Y-80000000D03*
X133000000Y-80000000D03*
D12*
X67600000Y-120200000D03*
X68302944Y-118502944D03*
X68302944Y-121897056D03*
X70000000Y-117800000D03*
D13*
X70000000Y-120200000D03*
D12*
X70000000Y-122600000D03*
X71697056Y-118502944D03*
X71697056Y-121897056D03*
X72400000Y-120200000D03*
D15*
X79800000Y-95637500D03*
X79800000Y-93562500D03*
D10*
X84500000Y-62500000D03*
X86500000Y-62500000D03*
D12*
X156200000Y-55000000D03*
X156902944Y-53302944D03*
X156902944Y-56697056D03*
X158600000Y-52600000D03*
D13*
X158600000Y-55000000D03*
D12*
X158600000Y-57400000D03*
X160297056Y-53302944D03*
X160297056Y-56697056D03*
X161000000Y-55000000D03*
D10*
X131000000Y-84000000D03*
X133000000Y-84000000D03*
X131000000Y-78000000D03*
X133000000Y-78000000D03*
D12*
X161200000Y-120000000D03*
X161902944Y-118302944D03*
X161902944Y-121697056D03*
X163600000Y-117600000D03*
D13*
X163600000Y-120000000D03*
D12*
X163600000Y-122400000D03*
X165297056Y-118302944D03*
X165297056Y-121697056D03*
X166000000Y-120000000D03*
D11*
X87037500Y-81000000D03*
X84962500Y-81000000D03*
D16*
X147800000Y-99037500D03*
D17*
X152800000Y-99037500D03*
X150300000Y-99037500D03*
D16*
X147800000Y-116037500D03*
D17*
X152800000Y-116037500D03*
X150300000Y-116037500D03*
D18*
X144700000Y-108537500D03*
X155900000Y-108537500D03*
D17*
X152800000Y-101537500D03*
X147800000Y-101537500D03*
D15*
X79800000Y-56337500D03*
X79800000Y-54262500D03*
D14*
X75462500Y-88500000D03*
X77537500Y-88500000D03*
X84462500Y-60500000D03*
X86537500Y-60500000D03*
D12*
X67600000Y-96200000D03*
X68302944Y-94502944D03*
X68302944Y-97897056D03*
X70000000Y-93800000D03*
D13*
X70000000Y-96200000D03*
D12*
X70000000Y-98600000D03*
X71697056Y-94502944D03*
X71697056Y-97897056D03*
X72400000Y-96200000D03*
D10*
X131000000Y-86000000D03*
X133000000Y-86000000D03*
D11*
X87037500Y-91000000D03*
X84962500Y-91000000D03*
D19*
X137180000Y-109000000D03*
D20*
X137180000Y-106460000D03*
X137180000Y-103920000D03*
X137180000Y-101380000D03*
D19*
X92980000Y-72270000D03*
D20*
X92980000Y-69730000D03*
D21*
X106500000Y-83000000D03*
D22*
X103960000Y-83000000D03*
X106500000Y-85540000D03*
X103960000Y-85540000D03*
X106500000Y-88080000D03*
X103960000Y-88080000D03*
X106500000Y-90620000D03*
X103960000Y-90620000D03*
X106500000Y-93160000D03*
X103960000Y-93160000D03*
D23*
X146500000Y-121000000D03*
D24*
X149040000Y-121000000D03*
X151580000Y-121000000D03*
X154120000Y-121000000D03*
D25*
X73520000Y-107960000D03*
D20*
X73520000Y-110500000D03*
X73520000Y-113040000D03*
D26*
X87080000Y-122490000D03*
D27*
X87080000Y-104710000D03*
X127720000Y-104710000D03*
X127720000Y-122490000D03*
D28*
X79747500Y-68580000D03*
D22*
X82287500Y-68580000D03*
X79747500Y-66040000D03*
X82287500Y-66040000D03*
X79747500Y-63500000D03*
X82287500Y-63500000D03*
X79747500Y-60960000D03*
X82287500Y-60960000D03*
X79747500Y-58420000D03*
X82287500Y-58420000D03*
D28*
X80000000Y-91000000D03*
D22*
X82540000Y-91000000D03*
X80000000Y-88460000D03*
X82540000Y-88460000D03*
X80000000Y-85920000D03*
X82540000Y-85920000D03*
X80000000Y-83380000D03*
X82540000Y-83380000D03*
X80000000Y-80840000D03*
X82540000Y-80840000D03*
D19*
X118480000Y-75270000D03*
D20*
X118480000Y-72730000D03*
D29*
X99800000Y-72500000D03*
X93200000Y-92200000D03*
X137259078Y-80247561D03*
X92000000Y-92200000D03*
X137300000Y-81500000D03*
X90100000Y-87800000D03*
X137300000Y-82800000D03*
X83900000Y-98500000D03*
X88900000Y-94100000D03*
X77537500Y-98437500D03*
X77300000Y-82300000D03*
X77300000Y-78300000D03*
X137300000Y-85300000D03*
X137300000Y-86500000D03*
X91500000Y-58200000D03*
X80200000Y-77000000D03*
X89000000Y-77000000D03*
X107900000Y-54449500D03*
X109600000Y-54449500D03*
X119500000Y-54400000D03*
X76900000Y-72800000D03*
X101400000Y-81600000D03*
X100000000Y-82400000D03*
X96400000Y-66200000D03*
X140540000Y-75040000D03*
X117200000Y-67310000D03*
X124700000Y-52700000D03*
X140000000Y-53700000D03*
X73649500Y-88799312D03*
X87100000Y-75600000D03*
X71941121Y-90050468D03*
X72000000Y-62400000D03*
X71000000Y-68600000D03*
X71100000Y-90600000D03*
X129600000Y-99400000D03*
X129600000Y-95800000D03*
X142800000Y-86100000D03*
X148100000Y-59900000D03*
X147200000Y-68700000D03*
X142800000Y-84700000D03*
X137300000Y-84100000D03*
X137230000Y-64670000D03*
X135460000Y-70140000D03*
X76400000Y-52400000D03*
X98600000Y-73600000D03*
X101262500Y-67037500D03*
X98600000Y-104600000D03*
X115400000Y-64700000D03*
X116600000Y-64770000D03*
X122600000Y-85000000D03*
X130800000Y-76000000D03*
X127600000Y-73900000D03*
X131000000Y-70700000D03*
X89600000Y-62600000D03*
X110400000Y-86200000D03*
X111000000Y-78100000D03*
X122400000Y-60960000D03*
X109200000Y-69400000D03*
X104200000Y-56900000D03*
X110700000Y-63500000D03*
X113949500Y-64400688D03*
X122400000Y-62200000D03*
X141100000Y-83200000D03*
X141900000Y-64900000D03*
X139200000Y-70200000D03*
X135200000Y-59600000D03*
X136400000Y-59600000D03*
X132000000Y-91000000D03*
X122500000Y-52500000D03*
X130000000Y-92000000D03*
X116000000Y-93000000D03*
X100000000Y-122500000D03*
X165000000Y-67500000D03*
X126975000Y-77975000D03*
X67500000Y-100000000D03*
X120000000Y-91000000D03*
X67500000Y-67500000D03*
X123000000Y-70499500D03*
X67500000Y-82500000D03*
X138088237Y-94688237D03*
X145937500Y-70237500D03*
X165000000Y-100000000D03*
X129000000Y-94000000D03*
X123400000Y-56449500D03*
X113100000Y-78100000D03*
X152500000Y-52500000D03*
X67500000Y-62500000D03*
X67500000Y-77500000D03*
X139000000Y-85000000D03*
X140000000Y-112500000D03*
X118000000Y-89000000D03*
X67500000Y-110000000D03*
X95500000Y-70425000D03*
X165000000Y-92500000D03*
X67500000Y-115000000D03*
X126975000Y-75825000D03*
X101100000Y-74100000D03*
X147500000Y-52500000D03*
X124000000Y-87000000D03*
X120000000Y-87000000D03*
X110000000Y-122500000D03*
X143962500Y-53762500D03*
X87400000Y-84800000D03*
X140000000Y-122500000D03*
X109000000Y-91000000D03*
X111762500Y-55600000D03*
X89200000Y-81600000D03*
X112000000Y-93000000D03*
X109000000Y-89000000D03*
X140000000Y-117500000D03*
X140000000Y-120000000D03*
X116000000Y-89000000D03*
X109799312Y-65399312D03*
X125000000Y-122500000D03*
X95000000Y-122500000D03*
X107800000Y-66000000D03*
X112000000Y-95000000D03*
X88000000Y-86000000D03*
X116000000Y-91000000D03*
X118000000Y-93000000D03*
X95000000Y-55400000D03*
X113437500Y-82037500D03*
X115000000Y-122500000D03*
X67500000Y-72500000D03*
X95000000Y-53000000D03*
X112100000Y-78100000D03*
X138500000Y-56200000D03*
X122000000Y-89000000D03*
X165000000Y-62500000D03*
X109000000Y-77500000D03*
X120500000Y-83000000D03*
X116000000Y-95000000D03*
X139690500Y-56210790D03*
X134690000Y-61110000D03*
X165000000Y-115000000D03*
X90000000Y-122500000D03*
X127500000Y-83100000D03*
X107000000Y-77500000D03*
X125250000Y-70499500D03*
X104000000Y-65000000D03*
X114000000Y-95000000D03*
X139000000Y-83000000D03*
X114000000Y-93000000D03*
X100837500Y-64962500D03*
X105000000Y-122500000D03*
X149400000Y-95800000D03*
X113437500Y-85937500D03*
X103000000Y-77500000D03*
X149400000Y-94600000D03*
X165000000Y-82500000D03*
X149400000Y-93400000D03*
X112200000Y-85900000D03*
X137500000Y-120000000D03*
X135000000Y-122500000D03*
X135000000Y-120000000D03*
X138000000Y-95800000D03*
X80000000Y-122500000D03*
X142500000Y-52500000D03*
X165000000Y-72500000D03*
X87037500Y-89662500D03*
X145937500Y-73562500D03*
X165000000Y-110000000D03*
X67500000Y-92500000D03*
X110749312Y-61050688D03*
X165000000Y-105000000D03*
X157500000Y-122500000D03*
X67500000Y-105000000D03*
X75000000Y-122500000D03*
X165000000Y-87500000D03*
X120000000Y-89000000D03*
X112237500Y-82037500D03*
X120000000Y-122500000D03*
X165000000Y-77500000D03*
X105000000Y-77500000D03*
X118000000Y-87000000D03*
X123400000Y-63500000D03*
X118000000Y-91000000D03*
X67500000Y-87500000D03*
X122000000Y-87000000D03*
X111762500Y-56962500D03*
X127000000Y-96000000D03*
X138000000Y-93615000D03*
X95000000Y-54400000D03*
X111700000Y-65700000D03*
X129800000Y-54500000D03*
X127200000Y-66800000D03*
X129500000Y-78900000D03*
X143862500Y-70337500D03*
X111800000Y-69400000D03*
X143200000Y-90000000D03*
X143862500Y-56262500D03*
X128000000Y-78900000D03*
X112900000Y-62000000D03*
X125150000Y-80700000D03*
D30*
X79747500Y-58420000D02*
X79747500Y-56390000D01*
X79747500Y-56390000D02*
X79800000Y-56337500D01*
X84462500Y-60500000D02*
X82747500Y-60500000D01*
X82747500Y-60500000D02*
X82287500Y-60960000D01*
X84500000Y-62500000D02*
X84500000Y-60537500D01*
X84500000Y-60537500D02*
X84462500Y-60500000D01*
X95500000Y-72500000D02*
X99800000Y-72500000D01*
X93210000Y-72500000D02*
X92980000Y-72270000D01*
X95500000Y-72500000D02*
X93210000Y-72500000D01*
X133000000Y-78000000D02*
X134700000Y-78000000D01*
D31*
X91400000Y-92200000D02*
X92000000Y-92200000D01*
X79800000Y-91200000D02*
X80000000Y-91000000D01*
X80000000Y-91600000D02*
X81400000Y-93000000D01*
X79800000Y-93562500D02*
X79800000Y-91200000D01*
X90600000Y-93000000D02*
X91000000Y-92600000D01*
D30*
X136947561Y-80247561D02*
X137259078Y-80247561D01*
D31*
X80000000Y-91000000D02*
X80000000Y-91600000D01*
X92000000Y-92200000D02*
X93200000Y-92200000D01*
X81400000Y-93000000D02*
X90600000Y-93000000D01*
D30*
X134700000Y-78000000D02*
X136947561Y-80247561D01*
D31*
X91000000Y-92600000D02*
X91400000Y-92200000D01*
D30*
X136745239Y-80945239D02*
X137300000Y-81500000D01*
D31*
X85740000Y-87800000D02*
X90100000Y-87800000D01*
X82540000Y-91000000D02*
X85740000Y-87800000D01*
D30*
X133945239Y-80945239D02*
X136745239Y-80945239D01*
D31*
X84962500Y-91000000D02*
X82540000Y-91000000D01*
D30*
X133000000Y-80000000D02*
X133945239Y-80945239D01*
D31*
X79960000Y-88500000D02*
X80000000Y-88460000D01*
X77537500Y-88500000D02*
X79960000Y-88500000D01*
X77537500Y-88500000D02*
X77537500Y-98437500D01*
X88900000Y-94100000D02*
X84500000Y-98500000D01*
X84500000Y-98500000D02*
X83900000Y-98500000D01*
D30*
X136500000Y-82000000D02*
X137300000Y-82800000D01*
X133000000Y-82000000D02*
X136500000Y-82000000D01*
X77300000Y-82300000D02*
X77300000Y-78300000D01*
D31*
X79580000Y-85500000D02*
X80000000Y-85920000D01*
D30*
X133000000Y-86000000D02*
X134200000Y-84800000D01*
D31*
X77537500Y-85500000D02*
X79580000Y-85500000D01*
D30*
X136800000Y-84800000D02*
X137300000Y-85300000D01*
X134200000Y-84800000D02*
X136800000Y-84800000D01*
D31*
X84962500Y-86000000D02*
X82620000Y-86000000D01*
D30*
X134500000Y-86500000D02*
X137300000Y-86500000D01*
X133000000Y-88000000D02*
X134500000Y-86500000D01*
D31*
X82620000Y-86000000D02*
X82540000Y-85920000D01*
D30*
X80200000Y-80640000D02*
X80000000Y-80840000D01*
X90600000Y-75400000D02*
X90600000Y-68700000D01*
X89000000Y-77000000D02*
X90600000Y-75400000D01*
X92400000Y-59100000D02*
X91500000Y-58200000D01*
X80200000Y-77000000D02*
X80200000Y-80640000D01*
X90600000Y-68700000D02*
X92400000Y-66900000D01*
X92400000Y-66900000D02*
X92400000Y-59100000D01*
X109649500Y-54400000D02*
X109600000Y-54449500D01*
X109600000Y-54449500D02*
X107900000Y-54449500D01*
X119500000Y-54400000D02*
X109649500Y-54400000D01*
X105400000Y-81200000D02*
X106500000Y-82300000D01*
D31*
X78160000Y-66040000D02*
X79747500Y-66040000D01*
D30*
X101800000Y-81200000D02*
X105400000Y-81200000D01*
D31*
X76900000Y-67300000D02*
X78160000Y-66040000D01*
X76900000Y-72800000D02*
X76900000Y-67300000D01*
D30*
X101400000Y-81600000D02*
X101800000Y-81200000D01*
X106500000Y-82300000D02*
X106500000Y-83000000D01*
X102000000Y-78400000D02*
X102000000Y-70200000D01*
X107200000Y-79400000D02*
X109000000Y-81200000D01*
X102000000Y-70200000D02*
X98000000Y-66200000D01*
X97000000Y-66200000D02*
X96400000Y-66200000D01*
X98000000Y-66200000D02*
X97000000Y-66200000D01*
X100000000Y-82400000D02*
X100000000Y-80400000D01*
X100000000Y-80400000D02*
X101000000Y-79400000D01*
X100000000Y-80400000D02*
X102000000Y-78400000D01*
X109000000Y-81200000D02*
X109000000Y-85580000D01*
X109000000Y-85580000D02*
X106500000Y-88080000D01*
X101000000Y-79400000D02*
X107200000Y-79400000D01*
X140540000Y-54240000D02*
X140000000Y-53700000D01*
X140540000Y-75040000D02*
X140540000Y-54240000D01*
X117200000Y-67310000D02*
X121690000Y-67310000D01*
X124700000Y-64300000D02*
X124700000Y-52700000D01*
X121690000Y-67310000D02*
X124700000Y-64300000D01*
X74120000Y-83380000D02*
X73600000Y-83900000D01*
X80000000Y-83380000D02*
X74120000Y-83380000D01*
X73600000Y-83900000D02*
X73600000Y-88749812D01*
X73600000Y-88749812D02*
X73649500Y-88799312D01*
X87100000Y-68312500D02*
X87100000Y-75600000D01*
X82287500Y-63500000D02*
X87100000Y-68312500D01*
X71850499Y-89959846D02*
X71941121Y-90050468D01*
X72000000Y-62400000D02*
X71850499Y-62549501D01*
X71850499Y-62549501D02*
X71850499Y-89959846D01*
X129700000Y-95900000D02*
X129700000Y-99300000D01*
X71000000Y-90500000D02*
X71100000Y-90600000D01*
X129700000Y-99300000D02*
X129600000Y-99400000D01*
X71000000Y-68600000D02*
X71000000Y-90500000D01*
X129600000Y-95800000D02*
X129700000Y-95900000D01*
X142800000Y-86100000D02*
X148100000Y-80800000D01*
X148100000Y-80800000D02*
X148100000Y-59900000D01*
X142800000Y-84700000D02*
X147200000Y-80300000D01*
X147200000Y-80300000D02*
X147200000Y-68700000D01*
X136600000Y-83400000D02*
X137300000Y-84100000D01*
X133600000Y-83400000D02*
X136600000Y-83400000D01*
X133000000Y-84000000D02*
X133600000Y-83400000D01*
X79747500Y-63500000D02*
X77900000Y-63500000D01*
X77900000Y-63500000D02*
X76400000Y-62000000D01*
X137230000Y-64670000D02*
X135500000Y-66400000D01*
X135500000Y-70100000D02*
X135460000Y-70140000D01*
X135500000Y-66400000D02*
X135500000Y-70100000D01*
X76400000Y-52400000D02*
X76400000Y-62000000D01*
D32*
X103960000Y-85540000D02*
X99560000Y-85540000D01*
D30*
X110500000Y-68400000D02*
X110500000Y-75270000D01*
D33*
X95480000Y-83380000D02*
X98600000Y-86500000D01*
D31*
X82540000Y-83380000D02*
X84120000Y-83380000D01*
D30*
X110800000Y-68100000D02*
X110500000Y-68400000D01*
D33*
X98600000Y-94000000D02*
X98600000Y-99400000D01*
D30*
X112800000Y-68100000D02*
X110800000Y-68100000D01*
D33*
X98600000Y-86500000D02*
X98600000Y-94000000D01*
D32*
X109495000Y-75270000D02*
X118480000Y-75270000D01*
D30*
X116600000Y-64770000D02*
X115470000Y-64770000D01*
D32*
X98600000Y-73600000D02*
X98600000Y-94000000D01*
D33*
X98600000Y-99400000D02*
X98600000Y-104600000D01*
D30*
X110500000Y-75270000D02*
X118480000Y-75270000D01*
X115400000Y-65500000D02*
X112800000Y-68100000D01*
D33*
X82540000Y-83380000D02*
X95480000Y-83380000D01*
D31*
X84962500Y-82537500D02*
X84962500Y-81000000D01*
D32*
X101262500Y-67037500D02*
X109495000Y-75270000D01*
X99560000Y-85540000D02*
X98600000Y-86500000D01*
D30*
X115470000Y-64770000D02*
X115400000Y-64700000D01*
X115400000Y-64700000D02*
X115400000Y-65500000D01*
D31*
X84120000Y-83380000D02*
X84962500Y-82537500D01*
D30*
X122600000Y-78900000D02*
X122600000Y-85000000D01*
X131000000Y-70700000D02*
X131000000Y-75800000D01*
X127600000Y-73900000D02*
X122600000Y-78900000D01*
X131000000Y-75800000D02*
X130800000Y-76000000D01*
X88400000Y-62600000D02*
X89600000Y-62600000D01*
X86500000Y-62500000D02*
X86600000Y-62600000D01*
X86600000Y-62600000D02*
X88400000Y-62600000D01*
X110400000Y-86200000D02*
X110400000Y-78700000D01*
X110400000Y-78700000D02*
X111000000Y-78100000D01*
X109600000Y-66800000D02*
X109200000Y-67200000D01*
X112900000Y-66100000D02*
X112200000Y-66800000D01*
X112900000Y-63600000D02*
X112900000Y-66100000D01*
X109200000Y-67200000D02*
X109200000Y-69400000D01*
X122400000Y-60960000D02*
X115540000Y-60960000D01*
X115540000Y-60960000D02*
X112900000Y-63600000D01*
X112200000Y-66800000D02*
X109600000Y-66800000D01*
X104200000Y-61200000D02*
X106500000Y-63500000D01*
X106500000Y-63500000D02*
X110700000Y-63500000D01*
X104200000Y-56900000D02*
X104200000Y-61200000D01*
X113949500Y-64400688D02*
X116150188Y-62200000D01*
X116150188Y-62200000D02*
X122400000Y-62200000D01*
X141900000Y-82400000D02*
X141100000Y-83200000D01*
X141900000Y-64900000D02*
X141900000Y-82400000D01*
X136400000Y-59600000D02*
X135200000Y-59600000D01*
X139200000Y-60900000D02*
X139200000Y-70200000D01*
X136400000Y-59600000D02*
X137900000Y-59600000D01*
X137900000Y-59600000D02*
X139200000Y-60900000D01*
X99525000Y-70425000D02*
X95500000Y-70425000D01*
X87037500Y-81000000D02*
X87037500Y-80437500D01*
X87037500Y-81000000D02*
X88600000Y-81000000D01*
X84180000Y-79200000D02*
X82540000Y-80840000D01*
X101100000Y-72000000D02*
X99525000Y-70425000D01*
X123400000Y-63500000D02*
X123400000Y-56449500D01*
X88600000Y-81000000D02*
X89200000Y-81600000D01*
X101100000Y-74100000D02*
X101100000Y-72000000D01*
X92980000Y-69730000D02*
X94805000Y-69730000D01*
X87037500Y-86000000D02*
X87037500Y-85162500D01*
X85800000Y-79200000D02*
X84180000Y-79200000D01*
X87037500Y-85162500D02*
X87400000Y-84800000D01*
X87037500Y-86000000D02*
X88000000Y-86000000D01*
X94805000Y-69730000D02*
X95500000Y-70425000D01*
X87037500Y-91000000D02*
X90000000Y-91000000D01*
X87037500Y-80437500D02*
X85800000Y-79200000D01*
X87037500Y-91000000D02*
X87037500Y-89662500D01*
X127200000Y-66800000D02*
X127800000Y-66800000D01*
X127800000Y-66800000D02*
X129500000Y-68500000D01*
D31*
X131000000Y-84000000D02*
X131000000Y-82000000D01*
X129500000Y-70700000D02*
X129500000Y-68500000D01*
D30*
X112900000Y-62000000D02*
X111700000Y-63200000D01*
D31*
X131000000Y-82000000D02*
X131000000Y-80000000D01*
D30*
X132400000Y-90000000D02*
X143200000Y-90000000D01*
D32*
X126200000Y-80700000D02*
X128000000Y-78900000D01*
X129500000Y-78900000D02*
X130100000Y-78900000D01*
X129500000Y-78900000D02*
X129500000Y-75200000D01*
D30*
X143862500Y-70337500D02*
X143862500Y-56262500D01*
D31*
X131000000Y-84000000D02*
X131000000Y-86000000D01*
X131000000Y-80000000D02*
X131000000Y-78000000D01*
D32*
X130100000Y-78900000D02*
X131000000Y-78000000D01*
D31*
X129500000Y-54800000D02*
X129800000Y-54500000D01*
X131000000Y-86000000D02*
X131000000Y-88000000D01*
D30*
X131000000Y-88600000D02*
X132400000Y-90000000D01*
D31*
X129500000Y-68500000D02*
X129500000Y-54800000D01*
D32*
X129500000Y-78900000D02*
X128000000Y-78900000D01*
X125150000Y-80700000D02*
X126200000Y-80700000D01*
D30*
X131000000Y-88000000D02*
X131000000Y-88600000D01*
D32*
X128200000Y-69400000D02*
X129500000Y-70700000D01*
D30*
X111700000Y-63200000D02*
X111700000Y-65700000D01*
D32*
X129500000Y-75200000D02*
X129500000Y-70700000D01*
X111800000Y-69400000D02*
X128200000Y-69400000D01*
G04 #@! TA.AperFunction,Conductor*
G36*
X137434000Y-105919600D02*
G01*
X137409661Y-105905548D01*
X137258333Y-105865000D01*
X137101667Y-105865000D01*
X136950339Y-105905548D01*
X136926000Y-105919600D01*
X136926000Y-104460399D01*
X136950339Y-104474452D01*
X137101667Y-104515000D01*
X137258333Y-104515000D01*
X137409661Y-104474452D01*
X137434000Y-104460399D01*
X137434000Y-105919600D01*
G37*
G04 #@! TD.AperFunction*
G04 #@! TA.AperFunction,Conductor*
G36*
X105083077Y-88843866D02*
G01*
X105083078Y-88843866D01*
X105124217Y-88780899D01*
X105178221Y-88734810D01*
X105248568Y-88725235D01*
X105312926Y-88755212D01*
X105335183Y-88780898D01*
X105424279Y-88917270D01*
X105576762Y-89082908D01*
X105618338Y-89115268D01*
X105754424Y-89221189D01*
X105787155Y-89238902D01*
X105787680Y-89239186D01*
X105838071Y-89289200D01*
X105853423Y-89358516D01*
X105828862Y-89425129D01*
X105787680Y-89460813D01*
X105754426Y-89478810D01*
X105754424Y-89478811D01*
X105576762Y-89617091D01*
X105424279Y-89782729D01*
X105335483Y-89918643D01*
X105281479Y-89964731D01*
X105211131Y-89974306D01*
X105146774Y-89944329D01*
X105124517Y-89918643D01*
X105035720Y-89782729D01*
X104893689Y-89628445D01*
X104883240Y-89617094D01*
X104883239Y-89617093D01*
X104883237Y-89617091D01*
X104752820Y-89515583D01*
X104705576Y-89478811D01*
X104671792Y-89460528D01*
X104621402Y-89410516D01*
X104606050Y-89341199D01*
X104630610Y-89274586D01*
X104671795Y-89238900D01*
X104705298Y-89220769D01*
X104725688Y-89204898D01*
X104084947Y-88564157D01*
X104152993Y-88545925D01*
X104267007Y-88480099D01*
X104360099Y-88387007D01*
X104425925Y-88272993D01*
X104444158Y-88204947D01*
X105083077Y-88843866D01*
G37*
G04 #@! TD.AperFunction*
G04 #@! TA.AperFunction,Conductor*
G36*
X105313225Y-86215669D02*
G01*
X105335480Y-86241353D01*
X105359339Y-86277871D01*
X105424275Y-86377265D01*
X105424279Y-86377270D01*
X105576762Y-86542908D01*
X105618338Y-86575268D01*
X105754424Y-86681189D01*
X105787680Y-86699186D01*
X105838071Y-86749200D01*
X105853423Y-86818516D01*
X105828862Y-86885129D01*
X105787680Y-86920813D01*
X105768645Y-86931115D01*
X105754426Y-86938810D01*
X105754424Y-86938811D01*
X105576762Y-87077091D01*
X105424279Y-87242729D01*
X105335183Y-87379101D01*
X105281179Y-87425189D01*
X105210831Y-87434764D01*
X105146474Y-87404786D01*
X105124217Y-87379100D01*
X105083078Y-87316132D01*
X104444157Y-87955051D01*
X104425925Y-87887007D01*
X104360099Y-87772993D01*
X104267007Y-87679901D01*
X104152993Y-87614075D01*
X104084947Y-87595841D01*
X104725688Y-86955100D01*
X104725687Y-86955099D01*
X104705308Y-86939237D01*
X104705298Y-86939231D01*
X104671791Y-86921097D01*
X104621401Y-86871083D01*
X104606050Y-86801766D01*
X104630612Y-86735153D01*
X104671790Y-86699472D01*
X104705576Y-86681189D01*
X104883240Y-86542906D01*
X105035722Y-86377268D01*
X105124518Y-86241354D01*
X105178520Y-86195268D01*
X105248868Y-86185692D01*
X105313225Y-86215669D01*
G37*
G04 #@! TD.AperFunction*
G04 #@! TA.AperFunction,Conductor*
G36*
X82074075Y-81032993D02*
G01*
X82139901Y-81147007D01*
X82232993Y-81240099D01*
X82347007Y-81305925D01*
X82415051Y-81324157D01*
X81774310Y-81964898D01*
X81794697Y-81980766D01*
X81794705Y-81980771D01*
X81828207Y-81998902D01*
X81878597Y-82048915D01*
X81893949Y-82118232D01*
X81869388Y-82184845D01*
X81828207Y-82220528D01*
X81794430Y-82238807D01*
X81794424Y-82238811D01*
X81616762Y-82377091D01*
X81464279Y-82542729D01*
X81375483Y-82678643D01*
X81321479Y-82724731D01*
X81251131Y-82734306D01*
X81186774Y-82704329D01*
X81164517Y-82678643D01*
X81081345Y-82551339D01*
X81075722Y-82542732D01*
X81075721Y-82542731D01*
X81075720Y-82542729D01*
X80923237Y-82377091D01*
X80822644Y-82298796D01*
X80745576Y-82238811D01*
X80737785Y-82234595D01*
X80712320Y-82220814D01*
X80661929Y-82170802D01*
X80646576Y-82101485D01*
X80671136Y-82034872D01*
X80712320Y-81999186D01*
X80712845Y-81998902D01*
X80745576Y-81981189D01*
X80923240Y-81842906D01*
X81075722Y-81677268D01*
X81164816Y-81540898D01*
X81218819Y-81494810D01*
X81289167Y-81485235D01*
X81353524Y-81515212D01*
X81375782Y-81540899D01*
X81416920Y-81603866D01*
X81416921Y-81603866D01*
X82055841Y-80964946D01*
X82074075Y-81032993D01*
G37*
G04 #@! TD.AperFunction*
G04 #@! TA.AperFunction,Conductor*
G36*
X83663077Y-81603866D02*
G01*
X83668962Y-81603256D01*
X83710567Y-81567750D01*
X83780915Y-81558175D01*
X83845272Y-81588152D01*
X83881650Y-81643120D01*
X83932885Y-81797738D01*
X84025970Y-81948652D01*
X84025972Y-81948654D01*
X84026835Y-81949746D01*
X84027193Y-81950635D01*
X84029823Y-81954898D01*
X84029094Y-81955347D01*
X84053397Y-82015587D01*
X84054000Y-82027897D01*
X84054000Y-82108997D01*
X84033998Y-82177118D01*
X84017095Y-82198092D01*
X83980592Y-82234595D01*
X83918280Y-82268621D01*
X83891497Y-82271500D01*
X83370830Y-82271500D01*
X83302709Y-82251498D01*
X83293442Y-82244934D01*
X83290069Y-82242308D01*
X83285578Y-82238812D01*
X83285574Y-82238810D01*
X83251792Y-82220528D01*
X83201402Y-82170516D01*
X83186050Y-82101199D01*
X83210610Y-82034586D01*
X83251795Y-81998900D01*
X83285298Y-81980769D01*
X83305688Y-81964898D01*
X82664947Y-81324157D01*
X82732993Y-81305925D01*
X82847007Y-81240099D01*
X82940099Y-81147007D01*
X83005925Y-81032993D01*
X83024158Y-80964947D01*
X83663077Y-81603866D01*
G37*
G04 #@! TD.AperFunction*
G04 #@! TA.AperFunction,Conductor*
G36*
X81100725Y-66715669D02*
G01*
X81122980Y-66741353D01*
X81156107Y-66792058D01*
X81211775Y-66877265D01*
X81211779Y-66877270D01*
X81311326Y-66985405D01*
X81356975Y-67034993D01*
X81364262Y-67042908D01*
X81408229Y-67077129D01*
X81541924Y-67181189D01*
X81575705Y-67199470D01*
X81626096Y-67249482D01*
X81641449Y-67318799D01*
X81616889Y-67385412D01*
X81575708Y-67421097D01*
X81542200Y-67439230D01*
X81542193Y-67439235D01*
X81521811Y-67455099D01*
X81521810Y-67455100D01*
X82162552Y-68095842D01*
X82094507Y-68114075D01*
X81980493Y-68179901D01*
X81887401Y-68272993D01*
X81821575Y-68387007D01*
X81803341Y-68455053D01*
X81153480Y-67805192D01*
X81125576Y-67800049D01*
X81073798Y-67751474D01*
X81062797Y-67727223D01*
X81056593Y-67708500D01*
X81039615Y-67657262D01*
X80946530Y-67506348D01*
X80946529Y-67506347D01*
X80946524Y-67506341D01*
X80821158Y-67380975D01*
X80821152Y-67380970D01*
X80789495Y-67361444D01*
X80670238Y-67287885D01*
X80670234Y-67287883D01*
X80670233Y-67287883D01*
X80663586Y-67284783D01*
X80664555Y-67282704D01*
X80615319Y-67248611D01*
X80588067Y-67183053D01*
X80600585Y-67113168D01*
X80635938Y-67069994D01*
X80670735Y-67042910D01*
X80670737Y-67042908D01*
X80670740Y-67042906D01*
X80823222Y-66877268D01*
X80912018Y-66741354D01*
X80966020Y-66695268D01*
X81036368Y-66685692D01*
X81100725Y-66715669D01*
G37*
G04 #@! TD.AperFunction*
G04 #@! TA.AperFunction,Conductor*
G36*
X167442121Y-50020002D02*
G01*
X167488614Y-50073658D01*
X167500000Y-50126000D01*
X167500000Y-119319429D01*
X167479998Y-119387550D01*
X167426342Y-119434043D01*
X167356068Y-119444147D01*
X167291488Y-119414653D01*
X167253104Y-119354927D01*
X167249551Y-119339140D01*
X167231948Y-119228004D01*
X167131355Y-118852585D01*
X166992080Y-118489760D01*
X166992076Y-118489752D01*
X166815628Y-118143455D01*
X166603957Y-117817508D01*
X166603952Y-117817501D01*
X166397121Y-117562087D01*
X164896631Y-119062577D01*
X164820412Y-118957670D01*
X164642330Y-118779588D01*
X164537421Y-118703367D01*
X164987572Y-118253216D01*
X165047056Y-118253216D01*
X165047056Y-118352672D01*
X165085116Y-118444558D01*
X165155442Y-118514884D01*
X165247328Y-118552944D01*
X165346784Y-118552944D01*
X165438670Y-118514884D01*
X165508996Y-118444558D01*
X165547056Y-118352672D01*
X165547056Y-118253216D01*
X165508996Y-118161330D01*
X165438670Y-118091004D01*
X165346784Y-118052944D01*
X165247328Y-118052944D01*
X165155442Y-118091004D01*
X165085116Y-118161330D01*
X165047056Y-118253216D01*
X164987572Y-118253216D01*
X166037911Y-117202877D01*
X165782501Y-116996049D01*
X165456541Y-116784369D01*
X165456535Y-116784365D01*
X165110247Y-116607923D01*
X165110239Y-116607919D01*
X164747414Y-116468644D01*
X164371995Y-116368051D01*
X163988114Y-116307250D01*
X163600006Y-116286911D01*
X163599994Y-116286911D01*
X163211885Y-116307250D01*
X162828004Y-116368051D01*
X162452585Y-116468644D01*
X162089760Y-116607919D01*
X162089752Y-116607923D01*
X161743455Y-116784371D01*
X161417508Y-116996042D01*
X161417491Y-116996054D01*
X161162088Y-117202876D01*
X161162087Y-117202877D01*
X162662577Y-118703367D01*
X162557670Y-118779588D01*
X162379588Y-118957670D01*
X162303367Y-119062577D01*
X161494006Y-118253216D01*
X161652944Y-118253216D01*
X161652944Y-118352672D01*
X161691004Y-118444558D01*
X161761330Y-118514884D01*
X161853216Y-118552944D01*
X161952672Y-118552944D01*
X162044558Y-118514884D01*
X162114884Y-118444558D01*
X162152944Y-118352672D01*
X162152944Y-118253216D01*
X162114884Y-118161330D01*
X162044558Y-118091004D01*
X161952672Y-118052944D01*
X161853216Y-118052944D01*
X161761330Y-118091004D01*
X161691004Y-118161330D01*
X161652944Y-118253216D01*
X161494006Y-118253216D01*
X160802877Y-117562087D01*
X160802876Y-117562088D01*
X160596054Y-117817491D01*
X160596042Y-117817508D01*
X160384371Y-118143455D01*
X160207923Y-118489752D01*
X160207919Y-118489760D01*
X160068644Y-118852585D01*
X159968051Y-119228004D01*
X159907250Y-119611885D01*
X159886911Y-119999993D01*
X159886911Y-120000006D01*
X159907250Y-120388114D01*
X159968051Y-120771995D01*
X160068644Y-121147414D01*
X160207919Y-121510239D01*
X160207923Y-121510247D01*
X160384365Y-121856535D01*
X160384369Y-121856541D01*
X160596049Y-122182501D01*
X160802877Y-122437911D01*
X161593460Y-121647328D01*
X161652944Y-121647328D01*
X161652944Y-121746784D01*
X161691004Y-121838670D01*
X161761330Y-121908996D01*
X161853216Y-121947056D01*
X161952672Y-121947056D01*
X162044558Y-121908996D01*
X162114884Y-121838670D01*
X162152944Y-121746784D01*
X162152944Y-121647328D01*
X162114884Y-121555442D01*
X162044558Y-121485116D01*
X161952672Y-121447056D01*
X161853216Y-121447056D01*
X161761330Y-121485116D01*
X161691004Y-121555442D01*
X161652944Y-121647328D01*
X161593460Y-121647328D01*
X162303367Y-120937421D01*
X162379588Y-121042330D01*
X162557670Y-121220412D01*
X162662577Y-121296631D01*
X161162087Y-122797121D01*
X161417498Y-123003950D01*
X161743458Y-123215630D01*
X161743464Y-123215634D01*
X162089752Y-123392076D01*
X162089760Y-123392080D01*
X162452585Y-123531355D01*
X162828004Y-123631948D01*
X163211885Y-123692749D01*
X163599994Y-123713089D01*
X163600006Y-123713089D01*
X163988114Y-123692749D01*
X164371995Y-123631948D01*
X164747414Y-123531355D01*
X165110239Y-123392080D01*
X165110247Y-123392076D01*
X165456535Y-123215634D01*
X165456541Y-123215630D01*
X165782501Y-123003950D01*
X166037911Y-122797121D01*
X164888119Y-121647328D01*
X165047056Y-121647328D01*
X165047056Y-121746784D01*
X165085116Y-121838670D01*
X165155442Y-121908996D01*
X165247328Y-121947056D01*
X165346784Y-121947056D01*
X165438670Y-121908996D01*
X165508996Y-121838670D01*
X165547056Y-121746784D01*
X165547056Y-121647328D01*
X165508996Y-121555442D01*
X165438670Y-121485116D01*
X165346784Y-121447056D01*
X165247328Y-121447056D01*
X165155442Y-121485116D01*
X165085116Y-121555442D01*
X165047056Y-121647328D01*
X164888119Y-121647328D01*
X164537422Y-121296631D01*
X164642330Y-121220412D01*
X164820412Y-121042330D01*
X164896632Y-120937422D01*
X166397121Y-122437911D01*
X166603950Y-122182501D01*
X166815630Y-121856541D01*
X166815634Y-121856535D01*
X166992076Y-121510247D01*
X166992080Y-121510239D01*
X167131355Y-121147414D01*
X167231949Y-120771993D01*
X167249551Y-120660860D01*
X167279963Y-120596706D01*
X167340231Y-120559179D01*
X167411221Y-120560193D01*
X167470393Y-120599426D01*
X167498961Y-120664421D01*
X167500000Y-120680570D01*
X167500000Y-124874000D01*
X167479998Y-124942121D01*
X167426342Y-124988614D01*
X167374000Y-125000000D01*
X65126000Y-125000000D01*
X65057879Y-124979998D01*
X65011386Y-124926342D01*
X65000000Y-124874000D01*
X65000000Y-120199993D01*
X66286911Y-120199993D01*
X66286911Y-120200006D01*
X66307250Y-120588114D01*
X66368051Y-120971995D01*
X66468644Y-121347414D01*
X66607919Y-121710239D01*
X66607923Y-121710247D01*
X66784365Y-122056535D01*
X66784369Y-122056541D01*
X66996049Y-122382501D01*
X67202877Y-122637911D01*
X67993460Y-121847328D01*
X68052944Y-121847328D01*
X68052944Y-121946784D01*
X68091004Y-122038670D01*
X68161330Y-122108996D01*
X68253216Y-122147056D01*
X68352672Y-122147056D01*
X68444558Y-122108996D01*
X68514884Y-122038670D01*
X68552944Y-121946784D01*
X68552944Y-121847328D01*
X68514884Y-121755442D01*
X68444558Y-121685116D01*
X68352672Y-121647056D01*
X68253216Y-121647056D01*
X68161330Y-121685116D01*
X68091004Y-121755442D01*
X68052944Y-121847328D01*
X67993460Y-121847328D01*
X68703367Y-121137421D01*
X68779588Y-121242330D01*
X68957670Y-121420412D01*
X69062577Y-121496631D01*
X67562087Y-122997121D01*
X67817498Y-123203950D01*
X68143458Y-123415630D01*
X68143464Y-123415634D01*
X68489752Y-123592076D01*
X68489760Y-123592080D01*
X68852585Y-123731355D01*
X69228004Y-123831948D01*
X69611885Y-123892749D01*
X69999994Y-123913089D01*
X70000006Y-123913089D01*
X70388114Y-123892749D01*
X70771995Y-123831948D01*
X71147414Y-123731355D01*
X71510239Y-123592080D01*
X71510247Y-123592076D01*
X71856535Y-123415634D01*
X71856541Y-123415630D01*
X72182501Y-123203950D01*
X72437911Y-122997121D01*
X71288119Y-121847328D01*
X71447056Y-121847328D01*
X71447056Y-121946784D01*
X71485116Y-122038670D01*
X71555442Y-122108996D01*
X71647328Y-122147056D01*
X71746784Y-122147056D01*
X71838670Y-122108996D01*
X71908996Y-122038670D01*
X71947056Y-121946784D01*
X71947056Y-121847328D01*
X71908996Y-121755442D01*
X71838670Y-121685116D01*
X71746784Y-121647056D01*
X71647328Y-121647056D01*
X71555442Y-121685116D01*
X71485116Y-121755442D01*
X71447056Y-121847328D01*
X71288119Y-121847328D01*
X70937422Y-121496631D01*
X71042330Y-121420412D01*
X71220412Y-121242330D01*
X71296632Y-121137422D01*
X72797121Y-122637911D01*
X73003950Y-122382501D01*
X73215630Y-122056541D01*
X73215634Y-122056535D01*
X73392076Y-121710247D01*
X73392080Y-121710239D01*
X73531355Y-121347414D01*
X73578531Y-121171350D01*
X85301500Y-121171350D01*
X85301500Y-123808649D01*
X85308009Y-123869196D01*
X85308011Y-123869204D01*
X85359110Y-124006202D01*
X85359112Y-124006207D01*
X85446738Y-124123261D01*
X85563792Y-124210887D01*
X85563794Y-124210888D01*
X85563796Y-124210889D01*
X85611739Y-124228771D01*
X85700795Y-124261988D01*
X85700803Y-124261990D01*
X85761350Y-124268499D01*
X85761355Y-124268499D01*
X85761362Y-124268500D01*
X85761368Y-124268500D01*
X88398632Y-124268500D01*
X88398638Y-124268500D01*
X88398645Y-124268499D01*
X88398649Y-124268499D01*
X88459196Y-124261990D01*
X88459199Y-124261989D01*
X88459201Y-124261989D01*
X88596204Y-124210889D01*
X88677270Y-124150204D01*
X88713261Y-124123261D01*
X88800887Y-124006207D01*
X88800887Y-124006206D01*
X88800889Y-124006204D01*
X88851989Y-123869201D01*
X88858500Y-123808638D01*
X88858500Y-122490000D01*
X125936513Y-122490000D01*
X125956433Y-122755815D01*
X125956434Y-122755819D01*
X126015746Y-123015687D01*
X126113130Y-123263819D01*
X126113132Y-123263823D01*
X126246411Y-123494670D01*
X126246413Y-123494673D01*
X126246414Y-123494674D01*
X126412612Y-123703079D01*
X126608014Y-123884386D01*
X126608020Y-123884390D01*
X126828247Y-124034539D01*
X126828254Y-124034543D01*
X126828257Y-124034545D01*
X126966711Y-124101221D01*
X127068414Y-124150199D01*
X127068427Y-124150204D01*
X127323126Y-124228768D01*
X127323128Y-124228768D01*
X127323137Y-124228771D01*
X127586720Y-124268500D01*
X127586725Y-124268500D01*
X127853275Y-124268500D01*
X127853280Y-124268500D01*
X128116863Y-124228771D01*
X128174842Y-124210887D01*
X128371572Y-124150204D01*
X128371574Y-124150202D01*
X128371581Y-124150201D01*
X128371586Y-124150198D01*
X128371590Y-124150197D01*
X128611738Y-124034548D01*
X128611738Y-124034547D01*
X128611744Y-124034545D01*
X128831986Y-123884386D01*
X129027388Y-123703079D01*
X129193586Y-123494674D01*
X129326866Y-123263826D01*
X129424252Y-123015692D01*
X129483567Y-122755815D01*
X129503487Y-122490000D01*
X129483567Y-122224185D01*
X129424252Y-121964308D01*
X129374942Y-121838670D01*
X129326869Y-121716180D01*
X129326867Y-121716176D01*
X129193588Y-121485329D01*
X129193586Y-121485326D01*
X129027388Y-121276921D01*
X128831986Y-121095614D01*
X128611744Y-120945455D01*
X128611741Y-120945454D01*
X128611739Y-120945452D01*
X128611738Y-120945451D01*
X128371590Y-120829802D01*
X128371572Y-120829795D01*
X128116873Y-120751231D01*
X128116865Y-120751229D01*
X128116863Y-120751229D01*
X127853280Y-120711500D01*
X127586720Y-120711500D01*
X127323137Y-120751229D01*
X127323135Y-120751229D01*
X127323126Y-120751231D01*
X127068427Y-120829795D01*
X127068414Y-120829800D01*
X126828254Y-120945456D01*
X126828247Y-120945460D01*
X126608020Y-121095609D01*
X126608015Y-121095613D01*
X126412613Y-121276920D01*
X126246411Y-121485329D01*
X126113132Y-121716176D01*
X126113130Y-121716180D01*
X126015746Y-121964312D01*
X125965947Y-122182501D01*
X125956433Y-122224185D01*
X125936513Y-122490000D01*
X88858500Y-122490000D01*
X88858500Y-121171362D01*
X88858499Y-121171350D01*
X88851990Y-121110803D01*
X88851988Y-121110795D01*
X88800889Y-120973797D01*
X88800887Y-120973792D01*
X88713261Y-120856738D01*
X88596207Y-120769112D01*
X88596202Y-120769110D01*
X88459204Y-120718011D01*
X88459196Y-120718009D01*
X88398649Y-120711500D01*
X88398638Y-120711500D01*
X85761362Y-120711500D01*
X85761350Y-120711500D01*
X85700803Y-120718009D01*
X85700795Y-120718011D01*
X85563797Y-120769110D01*
X85563792Y-120769112D01*
X85446738Y-120856738D01*
X85359112Y-120973792D01*
X85359110Y-120973797D01*
X85308011Y-121110795D01*
X85308009Y-121110803D01*
X85301500Y-121171350D01*
X73578531Y-121171350D01*
X73631948Y-120971995D01*
X73692749Y-120588114D01*
X73713089Y-120200006D01*
X73713089Y-120199993D01*
X73708082Y-120104446D01*
X145121500Y-120104446D01*
X145121500Y-121895544D01*
X145132112Y-121999425D01*
X145187885Y-122167738D01*
X145280970Y-122318652D01*
X145280975Y-122318658D01*
X145406341Y-122444024D01*
X145406347Y-122444029D01*
X145406348Y-122444030D01*
X145557262Y-122537115D01*
X145725574Y-122592887D01*
X145829455Y-122603500D01*
X147170544Y-122603499D01*
X147274426Y-122592887D01*
X147442738Y-122537115D01*
X147593652Y-122444030D01*
X147719030Y-122318652D01*
X147812115Y-122167738D01*
X147812115Y-122167735D01*
X147812818Y-122166597D01*
X147865604Y-122119119D01*
X147935679Y-122107716D01*
X148000794Y-122136008D01*
X148009154Y-122143649D01*
X148141961Y-122276456D01*
X148141964Y-122276458D01*
X148141967Y-122276461D01*
X148317508Y-122403999D01*
X148510840Y-122502506D01*
X148717200Y-122569557D01*
X148931510Y-122603500D01*
X148931513Y-122603500D01*
X149148487Y-122603500D01*
X149148490Y-122603500D01*
X149362800Y-122569557D01*
X149569160Y-122502506D01*
X149762492Y-122403999D01*
X149938033Y-122276461D01*
X150091461Y-122123033D01*
X150208065Y-121962541D01*
X150264286Y-121919188D01*
X150335022Y-121913113D01*
X150397814Y-121946244D01*
X150411932Y-121962538D01*
X150528539Y-122123033D01*
X150528541Y-122123035D01*
X150528543Y-122123038D01*
X150681961Y-122276456D01*
X150681964Y-122276458D01*
X150681967Y-122276461D01*
X150857508Y-122403999D01*
X151050840Y-122502506D01*
X151257200Y-122569557D01*
X151471510Y-122603500D01*
X151471513Y-122603500D01*
X151688487Y-122603500D01*
X151688490Y-122603500D01*
X151902800Y-122569557D01*
X152109160Y-122502506D01*
X152302492Y-122403999D01*
X152478033Y-122276461D01*
X152631461Y-122123033D01*
X152748373Y-121962116D01*
X152804595Y-121918763D01*
X152875331Y-121912688D01*
X152938123Y-121945819D01*
X152952246Y-121962118D01*
X153068920Y-122122708D01*
X153222291Y-122276079D01*
X153397768Y-122403569D01*
X153591030Y-122502041D01*
X153591036Y-122502044D01*
X153797314Y-122569067D01*
X153797312Y-122569067D01*
X153866000Y-122579946D01*
X153866000Y-121540399D01*
X153890339Y-121554452D01*
X154041667Y-121595000D01*
X154198333Y-121595000D01*
X154349661Y-121554452D01*
X154374000Y-121540399D01*
X154374000Y-122579946D01*
X154442686Y-122569067D01*
X154648963Y-122502044D01*
X154648969Y-122502041D01*
X154842231Y-122403569D01*
X155017708Y-122276079D01*
X155171079Y-122122708D01*
X155298569Y-121947231D01*
X155397041Y-121753969D01*
X155397044Y-121753963D01*
X155464067Y-121547687D01*
X155498000Y-121333447D01*
X155498000Y-121254000D01*
X154660400Y-121254000D01*
X154674452Y-121229661D01*
X154715000Y-121078333D01*
X154715000Y-120921667D01*
X154674452Y-120770339D01*
X154660400Y-120746000D01*
X155498000Y-120746000D01*
X155498000Y-120666552D01*
X155464067Y-120452312D01*
X155397044Y-120246036D01*
X155397041Y-120246030D01*
X155298569Y-120052768D01*
X155171079Y-119877291D01*
X155017708Y-119723920D01*
X154842231Y-119596430D01*
X154648969Y-119497958D01*
X154648963Y-119497955D01*
X154442681Y-119430930D01*
X154374000Y-119420051D01*
X154374000Y-120459600D01*
X154349661Y-120445548D01*
X154198333Y-120405000D01*
X154041667Y-120405000D01*
X153890339Y-120445548D01*
X153866000Y-120459600D01*
X153866000Y-119420051D01*
X153797318Y-119430930D01*
X153591036Y-119497955D01*
X153591030Y-119497958D01*
X153397768Y-119596430D01*
X153222291Y-119723920D01*
X153068921Y-119877290D01*
X153068918Y-119877294D01*
X152952245Y-120037882D01*
X152896023Y-120081236D01*
X152825287Y-120087311D01*
X152762495Y-120054180D01*
X152748373Y-120037882D01*
X152631459Y-119876964D01*
X152478038Y-119723543D01*
X152478035Y-119723541D01*
X152478033Y-119723539D01*
X152342863Y-119625332D01*
X152302495Y-119596003D01*
X152302494Y-119596002D01*
X152302492Y-119596001D01*
X152109160Y-119497494D01*
X152109159Y-119497493D01*
X152109158Y-119497493D01*
X151902803Y-119430444D01*
X151902800Y-119430443D01*
X151688490Y-119396500D01*
X151471510Y-119396500D01*
X151257200Y-119430443D01*
X151257197Y-119430443D01*
X151257196Y-119430444D01*
X151050841Y-119497493D01*
X150857504Y-119596003D01*
X150681964Y-119723541D01*
X150681961Y-119723543D01*
X150528543Y-119876961D01*
X150528541Y-119876964D01*
X150411936Y-120037457D01*
X150355714Y-120080811D01*
X150284977Y-120086886D01*
X150222186Y-120053754D01*
X150208064Y-120037457D01*
X150144720Y-119950272D01*
X150091461Y-119876967D01*
X150091458Y-119876964D01*
X150091456Y-119876961D01*
X149938038Y-119723543D01*
X149938035Y-119723541D01*
X149938033Y-119723539D01*
X149802863Y-119625332D01*
X149762495Y-119596003D01*
X149762494Y-119596002D01*
X149762492Y-119596001D01*
X149569160Y-119497494D01*
X149569159Y-119497493D01*
X149569158Y-119497493D01*
X149362803Y-119430444D01*
X149362800Y-119430443D01*
X149148490Y-119396500D01*
X148931510Y-119396500D01*
X148717200Y-119430443D01*
X148717197Y-119430443D01*
X148717196Y-119430444D01*
X148510841Y-119497493D01*
X148317504Y-119596003D01*
X148141966Y-119723539D01*
X148009154Y-119856351D01*
X147946842Y-119890376D01*
X147876026Y-119885311D01*
X147819191Y-119842764D01*
X147812818Y-119833402D01*
X147812115Y-119832262D01*
X147719030Y-119681348D01*
X147719029Y-119681347D01*
X147719024Y-119681341D01*
X147593658Y-119555975D01*
X147593652Y-119555970D01*
X147442738Y-119462885D01*
X147337472Y-119428004D01*
X147274427Y-119407113D01*
X147274420Y-119407112D01*
X147170553Y-119396500D01*
X145829455Y-119396500D01*
X145725574Y-119407112D01*
X145557261Y-119462885D01*
X145406347Y-119555970D01*
X145406341Y-119555975D01*
X145280975Y-119681341D01*
X145280970Y-119681347D01*
X145187885Y-119832262D01*
X145132113Y-120000572D01*
X145132112Y-120000579D01*
X145121500Y-120104446D01*
X73708082Y-120104446D01*
X73692749Y-119811885D01*
X73631948Y-119428004D01*
X73531355Y-119052585D01*
X73392080Y-118689760D01*
X73392076Y-118689752D01*
X73215628Y-118343455D01*
X73003957Y-118017508D01*
X73003952Y-118017501D01*
X72797121Y-117762087D01*
X71296631Y-119262577D01*
X71220412Y-119157670D01*
X71042330Y-118979588D01*
X70937421Y-118903367D01*
X71387572Y-118453216D01*
X71447056Y-118453216D01*
X71447056Y-118552672D01*
X71485116Y-118644558D01*
X71555442Y-118714884D01*
X71647328Y-118752944D01*
X71746784Y-118752944D01*
X71838670Y-118714884D01*
X71908996Y-118644558D01*
X71947056Y-118552672D01*
X71947056Y-118453216D01*
X71908996Y-118361330D01*
X71838670Y-118291004D01*
X71746784Y-118252944D01*
X71647328Y-118252944D01*
X71555442Y-118291004D01*
X71485116Y-118361330D01*
X71447056Y-118453216D01*
X71387572Y-118453216D01*
X72437911Y-117402877D01*
X72182501Y-117196049D01*
X71856541Y-116984369D01*
X71856535Y-116984365D01*
X71510247Y-116807923D01*
X71510239Y-116807919D01*
X71147414Y-116668644D01*
X70771995Y-116568051D01*
X70388114Y-116507250D01*
X70000006Y-116486911D01*
X69999994Y-116486911D01*
X69611885Y-116507250D01*
X69228004Y-116568051D01*
X68852585Y-116668644D01*
X68489760Y-116807919D01*
X68489752Y-116807923D01*
X68143455Y-116984371D01*
X67817508Y-117196042D01*
X67817491Y-117196054D01*
X67562088Y-117402876D01*
X67562087Y-117402877D01*
X69062577Y-118903367D01*
X68957670Y-118979588D01*
X68779588Y-119157670D01*
X68703367Y-119262577D01*
X67894006Y-118453216D01*
X68052944Y-118453216D01*
X68052944Y-118552672D01*
X68091004Y-118644558D01*
X68161330Y-118714884D01*
X68253216Y-118752944D01*
X68352672Y-118752944D01*
X68444558Y-118714884D01*
X68514884Y-118644558D01*
X68552944Y-118552672D01*
X68552944Y-118453216D01*
X68514884Y-118361330D01*
X68444558Y-118291004D01*
X68352672Y-118252944D01*
X68253216Y-118252944D01*
X68161330Y-118291004D01*
X68091004Y-118361330D01*
X68052944Y-118453216D01*
X67894006Y-118453216D01*
X67202877Y-117762087D01*
X67202876Y-117762088D01*
X66996054Y-118017491D01*
X66996042Y-118017508D01*
X66784371Y-118343455D01*
X66607923Y-118689752D01*
X66607919Y-118689760D01*
X66468644Y-119052585D01*
X66368051Y-119428004D01*
X66307250Y-119811885D01*
X66286911Y-120199993D01*
X65000000Y-120199993D01*
X65000000Y-114988850D01*
X146291500Y-114988850D01*
X146291500Y-117086149D01*
X146298009Y-117146696D01*
X146298011Y-117146704D01*
X146349110Y-117283702D01*
X146349112Y-117283707D01*
X146436738Y-117400761D01*
X146553792Y-117488387D01*
X146553794Y-117488388D01*
X146553796Y-117488389D01*
X146612875Y-117510424D01*
X146690795Y-117539488D01*
X146690803Y-117539490D01*
X146751350Y-117545999D01*
X146751355Y-117545999D01*
X146751362Y-117546000D01*
X146751368Y-117546000D01*
X148848632Y-117546000D01*
X148848638Y-117546000D01*
X148848645Y-117545999D01*
X148848649Y-117545999D01*
X148909196Y-117539490D01*
X148909199Y-117539489D01*
X148909201Y-117539489D01*
X149046204Y-117488389D01*
X149163261Y-117400761D01*
X149243908Y-117293028D01*
X149300743Y-117250482D01*
X149371559Y-117245417D01*
X149410611Y-117261106D01*
X149613261Y-117385291D01*
X149832562Y-117476128D01*
X150063367Y-117531539D01*
X150300000Y-117550162D01*
X150536632Y-117531539D01*
X150767437Y-117476128D01*
X150986738Y-117385291D01*
X151173890Y-117270602D01*
X151173891Y-117270601D01*
X150424947Y-116521657D01*
X150492993Y-116503425D01*
X150607007Y-116437599D01*
X150700099Y-116344507D01*
X150765925Y-116230493D01*
X150784158Y-116162447D01*
X151546999Y-116925288D01*
X151562974Y-116927994D01*
X151603599Y-116959436D01*
X151730030Y-117107469D01*
X151910580Y-117261673D01*
X151910584Y-117261676D01*
X152113037Y-117385740D01*
X152332406Y-117476605D01*
X152563289Y-117532035D01*
X152800000Y-117550665D01*
X153036711Y-117532035D01*
X153267594Y-117476605D01*
X153486963Y-117385740D01*
X153689416Y-117261676D01*
X153869969Y-117107469D01*
X154024176Y-116926916D01*
X154148240Y-116724463D01*
X154239105Y-116505094D01*
X154294535Y-116274211D01*
X154313165Y-116037500D01*
X154294535Y-115800789D01*
X154239105Y-115569906D01*
X154148240Y-115350537D01*
X154024176Y-115148084D01*
X154024173Y-115148080D01*
X153869969Y-114967530D01*
X153689419Y-114813326D01*
X153689417Y-114813325D01*
X153689416Y-114813324D01*
X153486963Y-114689260D01*
X153450697Y-114674238D01*
X153267592Y-114598394D01*
X153109651Y-114560476D01*
X153036711Y-114542965D01*
X152800000Y-114524335D01*
X152563289Y-114542965D01*
X152332407Y-114598394D01*
X152113038Y-114689259D01*
X151910582Y-114813325D01*
X151910580Y-114813326D01*
X151730033Y-114967528D01*
X151603599Y-115115563D01*
X151544148Y-115154372D01*
X151542162Y-115154546D01*
X150784157Y-115912551D01*
X150765925Y-115844507D01*
X150700099Y-115730493D01*
X150607007Y-115637401D01*
X150492993Y-115571575D01*
X150424947Y-115553341D01*
X151173890Y-114804397D01*
X151173890Y-114804396D01*
X150986738Y-114689708D01*
X150767437Y-114598871D01*
X150536632Y-114543460D01*
X150300000Y-114524837D01*
X150063367Y-114543460D01*
X149832562Y-114598871D01*
X149613266Y-114689706D01*
X149410611Y-114813894D01*
X149342077Y-114832432D01*
X149274401Y-114810976D01*
X149243908Y-114781970D01*
X149163261Y-114674238D01*
X149046207Y-114586612D01*
X149046202Y-114586610D01*
X148909204Y-114535511D01*
X148909196Y-114535509D01*
X148848649Y-114529000D01*
X148848638Y-114529000D01*
X146751362Y-114529000D01*
X146751350Y-114529000D01*
X146690803Y-114535509D01*
X146690795Y-114535511D01*
X146553797Y-114586610D01*
X146553792Y-114586612D01*
X146436738Y-114674238D01*
X146349112Y-114791292D01*
X146349110Y-114791297D01*
X146298011Y-114928295D01*
X146298009Y-114928303D01*
X146291500Y-114988850D01*
X65000000Y-114988850D01*
X65000000Y-107289446D01*
X71916500Y-107289446D01*
X71916500Y-108630544D01*
X71927112Y-108734425D01*
X71982885Y-108902738D01*
X72075970Y-109053652D01*
X72075975Y-109053658D01*
X72201341Y-109179024D01*
X72201347Y-109179029D01*
X72201348Y-109179030D01*
X72352262Y-109272115D01*
X72352266Y-109272116D01*
X72353840Y-109273087D01*
X72401318Y-109325873D01*
X72412721Y-109395947D01*
X72384429Y-109461063D01*
X72376789Y-109469423D01*
X72243918Y-109602294D01*
X72116430Y-109777768D01*
X72017958Y-109971030D01*
X72017955Y-109971036D01*
X71950932Y-110177313D01*
X71940054Y-110246000D01*
X72979600Y-110246000D01*
X72965548Y-110270339D01*
X72925000Y-110421667D01*
X72925000Y-110578333D01*
X72965548Y-110729661D01*
X72979600Y-110754000D01*
X71940054Y-110754000D01*
X71950932Y-110822686D01*
X72017955Y-111028963D01*
X72017958Y-111028969D01*
X72116430Y-111222231D01*
X72243920Y-111397708D01*
X72397291Y-111551079D01*
X72557881Y-111667753D01*
X72601236Y-111723976D01*
X72607312Y-111794712D01*
X72574180Y-111857504D01*
X72557883Y-111871626D01*
X72396960Y-111988544D01*
X72243543Y-112141961D01*
X72243541Y-112141964D01*
X72116003Y-112317504D01*
X72017493Y-112510841D01*
X71950444Y-112717196D01*
X71950443Y-112717200D01*
X71916500Y-112931510D01*
X71916500Y-113148490D01*
X71950443Y-113362800D01*
X72017494Y-113569160D01*
X72116001Y-113762492D01*
X72243539Y-113938033D01*
X72243541Y-113938035D01*
X72243543Y-113938038D01*
X72396961Y-114091456D01*
X72396964Y-114091458D01*
X72396967Y-114091461D01*
X72572508Y-114218999D01*
X72765840Y-114317506D01*
X72972200Y-114384557D01*
X73186510Y-114418500D01*
X73186513Y-114418500D01*
X73853487Y-114418500D01*
X73853490Y-114418500D01*
X74067800Y-114384557D01*
X74274160Y-114317506D01*
X74467492Y-114218999D01*
X74643033Y-114091461D01*
X74796461Y-113938033D01*
X74923999Y-113762492D01*
X75022506Y-113569160D01*
X75089557Y-113362800D01*
X75123500Y-113148490D01*
X75123500Y-112931510D01*
X75089557Y-112717200D01*
X75022506Y-112510840D01*
X74923999Y-112317508D01*
X74796461Y-112141967D01*
X74796458Y-112141964D01*
X74796456Y-112141961D01*
X74643038Y-111988543D01*
X74643035Y-111988541D01*
X74643033Y-111988539D01*
X74482115Y-111871625D01*
X74438762Y-111815404D01*
X74432687Y-111744668D01*
X74465818Y-111681876D01*
X74482117Y-111667753D01*
X74642708Y-111551079D01*
X74796079Y-111397708D01*
X74923569Y-111222231D01*
X75022041Y-111028969D01*
X75022044Y-111028963D01*
X75089067Y-110822686D01*
X75099946Y-110754000D01*
X74060400Y-110754000D01*
X74074452Y-110729661D01*
X74115000Y-110578333D01*
X74115000Y-110421667D01*
X74074452Y-110270339D01*
X74060400Y-110246000D01*
X75099946Y-110246000D01*
X75089067Y-110177313D01*
X75022044Y-109971036D01*
X75022041Y-109971030D01*
X74923569Y-109777768D01*
X74796079Y-109602291D01*
X74663211Y-109469423D01*
X74629185Y-109407111D01*
X74634250Y-109336296D01*
X74676797Y-109279460D01*
X74686160Y-109273087D01*
X74687733Y-109272116D01*
X74687738Y-109272115D01*
X74838652Y-109179030D01*
X74964030Y-109053652D01*
X75057115Y-108902738D01*
X75112887Y-108734426D01*
X75123500Y-108630545D01*
X75123499Y-107289456D01*
X75112887Y-107185574D01*
X75057115Y-107017262D01*
X74964030Y-106866348D01*
X74964029Y-106866347D01*
X74964024Y-106866341D01*
X74838658Y-106740975D01*
X74838652Y-106740970D01*
X74794927Y-106714000D01*
X74687738Y-106647885D01*
X74603582Y-106619999D01*
X74519427Y-106592113D01*
X74519420Y-106592112D01*
X74415553Y-106581500D01*
X72624455Y-106581500D01*
X72520574Y-106592112D01*
X72352261Y-106647885D01*
X72201347Y-106740970D01*
X72201341Y-106740975D01*
X72075975Y-106866341D01*
X72075970Y-106866347D01*
X71982885Y-107017262D01*
X71927113Y-107185572D01*
X71927112Y-107185579D01*
X71916500Y-107289446D01*
X65000000Y-107289446D01*
X65000000Y-104710000D01*
X85296513Y-104710000D01*
X85316433Y-104975815D01*
X85316434Y-104975819D01*
X85375746Y-105235687D01*
X85473130Y-105483819D01*
X85473132Y-105483823D01*
X85606411Y-105714670D01*
X85606413Y-105714673D01*
X85606414Y-105714674D01*
X85772612Y-105923079D01*
X85968014Y-106104386D01*
X85968020Y-106104390D01*
X86188247Y-106254539D01*
X86188254Y-106254543D01*
X86188257Y-106254545D01*
X86326711Y-106321221D01*
X86428414Y-106370199D01*
X86428427Y-106370204D01*
X86683126Y-106448768D01*
X86683128Y-106448768D01*
X86683137Y-106448771D01*
X86946720Y-106488500D01*
X86946725Y-106488500D01*
X87213275Y-106488500D01*
X87213280Y-106488500D01*
X87476863Y-106448771D01*
X87519851Y-106435511D01*
X87731572Y-106370204D01*
X87731574Y-106370202D01*
X87731581Y-106370201D01*
X87731586Y-106370198D01*
X87731590Y-106370197D01*
X87971738Y-106254548D01*
X87971738Y-106254547D01*
X87971744Y-106254545D01*
X88191986Y-106104386D01*
X88387388Y-105923079D01*
X88553586Y-105714674D01*
X88686866Y-105483826D01*
X88701903Y-105445514D01*
X88716265Y-105408918D01*
X88784252Y-105235692D01*
X88843567Y-104975815D01*
X88863487Y-104710000D01*
X88843567Y-104444185D01*
X88784252Y-104184308D01*
X88711262Y-103998333D01*
X88686869Y-103936180D01*
X88686867Y-103936176D01*
X88553588Y-103705329D01*
X88522224Y-103666000D01*
X88387388Y-103496921D01*
X88191986Y-103315614D01*
X87971744Y-103165455D01*
X87971741Y-103165454D01*
X87971739Y-103165452D01*
X87971738Y-103165451D01*
X87731590Y-103049802D01*
X87731572Y-103049795D01*
X87476873Y-102971231D01*
X87476865Y-102971229D01*
X87476863Y-102971229D01*
X87213280Y-102931500D01*
X86946720Y-102931500D01*
X86683137Y-102971229D01*
X86683135Y-102971229D01*
X86683126Y-102971231D01*
X86428427Y-103049795D01*
X86428414Y-103049800D01*
X86188254Y-103165456D01*
X86188247Y-103165460D01*
X85968020Y-103315609D01*
X85968015Y-103315613D01*
X85772613Y-103496920D01*
X85606411Y-103705329D01*
X85473132Y-103936176D01*
X85473130Y-103936180D01*
X85375746Y-104184312D01*
X85327404Y-104396118D01*
X85316433Y-104444185D01*
X85296513Y-104710000D01*
X65000000Y-104710000D01*
X65000000Y-96199993D01*
X66286911Y-96199993D01*
X66286911Y-96200006D01*
X66307250Y-96588114D01*
X66368051Y-96971995D01*
X66468644Y-97347414D01*
X66607919Y-97710239D01*
X66607923Y-97710247D01*
X66784365Y-98056535D01*
X66784369Y-98056541D01*
X66996049Y-98382501D01*
X67202877Y-98637911D01*
X67993460Y-97847328D01*
X68052944Y-97847328D01*
X68052944Y-97946784D01*
X68091004Y-98038670D01*
X68161330Y-98108996D01*
X68253216Y-98147056D01*
X68352672Y-98147056D01*
X68444558Y-98108996D01*
X68514884Y-98038670D01*
X68552944Y-97946784D01*
X68552944Y-97847328D01*
X68514884Y-97755442D01*
X68444558Y-97685116D01*
X68352672Y-97647056D01*
X68253216Y-97647056D01*
X68161330Y-97685116D01*
X68091004Y-97755442D01*
X68052944Y-97847328D01*
X67993460Y-97847328D01*
X68703367Y-97137421D01*
X68779588Y-97242330D01*
X68957670Y-97420412D01*
X69062577Y-97496631D01*
X67562087Y-98997121D01*
X67817498Y-99203950D01*
X68143458Y-99415630D01*
X68143464Y-99415634D01*
X68489752Y-99592076D01*
X68489760Y-99592080D01*
X68852585Y-99731355D01*
X69228004Y-99831948D01*
X69611885Y-99892749D01*
X69999994Y-99913089D01*
X70000006Y-99913089D01*
X70388114Y-99892749D01*
X70771995Y-99831948D01*
X71147414Y-99731355D01*
X71510239Y-99592080D01*
X71510247Y-99592076D01*
X71856535Y-99415634D01*
X71856541Y-99415630D01*
X72182501Y-99203950D01*
X72437911Y-98997121D01*
X71288119Y-97847328D01*
X71447056Y-97847328D01*
X71447056Y-97946784D01*
X71485116Y-98038670D01*
X71555442Y-98108996D01*
X71647328Y-98147056D01*
X71746784Y-98147056D01*
X71838670Y-98108996D01*
X71908996Y-98038670D01*
X71947056Y-97946784D01*
X71947056Y-97847328D01*
X71908996Y-97755442D01*
X71838670Y-97685116D01*
X71746784Y-97647056D01*
X71647328Y-97647056D01*
X71555442Y-97685116D01*
X71485116Y-97755442D01*
X71447056Y-97847328D01*
X71288119Y-97847328D01*
X70937422Y-97496631D01*
X71042330Y-97420412D01*
X71220412Y-97242330D01*
X71296632Y-97137422D01*
X72797121Y-98637911D01*
X73003950Y-98382501D01*
X73215630Y-98056541D01*
X73215634Y-98056535D01*
X73392076Y-97710247D01*
X73392080Y-97710239D01*
X73531355Y-97347414D01*
X73631948Y-96971995D01*
X73692749Y-96588114D01*
X73713089Y-96200006D01*
X73713089Y-96199993D01*
X73692749Y-95811885D01*
X73631948Y-95428004D01*
X73531355Y-95052585D01*
X73392080Y-94689760D01*
X73392076Y-94689752D01*
X73215628Y-94343455D01*
X73003957Y-94017508D01*
X73003952Y-94017501D01*
X72797121Y-93762087D01*
X71296631Y-95262577D01*
X71220412Y-95157670D01*
X71042330Y-94979588D01*
X70937421Y-94903367D01*
X71387572Y-94453216D01*
X71447056Y-94453216D01*
X71447056Y-94552672D01*
X71485116Y-94644558D01*
X71555442Y-94714884D01*
X71647328Y-94752944D01*
X71746784Y-94752944D01*
X71838670Y-94714884D01*
X71908996Y-94644558D01*
X71947056Y-94552672D01*
X71947056Y-94453216D01*
X71908996Y-94361330D01*
X71838670Y-94291004D01*
X71746784Y-94252944D01*
X71647328Y-94252944D01*
X71555442Y-94291004D01*
X71485116Y-94361330D01*
X71447056Y-94453216D01*
X71387572Y-94453216D01*
X72437911Y-93402877D01*
X72182501Y-93196049D01*
X71856541Y-92984369D01*
X71856535Y-92984365D01*
X71510247Y-92807923D01*
X71510239Y-92807919D01*
X71147414Y-92668644D01*
X70771995Y-92568051D01*
X70388114Y-92507250D01*
X70000006Y-92486911D01*
X69999994Y-92486911D01*
X69611885Y-92507250D01*
X69228004Y-92568051D01*
X68852585Y-92668644D01*
X68489760Y-92807919D01*
X68489752Y-92807923D01*
X68143455Y-92984371D01*
X67817508Y-93196042D01*
X67817491Y-93196054D01*
X67562088Y-93402876D01*
X67562087Y-93402877D01*
X69062577Y-94903367D01*
X68957670Y-94979588D01*
X68779588Y-95157670D01*
X68703367Y-95262577D01*
X67894006Y-94453216D01*
X68052944Y-94453216D01*
X68052944Y-94552672D01*
X68091004Y-94644558D01*
X68161330Y-94714884D01*
X68253216Y-94752944D01*
X68352672Y-94752944D01*
X68444558Y-94714884D01*
X68514884Y-94644558D01*
X68552944Y-94552672D01*
X68552944Y-94453216D01*
X68514884Y-94361330D01*
X68444558Y-94291004D01*
X68352672Y-94252944D01*
X68253216Y-94252944D01*
X68161330Y-94291004D01*
X68091004Y-94361330D01*
X68052944Y-94453216D01*
X67894006Y-94453216D01*
X67202877Y-93762087D01*
X67202876Y-93762088D01*
X66996054Y-94017491D01*
X66996042Y-94017508D01*
X66784371Y-94343455D01*
X66607923Y-94689752D01*
X66607919Y-94689760D01*
X66468644Y-95052585D01*
X66368051Y-95428004D01*
X66307250Y-95811885D01*
X66286911Y-96199993D01*
X65000000Y-96199993D01*
X65000000Y-68600000D01*
X70086496Y-68600000D01*
X70106457Y-68789927D01*
X70130200Y-68862999D01*
X70165473Y-68971556D01*
X70224619Y-69074000D01*
X70241500Y-69136999D01*
X70241500Y-90282267D01*
X70235333Y-90321203D01*
X70206457Y-90410071D01*
X70186496Y-90600000D01*
X70206457Y-90789927D01*
X70224149Y-90844375D01*
X70265473Y-90971556D01*
X70265476Y-90971561D01*
X70360958Y-91136941D01*
X70360965Y-91136951D01*
X70488744Y-91278864D01*
X70488747Y-91278866D01*
X70643248Y-91391118D01*
X70817712Y-91468794D01*
X71004513Y-91508500D01*
X71195487Y-91508500D01*
X71382288Y-91468794D01*
X71556752Y-91391118D01*
X71711253Y-91278866D01*
X71723115Y-91265692D01*
X71839034Y-91136951D01*
X71839035Y-91136949D01*
X71839040Y-91136944D01*
X71905422Y-91021968D01*
X71956805Y-90972974D01*
X72014541Y-90958968D01*
X72036608Y-90958968D01*
X72223409Y-90919262D01*
X72397873Y-90841586D01*
X72552374Y-90729334D01*
X72597816Y-90678866D01*
X72680155Y-90587419D01*
X72680156Y-90587417D01*
X72680161Y-90587412D01*
X72775648Y-90422024D01*
X72834663Y-90240396D01*
X72854625Y-90050468D01*
X72834663Y-89860540D01*
X72775648Y-89678912D01*
X72692272Y-89534500D01*
X72680163Y-89513527D01*
X72680162Y-89513526D01*
X72680161Y-89513524D01*
X72641362Y-89470433D01*
X72610645Y-89406425D01*
X72608999Y-89386123D01*
X72608999Y-89284348D01*
X72629001Y-89216227D01*
X72682657Y-89169734D01*
X72752931Y-89159630D01*
X72817511Y-89189124D01*
X72844117Y-89221346D01*
X72867300Y-89261500D01*
X72910458Y-89336253D01*
X72910465Y-89336263D01*
X73038244Y-89478176D01*
X73089730Y-89515583D01*
X73192748Y-89590430D01*
X73367212Y-89668106D01*
X73554013Y-89707812D01*
X73744987Y-89707812D01*
X73931788Y-89668106D01*
X74106252Y-89590430D01*
X74260753Y-89478178D01*
X74316742Y-89415994D01*
X74377187Y-89378756D01*
X74448170Y-89380107D01*
X74507155Y-89419621D01*
X74517619Y-89434159D01*
X74526365Y-89448339D01*
X74526370Y-89448345D01*
X74651654Y-89573629D01*
X74651660Y-89573634D01*
X74802474Y-89666657D01*
X74970678Y-89722393D01*
X74970681Y-89722394D01*
X75074483Y-89732999D01*
X75074483Y-89733000D01*
X75208500Y-89733000D01*
X75208500Y-87267000D01*
X75074483Y-87267000D01*
X74970681Y-87277605D01*
X74970678Y-87277606D01*
X74802474Y-87333342D01*
X74651660Y-87426365D01*
X74651654Y-87426370D01*
X74573595Y-87504430D01*
X74511283Y-87538456D01*
X74440468Y-87533391D01*
X74383632Y-87490844D01*
X74358821Y-87424324D01*
X74358500Y-87415335D01*
X74358500Y-86584665D01*
X74378502Y-86516544D01*
X74432158Y-86470051D01*
X74502432Y-86459947D01*
X74567012Y-86489441D01*
X74573595Y-86495570D01*
X74651654Y-86573629D01*
X74651660Y-86573634D01*
X74802474Y-86666657D01*
X74970678Y-86722393D01*
X74970681Y-86722394D01*
X75074483Y-86732999D01*
X75074483Y-86733000D01*
X75208500Y-86733000D01*
X75208500Y-85372000D01*
X75228502Y-85303879D01*
X75282158Y-85257386D01*
X75334500Y-85246000D01*
X75590500Y-85246000D01*
X75658621Y-85266002D01*
X75705114Y-85319658D01*
X75716500Y-85372000D01*
X75716500Y-86733000D01*
X75850517Y-86733000D01*
X75850516Y-86732999D01*
X75954318Y-86722394D01*
X75954321Y-86722393D01*
X76122525Y-86666657D01*
X76273339Y-86573634D01*
X76273345Y-86573629D01*
X76398624Y-86448350D01*
X76400832Y-86445558D01*
X76402837Y-86444137D01*
X76403825Y-86443150D01*
X76403993Y-86443318D01*
X76458768Y-86404522D01*
X76529693Y-86401323D01*
X76591088Y-86436976D01*
X76598515Y-86445547D01*
X76600974Y-86448657D01*
X76726341Y-86574024D01*
X76726347Y-86574029D01*
X76726348Y-86574030D01*
X76877262Y-86667115D01*
X77045574Y-86722887D01*
X77149455Y-86733500D01*
X77925544Y-86733499D01*
X78029426Y-86722887D01*
X78197738Y-86667115D01*
X78348652Y-86574030D01*
X78406138Y-86516544D01*
X78477278Y-86445405D01*
X78539590Y-86411379D01*
X78566373Y-86408500D01*
X78648510Y-86408500D01*
X78716631Y-86428502D01*
X78763124Y-86482158D01*
X78763897Y-86483886D01*
X78801139Y-86568790D01*
X78924275Y-86757265D01*
X78924279Y-86757270D01*
X79029493Y-86871561D01*
X79064828Y-86909945D01*
X79076762Y-86922908D01*
X79105666Y-86945405D01*
X79254424Y-87061189D01*
X79287680Y-87079186D01*
X79338071Y-87129200D01*
X79353423Y-87198516D01*
X79328862Y-87265129D01*
X79287680Y-87300813D01*
X79254426Y-87318810D01*
X79254424Y-87318811D01*
X79076762Y-87457091D01*
X79025469Y-87512809D01*
X78990460Y-87550838D01*
X78929609Y-87587409D01*
X78897761Y-87591500D01*
X78566373Y-87591500D01*
X78498252Y-87571498D01*
X78477278Y-87554595D01*
X78348658Y-87425975D01*
X78348652Y-87425970D01*
X78302203Y-87397320D01*
X78197738Y-87332885D01*
X78084626Y-87295404D01*
X78029427Y-87277113D01*
X78029420Y-87277112D01*
X77925553Y-87266500D01*
X77149455Y-87266500D01*
X77045574Y-87277112D01*
X76877261Y-87332885D01*
X76726347Y-87425970D01*
X76726341Y-87425975D01*
X76600971Y-87551345D01*
X76598511Y-87554457D01*
X76596281Y-87556035D01*
X76595780Y-87556537D01*
X76595694Y-87556451D01*
X76540568Y-87595483D01*
X76469643Y-87598671D01*
X76408254Y-87563008D01*
X76400837Y-87554446D01*
X76398632Y-87551657D01*
X76273345Y-87426370D01*
X76273339Y-87426365D01*
X76122525Y-87333342D01*
X75954321Y-87277606D01*
X75954318Y-87277605D01*
X75850516Y-87267000D01*
X75716500Y-87267000D01*
X75716500Y-89733000D01*
X75850517Y-89733000D01*
X75850516Y-89732999D01*
X75954318Y-89722394D01*
X75954321Y-89722393D01*
X76122525Y-89666657D01*
X76273339Y-89573634D01*
X76273345Y-89573629D01*
X76398624Y-89448350D01*
X76400832Y-89445558D01*
X76402837Y-89444137D01*
X76403825Y-89443150D01*
X76403993Y-89443318D01*
X76458768Y-89404522D01*
X76529693Y-89401323D01*
X76591088Y-89436976D01*
X76598511Y-89445542D01*
X76601833Y-89449743D01*
X76628397Y-89515583D01*
X76629000Y-89527897D01*
X76629000Y-98383284D01*
X76628310Y-98396454D01*
X76623996Y-98437499D01*
X76628310Y-98478545D01*
X76629000Y-98491715D01*
X76629000Y-98526983D01*
X76637202Y-98568215D01*
X76638932Y-98579622D01*
X76643957Y-98627425D01*
X76643959Y-98627433D01*
X76654611Y-98660216D01*
X76658356Y-98674567D01*
X76661412Y-98689928D01*
X76663913Y-98702500D01*
X76682600Y-98747614D01*
X76686023Y-98756893D01*
X76702973Y-98809057D01*
X76716811Y-98833024D01*
X76724101Y-98847807D01*
X76732395Y-98867831D01*
X76732397Y-98867835D01*
X76734884Y-98871557D01*
X76763290Y-98914070D01*
X76763298Y-98914081D01*
X76767652Y-98921083D01*
X76798458Y-98974442D01*
X76798460Y-98974444D01*
X76812430Y-98989959D01*
X76823555Y-99004262D01*
X76831822Y-99016635D01*
X76875960Y-99060773D01*
X76880484Y-99065541D01*
X76926244Y-99116364D01*
X76926247Y-99116366D01*
X76937617Y-99124627D01*
X76937626Y-99124633D01*
X76952661Y-99137474D01*
X76958365Y-99143178D01*
X77015866Y-99181598D01*
X77019920Y-99184423D01*
X77080748Y-99228618D01*
X77087380Y-99231571D01*
X77106126Y-99241909D01*
X77107162Y-99242601D01*
X77107163Y-99242601D01*
X77107164Y-99242602D01*
X77177362Y-99271678D01*
X77180347Y-99272961D01*
X77255212Y-99306294D01*
X77255613Y-99306379D01*
X77266436Y-99309742D01*
X77266574Y-99309289D01*
X77272503Y-99311088D01*
X77302771Y-99317108D01*
X77353744Y-99327246D01*
X77355107Y-99327527D01*
X77442013Y-99346000D01*
X77442015Y-99346000D01*
X77632986Y-99346000D01*
X77632987Y-99346000D01*
X77719891Y-99327526D01*
X77721253Y-99327246D01*
X77802500Y-99311087D01*
X77802508Y-99311083D01*
X77808431Y-99309287D01*
X77808570Y-99309746D01*
X77819386Y-99306379D01*
X77819788Y-99306294D01*
X77894706Y-99272937D01*
X77897607Y-99271690D01*
X77967836Y-99242602D01*
X77968874Y-99241908D01*
X77987622Y-99231569D01*
X77994252Y-99228618D01*
X78055096Y-99184410D01*
X78059133Y-99181598D01*
X78116635Y-99143178D01*
X78122340Y-99137471D01*
X78137368Y-99124636D01*
X78148753Y-99116366D01*
X78194553Y-99065498D01*
X78199020Y-99060791D01*
X78243178Y-99016635D01*
X78251442Y-99004264D01*
X78262569Y-98989959D01*
X78276540Y-98974444D01*
X78307359Y-98921062D01*
X78311685Y-98914104D01*
X78342602Y-98867836D01*
X78350898Y-98847804D01*
X78358191Y-98833019D01*
X78372023Y-98809063D01*
X78372023Y-98809062D01*
X78372027Y-98809056D01*
X78388981Y-98756873D01*
X78392385Y-98747648D01*
X78411087Y-98702500D01*
X78416643Y-98674563D01*
X78420386Y-98660220D01*
X78431042Y-98627428D01*
X78436065Y-98579628D01*
X78437796Y-98568220D01*
X78440582Y-98554215D01*
X78446000Y-98526979D01*
X78446000Y-98491715D01*
X78446690Y-98478545D01*
X78448749Y-98458954D01*
X78451004Y-98437500D01*
X78446690Y-98396454D01*
X78446000Y-98383284D01*
X78446000Y-96438085D01*
X78466002Y-96369964D01*
X78519658Y-96323471D01*
X78589932Y-96313367D01*
X78654512Y-96342861D01*
X78679241Y-96371938D01*
X78726365Y-96448339D01*
X78726370Y-96448345D01*
X78851654Y-96573629D01*
X78851660Y-96573634D01*
X79002474Y-96666657D01*
X79170678Y-96722393D01*
X79170681Y-96722394D01*
X79274483Y-96732999D01*
X79274483Y-96733000D01*
X79546000Y-96733000D01*
X80054000Y-96733000D01*
X80325517Y-96733000D01*
X80325516Y-96732999D01*
X80429318Y-96722394D01*
X80429321Y-96722393D01*
X80597525Y-96666657D01*
X80748339Y-96573634D01*
X80748345Y-96573629D01*
X80873629Y-96448345D01*
X80873634Y-96448339D01*
X80966657Y-96297525D01*
X81022393Y-96129321D01*
X81022394Y-96129318D01*
X81032999Y-96025516D01*
X81033000Y-96025516D01*
X81033000Y-95891500D01*
X80054000Y-95891500D01*
X80054000Y-96733000D01*
X79546000Y-96733000D01*
X79546000Y-95509500D01*
X79566002Y-95441379D01*
X79619658Y-95394886D01*
X79672000Y-95383500D01*
X81033000Y-95383500D01*
X81033000Y-95249483D01*
X81022394Y-95145681D01*
X81022393Y-95145678D01*
X80966657Y-94977474D01*
X80873634Y-94826660D01*
X80873629Y-94826654D01*
X80748344Y-94701369D01*
X80745551Y-94699161D01*
X80744131Y-94697156D01*
X80743150Y-94696175D01*
X80743317Y-94696007D01*
X80704519Y-94641222D01*
X80701325Y-94570298D01*
X80736983Y-94508905D01*
X80745554Y-94501478D01*
X80748639Y-94499037D01*
X80748652Y-94499030D01*
X80874030Y-94373652D01*
X80967115Y-94222738D01*
X81022887Y-94054426D01*
X81027373Y-94010520D01*
X81029150Y-93993126D01*
X81055972Y-93927391D01*
X81114075Y-93886593D01*
X81179076Y-93882354D01*
X81310521Y-93908500D01*
X87502497Y-93908500D01*
X87570618Y-93928502D01*
X87617111Y-93982158D01*
X87627215Y-94052432D01*
X87597721Y-94117012D01*
X87591592Y-94123595D01*
X84160592Y-97554595D01*
X84098280Y-97588621D01*
X84071497Y-97591500D01*
X83804512Y-97591500D01*
X83717746Y-97609942D01*
X83716133Y-97610274D01*
X83634995Y-97626414D01*
X83629072Y-97628211D01*
X83628937Y-97627767D01*
X83618138Y-97631115D01*
X83617714Y-97631205D01*
X83617709Y-97631206D01*
X83542874Y-97664525D01*
X83539846Y-97665826D01*
X83469666Y-97694896D01*
X83469661Y-97694899D01*
X83468614Y-97695599D01*
X83449890Y-97705924D01*
X83443251Y-97708880D01*
X83443249Y-97708881D01*
X83382431Y-97753067D01*
X83378375Y-97755893D01*
X83320870Y-97794317D01*
X83320862Y-97794323D01*
X83315157Y-97800029D01*
X83300132Y-97812861D01*
X83288747Y-97821133D01*
X83242984Y-97871958D01*
X83238444Y-97876742D01*
X83194322Y-97920863D01*
X83194320Y-97920866D01*
X83186053Y-97933239D01*
X83174930Y-97947540D01*
X83160961Y-97963054D01*
X83160958Y-97963058D01*
X83130149Y-98016420D01*
X83125797Y-98023418D01*
X83094900Y-98069660D01*
X83094898Y-98069663D01*
X83086600Y-98089694D01*
X83079316Y-98104464D01*
X83065476Y-98128436D01*
X83065470Y-98128451D01*
X83048527Y-98180594D01*
X83045105Y-98189872D01*
X83026413Y-98235000D01*
X83026412Y-98235002D01*
X83020855Y-98262936D01*
X83017111Y-98277283D01*
X83006458Y-98310068D01*
X83006457Y-98310074D01*
X83001432Y-98357876D01*
X82999702Y-98369282D01*
X82991500Y-98410514D01*
X82991500Y-98445784D01*
X82990810Y-98458954D01*
X82986496Y-98499999D01*
X82990810Y-98541045D01*
X82991500Y-98554215D01*
X82991500Y-98589483D01*
X82997269Y-98618484D01*
X82999047Y-98627426D01*
X82999702Y-98630715D01*
X83001432Y-98642122D01*
X83006457Y-98689925D01*
X83006459Y-98689933D01*
X83017111Y-98722716D01*
X83020856Y-98737067D01*
X83023866Y-98752195D01*
X83026413Y-98765000D01*
X83045107Y-98810132D01*
X83048523Y-98819393D01*
X83065473Y-98871557D01*
X83079311Y-98895524D01*
X83086601Y-98910307D01*
X83094895Y-98930331D01*
X83094897Y-98930335D01*
X83125798Y-98976581D01*
X83130152Y-98983583D01*
X83160958Y-99036942D01*
X83160960Y-99036944D01*
X83174930Y-99052459D01*
X83186055Y-99066762D01*
X83194322Y-99079135D01*
X83238460Y-99123273D01*
X83242984Y-99128041D01*
X83288744Y-99178864D01*
X83288747Y-99178866D01*
X83296402Y-99184428D01*
X83300126Y-99187133D01*
X83315161Y-99199974D01*
X83320865Y-99205678D01*
X83376127Y-99242602D01*
X83378366Y-99244098D01*
X83382420Y-99246923D01*
X83443248Y-99291118D01*
X83449880Y-99294071D01*
X83468626Y-99304409D01*
X83469662Y-99305101D01*
X83469663Y-99305101D01*
X83469664Y-99305102D01*
X83539862Y-99334178D01*
X83542847Y-99335461D01*
X83617712Y-99368794D01*
X83618113Y-99368879D01*
X83628936Y-99372242D01*
X83629074Y-99371789D01*
X83635003Y-99373588D01*
X83665271Y-99379608D01*
X83716244Y-99389746D01*
X83717607Y-99390027D01*
X83804513Y-99408500D01*
X83804515Y-99408500D01*
X84589478Y-99408500D01*
X84589479Y-99408500D01*
X84765000Y-99373587D01*
X84930336Y-99305103D01*
X85079135Y-99205678D01*
X89484840Y-94799971D01*
X89499867Y-94787137D01*
X89511253Y-94778866D01*
X89557053Y-94727998D01*
X89561520Y-94723291D01*
X89605678Y-94679135D01*
X89613944Y-94666762D01*
X89625066Y-94652462D01*
X89639040Y-94636944D01*
X89669850Y-94583578D01*
X89674193Y-94576595D01*
X89690178Y-94552672D01*
X89705103Y-94530336D01*
X89713401Y-94510299D01*
X89720686Y-94495527D01*
X89734527Y-94471556D01*
X89751479Y-94419380D01*
X89754894Y-94410128D01*
X89773585Y-94365004D01*
X89773585Y-94365003D01*
X89773587Y-94364999D01*
X89779141Y-94337071D01*
X89782886Y-94322721D01*
X89793542Y-94289928D01*
X89798565Y-94242128D01*
X89800296Y-94230720D01*
X89801884Y-94222737D01*
X89808500Y-94189479D01*
X89808500Y-94154215D01*
X89809190Y-94141045D01*
X89811024Y-94123595D01*
X89813504Y-94100000D01*
X89809190Y-94058954D01*
X89808500Y-94045784D01*
X89808500Y-94034500D01*
X89828502Y-93966379D01*
X89882158Y-93919886D01*
X89934500Y-93908500D01*
X90689478Y-93908500D01*
X90689479Y-93908500D01*
X90865000Y-93873587D01*
X91030336Y-93805103D01*
X91179135Y-93705678D01*
X91705677Y-93179136D01*
X91705678Y-93179135D01*
X91739408Y-93145405D01*
X91801720Y-93111379D01*
X91828503Y-93108500D01*
X93295486Y-93108500D01*
X93295487Y-93108500D01*
X93382391Y-93090026D01*
X93383753Y-93089746D01*
X93465000Y-93073587D01*
X93465008Y-93073583D01*
X93470931Y-93071787D01*
X93471070Y-93072246D01*
X93481886Y-93068879D01*
X93482288Y-93068794D01*
X93557206Y-93035437D01*
X93560107Y-93034190D01*
X93630336Y-93005102D01*
X93631374Y-93004408D01*
X93650122Y-92994069D01*
X93656752Y-92991118D01*
X93717596Y-92946910D01*
X93721619Y-92944107D01*
X93779135Y-92905678D01*
X93784840Y-92899971D01*
X93799868Y-92887136D01*
X93811253Y-92878866D01*
X93857053Y-92827998D01*
X93861520Y-92823291D01*
X93905678Y-92779135D01*
X93913942Y-92766764D01*
X93925067Y-92752460D01*
X93939040Y-92736944D01*
X93969859Y-92683562D01*
X93974185Y-92676604D01*
X94005102Y-92630336D01*
X94013398Y-92610304D01*
X94020691Y-92595519D01*
X94034523Y-92571563D01*
X94034523Y-92571562D01*
X94034527Y-92571556D01*
X94051481Y-92519373D01*
X94054885Y-92510148D01*
X94073587Y-92465000D01*
X94079143Y-92437063D01*
X94082886Y-92422720D01*
X94093542Y-92389928D01*
X94098565Y-92342128D01*
X94100296Y-92330720D01*
X94108500Y-92289479D01*
X94108500Y-92254215D01*
X94109190Y-92241045D01*
X94111783Y-92216372D01*
X94113504Y-92200000D01*
X94109190Y-92158954D01*
X94108500Y-92145784D01*
X94108500Y-92110522D01*
X94108500Y-92110521D01*
X94100293Y-92069266D01*
X94098565Y-92057866D01*
X94094460Y-92018807D01*
X94093542Y-92010072D01*
X94090516Y-92000761D01*
X94082886Y-91977275D01*
X94079139Y-91962917D01*
X94076086Y-91947568D01*
X94073587Y-91935000D01*
X94054890Y-91889862D01*
X94051469Y-91880587D01*
X94047490Y-91868342D01*
X94034527Y-91828444D01*
X94020681Y-91804462D01*
X94013398Y-91789692D01*
X94005105Y-91769670D01*
X94005103Y-91769667D01*
X94005102Y-91769664D01*
X93974183Y-91723392D01*
X93969858Y-91716436D01*
X93939040Y-91663056D01*
X93925069Y-91647540D01*
X93913938Y-91633228D01*
X93905679Y-91620866D01*
X93905678Y-91620865D01*
X93861537Y-91576724D01*
X93857014Y-91571957D01*
X93811256Y-91521137D01*
X93811255Y-91521136D01*
X93811253Y-91521134D01*
X93799864Y-91512859D01*
X93784835Y-91500022D01*
X93779135Y-91494322D01*
X93721628Y-91455897D01*
X93717576Y-91453074D01*
X93656751Y-91408881D01*
X93650114Y-91405926D01*
X93631378Y-91395594D01*
X93630333Y-91394895D01*
X93560182Y-91365839D01*
X93557168Y-91364544D01*
X93482288Y-91331206D01*
X93482284Y-91331204D01*
X93481863Y-91331115D01*
X93471064Y-91327765D01*
X93470929Y-91328211D01*
X93465008Y-91326415D01*
X93465001Y-91326413D01*
X93465000Y-91326413D01*
X93400333Y-91313549D01*
X93383880Y-91310277D01*
X93382267Y-91309945D01*
X93295489Y-91291500D01*
X93295487Y-91291500D01*
X93289479Y-91291500D01*
X92095487Y-91291500D01*
X92089479Y-91291500D01*
X91489479Y-91291500D01*
X91310520Y-91291500D01*
X91310515Y-91291500D01*
X91281400Y-91297291D01*
X91281399Y-91297292D01*
X91160423Y-91321356D01*
X91135000Y-91326413D01*
X90969663Y-91394898D01*
X90825090Y-91491499D01*
X90825089Y-91491500D01*
X90820864Y-91494322D01*
X90694322Y-91620865D01*
X90420864Y-91894323D01*
X90260592Y-92054595D01*
X90198280Y-92088621D01*
X90171497Y-92091500D01*
X88111090Y-92091500D01*
X88042969Y-92071498D01*
X87996476Y-92017842D01*
X87986372Y-91947568D01*
X88003849Y-91899353D01*
X88066657Y-91797525D01*
X88122393Y-91629321D01*
X88122394Y-91629318D01*
X88132999Y-91525516D01*
X88133000Y-91525516D01*
X88133000Y-91254000D01*
X86909500Y-91254000D01*
X86841379Y-91233998D01*
X86794886Y-91180342D01*
X86783500Y-91128000D01*
X86783500Y-90746000D01*
X87291500Y-90746000D01*
X88133000Y-90746000D01*
X88133000Y-90474483D01*
X88122394Y-90370681D01*
X88122393Y-90370678D01*
X88066657Y-90202474D01*
X87973634Y-90051660D01*
X87973629Y-90051654D01*
X87848345Y-89926370D01*
X87848339Y-89926365D01*
X87697525Y-89833342D01*
X87529321Y-89777606D01*
X87529318Y-89777605D01*
X87425516Y-89767000D01*
X87291500Y-89767000D01*
X87291500Y-90746000D01*
X86783500Y-90746000D01*
X86783500Y-89767000D01*
X86649483Y-89767000D01*
X86545681Y-89777605D01*
X86545678Y-89777606D01*
X86377474Y-89833342D01*
X86226660Y-89926365D01*
X86226654Y-89926370D01*
X86101370Y-90051654D01*
X86099157Y-90054454D01*
X86097149Y-90055875D01*
X86096175Y-90056850D01*
X86096008Y-90056683D01*
X86041216Y-90095482D01*
X85970291Y-90098672D01*
X85908900Y-90063011D01*
X85901483Y-90054450D01*
X85899028Y-90051345D01*
X85773658Y-89925975D01*
X85773652Y-89925970D01*
X85761773Y-89918643D01*
X85622738Y-89832885D01*
X85526423Y-89800970D01*
X85454427Y-89777113D01*
X85454420Y-89777112D01*
X85349181Y-89766359D01*
X85283446Y-89739536D01*
X85242648Y-89681433D01*
X85239740Y-89610496D01*
X85272891Y-89551921D01*
X86079410Y-88745402D01*
X86141720Y-88711379D01*
X86168503Y-88708500D01*
X90195486Y-88708500D01*
X90195487Y-88708500D01*
X90282391Y-88690026D01*
X90283753Y-88689746D01*
X90365000Y-88673587D01*
X90365008Y-88673583D01*
X90370931Y-88671787D01*
X90371070Y-88672246D01*
X90381886Y-88668879D01*
X90382288Y-88668794D01*
X90457206Y-88635437D01*
X90460107Y-88634190D01*
X90530336Y-88605102D01*
X90531374Y-88604408D01*
X90550122Y-88594069D01*
X90556752Y-88591118D01*
X90617596Y-88546910D01*
X90621619Y-88544107D01*
X90679135Y-88505678D01*
X90684840Y-88499971D01*
X90699868Y-88487136D01*
X90711253Y-88478866D01*
X90757053Y-88427998D01*
X90761520Y-88423291D01*
X90805678Y-88379135D01*
X90813942Y-88366764D01*
X90825067Y-88352460D01*
X90839040Y-88336944D01*
X90869859Y-88283562D01*
X90874185Y-88276604D01*
X90905102Y-88230336D01*
X90913398Y-88210304D01*
X90920691Y-88195519D01*
X90934523Y-88171563D01*
X90934523Y-88171562D01*
X90934527Y-88171556D01*
X90951481Y-88119373D01*
X90954885Y-88110148D01*
X90973587Y-88065000D01*
X90979143Y-88037063D01*
X90982886Y-88022720D01*
X90993542Y-87989928D01*
X90998565Y-87942128D01*
X91000296Y-87930720D01*
X91008500Y-87889479D01*
X91008500Y-87854215D01*
X91009190Y-87841045D01*
X91013504Y-87800000D01*
X91009190Y-87758954D01*
X91008500Y-87745784D01*
X91008500Y-87710522D01*
X91008500Y-87710521D01*
X91000293Y-87669266D01*
X90998565Y-87657866D01*
X90996429Y-87637543D01*
X90993542Y-87610072D01*
X90989837Y-87598671D01*
X90982886Y-87577275D01*
X90979139Y-87562917D01*
X90977870Y-87556537D01*
X90973587Y-87535000D01*
X90954890Y-87489862D01*
X90951469Y-87480587D01*
X90935504Y-87431453D01*
X90934527Y-87428444D01*
X90920681Y-87404462D01*
X90913398Y-87389692D01*
X90905105Y-87369670D01*
X90905103Y-87369667D01*
X90905102Y-87369664D01*
X90874183Y-87323392D01*
X90869858Y-87316436D01*
X90839040Y-87263056D01*
X90825069Y-87247540D01*
X90813938Y-87233228D01*
X90805679Y-87220866D01*
X90796471Y-87211658D01*
X90761537Y-87176724D01*
X90757014Y-87171957D01*
X90711256Y-87121137D01*
X90711255Y-87121136D01*
X90711253Y-87121134D01*
X90699864Y-87112859D01*
X90684835Y-87100022D01*
X90679135Y-87094322D01*
X90621628Y-87055897D01*
X90617576Y-87053074D01*
X90595375Y-87036944D01*
X90556752Y-87008882D01*
X90556751Y-87008881D01*
X90550114Y-87005926D01*
X90531378Y-86995594D01*
X90530333Y-86994895D01*
X90460182Y-86965839D01*
X90457168Y-86964544D01*
X90400326Y-86939237D01*
X90382284Y-86931204D01*
X90381863Y-86931115D01*
X90371064Y-86927765D01*
X90370929Y-86928211D01*
X90365008Y-86926415D01*
X90365001Y-86926413D01*
X90365000Y-86926413D01*
X90300333Y-86913549D01*
X90283880Y-86910277D01*
X90282267Y-86909945D01*
X90195489Y-86891500D01*
X90195487Y-86891500D01*
X90189479Y-86891500D01*
X88210007Y-86891500D01*
X88141886Y-86871498D01*
X88095393Y-86817842D01*
X88085289Y-86747568D01*
X88090403Y-86725867D01*
X88122392Y-86629330D01*
X88122394Y-86629318D01*
X88132999Y-86525516D01*
X88133000Y-86525516D01*
X88133000Y-86254000D01*
X86909500Y-86254000D01*
X86841379Y-86233998D01*
X86794886Y-86180342D01*
X86783500Y-86128000D01*
X86783500Y-85746000D01*
X87291500Y-85746000D01*
X88133000Y-85746000D01*
X88133000Y-85474483D01*
X88122394Y-85370681D01*
X88122393Y-85370678D01*
X88066657Y-85202474D01*
X87973634Y-85051660D01*
X87973629Y-85051654D01*
X87848345Y-84926370D01*
X87848339Y-84926365D01*
X87697525Y-84833342D01*
X87529321Y-84777606D01*
X87529318Y-84777605D01*
X87425516Y-84767000D01*
X87291500Y-84767000D01*
X87291500Y-85746000D01*
X86783500Y-85746000D01*
X86783500Y-84767000D01*
X86649483Y-84767000D01*
X86545681Y-84777605D01*
X86545678Y-84777606D01*
X86377474Y-84833342D01*
X86226660Y-84926365D01*
X86226654Y-84926370D01*
X86101370Y-85051654D01*
X86099157Y-85054454D01*
X86097149Y-85055875D01*
X86096175Y-85056850D01*
X86096008Y-85056683D01*
X86041216Y-85095482D01*
X85970291Y-85098672D01*
X85908900Y-85063011D01*
X85901483Y-85054450D01*
X85899028Y-85051345D01*
X85773658Y-84925975D01*
X85773652Y-84925970D01*
X85759257Y-84917091D01*
X85622738Y-84832885D01*
X85538582Y-84804999D01*
X85454427Y-84777113D01*
X85454420Y-84777112D01*
X85350553Y-84766500D01*
X84574455Y-84766500D01*
X84470574Y-84777112D01*
X84302261Y-84832885D01*
X84151347Y-84925970D01*
X84151341Y-84925975D01*
X84022722Y-85054595D01*
X83960410Y-85088621D01*
X83933627Y-85091500D01*
X83679062Y-85091500D01*
X83610941Y-85071498D01*
X83586361Y-85050838D01*
X83473689Y-84928445D01*
X83463240Y-84917094D01*
X83463239Y-84917093D01*
X83463237Y-84917091D01*
X83362447Y-84838643D01*
X83285576Y-84778811D01*
X83283349Y-84777606D01*
X83256463Y-84763056D01*
X83252319Y-84760813D01*
X83201929Y-84710802D01*
X83186576Y-84641485D01*
X83211136Y-84574872D01*
X83252320Y-84539186D01*
X83256186Y-84537094D01*
X83285576Y-84521189D01*
X83293438Y-84515069D01*
X83359478Y-84489012D01*
X83370830Y-84488500D01*
X94968654Y-84488500D01*
X95036775Y-84508502D01*
X95057749Y-84525405D01*
X97454595Y-86922250D01*
X97488620Y-86984562D01*
X97491500Y-87011345D01*
X97491500Y-93912759D01*
X97491500Y-99312759D01*
X97491500Y-104687241D01*
X97518795Y-104859574D01*
X97518796Y-104859577D01*
X97556564Y-104975819D01*
X97572712Y-105025516D01*
X97651926Y-105180981D01*
X97754483Y-105322139D01*
X97754485Y-105322141D01*
X97754487Y-105322144D01*
X97877855Y-105445512D01*
X97877858Y-105445514D01*
X97877861Y-105445517D01*
X98019019Y-105548074D01*
X98174484Y-105627288D01*
X98340426Y-105681205D01*
X98512759Y-105708500D01*
X98512762Y-105708500D01*
X98687238Y-105708500D01*
X98687241Y-105708500D01*
X98859574Y-105681205D01*
X99025516Y-105627288D01*
X99180981Y-105548074D01*
X99322139Y-105445517D01*
X99445517Y-105322139D01*
X99548074Y-105180981D01*
X99627288Y-105025516D01*
X99681205Y-104859574D01*
X99704895Y-104710000D01*
X125936513Y-104710000D01*
X125956433Y-104975815D01*
X125956434Y-104975819D01*
X126015746Y-105235687D01*
X126113130Y-105483819D01*
X126113132Y-105483823D01*
X126246411Y-105714670D01*
X126246413Y-105714673D01*
X126246414Y-105714674D01*
X126412612Y-105923079D01*
X126608014Y-106104386D01*
X126608020Y-106104390D01*
X126828247Y-106254539D01*
X126828254Y-106254543D01*
X126828257Y-106254545D01*
X126966711Y-106321221D01*
X127068414Y-106370199D01*
X127068427Y-106370204D01*
X127323126Y-106448768D01*
X127323128Y-106448768D01*
X127323137Y-106448771D01*
X127586720Y-106488500D01*
X127586725Y-106488500D01*
X127853275Y-106488500D01*
X127853280Y-106488500D01*
X128116863Y-106448771D01*
X128159851Y-106435511D01*
X128371572Y-106370204D01*
X128371574Y-106370202D01*
X128371581Y-106370201D01*
X128371586Y-106370198D01*
X128371590Y-106370197D01*
X128611738Y-106254548D01*
X128611738Y-106254547D01*
X128611744Y-106254545D01*
X128831986Y-106104386D01*
X129027388Y-105923079D01*
X129193586Y-105714674D01*
X129326866Y-105483826D01*
X129341903Y-105445514D01*
X129356265Y-105408918D01*
X129424252Y-105235692D01*
X129483567Y-104975815D01*
X129503487Y-104710000D01*
X129483567Y-104444185D01*
X129424252Y-104184308D01*
X129351262Y-103998333D01*
X129326869Y-103936180D01*
X129326867Y-103936176D01*
X129193588Y-103705329D01*
X129162224Y-103666000D01*
X129027388Y-103496921D01*
X128831986Y-103315614D01*
X128611744Y-103165455D01*
X128611741Y-103165454D01*
X128611739Y-103165452D01*
X128611738Y-103165451D01*
X128371590Y-103049802D01*
X128371572Y-103049795D01*
X128116873Y-102971231D01*
X128116865Y-102971229D01*
X128116863Y-102971229D01*
X127853280Y-102931500D01*
X127586720Y-102931500D01*
X127323137Y-102971229D01*
X127323135Y-102971229D01*
X127323126Y-102971231D01*
X127068427Y-103049795D01*
X127068414Y-103049800D01*
X126828254Y-103165456D01*
X126828247Y-103165460D01*
X126608020Y-103315609D01*
X126608015Y-103315613D01*
X126412613Y-103496920D01*
X126246411Y-103705329D01*
X126113132Y-103936176D01*
X126113130Y-103936180D01*
X126015746Y-104184312D01*
X125967404Y-104396118D01*
X125956433Y-104444185D01*
X125936513Y-104710000D01*
X99704895Y-104710000D01*
X99708500Y-104687241D01*
X99708500Y-101271510D01*
X135576500Y-101271510D01*
X135576500Y-101488490D01*
X135610443Y-101702800D01*
X135610444Y-101702803D01*
X135673448Y-101896710D01*
X135677494Y-101909160D01*
X135776001Y-102102492D01*
X135903539Y-102278033D01*
X135903541Y-102278035D01*
X135903543Y-102278038D01*
X136056964Y-102431459D01*
X136217882Y-102548373D01*
X136261236Y-102604596D01*
X136267311Y-102675332D01*
X136234179Y-102738123D01*
X136217882Y-102752245D01*
X136057294Y-102868918D01*
X136057290Y-102868921D01*
X135903920Y-103022291D01*
X135776430Y-103197768D01*
X135677958Y-103391030D01*
X135677955Y-103391036D01*
X135610932Y-103597313D01*
X135600054Y-103666000D01*
X136639600Y-103666000D01*
X136625548Y-103690339D01*
X136585000Y-103841667D01*
X136585000Y-103998333D01*
X136625548Y-104149661D01*
X136639600Y-104174000D01*
X135600054Y-104174000D01*
X135610932Y-104242686D01*
X135677955Y-104448963D01*
X135677958Y-104448969D01*
X135776430Y-104642231D01*
X135903920Y-104817708D01*
X136057293Y-104971081D01*
X136218308Y-105088064D01*
X136261662Y-105144286D01*
X136267738Y-105215022D01*
X136234606Y-105277814D01*
X136218308Y-105291936D01*
X136057293Y-105408918D01*
X135903920Y-105562291D01*
X135776430Y-105737768D01*
X135677958Y-105931030D01*
X135677955Y-105931036D01*
X135610932Y-106137313D01*
X135600054Y-106206000D01*
X136639600Y-106206000D01*
X136625548Y-106230339D01*
X136585000Y-106381667D01*
X136585000Y-106538333D01*
X136625548Y-106689661D01*
X136639600Y-106714000D01*
X135600054Y-106714000D01*
X135610932Y-106782686D01*
X135677955Y-106988963D01*
X135677958Y-106988969D01*
X135776430Y-107182231D01*
X135903920Y-107357708D01*
X136036788Y-107490576D01*
X136070814Y-107552888D01*
X136065749Y-107623703D01*
X136023202Y-107680539D01*
X136013840Y-107686912D01*
X136012263Y-107687884D01*
X136012262Y-107687885D01*
X135961385Y-107719265D01*
X135861347Y-107780970D01*
X135861341Y-107780975D01*
X135735975Y-107906341D01*
X135735970Y-107906347D01*
X135642885Y-108057262D01*
X135587113Y-108225572D01*
X135587112Y-108225579D01*
X135576500Y-108329446D01*
X135576500Y-109670544D01*
X135587112Y-109774425D01*
X135642885Y-109942738D01*
X135735970Y-110093652D01*
X135735975Y-110093658D01*
X135861341Y-110219024D01*
X135861347Y-110219029D01*
X135861348Y-110219030D01*
X136012262Y-110312115D01*
X136180574Y-110367887D01*
X136284455Y-110378500D01*
X138075544Y-110378499D01*
X138179426Y-110367887D01*
X138347738Y-110312115D01*
X138498652Y-110219030D01*
X138624030Y-110093652D01*
X138717115Y-109942738D01*
X138772887Y-109774426D01*
X138783500Y-109670545D01*
X138783499Y-108329456D01*
X138772887Y-108225574D01*
X138717115Y-108057262D01*
X138624030Y-107906348D01*
X138624029Y-107906347D01*
X138624024Y-107906341D01*
X138498658Y-107780975D01*
X138498652Y-107780970D01*
X138347738Y-107687885D01*
X138347734Y-107687883D01*
X138346159Y-107686912D01*
X138298681Y-107634126D01*
X138287278Y-107564051D01*
X138315570Y-107498936D01*
X138323211Y-107490575D01*
X138456081Y-107357705D01*
X138583569Y-107182231D01*
X138682041Y-106988969D01*
X138682044Y-106988963D01*
X138714572Y-106888850D01*
X143191500Y-106888850D01*
X143191500Y-110186149D01*
X143198009Y-110246696D01*
X143198011Y-110246704D01*
X143249110Y-110383702D01*
X143249112Y-110383707D01*
X143336738Y-110500761D01*
X143453792Y-110588387D01*
X143453794Y-110588388D01*
X143453796Y-110588389D01*
X143512875Y-110610424D01*
X143590795Y-110639488D01*
X143590803Y-110639490D01*
X143651350Y-110645999D01*
X143651355Y-110645999D01*
X143651362Y-110646000D01*
X143651368Y-110646000D01*
X145748632Y-110646000D01*
X145748638Y-110646000D01*
X145748645Y-110645999D01*
X145748649Y-110645999D01*
X145809196Y-110639490D01*
X145809199Y-110639489D01*
X145809201Y-110639489D01*
X145946204Y-110588389D01*
X146063261Y-110500761D01*
X146150889Y-110383704D01*
X146201989Y-110246701D01*
X146202065Y-110246000D01*
X146208499Y-110186149D01*
X146208500Y-110186132D01*
X146208500Y-106888867D01*
X146208499Y-106888850D01*
X154391500Y-106888850D01*
X154391500Y-110186149D01*
X154398009Y-110246696D01*
X154398011Y-110246704D01*
X154449110Y-110383702D01*
X154449112Y-110383707D01*
X154536738Y-110500761D01*
X154653792Y-110588387D01*
X154653794Y-110588388D01*
X154653796Y-110588389D01*
X154712875Y-110610424D01*
X154790795Y-110639488D01*
X154790803Y-110639490D01*
X154851350Y-110645999D01*
X154851355Y-110645999D01*
X154851362Y-110646000D01*
X154851368Y-110646000D01*
X156948632Y-110646000D01*
X156948638Y-110646000D01*
X156948645Y-110645999D01*
X156948649Y-110645999D01*
X157009196Y-110639490D01*
X157009199Y-110639489D01*
X157009201Y-110639489D01*
X157146204Y-110588389D01*
X157263261Y-110500761D01*
X157350889Y-110383704D01*
X157401989Y-110246701D01*
X157402065Y-110246000D01*
X157408499Y-110186149D01*
X157408500Y-110186132D01*
X157408500Y-106888867D01*
X157408499Y-106888850D01*
X157401990Y-106828303D01*
X157401988Y-106828295D01*
X157350889Y-106691297D01*
X157350887Y-106691292D01*
X157263261Y-106574238D01*
X157146207Y-106486612D01*
X157146202Y-106486610D01*
X157009204Y-106435511D01*
X157009196Y-106435509D01*
X156948649Y-106429000D01*
X156948638Y-106429000D01*
X154851362Y-106429000D01*
X154851350Y-106429000D01*
X154790803Y-106435509D01*
X154790795Y-106435511D01*
X154653797Y-106486610D01*
X154653792Y-106486612D01*
X154536738Y-106574238D01*
X154449112Y-106691292D01*
X154449110Y-106691297D01*
X154398011Y-106828295D01*
X154398009Y-106828303D01*
X154391500Y-106888850D01*
X146208499Y-106888850D01*
X146201990Y-106828303D01*
X146201988Y-106828295D01*
X146150889Y-106691297D01*
X146150887Y-106691292D01*
X146063261Y-106574238D01*
X145946207Y-106486612D01*
X145946202Y-106486610D01*
X145809204Y-106435511D01*
X145809196Y-106435509D01*
X145748649Y-106429000D01*
X145748638Y-106429000D01*
X143651362Y-106429000D01*
X143651350Y-106429000D01*
X143590803Y-106435509D01*
X143590795Y-106435511D01*
X143453797Y-106486610D01*
X143453792Y-106486612D01*
X143336738Y-106574238D01*
X143249112Y-106691292D01*
X143249110Y-106691297D01*
X143198011Y-106828295D01*
X143198009Y-106828303D01*
X143191500Y-106888850D01*
X138714572Y-106888850D01*
X138749067Y-106782686D01*
X138759946Y-106714000D01*
X137720400Y-106714000D01*
X137734452Y-106689661D01*
X137775000Y-106538333D01*
X137775000Y-106381667D01*
X137734452Y-106230339D01*
X137720400Y-106206000D01*
X138759946Y-106206000D01*
X138749067Y-106137313D01*
X138682044Y-105931036D01*
X138682041Y-105931030D01*
X138583569Y-105737768D01*
X138456079Y-105562291D01*
X138302708Y-105408920D01*
X138141692Y-105291937D01*
X138098337Y-105235715D01*
X138092261Y-105164978D01*
X138125393Y-105102187D01*
X138141692Y-105088063D01*
X138302708Y-104971079D01*
X138456079Y-104817708D01*
X138583569Y-104642231D01*
X138682041Y-104448969D01*
X138682044Y-104448963D01*
X138749067Y-104242686D01*
X138759946Y-104174000D01*
X137720400Y-104174000D01*
X137734452Y-104149661D01*
X137775000Y-103998333D01*
X137775000Y-103841667D01*
X137734452Y-103690339D01*
X137720400Y-103666000D01*
X138759946Y-103666000D01*
X138749067Y-103597313D01*
X138682044Y-103391036D01*
X138682041Y-103391030D01*
X138583569Y-103197768D01*
X138456079Y-103022291D01*
X138302708Y-102868920D01*
X138142118Y-102752246D01*
X138098763Y-102696023D01*
X138092687Y-102625287D01*
X138125819Y-102562495D01*
X138142117Y-102548373D01*
X138303033Y-102431461D01*
X138456461Y-102278033D01*
X138583999Y-102102492D01*
X138682506Y-101909160D01*
X138749557Y-101702800D01*
X138775738Y-101537500D01*
X146286835Y-101537500D01*
X146305465Y-101774210D01*
X146360894Y-102005092D01*
X146401240Y-102102495D01*
X146451760Y-102224463D01*
X146566310Y-102411391D01*
X146575825Y-102426917D01*
X146575826Y-102426919D01*
X146730030Y-102607469D01*
X146906865Y-102758500D01*
X146910584Y-102761676D01*
X147113037Y-102885740D01*
X147332406Y-102976605D01*
X147563289Y-103032035D01*
X147800000Y-103050665D01*
X148036711Y-103032035D01*
X148267594Y-102976605D01*
X148486963Y-102885740D01*
X148689416Y-102761676D01*
X148869969Y-102607469D01*
X149024176Y-102426916D01*
X149148240Y-102224463D01*
X149239105Y-102005094D01*
X149294535Y-101774211D01*
X149313165Y-101537500D01*
X149294535Y-101300789D01*
X149239105Y-101069906D01*
X149148240Y-100850537D01*
X149024176Y-100648084D01*
X149024175Y-100648083D01*
X149024008Y-100647810D01*
X149005469Y-100579277D01*
X149026925Y-100511600D01*
X149055929Y-100481108D01*
X149163261Y-100400761D01*
X149243608Y-100293430D01*
X149300442Y-100250884D01*
X149371258Y-100245819D01*
X149410310Y-100261508D01*
X149410583Y-100261675D01*
X149410584Y-100261676D01*
X149431552Y-100274525D01*
X149613033Y-100385738D01*
X149613035Y-100385738D01*
X149613037Y-100385740D01*
X149832406Y-100476605D01*
X150063289Y-100532035D01*
X150300000Y-100550665D01*
X150536711Y-100532035D01*
X150767594Y-100476605D01*
X150986963Y-100385740D01*
X151189416Y-100261676D01*
X151369969Y-100107469D01*
X151454189Y-100008859D01*
X151513639Y-99970051D01*
X151584634Y-99969543D01*
X151644633Y-100007499D01*
X151645811Y-100008860D01*
X151730030Y-100107469D01*
X151878062Y-100233900D01*
X151916872Y-100293350D01*
X151917046Y-100295336D01*
X152675052Y-101053342D01*
X152607007Y-101071575D01*
X152492993Y-101137401D01*
X152399901Y-101230493D01*
X152334075Y-101344507D01*
X152315842Y-101412552D01*
X151566898Y-100663608D01*
X151566897Y-100663608D01*
X151452206Y-100850766D01*
X151361371Y-101070062D01*
X151305960Y-101300867D01*
X151287337Y-101537500D01*
X151305960Y-101774132D01*
X151361371Y-102004937D01*
X151452208Y-102224238D01*
X151566896Y-102411390D01*
X151566897Y-102411390D01*
X152315841Y-101662446D01*
X152334075Y-101730493D01*
X152399901Y-101844507D01*
X152492993Y-101937599D01*
X152607007Y-102003425D01*
X152675051Y-102021657D01*
X151926107Y-102770601D01*
X151926108Y-102770602D01*
X152113261Y-102885291D01*
X152332562Y-102976128D01*
X152563367Y-103031539D01*
X152800000Y-103050162D01*
X153036632Y-103031539D01*
X153267437Y-102976128D01*
X153486738Y-102885291D01*
X153673890Y-102770602D01*
X153673891Y-102770602D01*
X152924947Y-102021658D01*
X152992993Y-102003425D01*
X153107007Y-101937599D01*
X153200099Y-101844507D01*
X153265925Y-101730493D01*
X153284158Y-101662447D01*
X154033102Y-102411391D01*
X154033102Y-102411390D01*
X154147791Y-102224238D01*
X154238628Y-102004937D01*
X154294039Y-101774132D01*
X154312662Y-101537500D01*
X154294039Y-101300867D01*
X154238628Y-101070062D01*
X154147791Y-100850761D01*
X154033102Y-100663608D01*
X154033101Y-100663607D01*
X153284157Y-101412551D01*
X153265925Y-101344507D01*
X153200099Y-101230493D01*
X153107007Y-101137401D01*
X152992993Y-101071575D01*
X152924946Y-101053341D01*
X153687788Y-100290499D01*
X153690494Y-100274525D01*
X153721930Y-100233905D01*
X153869969Y-100107469D01*
X154024176Y-99926916D01*
X154148240Y-99724463D01*
X154239105Y-99505094D01*
X154294535Y-99274211D01*
X154313165Y-99037500D01*
X154294535Y-98800789D01*
X154239105Y-98569906D01*
X154148240Y-98350537D01*
X154024176Y-98148084D01*
X153990792Y-98108996D01*
X153869969Y-97967530D01*
X153689419Y-97813326D01*
X153689417Y-97813325D01*
X153689416Y-97813324D01*
X153486963Y-97689260D01*
X153476959Y-97685116D01*
X153267592Y-97598394D01*
X153109651Y-97560476D01*
X153036711Y-97542965D01*
X152800000Y-97524335D01*
X152563289Y-97542965D01*
X152332407Y-97598394D01*
X152113038Y-97689259D01*
X151910582Y-97813325D01*
X151910580Y-97813326D01*
X151730033Y-97967528D01*
X151645811Y-98066140D01*
X151586360Y-98104949D01*
X151515366Y-98105455D01*
X151455367Y-98067499D01*
X151454189Y-98066140D01*
X151445986Y-98056535D01*
X151369969Y-97967531D01*
X151369967Y-97967529D01*
X151369966Y-97967528D01*
X151189419Y-97813326D01*
X151189417Y-97813325D01*
X151189416Y-97813324D01*
X150986963Y-97689260D01*
X150976959Y-97685116D01*
X150767592Y-97598394D01*
X150609651Y-97560476D01*
X150536711Y-97542965D01*
X150300000Y-97524335D01*
X150063289Y-97542965D01*
X149832407Y-97598394D01*
X149613038Y-97689259D01*
X149410310Y-97813492D01*
X149341776Y-97832030D01*
X149274100Y-97810574D01*
X149243607Y-97781568D01*
X149163261Y-97674238D01*
X149046207Y-97586612D01*
X149046202Y-97586610D01*
X148909204Y-97535511D01*
X148909196Y-97535509D01*
X148848649Y-97529000D01*
X148848638Y-97529000D01*
X146751362Y-97529000D01*
X146751350Y-97529000D01*
X146690803Y-97535509D01*
X146690795Y-97535511D01*
X146553797Y-97586610D01*
X146553792Y-97586612D01*
X146436738Y-97674238D01*
X146349112Y-97791292D01*
X146349110Y-97791297D01*
X146298011Y-97928295D01*
X146298009Y-97928303D01*
X146291500Y-97988850D01*
X146291500Y-100086149D01*
X146298009Y-100146696D01*
X146298011Y-100146704D01*
X146349110Y-100283702D01*
X146349112Y-100283707D01*
X146436738Y-100400761D01*
X146544068Y-100481107D01*
X146586615Y-100537943D01*
X146591679Y-100608758D01*
X146575992Y-100647810D01*
X146451759Y-100850538D01*
X146360894Y-101069907D01*
X146305465Y-101300789D01*
X146286835Y-101537500D01*
X138775738Y-101537500D01*
X138783500Y-101488490D01*
X138783500Y-101271510D01*
X138749557Y-101057200D01*
X138682506Y-100850840D01*
X138583999Y-100657508D01*
X138456461Y-100481967D01*
X138456458Y-100481964D01*
X138456456Y-100481961D01*
X138303038Y-100328543D01*
X138303035Y-100328541D01*
X138303033Y-100328539D01*
X138127492Y-100201001D01*
X137934160Y-100102494D01*
X137934159Y-100102493D01*
X137934158Y-100102493D01*
X137727803Y-100035444D01*
X137727800Y-100035443D01*
X137513490Y-100001500D01*
X136846510Y-100001500D01*
X136632200Y-100035443D01*
X136632197Y-100035443D01*
X136632196Y-100035444D01*
X136425841Y-100102493D01*
X136232504Y-100201003D01*
X136056964Y-100328541D01*
X136056961Y-100328543D01*
X135903543Y-100481961D01*
X135903541Y-100481964D01*
X135776003Y-100657504D01*
X135677493Y-100850841D01*
X135616844Y-101037500D01*
X135610443Y-101057200D01*
X135576500Y-101271510D01*
X99708500Y-101271510D01*
X99708500Y-99312759D01*
X99708500Y-95800000D01*
X128686496Y-95800000D01*
X128706457Y-95989927D01*
X128733800Y-96074077D01*
X128765473Y-96171556D01*
X128765476Y-96171561D01*
X128860961Y-96336946D01*
X128909135Y-96390447D01*
X128939853Y-96454454D01*
X128941500Y-96474759D01*
X128941500Y-98725240D01*
X128921498Y-98793361D01*
X128909136Y-98809550D01*
X128860965Y-98863048D01*
X128860958Y-98863058D01*
X128765476Y-99028438D01*
X128765473Y-99028444D01*
X128754976Y-99060751D01*
X128706457Y-99210072D01*
X128686496Y-99400000D01*
X128706457Y-99589927D01*
X128707157Y-99592080D01*
X128765473Y-99771556D01*
X128765476Y-99771561D01*
X128860958Y-99936941D01*
X128860965Y-99936951D01*
X128988744Y-100078864D01*
X128988747Y-100078866D01*
X129143248Y-100191118D01*
X129317712Y-100268794D01*
X129504513Y-100308500D01*
X129695487Y-100308500D01*
X129882288Y-100268794D01*
X130056752Y-100191118D01*
X130211253Y-100078866D01*
X130211255Y-100078864D01*
X130339034Y-99936951D01*
X130339035Y-99936949D01*
X130339040Y-99936944D01*
X130434527Y-99771556D01*
X130493542Y-99589928D01*
X130513504Y-99400000D01*
X130493542Y-99210072D01*
X130493542Y-99210071D01*
X130464667Y-99121203D01*
X130458500Y-99082267D01*
X130458500Y-96199993D01*
X154886911Y-96199993D01*
X154886911Y-96200006D01*
X154907250Y-96588114D01*
X154968051Y-96971995D01*
X155068644Y-97347414D01*
X155207919Y-97710239D01*
X155207923Y-97710247D01*
X155384365Y-98056535D01*
X155384369Y-98056541D01*
X155596049Y-98382501D01*
X155802877Y-98637911D01*
X156593460Y-97847328D01*
X156652944Y-97847328D01*
X156652944Y-97946784D01*
X156691004Y-98038670D01*
X156761330Y-98108996D01*
X156853216Y-98147056D01*
X156952672Y-98147056D01*
X157044558Y-98108996D01*
X157114884Y-98038670D01*
X157152944Y-97946784D01*
X157152944Y-97847328D01*
X157114884Y-97755442D01*
X157044558Y-97685116D01*
X156952672Y-97647056D01*
X156853216Y-97647056D01*
X156761330Y-97685116D01*
X156691004Y-97755442D01*
X156652944Y-97847328D01*
X156593460Y-97847328D01*
X157303367Y-97137421D01*
X157379588Y-97242330D01*
X157557670Y-97420412D01*
X157662577Y-97496631D01*
X156162087Y-98997121D01*
X156417498Y-99203950D01*
X156743458Y-99415630D01*
X156743464Y-99415634D01*
X157089752Y-99592076D01*
X157089760Y-99592080D01*
X157452585Y-99731355D01*
X157828004Y-99831948D01*
X158211885Y-99892749D01*
X158599994Y-99913089D01*
X158600006Y-99913089D01*
X158988114Y-99892749D01*
X159371995Y-99831948D01*
X159747414Y-99731355D01*
X160110239Y-99592080D01*
X160110247Y-99592076D01*
X160456535Y-99415634D01*
X160456541Y-99415630D01*
X160782501Y-99203950D01*
X161037911Y-98997121D01*
X159888119Y-97847328D01*
X160047056Y-97847328D01*
X160047056Y-97946784D01*
X160085116Y-98038670D01*
X160155442Y-98108996D01*
X160247328Y-98147056D01*
X160346784Y-98147056D01*
X160438670Y-98108996D01*
X160508996Y-98038670D01*
X160547056Y-97946784D01*
X160547056Y-97847328D01*
X160508996Y-97755442D01*
X160438670Y-97685116D01*
X160346784Y-97647056D01*
X160247328Y-97647056D01*
X160155442Y-97685116D01*
X160085116Y-97755442D01*
X160047056Y-97847328D01*
X159888119Y-97847328D01*
X159537422Y-97496631D01*
X159642330Y-97420412D01*
X159820412Y-97242330D01*
X159896632Y-97137422D01*
X161397121Y-98637911D01*
X161603950Y-98382501D01*
X161815630Y-98056541D01*
X161815634Y-98056535D01*
X161992076Y-97710247D01*
X161992080Y-97710239D01*
X162131355Y-97347414D01*
X162231948Y-96971995D01*
X162292749Y-96588114D01*
X162313089Y-96200006D01*
X162313089Y-96199993D01*
X162292749Y-95811885D01*
X162231948Y-95428004D01*
X162131355Y-95052585D01*
X161992080Y-94689760D01*
X161992076Y-94689752D01*
X161815628Y-94343455D01*
X161603957Y-94017508D01*
X161603952Y-94017501D01*
X161397121Y-93762087D01*
X159896631Y-95262577D01*
X159820412Y-95157670D01*
X159642330Y-94979588D01*
X159537421Y-94903367D01*
X159987572Y-94453216D01*
X160047056Y-94453216D01*
X160047056Y-94552672D01*
X160085116Y-94644558D01*
X160155442Y-94714884D01*
X160247328Y-94752944D01*
X160346784Y-94752944D01*
X160438670Y-94714884D01*
X160508996Y-94644558D01*
X160547056Y-94552672D01*
X160547056Y-94453216D01*
X160508996Y-94361330D01*
X160438670Y-94291004D01*
X160346784Y-94252944D01*
X160247328Y-94252944D01*
X160155442Y-94291004D01*
X160085116Y-94361330D01*
X160047056Y-94453216D01*
X159987572Y-94453216D01*
X161037911Y-93402877D01*
X160782501Y-93196049D01*
X160456541Y-92984369D01*
X160456535Y-92984365D01*
X160110247Y-92807923D01*
X160110239Y-92807919D01*
X159747414Y-92668644D01*
X159371995Y-92568051D01*
X158988114Y-92507250D01*
X158600006Y-92486911D01*
X158599994Y-92486911D01*
X158211885Y-92507250D01*
X157828004Y-92568051D01*
X157452585Y-92668644D01*
X157089760Y-92807919D01*
X157089752Y-92807923D01*
X156743455Y-92984371D01*
X156417508Y-93196042D01*
X156417491Y-93196054D01*
X156162088Y-93402876D01*
X156162087Y-93402877D01*
X157662577Y-94903367D01*
X157557670Y-94979588D01*
X157379588Y-95157670D01*
X157303367Y-95262577D01*
X156494006Y-94453216D01*
X156652944Y-94453216D01*
X156652944Y-94552672D01*
X156691004Y-94644558D01*
X156761330Y-94714884D01*
X156853216Y-94752944D01*
X156952672Y-94752944D01*
X157044558Y-94714884D01*
X157114884Y-94644558D01*
X157152944Y-94552672D01*
X157152944Y-94453216D01*
X157114884Y-94361330D01*
X157044558Y-94291004D01*
X156952672Y-94252944D01*
X156853216Y-94252944D01*
X156761330Y-94291004D01*
X156691004Y-94361330D01*
X156652944Y-94453216D01*
X156494006Y-94453216D01*
X155802877Y-93762087D01*
X155802876Y-93762088D01*
X155596054Y-94017491D01*
X155596042Y-94017508D01*
X155384371Y-94343455D01*
X155207923Y-94689752D01*
X155207919Y-94689760D01*
X155068644Y-95052585D01*
X154968051Y-95428004D01*
X154907250Y-95811885D01*
X154886911Y-96199993D01*
X130458500Y-96199993D01*
X130458500Y-96117732D01*
X130464667Y-96078795D01*
X130471298Y-96058386D01*
X130493542Y-95989928D01*
X130513504Y-95800000D01*
X130493542Y-95610072D01*
X130434527Y-95428444D01*
X130339040Y-95263056D01*
X130339038Y-95263054D01*
X130339034Y-95263048D01*
X130211255Y-95121135D01*
X130056752Y-95008882D01*
X129882288Y-94931206D01*
X129695487Y-94891500D01*
X129504513Y-94891500D01*
X129317711Y-94931206D01*
X129143247Y-95008882D01*
X128988744Y-95121135D01*
X128860965Y-95263048D01*
X128860958Y-95263058D01*
X128765476Y-95428438D01*
X128765473Y-95428445D01*
X128706457Y-95610072D01*
X128686496Y-95800000D01*
X99708500Y-95800000D01*
X99708500Y-93912759D01*
X99708500Y-86869924D01*
X99728502Y-86801803D01*
X99745405Y-86780829D01*
X99940829Y-86585405D01*
X100003141Y-86551379D01*
X100029924Y-86548500D01*
X103000691Y-86548500D01*
X103068812Y-86568502D01*
X103078082Y-86575069D01*
X103196342Y-86667115D01*
X103214424Y-86681189D01*
X103248205Y-86699470D01*
X103298596Y-86749482D01*
X103313949Y-86818799D01*
X103289389Y-86885412D01*
X103248208Y-86921097D01*
X103214700Y-86939230D01*
X103214693Y-86939235D01*
X103194311Y-86955099D01*
X103194310Y-86955100D01*
X103835052Y-87595842D01*
X103767007Y-87614075D01*
X103652993Y-87679901D01*
X103559901Y-87772993D01*
X103494075Y-87887007D01*
X103475842Y-87955052D01*
X102836921Y-87316131D01*
X102836920Y-87316132D01*
X102761586Y-87431439D01*
X102761579Y-87431453D01*
X102671179Y-87637543D01*
X102671176Y-87637550D01*
X102615932Y-87855707D01*
X102597346Y-88080000D01*
X102615932Y-88304292D01*
X102671176Y-88522449D01*
X102671179Y-88522456D01*
X102761580Y-88728548D01*
X102836921Y-88843866D01*
X103475841Y-88204946D01*
X103494075Y-88272993D01*
X103559901Y-88387007D01*
X103652993Y-88480099D01*
X103767007Y-88545925D01*
X103835051Y-88564157D01*
X103194310Y-89204898D01*
X103214697Y-89220766D01*
X103214705Y-89220771D01*
X103248207Y-89238902D01*
X103298597Y-89288915D01*
X103313949Y-89358232D01*
X103289388Y-89424845D01*
X103248207Y-89460528D01*
X103214430Y-89478807D01*
X103214424Y-89478811D01*
X103036762Y-89617091D01*
X102884279Y-89782729D01*
X102884275Y-89782734D01*
X102761141Y-89971206D01*
X102670703Y-90177386D01*
X102670702Y-90177387D01*
X102615437Y-90395624D01*
X102615436Y-90395630D01*
X102615436Y-90395632D01*
X102596844Y-90620000D01*
X102615205Y-90841586D01*
X102615437Y-90844375D01*
X102670702Y-91062612D01*
X102670703Y-91062613D01*
X102761141Y-91268793D01*
X102884275Y-91457265D01*
X102884279Y-91457270D01*
X103036762Y-91622908D01*
X103072269Y-91650544D01*
X103214424Y-91761189D01*
X103247680Y-91779186D01*
X103298071Y-91829200D01*
X103313423Y-91898516D01*
X103288862Y-91965129D01*
X103247680Y-92000813D01*
X103214426Y-92018810D01*
X103214424Y-92018811D01*
X103036762Y-92157091D01*
X102884279Y-92322729D01*
X102884275Y-92322734D01*
X102761141Y-92511206D01*
X102670703Y-92717386D01*
X102670702Y-92717387D01*
X102615437Y-92935624D01*
X102615436Y-92935630D01*
X102615436Y-92935632D01*
X102600873Y-93111379D01*
X102596844Y-93160000D01*
X102615437Y-93384375D01*
X102670702Y-93602612D01*
X102670703Y-93602613D01*
X102670704Y-93602616D01*
X102740654Y-93762087D01*
X102761141Y-93808793D01*
X102884275Y-93997265D01*
X102884279Y-93997270D01*
X103036762Y-94162908D01*
X103091331Y-94205381D01*
X103214424Y-94301189D01*
X103412426Y-94408342D01*
X103412427Y-94408342D01*
X103412428Y-94408343D01*
X103524227Y-94446723D01*
X103625365Y-94481444D01*
X103847431Y-94518500D01*
X103847435Y-94518500D01*
X104072565Y-94518500D01*
X104072569Y-94518500D01*
X104294635Y-94481444D01*
X104507574Y-94408342D01*
X104705576Y-94301189D01*
X104883240Y-94162906D01*
X105035722Y-93997268D01*
X105124518Y-93861354D01*
X105178520Y-93815268D01*
X105248868Y-93805692D01*
X105313225Y-93835669D01*
X105335480Y-93861353D01*
X105349201Y-93882354D01*
X105424275Y-93997265D01*
X105424279Y-93997270D01*
X105576762Y-94162908D01*
X105631331Y-94205381D01*
X105754424Y-94301189D01*
X105952426Y-94408342D01*
X105952427Y-94408342D01*
X105952428Y-94408343D01*
X106064227Y-94446723D01*
X106165365Y-94481444D01*
X106387431Y-94518500D01*
X106387435Y-94518500D01*
X106612565Y-94518500D01*
X106612569Y-94518500D01*
X106834635Y-94481444D01*
X107047574Y-94408342D01*
X107245576Y-94301189D01*
X107423240Y-94162906D01*
X107575722Y-93997268D01*
X107698860Y-93808791D01*
X107789296Y-93602616D01*
X107844564Y-93384368D01*
X107863156Y-93160000D01*
X107844564Y-92935632D01*
X107789296Y-92717384D01*
X107698860Y-92511209D01*
X107682985Y-92486911D01*
X107575724Y-92322734D01*
X107575720Y-92322729D01*
X107423237Y-92157091D01*
X107335267Y-92088621D01*
X107245576Y-92018811D01*
X107243785Y-92017842D01*
X107212320Y-92000814D01*
X107161929Y-91950802D01*
X107146576Y-91881485D01*
X107171136Y-91814872D01*
X107212320Y-91779186D01*
X107245576Y-91761189D01*
X107423240Y-91622906D01*
X107575722Y-91457268D01*
X107698860Y-91268791D01*
X107789296Y-91062616D01*
X107844564Y-90844368D01*
X107863156Y-90620000D01*
X107844564Y-90395632D01*
X107792473Y-90189928D01*
X107789297Y-90177387D01*
X107789296Y-90177386D01*
X107789296Y-90177384D01*
X107698860Y-89971209D01*
X107692140Y-89960924D01*
X107575724Y-89782734D01*
X107575720Y-89782729D01*
X107433689Y-89628445D01*
X107423240Y-89617094D01*
X107423239Y-89617093D01*
X107423237Y-89617091D01*
X107292820Y-89515583D01*
X107245576Y-89478811D01*
X107244406Y-89478178D01*
X107228163Y-89469387D01*
X107212319Y-89460813D01*
X107161929Y-89410802D01*
X107146576Y-89341485D01*
X107171136Y-89274872D01*
X107212320Y-89239186D01*
X107212845Y-89238902D01*
X107245576Y-89221189D01*
X107423240Y-89082906D01*
X107575722Y-88917268D01*
X107698860Y-88728791D01*
X107789296Y-88522616D01*
X107844564Y-88304368D01*
X107863156Y-88080000D01*
X107845750Y-87869951D01*
X107860059Y-87800415D01*
X107882222Y-87770457D01*
X109301303Y-86351376D01*
X109363613Y-86317352D01*
X109434428Y-86322417D01*
X109491264Y-86364964D01*
X109510229Y-86401536D01*
X109525540Y-86448657D01*
X109565473Y-86571556D01*
X109565476Y-86571561D01*
X109660958Y-86736941D01*
X109660965Y-86736951D01*
X109788744Y-86878864D01*
X109830239Y-86909012D01*
X109943248Y-86991118D01*
X110117712Y-87068794D01*
X110304513Y-87108500D01*
X110495487Y-87108500D01*
X110682288Y-87068794D01*
X110856752Y-86991118D01*
X111011253Y-86878866D01*
X111011255Y-86878864D01*
X111139034Y-86736951D01*
X111139035Y-86736949D01*
X111139040Y-86736944D01*
X111234527Y-86571556D01*
X111293542Y-86389928D01*
X111313504Y-86200000D01*
X111293542Y-86010072D01*
X111234527Y-85828444D01*
X111203345Y-85774435D01*
X111175381Y-85725999D01*
X111158500Y-85662999D01*
X111158500Y-79097139D01*
X111178502Y-79029018D01*
X111232158Y-78982525D01*
X111258301Y-78973892D01*
X111282288Y-78968794D01*
X111456752Y-78891118D01*
X111611253Y-78778866D01*
X111657210Y-78727826D01*
X111739034Y-78636951D01*
X111739035Y-78636949D01*
X111739040Y-78636944D01*
X111834527Y-78471556D01*
X111893542Y-78289928D01*
X111913504Y-78100000D01*
X111893542Y-77910072D01*
X111834527Y-77728444D01*
X111739040Y-77563056D01*
X111739038Y-77563054D01*
X111739034Y-77563048D01*
X111611255Y-77421135D01*
X111456752Y-77308882D01*
X111282288Y-77231206D01*
X111095487Y-77191500D01*
X110904513Y-77191500D01*
X110717711Y-77231206D01*
X110543247Y-77308882D01*
X110388744Y-77421135D01*
X110260965Y-77563048D01*
X110260958Y-77563058D01*
X110165476Y-77728438D01*
X110165473Y-77728444D01*
X110154227Y-77763056D01*
X110110613Y-77897283D01*
X110079876Y-77947441D01*
X109810836Y-78216482D01*
X109810835Y-78216483D01*
X109727826Y-78340715D01*
X109696442Y-78416485D01*
X109672326Y-78474706D01*
X109670649Y-78478754D01*
X109670649Y-78478755D01*
X109670648Y-78478757D01*
X109641500Y-78625290D01*
X109641500Y-80464629D01*
X109621498Y-80532750D01*
X109567842Y-80579243D01*
X109497568Y-80589347D01*
X109432988Y-80559853D01*
X109426405Y-80553724D01*
X107683519Y-78810838D01*
X107683515Y-78810834D01*
X107559284Y-78727826D01*
X107421247Y-78670649D01*
X107347976Y-78656074D01*
X107347975Y-78656073D01*
X107274711Y-78641500D01*
X107274706Y-78641500D01*
X102878854Y-78641500D01*
X102810733Y-78621498D01*
X102764240Y-78567842D01*
X102754136Y-78497568D01*
X102755282Y-78490885D01*
X102755471Y-78489933D01*
X102755472Y-78489927D01*
X102758500Y-78474706D01*
X102758500Y-70263924D01*
X102778502Y-70195803D01*
X102832158Y-70149310D01*
X102902432Y-70139206D01*
X102967012Y-70168700D01*
X102973595Y-70174829D01*
X108852119Y-76053353D01*
X109017296Y-76163721D01*
X109200831Y-76239744D01*
X109395671Y-76278500D01*
X109594329Y-76278500D01*
X116913125Y-76278500D01*
X116981246Y-76298502D01*
X117020366Y-76338354D01*
X117035968Y-76363649D01*
X117035975Y-76363658D01*
X117161341Y-76489024D01*
X117161347Y-76489029D01*
X117161348Y-76489030D01*
X117312262Y-76582115D01*
X117480574Y-76637887D01*
X117584455Y-76648500D01*
X119375544Y-76648499D01*
X119479426Y-76637887D01*
X119647738Y-76582115D01*
X119798652Y-76489030D01*
X119924030Y-76363652D01*
X120017115Y-76212738D01*
X120072887Y-76044426D01*
X120083500Y-75940545D01*
X120083499Y-74599456D01*
X120073645Y-74502999D01*
X120072887Y-74495574D01*
X120053459Y-74436944D01*
X120017115Y-74327262D01*
X119924030Y-74176348D01*
X119924029Y-74176347D01*
X119924024Y-74176341D01*
X119798658Y-74050975D01*
X119798652Y-74050970D01*
X119647738Y-73957885D01*
X119647734Y-73957883D01*
X119646159Y-73956912D01*
X119598681Y-73904126D01*
X119587278Y-73834051D01*
X119615570Y-73768936D01*
X119623211Y-73760575D01*
X119756081Y-73627705D01*
X119883569Y-73452231D01*
X119982041Y-73258969D01*
X119982044Y-73258963D01*
X120049067Y-73052686D01*
X120059946Y-72984000D01*
X119020400Y-72984000D01*
X119034452Y-72959661D01*
X119075000Y-72808333D01*
X119075000Y-72651667D01*
X119034452Y-72500339D01*
X119020400Y-72476000D01*
X120059946Y-72476000D01*
X120049067Y-72407313D01*
X119982044Y-72201036D01*
X119982041Y-72201030D01*
X119883569Y-72007768D01*
X119756079Y-71832291D01*
X119602708Y-71678920D01*
X119427231Y-71551430D01*
X119233969Y-71452958D01*
X119233963Y-71452955D01*
X119027685Y-71385932D01*
X119027689Y-71385932D01*
X118813448Y-71352000D01*
X118734000Y-71352000D01*
X118734000Y-72189600D01*
X118709661Y-72175548D01*
X118558333Y-72135000D01*
X118401667Y-72135000D01*
X118250339Y-72175548D01*
X118226000Y-72189600D01*
X118226000Y-71352000D01*
X118146552Y-71352000D01*
X117932312Y-71385932D01*
X117726036Y-71452955D01*
X117726030Y-71452958D01*
X117532768Y-71551430D01*
X117357291Y-71678920D01*
X117203920Y-71832291D01*
X117076430Y-72007768D01*
X116977958Y-72201030D01*
X116977955Y-72201036D01*
X116910932Y-72407313D01*
X116900054Y-72476000D01*
X117939600Y-72476000D01*
X117925548Y-72500339D01*
X117885000Y-72651667D01*
X117885000Y-72808333D01*
X117925548Y-72959661D01*
X117939600Y-72984000D01*
X116900054Y-72984000D01*
X116910932Y-73052686D01*
X116977955Y-73258963D01*
X116977958Y-73258969D01*
X117076430Y-73452231D01*
X117203920Y-73627708D01*
X117336788Y-73760576D01*
X117370814Y-73822888D01*
X117365749Y-73893703D01*
X117323202Y-73950539D01*
X117313840Y-73956912D01*
X117312263Y-73957884D01*
X117312262Y-73957885D01*
X117261385Y-73989265D01*
X117161347Y-74050970D01*
X117161341Y-74050975D01*
X117035975Y-74176341D01*
X117035968Y-74176350D01*
X117020366Y-74201646D01*
X116967580Y-74249125D01*
X116913125Y-74261500D01*
X111384500Y-74261500D01*
X111316379Y-74241498D01*
X111269886Y-74187842D01*
X111258500Y-74135500D01*
X111258500Y-70455868D01*
X111278502Y-70387747D01*
X111332158Y-70341254D01*
X111402432Y-70331150D01*
X111432719Y-70339460D01*
X111505820Y-70369740D01*
X111505824Y-70369741D01*
X111505831Y-70369744D01*
X111700671Y-70408500D01*
X127730076Y-70408500D01*
X127798197Y-70428502D01*
X127819171Y-70445405D01*
X128454595Y-71080829D01*
X128488621Y-71143141D01*
X128491500Y-71169924D01*
X128491500Y-73204138D01*
X128471498Y-73272259D01*
X128417842Y-73318752D01*
X128347568Y-73328856D01*
X128282988Y-73299362D01*
X128271864Y-73288448D01*
X128211255Y-73221135D01*
X128056752Y-73108882D01*
X127882288Y-73031206D01*
X127695487Y-72991500D01*
X127504513Y-72991500D01*
X127317711Y-73031206D01*
X127143247Y-73108882D01*
X126988744Y-73221135D01*
X126860965Y-73363048D01*
X126860958Y-73363058D01*
X126765476Y-73528438D01*
X126765472Y-73528445D01*
X126710612Y-73697285D01*
X126679874Y-73747443D01*
X122010840Y-78416477D01*
X122010835Y-78416483D01*
X121961122Y-78490885D01*
X121927826Y-78540716D01*
X121880044Y-78656073D01*
X121873378Y-78672167D01*
X121873374Y-78672177D01*
X121870649Y-78678753D01*
X121870648Y-78678756D01*
X121841500Y-78825290D01*
X121841500Y-84462999D01*
X121824619Y-84525999D01*
X121765476Y-84628438D01*
X121765473Y-84628445D01*
X121706457Y-84810072D01*
X121686496Y-85000000D01*
X121706457Y-85189927D01*
X121730763Y-85264731D01*
X121765473Y-85371556D01*
X121770174Y-85379698D01*
X121860958Y-85536941D01*
X121860965Y-85536951D01*
X121988744Y-85678864D01*
X121988747Y-85678866D01*
X122143248Y-85791118D01*
X122317712Y-85868794D01*
X122504513Y-85908500D01*
X122695487Y-85908500D01*
X122882288Y-85868794D01*
X123056752Y-85791118D01*
X123211253Y-85678866D01*
X123211255Y-85678864D01*
X123339034Y-85536951D01*
X123339035Y-85536949D01*
X123339040Y-85536944D01*
X123434527Y-85371556D01*
X123493542Y-85189928D01*
X123513504Y-85000000D01*
X123493542Y-84810072D01*
X123434527Y-84628444D01*
X123392722Y-84556035D01*
X123375381Y-84525999D01*
X123358500Y-84462999D01*
X123358500Y-79266370D01*
X123378502Y-79198249D01*
X123395400Y-79177280D01*
X127756332Y-74816347D01*
X127818642Y-74782323D01*
X127818999Y-74782246D01*
X127882288Y-74768794D01*
X128056752Y-74691118D01*
X128211253Y-74578866D01*
X128271864Y-74511550D01*
X128332309Y-74474311D01*
X128403293Y-74475662D01*
X128462278Y-74515176D01*
X128490536Y-74580306D01*
X128491500Y-74595861D01*
X128491500Y-77765500D01*
X128471498Y-77833621D01*
X128417842Y-77880114D01*
X128365500Y-77891500D01*
X127900668Y-77891500D01*
X127730778Y-77925293D01*
X127730777Y-77925294D01*
X127705831Y-77930256D01*
X127705829Y-77930257D01*
X127705825Y-77930258D01*
X127522296Y-78006279D01*
X127357123Y-78116644D01*
X127357116Y-78116649D01*
X125819171Y-79654595D01*
X125756859Y-79688621D01*
X125730076Y-79691500D01*
X125050668Y-79691500D01*
X124855830Y-79730256D01*
X124855825Y-79730258D01*
X124672296Y-79806279D01*
X124507123Y-79916644D01*
X124507116Y-79916649D01*
X124366649Y-80057116D01*
X124366644Y-80057123D01*
X124256279Y-80222296D01*
X124180258Y-80405825D01*
X124180256Y-80405830D01*
X124141500Y-80600668D01*
X124141500Y-80799331D01*
X124165728Y-80921134D01*
X124180256Y-80994169D01*
X124256279Y-81177704D01*
X124366647Y-81342881D01*
X124507119Y-81483353D01*
X124672296Y-81593721D01*
X124855831Y-81669744D01*
X125050671Y-81708500D01*
X125050672Y-81708500D01*
X126299328Y-81708500D01*
X126299329Y-81708500D01*
X126494169Y-81669744D01*
X126677704Y-81593721D01*
X126842881Y-81483353D01*
X126983353Y-81342881D01*
X128380829Y-79945405D01*
X128443141Y-79911379D01*
X128469924Y-79908500D01*
X129400671Y-79908500D01*
X129599329Y-79908500D01*
X129765500Y-79908500D01*
X129833621Y-79928502D01*
X129880114Y-79982158D01*
X129891500Y-80034500D01*
X129891500Y-80500544D01*
X129902112Y-80604425D01*
X129944123Y-80731206D01*
X129957885Y-80772738D01*
X129999999Y-80841016D01*
X130054823Y-80929898D01*
X130053197Y-80930900D01*
X130076107Y-80987695D01*
X130062853Y-81057444D01*
X130054747Y-81070055D01*
X130054823Y-81070102D01*
X130050971Y-81076346D01*
X130050970Y-81076348D01*
X129988453Y-81177704D01*
X129957885Y-81227262D01*
X129902113Y-81395572D01*
X129902112Y-81395579D01*
X129891500Y-81499446D01*
X129891500Y-82500544D01*
X129902112Y-82604425D01*
X129953427Y-82759284D01*
X129957885Y-82772738D01*
X129999999Y-82841016D01*
X130054823Y-82929898D01*
X130053197Y-82930900D01*
X130076107Y-82987695D01*
X130062853Y-83057444D01*
X130054747Y-83070055D01*
X130054823Y-83070102D01*
X130050971Y-83076346D01*
X130050970Y-83076348D01*
X130049417Y-83078866D01*
X129957885Y-83227262D01*
X129902113Y-83395572D01*
X129902112Y-83395579D01*
X129891500Y-83499446D01*
X129891500Y-84500544D01*
X129902112Y-84604425D01*
X129934688Y-84702734D01*
X129957885Y-84772738D01*
X130046923Y-84917091D01*
X130054823Y-84929898D01*
X130053197Y-84930900D01*
X130076107Y-84987695D01*
X130062853Y-85057444D01*
X130054747Y-85070055D01*
X130054823Y-85070102D01*
X130050971Y-85076346D01*
X130050970Y-85076348D01*
X129966295Y-85213627D01*
X129957885Y-85227262D01*
X129902113Y-85395572D01*
X129902112Y-85395579D01*
X129891500Y-85499446D01*
X129891500Y-86500544D01*
X129902112Y-86604425D01*
X129957885Y-86772738D01*
X130050105Y-86922250D01*
X130054823Y-86929898D01*
X130053197Y-86930900D01*
X130076107Y-86987695D01*
X130062853Y-87057444D01*
X130054747Y-87070055D01*
X130054823Y-87070102D01*
X130050971Y-87076346D01*
X130050970Y-87076348D01*
X130000000Y-87158983D01*
X129957885Y-87227262D01*
X129902113Y-87395572D01*
X129902112Y-87395579D01*
X129891500Y-87499446D01*
X129891500Y-88500544D01*
X129902112Y-88604425D01*
X129957885Y-88772738D01*
X130050970Y-88923652D01*
X130050975Y-88923658D01*
X130176341Y-89049024D01*
X130176347Y-89049029D01*
X130176348Y-89049030D01*
X130327262Y-89142115D01*
X130495574Y-89197887D01*
X130495575Y-89197887D01*
X130496873Y-89198165D01*
X130497597Y-89198557D01*
X130502105Y-89200051D01*
X130501838Y-89200854D01*
X130559299Y-89231981D01*
X130559599Y-89232280D01*
X131916485Y-90589166D01*
X132040716Y-90672174D01*
X132178753Y-90729351D01*
X132252022Y-90743924D01*
X132252023Y-90743925D01*
X132262455Y-90746000D01*
X132325294Y-90758500D01*
X132325295Y-90758500D01*
X132474705Y-90758500D01*
X142657413Y-90758500D01*
X142725534Y-90778502D01*
X142731471Y-90782562D01*
X142743248Y-90791118D01*
X142917712Y-90868794D01*
X143104513Y-90908500D01*
X143295487Y-90908500D01*
X143482288Y-90868794D01*
X143656752Y-90791118D01*
X143811253Y-90678866D01*
X143811255Y-90678864D01*
X143939034Y-90536951D01*
X143939035Y-90536949D01*
X143939040Y-90536944D01*
X144034527Y-90371556D01*
X144093542Y-90189928D01*
X144113504Y-90000000D01*
X144093542Y-89810072D01*
X144034527Y-89628444D01*
X143939040Y-89463056D01*
X143939038Y-89463054D01*
X143939034Y-89463048D01*
X143811255Y-89321135D01*
X143656752Y-89208882D01*
X143482288Y-89131206D01*
X143295487Y-89091500D01*
X143104513Y-89091500D01*
X142917711Y-89131206D01*
X142743245Y-89208883D01*
X142731476Y-89217435D01*
X142664609Y-89241294D01*
X142657413Y-89241500D01*
X133935373Y-89241500D01*
X133867252Y-89221498D01*
X133820759Y-89167842D01*
X133810655Y-89097568D01*
X133840149Y-89032988D01*
X133846278Y-89026405D01*
X133949024Y-88923658D01*
X133949030Y-88923652D01*
X134042115Y-88772738D01*
X134097887Y-88604426D01*
X134108500Y-88500545D01*
X134108499Y-88016370D01*
X134128501Y-87948250D01*
X134145399Y-87927280D01*
X134777277Y-87295404D01*
X134839589Y-87261379D01*
X134866372Y-87258500D01*
X136757413Y-87258500D01*
X136825534Y-87278502D01*
X136831471Y-87282562D01*
X136843248Y-87291118D01*
X137017712Y-87368794D01*
X137204513Y-87408500D01*
X137395487Y-87408500D01*
X137582288Y-87368794D01*
X137756752Y-87291118D01*
X137911253Y-87178866D01*
X137929156Y-87158983D01*
X138039034Y-87036951D01*
X138039035Y-87036949D01*
X138039040Y-87036944D01*
X138134527Y-86871556D01*
X138193542Y-86689928D01*
X138213504Y-86500000D01*
X138193542Y-86310072D01*
X138134527Y-86128444D01*
X138039040Y-85963056D01*
X138039038Y-85963053D01*
X138039007Y-85963000D01*
X138022269Y-85894005D01*
X138039007Y-85837000D01*
X138039038Y-85836946D01*
X138039040Y-85836944D01*
X138134527Y-85671556D01*
X138193542Y-85489928D01*
X138213504Y-85300000D01*
X138193542Y-85110072D01*
X138134527Y-84928444D01*
X138039040Y-84763056D01*
X138039038Y-84763053D01*
X138039007Y-84763000D01*
X138023723Y-84700000D01*
X141886496Y-84700000D01*
X141906457Y-84889927D01*
X141930585Y-84964182D01*
X141965473Y-85071556D01*
X142060960Y-85236944D01*
X142086959Y-85265819D01*
X142131863Y-85315690D01*
X142162580Y-85379698D01*
X142153815Y-85450151D01*
X142131863Y-85484310D01*
X142060961Y-85563054D01*
X142060958Y-85563058D01*
X141965476Y-85728438D01*
X141965473Y-85728444D01*
X141953638Y-85764868D01*
X141906457Y-85910072D01*
X141886496Y-86100000D01*
X141906457Y-86289927D01*
X141917014Y-86322417D01*
X141965473Y-86471556D01*
X141965476Y-86471561D01*
X142060958Y-86636941D01*
X142060965Y-86636951D01*
X142188744Y-86778864D01*
X142214722Y-86797738D01*
X142343248Y-86891118D01*
X142517712Y-86968794D01*
X142704513Y-87008500D01*
X142895487Y-87008500D01*
X143082288Y-86968794D01*
X143256752Y-86891118D01*
X143411253Y-86778866D01*
X143430703Y-86757265D01*
X143539034Y-86636951D01*
X143539035Y-86636949D01*
X143539040Y-86636944D01*
X143634527Y-86471556D01*
X143689388Y-86302711D01*
X143720124Y-86252555D01*
X148689166Y-81283515D01*
X148772174Y-81159284D01*
X148829351Y-81021247D01*
X148843925Y-80947976D01*
X148858500Y-80874706D01*
X148858500Y-60436999D01*
X148875380Y-60374000D01*
X148934527Y-60271556D01*
X148993542Y-60089928D01*
X149013504Y-59900000D01*
X148993542Y-59710072D01*
X148934527Y-59528444D01*
X148839040Y-59363056D01*
X148839038Y-59363054D01*
X148839034Y-59363048D01*
X148711255Y-59221135D01*
X148556752Y-59108882D01*
X148382288Y-59031206D01*
X148195487Y-58991500D01*
X148004513Y-58991500D01*
X147817711Y-59031206D01*
X147643247Y-59108882D01*
X147488744Y-59221135D01*
X147360965Y-59363048D01*
X147360958Y-59363058D01*
X147272618Y-59516068D01*
X147265473Y-59528444D01*
X147254241Y-59563011D01*
X147206457Y-59710072D01*
X147186496Y-59900000D01*
X147206457Y-60089927D01*
X147232112Y-60168882D01*
X147261277Y-60258643D01*
X147265474Y-60271558D01*
X147274867Y-60287826D01*
X147324619Y-60374000D01*
X147341500Y-60436999D01*
X147341500Y-67665500D01*
X147321498Y-67733621D01*
X147267842Y-67780114D01*
X147215500Y-67791500D01*
X147104513Y-67791500D01*
X146917711Y-67831206D01*
X146743247Y-67908882D01*
X146588744Y-68021135D01*
X146460965Y-68163048D01*
X146460958Y-68163058D01*
X146365476Y-68328438D01*
X146365473Y-68328445D01*
X146306457Y-68510072D01*
X146286496Y-68700000D01*
X146306457Y-68889927D01*
X146344747Y-69007768D01*
X146365473Y-69071556D01*
X146424619Y-69174000D01*
X146441500Y-69236999D01*
X146441500Y-79933628D01*
X146421498Y-80001749D01*
X146404595Y-80022723D01*
X142643667Y-83783650D01*
X142581355Y-83817676D01*
X142580772Y-83817801D01*
X142517712Y-83831206D01*
X142343249Y-83908881D01*
X142343248Y-83908882D01*
X142188744Y-84021135D01*
X142060965Y-84163048D01*
X142060958Y-84163058D01*
X141965476Y-84328438D01*
X141965473Y-84328445D01*
X141906457Y-84510072D01*
X141886496Y-84700000D01*
X138023723Y-84700000D01*
X138022269Y-84694005D01*
X138039007Y-84637000D01*
X138039038Y-84636946D01*
X138039040Y-84636944D01*
X138134527Y-84471556D01*
X138193542Y-84289928D01*
X138213504Y-84100000D01*
X138193542Y-83910072D01*
X138134527Y-83728444D01*
X138039040Y-83563056D01*
X138013157Y-83534310D01*
X137982440Y-83470304D01*
X137991203Y-83399851D01*
X138013155Y-83365691D01*
X138039040Y-83336944D01*
X138134527Y-83171556D01*
X138193542Y-82989928D01*
X138213504Y-82800000D01*
X138193542Y-82610072D01*
X138134527Y-82428444D01*
X138039040Y-82263056D01*
X138013157Y-82234310D01*
X137982440Y-82170304D01*
X137991203Y-82099851D01*
X138013155Y-82065691D01*
X138039040Y-82036944D01*
X138134527Y-81871556D01*
X138193542Y-81689928D01*
X138213504Y-81500000D01*
X138193542Y-81310072D01*
X138134527Y-81128444D01*
X138039040Y-80963056D01*
X138012548Y-80933634D01*
X137981832Y-80869630D01*
X137990595Y-80799176D01*
X137997066Y-80786324D01*
X137998113Y-80784510D01*
X137998118Y-80784505D01*
X138093605Y-80619117D01*
X138152620Y-80437489D01*
X138172582Y-80247561D01*
X138152620Y-80057633D01*
X138093605Y-79876005D01*
X137998118Y-79710617D01*
X137998116Y-79710615D01*
X137998112Y-79710609D01*
X137870333Y-79568696D01*
X137715830Y-79456443D01*
X137541366Y-79378767D01*
X137354565Y-79339061D01*
X137163932Y-79339061D01*
X137095811Y-79319059D01*
X137074837Y-79302156D01*
X135183519Y-77410838D01*
X135183515Y-77410834D01*
X135059284Y-77327826D01*
X134921247Y-77270649D01*
X134847976Y-77256074D01*
X134847975Y-77256073D01*
X134774711Y-77241500D01*
X134774706Y-77241500D01*
X134121220Y-77241500D01*
X134053099Y-77221498D01*
X134013979Y-77181647D01*
X133949029Y-77076347D01*
X133949024Y-77076341D01*
X133823658Y-76950975D01*
X133823652Y-76950970D01*
X133672738Y-76857885D01*
X133530202Y-76810654D01*
X133504427Y-76802113D01*
X133504420Y-76802112D01*
X133400553Y-76791500D01*
X132599455Y-76791500D01*
X132495574Y-76802112D01*
X132327261Y-76857885D01*
X132176347Y-76950970D01*
X132176341Y-76950975D01*
X132089095Y-77038222D01*
X132026783Y-77072248D01*
X131955968Y-77067183D01*
X131910905Y-77038222D01*
X131823658Y-76950975D01*
X131823652Y-76950970D01*
X131672738Y-76857885D01*
X131530200Y-76810653D01*
X131471829Y-76770240D01*
X131444573Y-76704684D01*
X131457086Y-76634798D01*
X131476197Y-76606739D01*
X131539034Y-76536951D01*
X131539035Y-76536949D01*
X131539040Y-76536944D01*
X131634527Y-76371556D01*
X131693542Y-76189928D01*
X131703213Y-76097900D01*
X131712112Y-76062863D01*
X131729351Y-76021246D01*
X131743821Y-75948500D01*
X131758500Y-75874706D01*
X131758500Y-71236999D01*
X131775380Y-71174000D01*
X131834527Y-71071556D01*
X131893542Y-70889928D01*
X131913504Y-70700000D01*
X131893542Y-70510072D01*
X131834527Y-70328444D01*
X131739040Y-70163056D01*
X131739038Y-70163054D01*
X131739034Y-70163048D01*
X131718281Y-70140000D01*
X134546496Y-70140000D01*
X134566457Y-70329927D01*
X134585953Y-70389927D01*
X134625473Y-70511556D01*
X134625476Y-70511561D01*
X134720958Y-70676941D01*
X134720965Y-70676951D01*
X134848744Y-70818864D01*
X134848747Y-70818866D01*
X135003248Y-70931118D01*
X135177712Y-71008794D01*
X135364513Y-71048500D01*
X135555487Y-71048500D01*
X135742288Y-71008794D01*
X135916752Y-70931118D01*
X136071253Y-70818866D01*
X136071255Y-70818864D01*
X136199034Y-70676951D01*
X136199035Y-70676949D01*
X136199040Y-70676944D01*
X136294527Y-70511556D01*
X136353542Y-70329928D01*
X136373504Y-70140000D01*
X136353542Y-69950072D01*
X136349279Y-69936951D01*
X136294529Y-69768449D01*
X136294527Y-69768444D01*
X136275380Y-69735280D01*
X136258500Y-69672281D01*
X136258500Y-66766370D01*
X136278502Y-66698249D01*
X136295400Y-66677279D01*
X137386332Y-65586347D01*
X137448642Y-65552324D01*
X137449102Y-65552224D01*
X137512288Y-65538794D01*
X137686752Y-65461118D01*
X137841253Y-65348866D01*
X137854345Y-65334326D01*
X137969034Y-65206951D01*
X137969035Y-65206949D01*
X137969040Y-65206944D01*
X138064527Y-65041556D01*
X138123542Y-64859928D01*
X138143504Y-64670000D01*
X138123542Y-64480072D01*
X138064527Y-64298444D01*
X137969040Y-64133056D01*
X137969038Y-64133054D01*
X137969034Y-64133048D01*
X137841255Y-63991135D01*
X137686752Y-63878882D01*
X137512288Y-63801206D01*
X137325487Y-63761500D01*
X137134513Y-63761500D01*
X136947711Y-63801206D01*
X136773247Y-63878882D01*
X136618744Y-63991135D01*
X136490965Y-64133048D01*
X136490958Y-64133058D01*
X136395476Y-64298438D01*
X136395472Y-64298445D01*
X136340612Y-64467285D01*
X136309874Y-64517443D01*
X134910840Y-65916477D01*
X134910835Y-65916483D01*
X134827826Y-66040716D01*
X134774764Y-66168819D01*
X134770649Y-66178753D01*
X134766423Y-66200000D01*
X134763910Y-66212634D01*
X134741500Y-66325290D01*
X134741500Y-69533845D01*
X134723060Y-69596644D01*
X134724261Y-69597338D01*
X134649979Y-69725999D01*
X134625473Y-69768444D01*
X134617982Y-69791500D01*
X134566457Y-69950072D01*
X134546496Y-70140000D01*
X131718281Y-70140000D01*
X131611255Y-70021135D01*
X131456752Y-69908882D01*
X131282288Y-69831206D01*
X131095487Y-69791500D01*
X130904513Y-69791500D01*
X130717709Y-69831206D01*
X130585748Y-69889959D01*
X130515381Y-69899393D01*
X130451084Y-69869286D01*
X130413271Y-69809197D01*
X130408500Y-69774852D01*
X130408500Y-59600000D01*
X134286496Y-59600000D01*
X134306457Y-59789927D01*
X134332662Y-59870574D01*
X134365473Y-59971556D01*
X134365476Y-59971561D01*
X134460958Y-60136941D01*
X134460965Y-60136951D01*
X134588744Y-60278864D01*
X134591870Y-60281135D01*
X134743248Y-60391118D01*
X134917712Y-60468794D01*
X135104513Y-60508500D01*
X135295487Y-60508500D01*
X135482288Y-60468794D01*
X135656752Y-60391118D01*
X135668524Y-60382564D01*
X135735391Y-60358706D01*
X135742587Y-60358500D01*
X135857413Y-60358500D01*
X135925534Y-60378502D01*
X135931471Y-60382562D01*
X135943248Y-60391118D01*
X136117712Y-60468794D01*
X136304513Y-60508500D01*
X136495487Y-60508500D01*
X136682288Y-60468794D01*
X136856752Y-60391118D01*
X136868524Y-60382564D01*
X136935391Y-60358706D01*
X136942587Y-60358500D01*
X137533629Y-60358500D01*
X137601750Y-60378502D01*
X137622724Y-60395405D01*
X138404595Y-61177276D01*
X138438621Y-61239588D01*
X138441500Y-61266371D01*
X138441500Y-69662999D01*
X138424619Y-69725999D01*
X138365476Y-69828438D01*
X138365473Y-69828445D01*
X138306457Y-70010072D01*
X138286496Y-70200000D01*
X138306457Y-70389927D01*
X138327883Y-70455868D01*
X138365473Y-70571556D01*
X138365476Y-70571561D01*
X138460958Y-70736941D01*
X138460965Y-70736951D01*
X138588744Y-70878864D01*
X138609168Y-70893703D01*
X138743248Y-70991118D01*
X138917712Y-71068794D01*
X139104513Y-71108500D01*
X139295487Y-71108500D01*
X139482288Y-71068794D01*
X139604253Y-71014491D01*
X139674618Y-71005058D01*
X139738915Y-71035164D01*
X139776728Y-71095253D01*
X139781500Y-71129599D01*
X139781500Y-74502999D01*
X139764619Y-74565999D01*
X139705476Y-74668438D01*
X139705473Y-74668445D01*
X139646457Y-74850072D01*
X139626496Y-75040000D01*
X139646457Y-75229927D01*
X139676526Y-75322470D01*
X139705473Y-75411556D01*
X139705476Y-75411561D01*
X139800958Y-75576941D01*
X139800965Y-75576951D01*
X139928744Y-75718864D01*
X139984376Y-75759283D01*
X140083248Y-75831118D01*
X140257712Y-75908794D01*
X140444513Y-75948500D01*
X140635487Y-75948500D01*
X140822288Y-75908794D01*
X140822288Y-75908793D01*
X140822292Y-75908793D01*
X140924172Y-75863432D01*
X140964251Y-75845587D01*
X141034617Y-75836153D01*
X141098915Y-75866259D01*
X141136728Y-75926348D01*
X141141500Y-75960694D01*
X141141500Y-82033627D01*
X141121498Y-82101748D01*
X141104595Y-82122723D01*
X140943665Y-82283652D01*
X140881353Y-82317677D01*
X140880769Y-82317802D01*
X140817713Y-82331205D01*
X140643249Y-82408881D01*
X140643248Y-82408882D01*
X140488744Y-82521135D01*
X140360965Y-82663048D01*
X140360958Y-82663058D01*
X140265476Y-82828438D01*
X140265473Y-82828445D01*
X140206457Y-83010072D01*
X140186496Y-83200000D01*
X140206457Y-83389927D01*
X140232574Y-83470304D01*
X140265473Y-83571556D01*
X140265476Y-83571561D01*
X140360958Y-83736941D01*
X140360965Y-83736951D01*
X140488744Y-83878864D01*
X140549130Y-83922737D01*
X140643248Y-83991118D01*
X140817712Y-84068794D01*
X141004513Y-84108500D01*
X141195487Y-84108500D01*
X141382288Y-84068794D01*
X141556752Y-83991118D01*
X141711253Y-83878866D01*
X141741367Y-83845421D01*
X141839034Y-83736951D01*
X141839035Y-83736949D01*
X141839040Y-83736944D01*
X141934527Y-83571556D01*
X141989388Y-83402712D01*
X142020123Y-83352556D01*
X142489166Y-82883515D01*
X142572174Y-82759284D01*
X142629351Y-82621247D01*
X142656198Y-82486279D01*
X142658500Y-82474706D01*
X142658500Y-65436999D01*
X142675380Y-65374000D01*
X142734527Y-65271556D01*
X142793542Y-65089928D01*
X142813504Y-64900000D01*
X142793542Y-64710072D01*
X142734527Y-64528444D01*
X142639040Y-64363056D01*
X142639038Y-64363054D01*
X142639034Y-64363048D01*
X142511255Y-64221135D01*
X142356752Y-64108882D01*
X142182288Y-64031206D01*
X141995487Y-63991500D01*
X141804513Y-63991500D01*
X141617711Y-64031206D01*
X141533709Y-64068606D01*
X141475748Y-64094412D01*
X141405382Y-64103846D01*
X141341085Y-64073740D01*
X141303271Y-64013651D01*
X141298500Y-63979305D01*
X141298500Y-56262500D01*
X142948996Y-56262500D01*
X142968957Y-56452427D01*
X143004106Y-56560603D01*
X143027973Y-56634056D01*
X143087119Y-56736500D01*
X143104000Y-56799499D01*
X143104000Y-69800499D01*
X143087119Y-69863499D01*
X143027976Y-69965938D01*
X143027973Y-69965945D01*
X142968957Y-70147572D01*
X142948996Y-70337500D01*
X142968957Y-70527427D01*
X142994274Y-70605342D01*
X143027973Y-70709056D01*
X143027976Y-70709061D01*
X143123458Y-70874441D01*
X143123465Y-70874451D01*
X143251244Y-71016364D01*
X143251247Y-71016366D01*
X143405748Y-71128618D01*
X143580212Y-71206294D01*
X143767013Y-71246000D01*
X143957987Y-71246000D01*
X144144788Y-71206294D01*
X144319252Y-71128618D01*
X144473753Y-71016366D01*
X144473755Y-71016364D01*
X144601534Y-70874451D01*
X144601535Y-70874449D01*
X144601540Y-70874444D01*
X144697027Y-70709056D01*
X144756042Y-70527428D01*
X144776004Y-70337500D01*
X144756042Y-70147572D01*
X144697027Y-69965944D01*
X144658604Y-69899393D01*
X144637881Y-69863499D01*
X144621000Y-69800499D01*
X144621000Y-56799499D01*
X144637880Y-56736500D01*
X144697027Y-56634056D01*
X144756042Y-56452428D01*
X144776004Y-56262500D01*
X144756042Y-56072572D01*
X144697027Y-55890944D01*
X144601540Y-55725556D01*
X144601538Y-55725554D01*
X144601534Y-55725548D01*
X144473755Y-55583635D01*
X144319252Y-55471382D01*
X144144788Y-55393706D01*
X143957987Y-55354000D01*
X143767013Y-55354000D01*
X143580211Y-55393706D01*
X143405747Y-55471382D01*
X143251244Y-55583635D01*
X143123465Y-55725548D01*
X143123458Y-55725558D01*
X143027976Y-55890938D01*
X143027973Y-55890945D01*
X142968957Y-56072572D01*
X142948996Y-56262500D01*
X141298500Y-56262500D01*
X141298500Y-54999993D01*
X154886911Y-54999993D01*
X154886911Y-55000006D01*
X154907250Y-55388114D01*
X154968051Y-55771995D01*
X155068644Y-56147414D01*
X155207919Y-56510239D01*
X155207923Y-56510247D01*
X155384365Y-56856535D01*
X155384369Y-56856541D01*
X155596049Y-57182501D01*
X155802877Y-57437911D01*
X156593460Y-56647328D01*
X156652944Y-56647328D01*
X156652944Y-56746784D01*
X156691004Y-56838670D01*
X156761330Y-56908996D01*
X156853216Y-56947056D01*
X156952672Y-56947056D01*
X157044558Y-56908996D01*
X157114884Y-56838670D01*
X157152944Y-56746784D01*
X157152944Y-56647328D01*
X157114884Y-56555442D01*
X157044558Y-56485116D01*
X156952672Y-56447056D01*
X156853216Y-56447056D01*
X156761330Y-56485116D01*
X156691004Y-56555442D01*
X156652944Y-56647328D01*
X156593460Y-56647328D01*
X157303367Y-55937421D01*
X157379588Y-56042330D01*
X157557670Y-56220412D01*
X157662577Y-56296631D01*
X156162087Y-57797121D01*
X156417498Y-58003950D01*
X156743458Y-58215630D01*
X156743464Y-58215634D01*
X157089752Y-58392076D01*
X157089760Y-58392080D01*
X157452585Y-58531355D01*
X157828004Y-58631948D01*
X158211885Y-58692749D01*
X158599994Y-58713089D01*
X158600006Y-58713089D01*
X158988114Y-58692749D01*
X159371995Y-58631948D01*
X159747414Y-58531355D01*
X160110239Y-58392080D01*
X160110247Y-58392076D01*
X160456535Y-58215634D01*
X160456541Y-58215630D01*
X160782501Y-58003950D01*
X161037911Y-57797121D01*
X159888119Y-56647328D01*
X160047056Y-56647328D01*
X160047056Y-56746784D01*
X160085116Y-56838670D01*
X160155442Y-56908996D01*
X160247328Y-56947056D01*
X160346784Y-56947056D01*
X160438670Y-56908996D01*
X160508996Y-56838670D01*
X160547056Y-56746784D01*
X160547056Y-56647328D01*
X160508996Y-56555442D01*
X160438670Y-56485116D01*
X160346784Y-56447056D01*
X160247328Y-56447056D01*
X160155442Y-56485116D01*
X160085116Y-56555442D01*
X160047056Y-56647328D01*
X159888119Y-56647328D01*
X159537422Y-56296631D01*
X159642330Y-56220412D01*
X159820412Y-56042330D01*
X159896632Y-55937422D01*
X161397121Y-57437911D01*
X161603950Y-57182501D01*
X161815630Y-56856541D01*
X161815634Y-56856535D01*
X161992076Y-56510247D01*
X161992080Y-56510239D01*
X162131355Y-56147414D01*
X162231948Y-55771995D01*
X162292749Y-55388114D01*
X162313089Y-55000006D01*
X162313089Y-54999993D01*
X162292749Y-54611885D01*
X162231948Y-54228004D01*
X162131355Y-53852585D01*
X161992080Y-53489760D01*
X161992076Y-53489752D01*
X161815628Y-53143455D01*
X161603957Y-52817508D01*
X161603952Y-52817501D01*
X161397121Y-52562087D01*
X159896631Y-54062577D01*
X159820412Y-53957670D01*
X159642330Y-53779588D01*
X159537421Y-53703367D01*
X159987572Y-53253216D01*
X160047056Y-53253216D01*
X160047056Y-53352672D01*
X160085116Y-53444558D01*
X160155442Y-53514884D01*
X160247328Y-53552944D01*
X160346784Y-53552944D01*
X160438670Y-53514884D01*
X160508996Y-53444558D01*
X160547056Y-53352672D01*
X160547056Y-53253216D01*
X160508996Y-53161330D01*
X160438670Y-53091004D01*
X160346784Y-53052944D01*
X160247328Y-53052944D01*
X160155442Y-53091004D01*
X160085116Y-53161330D01*
X160047056Y-53253216D01*
X159987572Y-53253216D01*
X161037911Y-52202877D01*
X160782501Y-51996049D01*
X160456541Y-51784369D01*
X160456535Y-51784365D01*
X160110247Y-51607923D01*
X160110239Y-51607919D01*
X159747414Y-51468644D01*
X159371995Y-51368051D01*
X158988114Y-51307250D01*
X158600006Y-51286911D01*
X158599994Y-51286911D01*
X158211885Y-51307250D01*
X157828004Y-51368051D01*
X157452585Y-51468644D01*
X157089760Y-51607919D01*
X157089752Y-51607923D01*
X156743455Y-51784371D01*
X156417508Y-51996042D01*
X156417491Y-51996054D01*
X156162088Y-52202876D01*
X156162087Y-52202877D01*
X157662577Y-53703367D01*
X157557670Y-53779588D01*
X157379588Y-53957670D01*
X157303367Y-54062577D01*
X156494006Y-53253216D01*
X156652944Y-53253216D01*
X156652944Y-53352672D01*
X156691004Y-53444558D01*
X156761330Y-53514884D01*
X156853216Y-53552944D01*
X156952672Y-53552944D01*
X157044558Y-53514884D01*
X157114884Y-53444558D01*
X157152944Y-53352672D01*
X157152944Y-53253216D01*
X157114884Y-53161330D01*
X157044558Y-53091004D01*
X156952672Y-53052944D01*
X156853216Y-53052944D01*
X156761330Y-53091004D01*
X156691004Y-53161330D01*
X156652944Y-53253216D01*
X156494006Y-53253216D01*
X155802877Y-52562087D01*
X155802876Y-52562088D01*
X155596054Y-52817491D01*
X155596042Y-52817508D01*
X155384371Y-53143455D01*
X155207923Y-53489752D01*
X155207919Y-53489760D01*
X155068644Y-53852585D01*
X154968051Y-54228004D01*
X154907250Y-54611885D01*
X154886911Y-54999993D01*
X141298500Y-54999993D01*
X141298500Y-54165295D01*
X141298499Y-54165288D01*
X141273720Y-54040717D01*
X141273720Y-54040716D01*
X141269351Y-54018753D01*
X141233928Y-53933235D01*
X141228815Y-53920890D01*
X141228803Y-53920863D01*
X141225359Y-53912548D01*
X141212174Y-53880716D01*
X141129165Y-53756484D01*
X141023516Y-53650835D01*
X140920125Y-53547444D01*
X140889387Y-53497285D01*
X140887507Y-53491500D01*
X140834527Y-53328444D01*
X140739040Y-53163056D01*
X140739038Y-53163054D01*
X140739034Y-53163048D01*
X140611255Y-53021135D01*
X140456752Y-52908882D01*
X140282288Y-52831206D01*
X140095487Y-52791500D01*
X139904513Y-52791500D01*
X139717711Y-52831206D01*
X139543247Y-52908882D01*
X139388744Y-53021135D01*
X139260965Y-53163048D01*
X139260958Y-53163058D01*
X139165476Y-53328438D01*
X139165473Y-53328445D01*
X139106457Y-53510072D01*
X139086496Y-53700000D01*
X139106457Y-53889927D01*
X139136526Y-53982470D01*
X139165473Y-54071556D01*
X139165476Y-54071561D01*
X139260958Y-54236941D01*
X139260965Y-54236951D01*
X139388744Y-54378864D01*
X139388747Y-54378866D01*
X139543248Y-54491118D01*
X139706749Y-54563913D01*
X139760844Y-54609892D01*
X139781494Y-54677819D01*
X139781500Y-54679019D01*
X139781500Y-60104629D01*
X139761498Y-60172750D01*
X139707842Y-60219243D01*
X139637568Y-60229347D01*
X139572988Y-60199853D01*
X139566405Y-60193724D01*
X138383519Y-59010838D01*
X138383515Y-59010834D01*
X138259284Y-58927826D01*
X138121247Y-58870649D01*
X138047976Y-58856074D01*
X138047975Y-58856073D01*
X137974711Y-58841500D01*
X137974706Y-58841500D01*
X136942587Y-58841500D01*
X136874466Y-58821498D01*
X136868524Y-58817435D01*
X136856754Y-58808883D01*
X136790329Y-58779309D01*
X136682288Y-58731206D01*
X136495487Y-58691500D01*
X136304513Y-58691500D01*
X136117711Y-58731206D01*
X135943245Y-58808883D01*
X135931476Y-58817435D01*
X135864609Y-58841294D01*
X135857413Y-58841500D01*
X135742587Y-58841500D01*
X135674466Y-58821498D01*
X135668524Y-58817435D01*
X135656754Y-58808883D01*
X135590329Y-58779309D01*
X135482288Y-58731206D01*
X135295487Y-58691500D01*
X135104513Y-58691500D01*
X134917711Y-58731206D01*
X134743247Y-58808882D01*
X134588744Y-58921135D01*
X134460965Y-59063048D01*
X134460958Y-59063058D01*
X134365476Y-59228438D01*
X134365473Y-59228444D01*
X134356107Y-59257270D01*
X134306457Y-59410072D01*
X134286496Y-59600000D01*
X130408500Y-59600000D01*
X130408500Y-55230289D01*
X130428502Y-55162168D01*
X130440861Y-55145982D01*
X130444794Y-55141614D01*
X130457035Y-55128018D01*
X130461520Y-55123291D01*
X130505678Y-55079135D01*
X130513944Y-55066762D01*
X130525066Y-55052462D01*
X130539040Y-55036944D01*
X130569850Y-54983578D01*
X130574193Y-54976595D01*
X130591782Y-54950272D01*
X130605103Y-54930336D01*
X130613401Y-54910299D01*
X130620686Y-54895527D01*
X130634527Y-54871556D01*
X130651481Y-54819374D01*
X130654887Y-54810144D01*
X130673587Y-54765000D01*
X130679143Y-54737063D01*
X130682883Y-54722728D01*
X130693542Y-54689928D01*
X130698565Y-54642128D01*
X130700296Y-54630720D01*
X130701368Y-54625332D01*
X130708500Y-54589479D01*
X130708500Y-54554215D01*
X130709190Y-54541045D01*
X130710960Y-54524202D01*
X130713504Y-54500000D01*
X130709190Y-54458954D01*
X130708500Y-54445784D01*
X130708500Y-54410522D01*
X130708500Y-54410521D01*
X130700293Y-54369266D01*
X130698565Y-54357866D01*
X130693542Y-54310072D01*
X130690516Y-54300761D01*
X130682886Y-54277275D01*
X130679141Y-54262928D01*
X130673587Y-54235000D01*
X130654891Y-54189864D01*
X130651476Y-54180608D01*
X130634527Y-54128444D01*
X130632890Y-54125608D01*
X130620689Y-54104475D01*
X130613400Y-54089694D01*
X130605104Y-54069667D01*
X130605103Y-54069664D01*
X130574180Y-54023384D01*
X130569849Y-54016418D01*
X130539040Y-53963056D01*
X130525068Y-53947539D01*
X130513943Y-53933235D01*
X130505678Y-53920865D01*
X130461537Y-53876724D01*
X130457014Y-53871957D01*
X130411255Y-53821136D01*
X130411254Y-53821135D01*
X130411253Y-53821134D01*
X130403968Y-53815841D01*
X130399864Y-53812859D01*
X130384833Y-53800020D01*
X130379137Y-53794324D01*
X130379135Y-53794322D01*
X130343685Y-53770635D01*
X130321630Y-53755898D01*
X130317571Y-53753069D01*
X130256752Y-53708881D01*
X130250121Y-53705929D01*
X130231383Y-53695597D01*
X130230336Y-53694897D01*
X130160130Y-53665816D01*
X130157139Y-53664530D01*
X130082290Y-53631206D01*
X130082280Y-53631203D01*
X130081860Y-53631114D01*
X130071064Y-53627765D01*
X130070929Y-53628211D01*
X130065008Y-53626415D01*
X130065001Y-53626413D01*
X130065000Y-53626413D01*
X130000333Y-53613549D01*
X129983880Y-53610277D01*
X129982267Y-53609945D01*
X129895489Y-53591500D01*
X129895487Y-53591500D01*
X129704513Y-53591500D01*
X129704512Y-53591500D01*
X129617746Y-53609942D01*
X129616133Y-53610274D01*
X129534995Y-53626414D01*
X129529072Y-53628211D01*
X129528937Y-53627767D01*
X129518138Y-53631115D01*
X129517715Y-53631204D01*
X129517711Y-53631206D01*
X129442854Y-53664533D01*
X129439828Y-53665833D01*
X129369668Y-53694895D01*
X129369652Y-53694903D01*
X129368609Y-53695601D01*
X129349888Y-53705924D01*
X129343250Y-53708879D01*
X129343248Y-53708881D01*
X129282449Y-53753054D01*
X129278394Y-53755880D01*
X129220866Y-53794321D01*
X129220859Y-53794327D01*
X129215157Y-53800029D01*
X129200132Y-53812861D01*
X129188747Y-53821133D01*
X129142993Y-53871948D01*
X129138453Y-53876732D01*
X128794320Y-54220867D01*
X128794319Y-54220869D01*
X128694897Y-54369664D01*
X128630884Y-54524202D01*
X128630885Y-54524203D01*
X128626412Y-54535002D01*
X128626411Y-54535003D01*
X128591500Y-54710515D01*
X128591500Y-66214629D01*
X128571498Y-66282750D01*
X128517842Y-66329243D01*
X128447568Y-66339347D01*
X128382988Y-66309853D01*
X128376405Y-66303724D01*
X128283519Y-66210838D01*
X128283518Y-66210837D01*
X128283515Y-66210834D01*
X128159284Y-66127826D01*
X128021247Y-66070649D01*
X127947976Y-66056074D01*
X127947975Y-66056073D01*
X127874711Y-66041500D01*
X127874706Y-66041500D01*
X127742587Y-66041500D01*
X127674466Y-66021498D01*
X127668524Y-66017435D01*
X127656754Y-66008883D01*
X127482288Y-65931206D01*
X127295487Y-65891500D01*
X127104513Y-65891500D01*
X126917711Y-65931206D01*
X126743247Y-66008882D01*
X126588744Y-66121135D01*
X126460965Y-66263048D01*
X126460958Y-66263058D01*
X126381029Y-66401500D01*
X126365473Y-66428444D01*
X126350999Y-66472986D01*
X126306457Y-66610072D01*
X126286496Y-66800000D01*
X126306457Y-66989927D01*
X126334792Y-67077129D01*
X126365473Y-67171556D01*
X126393841Y-67220691D01*
X126460958Y-67336941D01*
X126460965Y-67336951D01*
X126588744Y-67478864D01*
X126649999Y-67523368D01*
X126743248Y-67591118D01*
X126917712Y-67668794D01*
X127104513Y-67708500D01*
X127295487Y-67708500D01*
X127482288Y-67668794D01*
X127482290Y-67668792D01*
X127488563Y-67666755D01*
X127488971Y-67668011D01*
X127552283Y-67659512D01*
X127616585Y-67689608D01*
X127622280Y-67694961D01*
X128103724Y-68176405D01*
X128137750Y-68238717D01*
X128132685Y-68309532D01*
X128090138Y-68366368D01*
X128023618Y-68391179D01*
X128014629Y-68391500D01*
X117597327Y-68391500D01*
X117529206Y-68371498D01*
X117482713Y-68317842D01*
X117472609Y-68247568D01*
X117502103Y-68182988D01*
X117546078Y-68150393D01*
X117656752Y-68101118D01*
X117668524Y-68092564D01*
X117735391Y-68068706D01*
X117742587Y-68068500D01*
X121764701Y-68068500D01*
X121764705Y-68068500D01*
X121764706Y-68068500D01*
X121837976Y-68053925D01*
X121911247Y-68039351D01*
X122049284Y-67982174D01*
X122173515Y-67899166D01*
X125289166Y-64783515D01*
X125372174Y-64659284D01*
X125429351Y-64521247D01*
X125453778Y-64398444D01*
X125458500Y-64374706D01*
X125458500Y-53236999D01*
X125475380Y-53174000D01*
X125534527Y-53071556D01*
X125593542Y-52889928D01*
X125613504Y-52700000D01*
X125593542Y-52510072D01*
X125534527Y-52328444D01*
X125439040Y-52163056D01*
X125439038Y-52163054D01*
X125439034Y-52163048D01*
X125311255Y-52021135D01*
X125156752Y-51908882D01*
X124982288Y-51831206D01*
X124795487Y-51791500D01*
X124604513Y-51791500D01*
X124417711Y-51831206D01*
X124243247Y-51908882D01*
X124088744Y-52021135D01*
X123960965Y-52163048D01*
X123960958Y-52163058D01*
X123865476Y-52328438D01*
X123865473Y-52328445D01*
X123806457Y-52510072D01*
X123786496Y-52700000D01*
X123806457Y-52889927D01*
X123821752Y-52936999D01*
X123865473Y-53071556D01*
X123924619Y-53174000D01*
X123941500Y-53236999D01*
X123941500Y-63933629D01*
X123921498Y-64001750D01*
X123904595Y-64022724D01*
X121412724Y-66514595D01*
X121350412Y-66548621D01*
X121323629Y-66551500D01*
X117742587Y-66551500D01*
X117674466Y-66531498D01*
X117668524Y-66527435D01*
X117656754Y-66518883D01*
X117482288Y-66441206D01*
X117295487Y-66401500D01*
X117104513Y-66401500D01*
X116917711Y-66441206D01*
X116743247Y-66518882D01*
X116588744Y-66631135D01*
X116460965Y-66773048D01*
X116460958Y-66773058D01*
X116365476Y-66938438D01*
X116365473Y-66938444D01*
X116353692Y-66974703D01*
X116306457Y-67120072D01*
X116286496Y-67310000D01*
X116306457Y-67499927D01*
X116325489Y-67558500D01*
X116365473Y-67681556D01*
X116365476Y-67681561D01*
X116460958Y-67846941D01*
X116460965Y-67846951D01*
X116588744Y-67988864D01*
X116588747Y-67988866D01*
X116743248Y-68101118D01*
X116825076Y-68137550D01*
X116853922Y-68150393D01*
X116908018Y-68196373D01*
X116928667Y-68264301D01*
X116909315Y-68332609D01*
X116856104Y-68379610D01*
X116802673Y-68391500D01*
X113885371Y-68391500D01*
X113817250Y-68371498D01*
X113770757Y-68317842D01*
X113760653Y-68247568D01*
X113790147Y-68182988D01*
X113796276Y-68176405D01*
X115989165Y-65983516D01*
X115992351Y-65978749D01*
X116051698Y-65889928D01*
X116072174Y-65859284D01*
X116119168Y-65745831D01*
X116129351Y-65721247D01*
X116129353Y-65721232D01*
X116131145Y-65715330D01*
X116132796Y-65715830D01*
X116161871Y-65660230D01*
X116223560Y-65625089D01*
X116294456Y-65628879D01*
X116303807Y-65632603D01*
X116317709Y-65638793D01*
X116317710Y-65638793D01*
X116317712Y-65638794D01*
X116504513Y-65678500D01*
X116695487Y-65678500D01*
X116882288Y-65638794D01*
X117056752Y-65561118D01*
X117211253Y-65448866D01*
X117211255Y-65448864D01*
X117339034Y-65306951D01*
X117339035Y-65306949D01*
X117339040Y-65306944D01*
X117434527Y-65141556D01*
X117493542Y-64959928D01*
X117513504Y-64770000D01*
X117493542Y-64580072D01*
X117434527Y-64398444D01*
X117339040Y-64233056D01*
X117339038Y-64233054D01*
X117339034Y-64233048D01*
X117211255Y-64091135D01*
X117056752Y-63978882D01*
X116882288Y-63901206D01*
X116695487Y-63861500D01*
X116504513Y-63861500D01*
X116317711Y-63901206D01*
X116143245Y-63978883D01*
X116131476Y-63987435D01*
X116064609Y-64011294D01*
X116057413Y-64011500D01*
X116038933Y-64011500D01*
X115970812Y-63991498D01*
X115964872Y-63987436D01*
X115856752Y-63908882D01*
X115787062Y-63877854D01*
X115732966Y-63831873D01*
X115712317Y-63763946D01*
X115731670Y-63695638D01*
X115749211Y-63673656D01*
X116427465Y-62995404D01*
X116489777Y-62961379D01*
X116516560Y-62958500D01*
X121857413Y-62958500D01*
X121925534Y-62978502D01*
X121931471Y-62982562D01*
X121943248Y-62991118D01*
X122117712Y-63068794D01*
X122304513Y-63108500D01*
X122495487Y-63108500D01*
X122682288Y-63068794D01*
X122856752Y-62991118D01*
X123011253Y-62878866D01*
X123033367Y-62854306D01*
X123139034Y-62736951D01*
X123139035Y-62736949D01*
X123139040Y-62736944D01*
X123234527Y-62571556D01*
X123293542Y-62389928D01*
X123313504Y-62200000D01*
X123293542Y-62010072D01*
X123234527Y-61828444D01*
X123139040Y-61663056D01*
X123139037Y-61663053D01*
X123135157Y-61657712D01*
X123136527Y-61656716D01*
X123109454Y-61600318D01*
X123118209Y-61529864D01*
X123135684Y-61502671D01*
X123135157Y-61502288D01*
X123139033Y-61496950D01*
X123139040Y-61496944D01*
X123234527Y-61331556D01*
X123293542Y-61149928D01*
X123313504Y-60960000D01*
X123293542Y-60770072D01*
X123234527Y-60588444D01*
X123139040Y-60423056D01*
X123139038Y-60423054D01*
X123139034Y-60423048D01*
X123011255Y-60281135D01*
X122856752Y-60168882D01*
X122682288Y-60091206D01*
X122495487Y-60051500D01*
X122304513Y-60051500D01*
X122117711Y-60091206D01*
X121943245Y-60168883D01*
X121931476Y-60177435D01*
X121864609Y-60201294D01*
X121857413Y-60201500D01*
X115465288Y-60201500D01*
X115392024Y-60216073D01*
X115392024Y-60216074D01*
X115318753Y-60230649D01*
X115318751Y-60230649D01*
X115318750Y-60230650D01*
X115251170Y-60258643D01*
X115189159Y-60284329D01*
X115180714Y-60287827D01*
X115056483Y-60370835D01*
X115056477Y-60370840D01*
X113874190Y-61553127D01*
X113811878Y-61587153D01*
X113741062Y-61582088D01*
X113684227Y-61539541D01*
X113675976Y-61527031D01*
X113639044Y-61463062D01*
X113639034Y-61463048D01*
X113511255Y-61321135D01*
X113356752Y-61208882D01*
X113182288Y-61131206D01*
X112995487Y-61091500D01*
X112804513Y-61091500D01*
X112617711Y-61131206D01*
X112443247Y-61208882D01*
X112288744Y-61321135D01*
X112160965Y-61463048D01*
X112160958Y-61463058D01*
X112065476Y-61628438D01*
X112065472Y-61628445D01*
X112010612Y-61797285D01*
X111979874Y-61847443D01*
X111191473Y-62635844D01*
X111129161Y-62669870D01*
X111058346Y-62664805D01*
X111051135Y-62661858D01*
X110982288Y-62631206D01*
X110795487Y-62591500D01*
X110604513Y-62591500D01*
X110417711Y-62631206D01*
X110243245Y-62708883D01*
X110231476Y-62717435D01*
X110164609Y-62741294D01*
X110157413Y-62741500D01*
X106866371Y-62741500D01*
X106798250Y-62721498D01*
X106777276Y-62704595D01*
X104995405Y-60922724D01*
X104961379Y-60860412D01*
X104958500Y-60833629D01*
X104958500Y-57436999D01*
X104975380Y-57374000D01*
X105034527Y-57271556D01*
X105093542Y-57089928D01*
X105113504Y-56900000D01*
X105093542Y-56710072D01*
X105034527Y-56528444D01*
X104939040Y-56363056D01*
X104939038Y-56363054D01*
X104939034Y-56363048D01*
X104811255Y-56221135D01*
X104656752Y-56108882D01*
X104482288Y-56031206D01*
X104295487Y-55991500D01*
X104104513Y-55991500D01*
X103917711Y-56031206D01*
X103743247Y-56108882D01*
X103588744Y-56221135D01*
X103460965Y-56363048D01*
X103460958Y-56363058D01*
X103365476Y-56528438D01*
X103365473Y-56528445D01*
X103306457Y-56710072D01*
X103286496Y-56900000D01*
X103306457Y-57089927D01*
X103333013Y-57171656D01*
X103365473Y-57271556D01*
X103424619Y-57374000D01*
X103441500Y-57436999D01*
X103441500Y-61274707D01*
X103446952Y-61302114D01*
X103466943Y-61402616D01*
X103470649Y-61421247D01*
X103527826Y-61559284D01*
X103610834Y-61683515D01*
X105910834Y-63983515D01*
X105910835Y-63983516D01*
X106016484Y-64089165D01*
X106140716Y-64172174D01*
X106221576Y-64205667D01*
X106278753Y-64229351D01*
X106352022Y-64243924D01*
X106352023Y-64243925D01*
X106366598Y-64246824D01*
X106425294Y-64258500D01*
X106425295Y-64258500D01*
X106574705Y-64258500D01*
X110157413Y-64258500D01*
X110225534Y-64278502D01*
X110231471Y-64282562D01*
X110243248Y-64291118D01*
X110417712Y-64368794D01*
X110604513Y-64408500D01*
X110795487Y-64408500D01*
X110802049Y-64407810D01*
X110802368Y-64410852D01*
X110859870Y-64415131D01*
X110916584Y-64457840D01*
X110941204Y-64524430D01*
X110941500Y-64533060D01*
X110941500Y-65162999D01*
X110924619Y-65225999D01*
X110876922Y-65308613D01*
X110865473Y-65328444D01*
X110856810Y-65355106D01*
X110806457Y-65510072D01*
X110786496Y-65700000D01*
X110807148Y-65896496D01*
X110805764Y-65896641D01*
X110800922Y-65960095D01*
X110758105Y-66016727D01*
X110691467Y-66041220D01*
X110683078Y-66041500D01*
X109525288Y-66041500D01*
X109452024Y-66056073D01*
X109452024Y-66056074D01*
X109415388Y-66063361D01*
X109378752Y-66070649D01*
X109378748Y-66070650D01*
X109334051Y-66089164D01*
X109334052Y-66089165D01*
X109302325Y-66102307D01*
X109240714Y-66127827D01*
X109170555Y-66174706D01*
X109116488Y-66210832D01*
X109116481Y-66210837D01*
X108610838Y-66716480D01*
X108610833Y-66716486D01*
X108527826Y-66840716D01*
X108470651Y-66978747D01*
X108470649Y-66978752D01*
X108459461Y-67035000D01*
X108441500Y-67125293D01*
X108441500Y-68862999D01*
X108424619Y-68925999D01*
X108365476Y-69028438D01*
X108365473Y-69028445D01*
X108306457Y-69210072D01*
X108286496Y-69400000D01*
X108306457Y-69589927D01*
X108326518Y-69651667D01*
X108365473Y-69771556D01*
X108365476Y-69771561D01*
X108460958Y-69936941D01*
X108460965Y-69936951D01*
X108588744Y-70078864D01*
X108588747Y-70078866D01*
X108743248Y-70191118D01*
X108917712Y-70268794D01*
X109104513Y-70308500D01*
X109295487Y-70308500D01*
X109482288Y-70268794D01*
X109564251Y-70232301D01*
X109634617Y-70222867D01*
X109698915Y-70252973D01*
X109736728Y-70313061D01*
X109741500Y-70347408D01*
X109741500Y-73786076D01*
X109721498Y-73854197D01*
X109667842Y-73900690D01*
X109597568Y-73910794D01*
X109532988Y-73881300D01*
X109526405Y-73875171D01*
X101905383Y-66254149D01*
X101905381Y-66254147D01*
X101740204Y-66143779D01*
X101556668Y-66067756D01*
X101497934Y-66056073D01*
X101361831Y-66029000D01*
X101361829Y-66029000D01*
X101163171Y-66029000D01*
X101163168Y-66029000D01*
X100968331Y-66067756D01*
X100968326Y-66067758D01*
X100784796Y-66143779D01*
X100619623Y-66254144D01*
X100619616Y-66254149D01*
X100479149Y-66394616D01*
X100479144Y-66394623D01*
X100368779Y-66559796D01*
X100292758Y-66743326D01*
X100292756Y-66743331D01*
X100254000Y-66938168D01*
X100254000Y-67077129D01*
X100233998Y-67145250D01*
X100180342Y-67191743D01*
X100110068Y-67201847D01*
X100045488Y-67172353D01*
X100038905Y-67166224D01*
X98483519Y-65610838D01*
X98483515Y-65610834D01*
X98359284Y-65527826D01*
X98221247Y-65470649D01*
X98147976Y-65456074D01*
X98147975Y-65456073D01*
X98074711Y-65441500D01*
X98074706Y-65441500D01*
X97074706Y-65441500D01*
X96942587Y-65441500D01*
X96874466Y-65421498D01*
X96868524Y-65417435D01*
X96856754Y-65408883D01*
X96824013Y-65394306D01*
X96682288Y-65331206D01*
X96495487Y-65291500D01*
X96304513Y-65291500D01*
X96117711Y-65331206D01*
X95943247Y-65408882D01*
X95788744Y-65521135D01*
X95660965Y-65663048D01*
X95660958Y-65663058D01*
X95565476Y-65828438D01*
X95565473Y-65828445D01*
X95506457Y-66010072D01*
X95486496Y-66200000D01*
X95506457Y-66389927D01*
X95518973Y-66428445D01*
X95565473Y-66571556D01*
X95565476Y-66571561D01*
X95660958Y-66736941D01*
X95660965Y-66736951D01*
X95788744Y-66878864D01*
X95788747Y-66878866D01*
X95943248Y-66991118D01*
X96117712Y-67068794D01*
X96304513Y-67108500D01*
X96495487Y-67108500D01*
X96682288Y-67068794D01*
X96856752Y-66991118D01*
X96868524Y-66982564D01*
X96935391Y-66958706D01*
X96942587Y-66958500D01*
X97633629Y-66958500D01*
X97701750Y-66978502D01*
X97722724Y-66995405D01*
X101204595Y-70477276D01*
X101238621Y-70539588D01*
X101241500Y-70566371D01*
X101241500Y-78033629D01*
X101221498Y-78101750D01*
X101204595Y-78122724D01*
X99823595Y-79503724D01*
X99761283Y-79537750D01*
X99690468Y-79532685D01*
X99633632Y-79490138D01*
X99608821Y-79423618D01*
X99608500Y-79414629D01*
X99608500Y-73534500D01*
X99628502Y-73466379D01*
X99682158Y-73419886D01*
X99734500Y-73408500D01*
X99895487Y-73408500D01*
X100082288Y-73368794D01*
X100256752Y-73291118D01*
X100411253Y-73178866D01*
X100417829Y-73171563D01*
X100539034Y-73036951D01*
X100539035Y-73036949D01*
X100539040Y-73036944D01*
X100634527Y-72871556D01*
X100693542Y-72689928D01*
X100713504Y-72500000D01*
X100693542Y-72310072D01*
X100634527Y-72128444D01*
X100539040Y-71963056D01*
X100539038Y-71963054D01*
X100539034Y-71963048D01*
X100411255Y-71821135D01*
X100256752Y-71708882D01*
X100082288Y-71631206D01*
X99895487Y-71591500D01*
X99704513Y-71591500D01*
X99517711Y-71631206D01*
X99343245Y-71708883D01*
X99331476Y-71717435D01*
X99264609Y-71741294D01*
X99257413Y-71741500D01*
X96676663Y-71741500D01*
X96608542Y-71721498D01*
X96577826Y-71693649D01*
X96574025Y-71688842D01*
X96448657Y-71563474D01*
X96445547Y-71561015D01*
X96443967Y-71558784D01*
X96443463Y-71558280D01*
X96443549Y-71558193D01*
X96404518Y-71503075D01*
X96401326Y-71432150D01*
X96436986Y-71370759D01*
X96445558Y-71363332D01*
X96448350Y-71361124D01*
X96573629Y-71235845D01*
X96573634Y-71235839D01*
X96666657Y-71085025D01*
X96722393Y-70916821D01*
X96722394Y-70916818D01*
X96732999Y-70813016D01*
X96733000Y-70813016D01*
X96733000Y-70679000D01*
X95372000Y-70679000D01*
X95303879Y-70658998D01*
X95257386Y-70605342D01*
X95246000Y-70553000D01*
X95246000Y-70171000D01*
X95754000Y-70171000D01*
X96733000Y-70171000D01*
X96733000Y-70036983D01*
X96722394Y-69933181D01*
X96722393Y-69933178D01*
X96666657Y-69764974D01*
X96573634Y-69614160D01*
X96573629Y-69614154D01*
X96448345Y-69488870D01*
X96448339Y-69488865D01*
X96297525Y-69395842D01*
X96129321Y-69340106D01*
X96129318Y-69340105D01*
X96025516Y-69329500D01*
X95754000Y-69329500D01*
X95754000Y-70171000D01*
X95246000Y-70171000D01*
X95246000Y-69329500D01*
X94974483Y-69329500D01*
X94870681Y-69340105D01*
X94870678Y-69340106D01*
X94702468Y-69395844D01*
X94695822Y-69398944D01*
X94694509Y-69396129D01*
X94639476Y-69411160D01*
X94571748Y-69389868D01*
X94526282Y-69335339D01*
X94522036Y-69324119D01*
X94482044Y-69201036D01*
X94482041Y-69201030D01*
X94383569Y-69007768D01*
X94256079Y-68832291D01*
X94102708Y-68678920D01*
X93927231Y-68551430D01*
X93733969Y-68452958D01*
X93733963Y-68452955D01*
X93527685Y-68385932D01*
X93527689Y-68385932D01*
X93313448Y-68352000D01*
X93234000Y-68352000D01*
X93234000Y-69189600D01*
X93209661Y-69175548D01*
X93058333Y-69135000D01*
X92901667Y-69135000D01*
X92750339Y-69175548D01*
X92726000Y-69189600D01*
X92726000Y-68352000D01*
X92646552Y-68352000D01*
X92432312Y-68385932D01*
X92271435Y-68438204D01*
X92200467Y-68440231D01*
X92139669Y-68403569D01*
X92108344Y-68339856D01*
X92116438Y-68269322D01*
X92143399Y-68229281D01*
X92989165Y-67383516D01*
X93053063Y-67287885D01*
X93072174Y-67259284D01*
X93121915Y-67139199D01*
X93129351Y-67121247D01*
X93158500Y-66974705D01*
X93158500Y-66825295D01*
X93158500Y-59025294D01*
X93134277Y-58903516D01*
X93129351Y-58878753D01*
X93103952Y-58817435D01*
X93088160Y-58779309D01*
X93088148Y-58779282D01*
X93072174Y-58740716D01*
X92989165Y-58616484D01*
X92883516Y-58510835D01*
X92420125Y-58047444D01*
X92389387Y-57997285D01*
X92382921Y-57977386D01*
X92334527Y-57828444D01*
X92239040Y-57663056D01*
X92239038Y-57663054D01*
X92239034Y-57663048D01*
X92111255Y-57521135D01*
X91956752Y-57408882D01*
X91782288Y-57331206D01*
X91595487Y-57291500D01*
X91404513Y-57291500D01*
X91217711Y-57331206D01*
X91043247Y-57408882D01*
X90888744Y-57521135D01*
X90760965Y-57663048D01*
X90760958Y-57663058D01*
X90665476Y-57828438D01*
X90665473Y-57828445D01*
X90606457Y-58010072D01*
X90586496Y-58200000D01*
X90606457Y-58389927D01*
X90607157Y-58392080D01*
X90665473Y-58571556D01*
X90665476Y-58571561D01*
X90760958Y-58736941D01*
X90760965Y-58736951D01*
X90888744Y-58878864D01*
X90888747Y-58878866D01*
X91043248Y-58991118D01*
X91217712Y-59068794D01*
X91280769Y-59082197D01*
X91343243Y-59115925D01*
X91343668Y-59116349D01*
X91604595Y-59377276D01*
X91638621Y-59439588D01*
X91641500Y-59466371D01*
X91641500Y-66533629D01*
X91621498Y-66601750D01*
X91604595Y-66622724D01*
X90010838Y-68216480D01*
X90010833Y-68216486D01*
X89927826Y-68340716D01*
X89881334Y-68452958D01*
X89870649Y-68478753D01*
X89859710Y-68533747D01*
X89859710Y-68533748D01*
X89841500Y-68625290D01*
X89841500Y-75033628D01*
X89821498Y-75101749D01*
X89804595Y-75122723D01*
X89306072Y-75621246D01*
X88843667Y-76083651D01*
X88781355Y-76117676D01*
X88780772Y-76117801D01*
X88717712Y-76131206D01*
X88543249Y-76208881D01*
X88543248Y-76208882D01*
X88388744Y-76321135D01*
X88260965Y-76463048D01*
X88260958Y-76463058D01*
X88192221Y-76582115D01*
X88165473Y-76628444D01*
X88150999Y-76672986D01*
X88106457Y-76810072D01*
X88086496Y-77000000D01*
X88106457Y-77189927D01*
X88119870Y-77231206D01*
X88165473Y-77371556D01*
X88165476Y-77371561D01*
X88260958Y-77536941D01*
X88260965Y-77536951D01*
X88388744Y-77678864D01*
X88388747Y-77678866D01*
X88543248Y-77791118D01*
X88717712Y-77868794D01*
X88904513Y-77908500D01*
X89095487Y-77908500D01*
X89282288Y-77868794D01*
X89456752Y-77791118D01*
X89611253Y-77678866D01*
X89715536Y-77563048D01*
X89739034Y-77536951D01*
X89739035Y-77536949D01*
X89739040Y-77536944D01*
X89834527Y-77371556D01*
X89889388Y-77202711D01*
X89920122Y-77152557D01*
X91189166Y-75883515D01*
X91272174Y-75759284D01*
X91329351Y-75621246D01*
X91348791Y-75523516D01*
X91358500Y-75474706D01*
X91358500Y-73490373D01*
X91378502Y-73422252D01*
X91432158Y-73375759D01*
X91502432Y-73365655D01*
X91567012Y-73395149D01*
X91573595Y-73401278D01*
X91661341Y-73489024D01*
X91661347Y-73489029D01*
X91661348Y-73489030D01*
X91812262Y-73582115D01*
X91980574Y-73637887D01*
X92084455Y-73648500D01*
X93875544Y-73648499D01*
X93979426Y-73637887D01*
X94147738Y-73582115D01*
X94298652Y-73489030D01*
X94362156Y-73425525D01*
X94424466Y-73391502D01*
X94495282Y-73396566D01*
X94540345Y-73425527D01*
X94551348Y-73436530D01*
X94702262Y-73529615D01*
X94870574Y-73585387D01*
X94974455Y-73596000D01*
X96025544Y-73595999D01*
X96129426Y-73585387D01*
X96297738Y-73529615D01*
X96448652Y-73436530D01*
X96574030Y-73311152D01*
X96574033Y-73311145D01*
X96577826Y-73306351D01*
X96635766Y-73265322D01*
X96676663Y-73258500D01*
X97486139Y-73258500D01*
X97554260Y-73278502D01*
X97600753Y-73332158D01*
X97610857Y-73402432D01*
X97609718Y-73409081D01*
X97591500Y-73500665D01*
X97591500Y-83619653D01*
X97571498Y-83687774D01*
X97517842Y-83734267D01*
X97447568Y-83744371D01*
X97382988Y-83714877D01*
X97376405Y-83708748D01*
X96202144Y-82534487D01*
X96202141Y-82534485D01*
X96202139Y-82534483D01*
X96085035Y-82449402D01*
X96060983Y-82431927D01*
X96015753Y-82408881D01*
X95905517Y-82352712D01*
X95905514Y-82352711D01*
X95905512Y-82352710D01*
X95739577Y-82298796D01*
X95739574Y-82298795D01*
X95567241Y-82271500D01*
X95567238Y-82271500D01*
X87954665Y-82271500D01*
X87886544Y-82251498D01*
X87840051Y-82197842D01*
X87829947Y-82127568D01*
X87859441Y-82062988D01*
X87865570Y-82056405D01*
X87973629Y-81948345D01*
X87973634Y-81948339D01*
X88066657Y-81797525D01*
X88122393Y-81629321D01*
X88122394Y-81629318D01*
X88132999Y-81525516D01*
X88133000Y-81525516D01*
X88133000Y-81254000D01*
X86909500Y-81254000D01*
X86841379Y-81233998D01*
X86794886Y-81180342D01*
X86783500Y-81128000D01*
X86783500Y-80746000D01*
X87291500Y-80746000D01*
X88133000Y-80746000D01*
X88133000Y-80474483D01*
X88122394Y-80370681D01*
X88122393Y-80370678D01*
X88066657Y-80202474D01*
X87973634Y-80051660D01*
X87973629Y-80051654D01*
X87848345Y-79926370D01*
X87848339Y-79926365D01*
X87697525Y-79833342D01*
X87529321Y-79777606D01*
X87529318Y-79777605D01*
X87425516Y-79767000D01*
X87291500Y-79767000D01*
X87291500Y-80746000D01*
X86783500Y-80746000D01*
X86783500Y-79767000D01*
X86649483Y-79767000D01*
X86545681Y-79777605D01*
X86545678Y-79777606D01*
X86377474Y-79833342D01*
X86226660Y-79926365D01*
X86226654Y-79926370D01*
X86101370Y-80051654D01*
X86099157Y-80054454D01*
X86097149Y-80055875D01*
X86096175Y-80056850D01*
X86096008Y-80056683D01*
X86041216Y-80095482D01*
X85970291Y-80098672D01*
X85908900Y-80063011D01*
X85901483Y-80054450D01*
X85899028Y-80051345D01*
X85773658Y-79925975D01*
X85773652Y-79925970D01*
X85745329Y-79908500D01*
X85622738Y-79832885D01*
X85538582Y-79804999D01*
X85454427Y-79777113D01*
X85454420Y-79777112D01*
X85350553Y-79766500D01*
X84574455Y-79766500D01*
X84470574Y-79777112D01*
X84302261Y-79832885D01*
X84151347Y-79925970D01*
X84151341Y-79925975D01*
X84025975Y-80051341D01*
X84025970Y-80051347D01*
X83946060Y-80180902D01*
X83893274Y-80228380D01*
X83823199Y-80239783D01*
X83758083Y-80211490D01*
X83733336Y-80183670D01*
X83663078Y-80076132D01*
X83024157Y-80715051D01*
X83005925Y-80647007D01*
X82940099Y-80532993D01*
X82847007Y-80439901D01*
X82732993Y-80374075D01*
X82664947Y-80355841D01*
X83305688Y-79715100D01*
X83305687Y-79715099D01*
X83285308Y-79699237D01*
X83285298Y-79699231D01*
X83087371Y-79592117D01*
X83087369Y-79592116D01*
X82874516Y-79519044D01*
X82874509Y-79519042D01*
X82652523Y-79482000D01*
X82427477Y-79482000D01*
X82205490Y-79519042D01*
X82205483Y-79519044D01*
X81992630Y-79592116D01*
X81992628Y-79592118D01*
X81794700Y-79699230D01*
X81794693Y-79699235D01*
X81774311Y-79715099D01*
X81774310Y-79715100D01*
X82415052Y-80355842D01*
X82347007Y-80374075D01*
X82232993Y-80439901D01*
X82139901Y-80532993D01*
X82074075Y-80647007D01*
X82055842Y-80715052D01*
X81416921Y-80076131D01*
X81416919Y-80076132D01*
X81375781Y-80139100D01*
X81321777Y-80185189D01*
X81251430Y-80194764D01*
X81187072Y-80164787D01*
X81164817Y-80139102D01*
X81111591Y-80057633D01*
X81075724Y-80002734D01*
X81075719Y-80002728D01*
X80991799Y-79911567D01*
X80960378Y-79847902D01*
X80958500Y-79826229D01*
X80958500Y-77536999D01*
X80975380Y-77474000D01*
X81034527Y-77371556D01*
X81093542Y-77189928D01*
X81113504Y-77000000D01*
X81093542Y-76810072D01*
X81034527Y-76628444D01*
X80939040Y-76463056D01*
X80939038Y-76463054D01*
X80939034Y-76463048D01*
X80811255Y-76321135D01*
X80656752Y-76208882D01*
X80482288Y-76131206D01*
X80295487Y-76091500D01*
X80104513Y-76091500D01*
X79917711Y-76131206D01*
X79743247Y-76208882D01*
X79588744Y-76321135D01*
X79460965Y-76463048D01*
X79460958Y-76463058D01*
X79392221Y-76582115D01*
X79365473Y-76628444D01*
X79350999Y-76672986D01*
X79306457Y-76810072D01*
X79286496Y-77000000D01*
X79306457Y-77189927D01*
X79319870Y-77231206D01*
X79365473Y-77371556D01*
X79424619Y-77474000D01*
X79441500Y-77536999D01*
X79441500Y-79522490D01*
X79421498Y-79590611D01*
X79375470Y-79633303D01*
X79254430Y-79698807D01*
X79254424Y-79698811D01*
X79076762Y-79837091D01*
X78924279Y-80002729D01*
X78924275Y-80002734D01*
X78801141Y-80191206D01*
X78710703Y-80397386D01*
X78710702Y-80397387D01*
X78655437Y-80615624D01*
X78655436Y-80615630D01*
X78655436Y-80615632D01*
X78636844Y-80840000D01*
X78654862Y-81057444D01*
X78655437Y-81064375D01*
X78710702Y-81282612D01*
X78710703Y-81282613D01*
X78710704Y-81282616D01*
X78798755Y-81483353D01*
X78801141Y-81488793D01*
X78924275Y-81677265D01*
X78924279Y-81677270D01*
X79076762Y-81842908D01*
X79131331Y-81885381D01*
X79254424Y-81981189D01*
X79287155Y-81998902D01*
X79287680Y-81999186D01*
X79338071Y-82049200D01*
X79353423Y-82118516D01*
X79328862Y-82185129D01*
X79287680Y-82220813D01*
X79254426Y-82238810D01*
X79254424Y-82238811D01*
X79076762Y-82377091D01*
X78924277Y-82542733D01*
X78910110Y-82564417D01*
X78856105Y-82610505D01*
X78804628Y-82621500D01*
X78319651Y-82621500D01*
X78251530Y-82601498D01*
X78205037Y-82547842D01*
X78194341Y-82482330D01*
X78202060Y-82408881D01*
X78213504Y-82300000D01*
X78193542Y-82110072D01*
X78134527Y-81928444D01*
X78075381Y-81825999D01*
X78058500Y-81762999D01*
X78058500Y-78836999D01*
X78075380Y-78774000D01*
X78134527Y-78671556D01*
X78193542Y-78489928D01*
X78213504Y-78300000D01*
X78193542Y-78110072D01*
X78134527Y-77928444D01*
X78039040Y-77763056D01*
X78039038Y-77763054D01*
X78039034Y-77763048D01*
X77911255Y-77621135D01*
X77756752Y-77508882D01*
X77582288Y-77431206D01*
X77395487Y-77391500D01*
X77204513Y-77391500D01*
X77017711Y-77431206D01*
X76843247Y-77508882D01*
X76688744Y-77621135D01*
X76560965Y-77763048D01*
X76560958Y-77763058D01*
X76465476Y-77928438D01*
X76465473Y-77928444D01*
X76450999Y-77972986D01*
X76406457Y-78110072D01*
X76386496Y-78300000D01*
X76406457Y-78489927D01*
X76422960Y-78540716D01*
X76465178Y-78670649D01*
X76465474Y-78671558D01*
X76469628Y-78678753D01*
X76524619Y-78774000D01*
X76541500Y-78836999D01*
X76541500Y-81762999D01*
X76524619Y-81825999D01*
X76465476Y-81928438D01*
X76465473Y-81928445D01*
X76406457Y-82110072D01*
X76386496Y-82300000D01*
X76405659Y-82482330D01*
X76392887Y-82552168D01*
X76344384Y-82604015D01*
X76280349Y-82621500D01*
X74045288Y-82621500D01*
X73972024Y-82636073D01*
X73972024Y-82636074D01*
X73898753Y-82650649D01*
X73898751Y-82650649D01*
X73898750Y-82650650D01*
X73898749Y-82650650D01*
X73760715Y-82707826D01*
X73636489Y-82790831D01*
X73636482Y-82790836D01*
X73010838Y-83416480D01*
X73010833Y-83416486D01*
X72955396Y-83499455D01*
X72927826Y-83540716D01*
X72883060Y-83648793D01*
X72873378Y-83672167D01*
X72873374Y-83672177D01*
X72870649Y-83678753D01*
X72870648Y-83678756D01*
X72858578Y-83739437D01*
X72825670Y-83802347D01*
X72763975Y-83837478D01*
X72693080Y-83833678D01*
X72635494Y-83792152D01*
X72609500Y-83726085D01*
X72608999Y-83714855D01*
X72608999Y-63129736D01*
X72629001Y-63061615D01*
X72641363Y-63045426D01*
X72739034Y-62936951D01*
X72739035Y-62936949D01*
X72739040Y-62936944D01*
X72834527Y-62771556D01*
X72893542Y-62589928D01*
X72913504Y-62400000D01*
X72893542Y-62210072D01*
X72834527Y-62028444D01*
X72739040Y-61863056D01*
X72739038Y-61863054D01*
X72739034Y-61863048D01*
X72611255Y-61721135D01*
X72456752Y-61608882D01*
X72282288Y-61531206D01*
X72095487Y-61491500D01*
X71904513Y-61491500D01*
X71717711Y-61531206D01*
X71543247Y-61608882D01*
X71388744Y-61721135D01*
X71260965Y-61863048D01*
X71260958Y-61863058D01*
X71165476Y-62028438D01*
X71165473Y-62028445D01*
X71106457Y-62210072D01*
X71086496Y-62399999D01*
X71086496Y-62400000D01*
X71091558Y-62448168D01*
X71091799Y-62450461D01*
X71091859Y-62468609D01*
X71091999Y-62468609D01*
X71091999Y-67565500D01*
X71071997Y-67633621D01*
X71018341Y-67680114D01*
X70965999Y-67691500D01*
X70904513Y-67691500D01*
X70717711Y-67731206D01*
X70543247Y-67808882D01*
X70388744Y-67921135D01*
X70260965Y-68063048D01*
X70260958Y-68063058D01*
X70165476Y-68228438D01*
X70165473Y-68228444D01*
X70162435Y-68237794D01*
X70106457Y-68410072D01*
X70086496Y-68600000D01*
X65000000Y-68600000D01*
X65000000Y-54999993D01*
X66286911Y-54999993D01*
X66286911Y-55000006D01*
X66307250Y-55388114D01*
X66368051Y-55771995D01*
X66468644Y-56147414D01*
X66607919Y-56510239D01*
X66607923Y-56510247D01*
X66784365Y-56856535D01*
X66784369Y-56856541D01*
X66996049Y-57182501D01*
X67202877Y-57437911D01*
X67993460Y-56647328D01*
X68052944Y-56647328D01*
X68052944Y-56746784D01*
X68091004Y-56838670D01*
X68161330Y-56908996D01*
X68253216Y-56947056D01*
X68352672Y-56947056D01*
X68444558Y-56908996D01*
X68514884Y-56838670D01*
X68552944Y-56746784D01*
X68552944Y-56647328D01*
X68514884Y-56555442D01*
X68444558Y-56485116D01*
X68352672Y-56447056D01*
X68253216Y-56447056D01*
X68161330Y-56485116D01*
X68091004Y-56555442D01*
X68052944Y-56647328D01*
X67993460Y-56647328D01*
X68703367Y-55937421D01*
X68779588Y-56042330D01*
X68957670Y-56220412D01*
X69062577Y-56296631D01*
X67562087Y-57797121D01*
X67817498Y-58003950D01*
X68143458Y-58215630D01*
X68143464Y-58215634D01*
X68489752Y-58392076D01*
X68489760Y-58392080D01*
X68852585Y-58531355D01*
X69228004Y-58631948D01*
X69611885Y-58692749D01*
X69999994Y-58713089D01*
X70000006Y-58713089D01*
X70388114Y-58692749D01*
X70771995Y-58631948D01*
X71147414Y-58531355D01*
X71510239Y-58392080D01*
X71510247Y-58392076D01*
X71856535Y-58215634D01*
X71856541Y-58215630D01*
X72182501Y-58003950D01*
X72437911Y-57797121D01*
X71288119Y-56647328D01*
X71447056Y-56647328D01*
X71447056Y-56746784D01*
X71485116Y-56838670D01*
X71555442Y-56908996D01*
X71647328Y-56947056D01*
X71746784Y-56947056D01*
X71838670Y-56908996D01*
X71908996Y-56838670D01*
X71947056Y-56746784D01*
X71947056Y-56647328D01*
X71908996Y-56555442D01*
X71838670Y-56485116D01*
X71746784Y-56447056D01*
X71647328Y-56447056D01*
X71555442Y-56485116D01*
X71485116Y-56555442D01*
X71447056Y-56647328D01*
X71288119Y-56647328D01*
X70937422Y-56296631D01*
X71042330Y-56220412D01*
X71220412Y-56042330D01*
X71296632Y-55937422D01*
X72797121Y-57437911D01*
X73003950Y-57182501D01*
X73215630Y-56856541D01*
X73215634Y-56856535D01*
X73392076Y-56510247D01*
X73392080Y-56510239D01*
X73531355Y-56147414D01*
X73631948Y-55771995D01*
X73692749Y-55388114D01*
X73713089Y-55000006D01*
X73713089Y-54999993D01*
X73692749Y-54611885D01*
X73631948Y-54228004D01*
X73531355Y-53852585D01*
X73392080Y-53489760D01*
X73392076Y-53489752D01*
X73215628Y-53143455D01*
X73003957Y-52817508D01*
X73003952Y-52817501D01*
X72797121Y-52562087D01*
X71296631Y-54062577D01*
X71220412Y-53957670D01*
X71042330Y-53779588D01*
X70937421Y-53703367D01*
X71387572Y-53253216D01*
X71447056Y-53253216D01*
X71447056Y-53352672D01*
X71485116Y-53444558D01*
X71555442Y-53514884D01*
X71647328Y-53552944D01*
X71746784Y-53552944D01*
X71838670Y-53514884D01*
X71908996Y-53444558D01*
X71947056Y-53352672D01*
X71947056Y-53253216D01*
X71908996Y-53161330D01*
X71838670Y-53091004D01*
X71746784Y-53052944D01*
X71647328Y-53052944D01*
X71555442Y-53091004D01*
X71485116Y-53161330D01*
X71447056Y-53253216D01*
X71387572Y-53253216D01*
X72240788Y-52400000D01*
X75486496Y-52400000D01*
X75506457Y-52589927D01*
X75525888Y-52649728D01*
X75565473Y-52771556D01*
X75624619Y-52874000D01*
X75641500Y-52936999D01*
X75641500Y-62074707D01*
X75670649Y-62221247D01*
X75670651Y-62221252D01*
X75674275Y-62230000D01*
X75727826Y-62359284D01*
X75810834Y-62483515D01*
X77310834Y-63983515D01*
X77310835Y-63983516D01*
X77416484Y-64089165D01*
X77540716Y-64172174D01*
X77621576Y-64205667D01*
X77678753Y-64229351D01*
X77752022Y-64243924D01*
X77752023Y-64243925D01*
X77766598Y-64246824D01*
X77825294Y-64258500D01*
X77825295Y-64258500D01*
X77974705Y-64258500D01*
X78552128Y-64258500D01*
X78620249Y-64278502D01*
X78657610Y-64315583D01*
X78671778Y-64337268D01*
X78803240Y-64480072D01*
X78824262Y-64502908D01*
X78857063Y-64528438D01*
X79001924Y-64641189D01*
X79035180Y-64659186D01*
X79085571Y-64709200D01*
X79100923Y-64778516D01*
X79076362Y-64845129D01*
X79035180Y-64880813D01*
X79001926Y-64898810D01*
X79001924Y-64898811D01*
X78824262Y-65037091D01*
X78794265Y-65069676D01*
X78775623Y-65089928D01*
X78774785Y-65090838D01*
X78713931Y-65127409D01*
X78682084Y-65131500D01*
X78070518Y-65131500D01*
X77894999Y-65166413D01*
X77894994Y-65166415D01*
X77729664Y-65234897D01*
X77580865Y-65334321D01*
X77580859Y-65334326D01*
X76194326Y-66720859D01*
X76194324Y-66720862D01*
X76194322Y-66720865D01*
X76094897Y-66869664D01*
X76042814Y-66995405D01*
X76036874Y-67009745D01*
X76026415Y-67034993D01*
X76026414Y-67034996D01*
X76026413Y-67035000D01*
X76011793Y-67108500D01*
X75991500Y-67210518D01*
X75991500Y-72745784D01*
X75990810Y-72758954D01*
X75986496Y-72799999D01*
X75990810Y-72841045D01*
X75991500Y-72854215D01*
X75991500Y-72889483D01*
X75999702Y-72930715D01*
X76001432Y-72942122D01*
X76006457Y-72989925D01*
X76006459Y-72989933D01*
X76017111Y-73022716D01*
X76020856Y-73037067D01*
X76026412Y-73064995D01*
X76026413Y-73065000D01*
X76045100Y-73110114D01*
X76048523Y-73119393D01*
X76065473Y-73171557D01*
X76079311Y-73195524D01*
X76086601Y-73210307D01*
X76094895Y-73230331D01*
X76094897Y-73230335D01*
X76094898Y-73230336D01*
X76125790Y-73276570D01*
X76125798Y-73276581D01*
X76130152Y-73283583D01*
X76160958Y-73336942D01*
X76160960Y-73336944D01*
X76174930Y-73352459D01*
X76186055Y-73366762D01*
X76194322Y-73379135D01*
X76238460Y-73423273D01*
X76242984Y-73428041D01*
X76288744Y-73478864D01*
X76288747Y-73478866D01*
X76300117Y-73487127D01*
X76300126Y-73487133D01*
X76315161Y-73499974D01*
X76320865Y-73505678D01*
X76378366Y-73544098D01*
X76382420Y-73546923D01*
X76443248Y-73591118D01*
X76449880Y-73594071D01*
X76468626Y-73604409D01*
X76469662Y-73605101D01*
X76469663Y-73605101D01*
X76469664Y-73605102D01*
X76539862Y-73634178D01*
X76542847Y-73635461D01*
X76617712Y-73668794D01*
X76618113Y-73668879D01*
X76628936Y-73672242D01*
X76629074Y-73671789D01*
X76635003Y-73673588D01*
X76665271Y-73679608D01*
X76716244Y-73689746D01*
X76717607Y-73690027D01*
X76804513Y-73708500D01*
X76804515Y-73708500D01*
X76995486Y-73708500D01*
X76995487Y-73708500D01*
X77082391Y-73690026D01*
X77083753Y-73689746D01*
X77165000Y-73673587D01*
X77165008Y-73673583D01*
X77170931Y-73671787D01*
X77171070Y-73672246D01*
X77181886Y-73668879D01*
X77182288Y-73668794D01*
X77257206Y-73635437D01*
X77260107Y-73634190D01*
X77330336Y-73605102D01*
X77331374Y-73604408D01*
X77350122Y-73594069D01*
X77356752Y-73591118D01*
X77417596Y-73546910D01*
X77421633Y-73544098D01*
X77479135Y-73505678D01*
X77484840Y-73499971D01*
X77499868Y-73487136D01*
X77511253Y-73478866D01*
X77557053Y-73427998D01*
X77561520Y-73423291D01*
X77605678Y-73379135D01*
X77613942Y-73366764D01*
X77625069Y-73352459D01*
X77639040Y-73336944D01*
X77669859Y-73283562D01*
X77674185Y-73276604D01*
X77705102Y-73230336D01*
X77713398Y-73210304D01*
X77720691Y-73195519D01*
X77734523Y-73171563D01*
X77734523Y-73171562D01*
X77734527Y-73171556D01*
X77751481Y-73119373D01*
X77754885Y-73110148D01*
X77773587Y-73065000D01*
X77779143Y-73037063D01*
X77782886Y-73022720D01*
X77793542Y-72989928D01*
X77798565Y-72942128D01*
X77800296Y-72930720D01*
X77800297Y-72930715D01*
X77808500Y-72889479D01*
X77808500Y-72854215D01*
X77809190Y-72841045D01*
X77813504Y-72800000D01*
X77809190Y-72758954D01*
X77808500Y-72745784D01*
X77808500Y-67728503D01*
X77828502Y-67660382D01*
X77845405Y-67639408D01*
X78499408Y-66985405D01*
X78561720Y-66951379D01*
X78588503Y-66948500D01*
X78682084Y-66948500D01*
X78750205Y-66968502D01*
X78774782Y-66989160D01*
X78824260Y-67042906D01*
X78824263Y-67042908D01*
X78824266Y-67042911D01*
X78859062Y-67069995D01*
X78900533Y-67127620D01*
X78904266Y-67198518D01*
X78869076Y-67260180D01*
X78830739Y-67283336D01*
X78831414Y-67284783D01*
X78824766Y-67287883D01*
X78824763Y-67287884D01*
X78824762Y-67287885D01*
X78788908Y-67310000D01*
X78673847Y-67380970D01*
X78673841Y-67380975D01*
X78548475Y-67506341D01*
X78548470Y-67506347D01*
X78455385Y-67657262D01*
X78399613Y-67825572D01*
X78399612Y-67825579D01*
X78389000Y-67929446D01*
X78389000Y-69230544D01*
X78399612Y-69334425D01*
X78455385Y-69502738D01*
X78548470Y-69653652D01*
X78548475Y-69653658D01*
X78673841Y-69779024D01*
X78673847Y-69779029D01*
X78673848Y-69779030D01*
X78824762Y-69872115D01*
X78993074Y-69927887D01*
X79096955Y-69938500D01*
X80398044Y-69938499D01*
X80501926Y-69927887D01*
X80670238Y-69872115D01*
X80821152Y-69779030D01*
X80946530Y-69653652D01*
X81039615Y-69502738D01*
X81062798Y-69432774D01*
X81103211Y-69374404D01*
X81155712Y-69352575D01*
X81803341Y-68704946D01*
X81821575Y-68772993D01*
X81887401Y-68887007D01*
X81980493Y-68980099D01*
X82094507Y-69045925D01*
X82162551Y-69064157D01*
X81521810Y-69704898D01*
X81542197Y-69720766D01*
X81542201Y-69720768D01*
X81740128Y-69827882D01*
X81740130Y-69827883D01*
X81952983Y-69900955D01*
X81952990Y-69900957D01*
X82174977Y-69938000D01*
X82400023Y-69938000D01*
X82622009Y-69900957D01*
X82622016Y-69900955D01*
X82834869Y-69827883D01*
X82834871Y-69827881D01*
X83032798Y-69720769D01*
X83053188Y-69704898D01*
X82412447Y-69064157D01*
X82480493Y-69045925D01*
X82594507Y-68980099D01*
X82687599Y-68887007D01*
X82753425Y-68772993D01*
X82771658Y-68704947D01*
X83410577Y-69343866D01*
X83485919Y-69228548D01*
X83576320Y-69022456D01*
X83576323Y-69022449D01*
X83631567Y-68804292D01*
X83650153Y-68580000D01*
X83631567Y-68355707D01*
X83576323Y-68137550D01*
X83576320Y-68137543D01*
X83485919Y-67931451D01*
X83410577Y-67816132D01*
X82771657Y-68455051D01*
X82753425Y-68387007D01*
X82687599Y-68272993D01*
X82594507Y-68179901D01*
X82480493Y-68114075D01*
X82412447Y-68095841D01*
X83053188Y-67455100D01*
X83053187Y-67455099D01*
X83032808Y-67439237D01*
X83032798Y-67439231D01*
X82999291Y-67421097D01*
X82948901Y-67371083D01*
X82933550Y-67301766D01*
X82958112Y-67235153D01*
X82999290Y-67199472D01*
X83033076Y-67181189D01*
X83210740Y-67042906D01*
X83363222Y-66877268D01*
X83486360Y-66688791D01*
X83576796Y-66482616D01*
X83632064Y-66264368D01*
X83636178Y-66214710D01*
X83661735Y-66148478D01*
X83719046Y-66106574D01*
X83789914Y-66102307D01*
X83850842Y-66136023D01*
X86304595Y-68589776D01*
X86338621Y-68652088D01*
X86341500Y-68678871D01*
X86341500Y-75062999D01*
X86324619Y-75125999D01*
X86265476Y-75228438D01*
X86265473Y-75228445D01*
X86206457Y-75410072D01*
X86186496Y-75600000D01*
X86206457Y-75789927D01*
X86224543Y-75845588D01*
X86265473Y-75971556D01*
X86265476Y-75971561D01*
X86360958Y-76136941D01*
X86360965Y-76136951D01*
X86488744Y-76278864D01*
X86546924Y-76321134D01*
X86643248Y-76391118D01*
X86817712Y-76468794D01*
X87004513Y-76508500D01*
X87195487Y-76508500D01*
X87382288Y-76468794D01*
X87556752Y-76391118D01*
X87711253Y-76278866D01*
X87711583Y-76278500D01*
X87839034Y-76136951D01*
X87839035Y-76136949D01*
X87839040Y-76136944D01*
X87934527Y-75971556D01*
X87993542Y-75789928D01*
X88013504Y-75600000D01*
X87993542Y-75410072D01*
X87934527Y-75228444D01*
X87875381Y-75125999D01*
X87858500Y-75062999D01*
X87858500Y-68237793D01*
X87858499Y-68237790D01*
X87854662Y-68218500D01*
X87829351Y-68091254D01*
X87772174Y-67953216D01*
X87756298Y-67929456D01*
X87689166Y-67828985D01*
X87689162Y-67828981D01*
X87689159Y-67828977D01*
X83717170Y-63856989D01*
X83683144Y-63794677D01*
X83688209Y-63723862D01*
X83730756Y-63667026D01*
X83797276Y-63642215D01*
X83845891Y-63648288D01*
X83995574Y-63697887D01*
X84099455Y-63708500D01*
X84900544Y-63708499D01*
X85004426Y-63697887D01*
X85172738Y-63642115D01*
X85323652Y-63549030D01*
X85364182Y-63508500D01*
X85410905Y-63461778D01*
X85473217Y-63427752D01*
X85544032Y-63432817D01*
X85589095Y-63461778D01*
X85676341Y-63549024D01*
X85676347Y-63549029D01*
X85676348Y-63549030D01*
X85827262Y-63642115D01*
X85995574Y-63697887D01*
X86099455Y-63708500D01*
X86900544Y-63708499D01*
X87004426Y-63697887D01*
X87172738Y-63642115D01*
X87323652Y-63549030D01*
X87449030Y-63423652D01*
X87452298Y-63418352D01*
X87505084Y-63370875D01*
X87559539Y-63358500D01*
X88325294Y-63358500D01*
X89057413Y-63358500D01*
X89125534Y-63378502D01*
X89131471Y-63382562D01*
X89143248Y-63391118D01*
X89317712Y-63468794D01*
X89504513Y-63508500D01*
X89695487Y-63508500D01*
X89882288Y-63468794D01*
X90056752Y-63391118D01*
X90211253Y-63278866D01*
X90339040Y-63136944D01*
X90434527Y-62971556D01*
X90493542Y-62789928D01*
X90513504Y-62600000D01*
X90493542Y-62410072D01*
X90434527Y-62228444D01*
X90339040Y-62063056D01*
X90339038Y-62063054D01*
X90339034Y-62063048D01*
X90211255Y-61921135D01*
X90056752Y-61808882D01*
X89882288Y-61731206D01*
X89695487Y-61691500D01*
X89504513Y-61691500D01*
X89317711Y-61731206D01*
X89143245Y-61808883D01*
X89131476Y-61817435D01*
X89064609Y-61841294D01*
X89057413Y-61841500D01*
X87670955Y-61841500D01*
X87602834Y-61821498D01*
X87556341Y-61767842D01*
X87551351Y-61755133D01*
X87542116Y-61727265D01*
X87542115Y-61727264D01*
X87542115Y-61727262D01*
X87461772Y-61597007D01*
X87443036Y-61528528D01*
X87464295Y-61460790D01*
X87470178Y-61452711D01*
X87473633Y-61448341D01*
X87566657Y-61297525D01*
X87622393Y-61129321D01*
X87622394Y-61129318D01*
X87632999Y-61025516D01*
X87633000Y-61025516D01*
X87633000Y-60754000D01*
X86409500Y-60754000D01*
X86341379Y-60733998D01*
X86294886Y-60680342D01*
X86283500Y-60628000D01*
X86283500Y-60246000D01*
X86791500Y-60246000D01*
X87633000Y-60246000D01*
X87633000Y-59974483D01*
X87622394Y-59870681D01*
X87622393Y-59870678D01*
X87566657Y-59702474D01*
X87473634Y-59551660D01*
X87473629Y-59551654D01*
X87348345Y-59426370D01*
X87348339Y-59426365D01*
X87197525Y-59333342D01*
X87029321Y-59277606D01*
X87029318Y-59277605D01*
X86925516Y-59267000D01*
X86791500Y-59267000D01*
X86791500Y-60246000D01*
X86283500Y-60246000D01*
X86283500Y-59267000D01*
X86149483Y-59267000D01*
X86045681Y-59277605D01*
X86045678Y-59277606D01*
X85877474Y-59333342D01*
X85726660Y-59426365D01*
X85726654Y-59426370D01*
X85601370Y-59551654D01*
X85599157Y-59554454D01*
X85597149Y-59555875D01*
X85596175Y-59556850D01*
X85596008Y-59556683D01*
X85541216Y-59595482D01*
X85470291Y-59598672D01*
X85408900Y-59563011D01*
X85401483Y-59554450D01*
X85399028Y-59551345D01*
X85273658Y-59425975D01*
X85273652Y-59425970D01*
X85247877Y-59410072D01*
X85122738Y-59332885D01*
X85038582Y-59304999D01*
X84954427Y-59277113D01*
X84954420Y-59277112D01*
X84850553Y-59266500D01*
X84074455Y-59266500D01*
X83970574Y-59277112D01*
X83802261Y-59332885D01*
X83651347Y-59425970D01*
X83651341Y-59425975D01*
X83525975Y-59551341D01*
X83525970Y-59551347D01*
X83519898Y-59561192D01*
X83445701Y-59681485D01*
X83445601Y-59681647D01*
X83392815Y-59729125D01*
X83338360Y-59741500D01*
X83168437Y-59741500D01*
X83100316Y-59721498D01*
X83053823Y-59667842D01*
X83043719Y-59597568D01*
X83073213Y-59532988D01*
X83091042Y-59516071D01*
X83210740Y-59422906D01*
X83363222Y-59257268D01*
X83486360Y-59068791D01*
X83576796Y-58862616D01*
X83632064Y-58644368D01*
X83650656Y-58420000D01*
X83632064Y-58195632D01*
X83585074Y-58010072D01*
X83576797Y-57977387D01*
X83576796Y-57977386D01*
X83576796Y-57977384D01*
X83486360Y-57771209D01*
X83479640Y-57760924D01*
X83363224Y-57582734D01*
X83363220Y-57582729D01*
X83240782Y-57449728D01*
X83210740Y-57417094D01*
X83210739Y-57417093D01*
X83210737Y-57417091D01*
X83096219Y-57327958D01*
X83033076Y-57278811D01*
X82835074Y-57171658D01*
X82835072Y-57171657D01*
X82835071Y-57171656D01*
X82622139Y-57098557D01*
X82622130Y-57098555D01*
X82570424Y-57089927D01*
X82400069Y-57061500D01*
X82174931Y-57061500D01*
X82026711Y-57086233D01*
X81952869Y-57098555D01*
X81952860Y-57098557D01*
X81739928Y-57171656D01*
X81739926Y-57171658D01*
X81550761Y-57274029D01*
X81541926Y-57278810D01*
X81541924Y-57278811D01*
X81364262Y-57417091D01*
X81211779Y-57582729D01*
X81122983Y-57718643D01*
X81068979Y-57764731D01*
X80998631Y-57774306D01*
X80934274Y-57744329D01*
X80912017Y-57718643D01*
X80867170Y-57650000D01*
X80823222Y-57582732D01*
X80823221Y-57582731D01*
X80823220Y-57582729D01*
X80823214Y-57582722D01*
X80718414Y-57468881D01*
X80686992Y-57405217D01*
X80694978Y-57334671D01*
X80739837Y-57279641D01*
X80744957Y-57276308D01*
X80748652Y-57274030D01*
X80874030Y-57148652D01*
X80967115Y-56997738D01*
X81022887Y-56829426D01*
X81033500Y-56725545D01*
X81033499Y-55949456D01*
X81022887Y-55845574D01*
X80967115Y-55677262D01*
X80874030Y-55526348D01*
X80874029Y-55526347D01*
X80874024Y-55526341D01*
X80748657Y-55400974D01*
X80745547Y-55398515D01*
X80743967Y-55396284D01*
X80743463Y-55395780D01*
X80743549Y-55395693D01*
X80704518Y-55340575D01*
X80701326Y-55269650D01*
X80736986Y-55208259D01*
X80745558Y-55200832D01*
X80748350Y-55198624D01*
X80873629Y-55073345D01*
X80873634Y-55073339D01*
X80966657Y-54922525D01*
X81022393Y-54754321D01*
X81022394Y-54754318D01*
X81032999Y-54650516D01*
X81033000Y-54650516D01*
X81033000Y-54516500D01*
X78567000Y-54516500D01*
X78567000Y-54650516D01*
X78577605Y-54754318D01*
X78577606Y-54754321D01*
X78633342Y-54922525D01*
X78726365Y-55073339D01*
X78726370Y-55073345D01*
X78851657Y-55198632D01*
X78854446Y-55200837D01*
X78855863Y-55202838D01*
X78856850Y-55203825D01*
X78856681Y-55203993D01*
X78895479Y-55258775D01*
X78898674Y-55329700D01*
X78863017Y-55391093D01*
X78854457Y-55398511D01*
X78851345Y-55400971D01*
X78725975Y-55526341D01*
X78725970Y-55526347D01*
X78632885Y-55677262D01*
X78577113Y-55845572D01*
X78577112Y-55845579D01*
X78566500Y-55949446D01*
X78566500Y-56725544D01*
X78577112Y-56829425D01*
X78632885Y-56997738D01*
X78725970Y-57148652D01*
X78725975Y-57148658D01*
X78820329Y-57243012D01*
X78854355Y-57305324D01*
X78849290Y-57376139D01*
X78823935Y-57417445D01*
X78671780Y-57582728D01*
X78671775Y-57582734D01*
X78548641Y-57771206D01*
X78458203Y-57977386D01*
X78458202Y-57977387D01*
X78402937Y-58195624D01*
X78402936Y-58195630D01*
X78402936Y-58195632D01*
X78384344Y-58420000D01*
X78400625Y-58616484D01*
X78402937Y-58644375D01*
X78458202Y-58862612D01*
X78458203Y-58862613D01*
X78458204Y-58862616D01*
X78546125Y-59063058D01*
X78548641Y-59068793D01*
X78671775Y-59257265D01*
X78671779Y-59257270D01*
X78824262Y-59422908D01*
X78878831Y-59465381D01*
X79001924Y-59561189D01*
X79035180Y-59579186D01*
X79085571Y-59629200D01*
X79100923Y-59698516D01*
X79076362Y-59765129D01*
X79035180Y-59800813D01*
X79001926Y-59818810D01*
X79001924Y-59818811D01*
X78824262Y-59957091D01*
X78671779Y-60122729D01*
X78671775Y-60122734D01*
X78548641Y-60311206D01*
X78458203Y-60517386D01*
X78458202Y-60517387D01*
X78402937Y-60735624D01*
X78402936Y-60735630D01*
X78402936Y-60735632D01*
X78384344Y-60960000D01*
X78402348Y-61177276D01*
X78402937Y-61184375D01*
X78458202Y-61402612D01*
X78458203Y-61402613D01*
X78458204Y-61402616D01*
X78547281Y-61605692D01*
X78548641Y-61608793D01*
X78671775Y-61797265D01*
X78671779Y-61797270D01*
X78824262Y-61962908D01*
X78846891Y-61980521D01*
X79001924Y-62101189D01*
X79035180Y-62119186D01*
X79085571Y-62169200D01*
X79100923Y-62238516D01*
X79076362Y-62305129D01*
X79035180Y-62340813D01*
X79001926Y-62358810D01*
X79001924Y-62358811D01*
X78824262Y-62497091D01*
X78671777Y-62662733D01*
X78657610Y-62684417D01*
X78603605Y-62730505D01*
X78552128Y-62741500D01*
X78266371Y-62741500D01*
X78198250Y-62721498D01*
X78177276Y-62704595D01*
X77195405Y-61722724D01*
X77161379Y-61660412D01*
X77158500Y-61633629D01*
X77158500Y-54449500D01*
X106986496Y-54449500D01*
X107006457Y-54639427D01*
X107035817Y-54729784D01*
X107065473Y-54821056D01*
X107065476Y-54821061D01*
X107160958Y-54986441D01*
X107160965Y-54986451D01*
X107288744Y-55128364D01*
X107288747Y-55128366D01*
X107443248Y-55240618D01*
X107617712Y-55318294D01*
X107804513Y-55358000D01*
X107995487Y-55358000D01*
X108182288Y-55318294D01*
X108356752Y-55240618D01*
X108368524Y-55232064D01*
X108435391Y-55208206D01*
X108442587Y-55208000D01*
X109057413Y-55208000D01*
X109125534Y-55228002D01*
X109131471Y-55232062D01*
X109143248Y-55240618D01*
X109317712Y-55318294D01*
X109504513Y-55358000D01*
X109695487Y-55358000D01*
X109882288Y-55318294D01*
X110056752Y-55240618D01*
X110136656Y-55182564D01*
X110203524Y-55158706D01*
X110210717Y-55158500D01*
X118957413Y-55158500D01*
X119025534Y-55178502D01*
X119031471Y-55182562D01*
X119043248Y-55191118D01*
X119217712Y-55268794D01*
X119404513Y-55308500D01*
X119595487Y-55308500D01*
X119782288Y-55268794D01*
X119956752Y-55191118D01*
X120111253Y-55078866D01*
X120122140Y-55066775D01*
X120239034Y-54936951D01*
X120239035Y-54936949D01*
X120239040Y-54936944D01*
X120334527Y-54771556D01*
X120393542Y-54589928D01*
X120413504Y-54400000D01*
X120393542Y-54210072D01*
X120334527Y-54028444D01*
X120239040Y-53863056D01*
X120239038Y-53863054D01*
X120239034Y-53863048D01*
X120111255Y-53721135D01*
X119956752Y-53608882D01*
X119782288Y-53531206D01*
X119595487Y-53491500D01*
X119404513Y-53491500D01*
X119217711Y-53531206D01*
X119043245Y-53608883D01*
X119031476Y-53617435D01*
X118964609Y-53641294D01*
X118957413Y-53641500D01*
X110045617Y-53641500D01*
X109994368Y-53630607D01*
X109882288Y-53580706D01*
X109695487Y-53541000D01*
X109504513Y-53541000D01*
X109317711Y-53580706D01*
X109143245Y-53658383D01*
X109131476Y-53666935D01*
X109064609Y-53690794D01*
X109057413Y-53691000D01*
X108442587Y-53691000D01*
X108374466Y-53670998D01*
X108368524Y-53666935D01*
X108356754Y-53658383D01*
X108318371Y-53641294D01*
X108182288Y-53580706D01*
X107995487Y-53541000D01*
X107804513Y-53541000D01*
X107617711Y-53580706D01*
X107443247Y-53658382D01*
X107288744Y-53770635D01*
X107160965Y-53912548D01*
X107160958Y-53912558D01*
X107069162Y-54071554D01*
X107065473Y-54077944D01*
X107050999Y-54122486D01*
X107006457Y-54259572D01*
X106986496Y-54449500D01*
X77158500Y-54449500D01*
X77158500Y-53874483D01*
X78567000Y-53874483D01*
X78567000Y-54008500D01*
X79546000Y-54008500D01*
X80054000Y-54008500D01*
X81033000Y-54008500D01*
X81033000Y-53874483D01*
X81022394Y-53770681D01*
X81022393Y-53770678D01*
X80966657Y-53602474D01*
X80873634Y-53451660D01*
X80873629Y-53451654D01*
X80748345Y-53326370D01*
X80748339Y-53326365D01*
X80597525Y-53233342D01*
X80429321Y-53177606D01*
X80429318Y-53177605D01*
X80325516Y-53167000D01*
X80054000Y-53167000D01*
X80054000Y-54008500D01*
X79546000Y-54008500D01*
X79546000Y-53167000D01*
X79274483Y-53167000D01*
X79170681Y-53177605D01*
X79170678Y-53177606D01*
X79002474Y-53233342D01*
X78851660Y-53326365D01*
X78851654Y-53326370D01*
X78726370Y-53451654D01*
X78726365Y-53451660D01*
X78633342Y-53602474D01*
X78577606Y-53770678D01*
X78577605Y-53770681D01*
X78567000Y-53874483D01*
X77158500Y-53874483D01*
X77158500Y-52936999D01*
X77175380Y-52874000D01*
X77234527Y-52771556D01*
X77293542Y-52589928D01*
X77313504Y-52400000D01*
X77293542Y-52210072D01*
X77234527Y-52028444D01*
X77139040Y-51863056D01*
X77139038Y-51863054D01*
X77139034Y-51863048D01*
X77011255Y-51721135D01*
X76856752Y-51608882D01*
X76682288Y-51531206D01*
X76495487Y-51491500D01*
X76304513Y-51491500D01*
X76117711Y-51531206D01*
X75943247Y-51608882D01*
X75788744Y-51721135D01*
X75660965Y-51863048D01*
X75660958Y-51863058D01*
X75565476Y-52028438D01*
X75565473Y-52028445D01*
X75506457Y-52210072D01*
X75486496Y-52400000D01*
X72240788Y-52400000D01*
X72437911Y-52202877D01*
X72182501Y-51996049D01*
X71856541Y-51784369D01*
X71856535Y-51784365D01*
X71510247Y-51607923D01*
X71510239Y-51607919D01*
X71147414Y-51468644D01*
X70771995Y-51368051D01*
X70388114Y-51307250D01*
X70000006Y-51286911D01*
X69999994Y-51286911D01*
X69611885Y-51307250D01*
X69228004Y-51368051D01*
X68852585Y-51468644D01*
X68489760Y-51607919D01*
X68489752Y-51607923D01*
X68143455Y-51784371D01*
X67817508Y-51996042D01*
X67817491Y-51996054D01*
X67562088Y-52202876D01*
X67562087Y-52202877D01*
X69062577Y-53703367D01*
X68957670Y-53779588D01*
X68779588Y-53957670D01*
X68703367Y-54062577D01*
X67894006Y-53253216D01*
X68052944Y-53253216D01*
X68052944Y-53352672D01*
X68091004Y-53444558D01*
X68161330Y-53514884D01*
X68253216Y-53552944D01*
X68352672Y-53552944D01*
X68444558Y-53514884D01*
X68514884Y-53444558D01*
X68552944Y-53352672D01*
X68552944Y-53253216D01*
X68514884Y-53161330D01*
X68444558Y-53091004D01*
X68352672Y-53052944D01*
X68253216Y-53052944D01*
X68161330Y-53091004D01*
X68091004Y-53161330D01*
X68052944Y-53253216D01*
X67894006Y-53253216D01*
X67202877Y-52562087D01*
X67202876Y-52562088D01*
X66996054Y-52817491D01*
X66996042Y-52817508D01*
X66784371Y-53143455D01*
X66607923Y-53489752D01*
X66607919Y-53489760D01*
X66468644Y-53852585D01*
X66368051Y-54228004D01*
X66307250Y-54611885D01*
X66286911Y-54999993D01*
X65000000Y-54999993D01*
X65000000Y-50126000D01*
X65020002Y-50057879D01*
X65073658Y-50011386D01*
X65126000Y-50000000D01*
X167374000Y-50000000D01*
X167442121Y-50020002D01*
G37*
G04 #@! TD.AperFunction*
M02*
