%TF.GenerationSoftware,KiCad,Pcbnew,(6.0.0)*%
%TF.CreationDate,2022-08-08T07:24:01+02:00*%
%TF.ProjectId,K_PA_Protec,4b5f5041-5f50-4726-9f74-65632e6b6963,rev?*%
%TF.SameCoordinates,Original*%
%TF.FileFunction,Legend,Bot*%
%TF.FilePolarity,Positive*%
%FSLAX46Y46*%
G04 Gerber Fmt 4.6, Leading zero omitted, Abs format (unit mm)*
G04 Created by KiCad (PCBNEW (6.0.0)) date 2022-08-08 07:24:01*
%MOMM*%
%LPD*%
G01*
G04 APERTURE LIST*
%ADD10C,0.500000*%
%ADD11C,0.150000*%
%ADD12C,0.120000*%
G04 APERTURE END LIST*
D10*
X164205238Y-87523809D02*
X164205238Y-88476190D01*
X166205238Y-88476190D01*
X164776666Y-86952380D02*
X164776666Y-86000000D01*
X164205238Y-87142857D02*
X166205238Y-86476190D01*
X164205238Y-85809523D01*
X166014761Y-85238095D02*
X166110000Y-85142857D01*
X166205238Y-84952380D01*
X166205238Y-84476190D01*
X166110000Y-84285714D01*
X166014761Y-84190476D01*
X165824285Y-84095238D01*
X165633809Y-84095238D01*
X165348095Y-84190476D01*
X164205238Y-85333333D01*
X164205238Y-84095238D01*
X164205238Y-83238095D02*
X166205238Y-83238095D01*
X164205238Y-82095238D01*
X166205238Y-82095238D01*
X164205238Y-81142857D02*
X166205238Y-81142857D01*
X164300476Y-80095238D02*
X164205238Y-80095238D01*
X164014761Y-80190476D01*
X163919523Y-80285714D01*
X164300476Y-77809523D02*
X164205238Y-77523809D01*
X164205238Y-77047619D01*
X164300476Y-76857142D01*
X164395714Y-76761904D01*
X164586190Y-76666666D01*
X164776666Y-76666666D01*
X164967142Y-76761904D01*
X165062380Y-76857142D01*
X165157619Y-77047619D01*
X165252857Y-77428571D01*
X165348095Y-77619047D01*
X165443333Y-77714285D01*
X165633809Y-77809523D01*
X165824285Y-77809523D01*
X166014761Y-77714285D01*
X166110000Y-77619047D01*
X166205238Y-77428571D01*
X166205238Y-76952380D01*
X166110000Y-76666666D01*
X164300476Y-75047619D02*
X164205238Y-75238095D01*
X164205238Y-75619047D01*
X164300476Y-75809523D01*
X164490952Y-75904761D01*
X165252857Y-75904761D01*
X165443333Y-75809523D01*
X165538571Y-75619047D01*
X165538571Y-75238095D01*
X165443333Y-75047619D01*
X165252857Y-74952380D01*
X165062380Y-74952380D01*
X164871904Y-75904761D01*
X165538571Y-74095238D02*
X163538571Y-74095238D01*
X165443333Y-74095238D02*
X165538571Y-73904761D01*
X165538571Y-73523809D01*
X165443333Y-73333333D01*
X165348095Y-73238095D01*
X165157619Y-73142857D01*
X164586190Y-73142857D01*
X164395714Y-73238095D01*
X164300476Y-73333333D01*
X164205238Y-73523809D01*
X164205238Y-73904761D01*
X164300476Y-74095238D01*
X165538571Y-72571428D02*
X165538571Y-71809523D01*
X166205238Y-72285714D02*
X164490952Y-72285714D01*
X164300476Y-72190476D01*
X164205238Y-72000000D01*
X164205238Y-71809523D01*
X164395714Y-71142857D02*
X164300476Y-71047619D01*
X164205238Y-71142857D01*
X164300476Y-71238095D01*
X164395714Y-71142857D01*
X164205238Y-71142857D01*
X166014761Y-70285714D02*
X166110000Y-70190476D01*
X166205238Y-70000000D01*
X166205238Y-69523809D01*
X166110000Y-69333333D01*
X166014761Y-69238095D01*
X165824285Y-69142857D01*
X165633809Y-69142857D01*
X165348095Y-69238095D01*
X164205238Y-70380952D01*
X164205238Y-69142857D01*
X166205238Y-67904761D02*
X166205238Y-67714285D01*
X166110000Y-67523809D01*
X166014761Y-67428571D01*
X165824285Y-67333333D01*
X165443333Y-67238095D01*
X164967142Y-67238095D01*
X164586190Y-67333333D01*
X164395714Y-67428571D01*
X164300476Y-67523809D01*
X164205238Y-67714285D01*
X164205238Y-67904761D01*
X164300476Y-68095238D01*
X164395714Y-68190476D01*
X164586190Y-68285714D01*
X164967142Y-68380952D01*
X165443333Y-68380952D01*
X165824285Y-68285714D01*
X166014761Y-68190476D01*
X166110000Y-68095238D01*
X166205238Y-67904761D01*
X166014761Y-66476190D02*
X166110000Y-66380952D01*
X166205238Y-66190476D01*
X166205238Y-65714285D01*
X166110000Y-65523809D01*
X166014761Y-65428571D01*
X165824285Y-65333333D01*
X165633809Y-65333333D01*
X165348095Y-65428571D01*
X164205238Y-66571428D01*
X164205238Y-65333333D01*
X164205238Y-63428571D02*
X164205238Y-64571428D01*
X164205238Y-64000000D02*
X166205238Y-64000000D01*
X165919523Y-64190476D01*
X165729047Y-64380952D01*
X165633809Y-64571428D01*
X160985238Y-90904761D02*
X162985238Y-90904761D01*
X162985238Y-90142857D01*
X162890000Y-89952380D01*
X162794761Y-89857142D01*
X162604285Y-89761904D01*
X162318571Y-89761904D01*
X162128095Y-89857142D01*
X162032857Y-89952380D01*
X161937619Y-90142857D01*
X161937619Y-90904761D01*
X161556666Y-89000000D02*
X161556666Y-88047619D01*
X160985238Y-89190476D02*
X162985238Y-88523809D01*
X160985238Y-87857142D01*
X160985238Y-85666666D02*
X162985238Y-85666666D01*
X162985238Y-84904761D01*
X162890000Y-84714285D01*
X162794761Y-84619047D01*
X162604285Y-84523809D01*
X162318571Y-84523809D01*
X162128095Y-84619047D01*
X162032857Y-84714285D01*
X161937619Y-84904761D01*
X161937619Y-85666666D01*
X160985238Y-83666666D02*
X162318571Y-83666666D01*
X161937619Y-83666666D02*
X162128095Y-83571428D01*
X162223333Y-83476190D01*
X162318571Y-83285714D01*
X162318571Y-83095238D01*
X160985238Y-82142857D02*
X161080476Y-82333333D01*
X161175714Y-82428571D01*
X161366190Y-82523809D01*
X161937619Y-82523809D01*
X162128095Y-82428571D01*
X162223333Y-82333333D01*
X162318571Y-82142857D01*
X162318571Y-81857142D01*
X162223333Y-81666666D01*
X162128095Y-81571428D01*
X161937619Y-81476190D01*
X161366190Y-81476190D01*
X161175714Y-81571428D01*
X161080476Y-81666666D01*
X160985238Y-81857142D01*
X160985238Y-82142857D01*
X162318571Y-80904761D02*
X162318571Y-80142857D01*
X162985238Y-80619047D02*
X161270952Y-80619047D01*
X161080476Y-80523809D01*
X160985238Y-80333333D01*
X160985238Y-80142857D01*
X161080476Y-78714285D02*
X160985238Y-78904761D01*
X160985238Y-79285714D01*
X161080476Y-79476190D01*
X161270952Y-79571428D01*
X162032857Y-79571428D01*
X162223333Y-79476190D01*
X162318571Y-79285714D01*
X162318571Y-78904761D01*
X162223333Y-78714285D01*
X162032857Y-78619047D01*
X161842380Y-78619047D01*
X161651904Y-79571428D01*
X161080476Y-76904761D02*
X160985238Y-77095238D01*
X160985238Y-77476190D01*
X161080476Y-77666666D01*
X161175714Y-77761904D01*
X161366190Y-77857142D01*
X161937619Y-77857142D01*
X162128095Y-77761904D01*
X162223333Y-77666666D01*
X162318571Y-77476190D01*
X162318571Y-77095238D01*
X162223333Y-76904761D01*
X162318571Y-76333333D02*
X162318571Y-75571428D01*
X162985238Y-76047619D02*
X161270952Y-76047619D01*
X161080476Y-75952380D01*
X160985238Y-75761904D01*
X160985238Y-75571428D01*
X160985238Y-74904761D02*
X162318571Y-74904761D01*
X162985238Y-74904761D02*
X162890000Y-75000000D01*
X162794761Y-74904761D01*
X162890000Y-74809523D01*
X162985238Y-74904761D01*
X162794761Y-74904761D01*
X160985238Y-73666666D02*
X161080476Y-73857142D01*
X161175714Y-73952380D01*
X161366190Y-74047619D01*
X161937619Y-74047619D01*
X162128095Y-73952380D01*
X162223333Y-73857142D01*
X162318571Y-73666666D01*
X162318571Y-73380952D01*
X162223333Y-73190476D01*
X162128095Y-73095238D01*
X161937619Y-73000000D01*
X161366190Y-73000000D01*
X161175714Y-73095238D01*
X161080476Y-73190476D01*
X160985238Y-73380952D01*
X160985238Y-73666666D01*
X162318571Y-72142857D02*
X160985238Y-72142857D01*
X162128095Y-72142857D02*
X162223333Y-72047619D01*
X162318571Y-71857142D01*
X162318571Y-71571428D01*
X162223333Y-71380952D01*
X162032857Y-71285714D01*
X160985238Y-71285714D01*
X162032857Y-68142857D02*
X161937619Y-67857142D01*
X161842380Y-67761904D01*
X161651904Y-67666666D01*
X161366190Y-67666666D01*
X161175714Y-67761904D01*
X161080476Y-67857142D01*
X160985238Y-68047619D01*
X160985238Y-68809523D01*
X162985238Y-68809523D01*
X162985238Y-68142857D01*
X162890000Y-67952380D01*
X162794761Y-67857142D01*
X162604285Y-67761904D01*
X162413809Y-67761904D01*
X162223333Y-67857142D01*
X162128095Y-67952380D01*
X162032857Y-68142857D01*
X162032857Y-68809523D01*
X160985238Y-66523809D02*
X161080476Y-66714285D01*
X161175714Y-66809523D01*
X161366190Y-66904761D01*
X161937619Y-66904761D01*
X162128095Y-66809523D01*
X162223333Y-66714285D01*
X162318571Y-66523809D01*
X162318571Y-66238095D01*
X162223333Y-66047619D01*
X162128095Y-65952380D01*
X161937619Y-65857142D01*
X161366190Y-65857142D01*
X161175714Y-65952380D01*
X161080476Y-66047619D01*
X160985238Y-66238095D01*
X160985238Y-66523809D01*
X160985238Y-64142857D02*
X162032857Y-64142857D01*
X162223333Y-64238095D01*
X162318571Y-64428571D01*
X162318571Y-64809523D01*
X162223333Y-65000000D01*
X161080476Y-64142857D02*
X160985238Y-64333333D01*
X160985238Y-64809523D01*
X161080476Y-65000000D01*
X161270952Y-65095238D01*
X161461428Y-65095238D01*
X161651904Y-65000000D01*
X161747142Y-64809523D01*
X161747142Y-64333333D01*
X161842380Y-64142857D01*
X160985238Y-63190476D02*
X162318571Y-63190476D01*
X161937619Y-63190476D02*
X162128095Y-63095238D01*
X162223333Y-63000000D01*
X162318571Y-62809523D01*
X162318571Y-62619047D01*
X160985238Y-61095238D02*
X162985238Y-61095238D01*
X161080476Y-61095238D02*
X160985238Y-61285714D01*
X160985238Y-61666666D01*
X161080476Y-61857142D01*
X161175714Y-61952380D01*
X161366190Y-62047619D01*
X161937619Y-62047619D01*
X162128095Y-61952380D01*
X162223333Y-61857142D01*
X162318571Y-61666666D01*
X162318571Y-61285714D01*
X162223333Y-61095238D01*
D11*
%TO.C,R5*%
X157452380Y-115533333D02*
X156976190Y-115200000D01*
X157452380Y-114961904D02*
X156452380Y-114961904D01*
X156452380Y-115342857D01*
X156500000Y-115438095D01*
X156547619Y-115485714D01*
X156642857Y-115533333D01*
X156785714Y-115533333D01*
X156880952Y-115485714D01*
X156928571Y-115438095D01*
X156976190Y-115342857D01*
X156976190Y-114961904D01*
X156452380Y-116438095D02*
X156452380Y-115961904D01*
X156928571Y-115914285D01*
X156880952Y-115961904D01*
X156833333Y-116057142D01*
X156833333Y-116295238D01*
X156880952Y-116390476D01*
X156928571Y-116438095D01*
X157023809Y-116485714D01*
X157261904Y-116485714D01*
X157357142Y-116438095D01*
X157404761Y-116390476D01*
X157452380Y-116295238D01*
X157452380Y-116057142D01*
X157404761Y-115961904D01*
X157357142Y-115914285D01*
%TO.C,R7*%
X99266666Y-70402380D02*
X99600000Y-69926190D01*
X99838095Y-70402380D02*
X99838095Y-69402380D01*
X99457142Y-69402380D01*
X99361904Y-69450000D01*
X99314285Y-69497619D01*
X99266666Y-69592857D01*
X99266666Y-69735714D01*
X99314285Y-69830952D01*
X99361904Y-69878571D01*
X99457142Y-69926190D01*
X99838095Y-69926190D01*
X98933333Y-69402380D02*
X98266666Y-69402380D01*
X98695238Y-70402380D01*
%TO.C,C9*%
X145066666Y-70577142D02*
X145114285Y-70624761D01*
X145257142Y-70672380D01*
X145352380Y-70672380D01*
X145495238Y-70624761D01*
X145590476Y-70529523D01*
X145638095Y-70434285D01*
X145685714Y-70243809D01*
X145685714Y-70100952D01*
X145638095Y-69910476D01*
X145590476Y-69815238D01*
X145495238Y-69720000D01*
X145352380Y-69672380D01*
X145257142Y-69672380D01*
X145114285Y-69720000D01*
X145066666Y-69767619D01*
X144590476Y-70672380D02*
X144400000Y-70672380D01*
X144304761Y-70624761D01*
X144257142Y-70577142D01*
X144161904Y-70434285D01*
X144114285Y-70243809D01*
X144114285Y-69862857D01*
X144161904Y-69767619D01*
X144209523Y-69720000D01*
X144304761Y-69672380D01*
X144495238Y-69672380D01*
X144590476Y-69720000D01*
X144638095Y-69767619D01*
X144685714Y-69862857D01*
X144685714Y-70100952D01*
X144638095Y-70196190D01*
X144590476Y-70243809D01*
X144495238Y-70291428D01*
X144304761Y-70291428D01*
X144209523Y-70243809D01*
X144161904Y-70196190D01*
X144114285Y-70100952D01*
%TO.C,J8*%
X140752380Y-104856666D02*
X141466666Y-104856666D01*
X141609523Y-104809047D01*
X141704761Y-104713809D01*
X141752380Y-104570952D01*
X141752380Y-104475714D01*
X141180952Y-105475714D02*
X141133333Y-105380476D01*
X141085714Y-105332857D01*
X140990476Y-105285238D01*
X140942857Y-105285238D01*
X140847619Y-105332857D01*
X140800000Y-105380476D01*
X140752380Y-105475714D01*
X140752380Y-105666190D01*
X140800000Y-105761428D01*
X140847619Y-105809047D01*
X140942857Y-105856666D01*
X140990476Y-105856666D01*
X141085714Y-105809047D01*
X141133333Y-105761428D01*
X141180952Y-105666190D01*
X141180952Y-105475714D01*
X141228571Y-105380476D01*
X141276190Y-105332857D01*
X141371428Y-105285238D01*
X141561904Y-105285238D01*
X141657142Y-105332857D01*
X141704761Y-105380476D01*
X141752380Y-105475714D01*
X141752380Y-105666190D01*
X141704761Y-105761428D01*
X141657142Y-105809047D01*
X141561904Y-105856666D01*
X141371428Y-105856666D01*
X141276190Y-105809047D01*
X141228571Y-105761428D01*
X141180952Y-105666190D01*
%TO.C,C6*%
X127166666Y-76257142D02*
X127214285Y-76304761D01*
X127357142Y-76352380D01*
X127452380Y-76352380D01*
X127595238Y-76304761D01*
X127690476Y-76209523D01*
X127738095Y-76114285D01*
X127785714Y-75923809D01*
X127785714Y-75780952D01*
X127738095Y-75590476D01*
X127690476Y-75495238D01*
X127595238Y-75400000D01*
X127452380Y-75352380D01*
X127357142Y-75352380D01*
X127214285Y-75400000D01*
X127166666Y-75447619D01*
X126309523Y-75352380D02*
X126500000Y-75352380D01*
X126595238Y-75400000D01*
X126642857Y-75447619D01*
X126738095Y-75590476D01*
X126785714Y-75780952D01*
X126785714Y-76161904D01*
X126738095Y-76257142D01*
X126690476Y-76304761D01*
X126595238Y-76352380D01*
X126404761Y-76352380D01*
X126309523Y-76304761D01*
X126261904Y-76257142D01*
X126214285Y-76161904D01*
X126214285Y-75923809D01*
X126261904Y-75828571D01*
X126309523Y-75780952D01*
X126404761Y-75733333D01*
X126595238Y-75733333D01*
X126690476Y-75780952D01*
X126738095Y-75828571D01*
X126785714Y-75923809D01*
%TO.C,R31*%
X152992857Y-88052380D02*
X153326190Y-87576190D01*
X153564285Y-88052380D02*
X153564285Y-87052380D01*
X153183333Y-87052380D01*
X153088095Y-87100000D01*
X153040476Y-87147619D01*
X152992857Y-87242857D01*
X152992857Y-87385714D01*
X153040476Y-87480952D01*
X153088095Y-87528571D01*
X153183333Y-87576190D01*
X153564285Y-87576190D01*
X152659523Y-87052380D02*
X152040476Y-87052380D01*
X152373809Y-87433333D01*
X152230952Y-87433333D01*
X152135714Y-87480952D01*
X152088095Y-87528571D01*
X152040476Y-87623809D01*
X152040476Y-87861904D01*
X152088095Y-87957142D01*
X152135714Y-88004761D01*
X152230952Y-88052380D01*
X152516666Y-88052380D01*
X152611904Y-88004761D01*
X152659523Y-87957142D01*
X151088095Y-88052380D02*
X151659523Y-88052380D01*
X151373809Y-88052380D02*
X151373809Y-87052380D01*
X151469047Y-87195238D01*
X151564285Y-87290476D01*
X151659523Y-87338095D01*
%TO.C,D3*%
X89988095Y-91202380D02*
X89988095Y-90202380D01*
X89750000Y-90202380D01*
X89607142Y-90250000D01*
X89511904Y-90345238D01*
X89464285Y-90440476D01*
X89416666Y-90630952D01*
X89416666Y-90773809D01*
X89464285Y-90964285D01*
X89511904Y-91059523D01*
X89607142Y-91154761D01*
X89750000Y-91202380D01*
X89988095Y-91202380D01*
X89083333Y-90202380D02*
X88464285Y-90202380D01*
X88797619Y-90583333D01*
X88654761Y-90583333D01*
X88559523Y-90630952D01*
X88511904Y-90678571D01*
X88464285Y-90773809D01*
X88464285Y-91011904D01*
X88511904Y-91107142D01*
X88559523Y-91154761D01*
X88654761Y-91202380D01*
X88940476Y-91202380D01*
X89035714Y-91154761D01*
X89083333Y-91107142D01*
%TO.C,C8*%
X150807142Y-93783333D02*
X150854761Y-93735714D01*
X150902380Y-93592857D01*
X150902380Y-93497619D01*
X150854761Y-93354761D01*
X150759523Y-93259523D01*
X150664285Y-93211904D01*
X150473809Y-93164285D01*
X150330952Y-93164285D01*
X150140476Y-93211904D01*
X150045238Y-93259523D01*
X149950000Y-93354761D01*
X149902380Y-93497619D01*
X149902380Y-93592857D01*
X149950000Y-93735714D01*
X149997619Y-93783333D01*
X150330952Y-94354761D02*
X150283333Y-94259523D01*
X150235714Y-94211904D01*
X150140476Y-94164285D01*
X150092857Y-94164285D01*
X149997619Y-94211904D01*
X149950000Y-94259523D01*
X149902380Y-94354761D01*
X149902380Y-94545238D01*
X149950000Y-94640476D01*
X149997619Y-94688095D01*
X150092857Y-94735714D01*
X150140476Y-94735714D01*
X150235714Y-94688095D01*
X150283333Y-94640476D01*
X150330952Y-94545238D01*
X150330952Y-94354761D01*
X150378571Y-94259523D01*
X150426190Y-94211904D01*
X150521428Y-94164285D01*
X150711904Y-94164285D01*
X150807142Y-94211904D01*
X150854761Y-94259523D01*
X150902380Y-94354761D01*
X150902380Y-94545238D01*
X150854761Y-94640476D01*
X150807142Y-94688095D01*
X150711904Y-94735714D01*
X150521428Y-94735714D01*
X150426190Y-94688095D01*
X150378571Y-94640476D01*
X150330952Y-94545238D01*
%TO.C,D6*%
X90038095Y-77002380D02*
X90038095Y-76002380D01*
X89800000Y-76002380D01*
X89657142Y-76050000D01*
X89561904Y-76145238D01*
X89514285Y-76240476D01*
X89466666Y-76430952D01*
X89466666Y-76573809D01*
X89514285Y-76764285D01*
X89561904Y-76859523D01*
X89657142Y-76954761D01*
X89800000Y-77002380D01*
X90038095Y-77002380D01*
X88609523Y-76002380D02*
X88800000Y-76002380D01*
X88895238Y-76050000D01*
X88942857Y-76097619D01*
X89038095Y-76240476D01*
X89085714Y-76430952D01*
X89085714Y-76811904D01*
X89038095Y-76907142D01*
X88990476Y-76954761D01*
X88895238Y-77002380D01*
X88704761Y-77002380D01*
X88609523Y-76954761D01*
X88561904Y-76907142D01*
X88514285Y-76811904D01*
X88514285Y-76573809D01*
X88561904Y-76478571D01*
X88609523Y-76430952D01*
X88704761Y-76383333D01*
X88895238Y-76383333D01*
X88990476Y-76430952D01*
X89038095Y-76478571D01*
X89085714Y-76573809D01*
%TO.C,J4*%
X88402380Y-70716666D02*
X89116666Y-70716666D01*
X89259523Y-70669047D01*
X89354761Y-70573809D01*
X89402380Y-70430952D01*
X89402380Y-70335714D01*
X88735714Y-71621428D02*
X89402380Y-71621428D01*
X88354761Y-71383333D02*
X89069047Y-71145238D01*
X89069047Y-71764285D01*
%TO.C,D1*%
X97138095Y-58452380D02*
X97138095Y-57452380D01*
X96900000Y-57452380D01*
X96757142Y-57500000D01*
X96661904Y-57595238D01*
X96614285Y-57690476D01*
X96566666Y-57880952D01*
X96566666Y-58023809D01*
X96614285Y-58214285D01*
X96661904Y-58309523D01*
X96757142Y-58404761D01*
X96900000Y-58452380D01*
X97138095Y-58452380D01*
X95614285Y-58452380D02*
X96185714Y-58452380D01*
X95900000Y-58452380D02*
X95900000Y-57452380D01*
X95995238Y-57595238D01*
X96090476Y-57690476D01*
X96185714Y-57738095D01*
%TO.C,R23*%
X144052380Y-115057142D02*
X143576190Y-114723809D01*
X144052380Y-114485714D02*
X143052380Y-114485714D01*
X143052380Y-114866666D01*
X143100000Y-114961904D01*
X143147619Y-115009523D01*
X143242857Y-115057142D01*
X143385714Y-115057142D01*
X143480952Y-115009523D01*
X143528571Y-114961904D01*
X143576190Y-114866666D01*
X143576190Y-114485714D01*
X143147619Y-115438095D02*
X143100000Y-115485714D01*
X143052380Y-115580952D01*
X143052380Y-115819047D01*
X143100000Y-115914285D01*
X143147619Y-115961904D01*
X143242857Y-116009523D01*
X143338095Y-116009523D01*
X143480952Y-115961904D01*
X144052380Y-115390476D01*
X144052380Y-116009523D01*
X143052380Y-116342857D02*
X143052380Y-116961904D01*
X143433333Y-116628571D01*
X143433333Y-116771428D01*
X143480952Y-116866666D01*
X143528571Y-116914285D01*
X143623809Y-116961904D01*
X143861904Y-116961904D01*
X143957142Y-116914285D01*
X144004761Y-116866666D01*
X144052380Y-116771428D01*
X144052380Y-116485714D01*
X144004761Y-116390476D01*
X143957142Y-116342857D01*
%TO.C,R6*%
X99452380Y-59233333D02*
X98976190Y-58900000D01*
X99452380Y-58661904D02*
X98452380Y-58661904D01*
X98452380Y-59042857D01*
X98500000Y-59138095D01*
X98547619Y-59185714D01*
X98642857Y-59233333D01*
X98785714Y-59233333D01*
X98880952Y-59185714D01*
X98928571Y-59138095D01*
X98976190Y-59042857D01*
X98976190Y-58661904D01*
X98452380Y-60090476D02*
X98452380Y-59900000D01*
X98500000Y-59804761D01*
X98547619Y-59757142D01*
X98690476Y-59661904D01*
X98880952Y-59614285D01*
X99261904Y-59614285D01*
X99357142Y-59661904D01*
X99404761Y-59709523D01*
X99452380Y-59804761D01*
X99452380Y-59995238D01*
X99404761Y-60090476D01*
X99357142Y-60138095D01*
X99261904Y-60185714D01*
X99023809Y-60185714D01*
X98928571Y-60138095D01*
X98880952Y-60090476D01*
X98833333Y-59995238D01*
X98833333Y-59804761D01*
X98880952Y-59709523D01*
X98928571Y-59661904D01*
X99023809Y-59614285D01*
%TO.C,IC1*%
X141576190Y-98652380D02*
X141576190Y-97652380D01*
X140528571Y-98557142D02*
X140576190Y-98604761D01*
X140719047Y-98652380D01*
X140814285Y-98652380D01*
X140957142Y-98604761D01*
X141052380Y-98509523D01*
X141100000Y-98414285D01*
X141147619Y-98223809D01*
X141147619Y-98080952D01*
X141100000Y-97890476D01*
X141052380Y-97795238D01*
X140957142Y-97700000D01*
X140814285Y-97652380D01*
X140719047Y-97652380D01*
X140576190Y-97700000D01*
X140528571Y-97747619D01*
X139576190Y-98652380D02*
X140147619Y-98652380D01*
X139861904Y-98652380D02*
X139861904Y-97652380D01*
X139957142Y-97795238D01*
X140052380Y-97890476D01*
X140147619Y-97938095D01*
%TO.C,R22*%
X97442857Y-53452380D02*
X97776190Y-52976190D01*
X98014285Y-53452380D02*
X98014285Y-52452380D01*
X97633333Y-52452380D01*
X97538095Y-52500000D01*
X97490476Y-52547619D01*
X97442857Y-52642857D01*
X97442857Y-52785714D01*
X97490476Y-52880952D01*
X97538095Y-52928571D01*
X97633333Y-52976190D01*
X98014285Y-52976190D01*
X97061904Y-52547619D02*
X97014285Y-52500000D01*
X96919047Y-52452380D01*
X96680952Y-52452380D01*
X96585714Y-52500000D01*
X96538095Y-52547619D01*
X96490476Y-52642857D01*
X96490476Y-52738095D01*
X96538095Y-52880952D01*
X97109523Y-53452380D01*
X96490476Y-53452380D01*
X96109523Y-52547619D02*
X96061904Y-52500000D01*
X95966666Y-52452380D01*
X95728571Y-52452380D01*
X95633333Y-52500000D01*
X95585714Y-52547619D01*
X95538095Y-52642857D01*
X95538095Y-52738095D01*
X95585714Y-52880952D01*
X96157142Y-53452380D01*
X95538095Y-53452380D01*
%TO.C,D5*%
X90038095Y-83902380D02*
X90038095Y-82902380D01*
X89800000Y-82902380D01*
X89657142Y-82950000D01*
X89561904Y-83045238D01*
X89514285Y-83140476D01*
X89466666Y-83330952D01*
X89466666Y-83473809D01*
X89514285Y-83664285D01*
X89561904Y-83759523D01*
X89657142Y-83854761D01*
X89800000Y-83902380D01*
X90038095Y-83902380D01*
X88561904Y-82902380D02*
X89038095Y-82902380D01*
X89085714Y-83378571D01*
X89038095Y-83330952D01*
X88942857Y-83283333D01*
X88704761Y-83283333D01*
X88609523Y-83330952D01*
X88561904Y-83378571D01*
X88514285Y-83473809D01*
X88514285Y-83711904D01*
X88561904Y-83807142D01*
X88609523Y-83854761D01*
X88704761Y-83902380D01*
X88942857Y-83902380D01*
X89038095Y-83854761D01*
X89085714Y-83807142D01*
%TO.C,RV13*%
X104652380Y-60828571D02*
X104176190Y-60495238D01*
X104652380Y-60257142D02*
X103652380Y-60257142D01*
X103652380Y-60638095D01*
X103700000Y-60733333D01*
X103747619Y-60780952D01*
X103842857Y-60828571D01*
X103985714Y-60828571D01*
X104080952Y-60780952D01*
X104128571Y-60733333D01*
X104176190Y-60638095D01*
X104176190Y-60257142D01*
X103652380Y-61114285D02*
X104652380Y-61447619D01*
X103652380Y-61780952D01*
X104652380Y-62638095D02*
X104652380Y-62066666D01*
X104652380Y-62352380D02*
X103652380Y-62352380D01*
X103795238Y-62257142D01*
X103890476Y-62161904D01*
X103938095Y-62066666D01*
X103652380Y-62971428D02*
X103652380Y-63590476D01*
X104033333Y-63257142D01*
X104033333Y-63400000D01*
X104080952Y-63495238D01*
X104128571Y-63542857D01*
X104223809Y-63590476D01*
X104461904Y-63590476D01*
X104557142Y-63542857D01*
X104604761Y-63495238D01*
X104652380Y-63400000D01*
X104652380Y-63114285D01*
X104604761Y-63019047D01*
X104557142Y-62971428D01*
%TO.C,C11*%
X125202030Y-70607106D02*
X125202030Y-70674450D01*
X125269374Y-70809137D01*
X125336717Y-70876480D01*
X125471404Y-70943824D01*
X125606091Y-70943824D01*
X125707106Y-70910152D01*
X125875465Y-70809137D01*
X125976480Y-70708122D01*
X126077496Y-70539763D01*
X126111167Y-70438748D01*
X126111167Y-70304061D01*
X126043824Y-70169374D01*
X125976480Y-70102030D01*
X125841793Y-70034687D01*
X125774450Y-70034687D01*
X124461251Y-70001015D02*
X124865312Y-70405076D01*
X124663282Y-70203045D02*
X125370389Y-69495938D01*
X125336717Y-69664297D01*
X125336717Y-69798984D01*
X125370389Y-69900000D01*
X123787816Y-69327580D02*
X124191877Y-69731641D01*
X123989847Y-69529610D02*
X124696954Y-68822503D01*
X124663282Y-68990862D01*
X124663282Y-69125549D01*
X124696954Y-69226564D01*
%TO.C,D7*%
X90038095Y-80502380D02*
X90038095Y-79502380D01*
X89800000Y-79502380D01*
X89657142Y-79550000D01*
X89561904Y-79645238D01*
X89514285Y-79740476D01*
X89466666Y-79930952D01*
X89466666Y-80073809D01*
X89514285Y-80264285D01*
X89561904Y-80359523D01*
X89657142Y-80454761D01*
X89800000Y-80502380D01*
X90038095Y-80502380D01*
X89133333Y-79502380D02*
X88466666Y-79502380D01*
X88895238Y-80502380D01*
%TO.C,R19*%
X108142857Y-76452380D02*
X108476190Y-75976190D01*
X108714285Y-76452380D02*
X108714285Y-75452380D01*
X108333333Y-75452380D01*
X108238095Y-75500000D01*
X108190476Y-75547619D01*
X108142857Y-75642857D01*
X108142857Y-75785714D01*
X108190476Y-75880952D01*
X108238095Y-75928571D01*
X108333333Y-75976190D01*
X108714285Y-75976190D01*
X107190476Y-76452380D02*
X107761904Y-76452380D01*
X107476190Y-76452380D02*
X107476190Y-75452380D01*
X107571428Y-75595238D01*
X107666666Y-75690476D01*
X107761904Y-75738095D01*
X106714285Y-76452380D02*
X106523809Y-76452380D01*
X106428571Y-76404761D01*
X106380952Y-76357142D01*
X106285714Y-76214285D01*
X106238095Y-76023809D01*
X106238095Y-75642857D01*
X106285714Y-75547619D01*
X106333333Y-75500000D01*
X106428571Y-75452380D01*
X106619047Y-75452380D01*
X106714285Y-75500000D01*
X106761904Y-75547619D01*
X106809523Y-75642857D01*
X106809523Y-75880952D01*
X106761904Y-75976190D01*
X106714285Y-76023809D01*
X106619047Y-76071428D01*
X106428571Y-76071428D01*
X106333333Y-76023809D01*
X106285714Y-75976190D01*
X106238095Y-75880952D01*
%TO.C,RV14*%
X104802380Y-66078571D02*
X104326190Y-65745238D01*
X104802380Y-65507142D02*
X103802380Y-65507142D01*
X103802380Y-65888095D01*
X103850000Y-65983333D01*
X103897619Y-66030952D01*
X103992857Y-66078571D01*
X104135714Y-66078571D01*
X104230952Y-66030952D01*
X104278571Y-65983333D01*
X104326190Y-65888095D01*
X104326190Y-65507142D01*
X103802380Y-66364285D02*
X104802380Y-66697619D01*
X103802380Y-67030952D01*
X104802380Y-67888095D02*
X104802380Y-67316666D01*
X104802380Y-67602380D02*
X103802380Y-67602380D01*
X103945238Y-67507142D01*
X104040476Y-67411904D01*
X104088095Y-67316666D01*
X104135714Y-68745238D02*
X104802380Y-68745238D01*
X103754761Y-68507142D02*
X104469047Y-68269047D01*
X104469047Y-68888095D01*
%TO.C,R21*%
X135142857Y-57702380D02*
X135476190Y-57226190D01*
X135714285Y-57702380D02*
X135714285Y-56702380D01*
X135333333Y-56702380D01*
X135238095Y-56750000D01*
X135190476Y-56797619D01*
X135142857Y-56892857D01*
X135142857Y-57035714D01*
X135190476Y-57130952D01*
X135238095Y-57178571D01*
X135333333Y-57226190D01*
X135714285Y-57226190D01*
X134761904Y-56797619D02*
X134714285Y-56750000D01*
X134619047Y-56702380D01*
X134380952Y-56702380D01*
X134285714Y-56750000D01*
X134238095Y-56797619D01*
X134190476Y-56892857D01*
X134190476Y-56988095D01*
X134238095Y-57130952D01*
X134809523Y-57702380D01*
X134190476Y-57702380D01*
X133238095Y-57702380D02*
X133809523Y-57702380D01*
X133523809Y-57702380D02*
X133523809Y-56702380D01*
X133619047Y-56845238D01*
X133714285Y-56940476D01*
X133809523Y-56988095D01*
%TO.C,C5*%
X130307142Y-83683333D02*
X130354761Y-83635714D01*
X130402380Y-83492857D01*
X130402380Y-83397619D01*
X130354761Y-83254761D01*
X130259523Y-83159523D01*
X130164285Y-83111904D01*
X129973809Y-83064285D01*
X129830952Y-83064285D01*
X129640476Y-83111904D01*
X129545238Y-83159523D01*
X129450000Y-83254761D01*
X129402380Y-83397619D01*
X129402380Y-83492857D01*
X129450000Y-83635714D01*
X129497619Y-83683333D01*
X129402380Y-84588095D02*
X129402380Y-84111904D01*
X129878571Y-84064285D01*
X129830952Y-84111904D01*
X129783333Y-84207142D01*
X129783333Y-84445238D01*
X129830952Y-84540476D01*
X129878571Y-84588095D01*
X129973809Y-84635714D01*
X130211904Y-84635714D01*
X130307142Y-84588095D01*
X130354761Y-84540476D01*
X130402380Y-84445238D01*
X130402380Y-84207142D01*
X130354761Y-84111904D01*
X130307142Y-84064285D01*
%TO.C,R24*%
X97052380Y-58357142D02*
X96576190Y-58023809D01*
X97052380Y-57785714D02*
X96052380Y-57785714D01*
X96052380Y-58166666D01*
X96100000Y-58261904D01*
X96147619Y-58309523D01*
X96242857Y-58357142D01*
X96385714Y-58357142D01*
X96480952Y-58309523D01*
X96528571Y-58261904D01*
X96576190Y-58166666D01*
X96576190Y-57785714D01*
X96147619Y-58738095D02*
X96100000Y-58785714D01*
X96052380Y-58880952D01*
X96052380Y-59119047D01*
X96100000Y-59214285D01*
X96147619Y-59261904D01*
X96242857Y-59309523D01*
X96338095Y-59309523D01*
X96480952Y-59261904D01*
X97052380Y-58690476D01*
X97052380Y-59309523D01*
X96385714Y-60166666D02*
X97052380Y-60166666D01*
X96004761Y-59928571D02*
X96719047Y-59690476D01*
X96719047Y-60309523D01*
%TO.C,R1*%
X112966666Y-64802380D02*
X113300000Y-64326190D01*
X113538095Y-64802380D02*
X113538095Y-63802380D01*
X113157142Y-63802380D01*
X113061904Y-63850000D01*
X113014285Y-63897619D01*
X112966666Y-63992857D01*
X112966666Y-64135714D01*
X113014285Y-64230952D01*
X113061904Y-64278571D01*
X113157142Y-64326190D01*
X113538095Y-64326190D01*
X112014285Y-64802380D02*
X112585714Y-64802380D01*
X112300000Y-64802380D02*
X112300000Y-63802380D01*
X112395238Y-63945238D01*
X112490476Y-64040476D01*
X112585714Y-64088095D01*
%TO.C,D2*%
X89988095Y-94502380D02*
X89988095Y-93502380D01*
X89750000Y-93502380D01*
X89607142Y-93550000D01*
X89511904Y-93645238D01*
X89464285Y-93740476D01*
X89416666Y-93930952D01*
X89416666Y-94073809D01*
X89464285Y-94264285D01*
X89511904Y-94359523D01*
X89607142Y-94454761D01*
X89750000Y-94502380D01*
X89988095Y-94502380D01*
X89035714Y-93597619D02*
X88988095Y-93550000D01*
X88892857Y-93502380D01*
X88654761Y-93502380D01*
X88559523Y-93550000D01*
X88511904Y-93597619D01*
X88464285Y-93692857D01*
X88464285Y-93788095D01*
X88511904Y-93930952D01*
X89083333Y-94502380D01*
X88464285Y-94502380D01*
%TO.C,J3*%
X111483333Y-80902380D02*
X111483333Y-81616666D01*
X111530952Y-81759523D01*
X111626190Y-81854761D01*
X111769047Y-81902380D01*
X111864285Y-81902380D01*
X111102380Y-80902380D02*
X110483333Y-80902380D01*
X110816666Y-81283333D01*
X110673809Y-81283333D01*
X110578571Y-81330952D01*
X110530952Y-81378571D01*
X110483333Y-81473809D01*
X110483333Y-81711904D01*
X110530952Y-81807142D01*
X110578571Y-81854761D01*
X110673809Y-81902380D01*
X110959523Y-81902380D01*
X111054761Y-81854761D01*
X111102380Y-81807142D01*
%TO.C,U4*%
X124552380Y-83138095D02*
X125361904Y-83138095D01*
X125457142Y-83185714D01*
X125504761Y-83233333D01*
X125552380Y-83328571D01*
X125552380Y-83519047D01*
X125504761Y-83614285D01*
X125457142Y-83661904D01*
X125361904Y-83709523D01*
X124552380Y-83709523D01*
X124885714Y-84614285D02*
X125552380Y-84614285D01*
X124504761Y-84376190D02*
X125219047Y-84138095D01*
X125219047Y-84757142D01*
%TO.C,J2*%
X144033333Y-120352380D02*
X144033333Y-121066666D01*
X144080952Y-121209523D01*
X144176190Y-121304761D01*
X144319047Y-121352380D01*
X144414285Y-121352380D01*
X143604761Y-120447619D02*
X143557142Y-120400000D01*
X143461904Y-120352380D01*
X143223809Y-120352380D01*
X143128571Y-120400000D01*
X143080952Y-120447619D01*
X143033333Y-120542857D01*
X143033333Y-120638095D01*
X143080952Y-120780952D01*
X143652380Y-121352380D01*
X143033333Y-121352380D01*
%TO.C,U1*%
X119261904Y-68232380D02*
X119261904Y-69041904D01*
X119214285Y-69137142D01*
X119166666Y-69184761D01*
X119071428Y-69232380D01*
X118880952Y-69232380D01*
X118785714Y-69184761D01*
X118738095Y-69137142D01*
X118690476Y-69041904D01*
X118690476Y-68232380D01*
X117690476Y-69232380D02*
X118261904Y-69232380D01*
X117976190Y-69232380D02*
X117976190Y-68232380D01*
X118071428Y-68375238D01*
X118166666Y-68470476D01*
X118261904Y-68518095D01*
%TO.C,L3*%
X131966666Y-101952380D02*
X132442857Y-101952380D01*
X132442857Y-100952380D01*
X131728571Y-100952380D02*
X131109523Y-100952380D01*
X131442857Y-101333333D01*
X131300000Y-101333333D01*
X131204761Y-101380952D01*
X131157142Y-101428571D01*
X131109523Y-101523809D01*
X131109523Y-101761904D01*
X131157142Y-101857142D01*
X131204761Y-101904761D01*
X131300000Y-101952380D01*
X131585714Y-101952380D01*
X131680952Y-101904761D01*
X131728571Y-101857142D01*
%TO.C,C3*%
X112666666Y-78457142D02*
X112714285Y-78504761D01*
X112857142Y-78552380D01*
X112952380Y-78552380D01*
X113095238Y-78504761D01*
X113190476Y-78409523D01*
X113238095Y-78314285D01*
X113285714Y-78123809D01*
X113285714Y-77980952D01*
X113238095Y-77790476D01*
X113190476Y-77695238D01*
X113095238Y-77600000D01*
X112952380Y-77552380D01*
X112857142Y-77552380D01*
X112714285Y-77600000D01*
X112666666Y-77647619D01*
X112333333Y-77552380D02*
X111714285Y-77552380D01*
X112047619Y-77933333D01*
X111904761Y-77933333D01*
X111809523Y-77980952D01*
X111761904Y-78028571D01*
X111714285Y-78123809D01*
X111714285Y-78361904D01*
X111761904Y-78457142D01*
X111809523Y-78504761D01*
X111904761Y-78552380D01*
X112190476Y-78552380D01*
X112285714Y-78504761D01*
X112333333Y-78457142D01*
%TO.C,C4*%
X127857142Y-83683333D02*
X127904761Y-83635714D01*
X127952380Y-83492857D01*
X127952380Y-83397619D01*
X127904761Y-83254761D01*
X127809523Y-83159523D01*
X127714285Y-83111904D01*
X127523809Y-83064285D01*
X127380952Y-83064285D01*
X127190476Y-83111904D01*
X127095238Y-83159523D01*
X127000000Y-83254761D01*
X126952380Y-83397619D01*
X126952380Y-83492857D01*
X127000000Y-83635714D01*
X127047619Y-83683333D01*
X127285714Y-84540476D02*
X127952380Y-84540476D01*
X126904761Y-84302380D02*
X127619047Y-84064285D01*
X127619047Y-84683333D01*
%TO.C,R18*%
X97442857Y-55802380D02*
X97776190Y-55326190D01*
X98014285Y-55802380D02*
X98014285Y-54802380D01*
X97633333Y-54802380D01*
X97538095Y-54850000D01*
X97490476Y-54897619D01*
X97442857Y-54992857D01*
X97442857Y-55135714D01*
X97490476Y-55230952D01*
X97538095Y-55278571D01*
X97633333Y-55326190D01*
X98014285Y-55326190D01*
X96490476Y-55802380D02*
X97061904Y-55802380D01*
X96776190Y-55802380D02*
X96776190Y-54802380D01*
X96871428Y-54945238D01*
X96966666Y-55040476D01*
X97061904Y-55088095D01*
X95919047Y-55230952D02*
X96014285Y-55183333D01*
X96061904Y-55135714D01*
X96109523Y-55040476D01*
X96109523Y-54992857D01*
X96061904Y-54897619D01*
X96014285Y-54850000D01*
X95919047Y-54802380D01*
X95728571Y-54802380D01*
X95633333Y-54850000D01*
X95585714Y-54897619D01*
X95538095Y-54992857D01*
X95538095Y-55040476D01*
X95585714Y-55135714D01*
X95633333Y-55183333D01*
X95728571Y-55230952D01*
X95919047Y-55230952D01*
X96014285Y-55278571D01*
X96061904Y-55326190D01*
X96109523Y-55421428D01*
X96109523Y-55611904D01*
X96061904Y-55707142D01*
X96014285Y-55754761D01*
X95919047Y-55802380D01*
X95728571Y-55802380D01*
X95633333Y-55754761D01*
X95585714Y-55707142D01*
X95538095Y-55611904D01*
X95538095Y-55421428D01*
X95585714Y-55326190D01*
X95633333Y-55278571D01*
X95728571Y-55230952D01*
%TO.C,C1*%
X101177142Y-65833333D02*
X101224761Y-65785714D01*
X101272380Y-65642857D01*
X101272380Y-65547619D01*
X101224761Y-65404761D01*
X101129523Y-65309523D01*
X101034285Y-65261904D01*
X100843809Y-65214285D01*
X100700952Y-65214285D01*
X100510476Y-65261904D01*
X100415238Y-65309523D01*
X100320000Y-65404761D01*
X100272380Y-65547619D01*
X100272380Y-65642857D01*
X100320000Y-65785714D01*
X100367619Y-65833333D01*
X101272380Y-66785714D02*
X101272380Y-66214285D01*
X101272380Y-66500000D02*
X100272380Y-66500000D01*
X100415238Y-66404761D01*
X100510476Y-66309523D01*
X100558095Y-66214285D01*
%TO.C,C2*%
X115037142Y-60833333D02*
X115084761Y-60785714D01*
X115132380Y-60642857D01*
X115132380Y-60547619D01*
X115084761Y-60404761D01*
X114989523Y-60309523D01*
X114894285Y-60261904D01*
X114703809Y-60214285D01*
X114560952Y-60214285D01*
X114370476Y-60261904D01*
X114275238Y-60309523D01*
X114180000Y-60404761D01*
X114132380Y-60547619D01*
X114132380Y-60642857D01*
X114180000Y-60785714D01*
X114227619Y-60833333D01*
X114227619Y-61214285D02*
X114180000Y-61261904D01*
X114132380Y-61357142D01*
X114132380Y-61595238D01*
X114180000Y-61690476D01*
X114227619Y-61738095D01*
X114322857Y-61785714D01*
X114418095Y-61785714D01*
X114560952Y-61738095D01*
X115132380Y-61166666D01*
X115132380Y-61785714D01*
%TO.C,R11*%
X89042857Y-57452380D02*
X89376190Y-56976190D01*
X89614285Y-57452380D02*
X89614285Y-56452380D01*
X89233333Y-56452380D01*
X89138095Y-56500000D01*
X89090476Y-56547619D01*
X89042857Y-56642857D01*
X89042857Y-56785714D01*
X89090476Y-56880952D01*
X89138095Y-56928571D01*
X89233333Y-56976190D01*
X89614285Y-56976190D01*
X88090476Y-57452380D02*
X88661904Y-57452380D01*
X88376190Y-57452380D02*
X88376190Y-56452380D01*
X88471428Y-56595238D01*
X88566666Y-56690476D01*
X88661904Y-56738095D01*
X87138095Y-57452380D02*
X87709523Y-57452380D01*
X87423809Y-57452380D02*
X87423809Y-56452380D01*
X87519047Y-56595238D01*
X87614285Y-56690476D01*
X87709523Y-56738095D01*
%TO.C,Q1*%
X113597619Y-85654761D02*
X113550000Y-85559523D01*
X113454761Y-85464285D01*
X113311904Y-85321428D01*
X113264285Y-85226190D01*
X113264285Y-85130952D01*
X113502380Y-85178571D02*
X113454761Y-85083333D01*
X113359523Y-84988095D01*
X113169047Y-84940476D01*
X112835714Y-84940476D01*
X112645238Y-84988095D01*
X112550000Y-85083333D01*
X112502380Y-85178571D01*
X112502380Y-85369047D01*
X112550000Y-85464285D01*
X112645238Y-85559523D01*
X112835714Y-85607142D01*
X113169047Y-85607142D01*
X113359523Y-85559523D01*
X113454761Y-85464285D01*
X113502380Y-85369047D01*
X113502380Y-85178571D01*
X113502380Y-86559523D02*
X113502380Y-85988095D01*
X113502380Y-86273809D02*
X112502380Y-86273809D01*
X112645238Y-86178571D01*
X112740476Y-86083333D01*
X112788095Y-85988095D01*
%TO.C,J7*%
X68852380Y-110166666D02*
X69566666Y-110166666D01*
X69709523Y-110119047D01*
X69804761Y-110023809D01*
X69852380Y-109880952D01*
X69852380Y-109785714D01*
X68852380Y-110547619D02*
X68852380Y-111214285D01*
X69852380Y-110785714D01*
%TO.C,C16*%
X114007142Y-91907142D02*
X114054761Y-91859523D01*
X114102380Y-91716666D01*
X114102380Y-91621428D01*
X114054761Y-91478571D01*
X113959523Y-91383333D01*
X113864285Y-91335714D01*
X113673809Y-91288095D01*
X113530952Y-91288095D01*
X113340476Y-91335714D01*
X113245238Y-91383333D01*
X113150000Y-91478571D01*
X113102380Y-91621428D01*
X113102380Y-91716666D01*
X113150000Y-91859523D01*
X113197619Y-91907142D01*
X114102380Y-92859523D02*
X114102380Y-92288095D01*
X114102380Y-92573809D02*
X113102380Y-92573809D01*
X113245238Y-92478571D01*
X113340476Y-92383333D01*
X113388095Y-92288095D01*
X113102380Y-93716666D02*
X113102380Y-93526190D01*
X113150000Y-93430952D01*
X113197619Y-93383333D01*
X113340476Y-93288095D01*
X113530952Y-93240476D01*
X113911904Y-93240476D01*
X114007142Y-93288095D01*
X114054761Y-93335714D01*
X114102380Y-93430952D01*
X114102380Y-93621428D01*
X114054761Y-93716666D01*
X114007142Y-93764285D01*
X113911904Y-93811904D01*
X113673809Y-93811904D01*
X113578571Y-93764285D01*
X113530952Y-93716666D01*
X113483333Y-93621428D01*
X113483333Y-93430952D01*
X113530952Y-93335714D01*
X113578571Y-93288095D01*
X113673809Y-93240476D01*
%TO.C,U6*%
X109431904Y-125752380D02*
X109431904Y-126561904D01*
X109384285Y-126657142D01*
X109336666Y-126704761D01*
X109241428Y-126752380D01*
X109050952Y-126752380D01*
X108955714Y-126704761D01*
X108908095Y-126657142D01*
X108860476Y-126561904D01*
X108860476Y-125752380D01*
X107955714Y-125752380D02*
X108146190Y-125752380D01*
X108241428Y-125800000D01*
X108289047Y-125847619D01*
X108384285Y-125990476D01*
X108431904Y-126180952D01*
X108431904Y-126561904D01*
X108384285Y-126657142D01*
X108336666Y-126704761D01*
X108241428Y-126752380D01*
X108050952Y-126752380D01*
X107955714Y-126704761D01*
X107908095Y-126657142D01*
X107860476Y-126561904D01*
X107860476Y-126323809D01*
X107908095Y-126228571D01*
X107955714Y-126180952D01*
X108050952Y-126133333D01*
X108241428Y-126133333D01*
X108336666Y-126180952D01*
X108384285Y-126228571D01*
X108431904Y-126323809D01*
%TO.C,C12*%
X122702030Y-70607106D02*
X122702030Y-70674450D01*
X122769374Y-70809137D01*
X122836717Y-70876480D01*
X122971404Y-70943824D01*
X123106091Y-70943824D01*
X123207106Y-70910152D01*
X123375465Y-70809137D01*
X123476480Y-70708122D01*
X123577496Y-70539763D01*
X123611167Y-70438748D01*
X123611167Y-70304061D01*
X123543824Y-70169374D01*
X123476480Y-70102030D01*
X123341793Y-70034687D01*
X123274450Y-70034687D01*
X121961251Y-70001015D02*
X122365312Y-70405076D01*
X122163282Y-70203045D02*
X122870389Y-69495938D01*
X122836717Y-69664297D01*
X122836717Y-69798984D01*
X122870389Y-69900000D01*
X122331641Y-69091877D02*
X122331641Y-69024534D01*
X122297969Y-68923519D01*
X122129610Y-68755160D01*
X122028595Y-68721488D01*
X121961251Y-68721488D01*
X121860236Y-68755160D01*
X121792893Y-68822503D01*
X121725549Y-68957190D01*
X121725549Y-69765312D01*
X121287816Y-69327580D01*
%TO.C,R16*%
X111952380Y-91807142D02*
X111476190Y-91473809D01*
X111952380Y-91235714D02*
X110952380Y-91235714D01*
X110952380Y-91616666D01*
X111000000Y-91711904D01*
X111047619Y-91759523D01*
X111142857Y-91807142D01*
X111285714Y-91807142D01*
X111380952Y-91759523D01*
X111428571Y-91711904D01*
X111476190Y-91616666D01*
X111476190Y-91235714D01*
X111952380Y-92759523D02*
X111952380Y-92188095D01*
X111952380Y-92473809D02*
X110952380Y-92473809D01*
X111095238Y-92378571D01*
X111190476Y-92283333D01*
X111238095Y-92188095D01*
X110952380Y-93616666D02*
X110952380Y-93426190D01*
X111000000Y-93330952D01*
X111047619Y-93283333D01*
X111190476Y-93188095D01*
X111380952Y-93140476D01*
X111761904Y-93140476D01*
X111857142Y-93188095D01*
X111904761Y-93235714D01*
X111952380Y-93330952D01*
X111952380Y-93521428D01*
X111904761Y-93616666D01*
X111857142Y-93664285D01*
X111761904Y-93711904D01*
X111523809Y-93711904D01*
X111428571Y-93664285D01*
X111380952Y-93616666D01*
X111333333Y-93521428D01*
X111333333Y-93330952D01*
X111380952Y-93235714D01*
X111428571Y-93188095D01*
X111523809Y-93140476D01*
%TO.C,L1*%
X131966666Y-112452380D02*
X132442857Y-112452380D01*
X132442857Y-111452380D01*
X131109523Y-112452380D02*
X131680952Y-112452380D01*
X131395238Y-112452380D02*
X131395238Y-111452380D01*
X131490476Y-111595238D01*
X131585714Y-111690476D01*
X131680952Y-111738095D01*
%TO.C,R3*%
X127666666Y-66152380D02*
X128000000Y-65676190D01*
X128238095Y-66152380D02*
X128238095Y-65152380D01*
X127857142Y-65152380D01*
X127761904Y-65200000D01*
X127714285Y-65247619D01*
X127666666Y-65342857D01*
X127666666Y-65485714D01*
X127714285Y-65580952D01*
X127761904Y-65628571D01*
X127857142Y-65676190D01*
X128238095Y-65676190D01*
X127333333Y-65152380D02*
X126714285Y-65152380D01*
X127047619Y-65533333D01*
X126904761Y-65533333D01*
X126809523Y-65580952D01*
X126761904Y-65628571D01*
X126714285Y-65723809D01*
X126714285Y-65961904D01*
X126761904Y-66057142D01*
X126809523Y-66104761D01*
X126904761Y-66152380D01*
X127190476Y-66152380D01*
X127285714Y-66104761D01*
X127333333Y-66057142D01*
%TO.C,RV15*%
X111702380Y-71378571D02*
X111226190Y-71045238D01*
X111702380Y-70807142D02*
X110702380Y-70807142D01*
X110702380Y-71188095D01*
X110750000Y-71283333D01*
X110797619Y-71330952D01*
X110892857Y-71378571D01*
X111035714Y-71378571D01*
X111130952Y-71330952D01*
X111178571Y-71283333D01*
X111226190Y-71188095D01*
X111226190Y-70807142D01*
X110702380Y-71664285D02*
X111702380Y-71997619D01*
X110702380Y-72330952D01*
X111702380Y-73188095D02*
X111702380Y-72616666D01*
X111702380Y-72902380D02*
X110702380Y-72902380D01*
X110845238Y-72807142D01*
X110940476Y-72711904D01*
X110988095Y-72616666D01*
X110702380Y-74092857D02*
X110702380Y-73616666D01*
X111178571Y-73569047D01*
X111130952Y-73616666D01*
X111083333Y-73711904D01*
X111083333Y-73950000D01*
X111130952Y-74045238D01*
X111178571Y-74092857D01*
X111273809Y-74140476D01*
X111511904Y-74140476D01*
X111607142Y-74092857D01*
X111654761Y-74045238D01*
X111702380Y-73950000D01*
X111702380Y-73711904D01*
X111654761Y-73616666D01*
X111607142Y-73569047D01*
%TO.C,J1*%
X81350833Y-74132380D02*
X81350833Y-74846666D01*
X81398452Y-74989523D01*
X81493690Y-75084761D01*
X81636547Y-75132380D01*
X81731785Y-75132380D01*
X80350833Y-75132380D02*
X80922261Y-75132380D01*
X80636547Y-75132380D02*
X80636547Y-74132380D01*
X80731785Y-74275238D01*
X80827023Y-74370476D01*
X80922261Y-74418095D01*
%TO.C,D4*%
X90088095Y-87452380D02*
X90088095Y-86452380D01*
X89850000Y-86452380D01*
X89707142Y-86500000D01*
X89611904Y-86595238D01*
X89564285Y-86690476D01*
X89516666Y-86880952D01*
X89516666Y-87023809D01*
X89564285Y-87214285D01*
X89611904Y-87309523D01*
X89707142Y-87404761D01*
X89850000Y-87452380D01*
X90088095Y-87452380D01*
X88659523Y-86785714D02*
X88659523Y-87452380D01*
X88897619Y-86404761D02*
X89135714Y-87119047D01*
X88516666Y-87119047D01*
%TO.C,C15*%
X88857142Y-113857142D02*
X88904761Y-113809523D01*
X88952380Y-113666666D01*
X88952380Y-113571428D01*
X88904761Y-113428571D01*
X88809523Y-113333333D01*
X88714285Y-113285714D01*
X88523809Y-113238095D01*
X88380952Y-113238095D01*
X88190476Y-113285714D01*
X88095238Y-113333333D01*
X88000000Y-113428571D01*
X87952380Y-113571428D01*
X87952380Y-113666666D01*
X88000000Y-113809523D01*
X88047619Y-113857142D01*
X88952380Y-114809523D02*
X88952380Y-114238095D01*
X88952380Y-114523809D02*
X87952380Y-114523809D01*
X88095238Y-114428571D01*
X88190476Y-114333333D01*
X88238095Y-114238095D01*
X87952380Y-115714285D02*
X87952380Y-115238095D01*
X88428571Y-115190476D01*
X88380952Y-115238095D01*
X88333333Y-115333333D01*
X88333333Y-115571428D01*
X88380952Y-115666666D01*
X88428571Y-115714285D01*
X88523809Y-115761904D01*
X88761904Y-115761904D01*
X88857142Y-115714285D01*
X88904761Y-115666666D01*
X88952380Y-115571428D01*
X88952380Y-115333333D01*
X88904761Y-115238095D01*
X88857142Y-115190476D01*
%TO.C,R20*%
X106042857Y-74402380D02*
X106376190Y-73926190D01*
X106614285Y-74402380D02*
X106614285Y-73402380D01*
X106233333Y-73402380D01*
X106138095Y-73450000D01*
X106090476Y-73497619D01*
X106042857Y-73592857D01*
X106042857Y-73735714D01*
X106090476Y-73830952D01*
X106138095Y-73878571D01*
X106233333Y-73926190D01*
X106614285Y-73926190D01*
X105661904Y-73497619D02*
X105614285Y-73450000D01*
X105519047Y-73402380D01*
X105280952Y-73402380D01*
X105185714Y-73450000D01*
X105138095Y-73497619D01*
X105090476Y-73592857D01*
X105090476Y-73688095D01*
X105138095Y-73830952D01*
X105709523Y-74402380D01*
X105090476Y-74402380D01*
X104471428Y-73402380D02*
X104376190Y-73402380D01*
X104280952Y-73450000D01*
X104233333Y-73497619D01*
X104185714Y-73592857D01*
X104138095Y-73783333D01*
X104138095Y-74021428D01*
X104185714Y-74211904D01*
X104233333Y-74307142D01*
X104280952Y-74354761D01*
X104376190Y-74402380D01*
X104471428Y-74402380D01*
X104566666Y-74354761D01*
X104614285Y-74307142D01*
X104661904Y-74211904D01*
X104709523Y-74021428D01*
X104709523Y-73783333D01*
X104661904Y-73592857D01*
X104614285Y-73497619D01*
X104566666Y-73450000D01*
X104471428Y-73402380D01*
%TO.C,R4*%
X127666666Y-68152380D02*
X128000000Y-67676190D01*
X128238095Y-68152380D02*
X128238095Y-67152380D01*
X127857142Y-67152380D01*
X127761904Y-67200000D01*
X127714285Y-67247619D01*
X127666666Y-67342857D01*
X127666666Y-67485714D01*
X127714285Y-67580952D01*
X127761904Y-67628571D01*
X127857142Y-67676190D01*
X128238095Y-67676190D01*
X126809523Y-67485714D02*
X126809523Y-68152380D01*
X127047619Y-67104761D02*
X127285714Y-67819047D01*
X126666666Y-67819047D01*
%TO.C,U2*%
X143232380Y-59738095D02*
X144041904Y-59738095D01*
X144137142Y-59785714D01*
X144184761Y-59833333D01*
X144232380Y-59928571D01*
X144232380Y-60119047D01*
X144184761Y-60214285D01*
X144137142Y-60261904D01*
X144041904Y-60309523D01*
X143232380Y-60309523D01*
X143327619Y-60738095D02*
X143280000Y-60785714D01*
X143232380Y-60880952D01*
X143232380Y-61119047D01*
X143280000Y-61214285D01*
X143327619Y-61261904D01*
X143422857Y-61309523D01*
X143518095Y-61309523D01*
X143660952Y-61261904D01*
X144232380Y-60690476D01*
X144232380Y-61309523D01*
%TO.C,RV12*%
X104702380Y-55828571D02*
X104226190Y-55495238D01*
X104702380Y-55257142D02*
X103702380Y-55257142D01*
X103702380Y-55638095D01*
X103750000Y-55733333D01*
X103797619Y-55780952D01*
X103892857Y-55828571D01*
X104035714Y-55828571D01*
X104130952Y-55780952D01*
X104178571Y-55733333D01*
X104226190Y-55638095D01*
X104226190Y-55257142D01*
X103702380Y-56114285D02*
X104702380Y-56447619D01*
X103702380Y-56780952D01*
X104702380Y-57638095D02*
X104702380Y-57066666D01*
X104702380Y-57352380D02*
X103702380Y-57352380D01*
X103845238Y-57257142D01*
X103940476Y-57161904D01*
X103988095Y-57066666D01*
X103797619Y-58019047D02*
X103750000Y-58066666D01*
X103702380Y-58161904D01*
X103702380Y-58400000D01*
X103750000Y-58495238D01*
X103797619Y-58542857D01*
X103892857Y-58590476D01*
X103988095Y-58590476D01*
X104130952Y-58542857D01*
X104702380Y-57971428D01*
X104702380Y-58590476D01*
%TO.C,U3*%
X142732380Y-73738095D02*
X143541904Y-73738095D01*
X143637142Y-73785714D01*
X143684761Y-73833333D01*
X143732380Y-73928571D01*
X143732380Y-74119047D01*
X143684761Y-74214285D01*
X143637142Y-74261904D01*
X143541904Y-74309523D01*
X142732380Y-74309523D01*
X142732380Y-74690476D02*
X142732380Y-75309523D01*
X143113333Y-74976190D01*
X143113333Y-75119047D01*
X143160952Y-75214285D01*
X143208571Y-75261904D01*
X143303809Y-75309523D01*
X143541904Y-75309523D01*
X143637142Y-75261904D01*
X143684761Y-75214285D01*
X143732380Y-75119047D01*
X143732380Y-74833333D01*
X143684761Y-74738095D01*
X143637142Y-74690476D01*
%TO.C,C7*%
X148357142Y-93783333D02*
X148404761Y-93735714D01*
X148452380Y-93592857D01*
X148452380Y-93497619D01*
X148404761Y-93354761D01*
X148309523Y-93259523D01*
X148214285Y-93211904D01*
X148023809Y-93164285D01*
X147880952Y-93164285D01*
X147690476Y-93211904D01*
X147595238Y-93259523D01*
X147500000Y-93354761D01*
X147452380Y-93497619D01*
X147452380Y-93592857D01*
X147500000Y-93735714D01*
X147547619Y-93783333D01*
X147452380Y-94116666D02*
X147452380Y-94783333D01*
X148452380Y-94354761D01*
%TO.C,J5*%
X81603333Y-96552380D02*
X81603333Y-97266666D01*
X81650952Y-97409523D01*
X81746190Y-97504761D01*
X81889047Y-97552380D01*
X81984285Y-97552380D01*
X80650952Y-96552380D02*
X81127142Y-96552380D01*
X81174761Y-97028571D01*
X81127142Y-96980952D01*
X81031904Y-96933333D01*
X80793809Y-96933333D01*
X80698571Y-96980952D01*
X80650952Y-97028571D01*
X80603333Y-97123809D01*
X80603333Y-97361904D01*
X80650952Y-97457142D01*
X80698571Y-97504761D01*
X80793809Y-97552380D01*
X81031904Y-97552380D01*
X81127142Y-97504761D01*
X81174761Y-97457142D01*
%TO.C,R8*%
X105066666Y-76652380D02*
X105400000Y-76176190D01*
X105638095Y-76652380D02*
X105638095Y-75652380D01*
X105257142Y-75652380D01*
X105161904Y-75700000D01*
X105114285Y-75747619D01*
X105066666Y-75842857D01*
X105066666Y-75985714D01*
X105114285Y-76080952D01*
X105161904Y-76128571D01*
X105257142Y-76176190D01*
X105638095Y-76176190D01*
X104495238Y-76080952D02*
X104590476Y-76033333D01*
X104638095Y-75985714D01*
X104685714Y-75890476D01*
X104685714Y-75842857D01*
X104638095Y-75747619D01*
X104590476Y-75700000D01*
X104495238Y-75652380D01*
X104304761Y-75652380D01*
X104209523Y-75700000D01*
X104161904Y-75747619D01*
X104114285Y-75842857D01*
X104114285Y-75890476D01*
X104161904Y-75985714D01*
X104209523Y-76033333D01*
X104304761Y-76080952D01*
X104495238Y-76080952D01*
X104590476Y-76128571D01*
X104638095Y-76176190D01*
X104685714Y-76271428D01*
X104685714Y-76461904D01*
X104638095Y-76557142D01*
X104590476Y-76604761D01*
X104495238Y-76652380D01*
X104304761Y-76652380D01*
X104209523Y-76604761D01*
X104161904Y-76557142D01*
X104114285Y-76461904D01*
X104114285Y-76271428D01*
X104161904Y-76176190D01*
X104209523Y-76128571D01*
X104304761Y-76080952D01*
%TO.C,R17*%
X105992857Y-72552380D02*
X106326190Y-72076190D01*
X106564285Y-72552380D02*
X106564285Y-71552380D01*
X106183333Y-71552380D01*
X106088095Y-71600000D01*
X106040476Y-71647619D01*
X105992857Y-71742857D01*
X105992857Y-71885714D01*
X106040476Y-71980952D01*
X106088095Y-72028571D01*
X106183333Y-72076190D01*
X106564285Y-72076190D01*
X105040476Y-72552380D02*
X105611904Y-72552380D01*
X105326190Y-72552380D02*
X105326190Y-71552380D01*
X105421428Y-71695238D01*
X105516666Y-71790476D01*
X105611904Y-71838095D01*
X104707142Y-71552380D02*
X104040476Y-71552380D01*
X104469047Y-72552380D01*
%TO.C,R9*%
X88666666Y-52252380D02*
X89000000Y-51776190D01*
X89238095Y-52252380D02*
X89238095Y-51252380D01*
X88857142Y-51252380D01*
X88761904Y-51300000D01*
X88714285Y-51347619D01*
X88666666Y-51442857D01*
X88666666Y-51585714D01*
X88714285Y-51680952D01*
X88761904Y-51728571D01*
X88857142Y-51776190D01*
X89238095Y-51776190D01*
X88190476Y-52252380D02*
X88000000Y-52252380D01*
X87904761Y-52204761D01*
X87857142Y-52157142D01*
X87761904Y-52014285D01*
X87714285Y-51823809D01*
X87714285Y-51442857D01*
X87761904Y-51347619D01*
X87809523Y-51300000D01*
X87904761Y-51252380D01*
X88095238Y-51252380D01*
X88190476Y-51300000D01*
X88238095Y-51347619D01*
X88285714Y-51442857D01*
X88285714Y-51680952D01*
X88238095Y-51776190D01*
X88190476Y-51823809D01*
X88095238Y-51871428D01*
X87904761Y-51871428D01*
X87809523Y-51823809D01*
X87761904Y-51776190D01*
X87714285Y-51680952D01*
%TO.C,L4*%
X83266666Y-101952380D02*
X83742857Y-101952380D01*
X83742857Y-100952380D01*
X82504761Y-101285714D02*
X82504761Y-101952380D01*
X82742857Y-100904761D02*
X82980952Y-101619047D01*
X82361904Y-101619047D01*
%TO.C,C10*%
X140677142Y-54157142D02*
X140724761Y-54109523D01*
X140772380Y-53966666D01*
X140772380Y-53871428D01*
X140724761Y-53728571D01*
X140629523Y-53633333D01*
X140534285Y-53585714D01*
X140343809Y-53538095D01*
X140200952Y-53538095D01*
X140010476Y-53585714D01*
X139915238Y-53633333D01*
X139820000Y-53728571D01*
X139772380Y-53871428D01*
X139772380Y-53966666D01*
X139820000Y-54109523D01*
X139867619Y-54157142D01*
X140772380Y-55109523D02*
X140772380Y-54538095D01*
X140772380Y-54823809D02*
X139772380Y-54823809D01*
X139915238Y-54728571D01*
X140010476Y-54633333D01*
X140058095Y-54538095D01*
X139772380Y-55728571D02*
X139772380Y-55823809D01*
X139820000Y-55919047D01*
X139867619Y-55966666D01*
X139962857Y-56014285D01*
X140153333Y-56061904D01*
X140391428Y-56061904D01*
X140581904Y-56014285D01*
X140677142Y-55966666D01*
X140724761Y-55919047D01*
X140772380Y-55823809D01*
X140772380Y-55728571D01*
X140724761Y-55633333D01*
X140677142Y-55585714D01*
X140581904Y-55538095D01*
X140391428Y-55490476D01*
X140153333Y-55490476D01*
X139962857Y-55538095D01*
X139867619Y-55585714D01*
X139820000Y-55633333D01*
X139772380Y-55728571D01*
%TO.C,J6*%
X113852380Y-73516666D02*
X114566666Y-73516666D01*
X114709523Y-73469047D01*
X114804761Y-73373809D01*
X114852380Y-73230952D01*
X114852380Y-73135714D01*
X113852380Y-74421428D02*
X113852380Y-74230952D01*
X113900000Y-74135714D01*
X113947619Y-74088095D01*
X114090476Y-73992857D01*
X114280952Y-73945238D01*
X114661904Y-73945238D01*
X114757142Y-73992857D01*
X114804761Y-74040476D01*
X114852380Y-74135714D01*
X114852380Y-74326190D01*
X114804761Y-74421428D01*
X114757142Y-74469047D01*
X114661904Y-74516666D01*
X114423809Y-74516666D01*
X114328571Y-74469047D01*
X114280952Y-74421428D01*
X114233333Y-74326190D01*
X114233333Y-74135714D01*
X114280952Y-74040476D01*
X114328571Y-73992857D01*
X114423809Y-73945238D01*
%TO.C,Q2*%
X113597619Y-80604761D02*
X113550000Y-80509523D01*
X113454761Y-80414285D01*
X113311904Y-80271428D01*
X113264285Y-80176190D01*
X113264285Y-80080952D01*
X113502380Y-80128571D02*
X113454761Y-80033333D01*
X113359523Y-79938095D01*
X113169047Y-79890476D01*
X112835714Y-79890476D01*
X112645238Y-79938095D01*
X112550000Y-80033333D01*
X112502380Y-80128571D01*
X112502380Y-80319047D01*
X112550000Y-80414285D01*
X112645238Y-80509523D01*
X112835714Y-80557142D01*
X113169047Y-80557142D01*
X113359523Y-80509523D01*
X113454761Y-80414285D01*
X113502380Y-80319047D01*
X113502380Y-80128571D01*
X112597619Y-80938095D02*
X112550000Y-80985714D01*
X112502380Y-81080952D01*
X112502380Y-81319047D01*
X112550000Y-81414285D01*
X112597619Y-81461904D01*
X112692857Y-81509523D01*
X112788095Y-81509523D01*
X112930952Y-81461904D01*
X113502380Y-80890476D01*
X113502380Y-81509523D01*
%TO.C,L2*%
X83266666Y-112452380D02*
X83742857Y-112452380D01*
X83742857Y-111452380D01*
X82980952Y-111547619D02*
X82933333Y-111500000D01*
X82838095Y-111452380D01*
X82600000Y-111452380D01*
X82504761Y-111500000D01*
X82457142Y-111547619D01*
X82409523Y-111642857D01*
X82409523Y-111738095D01*
X82457142Y-111880952D01*
X83028571Y-112452380D01*
X82409523Y-112452380D01*
%TO.C,R2*%
X112866666Y-70102380D02*
X113200000Y-69626190D01*
X113438095Y-70102380D02*
X113438095Y-69102380D01*
X113057142Y-69102380D01*
X112961904Y-69150000D01*
X112914285Y-69197619D01*
X112866666Y-69292857D01*
X112866666Y-69435714D01*
X112914285Y-69530952D01*
X112961904Y-69578571D01*
X113057142Y-69626190D01*
X113438095Y-69626190D01*
X112485714Y-69197619D02*
X112438095Y-69150000D01*
X112342857Y-69102380D01*
X112104761Y-69102380D01*
X112009523Y-69150000D01*
X111961904Y-69197619D01*
X111914285Y-69292857D01*
X111914285Y-69388095D01*
X111961904Y-69530952D01*
X112533333Y-70102380D01*
X111914285Y-70102380D01*
%TO.C,C24*%
X127857142Y-108357142D02*
X127904761Y-108309523D01*
X127952380Y-108166666D01*
X127952380Y-108071428D01*
X127904761Y-107928571D01*
X127809523Y-107833333D01*
X127714285Y-107785714D01*
X127523809Y-107738095D01*
X127380952Y-107738095D01*
X127190476Y-107785714D01*
X127095238Y-107833333D01*
X127000000Y-107928571D01*
X126952380Y-108071428D01*
X126952380Y-108166666D01*
X127000000Y-108309523D01*
X127047619Y-108357142D01*
X127047619Y-108738095D02*
X127000000Y-108785714D01*
X126952380Y-108880952D01*
X126952380Y-109119047D01*
X127000000Y-109214285D01*
X127047619Y-109261904D01*
X127142857Y-109309523D01*
X127238095Y-109309523D01*
X127380952Y-109261904D01*
X127952380Y-108690476D01*
X127952380Y-109309523D01*
X127285714Y-110166666D02*
X127952380Y-110166666D01*
X126904761Y-109928571D02*
X127619047Y-109690476D01*
X127619047Y-110309523D01*
D12*
%TO.C,R5*%
X155735000Y-115472936D02*
X155735000Y-115927064D01*
X154265000Y-115472936D02*
X154265000Y-115927064D01*
%TO.C,R7*%
X102227064Y-69265000D02*
X101772936Y-69265000D01*
X102227064Y-70735000D02*
X101772936Y-70735000D01*
%TO.C,C9*%
X145161252Y-72635000D02*
X144638748Y-72635000D01*
X145161252Y-71165000D02*
X144638748Y-71165000D01*
%TO.C,J8*%
X140210000Y-100000000D02*
X140210000Y-110380000D01*
X139610000Y-105660000D02*
X140210000Y-105660000D01*
X135190000Y-101380000D02*
X134190000Y-101380000D01*
X134190000Y-109000000D02*
X135190000Y-109000000D01*
X134190000Y-100000000D02*
X140210000Y-100000000D01*
X134190000Y-108750000D02*
X135190000Y-108750000D01*
X140210000Y-109800000D02*
X139610000Y-109800000D01*
X139610000Y-103120000D02*
X140210000Y-103120000D01*
X139610000Y-109800000D02*
X139610000Y-108200000D01*
X140210000Y-107260000D02*
X139610000Y-107260000D01*
X134190000Y-110380000D02*
X134190000Y-100000000D01*
X139610000Y-100580000D02*
X140210000Y-100580000D01*
X134190000Y-101630000D02*
X135190000Y-101630000D01*
X139610000Y-108200000D02*
X140210000Y-108200000D01*
X140210000Y-104720000D02*
X139610000Y-104720000D01*
X135190000Y-109000000D02*
X135190000Y-101380000D01*
X140210000Y-110380000D02*
X134190000Y-110380000D01*
X135190000Y-109000000D02*
X135720000Y-108750000D01*
X139180000Y-110670000D02*
X135180000Y-110670000D01*
X139610000Y-104720000D02*
X139610000Y-103120000D01*
X139610000Y-107260000D02*
X139610000Y-105660000D01*
X135720000Y-101630000D02*
X135190000Y-101380000D01*
X139610000Y-102180000D02*
X139610000Y-100580000D01*
X135720000Y-108750000D02*
X135720000Y-101630000D01*
X140210000Y-102180000D02*
X139610000Y-102180000D01*
%TO.C,C6*%
X124261252Y-76635000D02*
X123738748Y-76635000D01*
X124261252Y-75165000D02*
X123738748Y-75165000D01*
%TO.C,R31*%
X149227064Y-86765000D02*
X148772936Y-86765000D01*
X149227064Y-88235000D02*
X148772936Y-88235000D01*
%TO.C,D3*%
X90600000Y-92150000D02*
X90600000Y-88850000D01*
X90600000Y-92150000D02*
X97500000Y-92150000D01*
X90600000Y-88850000D02*
X97500000Y-88850000D01*
%TO.C,C8*%
X149765000Y-91261252D02*
X149765000Y-90738748D01*
X151235000Y-91261252D02*
X151235000Y-90738748D01*
%TO.C,D6*%
X90600000Y-78150000D02*
X90600000Y-74850000D01*
X90600000Y-78150000D02*
X97500000Y-78150000D01*
X90600000Y-74850000D02*
X97500000Y-74850000D01*
%TO.C,J4*%
X91520000Y-72020000D02*
X91520000Y-69980000D01*
X95410000Y-70530000D02*
X95410000Y-68930000D01*
X89990000Y-73650000D02*
X89990000Y-68350000D01*
X95410000Y-71470000D02*
X96010000Y-71470000D01*
X91520000Y-69980000D02*
X90990000Y-69730000D01*
X96010000Y-70530000D02*
X95410000Y-70530000D01*
X89990000Y-68350000D02*
X96010000Y-68350000D01*
X94980000Y-73940000D02*
X90980000Y-73940000D01*
X89990000Y-72020000D02*
X90990000Y-72020000D01*
X95410000Y-68930000D02*
X96010000Y-68930000D01*
X96010000Y-73650000D02*
X89990000Y-73650000D01*
X89990000Y-72270000D02*
X90990000Y-72270000D01*
X95410000Y-73070000D02*
X95410000Y-71470000D01*
X89990000Y-69980000D02*
X90990000Y-69980000D01*
X96010000Y-68350000D02*
X96010000Y-73650000D01*
X90990000Y-69730000D02*
X89990000Y-69730000D01*
X96010000Y-73070000D02*
X95410000Y-73070000D01*
X90990000Y-72270000D02*
X90990000Y-69730000D01*
X90990000Y-72270000D02*
X91520000Y-72020000D01*
%TO.C,D1*%
X92200000Y-59050000D02*
X92200000Y-57350000D01*
X92200000Y-59050000D02*
X94750000Y-59050000D01*
X92200000Y-57350000D02*
X94750000Y-57350000D01*
%TO.C,R23*%
X144865000Y-115472936D02*
X144865000Y-115927064D01*
X146335000Y-115472936D02*
X146335000Y-115927064D01*
%TO.C,R6*%
X99735000Y-62272936D02*
X99735000Y-62727064D01*
X98265000Y-62272936D02*
X98265000Y-62727064D01*
%TO.C,IC1*%
X136640000Y-97060000D02*
X136640000Y-96815000D01*
X140500000Y-97060000D02*
X144360000Y-97060000D01*
X140500000Y-97060000D02*
X136640000Y-97060000D01*
X140500000Y-78940000D02*
X144360000Y-78940000D01*
X144360000Y-79185000D02*
X146175000Y-79185000D01*
X136640000Y-78940000D02*
X136640000Y-79185000D01*
X144360000Y-78940000D02*
X144360000Y-79185000D01*
X140500000Y-78940000D02*
X136640000Y-78940000D01*
X144360000Y-97060000D02*
X144360000Y-96815000D01*
%TO.C,R22*%
X92627064Y-53935000D02*
X92172936Y-53935000D01*
X92627064Y-52465000D02*
X92172936Y-52465000D01*
%TO.C,D5*%
X90600000Y-85150000D02*
X90600000Y-81850000D01*
X90600000Y-81850000D02*
X97500000Y-81850000D01*
X90600000Y-85150000D02*
X97500000Y-85150000D01*
%TO.C,RV13*%
X108500000Y-63600000D02*
X105600000Y-63600000D01*
X105600000Y-63600000D02*
X105600000Y-63000000D01*
X109600000Y-61800000D02*
X109600000Y-62200000D01*
X108500000Y-60400000D02*
X105600000Y-60400000D01*
X105600000Y-60400000D02*
X105600000Y-61000000D01*
X110100000Y-60200000D02*
X110100000Y-60900000D01*
X109400000Y-60200000D02*
X110100000Y-60200000D01*
%TO.C,C11*%
X124515000Y-72638748D02*
X124515000Y-73161252D01*
X125985000Y-72638748D02*
X125985000Y-73161252D01*
%TO.C,D7*%
X90600000Y-78350000D02*
X97500000Y-78350000D01*
X90600000Y-81650000D02*
X90600000Y-78350000D01*
X90600000Y-81650000D02*
X97500000Y-81650000D01*
%TO.C,R19*%
X110272936Y-76735000D02*
X110727064Y-76735000D01*
X110272936Y-75265000D02*
X110727064Y-75265000D01*
%TO.C,RV14*%
X109600000Y-66800000D02*
X109600000Y-67200000D01*
X109400000Y-65200000D02*
X110100000Y-65200000D01*
X108500000Y-68600000D02*
X105600000Y-68600000D01*
X105600000Y-68600000D02*
X105600000Y-68000000D01*
X108500000Y-65400000D02*
X105600000Y-65400000D01*
X105600000Y-65400000D02*
X105600000Y-66000000D01*
X110100000Y-65200000D02*
X110100000Y-65900000D01*
%TO.C,R21*%
X134272936Y-54865000D02*
X134727064Y-54865000D01*
X134272936Y-56335000D02*
X134727064Y-56335000D01*
%TO.C,C5*%
X129265000Y-81261252D02*
X129265000Y-80738748D01*
X130735000Y-81261252D02*
X130735000Y-80738748D01*
%TO.C,R24*%
X97235000Y-62727064D02*
X97235000Y-62272936D01*
X95765000Y-62727064D02*
X95765000Y-62272936D01*
%TO.C,R1*%
X113027064Y-66735000D02*
X112572936Y-66735000D01*
X113027064Y-65265000D02*
X112572936Y-65265000D01*
%TO.C,D2*%
X90600000Y-95650000D02*
X90600000Y-92350000D01*
X90600000Y-95650000D02*
X97500000Y-95650000D01*
X90600000Y-92350000D02*
X97500000Y-92350000D01*
%TO.C,J3*%
X111180000Y-83500000D02*
X110180000Y-83000000D01*
X111180000Y-82500000D02*
X111180000Y-83500000D01*
X108480000Y-90130000D02*
X109790000Y-90130000D01*
X108480000Y-86030000D02*
X108480000Y-79090000D01*
X101980000Y-79090000D02*
X101980000Y-97070000D01*
X109790000Y-98370000D02*
X109790000Y-77790000D01*
X100670000Y-98370000D02*
X109790000Y-98370000D01*
X109790000Y-86030000D02*
X108480000Y-86030000D01*
X108480000Y-90130000D02*
X108480000Y-90130000D01*
X108480000Y-79090000D02*
X101980000Y-79090000D01*
X101980000Y-97070000D02*
X108480000Y-97070000D01*
X110180000Y-83000000D02*
X111180000Y-82500000D01*
X109790000Y-77790000D02*
X100670000Y-77790000D01*
X100670000Y-77790000D02*
X100670000Y-98370000D01*
X108480000Y-97070000D02*
X108480000Y-90130000D01*
%TO.C,U4*%
X120150000Y-77290000D02*
X123910000Y-77290000D01*
X123910000Y-77290000D02*
X123910000Y-78550000D01*
X123910000Y-84110000D02*
X123910000Y-82850000D01*
X117900000Y-84110000D02*
X123910000Y-84110000D01*
%TO.C,J2*%
X154920000Y-123430000D02*
X154920000Y-124030000D01*
X153320000Y-123430000D02*
X154920000Y-123430000D01*
X146500000Y-119010000D02*
X154120000Y-119010000D01*
X145700000Y-124030000D02*
X145700000Y-123430000D01*
X155500000Y-118010000D02*
X155500000Y-124030000D01*
X145700000Y-123430000D02*
X147300000Y-123430000D01*
X148240000Y-124030000D02*
X148240000Y-123430000D01*
X150780000Y-123430000D02*
X152380000Y-123430000D01*
X145120000Y-124030000D02*
X145120000Y-118010000D01*
X146750000Y-119540000D02*
X153870000Y-119540000D01*
X147300000Y-123430000D02*
X147300000Y-124030000D01*
X153320000Y-124030000D02*
X153320000Y-123430000D01*
X150780000Y-124030000D02*
X150780000Y-123430000D01*
X155500000Y-124030000D02*
X145120000Y-124030000D01*
X153870000Y-118010000D02*
X153870000Y-119010000D01*
X153870000Y-119540000D02*
X154120000Y-119010000D01*
X145120000Y-118010000D02*
X155500000Y-118010000D01*
X146750000Y-118010000D02*
X146750000Y-119010000D01*
X148240000Y-123430000D02*
X149840000Y-123430000D01*
X144830000Y-123000000D02*
X144830000Y-119000000D01*
X146500000Y-119010000D02*
X146750000Y-119540000D01*
X146500000Y-118010000D02*
X146500000Y-119010000D01*
X149840000Y-123430000D02*
X149840000Y-124030000D01*
X152380000Y-123430000D02*
X152380000Y-124030000D01*
X154120000Y-119010000D02*
X154120000Y-118010000D01*
%TO.C,U1*%
X118500000Y-67935000D02*
X120450000Y-67935000D01*
X118500000Y-59065000D02*
X116550000Y-59065000D01*
X118500000Y-67935000D02*
X115050000Y-67935000D01*
X118500000Y-59065000D02*
X120450000Y-59065000D01*
%TO.C,L3*%
X130090000Y-104447936D02*
X130090000Y-108552064D01*
X133510000Y-104447936D02*
X133510000Y-108552064D01*
%TO.C,C3*%
X115238748Y-78835000D02*
X115761252Y-78835000D01*
X115238748Y-77365000D02*
X115761252Y-77365000D01*
%TO.C,C4*%
X128235000Y-81261252D02*
X128235000Y-80738748D01*
X126765000Y-81261252D02*
X126765000Y-80738748D01*
%TO.C,R18*%
X92627064Y-55935000D02*
X92172936Y-55935000D01*
X92627064Y-54465000D02*
X92172936Y-54465000D01*
%TO.C,C1*%
X103235000Y-65738748D02*
X103235000Y-66261252D01*
X101765000Y-65738748D02*
X101765000Y-66261252D01*
%TO.C,C2*%
X112265000Y-61261252D02*
X112265000Y-60738748D01*
X113735000Y-61261252D02*
X113735000Y-60738748D01*
%TO.C,R11*%
X88172936Y-55935000D02*
X88627064Y-55935000D01*
X88172936Y-54465000D02*
X88627064Y-54465000D01*
%TO.C,Q1*%
X113940000Y-85000000D02*
X113940000Y-85650000D01*
X113940000Y-85000000D02*
X113940000Y-84350000D01*
X117060000Y-85000000D02*
X117060000Y-86675000D01*
X117060000Y-85000000D02*
X117060000Y-84350000D01*
%TO.C,J7*%
X75510000Y-113040000D02*
X76510000Y-113040000D01*
X75510000Y-107960000D02*
X75510000Y-113040000D01*
X74980000Y-112790000D02*
X75510000Y-113040000D01*
X71090000Y-109700000D02*
X71090000Y-111300000D01*
X71090000Y-107160000D02*
X71090000Y-108760000D01*
X70490000Y-107160000D02*
X71090000Y-107160000D01*
X76510000Y-112790000D02*
X75510000Y-112790000D01*
X74980000Y-108210000D02*
X74980000Y-112790000D01*
X75510000Y-107960000D02*
X74980000Y-108210000D01*
X70490000Y-106580000D02*
X76510000Y-106580000D01*
X70490000Y-112240000D02*
X71090000Y-112240000D01*
X71090000Y-111300000D02*
X70490000Y-111300000D01*
X71520000Y-106290000D02*
X75520000Y-106290000D01*
X71090000Y-108760000D02*
X70490000Y-108760000D01*
X76510000Y-107960000D02*
X75510000Y-107960000D01*
X76510000Y-108210000D02*
X75510000Y-108210000D01*
X71090000Y-113840000D02*
X70490000Y-113840000D01*
X76510000Y-114420000D02*
X70490000Y-114420000D01*
X70490000Y-114420000D02*
X70490000Y-106580000D01*
X70490000Y-109700000D02*
X71090000Y-109700000D01*
X76510000Y-106580000D02*
X76510000Y-114420000D01*
X71090000Y-112240000D02*
X71090000Y-113840000D01*
%TO.C,C16*%
X114235000Y-89261252D02*
X114235000Y-88738748D01*
X112765000Y-89261252D02*
X112765000Y-88738748D01*
%TO.C,U6*%
X109047397Y-103704204D02*
X118747397Y-103704204D01*
X124528681Y-121509705D02*
X123728681Y-121509705D01*
X105912670Y-113423330D02*
X105990233Y-113500894D01*
X129275000Y-102875000D02*
X129275000Y-124325000D01*
X100261636Y-103806783D02*
X96661636Y-103806783D01*
X105990233Y-113500894D02*
X105990233Y-122852390D01*
X102190233Y-108793330D02*
X102190233Y-113423330D01*
X126140000Y-120910000D02*
X126140000Y-124070000D01*
X111428594Y-122482706D02*
X111440553Y-122507705D01*
X85525000Y-102875000D02*
X129275000Y-102875000D01*
X96561636Y-104181783D02*
X96111636Y-104181783D01*
X95830233Y-113500894D02*
X95907797Y-113423330D01*
X96111636Y-104181783D02*
X96111636Y-105931783D01*
X85530000Y-120915000D02*
X88660000Y-120910000D01*
X101330233Y-108793330D02*
X101330233Y-113423330D01*
X97480233Y-123143329D02*
X104340233Y-123143329D01*
X95829233Y-121485851D02*
X95829233Y-121324313D01*
X95907797Y-113423330D02*
X105912670Y-113423330D01*
X126140000Y-106290000D02*
X129255000Y-106290000D01*
X124528681Y-121829705D02*
X123728681Y-121829705D01*
X85530000Y-103130000D02*
X88660000Y-103130000D01*
X100362636Y-105695304D02*
X100362636Y-105789856D01*
X110379783Y-118907706D02*
X110379783Y-123807705D01*
X98790233Y-108793330D02*
X99630233Y-108793330D01*
X100811636Y-105931783D02*
X100811636Y-104181783D01*
X111428594Y-122482706D02*
X111404147Y-122487938D01*
X129275000Y-124325000D02*
X85525000Y-124325000D01*
X95830233Y-122852390D02*
X97480233Y-123143329D01*
X120379783Y-123807705D02*
X120379783Y-118907706D01*
X88660000Y-121220000D02*
X88660000Y-120910000D01*
X104730233Y-108793330D02*
X104730233Y-113423330D01*
X103890233Y-108793330D02*
X104730233Y-108793330D01*
X123728681Y-121509705D02*
X123728681Y-123109704D01*
X96661636Y-106306783D02*
X100261636Y-106306783D01*
X113519014Y-122507705D02*
X111440553Y-122507705D01*
X99491358Y-106206783D02*
X99491358Y-103906783D01*
X103890233Y-108793330D02*
X103890233Y-113423330D01*
X100361636Y-106206783D02*
X100361636Y-103906783D01*
X103030233Y-108793330D02*
X103030233Y-113423330D01*
X120329783Y-118857706D02*
X110429783Y-118857706D01*
X111428594Y-122482706D02*
X111435764Y-122513925D01*
X102190233Y-108793330D02*
X103030233Y-108793330D01*
X105990233Y-122063330D02*
X95830233Y-122063330D01*
X119022312Y-123858705D02*
X118988357Y-123858705D01*
X100490233Y-108793330D02*
X101330233Y-108793330D01*
X110429783Y-123857705D02*
X120329783Y-123857705D01*
X88660000Y-106290000D02*
X88660000Y-103130000D01*
X118938978Y-123858705D02*
X118894106Y-123858705D01*
X97930233Y-108793330D02*
X97930233Y-113423330D01*
X126140000Y-120910000D02*
X129300000Y-120910000D01*
X98790233Y-108793330D02*
X98790233Y-113423330D01*
X126140000Y-103130000D02*
X126140000Y-106290000D01*
X104340233Y-123143329D02*
X105990233Y-122852390D01*
X111440553Y-122007706D02*
X113519014Y-122007706D01*
X97090233Y-108793330D02*
X97930233Y-108793330D01*
X118747397Y-116404204D02*
X109047397Y-116404204D01*
X100811636Y-104181783D02*
X100361636Y-104181783D01*
X126140000Y-103130000D02*
X129255000Y-103130000D01*
X85525000Y-124325000D02*
X85525000Y-102875000D01*
X107547397Y-114904204D02*
X107547397Y-105204204D01*
X99630233Y-108793330D02*
X99630233Y-113423330D01*
X95830233Y-113500894D02*
X95830233Y-122852390D01*
X126140000Y-124070000D02*
X129255000Y-124070000D01*
X85530000Y-106290000D02*
X88660000Y-106290000D01*
X100490233Y-108793330D02*
X100490233Y-113423330D01*
X120247397Y-105204204D02*
X120247397Y-114904204D01*
X96561636Y-103906783D02*
X96561636Y-106206783D01*
X100361636Y-105931783D02*
X100811636Y-105931783D01*
X123728681Y-122789704D02*
X124528681Y-122789704D01*
X96111636Y-105931783D02*
X96561636Y-105931783D01*
X124528681Y-123109704D02*
X123728681Y-123109704D01*
X111416385Y-122539100D02*
X111440553Y-122507705D01*
X85530000Y-124070000D02*
X86830000Y-124070000D01*
X124528681Y-123109704D02*
X124528681Y-121509705D01*
X97090233Y-108793330D02*
X97090233Y-113423330D01*
X96561636Y-106206783D02*
G75*
G03*
X96661636Y-106306783I99999J-1D01*
G01*
X108861131Y-113023990D02*
G75*
G03*
X108895218Y-112889817I-52907J84858D01*
G01*
X111061784Y-115056383D02*
G75*
G03*
X116733011Y-115056383I2835614J5002178D01*
G01*
X116867183Y-115090469D02*
G75*
G03*
X118933662Y-113023989I1272855J793625D01*
G01*
X118899576Y-112889817D02*
G75*
G03*
X118899576Y-107218590I-5002178J2835614D01*
G01*
X100361636Y-103906783D02*
G75*
G03*
X100261636Y-103806783I-99999J1D01*
G01*
X116867183Y-115090469D02*
G75*
G03*
X116733011Y-115056383I-84857J-52908D01*
G01*
X116733011Y-105052024D02*
G75*
G03*
X111061783Y-105052024I-2835614J-5002180D01*
G01*
X111061783Y-115056383D02*
G75*
G03*
X110927611Y-115090469I-49315J-86994D01*
G01*
X120247397Y-105204204D02*
G75*
G03*
X118747397Y-103704204I-1500001J-1D01*
G01*
X108895218Y-107218591D02*
G75*
G03*
X108861132Y-107084418I-86994J49316D01*
G01*
X118747397Y-116404204D02*
G75*
G03*
X120247397Y-114904204I-1J1500001D01*
G01*
X118933662Y-107084418D02*
G75*
G03*
X116867183Y-105017938I-793624J1272856D01*
G01*
X108861132Y-113023989D02*
G75*
G03*
X110927611Y-115090469I793624J-1272856D01*
G01*
X96661636Y-103806783D02*
G75*
G03*
X96561636Y-103906783I-1J-99999D01*
G01*
X109047397Y-103704204D02*
G75*
G03*
X107547397Y-105204204I1J-1500001D01*
G01*
X110927611Y-105017938D02*
G75*
G03*
X111061783Y-105052024I84857J52908D01*
G01*
X120329783Y-123857705D02*
G75*
G03*
X120379783Y-123807705I-1J50001D01*
G01*
X111404148Y-122027473D02*
G75*
G03*
X111416385Y-121976310I1075638J-230223D01*
G01*
X116733011Y-105052024D02*
G75*
G03*
X116867183Y-105017938I49315J86994D01*
G01*
X110379783Y-123807705D02*
G75*
G03*
X110429783Y-123857705I50001J1D01*
G01*
X107547397Y-114904204D02*
G75*
G03*
X109047397Y-116404204I1500001J1D01*
G01*
X108895218Y-107218590D02*
G75*
G03*
X108895218Y-112889817I5002178J-2835613D01*
G01*
X100261636Y-106306783D02*
G75*
G03*
X100361636Y-106206783I1J99999D01*
G01*
X118933663Y-107084417D02*
G75*
G03*
X118899576Y-107218590I52907J-84858D01*
G01*
X118899576Y-112889816D02*
G75*
G03*
X118933662Y-113023989I86994J-49316D01*
G01*
X120379783Y-118907706D02*
G75*
G03*
X120329783Y-118857706I-50001J-1D01*
G01*
X110429783Y-118857706D02*
G75*
G03*
X110379783Y-118907706I1J-50001D01*
G01*
X110927611Y-105017938D02*
G75*
G03*
X108861132Y-107084418I-1272855J-793625D01*
G01*
X129109307Y-113034794D02*
G75*
G03*
X129109307Y-113034794I-4000000J0D01*
G01*
X93758999Y-121855000D02*
G75*
G03*
X93758999Y-121855000I-1598999J0D01*
G01*
X97128179Y-114335406D02*
G75*
G03*
X97128179Y-114335406I-375000J0D01*
G01*
X119147397Y-110054204D02*
G75*
G03*
X119147397Y-110054204I-5250000J0D01*
G01*
X124239000Y-105345000D02*
G75*
G03*
X124239000Y-105345000I-1599000J0D01*
G01*
X93726666Y-113532582D02*
G75*
G03*
X93726666Y-113532582I-4000000J0D01*
G01*
%TO.C,C12*%
X123735000Y-72638748D02*
X123735000Y-73161252D01*
X122265000Y-72638748D02*
X122265000Y-73161252D01*
%TO.C,R16*%
X112235000Y-89227064D02*
X112235000Y-88772936D01*
X110765000Y-89227064D02*
X110765000Y-88772936D01*
%TO.C,L1*%
X133510000Y-119052064D02*
X133510000Y-114947936D01*
X130090000Y-119052064D02*
X130090000Y-114947936D01*
%TO.C,R3*%
X124272936Y-64965000D02*
X124727064Y-64965000D01*
X124272936Y-66435000D02*
X124727064Y-66435000D01*
%TO.C,RV15*%
X110100000Y-70700000D02*
X110100000Y-71400000D01*
X105600000Y-70900000D02*
X105600000Y-71500000D01*
X108500000Y-74100000D02*
X105600000Y-74100000D01*
X108500000Y-70900000D02*
X105600000Y-70900000D01*
X105600000Y-74100000D02*
X105600000Y-73500000D01*
X109600000Y-72300000D02*
X109600000Y-72700000D01*
X109400000Y-70700000D02*
X110100000Y-70700000D01*
%TO.C,J1*%
X84267500Y-54510000D02*
X77767500Y-54510000D01*
X85577500Y-53210000D02*
X76457500Y-53210000D01*
X84267500Y-72490000D02*
X84267500Y-54510000D01*
X77767500Y-61450000D02*
X76457500Y-61450000D01*
X77767500Y-61450000D02*
X77767500Y-61450000D01*
X76457500Y-65550000D02*
X77767500Y-65550000D01*
X85577500Y-73790000D02*
X85577500Y-53210000D01*
X75067500Y-68080000D02*
X76067500Y-68580000D01*
X76067500Y-68580000D02*
X75067500Y-69080000D01*
X76457500Y-53210000D02*
X76457500Y-73790000D01*
X77767500Y-65550000D02*
X77767500Y-72490000D01*
X76457500Y-73790000D02*
X85577500Y-73790000D01*
X75067500Y-69080000D02*
X75067500Y-68080000D01*
X77767500Y-54510000D02*
X77767500Y-61450000D01*
X77767500Y-72490000D02*
X84267500Y-72490000D01*
%TO.C,D4*%
X90600000Y-85350000D02*
X97500000Y-85350000D01*
X90600000Y-88650000D02*
X90600000Y-85350000D01*
X90600000Y-88650000D02*
X97500000Y-88650000D01*
%TO.C,C15*%
X89235000Y-110738748D02*
X89235000Y-111261252D01*
X87765000Y-110738748D02*
X87765000Y-111261252D01*
%TO.C,R20*%
X101772936Y-74735000D02*
X102227064Y-74735000D01*
X101772936Y-73265000D02*
X102227064Y-73265000D01*
%TO.C,R4*%
X124272936Y-68435000D02*
X124727064Y-68435000D01*
X124272936Y-66965000D02*
X124727064Y-66965000D01*
%TO.C,U2*%
X134065000Y-60500000D02*
X134065000Y-62450000D01*
X142935000Y-60500000D02*
X142935000Y-63950000D01*
X134065000Y-60500000D02*
X134065000Y-58550000D01*
X142935000Y-60500000D02*
X142935000Y-58550000D01*
%TO.C,RV12*%
X110100000Y-55100000D02*
X110100000Y-55800000D01*
X109600000Y-56700000D02*
X109600000Y-57100000D01*
X109400000Y-55100000D02*
X110100000Y-55100000D01*
X108500000Y-58500000D02*
X105600000Y-58500000D01*
X105600000Y-58500000D02*
X105600000Y-57900000D01*
X105600000Y-55300000D02*
X105600000Y-55900000D01*
X108500000Y-55300000D02*
X105600000Y-55300000D01*
%TO.C,U3*%
X133565000Y-74500000D02*
X133565000Y-72550000D01*
X142435000Y-74500000D02*
X142435000Y-72550000D01*
X142435000Y-74500000D02*
X142435000Y-77950000D01*
X133565000Y-74500000D02*
X133565000Y-76450000D01*
%TO.C,C7*%
X147265000Y-91261252D02*
X147265000Y-90738748D01*
X148735000Y-91261252D02*
X148735000Y-90738748D01*
%TO.C,J5*%
X76320000Y-91000000D02*
X75320000Y-91500000D01*
X85830000Y-96210000D02*
X85830000Y-75630000D01*
X76710000Y-87970000D02*
X78020000Y-87970000D01*
X78020000Y-94910000D02*
X84520000Y-94910000D01*
X85830000Y-75630000D02*
X76710000Y-75630000D01*
X84520000Y-94910000D02*
X84520000Y-76930000D01*
X75320000Y-90500000D02*
X76320000Y-91000000D01*
X84520000Y-76930000D02*
X78020000Y-76930000D01*
X76710000Y-96210000D02*
X85830000Y-96210000D01*
X78020000Y-76930000D02*
X78020000Y-83870000D01*
X78020000Y-83870000D02*
X76710000Y-83870000D01*
X78020000Y-87970000D02*
X78020000Y-94910000D01*
X78020000Y-83870000D02*
X78020000Y-83870000D01*
X75320000Y-91500000D02*
X75320000Y-90500000D01*
X76710000Y-75630000D02*
X76710000Y-96210000D01*
%TO.C,R8*%
X102227064Y-75265000D02*
X101772936Y-75265000D01*
X102227064Y-76735000D02*
X101772936Y-76735000D01*
%TO.C,R17*%
X101772936Y-71265000D02*
X102227064Y-71265000D01*
X101772936Y-72735000D02*
X102227064Y-72735000D01*
%TO.C,R9*%
X88272936Y-53935000D02*
X88727064Y-53935000D01*
X88272936Y-52465000D02*
X88727064Y-52465000D01*
%TO.C,L4*%
X81390000Y-108552064D02*
X81390000Y-104447936D01*
X84810000Y-108552064D02*
X84810000Y-104447936D01*
%TO.C,C10*%
X142735000Y-54538748D02*
X142735000Y-55061252D01*
X141265000Y-54538748D02*
X141265000Y-55061252D01*
%TO.C,J6*%
X115490000Y-76650000D02*
X115490000Y-71350000D01*
X120910000Y-71930000D02*
X121510000Y-71930000D01*
X120910000Y-76070000D02*
X120910000Y-74470000D01*
X116490000Y-75270000D02*
X117020000Y-75020000D01*
X121510000Y-76070000D02*
X120910000Y-76070000D01*
X121510000Y-71350000D02*
X121510000Y-76650000D01*
X115490000Y-71350000D02*
X121510000Y-71350000D01*
X115490000Y-72980000D02*
X116490000Y-72980000D01*
X117020000Y-75020000D02*
X117020000Y-72980000D01*
X120910000Y-74470000D02*
X121510000Y-74470000D01*
X117020000Y-72980000D02*
X116490000Y-72730000D01*
X120480000Y-76940000D02*
X116480000Y-76940000D01*
X120910000Y-73530000D02*
X120910000Y-71930000D01*
X121510000Y-76650000D02*
X115490000Y-76650000D01*
X116490000Y-75270000D02*
X116490000Y-72730000D01*
X115490000Y-75020000D02*
X116490000Y-75020000D01*
X121510000Y-73530000D02*
X120910000Y-73530000D01*
X115490000Y-75270000D02*
X116490000Y-75270000D01*
X116490000Y-72730000D02*
X115490000Y-72730000D01*
%TO.C,Q2*%
X113940000Y-81100000D02*
X113940000Y-81750000D01*
X117060000Y-81100000D02*
X117060000Y-82775000D01*
X113940000Y-81100000D02*
X113940000Y-80450000D01*
X117060000Y-81100000D02*
X117060000Y-80450000D01*
%TO.C,L2*%
X81390000Y-114947936D02*
X81390000Y-119052064D01*
X84810000Y-114947936D02*
X84810000Y-119052064D01*
%TO.C,R2*%
X113027064Y-67265000D02*
X112572936Y-67265000D01*
X113027064Y-68735000D02*
X112572936Y-68735000D01*
%TO.C,C24*%
X126765000Y-112238748D02*
X126765000Y-112761252D01*
X128235000Y-112238748D02*
X128235000Y-112761252D01*
%TD*%
M02*
