G04 #@! TF.GenerationSoftware,KiCad,Pcbnew,7.0.1*
G04 #@! TF.CreationDate,2023-05-26T07:24:00+02:00*
G04 #@! TF.ProjectId,K_PA_Protec,4b5f5041-5f50-4726-9f74-65632e6b6963,rev?*
G04 #@! TF.SameCoordinates,Original*
G04 #@! TF.FileFunction,Soldermask,Top*
G04 #@! TF.FilePolarity,Negative*
%FSLAX46Y46*%
G04 Gerber Fmt 4.6, Leading zero omitted, Abs format (unit mm)*
G04 Created by KiCad (PCBNEW 7.0.1) date 2023-05-26 07:24:00*
%MOMM*%
%LPD*%
G01*
G04 APERTURE LIST*
G04 Aperture macros list*
%AMRoundRect*
0 Rectangle with rounded corners*
0 $1 Rounding radius*
0 $2 $3 $4 $5 $6 $7 $8 $9 X,Y pos of 4 corners*
0 Add a 4 corners polygon primitive as box body*
4,1,4,$2,$3,$4,$5,$6,$7,$8,$9,$2,$3,0*
0 Add four circle primitives for the rounded corners*
1,1,$1+$1,$2,$3*
1,1,$1+$1,$4,$5*
1,1,$1+$1,$6,$7*
1,1,$1+$1,$8,$9*
0 Add four rect primitives between the rounded corners*
20,1,$1+$1,$2,$3,$4,$5,0*
20,1,$1+$1,$4,$5,$6,$7,0*
20,1,$1+$1,$6,$7,$8,$9,0*
20,1,$1+$1,$8,$9,$2,$3,0*%
G04 Aperture macros list end*
%ADD10RoundRect,0.250000X-0.350000X-0.450000X0.350000X-0.450000X0.350000X0.450000X-0.350000X0.450000X0*%
%ADD11RoundRect,0.250000X0.337500X0.475000X-0.337500X0.475000X-0.337500X-0.475000X0.337500X-0.475000X0*%
%ADD12C,0.800000*%
%ADD13C,6.400000*%
%ADD14RoundRect,0.250000X-0.337500X-0.475000X0.337500X-0.475000X0.337500X0.475000X-0.337500X0.475000X0*%
%ADD15RoundRect,0.250000X0.475000X-0.337500X0.475000X0.337500X-0.475000X0.337500X-0.475000X-0.337500X0*%
%ADD16R,2.000000X2.000000*%
%ADD17C,2.000000*%
%ADD18R,2.000000X3.200000*%
%ADD19RoundRect,0.250000X0.845000X-0.620000X0.845000X0.620000X-0.845000X0.620000X-0.845000X-0.620000X0*%
%ADD20O,2.190000X1.740000*%
%ADD21RoundRect,0.250000X0.600000X0.600000X-0.600000X0.600000X-0.600000X-0.600000X0.600000X-0.600000X0*%
%ADD22C,1.700000*%
%ADD23RoundRect,0.250000X-0.620000X-0.845000X0.620000X-0.845000X0.620000X0.845000X-0.620000X0.845000X0*%
%ADD24O,1.740000X2.190000*%
%ADD25RoundRect,0.250000X-0.845000X0.620000X-0.845000X-0.620000X0.845000X-0.620000X0.845000X0.620000X0*%
%ADD26R,2.540000X2.540000*%
%ADD27C,2.540000*%
%ADD28RoundRect,0.250000X-0.600000X-0.600000X0.600000X-0.600000X0.600000X0.600000X-0.600000X0.600000X0*%
G04 APERTURE END LIST*
D10*
X131000000Y-82000000D03*
X133000000Y-82000000D03*
D11*
X87037500Y-86000000D03*
X84962500Y-86000000D03*
D12*
X67600000Y-55000000D03*
X68302944Y-53302944D03*
X68302944Y-56697056D03*
X70000000Y-52600000D03*
D13*
X70000000Y-55000000D03*
D12*
X70000000Y-57400000D03*
X71697056Y-53302944D03*
X71697056Y-56697056D03*
X72400000Y-55000000D03*
D14*
X75462500Y-85500000D03*
X77537500Y-85500000D03*
D15*
X95500000Y-72500000D03*
X95500000Y-70425000D03*
D10*
X131000000Y-88000000D03*
X133000000Y-88000000D03*
D12*
X156200000Y-96200000D03*
X156902944Y-94502944D03*
X156902944Y-97897056D03*
X158600000Y-93800000D03*
D13*
X158600000Y-96200000D03*
D12*
X158600000Y-98600000D03*
X160297056Y-94502944D03*
X160297056Y-97897056D03*
X161000000Y-96200000D03*
D10*
X131000000Y-80000000D03*
X133000000Y-80000000D03*
D12*
X67600000Y-120200000D03*
X68302944Y-118502944D03*
X68302944Y-121897056D03*
X70000000Y-117800000D03*
D13*
X70000000Y-120200000D03*
D12*
X70000000Y-122600000D03*
X71697056Y-118502944D03*
X71697056Y-121897056D03*
X72400000Y-120200000D03*
D15*
X79800000Y-95637500D03*
X79800000Y-93562500D03*
D10*
X84500000Y-62500000D03*
X86500000Y-62500000D03*
D12*
X156200000Y-55000000D03*
X156902944Y-53302944D03*
X156902944Y-56697056D03*
X158600000Y-52600000D03*
D13*
X158600000Y-55000000D03*
D12*
X158600000Y-57400000D03*
X160297056Y-53302944D03*
X160297056Y-56697056D03*
X161000000Y-55000000D03*
D10*
X131000000Y-84000000D03*
X133000000Y-84000000D03*
X131000000Y-78000000D03*
X133000000Y-78000000D03*
D12*
X161200000Y-120000000D03*
X161902944Y-118302944D03*
X161902944Y-121697056D03*
X163600000Y-117600000D03*
D13*
X163600000Y-120000000D03*
D12*
X163600000Y-122400000D03*
X165297056Y-118302944D03*
X165297056Y-121697056D03*
X166000000Y-120000000D03*
D11*
X87037500Y-81000000D03*
X84962500Y-81000000D03*
D16*
X147800000Y-99037500D03*
D17*
X152800000Y-99037500D03*
X150300000Y-99037500D03*
D16*
X147800000Y-116037500D03*
D17*
X152800000Y-116037500D03*
X150300000Y-116037500D03*
D18*
X144700000Y-108537500D03*
X155900000Y-108537500D03*
D17*
X152800000Y-101537500D03*
X147800000Y-101537500D03*
D15*
X79800000Y-56337500D03*
X79800000Y-54262500D03*
D14*
X75462500Y-88500000D03*
X77537500Y-88500000D03*
X84462500Y-60500000D03*
X86537500Y-60500000D03*
D12*
X67600000Y-96200000D03*
X68302944Y-94502944D03*
X68302944Y-97897056D03*
X70000000Y-93800000D03*
D13*
X70000000Y-96200000D03*
D12*
X70000000Y-98600000D03*
X71697056Y-94502944D03*
X71697056Y-97897056D03*
X72400000Y-96200000D03*
D10*
X131000000Y-86000000D03*
X133000000Y-86000000D03*
D11*
X87037500Y-91000000D03*
X84962500Y-91000000D03*
D19*
X137180000Y-109000000D03*
D20*
X137180000Y-106460000D03*
X137180000Y-103920000D03*
X137180000Y-101380000D03*
D19*
X92980000Y-72270000D03*
D20*
X92980000Y-69730000D03*
D21*
X106500000Y-83000000D03*
D22*
X103960000Y-83000000D03*
X106500000Y-85540000D03*
X103960000Y-85540000D03*
X106500000Y-88080000D03*
X103960000Y-88080000D03*
X106500000Y-90620000D03*
X103960000Y-90620000D03*
X106500000Y-93160000D03*
X103960000Y-93160000D03*
D23*
X146500000Y-121000000D03*
D24*
X149040000Y-121000000D03*
X151580000Y-121000000D03*
X154120000Y-121000000D03*
D25*
X73520000Y-107960000D03*
D20*
X73520000Y-110500000D03*
X73520000Y-113040000D03*
D26*
X87080000Y-122490000D03*
D27*
X87080000Y-104710000D03*
X127720000Y-104710000D03*
X127720000Y-122490000D03*
D28*
X79747500Y-68580000D03*
D22*
X82287500Y-68580000D03*
X79747500Y-66040000D03*
X82287500Y-66040000D03*
X79747500Y-63500000D03*
X82287500Y-63500000D03*
X79747500Y-60960000D03*
X82287500Y-60960000D03*
X79747500Y-58420000D03*
X82287500Y-58420000D03*
D28*
X80000000Y-91000000D03*
D22*
X82540000Y-91000000D03*
X80000000Y-88460000D03*
X82540000Y-88460000D03*
X80000000Y-85920000D03*
X82540000Y-85920000D03*
X80000000Y-83380000D03*
X82540000Y-83380000D03*
X80000000Y-80840000D03*
X82540000Y-80840000D03*
D19*
X118480000Y-75270000D03*
D20*
X118480000Y-72730000D03*
M02*
