G04 #@! TF.GenerationSoftware,KiCad,Pcbnew,7.0.1*
G04 #@! TF.CreationDate,2023-05-26T07:24:00+02:00*
G04 #@! TF.ProjectId,K_PA_Protec,4b5f5041-5f50-4726-9f74-65632e6b6963,rev?*
G04 #@! TF.SameCoordinates,Original*
G04 #@! TF.FileFunction,Legend,Top*
G04 #@! TF.FilePolarity,Positive*
%FSLAX46Y46*%
G04 Gerber Fmt 4.6, Leading zero omitted, Abs format (unit mm)*
G04 Created by KiCad (PCBNEW 7.0.1) date 2023-05-26 07:24:00*
%MOMM*%
%LPD*%
G01*
G04 APERTURE LIST*
G04 Aperture macros list*
%AMRoundRect*
0 Rectangle with rounded corners*
0 $1 Rounding radius*
0 $2 $3 $4 $5 $6 $7 $8 $9 X,Y pos of 4 corners*
0 Add a 4 corners polygon primitive as box body*
4,1,4,$2,$3,$4,$5,$6,$7,$8,$9,$2,$3,0*
0 Add four circle primitives for the rounded corners*
1,1,$1+$1,$2,$3*
1,1,$1+$1,$4,$5*
1,1,$1+$1,$6,$7*
1,1,$1+$1,$8,$9*
0 Add four rect primitives between the rounded corners*
20,1,$1+$1,$2,$3,$4,$5,0*
20,1,$1+$1,$4,$5,$6,$7,0*
20,1,$1+$1,$6,$7,$8,$9,0*
20,1,$1+$1,$8,$9,$2,$3,0*%
G04 Aperture macros list end*
%ADD10C,0.150000*%
%ADD11C,0.500000*%
%ADD12C,0.300000*%
%ADD13C,0.120000*%
%ADD14RoundRect,0.250000X-0.350000X-0.450000X0.350000X-0.450000X0.350000X0.450000X-0.350000X0.450000X0*%
%ADD15RoundRect,0.250000X0.337500X0.475000X-0.337500X0.475000X-0.337500X-0.475000X0.337500X-0.475000X0*%
%ADD16C,0.800000*%
%ADD17C,6.400000*%
%ADD18RoundRect,0.250000X-0.337500X-0.475000X0.337500X-0.475000X0.337500X0.475000X-0.337500X0.475000X0*%
%ADD19RoundRect,0.250000X0.475000X-0.337500X0.475000X0.337500X-0.475000X0.337500X-0.475000X-0.337500X0*%
%ADD20R,2.000000X2.000000*%
%ADD21C,2.000000*%
%ADD22R,2.000000X3.200000*%
%ADD23RoundRect,0.250000X0.845000X-0.620000X0.845000X0.620000X-0.845000X0.620000X-0.845000X-0.620000X0*%
%ADD24O,2.190000X1.740000*%
%ADD25RoundRect,0.250000X0.600000X0.600000X-0.600000X0.600000X-0.600000X-0.600000X0.600000X-0.600000X0*%
%ADD26C,1.700000*%
%ADD27RoundRect,0.250000X-0.620000X-0.845000X0.620000X-0.845000X0.620000X0.845000X-0.620000X0.845000X0*%
%ADD28O,1.740000X2.190000*%
%ADD29RoundRect,0.250000X-0.845000X0.620000X-0.845000X-0.620000X0.845000X-0.620000X0.845000X0.620000X0*%
%ADD30R,2.540000X2.540000*%
%ADD31C,2.540000*%
%ADD32RoundRect,0.250000X-0.600000X-0.600000X0.600000X-0.600000X0.600000X0.600000X-0.600000X0.600000X0*%
G04 APERTURE END LIST*
D10*
X66000000Y-98000000D02*
X65500000Y-98000000D01*
X65500000Y-98000000D02*
X65500000Y-50500000D01*
X160000000Y-50500000D02*
X160000000Y-98000000D01*
X65500000Y-50500000D02*
X160000000Y-50500000D01*
X160000000Y-98000000D02*
X66000000Y-98000000D01*
X65500000Y-67000000D02*
X76000000Y-67000000D01*
X76000000Y-82000000D02*
X65500000Y-82000000D01*
X76000000Y-67000000D02*
X76000000Y-82000000D01*
D11*
X164194761Y-64476189D02*
X164194761Y-63523808D01*
X164194761Y-63523808D02*
X166194761Y-63523808D01*
X164766190Y-65047618D02*
X164766190Y-65999999D01*
X164194761Y-64857142D02*
X166194761Y-65523808D01*
X166194761Y-65523808D02*
X164194761Y-66190475D01*
X166004285Y-66761904D02*
X166099523Y-66857142D01*
X166099523Y-66857142D02*
X166194761Y-67047618D01*
X166194761Y-67047618D02*
X166194761Y-67523809D01*
X166194761Y-67523809D02*
X166099523Y-67714285D01*
X166099523Y-67714285D02*
X166004285Y-67809523D01*
X166004285Y-67809523D02*
X165813809Y-67904761D01*
X165813809Y-67904761D02*
X165623333Y-67904761D01*
X165623333Y-67904761D02*
X165337619Y-67809523D01*
X165337619Y-67809523D02*
X164194761Y-66666666D01*
X164194761Y-66666666D02*
X164194761Y-67904761D01*
X164194761Y-68761904D02*
X166194761Y-68761904D01*
X166194761Y-68761904D02*
X164194761Y-69904761D01*
X164194761Y-69904761D02*
X166194761Y-69904761D01*
X164194761Y-70857142D02*
X166194761Y-70857142D01*
X164290000Y-71904761D02*
X164194761Y-71904761D01*
X164194761Y-71904761D02*
X164004285Y-71809523D01*
X164004285Y-71809523D02*
X163909047Y-71714285D01*
X164290000Y-74190476D02*
X164194761Y-74476190D01*
X164194761Y-74476190D02*
X164194761Y-74952381D01*
X164194761Y-74952381D02*
X164290000Y-75142857D01*
X164290000Y-75142857D02*
X164385238Y-75238095D01*
X164385238Y-75238095D02*
X164575714Y-75333333D01*
X164575714Y-75333333D02*
X164766190Y-75333333D01*
X164766190Y-75333333D02*
X164956666Y-75238095D01*
X164956666Y-75238095D02*
X165051904Y-75142857D01*
X165051904Y-75142857D02*
X165147142Y-74952381D01*
X165147142Y-74952381D02*
X165242380Y-74571428D01*
X165242380Y-74571428D02*
X165337619Y-74380952D01*
X165337619Y-74380952D02*
X165432857Y-74285714D01*
X165432857Y-74285714D02*
X165623333Y-74190476D01*
X165623333Y-74190476D02*
X165813809Y-74190476D01*
X165813809Y-74190476D02*
X166004285Y-74285714D01*
X166004285Y-74285714D02*
X166099523Y-74380952D01*
X166099523Y-74380952D02*
X166194761Y-74571428D01*
X166194761Y-74571428D02*
X166194761Y-75047619D01*
X166194761Y-75047619D02*
X166099523Y-75333333D01*
X164290000Y-76952381D02*
X164194761Y-76761905D01*
X164194761Y-76761905D02*
X164194761Y-76380952D01*
X164194761Y-76380952D02*
X164290000Y-76190476D01*
X164290000Y-76190476D02*
X164480476Y-76095238D01*
X164480476Y-76095238D02*
X165242380Y-76095238D01*
X165242380Y-76095238D02*
X165432857Y-76190476D01*
X165432857Y-76190476D02*
X165528095Y-76380952D01*
X165528095Y-76380952D02*
X165528095Y-76761905D01*
X165528095Y-76761905D02*
X165432857Y-76952381D01*
X165432857Y-76952381D02*
X165242380Y-77047619D01*
X165242380Y-77047619D02*
X165051904Y-77047619D01*
X165051904Y-77047619D02*
X164861428Y-76095238D01*
X165528095Y-77904762D02*
X163528095Y-77904762D01*
X165432857Y-77904762D02*
X165528095Y-78095238D01*
X165528095Y-78095238D02*
X165528095Y-78476191D01*
X165528095Y-78476191D02*
X165432857Y-78666667D01*
X165432857Y-78666667D02*
X165337619Y-78761905D01*
X165337619Y-78761905D02*
X165147142Y-78857143D01*
X165147142Y-78857143D02*
X164575714Y-78857143D01*
X164575714Y-78857143D02*
X164385238Y-78761905D01*
X164385238Y-78761905D02*
X164290000Y-78666667D01*
X164290000Y-78666667D02*
X164194761Y-78476191D01*
X164194761Y-78476191D02*
X164194761Y-78095238D01*
X164194761Y-78095238D02*
X164290000Y-77904762D01*
X165528095Y-79428572D02*
X165528095Y-80190476D01*
X166194761Y-79714286D02*
X164480476Y-79714286D01*
X164480476Y-79714286D02*
X164290000Y-79809524D01*
X164290000Y-79809524D02*
X164194761Y-80000000D01*
X164194761Y-80000000D02*
X164194761Y-80190476D01*
X164385238Y-80857143D02*
X164290000Y-80952381D01*
X164290000Y-80952381D02*
X164194761Y-80857143D01*
X164194761Y-80857143D02*
X164290000Y-80761905D01*
X164290000Y-80761905D02*
X164385238Y-80857143D01*
X164385238Y-80857143D02*
X164194761Y-80857143D01*
X166004285Y-81714286D02*
X166099523Y-81809524D01*
X166099523Y-81809524D02*
X166194761Y-82000000D01*
X166194761Y-82000000D02*
X166194761Y-82476191D01*
X166194761Y-82476191D02*
X166099523Y-82666667D01*
X166099523Y-82666667D02*
X166004285Y-82761905D01*
X166004285Y-82761905D02*
X165813809Y-82857143D01*
X165813809Y-82857143D02*
X165623333Y-82857143D01*
X165623333Y-82857143D02*
X165337619Y-82761905D01*
X165337619Y-82761905D02*
X164194761Y-81619048D01*
X164194761Y-81619048D02*
X164194761Y-82857143D01*
X166194761Y-84095238D02*
X166194761Y-84285715D01*
X166194761Y-84285715D02*
X166099523Y-84476191D01*
X166099523Y-84476191D02*
X166004285Y-84571429D01*
X166004285Y-84571429D02*
X165813809Y-84666667D01*
X165813809Y-84666667D02*
X165432857Y-84761905D01*
X165432857Y-84761905D02*
X164956666Y-84761905D01*
X164956666Y-84761905D02*
X164575714Y-84666667D01*
X164575714Y-84666667D02*
X164385238Y-84571429D01*
X164385238Y-84571429D02*
X164290000Y-84476191D01*
X164290000Y-84476191D02*
X164194761Y-84285715D01*
X164194761Y-84285715D02*
X164194761Y-84095238D01*
X164194761Y-84095238D02*
X164290000Y-83904762D01*
X164290000Y-83904762D02*
X164385238Y-83809524D01*
X164385238Y-83809524D02*
X164575714Y-83714286D01*
X164575714Y-83714286D02*
X164956666Y-83619048D01*
X164956666Y-83619048D02*
X165432857Y-83619048D01*
X165432857Y-83619048D02*
X165813809Y-83714286D01*
X165813809Y-83714286D02*
X166004285Y-83809524D01*
X166004285Y-83809524D02*
X166099523Y-83904762D01*
X166099523Y-83904762D02*
X166194761Y-84095238D01*
X166004285Y-85523810D02*
X166099523Y-85619048D01*
X166099523Y-85619048D02*
X166194761Y-85809524D01*
X166194761Y-85809524D02*
X166194761Y-86285715D01*
X166194761Y-86285715D02*
X166099523Y-86476191D01*
X166099523Y-86476191D02*
X166004285Y-86571429D01*
X166004285Y-86571429D02*
X165813809Y-86666667D01*
X165813809Y-86666667D02*
X165623333Y-86666667D01*
X165623333Y-86666667D02*
X165337619Y-86571429D01*
X165337619Y-86571429D02*
X164194761Y-85428572D01*
X164194761Y-85428572D02*
X164194761Y-86666667D01*
X164194761Y-88571429D02*
X164194761Y-87428572D01*
X164194761Y-88000000D02*
X166194761Y-88000000D01*
X166194761Y-88000000D02*
X165909047Y-87809524D01*
X165909047Y-87809524D02*
X165718571Y-87619048D01*
X165718571Y-87619048D02*
X165623333Y-87428572D01*
X160954761Y-61095237D02*
X162954761Y-61095237D01*
X162954761Y-61095237D02*
X162954761Y-61857142D01*
X162954761Y-61857142D02*
X162859523Y-62047618D01*
X162859523Y-62047618D02*
X162764285Y-62142856D01*
X162764285Y-62142856D02*
X162573809Y-62238094D01*
X162573809Y-62238094D02*
X162288095Y-62238094D01*
X162288095Y-62238094D02*
X162097619Y-62142856D01*
X162097619Y-62142856D02*
X162002380Y-62047618D01*
X162002380Y-62047618D02*
X161907142Y-61857142D01*
X161907142Y-61857142D02*
X161907142Y-61095237D01*
X161526190Y-62999999D02*
X161526190Y-63952380D01*
X160954761Y-62809523D02*
X162954761Y-63476189D01*
X162954761Y-63476189D02*
X160954761Y-64142856D01*
X160954761Y-66333333D02*
X162954761Y-66333333D01*
X162954761Y-66333333D02*
X162954761Y-67095238D01*
X162954761Y-67095238D02*
X162859523Y-67285714D01*
X162859523Y-67285714D02*
X162764285Y-67380952D01*
X162764285Y-67380952D02*
X162573809Y-67476190D01*
X162573809Y-67476190D02*
X162288095Y-67476190D01*
X162288095Y-67476190D02*
X162097619Y-67380952D01*
X162097619Y-67380952D02*
X162002380Y-67285714D01*
X162002380Y-67285714D02*
X161907142Y-67095238D01*
X161907142Y-67095238D02*
X161907142Y-66333333D01*
X160954761Y-68333333D02*
X162288095Y-68333333D01*
X161907142Y-68333333D02*
X162097619Y-68428571D01*
X162097619Y-68428571D02*
X162192857Y-68523809D01*
X162192857Y-68523809D02*
X162288095Y-68714285D01*
X162288095Y-68714285D02*
X162288095Y-68904762D01*
X160954761Y-69857142D02*
X161050000Y-69666666D01*
X161050000Y-69666666D02*
X161145238Y-69571428D01*
X161145238Y-69571428D02*
X161335714Y-69476190D01*
X161335714Y-69476190D02*
X161907142Y-69476190D01*
X161907142Y-69476190D02*
X162097619Y-69571428D01*
X162097619Y-69571428D02*
X162192857Y-69666666D01*
X162192857Y-69666666D02*
X162288095Y-69857142D01*
X162288095Y-69857142D02*
X162288095Y-70142857D01*
X162288095Y-70142857D02*
X162192857Y-70333333D01*
X162192857Y-70333333D02*
X162097619Y-70428571D01*
X162097619Y-70428571D02*
X161907142Y-70523809D01*
X161907142Y-70523809D02*
X161335714Y-70523809D01*
X161335714Y-70523809D02*
X161145238Y-70428571D01*
X161145238Y-70428571D02*
X161050000Y-70333333D01*
X161050000Y-70333333D02*
X160954761Y-70142857D01*
X160954761Y-70142857D02*
X160954761Y-69857142D01*
X162288095Y-71095238D02*
X162288095Y-71857142D01*
X162954761Y-71380952D02*
X161240476Y-71380952D01*
X161240476Y-71380952D02*
X161050000Y-71476190D01*
X161050000Y-71476190D02*
X160954761Y-71666666D01*
X160954761Y-71666666D02*
X160954761Y-71857142D01*
X161050000Y-73285714D02*
X160954761Y-73095238D01*
X160954761Y-73095238D02*
X160954761Y-72714285D01*
X160954761Y-72714285D02*
X161050000Y-72523809D01*
X161050000Y-72523809D02*
X161240476Y-72428571D01*
X161240476Y-72428571D02*
X162002380Y-72428571D01*
X162002380Y-72428571D02*
X162192857Y-72523809D01*
X162192857Y-72523809D02*
X162288095Y-72714285D01*
X162288095Y-72714285D02*
X162288095Y-73095238D01*
X162288095Y-73095238D02*
X162192857Y-73285714D01*
X162192857Y-73285714D02*
X162002380Y-73380952D01*
X162002380Y-73380952D02*
X161811904Y-73380952D01*
X161811904Y-73380952D02*
X161621428Y-72428571D01*
X161050000Y-75095238D02*
X160954761Y-74904762D01*
X160954761Y-74904762D02*
X160954761Y-74523809D01*
X160954761Y-74523809D02*
X161050000Y-74333333D01*
X161050000Y-74333333D02*
X161145238Y-74238095D01*
X161145238Y-74238095D02*
X161335714Y-74142857D01*
X161335714Y-74142857D02*
X161907142Y-74142857D01*
X161907142Y-74142857D02*
X162097619Y-74238095D01*
X162097619Y-74238095D02*
X162192857Y-74333333D01*
X162192857Y-74333333D02*
X162288095Y-74523809D01*
X162288095Y-74523809D02*
X162288095Y-74904762D01*
X162288095Y-74904762D02*
X162192857Y-75095238D01*
X162288095Y-75666667D02*
X162288095Y-76428571D01*
X162954761Y-75952381D02*
X161240476Y-75952381D01*
X161240476Y-75952381D02*
X161050000Y-76047619D01*
X161050000Y-76047619D02*
X160954761Y-76238095D01*
X160954761Y-76238095D02*
X160954761Y-76428571D01*
X160954761Y-77095238D02*
X162288095Y-77095238D01*
X162954761Y-77095238D02*
X162859523Y-77000000D01*
X162859523Y-77000000D02*
X162764285Y-77095238D01*
X162764285Y-77095238D02*
X162859523Y-77190476D01*
X162859523Y-77190476D02*
X162954761Y-77095238D01*
X162954761Y-77095238D02*
X162764285Y-77095238D01*
X160954761Y-78333333D02*
X161050000Y-78142857D01*
X161050000Y-78142857D02*
X161145238Y-78047619D01*
X161145238Y-78047619D02*
X161335714Y-77952381D01*
X161335714Y-77952381D02*
X161907142Y-77952381D01*
X161907142Y-77952381D02*
X162097619Y-78047619D01*
X162097619Y-78047619D02*
X162192857Y-78142857D01*
X162192857Y-78142857D02*
X162288095Y-78333333D01*
X162288095Y-78333333D02*
X162288095Y-78619048D01*
X162288095Y-78619048D02*
X162192857Y-78809524D01*
X162192857Y-78809524D02*
X162097619Y-78904762D01*
X162097619Y-78904762D02*
X161907142Y-79000000D01*
X161907142Y-79000000D02*
X161335714Y-79000000D01*
X161335714Y-79000000D02*
X161145238Y-78904762D01*
X161145238Y-78904762D02*
X161050000Y-78809524D01*
X161050000Y-78809524D02*
X160954761Y-78619048D01*
X160954761Y-78619048D02*
X160954761Y-78333333D01*
X162288095Y-79857143D02*
X160954761Y-79857143D01*
X162097619Y-79857143D02*
X162192857Y-79952381D01*
X162192857Y-79952381D02*
X162288095Y-80142857D01*
X162288095Y-80142857D02*
X162288095Y-80428572D01*
X162288095Y-80428572D02*
X162192857Y-80619048D01*
X162192857Y-80619048D02*
X162002380Y-80714286D01*
X162002380Y-80714286D02*
X160954761Y-80714286D01*
X162002380Y-83857144D02*
X161907142Y-84142858D01*
X161907142Y-84142858D02*
X161811904Y-84238096D01*
X161811904Y-84238096D02*
X161621428Y-84333334D01*
X161621428Y-84333334D02*
X161335714Y-84333334D01*
X161335714Y-84333334D02*
X161145238Y-84238096D01*
X161145238Y-84238096D02*
X161050000Y-84142858D01*
X161050000Y-84142858D02*
X160954761Y-83952382D01*
X160954761Y-83952382D02*
X160954761Y-83190477D01*
X160954761Y-83190477D02*
X162954761Y-83190477D01*
X162954761Y-83190477D02*
X162954761Y-83857144D01*
X162954761Y-83857144D02*
X162859523Y-84047620D01*
X162859523Y-84047620D02*
X162764285Y-84142858D01*
X162764285Y-84142858D02*
X162573809Y-84238096D01*
X162573809Y-84238096D02*
X162383333Y-84238096D01*
X162383333Y-84238096D02*
X162192857Y-84142858D01*
X162192857Y-84142858D02*
X162097619Y-84047620D01*
X162097619Y-84047620D02*
X162002380Y-83857144D01*
X162002380Y-83857144D02*
X162002380Y-83190477D01*
X160954761Y-85476191D02*
X161050000Y-85285715D01*
X161050000Y-85285715D02*
X161145238Y-85190477D01*
X161145238Y-85190477D02*
X161335714Y-85095239D01*
X161335714Y-85095239D02*
X161907142Y-85095239D01*
X161907142Y-85095239D02*
X162097619Y-85190477D01*
X162097619Y-85190477D02*
X162192857Y-85285715D01*
X162192857Y-85285715D02*
X162288095Y-85476191D01*
X162288095Y-85476191D02*
X162288095Y-85761906D01*
X162288095Y-85761906D02*
X162192857Y-85952382D01*
X162192857Y-85952382D02*
X162097619Y-86047620D01*
X162097619Y-86047620D02*
X161907142Y-86142858D01*
X161907142Y-86142858D02*
X161335714Y-86142858D01*
X161335714Y-86142858D02*
X161145238Y-86047620D01*
X161145238Y-86047620D02*
X161050000Y-85952382D01*
X161050000Y-85952382D02*
X160954761Y-85761906D01*
X160954761Y-85761906D02*
X160954761Y-85476191D01*
X160954761Y-87857144D02*
X162002380Y-87857144D01*
X162002380Y-87857144D02*
X162192857Y-87761906D01*
X162192857Y-87761906D02*
X162288095Y-87571430D01*
X162288095Y-87571430D02*
X162288095Y-87190477D01*
X162288095Y-87190477D02*
X162192857Y-87000001D01*
X161050000Y-87857144D02*
X160954761Y-87666668D01*
X160954761Y-87666668D02*
X160954761Y-87190477D01*
X160954761Y-87190477D02*
X161050000Y-87000001D01*
X161050000Y-87000001D02*
X161240476Y-86904763D01*
X161240476Y-86904763D02*
X161430952Y-86904763D01*
X161430952Y-86904763D02*
X161621428Y-87000001D01*
X161621428Y-87000001D02*
X161716666Y-87190477D01*
X161716666Y-87190477D02*
X161716666Y-87666668D01*
X161716666Y-87666668D02*
X161811904Y-87857144D01*
X160954761Y-88809525D02*
X162288095Y-88809525D01*
X161907142Y-88809525D02*
X162097619Y-88904763D01*
X162097619Y-88904763D02*
X162192857Y-89000001D01*
X162192857Y-89000001D02*
X162288095Y-89190477D01*
X162288095Y-89190477D02*
X162288095Y-89380954D01*
X160954761Y-90904763D02*
X162954761Y-90904763D01*
X161050000Y-90904763D02*
X160954761Y-90714287D01*
X160954761Y-90714287D02*
X160954761Y-90333334D01*
X160954761Y-90333334D02*
X161050000Y-90142858D01*
X161050000Y-90142858D02*
X161145238Y-90047620D01*
X161145238Y-90047620D02*
X161335714Y-89952382D01*
X161335714Y-89952382D02*
X161907142Y-89952382D01*
X161907142Y-89952382D02*
X162097619Y-90047620D01*
X162097619Y-90047620D02*
X162192857Y-90142858D01*
X162192857Y-90142858D02*
X162288095Y-90333334D01*
X162288095Y-90333334D02*
X162288095Y-90714287D01*
X162288095Y-90714287D02*
X162192857Y-90904763D01*
D12*
X103471427Y-52793928D02*
X103471427Y-51293928D01*
X103471427Y-51293928D02*
X104328570Y-52793928D01*
X104328570Y-52793928D02*
X104328570Y-51293928D01*
X105614285Y-52722500D02*
X105471428Y-52793928D01*
X105471428Y-52793928D02*
X105185714Y-52793928D01*
X105185714Y-52793928D02*
X105042856Y-52722500D01*
X105042856Y-52722500D02*
X104971428Y-52579642D01*
X104971428Y-52579642D02*
X104971428Y-52008214D01*
X104971428Y-52008214D02*
X105042856Y-51865357D01*
X105042856Y-51865357D02*
X105185714Y-51793928D01*
X105185714Y-51793928D02*
X105471428Y-51793928D01*
X105471428Y-51793928D02*
X105614285Y-51865357D01*
X105614285Y-51865357D02*
X105685714Y-52008214D01*
X105685714Y-52008214D02*
X105685714Y-52151071D01*
X105685714Y-52151071D02*
X104971428Y-52293928D01*
X106185713Y-52793928D02*
X106971428Y-51793928D01*
X106185713Y-51793928D02*
X106971428Y-52793928D01*
X107328571Y-51793928D02*
X107899999Y-51793928D01*
X107542856Y-51293928D02*
X107542856Y-52579642D01*
X107542856Y-52579642D02*
X107614285Y-52722500D01*
X107614285Y-52722500D02*
X107757142Y-52793928D01*
X107757142Y-52793928D02*
X107899999Y-52793928D01*
X108399999Y-52793928D02*
X108399999Y-51793928D01*
X108399999Y-51293928D02*
X108328571Y-51365357D01*
X108328571Y-51365357D02*
X108399999Y-51436785D01*
X108399999Y-51436785D02*
X108471428Y-51365357D01*
X108471428Y-51365357D02*
X108399999Y-51293928D01*
X108399999Y-51293928D02*
X108399999Y-51436785D01*
X109328571Y-52793928D02*
X109185714Y-52722500D01*
X109185714Y-52722500D02*
X109114285Y-52651071D01*
X109114285Y-52651071D02*
X109042857Y-52508214D01*
X109042857Y-52508214D02*
X109042857Y-52079642D01*
X109042857Y-52079642D02*
X109114285Y-51936785D01*
X109114285Y-51936785D02*
X109185714Y-51865357D01*
X109185714Y-51865357D02*
X109328571Y-51793928D01*
X109328571Y-51793928D02*
X109542857Y-51793928D01*
X109542857Y-51793928D02*
X109685714Y-51865357D01*
X109685714Y-51865357D02*
X109757143Y-51936785D01*
X109757143Y-51936785D02*
X109828571Y-52079642D01*
X109828571Y-52079642D02*
X109828571Y-52508214D01*
X109828571Y-52508214D02*
X109757143Y-52651071D01*
X109757143Y-52651071D02*
X109685714Y-52722500D01*
X109685714Y-52722500D02*
X109542857Y-52793928D01*
X109542857Y-52793928D02*
X109328571Y-52793928D01*
X110471428Y-51793928D02*
X110471428Y-52793928D01*
X110471428Y-51936785D02*
X110542857Y-51865357D01*
X110542857Y-51865357D02*
X110685714Y-51793928D01*
X110685714Y-51793928D02*
X110900000Y-51793928D01*
X110900000Y-51793928D02*
X111042857Y-51865357D01*
X111042857Y-51865357D02*
X111114286Y-52008214D01*
X111114286Y-52008214D02*
X111114286Y-52793928D01*
X112971428Y-52793928D02*
X112971428Y-51293928D01*
X112971428Y-51293928D02*
X113328571Y-51293928D01*
X113328571Y-51293928D02*
X113542857Y-51365357D01*
X113542857Y-51365357D02*
X113685714Y-51508214D01*
X113685714Y-51508214D02*
X113757143Y-51651071D01*
X113757143Y-51651071D02*
X113828571Y-51936785D01*
X113828571Y-51936785D02*
X113828571Y-52151071D01*
X113828571Y-52151071D02*
X113757143Y-52436785D01*
X113757143Y-52436785D02*
X113685714Y-52579642D01*
X113685714Y-52579642D02*
X113542857Y-52722500D01*
X113542857Y-52722500D02*
X113328571Y-52793928D01*
X113328571Y-52793928D02*
X112971428Y-52793928D01*
X114471428Y-52793928D02*
X114471428Y-51793928D01*
X114471428Y-51293928D02*
X114400000Y-51365357D01*
X114400000Y-51365357D02*
X114471428Y-51436785D01*
X114471428Y-51436785D02*
X114542857Y-51365357D01*
X114542857Y-51365357D02*
X114471428Y-51293928D01*
X114471428Y-51293928D02*
X114471428Y-51436785D01*
X115114286Y-52722500D02*
X115257143Y-52793928D01*
X115257143Y-52793928D02*
X115542857Y-52793928D01*
X115542857Y-52793928D02*
X115685714Y-52722500D01*
X115685714Y-52722500D02*
X115757143Y-52579642D01*
X115757143Y-52579642D02*
X115757143Y-52508214D01*
X115757143Y-52508214D02*
X115685714Y-52365357D01*
X115685714Y-52365357D02*
X115542857Y-52293928D01*
X115542857Y-52293928D02*
X115328572Y-52293928D01*
X115328572Y-52293928D02*
X115185714Y-52222500D01*
X115185714Y-52222500D02*
X115114286Y-52079642D01*
X115114286Y-52079642D02*
X115114286Y-52008214D01*
X115114286Y-52008214D02*
X115185714Y-51865357D01*
X115185714Y-51865357D02*
X115328572Y-51793928D01*
X115328572Y-51793928D02*
X115542857Y-51793928D01*
X115542857Y-51793928D02*
X115685714Y-51865357D01*
X116400000Y-51793928D02*
X116400000Y-53293928D01*
X116400000Y-51865357D02*
X116542858Y-51793928D01*
X116542858Y-51793928D02*
X116828572Y-51793928D01*
X116828572Y-51793928D02*
X116971429Y-51865357D01*
X116971429Y-51865357D02*
X117042858Y-51936785D01*
X117042858Y-51936785D02*
X117114286Y-52079642D01*
X117114286Y-52079642D02*
X117114286Y-52508214D01*
X117114286Y-52508214D02*
X117042858Y-52651071D01*
X117042858Y-52651071D02*
X116971429Y-52722500D01*
X116971429Y-52722500D02*
X116828572Y-52793928D01*
X116828572Y-52793928D02*
X116542858Y-52793928D01*
X116542858Y-52793928D02*
X116400000Y-52722500D01*
X117971429Y-52793928D02*
X117828572Y-52722500D01*
X117828572Y-52722500D02*
X117757143Y-52579642D01*
X117757143Y-52579642D02*
X117757143Y-51293928D01*
X119185715Y-52793928D02*
X119185715Y-52008214D01*
X119185715Y-52008214D02*
X119114286Y-51865357D01*
X119114286Y-51865357D02*
X118971429Y-51793928D01*
X118971429Y-51793928D02*
X118685715Y-51793928D01*
X118685715Y-51793928D02*
X118542857Y-51865357D01*
X119185715Y-52722500D02*
X119042857Y-52793928D01*
X119042857Y-52793928D02*
X118685715Y-52793928D01*
X118685715Y-52793928D02*
X118542857Y-52722500D01*
X118542857Y-52722500D02*
X118471429Y-52579642D01*
X118471429Y-52579642D02*
X118471429Y-52436785D01*
X118471429Y-52436785D02*
X118542857Y-52293928D01*
X118542857Y-52293928D02*
X118685715Y-52222500D01*
X118685715Y-52222500D02*
X119042857Y-52222500D01*
X119042857Y-52222500D02*
X119185715Y-52151071D01*
X119757143Y-51793928D02*
X120114286Y-52793928D01*
X120471429Y-51793928D02*
X120114286Y-52793928D01*
X120114286Y-52793928D02*
X119971429Y-53151071D01*
X119971429Y-53151071D02*
X119900000Y-53222500D01*
X119900000Y-53222500D02*
X119757143Y-53293928D01*
X67793928Y-83228572D02*
X66293928Y-83228572D01*
X66293928Y-83228572D02*
X67793928Y-82371429D01*
X67793928Y-82371429D02*
X66293928Y-82371429D01*
X67722500Y-81085714D02*
X67793928Y-81228571D01*
X67793928Y-81228571D02*
X67793928Y-81514286D01*
X67793928Y-81514286D02*
X67722500Y-81657143D01*
X67722500Y-81657143D02*
X67579642Y-81728571D01*
X67579642Y-81728571D02*
X67008214Y-81728571D01*
X67008214Y-81728571D02*
X66865357Y-81657143D01*
X66865357Y-81657143D02*
X66793928Y-81514286D01*
X66793928Y-81514286D02*
X66793928Y-81228571D01*
X66793928Y-81228571D02*
X66865357Y-81085714D01*
X66865357Y-81085714D02*
X67008214Y-81014286D01*
X67008214Y-81014286D02*
X67151071Y-81014286D01*
X67151071Y-81014286D02*
X67293928Y-81728571D01*
X67793928Y-80514286D02*
X66793928Y-79728572D01*
X66793928Y-80514286D02*
X67793928Y-79728572D01*
X66793928Y-79371428D02*
X66793928Y-78800000D01*
X66293928Y-79157143D02*
X67579642Y-79157143D01*
X67579642Y-79157143D02*
X67722500Y-79085714D01*
X67722500Y-79085714D02*
X67793928Y-78942857D01*
X67793928Y-78942857D02*
X67793928Y-78800000D01*
X67793928Y-78300000D02*
X66793928Y-78300000D01*
X66293928Y-78300000D02*
X66365357Y-78371428D01*
X66365357Y-78371428D02*
X66436785Y-78300000D01*
X66436785Y-78300000D02*
X66365357Y-78228571D01*
X66365357Y-78228571D02*
X66293928Y-78300000D01*
X66293928Y-78300000D02*
X66436785Y-78300000D01*
X67793928Y-77371428D02*
X67722500Y-77514285D01*
X67722500Y-77514285D02*
X67651071Y-77585714D01*
X67651071Y-77585714D02*
X67508214Y-77657142D01*
X67508214Y-77657142D02*
X67079642Y-77657142D01*
X67079642Y-77657142D02*
X66936785Y-77585714D01*
X66936785Y-77585714D02*
X66865357Y-77514285D01*
X66865357Y-77514285D02*
X66793928Y-77371428D01*
X66793928Y-77371428D02*
X66793928Y-77157142D01*
X66793928Y-77157142D02*
X66865357Y-77014285D01*
X66865357Y-77014285D02*
X66936785Y-76942857D01*
X66936785Y-76942857D02*
X67079642Y-76871428D01*
X67079642Y-76871428D02*
X67508214Y-76871428D01*
X67508214Y-76871428D02*
X67651071Y-76942857D01*
X67651071Y-76942857D02*
X67722500Y-77014285D01*
X67722500Y-77014285D02*
X67793928Y-77157142D01*
X67793928Y-77157142D02*
X67793928Y-77371428D01*
X66793928Y-76228571D02*
X67793928Y-76228571D01*
X66936785Y-76228571D02*
X66865357Y-76157142D01*
X66865357Y-76157142D02*
X66793928Y-76014285D01*
X66793928Y-76014285D02*
X66793928Y-75799999D01*
X66793928Y-75799999D02*
X66865357Y-75657142D01*
X66865357Y-75657142D02*
X67008214Y-75585714D01*
X67008214Y-75585714D02*
X67793928Y-75585714D01*
X67793928Y-73728571D02*
X66293928Y-73728571D01*
X66293928Y-73728571D02*
X66293928Y-73371428D01*
X66293928Y-73371428D02*
X66365357Y-73157142D01*
X66365357Y-73157142D02*
X66508214Y-73014285D01*
X66508214Y-73014285D02*
X66651071Y-72942856D01*
X66651071Y-72942856D02*
X66936785Y-72871428D01*
X66936785Y-72871428D02*
X67151071Y-72871428D01*
X67151071Y-72871428D02*
X67436785Y-72942856D01*
X67436785Y-72942856D02*
X67579642Y-73014285D01*
X67579642Y-73014285D02*
X67722500Y-73157142D01*
X67722500Y-73157142D02*
X67793928Y-73371428D01*
X67793928Y-73371428D02*
X67793928Y-73728571D01*
X67793928Y-72228571D02*
X66793928Y-72228571D01*
X66293928Y-72228571D02*
X66365357Y-72299999D01*
X66365357Y-72299999D02*
X66436785Y-72228571D01*
X66436785Y-72228571D02*
X66365357Y-72157142D01*
X66365357Y-72157142D02*
X66293928Y-72228571D01*
X66293928Y-72228571D02*
X66436785Y-72228571D01*
X67722500Y-71585713D02*
X67793928Y-71442856D01*
X67793928Y-71442856D02*
X67793928Y-71157142D01*
X67793928Y-71157142D02*
X67722500Y-71014285D01*
X67722500Y-71014285D02*
X67579642Y-70942856D01*
X67579642Y-70942856D02*
X67508214Y-70942856D01*
X67508214Y-70942856D02*
X67365357Y-71014285D01*
X67365357Y-71014285D02*
X67293928Y-71157142D01*
X67293928Y-71157142D02*
X67293928Y-71371428D01*
X67293928Y-71371428D02*
X67222500Y-71514285D01*
X67222500Y-71514285D02*
X67079642Y-71585713D01*
X67079642Y-71585713D02*
X67008214Y-71585713D01*
X67008214Y-71585713D02*
X66865357Y-71514285D01*
X66865357Y-71514285D02*
X66793928Y-71371428D01*
X66793928Y-71371428D02*
X66793928Y-71157142D01*
X66793928Y-71157142D02*
X66865357Y-71014285D01*
X66793928Y-70299999D02*
X68293928Y-70299999D01*
X66865357Y-70299999D02*
X66793928Y-70157142D01*
X66793928Y-70157142D02*
X66793928Y-69871427D01*
X66793928Y-69871427D02*
X66865357Y-69728570D01*
X66865357Y-69728570D02*
X66936785Y-69657142D01*
X66936785Y-69657142D02*
X67079642Y-69585713D01*
X67079642Y-69585713D02*
X67508214Y-69585713D01*
X67508214Y-69585713D02*
X67651071Y-69657142D01*
X67651071Y-69657142D02*
X67722500Y-69728570D01*
X67722500Y-69728570D02*
X67793928Y-69871427D01*
X67793928Y-69871427D02*
X67793928Y-70157142D01*
X67793928Y-70157142D02*
X67722500Y-70299999D01*
X67793928Y-68728570D02*
X67722500Y-68871427D01*
X67722500Y-68871427D02*
X67579642Y-68942856D01*
X67579642Y-68942856D02*
X66293928Y-68942856D01*
X67793928Y-67514285D02*
X67008214Y-67514285D01*
X67008214Y-67514285D02*
X66865357Y-67585713D01*
X66865357Y-67585713D02*
X66793928Y-67728570D01*
X66793928Y-67728570D02*
X66793928Y-68014285D01*
X66793928Y-68014285D02*
X66865357Y-68157142D01*
X67722500Y-67514285D02*
X67793928Y-67657142D01*
X67793928Y-67657142D02*
X67793928Y-68014285D01*
X67793928Y-68014285D02*
X67722500Y-68157142D01*
X67722500Y-68157142D02*
X67579642Y-68228570D01*
X67579642Y-68228570D02*
X67436785Y-68228570D01*
X67436785Y-68228570D02*
X67293928Y-68157142D01*
X67293928Y-68157142D02*
X67222500Y-68014285D01*
X67222500Y-68014285D02*
X67222500Y-67657142D01*
X67222500Y-67657142D02*
X67151071Y-67514285D01*
X66793928Y-66942856D02*
X67793928Y-66585713D01*
X66793928Y-66228570D02*
X67793928Y-66585713D01*
X67793928Y-66585713D02*
X68151071Y-66728570D01*
X68151071Y-66728570D02*
X68222500Y-66799999D01*
X68222500Y-66799999D02*
X68293928Y-66942856D01*
X104571427Y-96993928D02*
X104571427Y-95493928D01*
X104571427Y-95493928D02*
X105428570Y-96993928D01*
X105428570Y-96993928D02*
X105428570Y-95493928D01*
X106714285Y-96922500D02*
X106571428Y-96993928D01*
X106571428Y-96993928D02*
X106285714Y-96993928D01*
X106285714Y-96993928D02*
X106142856Y-96922500D01*
X106142856Y-96922500D02*
X106071428Y-96779642D01*
X106071428Y-96779642D02*
X106071428Y-96208214D01*
X106071428Y-96208214D02*
X106142856Y-96065357D01*
X106142856Y-96065357D02*
X106285714Y-95993928D01*
X106285714Y-95993928D02*
X106571428Y-95993928D01*
X106571428Y-95993928D02*
X106714285Y-96065357D01*
X106714285Y-96065357D02*
X106785714Y-96208214D01*
X106785714Y-96208214D02*
X106785714Y-96351071D01*
X106785714Y-96351071D02*
X106071428Y-96493928D01*
X107285713Y-96993928D02*
X108071428Y-95993928D01*
X107285713Y-95993928D02*
X108071428Y-96993928D01*
X108428571Y-95993928D02*
X108999999Y-95993928D01*
X108642856Y-95493928D02*
X108642856Y-96779642D01*
X108642856Y-96779642D02*
X108714285Y-96922500D01*
X108714285Y-96922500D02*
X108857142Y-96993928D01*
X108857142Y-96993928D02*
X108999999Y-96993928D01*
X109499999Y-96993928D02*
X109499999Y-95993928D01*
X109499999Y-95493928D02*
X109428571Y-95565357D01*
X109428571Y-95565357D02*
X109499999Y-95636785D01*
X109499999Y-95636785D02*
X109571428Y-95565357D01*
X109571428Y-95565357D02*
X109499999Y-95493928D01*
X109499999Y-95493928D02*
X109499999Y-95636785D01*
X110428571Y-96993928D02*
X110285714Y-96922500D01*
X110285714Y-96922500D02*
X110214285Y-96851071D01*
X110214285Y-96851071D02*
X110142857Y-96708214D01*
X110142857Y-96708214D02*
X110142857Y-96279642D01*
X110142857Y-96279642D02*
X110214285Y-96136785D01*
X110214285Y-96136785D02*
X110285714Y-96065357D01*
X110285714Y-96065357D02*
X110428571Y-95993928D01*
X110428571Y-95993928D02*
X110642857Y-95993928D01*
X110642857Y-95993928D02*
X110785714Y-96065357D01*
X110785714Y-96065357D02*
X110857143Y-96136785D01*
X110857143Y-96136785D02*
X110928571Y-96279642D01*
X110928571Y-96279642D02*
X110928571Y-96708214D01*
X110928571Y-96708214D02*
X110857143Y-96851071D01*
X110857143Y-96851071D02*
X110785714Y-96922500D01*
X110785714Y-96922500D02*
X110642857Y-96993928D01*
X110642857Y-96993928D02*
X110428571Y-96993928D01*
X111571428Y-95993928D02*
X111571428Y-96993928D01*
X111571428Y-96136785D02*
X111642857Y-96065357D01*
X111642857Y-96065357D02*
X111785714Y-95993928D01*
X111785714Y-95993928D02*
X112000000Y-95993928D01*
X112000000Y-95993928D02*
X112142857Y-96065357D01*
X112142857Y-96065357D02*
X112214286Y-96208214D01*
X112214286Y-96208214D02*
X112214286Y-96993928D01*
X114071428Y-96993928D02*
X114071428Y-95493928D01*
X114071428Y-95493928D02*
X114428571Y-95493928D01*
X114428571Y-95493928D02*
X114642857Y-95565357D01*
X114642857Y-95565357D02*
X114785714Y-95708214D01*
X114785714Y-95708214D02*
X114857143Y-95851071D01*
X114857143Y-95851071D02*
X114928571Y-96136785D01*
X114928571Y-96136785D02*
X114928571Y-96351071D01*
X114928571Y-96351071D02*
X114857143Y-96636785D01*
X114857143Y-96636785D02*
X114785714Y-96779642D01*
X114785714Y-96779642D02*
X114642857Y-96922500D01*
X114642857Y-96922500D02*
X114428571Y-96993928D01*
X114428571Y-96993928D02*
X114071428Y-96993928D01*
X115571428Y-96993928D02*
X115571428Y-95993928D01*
X115571428Y-95493928D02*
X115500000Y-95565357D01*
X115500000Y-95565357D02*
X115571428Y-95636785D01*
X115571428Y-95636785D02*
X115642857Y-95565357D01*
X115642857Y-95565357D02*
X115571428Y-95493928D01*
X115571428Y-95493928D02*
X115571428Y-95636785D01*
X116214286Y-96922500D02*
X116357143Y-96993928D01*
X116357143Y-96993928D02*
X116642857Y-96993928D01*
X116642857Y-96993928D02*
X116785714Y-96922500D01*
X116785714Y-96922500D02*
X116857143Y-96779642D01*
X116857143Y-96779642D02*
X116857143Y-96708214D01*
X116857143Y-96708214D02*
X116785714Y-96565357D01*
X116785714Y-96565357D02*
X116642857Y-96493928D01*
X116642857Y-96493928D02*
X116428572Y-96493928D01*
X116428572Y-96493928D02*
X116285714Y-96422500D01*
X116285714Y-96422500D02*
X116214286Y-96279642D01*
X116214286Y-96279642D02*
X116214286Y-96208214D01*
X116214286Y-96208214D02*
X116285714Y-96065357D01*
X116285714Y-96065357D02*
X116428572Y-95993928D01*
X116428572Y-95993928D02*
X116642857Y-95993928D01*
X116642857Y-95993928D02*
X116785714Y-96065357D01*
X117500000Y-95993928D02*
X117500000Y-97493928D01*
X117500000Y-96065357D02*
X117642858Y-95993928D01*
X117642858Y-95993928D02*
X117928572Y-95993928D01*
X117928572Y-95993928D02*
X118071429Y-96065357D01*
X118071429Y-96065357D02*
X118142858Y-96136785D01*
X118142858Y-96136785D02*
X118214286Y-96279642D01*
X118214286Y-96279642D02*
X118214286Y-96708214D01*
X118214286Y-96708214D02*
X118142858Y-96851071D01*
X118142858Y-96851071D02*
X118071429Y-96922500D01*
X118071429Y-96922500D02*
X117928572Y-96993928D01*
X117928572Y-96993928D02*
X117642858Y-96993928D01*
X117642858Y-96993928D02*
X117500000Y-96922500D01*
X119071429Y-96993928D02*
X118928572Y-96922500D01*
X118928572Y-96922500D02*
X118857143Y-96779642D01*
X118857143Y-96779642D02*
X118857143Y-95493928D01*
X120285715Y-96993928D02*
X120285715Y-96208214D01*
X120285715Y-96208214D02*
X120214286Y-96065357D01*
X120214286Y-96065357D02*
X120071429Y-95993928D01*
X120071429Y-95993928D02*
X119785715Y-95993928D01*
X119785715Y-95993928D02*
X119642857Y-96065357D01*
X120285715Y-96922500D02*
X120142857Y-96993928D01*
X120142857Y-96993928D02*
X119785715Y-96993928D01*
X119785715Y-96993928D02*
X119642857Y-96922500D01*
X119642857Y-96922500D02*
X119571429Y-96779642D01*
X119571429Y-96779642D02*
X119571429Y-96636785D01*
X119571429Y-96636785D02*
X119642857Y-96493928D01*
X119642857Y-96493928D02*
X119785715Y-96422500D01*
X119785715Y-96422500D02*
X120142857Y-96422500D01*
X120142857Y-96422500D02*
X120285715Y-96351071D01*
X120857143Y-95993928D02*
X121214286Y-96993928D01*
X121571429Y-95993928D02*
X121214286Y-96993928D01*
X121214286Y-96993928D02*
X121071429Y-97351071D01*
X121071429Y-97351071D02*
X121000000Y-97422500D01*
X121000000Y-97422500D02*
X120857143Y-97493928D01*
X157806071Y-66371427D02*
X159306071Y-66371427D01*
X159306071Y-66371427D02*
X157806071Y-67228570D01*
X157806071Y-67228570D02*
X159306071Y-67228570D01*
X157877500Y-68514285D02*
X157806071Y-68371428D01*
X157806071Y-68371428D02*
X157806071Y-68085714D01*
X157806071Y-68085714D02*
X157877500Y-67942856D01*
X157877500Y-67942856D02*
X158020357Y-67871428D01*
X158020357Y-67871428D02*
X158591785Y-67871428D01*
X158591785Y-67871428D02*
X158734642Y-67942856D01*
X158734642Y-67942856D02*
X158806071Y-68085714D01*
X158806071Y-68085714D02*
X158806071Y-68371428D01*
X158806071Y-68371428D02*
X158734642Y-68514285D01*
X158734642Y-68514285D02*
X158591785Y-68585714D01*
X158591785Y-68585714D02*
X158448928Y-68585714D01*
X158448928Y-68585714D02*
X158306071Y-67871428D01*
X157806071Y-69085713D02*
X158806071Y-69871428D01*
X158806071Y-69085713D02*
X157806071Y-69871428D01*
X158806071Y-70228571D02*
X158806071Y-70799999D01*
X159306071Y-70442856D02*
X158020357Y-70442856D01*
X158020357Y-70442856D02*
X157877500Y-70514285D01*
X157877500Y-70514285D02*
X157806071Y-70657142D01*
X157806071Y-70657142D02*
X157806071Y-70799999D01*
X157806071Y-71299999D02*
X158806071Y-71299999D01*
X159306071Y-71299999D02*
X159234642Y-71228571D01*
X159234642Y-71228571D02*
X159163214Y-71299999D01*
X159163214Y-71299999D02*
X159234642Y-71371428D01*
X159234642Y-71371428D02*
X159306071Y-71299999D01*
X159306071Y-71299999D02*
X159163214Y-71299999D01*
X157806071Y-72228571D02*
X157877500Y-72085714D01*
X157877500Y-72085714D02*
X157948928Y-72014285D01*
X157948928Y-72014285D02*
X158091785Y-71942857D01*
X158091785Y-71942857D02*
X158520357Y-71942857D01*
X158520357Y-71942857D02*
X158663214Y-72014285D01*
X158663214Y-72014285D02*
X158734642Y-72085714D01*
X158734642Y-72085714D02*
X158806071Y-72228571D01*
X158806071Y-72228571D02*
X158806071Y-72442857D01*
X158806071Y-72442857D02*
X158734642Y-72585714D01*
X158734642Y-72585714D02*
X158663214Y-72657143D01*
X158663214Y-72657143D02*
X158520357Y-72728571D01*
X158520357Y-72728571D02*
X158091785Y-72728571D01*
X158091785Y-72728571D02*
X157948928Y-72657143D01*
X157948928Y-72657143D02*
X157877500Y-72585714D01*
X157877500Y-72585714D02*
X157806071Y-72442857D01*
X157806071Y-72442857D02*
X157806071Y-72228571D01*
X158806071Y-73371428D02*
X157806071Y-73371428D01*
X158663214Y-73371428D02*
X158734642Y-73442857D01*
X158734642Y-73442857D02*
X158806071Y-73585714D01*
X158806071Y-73585714D02*
X158806071Y-73800000D01*
X158806071Y-73800000D02*
X158734642Y-73942857D01*
X158734642Y-73942857D02*
X158591785Y-74014286D01*
X158591785Y-74014286D02*
X157806071Y-74014286D01*
X157806071Y-75871428D02*
X159306071Y-75871428D01*
X159306071Y-75871428D02*
X159306071Y-76228571D01*
X159306071Y-76228571D02*
X159234642Y-76442857D01*
X159234642Y-76442857D02*
X159091785Y-76585714D01*
X159091785Y-76585714D02*
X158948928Y-76657143D01*
X158948928Y-76657143D02*
X158663214Y-76728571D01*
X158663214Y-76728571D02*
X158448928Y-76728571D01*
X158448928Y-76728571D02*
X158163214Y-76657143D01*
X158163214Y-76657143D02*
X158020357Y-76585714D01*
X158020357Y-76585714D02*
X157877500Y-76442857D01*
X157877500Y-76442857D02*
X157806071Y-76228571D01*
X157806071Y-76228571D02*
X157806071Y-75871428D01*
X157806071Y-77371428D02*
X158806071Y-77371428D01*
X159306071Y-77371428D02*
X159234642Y-77300000D01*
X159234642Y-77300000D02*
X159163214Y-77371428D01*
X159163214Y-77371428D02*
X159234642Y-77442857D01*
X159234642Y-77442857D02*
X159306071Y-77371428D01*
X159306071Y-77371428D02*
X159163214Y-77371428D01*
X157877500Y-78014286D02*
X157806071Y-78157143D01*
X157806071Y-78157143D02*
X157806071Y-78442857D01*
X157806071Y-78442857D02*
X157877500Y-78585714D01*
X157877500Y-78585714D02*
X158020357Y-78657143D01*
X158020357Y-78657143D02*
X158091785Y-78657143D01*
X158091785Y-78657143D02*
X158234642Y-78585714D01*
X158234642Y-78585714D02*
X158306071Y-78442857D01*
X158306071Y-78442857D02*
X158306071Y-78228572D01*
X158306071Y-78228572D02*
X158377500Y-78085714D01*
X158377500Y-78085714D02*
X158520357Y-78014286D01*
X158520357Y-78014286D02*
X158591785Y-78014286D01*
X158591785Y-78014286D02*
X158734642Y-78085714D01*
X158734642Y-78085714D02*
X158806071Y-78228572D01*
X158806071Y-78228572D02*
X158806071Y-78442857D01*
X158806071Y-78442857D02*
X158734642Y-78585714D01*
X158806071Y-79300000D02*
X157306071Y-79300000D01*
X158734642Y-79300000D02*
X158806071Y-79442858D01*
X158806071Y-79442858D02*
X158806071Y-79728572D01*
X158806071Y-79728572D02*
X158734642Y-79871429D01*
X158734642Y-79871429D02*
X158663214Y-79942858D01*
X158663214Y-79942858D02*
X158520357Y-80014286D01*
X158520357Y-80014286D02*
X158091785Y-80014286D01*
X158091785Y-80014286D02*
X157948928Y-79942858D01*
X157948928Y-79942858D02*
X157877500Y-79871429D01*
X157877500Y-79871429D02*
X157806071Y-79728572D01*
X157806071Y-79728572D02*
X157806071Y-79442858D01*
X157806071Y-79442858D02*
X157877500Y-79300000D01*
X157806071Y-80871429D02*
X157877500Y-80728572D01*
X157877500Y-80728572D02*
X158020357Y-80657143D01*
X158020357Y-80657143D02*
X159306071Y-80657143D01*
X157806071Y-82085715D02*
X158591785Y-82085715D01*
X158591785Y-82085715D02*
X158734642Y-82014286D01*
X158734642Y-82014286D02*
X158806071Y-81871429D01*
X158806071Y-81871429D02*
X158806071Y-81585715D01*
X158806071Y-81585715D02*
X158734642Y-81442857D01*
X157877500Y-82085715D02*
X157806071Y-81942857D01*
X157806071Y-81942857D02*
X157806071Y-81585715D01*
X157806071Y-81585715D02*
X157877500Y-81442857D01*
X157877500Y-81442857D02*
X158020357Y-81371429D01*
X158020357Y-81371429D02*
X158163214Y-81371429D01*
X158163214Y-81371429D02*
X158306071Y-81442857D01*
X158306071Y-81442857D02*
X158377500Y-81585715D01*
X158377500Y-81585715D02*
X158377500Y-81942857D01*
X158377500Y-81942857D02*
X158448928Y-82085715D01*
X158806071Y-82657143D02*
X157806071Y-83014286D01*
X158806071Y-83371429D02*
X157806071Y-83014286D01*
X157806071Y-83014286D02*
X157448928Y-82871429D01*
X157448928Y-82871429D02*
X157377500Y-82800000D01*
X157377500Y-82800000D02*
X157306071Y-82657143D01*
D10*
X127957142Y-82562619D02*
X127623809Y-82086428D01*
X127385714Y-82562619D02*
X127385714Y-81562619D01*
X127385714Y-81562619D02*
X127766666Y-81562619D01*
X127766666Y-81562619D02*
X127861904Y-81610238D01*
X127861904Y-81610238D02*
X127909523Y-81657857D01*
X127909523Y-81657857D02*
X127957142Y-81753095D01*
X127957142Y-81753095D02*
X127957142Y-81895952D01*
X127957142Y-81895952D02*
X127909523Y-81991190D01*
X127909523Y-81991190D02*
X127861904Y-82038809D01*
X127861904Y-82038809D02*
X127766666Y-82086428D01*
X127766666Y-82086428D02*
X127385714Y-82086428D01*
X128338095Y-81657857D02*
X128385714Y-81610238D01*
X128385714Y-81610238D02*
X128480952Y-81562619D01*
X128480952Y-81562619D02*
X128719047Y-81562619D01*
X128719047Y-81562619D02*
X128814285Y-81610238D01*
X128814285Y-81610238D02*
X128861904Y-81657857D01*
X128861904Y-81657857D02*
X128909523Y-81753095D01*
X128909523Y-81753095D02*
X128909523Y-81848333D01*
X128909523Y-81848333D02*
X128861904Y-81991190D01*
X128861904Y-81991190D02*
X128290476Y-82562619D01*
X128290476Y-82562619D02*
X128909523Y-82562619D01*
X129242857Y-81562619D02*
X129909523Y-81562619D01*
X129909523Y-81562619D02*
X129480952Y-82562619D01*
X88757142Y-86417380D02*
X88709523Y-86465000D01*
X88709523Y-86465000D02*
X88566666Y-86512619D01*
X88566666Y-86512619D02*
X88471428Y-86512619D01*
X88471428Y-86512619D02*
X88328571Y-86465000D01*
X88328571Y-86465000D02*
X88233333Y-86369761D01*
X88233333Y-86369761D02*
X88185714Y-86274523D01*
X88185714Y-86274523D02*
X88138095Y-86084047D01*
X88138095Y-86084047D02*
X88138095Y-85941190D01*
X88138095Y-85941190D02*
X88185714Y-85750714D01*
X88185714Y-85750714D02*
X88233333Y-85655476D01*
X88233333Y-85655476D02*
X88328571Y-85560238D01*
X88328571Y-85560238D02*
X88471428Y-85512619D01*
X88471428Y-85512619D02*
X88566666Y-85512619D01*
X88566666Y-85512619D02*
X88709523Y-85560238D01*
X88709523Y-85560238D02*
X88757142Y-85607857D01*
X89138095Y-85607857D02*
X89185714Y-85560238D01*
X89185714Y-85560238D02*
X89280952Y-85512619D01*
X89280952Y-85512619D02*
X89519047Y-85512619D01*
X89519047Y-85512619D02*
X89614285Y-85560238D01*
X89614285Y-85560238D02*
X89661904Y-85607857D01*
X89661904Y-85607857D02*
X89709523Y-85703095D01*
X89709523Y-85703095D02*
X89709523Y-85798333D01*
X89709523Y-85798333D02*
X89661904Y-85941190D01*
X89661904Y-85941190D02*
X89090476Y-86512619D01*
X89090476Y-86512619D02*
X89709523Y-86512619D01*
X90090476Y-85607857D02*
X90138095Y-85560238D01*
X90138095Y-85560238D02*
X90233333Y-85512619D01*
X90233333Y-85512619D02*
X90471428Y-85512619D01*
X90471428Y-85512619D02*
X90566666Y-85560238D01*
X90566666Y-85560238D02*
X90614285Y-85607857D01*
X90614285Y-85607857D02*
X90661904Y-85703095D01*
X90661904Y-85703095D02*
X90661904Y-85798333D01*
X90661904Y-85798333D02*
X90614285Y-85941190D01*
X90614285Y-85941190D02*
X90042857Y-86512619D01*
X90042857Y-86512619D02*
X90661904Y-86512619D01*
X72257142Y-85867380D02*
X72209523Y-85915000D01*
X72209523Y-85915000D02*
X72066666Y-85962619D01*
X72066666Y-85962619D02*
X71971428Y-85962619D01*
X71971428Y-85962619D02*
X71828571Y-85915000D01*
X71828571Y-85915000D02*
X71733333Y-85819761D01*
X71733333Y-85819761D02*
X71685714Y-85724523D01*
X71685714Y-85724523D02*
X71638095Y-85534047D01*
X71638095Y-85534047D02*
X71638095Y-85391190D01*
X71638095Y-85391190D02*
X71685714Y-85200714D01*
X71685714Y-85200714D02*
X71733333Y-85105476D01*
X71733333Y-85105476D02*
X71828571Y-85010238D01*
X71828571Y-85010238D02*
X71971428Y-84962619D01*
X71971428Y-84962619D02*
X72066666Y-84962619D01*
X72066666Y-84962619D02*
X72209523Y-85010238D01*
X72209523Y-85010238D02*
X72257142Y-85057857D01*
X72638095Y-85057857D02*
X72685714Y-85010238D01*
X72685714Y-85010238D02*
X72780952Y-84962619D01*
X72780952Y-84962619D02*
X73019047Y-84962619D01*
X73019047Y-84962619D02*
X73114285Y-85010238D01*
X73114285Y-85010238D02*
X73161904Y-85057857D01*
X73161904Y-85057857D02*
X73209523Y-85153095D01*
X73209523Y-85153095D02*
X73209523Y-85248333D01*
X73209523Y-85248333D02*
X73161904Y-85391190D01*
X73161904Y-85391190D02*
X72590476Y-85962619D01*
X72590476Y-85962619D02*
X73209523Y-85962619D01*
X74161904Y-85962619D02*
X73590476Y-85962619D01*
X73876190Y-85962619D02*
X73876190Y-84962619D01*
X73876190Y-84962619D02*
X73780952Y-85105476D01*
X73780952Y-85105476D02*
X73685714Y-85200714D01*
X73685714Y-85200714D02*
X73590476Y-85248333D01*
X96017380Y-67942857D02*
X96065000Y-67990476D01*
X96065000Y-67990476D02*
X96112619Y-68133333D01*
X96112619Y-68133333D02*
X96112619Y-68228571D01*
X96112619Y-68228571D02*
X96065000Y-68371428D01*
X96065000Y-68371428D02*
X95969761Y-68466666D01*
X95969761Y-68466666D02*
X95874523Y-68514285D01*
X95874523Y-68514285D02*
X95684047Y-68561904D01*
X95684047Y-68561904D02*
X95541190Y-68561904D01*
X95541190Y-68561904D02*
X95350714Y-68514285D01*
X95350714Y-68514285D02*
X95255476Y-68466666D01*
X95255476Y-68466666D02*
X95160238Y-68371428D01*
X95160238Y-68371428D02*
X95112619Y-68228571D01*
X95112619Y-68228571D02*
X95112619Y-68133333D01*
X95112619Y-68133333D02*
X95160238Y-67990476D01*
X95160238Y-67990476D02*
X95207857Y-67942857D01*
X96112619Y-66990476D02*
X96112619Y-67561904D01*
X96112619Y-67276190D02*
X95112619Y-67276190D01*
X95112619Y-67276190D02*
X95255476Y-67371428D01*
X95255476Y-67371428D02*
X95350714Y-67466666D01*
X95350714Y-67466666D02*
X95398333Y-67561904D01*
X95112619Y-66657142D02*
X95112619Y-65990476D01*
X95112619Y-65990476D02*
X96112619Y-66419047D01*
X127907142Y-88512619D02*
X127573809Y-88036428D01*
X127335714Y-88512619D02*
X127335714Y-87512619D01*
X127335714Y-87512619D02*
X127716666Y-87512619D01*
X127716666Y-87512619D02*
X127811904Y-87560238D01*
X127811904Y-87560238D02*
X127859523Y-87607857D01*
X127859523Y-87607857D02*
X127907142Y-87703095D01*
X127907142Y-87703095D02*
X127907142Y-87845952D01*
X127907142Y-87845952D02*
X127859523Y-87941190D01*
X127859523Y-87941190D02*
X127811904Y-87988809D01*
X127811904Y-87988809D02*
X127716666Y-88036428D01*
X127716666Y-88036428D02*
X127335714Y-88036428D01*
X128240476Y-87512619D02*
X128859523Y-87512619D01*
X128859523Y-87512619D02*
X128526190Y-87893571D01*
X128526190Y-87893571D02*
X128669047Y-87893571D01*
X128669047Y-87893571D02*
X128764285Y-87941190D01*
X128764285Y-87941190D02*
X128811904Y-87988809D01*
X128811904Y-87988809D02*
X128859523Y-88084047D01*
X128859523Y-88084047D02*
X128859523Y-88322142D01*
X128859523Y-88322142D02*
X128811904Y-88417380D01*
X128811904Y-88417380D02*
X128764285Y-88465000D01*
X128764285Y-88465000D02*
X128669047Y-88512619D01*
X128669047Y-88512619D02*
X128383333Y-88512619D01*
X128383333Y-88512619D02*
X128288095Y-88465000D01*
X128288095Y-88465000D02*
X128240476Y-88417380D01*
X129478571Y-87512619D02*
X129573809Y-87512619D01*
X129573809Y-87512619D02*
X129669047Y-87560238D01*
X129669047Y-87560238D02*
X129716666Y-87607857D01*
X129716666Y-87607857D02*
X129764285Y-87703095D01*
X129764285Y-87703095D02*
X129811904Y-87893571D01*
X129811904Y-87893571D02*
X129811904Y-88131666D01*
X129811904Y-88131666D02*
X129764285Y-88322142D01*
X129764285Y-88322142D02*
X129716666Y-88417380D01*
X129716666Y-88417380D02*
X129669047Y-88465000D01*
X129669047Y-88465000D02*
X129573809Y-88512619D01*
X129573809Y-88512619D02*
X129478571Y-88512619D01*
X129478571Y-88512619D02*
X129383333Y-88465000D01*
X129383333Y-88465000D02*
X129335714Y-88417380D01*
X129335714Y-88417380D02*
X129288095Y-88322142D01*
X129288095Y-88322142D02*
X129240476Y-88131666D01*
X129240476Y-88131666D02*
X129240476Y-87893571D01*
X129240476Y-87893571D02*
X129288095Y-87703095D01*
X129288095Y-87703095D02*
X129335714Y-87607857D01*
X129335714Y-87607857D02*
X129383333Y-87560238D01*
X129383333Y-87560238D02*
X129478571Y-87512619D01*
X127907142Y-80462619D02*
X127573809Y-79986428D01*
X127335714Y-80462619D02*
X127335714Y-79462619D01*
X127335714Y-79462619D02*
X127716666Y-79462619D01*
X127716666Y-79462619D02*
X127811904Y-79510238D01*
X127811904Y-79510238D02*
X127859523Y-79557857D01*
X127859523Y-79557857D02*
X127907142Y-79653095D01*
X127907142Y-79653095D02*
X127907142Y-79795952D01*
X127907142Y-79795952D02*
X127859523Y-79891190D01*
X127859523Y-79891190D02*
X127811904Y-79938809D01*
X127811904Y-79938809D02*
X127716666Y-79986428D01*
X127716666Y-79986428D02*
X127335714Y-79986428D01*
X128288095Y-79557857D02*
X128335714Y-79510238D01*
X128335714Y-79510238D02*
X128430952Y-79462619D01*
X128430952Y-79462619D02*
X128669047Y-79462619D01*
X128669047Y-79462619D02*
X128764285Y-79510238D01*
X128764285Y-79510238D02*
X128811904Y-79557857D01*
X128811904Y-79557857D02*
X128859523Y-79653095D01*
X128859523Y-79653095D02*
X128859523Y-79748333D01*
X128859523Y-79748333D02*
X128811904Y-79891190D01*
X128811904Y-79891190D02*
X128240476Y-80462619D01*
X128240476Y-80462619D02*
X128859523Y-80462619D01*
X129716666Y-79462619D02*
X129526190Y-79462619D01*
X129526190Y-79462619D02*
X129430952Y-79510238D01*
X129430952Y-79510238D02*
X129383333Y-79557857D01*
X129383333Y-79557857D02*
X129288095Y-79700714D01*
X129288095Y-79700714D02*
X129240476Y-79891190D01*
X129240476Y-79891190D02*
X129240476Y-80272142D01*
X129240476Y-80272142D02*
X129288095Y-80367380D01*
X129288095Y-80367380D02*
X129335714Y-80415000D01*
X129335714Y-80415000D02*
X129430952Y-80462619D01*
X129430952Y-80462619D02*
X129621428Y-80462619D01*
X129621428Y-80462619D02*
X129716666Y-80415000D01*
X129716666Y-80415000D02*
X129764285Y-80367380D01*
X129764285Y-80367380D02*
X129811904Y-80272142D01*
X129811904Y-80272142D02*
X129811904Y-80034047D01*
X129811904Y-80034047D02*
X129764285Y-79938809D01*
X129764285Y-79938809D02*
X129716666Y-79891190D01*
X129716666Y-79891190D02*
X129621428Y-79843571D01*
X129621428Y-79843571D02*
X129430952Y-79843571D01*
X129430952Y-79843571D02*
X129335714Y-79891190D01*
X129335714Y-79891190D02*
X129288095Y-79938809D01*
X129288095Y-79938809D02*
X129240476Y-80034047D01*
X80167380Y-98992857D02*
X80215000Y-99040476D01*
X80215000Y-99040476D02*
X80262619Y-99183333D01*
X80262619Y-99183333D02*
X80262619Y-99278571D01*
X80262619Y-99278571D02*
X80215000Y-99421428D01*
X80215000Y-99421428D02*
X80119761Y-99516666D01*
X80119761Y-99516666D02*
X80024523Y-99564285D01*
X80024523Y-99564285D02*
X79834047Y-99611904D01*
X79834047Y-99611904D02*
X79691190Y-99611904D01*
X79691190Y-99611904D02*
X79500714Y-99564285D01*
X79500714Y-99564285D02*
X79405476Y-99516666D01*
X79405476Y-99516666D02*
X79310238Y-99421428D01*
X79310238Y-99421428D02*
X79262619Y-99278571D01*
X79262619Y-99278571D02*
X79262619Y-99183333D01*
X79262619Y-99183333D02*
X79310238Y-99040476D01*
X79310238Y-99040476D02*
X79357857Y-98992857D01*
X80262619Y-98040476D02*
X80262619Y-98611904D01*
X80262619Y-98326190D02*
X79262619Y-98326190D01*
X79262619Y-98326190D02*
X79405476Y-98421428D01*
X79405476Y-98421428D02*
X79500714Y-98516666D01*
X79500714Y-98516666D02*
X79548333Y-98611904D01*
X79691190Y-97469047D02*
X79643571Y-97564285D01*
X79643571Y-97564285D02*
X79595952Y-97611904D01*
X79595952Y-97611904D02*
X79500714Y-97659523D01*
X79500714Y-97659523D02*
X79453095Y-97659523D01*
X79453095Y-97659523D02*
X79357857Y-97611904D01*
X79357857Y-97611904D02*
X79310238Y-97564285D01*
X79310238Y-97564285D02*
X79262619Y-97469047D01*
X79262619Y-97469047D02*
X79262619Y-97278571D01*
X79262619Y-97278571D02*
X79310238Y-97183333D01*
X79310238Y-97183333D02*
X79357857Y-97135714D01*
X79357857Y-97135714D02*
X79453095Y-97088095D01*
X79453095Y-97088095D02*
X79500714Y-97088095D01*
X79500714Y-97088095D02*
X79595952Y-97135714D01*
X79595952Y-97135714D02*
X79643571Y-97183333D01*
X79643571Y-97183333D02*
X79691190Y-97278571D01*
X79691190Y-97278571D02*
X79691190Y-97469047D01*
X79691190Y-97469047D02*
X79738809Y-97564285D01*
X79738809Y-97564285D02*
X79786428Y-97611904D01*
X79786428Y-97611904D02*
X79881666Y-97659523D01*
X79881666Y-97659523D02*
X80072142Y-97659523D01*
X80072142Y-97659523D02*
X80167380Y-97611904D01*
X80167380Y-97611904D02*
X80215000Y-97564285D01*
X80215000Y-97564285D02*
X80262619Y-97469047D01*
X80262619Y-97469047D02*
X80262619Y-97278571D01*
X80262619Y-97278571D02*
X80215000Y-97183333D01*
X80215000Y-97183333D02*
X80167380Y-97135714D01*
X80167380Y-97135714D02*
X80072142Y-97088095D01*
X80072142Y-97088095D02*
X79881666Y-97088095D01*
X79881666Y-97088095D02*
X79786428Y-97135714D01*
X79786428Y-97135714D02*
X79738809Y-97183333D01*
X79738809Y-97183333D02*
X79691190Y-97278571D01*
X88157142Y-64062619D02*
X87823809Y-63586428D01*
X87585714Y-64062619D02*
X87585714Y-63062619D01*
X87585714Y-63062619D02*
X87966666Y-63062619D01*
X87966666Y-63062619D02*
X88061904Y-63110238D01*
X88061904Y-63110238D02*
X88109523Y-63157857D01*
X88109523Y-63157857D02*
X88157142Y-63253095D01*
X88157142Y-63253095D02*
X88157142Y-63395952D01*
X88157142Y-63395952D02*
X88109523Y-63491190D01*
X88109523Y-63491190D02*
X88061904Y-63538809D01*
X88061904Y-63538809D02*
X87966666Y-63586428D01*
X87966666Y-63586428D02*
X87585714Y-63586428D01*
X89109523Y-64062619D02*
X88538095Y-64062619D01*
X88823809Y-64062619D02*
X88823809Y-63062619D01*
X88823809Y-63062619D02*
X88728571Y-63205476D01*
X88728571Y-63205476D02*
X88633333Y-63300714D01*
X88633333Y-63300714D02*
X88538095Y-63348333D01*
X89728571Y-63062619D02*
X89823809Y-63062619D01*
X89823809Y-63062619D02*
X89919047Y-63110238D01*
X89919047Y-63110238D02*
X89966666Y-63157857D01*
X89966666Y-63157857D02*
X90014285Y-63253095D01*
X90014285Y-63253095D02*
X90061904Y-63443571D01*
X90061904Y-63443571D02*
X90061904Y-63681666D01*
X90061904Y-63681666D02*
X90014285Y-63872142D01*
X90014285Y-63872142D02*
X89966666Y-63967380D01*
X89966666Y-63967380D02*
X89919047Y-64015000D01*
X89919047Y-64015000D02*
X89823809Y-64062619D01*
X89823809Y-64062619D02*
X89728571Y-64062619D01*
X89728571Y-64062619D02*
X89633333Y-64015000D01*
X89633333Y-64015000D02*
X89585714Y-63967380D01*
X89585714Y-63967380D02*
X89538095Y-63872142D01*
X89538095Y-63872142D02*
X89490476Y-63681666D01*
X89490476Y-63681666D02*
X89490476Y-63443571D01*
X89490476Y-63443571D02*
X89538095Y-63253095D01*
X89538095Y-63253095D02*
X89585714Y-63157857D01*
X89585714Y-63157857D02*
X89633333Y-63110238D01*
X89633333Y-63110238D02*
X89728571Y-63062619D01*
X127907142Y-84462619D02*
X127573809Y-83986428D01*
X127335714Y-84462619D02*
X127335714Y-83462619D01*
X127335714Y-83462619D02*
X127716666Y-83462619D01*
X127716666Y-83462619D02*
X127811904Y-83510238D01*
X127811904Y-83510238D02*
X127859523Y-83557857D01*
X127859523Y-83557857D02*
X127907142Y-83653095D01*
X127907142Y-83653095D02*
X127907142Y-83795952D01*
X127907142Y-83795952D02*
X127859523Y-83891190D01*
X127859523Y-83891190D02*
X127811904Y-83938809D01*
X127811904Y-83938809D02*
X127716666Y-83986428D01*
X127716666Y-83986428D02*
X127335714Y-83986428D01*
X128288095Y-83557857D02*
X128335714Y-83510238D01*
X128335714Y-83510238D02*
X128430952Y-83462619D01*
X128430952Y-83462619D02*
X128669047Y-83462619D01*
X128669047Y-83462619D02*
X128764285Y-83510238D01*
X128764285Y-83510238D02*
X128811904Y-83557857D01*
X128811904Y-83557857D02*
X128859523Y-83653095D01*
X128859523Y-83653095D02*
X128859523Y-83748333D01*
X128859523Y-83748333D02*
X128811904Y-83891190D01*
X128811904Y-83891190D02*
X128240476Y-84462619D01*
X128240476Y-84462619D02*
X128859523Y-84462619D01*
X129430952Y-83891190D02*
X129335714Y-83843571D01*
X129335714Y-83843571D02*
X129288095Y-83795952D01*
X129288095Y-83795952D02*
X129240476Y-83700714D01*
X129240476Y-83700714D02*
X129240476Y-83653095D01*
X129240476Y-83653095D02*
X129288095Y-83557857D01*
X129288095Y-83557857D02*
X129335714Y-83510238D01*
X129335714Y-83510238D02*
X129430952Y-83462619D01*
X129430952Y-83462619D02*
X129621428Y-83462619D01*
X129621428Y-83462619D02*
X129716666Y-83510238D01*
X129716666Y-83510238D02*
X129764285Y-83557857D01*
X129764285Y-83557857D02*
X129811904Y-83653095D01*
X129811904Y-83653095D02*
X129811904Y-83700714D01*
X129811904Y-83700714D02*
X129764285Y-83795952D01*
X129764285Y-83795952D02*
X129716666Y-83843571D01*
X129716666Y-83843571D02*
X129621428Y-83891190D01*
X129621428Y-83891190D02*
X129430952Y-83891190D01*
X129430952Y-83891190D02*
X129335714Y-83938809D01*
X129335714Y-83938809D02*
X129288095Y-83986428D01*
X129288095Y-83986428D02*
X129240476Y-84081666D01*
X129240476Y-84081666D02*
X129240476Y-84272142D01*
X129240476Y-84272142D02*
X129288095Y-84367380D01*
X129288095Y-84367380D02*
X129335714Y-84415000D01*
X129335714Y-84415000D02*
X129430952Y-84462619D01*
X129430952Y-84462619D02*
X129621428Y-84462619D01*
X129621428Y-84462619D02*
X129716666Y-84415000D01*
X129716666Y-84415000D02*
X129764285Y-84367380D01*
X129764285Y-84367380D02*
X129811904Y-84272142D01*
X129811904Y-84272142D02*
X129811904Y-84081666D01*
X129811904Y-84081666D02*
X129764285Y-83986428D01*
X129764285Y-83986428D02*
X129716666Y-83938809D01*
X129716666Y-83938809D02*
X129621428Y-83891190D01*
X127957142Y-78462619D02*
X127623809Y-77986428D01*
X127385714Y-78462619D02*
X127385714Y-77462619D01*
X127385714Y-77462619D02*
X127766666Y-77462619D01*
X127766666Y-77462619D02*
X127861904Y-77510238D01*
X127861904Y-77510238D02*
X127909523Y-77557857D01*
X127909523Y-77557857D02*
X127957142Y-77653095D01*
X127957142Y-77653095D02*
X127957142Y-77795952D01*
X127957142Y-77795952D02*
X127909523Y-77891190D01*
X127909523Y-77891190D02*
X127861904Y-77938809D01*
X127861904Y-77938809D02*
X127766666Y-77986428D01*
X127766666Y-77986428D02*
X127385714Y-77986428D01*
X128338095Y-77557857D02*
X128385714Y-77510238D01*
X128385714Y-77510238D02*
X128480952Y-77462619D01*
X128480952Y-77462619D02*
X128719047Y-77462619D01*
X128719047Y-77462619D02*
X128814285Y-77510238D01*
X128814285Y-77510238D02*
X128861904Y-77557857D01*
X128861904Y-77557857D02*
X128909523Y-77653095D01*
X128909523Y-77653095D02*
X128909523Y-77748333D01*
X128909523Y-77748333D02*
X128861904Y-77891190D01*
X128861904Y-77891190D02*
X128290476Y-78462619D01*
X128290476Y-78462619D02*
X128909523Y-78462619D01*
X129814285Y-77462619D02*
X129338095Y-77462619D01*
X129338095Y-77462619D02*
X129290476Y-77938809D01*
X129290476Y-77938809D02*
X129338095Y-77891190D01*
X129338095Y-77891190D02*
X129433333Y-77843571D01*
X129433333Y-77843571D02*
X129671428Y-77843571D01*
X129671428Y-77843571D02*
X129766666Y-77891190D01*
X129766666Y-77891190D02*
X129814285Y-77938809D01*
X129814285Y-77938809D02*
X129861904Y-78034047D01*
X129861904Y-78034047D02*
X129861904Y-78272142D01*
X129861904Y-78272142D02*
X129814285Y-78367380D01*
X129814285Y-78367380D02*
X129766666Y-78415000D01*
X129766666Y-78415000D02*
X129671428Y-78462619D01*
X129671428Y-78462619D02*
X129433333Y-78462619D01*
X129433333Y-78462619D02*
X129338095Y-78415000D01*
X129338095Y-78415000D02*
X129290476Y-78367380D01*
X88557142Y-81317380D02*
X88509523Y-81365000D01*
X88509523Y-81365000D02*
X88366666Y-81412619D01*
X88366666Y-81412619D02*
X88271428Y-81412619D01*
X88271428Y-81412619D02*
X88128571Y-81365000D01*
X88128571Y-81365000D02*
X88033333Y-81269761D01*
X88033333Y-81269761D02*
X87985714Y-81174523D01*
X87985714Y-81174523D02*
X87938095Y-80984047D01*
X87938095Y-80984047D02*
X87938095Y-80841190D01*
X87938095Y-80841190D02*
X87985714Y-80650714D01*
X87985714Y-80650714D02*
X88033333Y-80555476D01*
X88033333Y-80555476D02*
X88128571Y-80460238D01*
X88128571Y-80460238D02*
X88271428Y-80412619D01*
X88271428Y-80412619D02*
X88366666Y-80412619D01*
X88366666Y-80412619D02*
X88509523Y-80460238D01*
X88509523Y-80460238D02*
X88557142Y-80507857D01*
X89509523Y-81412619D02*
X88938095Y-81412619D01*
X89223809Y-81412619D02*
X89223809Y-80412619D01*
X89223809Y-80412619D02*
X89128571Y-80555476D01*
X89128571Y-80555476D02*
X89033333Y-80650714D01*
X89033333Y-80650714D02*
X88938095Y-80698333D01*
X89985714Y-81412619D02*
X90176190Y-81412619D01*
X90176190Y-81412619D02*
X90271428Y-81365000D01*
X90271428Y-81365000D02*
X90319047Y-81317380D01*
X90319047Y-81317380D02*
X90414285Y-81174523D01*
X90414285Y-81174523D02*
X90461904Y-80984047D01*
X90461904Y-80984047D02*
X90461904Y-80603095D01*
X90461904Y-80603095D02*
X90414285Y-80507857D01*
X90414285Y-80507857D02*
X90366666Y-80460238D01*
X90366666Y-80460238D02*
X90271428Y-80412619D01*
X90271428Y-80412619D02*
X90080952Y-80412619D01*
X90080952Y-80412619D02*
X89985714Y-80460238D01*
X89985714Y-80460238D02*
X89938095Y-80507857D01*
X89938095Y-80507857D02*
X89890476Y-80603095D01*
X89890476Y-80603095D02*
X89890476Y-80841190D01*
X89890476Y-80841190D02*
X89938095Y-80936428D01*
X89938095Y-80936428D02*
X89985714Y-80984047D01*
X89985714Y-80984047D02*
X90080952Y-81031666D01*
X90080952Y-81031666D02*
X90271428Y-81031666D01*
X90271428Y-81031666D02*
X90366666Y-80984047D01*
X90366666Y-80984047D02*
X90414285Y-80936428D01*
X90414285Y-80936428D02*
X90461904Y-80841190D01*
X143515000Y-114570832D02*
X143562619Y-114427975D01*
X143562619Y-114427975D02*
X143562619Y-114189880D01*
X143562619Y-114189880D02*
X143515000Y-114094642D01*
X143515000Y-114094642D02*
X143467380Y-114047023D01*
X143467380Y-114047023D02*
X143372142Y-113999404D01*
X143372142Y-113999404D02*
X143276904Y-113999404D01*
X143276904Y-113999404D02*
X143181666Y-114047023D01*
X143181666Y-114047023D02*
X143134047Y-114094642D01*
X143134047Y-114094642D02*
X143086428Y-114189880D01*
X143086428Y-114189880D02*
X143038809Y-114380356D01*
X143038809Y-114380356D02*
X142991190Y-114475594D01*
X142991190Y-114475594D02*
X142943571Y-114523213D01*
X142943571Y-114523213D02*
X142848333Y-114570832D01*
X142848333Y-114570832D02*
X142753095Y-114570832D01*
X142753095Y-114570832D02*
X142657857Y-114523213D01*
X142657857Y-114523213D02*
X142610238Y-114475594D01*
X142610238Y-114475594D02*
X142562619Y-114380356D01*
X142562619Y-114380356D02*
X142562619Y-114142261D01*
X142562619Y-114142261D02*
X142610238Y-113999404D01*
X142562619Y-113666070D02*
X143562619Y-113427975D01*
X143562619Y-113427975D02*
X142848333Y-113237499D01*
X142848333Y-113237499D02*
X143562619Y-113047023D01*
X143562619Y-113047023D02*
X142562619Y-112808928D01*
X143562619Y-111904166D02*
X143562619Y-112475594D01*
X143562619Y-112189880D02*
X142562619Y-112189880D01*
X142562619Y-112189880D02*
X142705476Y-112285118D01*
X142705476Y-112285118D02*
X142800714Y-112380356D01*
X142800714Y-112380356D02*
X142848333Y-112475594D01*
X78487380Y-55942857D02*
X78535000Y-55990476D01*
X78535000Y-55990476D02*
X78582619Y-56133333D01*
X78582619Y-56133333D02*
X78582619Y-56228571D01*
X78582619Y-56228571D02*
X78535000Y-56371428D01*
X78535000Y-56371428D02*
X78439761Y-56466666D01*
X78439761Y-56466666D02*
X78344523Y-56514285D01*
X78344523Y-56514285D02*
X78154047Y-56561904D01*
X78154047Y-56561904D02*
X78011190Y-56561904D01*
X78011190Y-56561904D02*
X77820714Y-56514285D01*
X77820714Y-56514285D02*
X77725476Y-56466666D01*
X77725476Y-56466666D02*
X77630238Y-56371428D01*
X77630238Y-56371428D02*
X77582619Y-56228571D01*
X77582619Y-56228571D02*
X77582619Y-56133333D01*
X77582619Y-56133333D02*
X77630238Y-55990476D01*
X77630238Y-55990476D02*
X77677857Y-55942857D01*
X78582619Y-54990476D02*
X78582619Y-55561904D01*
X78582619Y-55276190D02*
X77582619Y-55276190D01*
X77582619Y-55276190D02*
X77725476Y-55371428D01*
X77725476Y-55371428D02*
X77820714Y-55466666D01*
X77820714Y-55466666D02*
X77868333Y-55561904D01*
X77582619Y-54657142D02*
X77582619Y-54038095D01*
X77582619Y-54038095D02*
X77963571Y-54371428D01*
X77963571Y-54371428D02*
X77963571Y-54228571D01*
X77963571Y-54228571D02*
X78011190Y-54133333D01*
X78011190Y-54133333D02*
X78058809Y-54085714D01*
X78058809Y-54085714D02*
X78154047Y-54038095D01*
X78154047Y-54038095D02*
X78392142Y-54038095D01*
X78392142Y-54038095D02*
X78487380Y-54085714D01*
X78487380Y-54085714D02*
X78535000Y-54133333D01*
X78535000Y-54133333D02*
X78582619Y-54228571D01*
X78582619Y-54228571D02*
X78582619Y-54514285D01*
X78582619Y-54514285D02*
X78535000Y-54609523D01*
X78535000Y-54609523D02*
X78487380Y-54657142D01*
X72007142Y-88867380D02*
X71959523Y-88915000D01*
X71959523Y-88915000D02*
X71816666Y-88962619D01*
X71816666Y-88962619D02*
X71721428Y-88962619D01*
X71721428Y-88962619D02*
X71578571Y-88915000D01*
X71578571Y-88915000D02*
X71483333Y-88819761D01*
X71483333Y-88819761D02*
X71435714Y-88724523D01*
X71435714Y-88724523D02*
X71388095Y-88534047D01*
X71388095Y-88534047D02*
X71388095Y-88391190D01*
X71388095Y-88391190D02*
X71435714Y-88200714D01*
X71435714Y-88200714D02*
X71483333Y-88105476D01*
X71483333Y-88105476D02*
X71578571Y-88010238D01*
X71578571Y-88010238D02*
X71721428Y-87962619D01*
X71721428Y-87962619D02*
X71816666Y-87962619D01*
X71816666Y-87962619D02*
X71959523Y-88010238D01*
X71959523Y-88010238D02*
X72007142Y-88057857D01*
X72388095Y-88057857D02*
X72435714Y-88010238D01*
X72435714Y-88010238D02*
X72530952Y-87962619D01*
X72530952Y-87962619D02*
X72769047Y-87962619D01*
X72769047Y-87962619D02*
X72864285Y-88010238D01*
X72864285Y-88010238D02*
X72911904Y-88057857D01*
X72911904Y-88057857D02*
X72959523Y-88153095D01*
X72959523Y-88153095D02*
X72959523Y-88248333D01*
X72959523Y-88248333D02*
X72911904Y-88391190D01*
X72911904Y-88391190D02*
X72340476Y-88962619D01*
X72340476Y-88962619D02*
X72959523Y-88962619D01*
X73292857Y-87962619D02*
X73911904Y-87962619D01*
X73911904Y-87962619D02*
X73578571Y-88343571D01*
X73578571Y-88343571D02*
X73721428Y-88343571D01*
X73721428Y-88343571D02*
X73816666Y-88391190D01*
X73816666Y-88391190D02*
X73864285Y-88438809D01*
X73864285Y-88438809D02*
X73911904Y-88534047D01*
X73911904Y-88534047D02*
X73911904Y-88772142D01*
X73911904Y-88772142D02*
X73864285Y-88867380D01*
X73864285Y-88867380D02*
X73816666Y-88915000D01*
X73816666Y-88915000D02*
X73721428Y-88962619D01*
X73721428Y-88962619D02*
X73435714Y-88962619D01*
X73435714Y-88962619D02*
X73340476Y-88915000D01*
X73340476Y-88915000D02*
X73292857Y-88867380D01*
X88207142Y-60867380D02*
X88159523Y-60915000D01*
X88159523Y-60915000D02*
X88016666Y-60962619D01*
X88016666Y-60962619D02*
X87921428Y-60962619D01*
X87921428Y-60962619D02*
X87778571Y-60915000D01*
X87778571Y-60915000D02*
X87683333Y-60819761D01*
X87683333Y-60819761D02*
X87635714Y-60724523D01*
X87635714Y-60724523D02*
X87588095Y-60534047D01*
X87588095Y-60534047D02*
X87588095Y-60391190D01*
X87588095Y-60391190D02*
X87635714Y-60200714D01*
X87635714Y-60200714D02*
X87683333Y-60105476D01*
X87683333Y-60105476D02*
X87778571Y-60010238D01*
X87778571Y-60010238D02*
X87921428Y-59962619D01*
X87921428Y-59962619D02*
X88016666Y-59962619D01*
X88016666Y-59962619D02*
X88159523Y-60010238D01*
X88159523Y-60010238D02*
X88207142Y-60057857D01*
X89159523Y-60962619D02*
X88588095Y-60962619D01*
X88873809Y-60962619D02*
X88873809Y-59962619D01*
X88873809Y-59962619D02*
X88778571Y-60105476D01*
X88778571Y-60105476D02*
X88683333Y-60200714D01*
X88683333Y-60200714D02*
X88588095Y-60248333D01*
X90016666Y-60295952D02*
X90016666Y-60962619D01*
X89778571Y-59915000D02*
X89540476Y-60629285D01*
X89540476Y-60629285D02*
X90159523Y-60629285D01*
X127907142Y-86462619D02*
X127573809Y-85986428D01*
X127335714Y-86462619D02*
X127335714Y-85462619D01*
X127335714Y-85462619D02*
X127716666Y-85462619D01*
X127716666Y-85462619D02*
X127811904Y-85510238D01*
X127811904Y-85510238D02*
X127859523Y-85557857D01*
X127859523Y-85557857D02*
X127907142Y-85653095D01*
X127907142Y-85653095D02*
X127907142Y-85795952D01*
X127907142Y-85795952D02*
X127859523Y-85891190D01*
X127859523Y-85891190D02*
X127811904Y-85938809D01*
X127811904Y-85938809D02*
X127716666Y-85986428D01*
X127716666Y-85986428D02*
X127335714Y-85986428D01*
X128288095Y-85557857D02*
X128335714Y-85510238D01*
X128335714Y-85510238D02*
X128430952Y-85462619D01*
X128430952Y-85462619D02*
X128669047Y-85462619D01*
X128669047Y-85462619D02*
X128764285Y-85510238D01*
X128764285Y-85510238D02*
X128811904Y-85557857D01*
X128811904Y-85557857D02*
X128859523Y-85653095D01*
X128859523Y-85653095D02*
X128859523Y-85748333D01*
X128859523Y-85748333D02*
X128811904Y-85891190D01*
X128811904Y-85891190D02*
X128240476Y-86462619D01*
X128240476Y-86462619D02*
X128859523Y-86462619D01*
X129335714Y-86462619D02*
X129526190Y-86462619D01*
X129526190Y-86462619D02*
X129621428Y-86415000D01*
X129621428Y-86415000D02*
X129669047Y-86367380D01*
X129669047Y-86367380D02*
X129764285Y-86224523D01*
X129764285Y-86224523D02*
X129811904Y-86034047D01*
X129811904Y-86034047D02*
X129811904Y-85653095D01*
X129811904Y-85653095D02*
X129764285Y-85557857D01*
X129764285Y-85557857D02*
X129716666Y-85510238D01*
X129716666Y-85510238D02*
X129621428Y-85462619D01*
X129621428Y-85462619D02*
X129430952Y-85462619D01*
X129430952Y-85462619D02*
X129335714Y-85510238D01*
X129335714Y-85510238D02*
X129288095Y-85557857D01*
X129288095Y-85557857D02*
X129240476Y-85653095D01*
X129240476Y-85653095D02*
X129240476Y-85891190D01*
X129240476Y-85891190D02*
X129288095Y-85986428D01*
X129288095Y-85986428D02*
X129335714Y-86034047D01*
X129335714Y-86034047D02*
X129430952Y-86081666D01*
X129430952Y-86081666D02*
X129621428Y-86081666D01*
X129621428Y-86081666D02*
X129716666Y-86034047D01*
X129716666Y-86034047D02*
X129764285Y-85986428D01*
X129764285Y-85986428D02*
X129811904Y-85891190D01*
X88857142Y-91367380D02*
X88809523Y-91415000D01*
X88809523Y-91415000D02*
X88666666Y-91462619D01*
X88666666Y-91462619D02*
X88571428Y-91462619D01*
X88571428Y-91462619D02*
X88428571Y-91415000D01*
X88428571Y-91415000D02*
X88333333Y-91319761D01*
X88333333Y-91319761D02*
X88285714Y-91224523D01*
X88285714Y-91224523D02*
X88238095Y-91034047D01*
X88238095Y-91034047D02*
X88238095Y-90891190D01*
X88238095Y-90891190D02*
X88285714Y-90700714D01*
X88285714Y-90700714D02*
X88333333Y-90605476D01*
X88333333Y-90605476D02*
X88428571Y-90510238D01*
X88428571Y-90510238D02*
X88571428Y-90462619D01*
X88571428Y-90462619D02*
X88666666Y-90462619D01*
X88666666Y-90462619D02*
X88809523Y-90510238D01*
X88809523Y-90510238D02*
X88857142Y-90557857D01*
X89238095Y-90557857D02*
X89285714Y-90510238D01*
X89285714Y-90510238D02*
X89380952Y-90462619D01*
X89380952Y-90462619D02*
X89619047Y-90462619D01*
X89619047Y-90462619D02*
X89714285Y-90510238D01*
X89714285Y-90510238D02*
X89761904Y-90557857D01*
X89761904Y-90557857D02*
X89809523Y-90653095D01*
X89809523Y-90653095D02*
X89809523Y-90748333D01*
X89809523Y-90748333D02*
X89761904Y-90891190D01*
X89761904Y-90891190D02*
X89190476Y-91462619D01*
X89190476Y-91462619D02*
X89809523Y-91462619D01*
X90428571Y-90462619D02*
X90523809Y-90462619D01*
X90523809Y-90462619D02*
X90619047Y-90510238D01*
X90619047Y-90510238D02*
X90666666Y-90557857D01*
X90666666Y-90557857D02*
X90714285Y-90653095D01*
X90714285Y-90653095D02*
X90761904Y-90843571D01*
X90761904Y-90843571D02*
X90761904Y-91081666D01*
X90761904Y-91081666D02*
X90714285Y-91272142D01*
X90714285Y-91272142D02*
X90666666Y-91367380D01*
X90666666Y-91367380D02*
X90619047Y-91415000D01*
X90619047Y-91415000D02*
X90523809Y-91462619D01*
X90523809Y-91462619D02*
X90428571Y-91462619D01*
X90428571Y-91462619D02*
X90333333Y-91415000D01*
X90333333Y-91415000D02*
X90285714Y-91367380D01*
X90285714Y-91367380D02*
X90238095Y-91272142D01*
X90238095Y-91272142D02*
X90190476Y-91081666D01*
X90190476Y-91081666D02*
X90190476Y-90843571D01*
X90190476Y-90843571D02*
X90238095Y-90653095D01*
X90238095Y-90653095D02*
X90285714Y-90557857D01*
X90285714Y-90557857D02*
X90333333Y-90510238D01*
X90333333Y-90510238D02*
X90428571Y-90462619D01*
D13*
X131772936Y-81265000D02*
X132227064Y-81265000D01*
X131772936Y-82735000D02*
X132227064Y-82735000D01*
X86261252Y-86735000D02*
X85738748Y-86735000D01*
X86261252Y-85265000D02*
X85738748Y-85265000D01*
X76238748Y-84765000D02*
X76761252Y-84765000D01*
X76238748Y-86235000D02*
X76761252Y-86235000D01*
X94765000Y-71723752D02*
X94765000Y-71201248D01*
X96235000Y-71723752D02*
X96235000Y-71201248D01*
X131772936Y-87265000D02*
X132227064Y-87265000D01*
X131772936Y-88735000D02*
X132227064Y-88735000D01*
X131772936Y-79265000D02*
X132227064Y-79265000D01*
X131772936Y-80735000D02*
X132227064Y-80735000D01*
X79065000Y-94861252D02*
X79065000Y-94338748D01*
X80535000Y-94861252D02*
X80535000Y-94338748D01*
X85272936Y-61765000D02*
X85727064Y-61765000D01*
X85272936Y-63235000D02*
X85727064Y-63235000D01*
X131772936Y-83265000D02*
X132227064Y-83265000D01*
X131772936Y-84735000D02*
X132227064Y-84735000D01*
X131772936Y-77265000D02*
X132227064Y-77265000D01*
X131772936Y-78735000D02*
X132227064Y-78735000D01*
X86261252Y-81735000D02*
X85738748Y-81735000D01*
X86261252Y-80265000D02*
X85738748Y-80265000D01*
X146200000Y-116337500D02*
X146200000Y-115737500D01*
X146500000Y-116037500D02*
X146200000Y-116337500D01*
X146200000Y-115737500D02*
X146500000Y-116037500D01*
X144400000Y-114637500D02*
X156200000Y-114637500D01*
X144400000Y-110537500D02*
X144400000Y-114637500D01*
X156200000Y-110537500D02*
X156200000Y-114637500D01*
X150300000Y-109037500D02*
X150300000Y-108037500D01*
X149800000Y-108537500D02*
X150800000Y-108537500D01*
X144400000Y-106537500D02*
X144400000Y-102437500D01*
X144400000Y-102437500D02*
X146800000Y-102437500D01*
X149000000Y-102437500D02*
X151600000Y-102437500D01*
X153800000Y-102437500D02*
X156200000Y-102437500D01*
X156200000Y-102437500D02*
X156200000Y-106537500D01*
X153300000Y-108537500D02*
G75*
G03*
X153300000Y-108537500I-3000000J0D01*
G01*
X79065000Y-55561252D02*
X79065000Y-55038748D01*
X80535000Y-55561252D02*
X80535000Y-55038748D01*
X76238748Y-87765000D02*
X76761252Y-87765000D01*
X76238748Y-89235000D02*
X76761252Y-89235000D01*
X85238748Y-59765000D02*
X85761252Y-59765000D01*
X85238748Y-61235000D02*
X85761252Y-61235000D01*
X131772936Y-85265000D02*
X132227064Y-85265000D01*
X131772936Y-86735000D02*
X132227064Y-86735000D01*
X86261252Y-91735000D02*
X85738748Y-91735000D01*
X86261252Y-90265000D02*
X85738748Y-90265000D01*
%LPC*%
D14*
X131000000Y-82000000D03*
X133000000Y-82000000D03*
D15*
X87037500Y-86000000D03*
X84962500Y-86000000D03*
D16*
X67600000Y-55000000D03*
X68302944Y-53302944D03*
X68302944Y-56697056D03*
X70000000Y-52600000D03*
D17*
X70000000Y-55000000D03*
D16*
X70000000Y-57400000D03*
X71697056Y-53302944D03*
X71697056Y-56697056D03*
X72400000Y-55000000D03*
D18*
X75462500Y-85500000D03*
X77537500Y-85500000D03*
D19*
X95500000Y-72500000D03*
X95500000Y-70425000D03*
D14*
X131000000Y-88000000D03*
X133000000Y-88000000D03*
D16*
X156200000Y-96200000D03*
X156902944Y-94502944D03*
X156902944Y-97897056D03*
X158600000Y-93800000D03*
D17*
X158600000Y-96200000D03*
D16*
X158600000Y-98600000D03*
X160297056Y-94502944D03*
X160297056Y-97897056D03*
X161000000Y-96200000D03*
D14*
X131000000Y-80000000D03*
X133000000Y-80000000D03*
D16*
X67600000Y-120200000D03*
X68302944Y-118502944D03*
X68302944Y-121897056D03*
X70000000Y-117800000D03*
D17*
X70000000Y-120200000D03*
D16*
X70000000Y-122600000D03*
X71697056Y-118502944D03*
X71697056Y-121897056D03*
X72400000Y-120200000D03*
D19*
X79800000Y-95637500D03*
X79800000Y-93562500D03*
D14*
X84500000Y-62500000D03*
X86500000Y-62500000D03*
D16*
X156200000Y-55000000D03*
X156902944Y-53302944D03*
X156902944Y-56697056D03*
X158600000Y-52600000D03*
D17*
X158600000Y-55000000D03*
D16*
X158600000Y-57400000D03*
X160297056Y-53302944D03*
X160297056Y-56697056D03*
X161000000Y-55000000D03*
D14*
X131000000Y-84000000D03*
X133000000Y-84000000D03*
X131000000Y-78000000D03*
X133000000Y-78000000D03*
D16*
X161200000Y-120000000D03*
X161902944Y-118302944D03*
X161902944Y-121697056D03*
X163600000Y-117600000D03*
D17*
X163600000Y-120000000D03*
D16*
X163600000Y-122400000D03*
X165297056Y-118302944D03*
X165297056Y-121697056D03*
X166000000Y-120000000D03*
D15*
X87037500Y-81000000D03*
X84962500Y-81000000D03*
D20*
X147800000Y-99037500D03*
D21*
X152800000Y-99037500D03*
X150300000Y-99037500D03*
D20*
X147800000Y-116037500D03*
D21*
X152800000Y-116037500D03*
X150300000Y-116037500D03*
D22*
X144700000Y-108537500D03*
X155900000Y-108537500D03*
D21*
X152800000Y-101537500D03*
X147800000Y-101537500D03*
D19*
X79800000Y-56337500D03*
X79800000Y-54262500D03*
D18*
X75462500Y-88500000D03*
X77537500Y-88500000D03*
X84462500Y-60500000D03*
X86537500Y-60500000D03*
D16*
X67600000Y-96200000D03*
X68302944Y-94502944D03*
X68302944Y-97897056D03*
X70000000Y-93800000D03*
D17*
X70000000Y-96200000D03*
D16*
X70000000Y-98600000D03*
X71697056Y-94502944D03*
X71697056Y-97897056D03*
X72400000Y-96200000D03*
D14*
X131000000Y-86000000D03*
X133000000Y-86000000D03*
D15*
X87037500Y-91000000D03*
X84962500Y-91000000D03*
D23*
X137180000Y-109000000D03*
D24*
X137180000Y-106460000D03*
X137180000Y-103920000D03*
X137180000Y-101380000D03*
D23*
X92980000Y-72270000D03*
D24*
X92980000Y-69730000D03*
D25*
X106500000Y-83000000D03*
D26*
X103960000Y-83000000D03*
X106500000Y-85540000D03*
X103960000Y-85540000D03*
X106500000Y-88080000D03*
X103960000Y-88080000D03*
X106500000Y-90620000D03*
X103960000Y-90620000D03*
X106500000Y-93160000D03*
X103960000Y-93160000D03*
D27*
X146500000Y-121000000D03*
D28*
X149040000Y-121000000D03*
X151580000Y-121000000D03*
X154120000Y-121000000D03*
D29*
X73520000Y-107960000D03*
D24*
X73520000Y-110500000D03*
X73520000Y-113040000D03*
D30*
X87080000Y-122490000D03*
D31*
X87080000Y-104710000D03*
X127720000Y-104710000D03*
X127720000Y-122490000D03*
D32*
X79747500Y-68580000D03*
D26*
X82287500Y-68580000D03*
X79747500Y-66040000D03*
X82287500Y-66040000D03*
X79747500Y-63500000D03*
X82287500Y-63500000D03*
X79747500Y-60960000D03*
X82287500Y-60960000D03*
X79747500Y-58420000D03*
X82287500Y-58420000D03*
D32*
X80000000Y-91000000D03*
D26*
X82540000Y-91000000D03*
X80000000Y-88460000D03*
X82540000Y-88460000D03*
X80000000Y-85920000D03*
X82540000Y-85920000D03*
X80000000Y-83380000D03*
X82540000Y-83380000D03*
X80000000Y-80840000D03*
X82540000Y-80840000D03*
D23*
X118480000Y-75270000D03*
D24*
X118480000Y-72730000D03*
M02*
