%TF.GenerationSoftware,KiCad,Pcbnew,8.0.4*%
%TF.CreationDate,2024-11-03T11:21:44+01:00*%
%TF.ProjectId,K_PA_Protec,4b5f5041-5f50-4726-9f74-65632e6b6963,rev?*%
%TF.SameCoordinates,Original*%
%TF.FileFunction,Drillmap*%
%TF.FilePolarity,Positive*%
%FSLAX45Y45*%
G04 Gerber Fmt 4.5, Leading zero omitted, Abs format (unit mm)*
G04 Created by KiCad (PCBNEW 8.0.4) date 2024-11-03 11:21:44*
%MOMM*%
%LPD*%
G01*
G04 APERTURE LIST*
%ADD10C,0.100000*%
%ADD11C,0.200000*%
%ADD12C,0.119000*%
%ADD13C,0.150000*%
%ADD14C,0.320000*%
G04 APERTURE END LIST*
D10*
X16750000Y-5000000D02*
X16750000Y-12500000D01*
X6500000Y-5000000D02*
X16750000Y-5000000D01*
X6500000Y-12500000D02*
X6500000Y-5000000D01*
X16750000Y-12500000D02*
X6500000Y-12500000D01*
D11*
D10*
X6730000Y-6230000D02*
X6770000Y-6270000D01*
X6770000Y-6230000D02*
X6730000Y-6270000D01*
X6730000Y-6730000D02*
X6770000Y-6770000D01*
X6770000Y-6730000D02*
X6730000Y-6770000D01*
X6730000Y-7230000D02*
X6770000Y-7270000D01*
X6770000Y-7230000D02*
X6730000Y-7270000D01*
X6730000Y-7730000D02*
X6770000Y-7770000D01*
X6770000Y-7730000D02*
X6730000Y-7770000D01*
X6730000Y-8230000D02*
X6770000Y-8270000D01*
X6770000Y-8230000D02*
X6730000Y-8270000D01*
X6730000Y-8730000D02*
X6770000Y-8770000D01*
X6770000Y-8730000D02*
X6730000Y-8770000D01*
X6730000Y-9230000D02*
X6770000Y-9270000D01*
X6770000Y-9230000D02*
X6730000Y-9270000D01*
X6730000Y-9980000D02*
X6770000Y-10020000D01*
X6770000Y-9980000D02*
X6730000Y-10020000D01*
X6730000Y-10480000D02*
X6770000Y-10520000D01*
X6770000Y-10480000D02*
X6730000Y-10520000D01*
X6730000Y-10980000D02*
X6770000Y-11020000D01*
X6770000Y-10980000D02*
X6730000Y-11020000D01*
X6730000Y-11480000D02*
X6770000Y-11520000D01*
X6770000Y-11480000D02*
X6730000Y-11520000D01*
X7080000Y-6840000D02*
X7120000Y-6880000D01*
X7120000Y-6840000D02*
X7080000Y-6880000D01*
X7090000Y-9040000D02*
X7130000Y-9080000D01*
X7130000Y-9040000D02*
X7090000Y-9080000D01*
X7174112Y-8985047D02*
X7214112Y-9025047D01*
X7214112Y-8985047D02*
X7174112Y-9025047D01*
X7180000Y-6220000D02*
X7220000Y-6260000D01*
X7220000Y-6220000D02*
X7180000Y-6260000D01*
X7344950Y-8859931D02*
X7384950Y-8899931D01*
X7384950Y-8859931D02*
X7344950Y-8899931D01*
X7480000Y-12230000D02*
X7520000Y-12270000D01*
X7520000Y-12230000D02*
X7480000Y-12270000D01*
X7620000Y-5220000D02*
X7660000Y-5260000D01*
X7660000Y-5220000D02*
X7620000Y-5260000D01*
X7670000Y-7260000D02*
X7710000Y-7300000D01*
X7710000Y-7260000D02*
X7670000Y-7300000D01*
X7710000Y-7810000D02*
X7750000Y-7850000D01*
X7750000Y-7810000D02*
X7710000Y-7850000D01*
X7710000Y-8210000D02*
X7750000Y-8250000D01*
X7750000Y-8210000D02*
X7710000Y-8250000D01*
X7733750Y-9823750D02*
X7773750Y-9863750D01*
X7773750Y-9823750D02*
X7733750Y-9863750D01*
X7980000Y-12230000D02*
X8020000Y-12270000D01*
X8020000Y-12230000D02*
X7980000Y-12270000D01*
X8000000Y-7680000D02*
X8040000Y-7720000D01*
X8040000Y-7680000D02*
X8000000Y-7720000D01*
X8370000Y-9830000D02*
X8410000Y-9870000D01*
X8410000Y-9830000D02*
X8370000Y-9870000D01*
X8683750Y-8946250D02*
X8723750Y-8986250D01*
X8723750Y-8946250D02*
X8683750Y-8986250D01*
X8690000Y-7540000D02*
X8730000Y-7580000D01*
X8730000Y-7540000D02*
X8690000Y-7580000D01*
X8720000Y-8460000D02*
X8760000Y-8500000D01*
X8760000Y-8460000D02*
X8720000Y-8500000D01*
X8780000Y-8580000D02*
X8820000Y-8620000D01*
X8820000Y-8580000D02*
X8780000Y-8620000D01*
X8870000Y-9390000D02*
X8910000Y-9430000D01*
X8910000Y-9390000D02*
X8870000Y-9430000D01*
X8880000Y-7680000D02*
X8920000Y-7720000D01*
X8920000Y-7680000D02*
X8880000Y-7720000D01*
X8900000Y-8140000D02*
X8940000Y-8180000D01*
X8940000Y-8140000D02*
X8900000Y-8180000D01*
X8940000Y-6240000D02*
X8980000Y-6280000D01*
X8980000Y-6240000D02*
X8940000Y-6280000D01*
X8980000Y-12230000D02*
X9020000Y-12270000D01*
X9020000Y-12230000D02*
X8980000Y-12270000D01*
X8990000Y-8760000D02*
X9030000Y-8800000D01*
X9030000Y-8760000D02*
X8990000Y-8800000D01*
X9130000Y-5800000D02*
X9170000Y-5840000D01*
X9170000Y-5800000D02*
X9130000Y-5840000D01*
X9180000Y-9200000D02*
X9220000Y-9240000D01*
X9220000Y-9200000D02*
X9180000Y-9240000D01*
X9300000Y-9200000D02*
X9340000Y-9240000D01*
X9340000Y-9200000D02*
X9300000Y-9240000D01*
X9480000Y-5280000D02*
X9520000Y-5320000D01*
X9520000Y-5280000D02*
X9480000Y-5320000D01*
X9480000Y-5420000D02*
X9520000Y-5460000D01*
X9520000Y-5420000D02*
X9480000Y-5460000D01*
X9480000Y-5520000D02*
X9520000Y-5560000D01*
X9520000Y-5520000D02*
X9480000Y-5560000D01*
X9480000Y-12230000D02*
X9520000Y-12270000D01*
X9520000Y-12230000D02*
X9480000Y-12270000D01*
X9530000Y-7022500D02*
X9570000Y-7062500D01*
X9570000Y-7022500D02*
X9530000Y-7062500D01*
X9620000Y-6600000D02*
X9660000Y-6640000D01*
X9660000Y-6600000D02*
X9620000Y-6640000D01*
X9840000Y-7340000D02*
X9880000Y-7380000D01*
X9880000Y-7340000D02*
X9840000Y-7380000D01*
X9840000Y-10440000D02*
X9880000Y-10480000D01*
X9880000Y-10440000D02*
X9840000Y-10480000D01*
X9960000Y-7230000D02*
X10000000Y-7270000D01*
X10000000Y-7230000D02*
X9960000Y-7270000D01*
X9980000Y-8220000D02*
X10020000Y-8260000D01*
X10020000Y-8220000D02*
X9980000Y-8260000D01*
X9980000Y-12230000D02*
X10020000Y-12270000D01*
X10020000Y-12230000D02*
X9980000Y-12270000D01*
X10063750Y-6476250D02*
X10103750Y-6516250D01*
X10103750Y-6476250D02*
X10063750Y-6516250D01*
X10090000Y-7390000D02*
X10130000Y-7430000D01*
X10130000Y-7390000D02*
X10090000Y-7430000D01*
X10106250Y-6683750D02*
X10146250Y-6723750D01*
X10146250Y-6683750D02*
X10106250Y-6723750D01*
X10120000Y-8140000D02*
X10160000Y-8180000D01*
X10160000Y-8140000D02*
X10120000Y-8180000D01*
X10280000Y-7730000D02*
X10320000Y-7770000D01*
X10320000Y-7730000D02*
X10280000Y-7770000D01*
X10380000Y-6480000D02*
X10420000Y-6520000D01*
X10420000Y-6480000D02*
X10380000Y-6520000D01*
X10400000Y-5670000D02*
X10440000Y-5710000D01*
X10440000Y-5670000D02*
X10400000Y-5710000D01*
X10480000Y-7730000D02*
X10520000Y-7770000D01*
X10520000Y-7730000D02*
X10480000Y-7770000D01*
X10480000Y-12230000D02*
X10520000Y-12270000D01*
X10520000Y-12230000D02*
X10480000Y-12270000D01*
X10680000Y-7730000D02*
X10720000Y-7770000D01*
X10720000Y-7730000D02*
X10680000Y-7770000D01*
X10760000Y-6580000D02*
X10800000Y-6620000D01*
X10800000Y-6580000D02*
X10760000Y-6620000D01*
X10770000Y-5424950D02*
X10810000Y-5464950D01*
X10810000Y-5424950D02*
X10770000Y-5464950D01*
X10880000Y-7730000D02*
X10920000Y-7770000D01*
X10920000Y-7730000D02*
X10880000Y-7770000D01*
X10880000Y-8880000D02*
X10920000Y-8920000D01*
X10920000Y-8880000D02*
X10880000Y-8920000D01*
X10880000Y-9080000D02*
X10920000Y-9120000D01*
X10920000Y-9080000D02*
X10880000Y-9120000D01*
X10900000Y-6920000D02*
X10940000Y-6960000D01*
X10940000Y-6920000D02*
X10900000Y-6960000D01*
X10940000Y-5424950D02*
X10980000Y-5464950D01*
X10980000Y-5424950D02*
X10940000Y-5464950D01*
X10959931Y-6519931D02*
X10999931Y-6559931D01*
X10999931Y-6519931D02*
X10959931Y-6559931D01*
X10980000Y-12230000D02*
X11020000Y-12270000D01*
X11020000Y-12230000D02*
X10980000Y-12270000D01*
X11020000Y-8600000D02*
X11060000Y-8640000D01*
X11060000Y-8600000D02*
X11020000Y-8640000D01*
X11050000Y-6330000D02*
X11090000Y-6370000D01*
X11090000Y-6330000D02*
X11050000Y-6370000D01*
X11054931Y-6085069D02*
X11094931Y-6125069D01*
X11094931Y-6085069D02*
X11054931Y-6125069D01*
X11080000Y-7790000D02*
X11120000Y-7830000D01*
X11120000Y-7790000D02*
X11080000Y-7830000D01*
X11150000Y-6550000D02*
X11190000Y-6590000D01*
X11190000Y-6550000D02*
X11150000Y-6590000D01*
X11156250Y-5540000D02*
X11196250Y-5580000D01*
X11196250Y-5540000D02*
X11156250Y-5580000D01*
X11156250Y-5676250D02*
X11196250Y-5716250D01*
X11196250Y-5676250D02*
X11156250Y-5716250D01*
X11160000Y-6920000D02*
X11200000Y-6960000D01*
X11200000Y-6920000D02*
X11160000Y-6960000D01*
X11180000Y-9280000D02*
X11220000Y-9320000D01*
X11220000Y-9280000D02*
X11180000Y-9320000D01*
X11180000Y-9480000D02*
X11220000Y-9520000D01*
X11220000Y-9480000D02*
X11180000Y-9520000D01*
X11190000Y-7790000D02*
X11230000Y-7830000D01*
X11230000Y-7790000D02*
X11190000Y-7830000D01*
X11200000Y-8570000D02*
X11240000Y-8610000D01*
X11240000Y-8570000D02*
X11200000Y-8610000D01*
X11203750Y-8183750D02*
X11243750Y-8223750D01*
X11243750Y-8183750D02*
X11203750Y-8223750D01*
X11270000Y-6180000D02*
X11310000Y-6220000D01*
X11310000Y-6180000D02*
X11270000Y-6220000D01*
X11290000Y-7790000D02*
X11330000Y-7830000D01*
X11330000Y-7790000D02*
X11290000Y-7830000D01*
X11323750Y-8183750D02*
X11363750Y-8223750D01*
X11363750Y-8183750D02*
X11323750Y-8223750D01*
X11323750Y-8573750D02*
X11363750Y-8613750D01*
X11363750Y-8573750D02*
X11323750Y-8613750D01*
X11374950Y-6420069D02*
X11414950Y-6460069D01*
X11414950Y-6420069D02*
X11374950Y-6460069D01*
X11380000Y-9280000D02*
X11420000Y-9320000D01*
X11420000Y-9280000D02*
X11380000Y-9320000D01*
X11380000Y-9480000D02*
X11420000Y-9520000D01*
X11420000Y-9480000D02*
X11380000Y-9520000D01*
X11480000Y-12230000D02*
X11520000Y-12270000D01*
X11520000Y-12230000D02*
X11480000Y-12270000D01*
X11520000Y-6450000D02*
X11560000Y-6490000D01*
X11560000Y-6450000D02*
X11520000Y-6490000D01*
X11580000Y-8880000D02*
X11620000Y-8920000D01*
X11620000Y-8880000D02*
X11580000Y-8920000D01*
X11580000Y-9080000D02*
X11620000Y-9120000D01*
X11620000Y-9080000D02*
X11580000Y-9120000D01*
X11580000Y-9280000D02*
X11620000Y-9320000D01*
X11620000Y-9280000D02*
X11580000Y-9320000D01*
X11580000Y-9480000D02*
X11620000Y-9520000D01*
X11620000Y-9480000D02*
X11580000Y-9520000D01*
X11640000Y-6457000D02*
X11680000Y-6497000D01*
X11680000Y-6457000D02*
X11640000Y-6497000D01*
X11700000Y-6711000D02*
X11740000Y-6751000D01*
X11740000Y-6711000D02*
X11700000Y-6751000D01*
X11780000Y-8680000D02*
X11820000Y-8720000D01*
X11820000Y-8680000D02*
X11780000Y-8720000D01*
X11780000Y-8880000D02*
X11820000Y-8920000D01*
X11820000Y-8880000D02*
X11780000Y-8920000D01*
X11780000Y-9080000D02*
X11820000Y-9120000D01*
X11820000Y-9080000D02*
X11780000Y-9120000D01*
X11780000Y-9280000D02*
X11820000Y-9320000D01*
X11820000Y-9280000D02*
X11780000Y-9320000D01*
X11930000Y-5420000D02*
X11970000Y-5460000D01*
X11970000Y-5420000D02*
X11930000Y-5460000D01*
X11980000Y-8680000D02*
X12020000Y-8720000D01*
X12020000Y-8680000D02*
X11980000Y-8720000D01*
X11980000Y-8880000D02*
X12020000Y-8920000D01*
X12020000Y-8880000D02*
X11980000Y-8920000D01*
X11980000Y-9080000D02*
X12020000Y-9120000D01*
X12020000Y-9080000D02*
X11980000Y-9120000D01*
X11980000Y-12230000D02*
X12020000Y-12270000D01*
X12020000Y-12230000D02*
X11980000Y-12270000D01*
X12030000Y-8280000D02*
X12070000Y-8320000D01*
X12070000Y-8280000D02*
X12030000Y-8320000D01*
X12180000Y-8680000D02*
X12220000Y-8720000D01*
X12220000Y-8680000D02*
X12180000Y-8720000D01*
X12180000Y-8880000D02*
X12220000Y-8920000D01*
X12220000Y-8880000D02*
X12180000Y-8920000D01*
X12220000Y-6076000D02*
X12260000Y-6116000D01*
X12260000Y-6076000D02*
X12220000Y-6116000D01*
X12220000Y-6200000D02*
X12260000Y-6240000D01*
X12260000Y-6200000D02*
X12220000Y-6240000D01*
X12230000Y-5230000D02*
X12270000Y-5270000D01*
X12270000Y-5230000D02*
X12230000Y-5270000D01*
X12240000Y-8480000D02*
X12280000Y-8520000D01*
X12280000Y-8480000D02*
X12240000Y-8520000D01*
X12280000Y-7029950D02*
X12320000Y-7069950D01*
X12320000Y-7029950D02*
X12280000Y-7069950D01*
X12320000Y-5624950D02*
X12360000Y-5664950D01*
X12360000Y-5624950D02*
X12320000Y-5664950D01*
X12320000Y-6330000D02*
X12360000Y-6370000D01*
X12360000Y-6330000D02*
X12320000Y-6370000D01*
X12380000Y-8680000D02*
X12420000Y-8720000D01*
X12420000Y-8680000D02*
X12380000Y-8720000D01*
X12450000Y-5250000D02*
X12490000Y-5290000D01*
X12490000Y-5250000D02*
X12450000Y-5290000D01*
X12480000Y-12230000D02*
X12520000Y-12270000D01*
X12520000Y-12230000D02*
X12480000Y-12270000D01*
X12495000Y-8050000D02*
X12535000Y-8090000D01*
X12535000Y-8050000D02*
X12495000Y-8090000D01*
X12505000Y-7029950D02*
X12545000Y-7069950D01*
X12545000Y-7029950D02*
X12505000Y-7069950D01*
X12677500Y-7562500D02*
X12717500Y-7602500D01*
X12717500Y-7562500D02*
X12677500Y-7602500D01*
X12677500Y-7777500D02*
X12717500Y-7817500D01*
X12717500Y-7777500D02*
X12677500Y-7817500D01*
X12680000Y-9580000D02*
X12720000Y-9620000D01*
X12720000Y-9580000D02*
X12680000Y-9620000D01*
X12700000Y-6660000D02*
X12740000Y-6700000D01*
X12740000Y-6660000D02*
X12700000Y-6700000D01*
X12730000Y-8290000D02*
X12770000Y-8330000D01*
X12770000Y-8290000D02*
X12730000Y-8330000D01*
X12740000Y-7370000D02*
X12780000Y-7410000D01*
X12780000Y-7370000D02*
X12740000Y-7410000D01*
X12780000Y-7870000D02*
X12820000Y-7910000D01*
X12820000Y-7870000D02*
X12780000Y-7910000D01*
X12880000Y-9380000D02*
X12920000Y-9420000D01*
X12920000Y-9380000D02*
X12880000Y-9420000D01*
X12930000Y-7870000D02*
X12970000Y-7910000D01*
X12970000Y-7870000D02*
X12930000Y-7910000D01*
X12940000Y-9560000D02*
X12980000Y-9600000D01*
X12980000Y-9560000D02*
X12940000Y-9600000D01*
X12940000Y-9920000D02*
X12980000Y-9960000D01*
X12980000Y-9920000D02*
X12940000Y-9960000D01*
X12960000Y-5430000D02*
X13000000Y-5470000D01*
X13000000Y-5430000D02*
X12960000Y-5470000D01*
X12980000Y-9180000D02*
X13020000Y-9220000D01*
X13020000Y-9180000D02*
X12980000Y-9220000D01*
X13060000Y-7580000D02*
X13100000Y-7620000D01*
X13100000Y-7580000D02*
X13060000Y-7620000D01*
X13080000Y-7050000D02*
X13120000Y-7090000D01*
X13120000Y-7050000D02*
X13080000Y-7090000D01*
X13180000Y-9080000D02*
X13220000Y-9120000D01*
X13220000Y-9080000D02*
X13180000Y-9120000D01*
X13449000Y-6091000D02*
X13489000Y-6131000D01*
X13489000Y-6091000D02*
X13449000Y-6131000D01*
X13480000Y-11980000D02*
X13520000Y-12020000D01*
X13520000Y-11980000D02*
X13480000Y-12020000D01*
X13480000Y-12230000D02*
X13520000Y-12270000D01*
X13520000Y-12230000D02*
X13480000Y-12270000D01*
X13500000Y-5940000D02*
X13540000Y-5980000D01*
X13540000Y-5940000D02*
X13500000Y-5980000D01*
X13526000Y-6994000D02*
X13566000Y-7034000D01*
X13566000Y-6994000D02*
X13526000Y-7034000D01*
X13620000Y-5940000D02*
X13660000Y-5980000D01*
X13660000Y-5940000D02*
X13620000Y-5980000D01*
X13703000Y-6447000D02*
X13743000Y-6487000D01*
X13743000Y-6447000D02*
X13703000Y-6487000D01*
X13705908Y-8004756D02*
X13745908Y-8044756D01*
X13745908Y-8004756D02*
X13705908Y-8044756D01*
X13710000Y-8130000D02*
X13750000Y-8170000D01*
X13750000Y-8130000D02*
X13710000Y-8170000D01*
X13710000Y-8260000D02*
X13750000Y-8300000D01*
X13750000Y-8260000D02*
X13710000Y-8300000D01*
X13710000Y-8390000D02*
X13750000Y-8430000D01*
X13750000Y-8390000D02*
X13710000Y-8430000D01*
X13710000Y-8510000D02*
X13750000Y-8550000D01*
X13750000Y-8510000D02*
X13710000Y-8550000D01*
X13710000Y-8630000D02*
X13750000Y-8670000D01*
X13750000Y-8630000D02*
X13710000Y-8670000D01*
X13730000Y-11980000D02*
X13770000Y-12020000D01*
X13770000Y-11980000D02*
X13730000Y-12020000D01*
X13780000Y-9341500D02*
X13820000Y-9381500D01*
X13820000Y-9341500D02*
X13780000Y-9381500D01*
X13780000Y-9560000D02*
X13820000Y-9600000D01*
X13820000Y-9560000D02*
X13780000Y-9600000D01*
X13788824Y-9448824D02*
X13828824Y-9488824D01*
X13828824Y-9448824D02*
X13788824Y-9488824D01*
X13830000Y-5600000D02*
X13870000Y-5640000D01*
X13870000Y-5600000D02*
X13830000Y-5640000D01*
X13880000Y-8280000D02*
X13920000Y-8320000D01*
X13920000Y-8280000D02*
X13880000Y-8320000D01*
X13880000Y-8480000D02*
X13920000Y-8520000D01*
X13920000Y-8480000D02*
X13880000Y-8520000D01*
X13900000Y-7000000D02*
X13940000Y-7040000D01*
X13940000Y-7000000D02*
X13900000Y-7040000D01*
X13949050Y-5601079D02*
X13989050Y-5641079D01*
X13989050Y-5601079D02*
X13949050Y-5641079D01*
X13980000Y-5350000D02*
X14020000Y-5390000D01*
X14020000Y-5350000D02*
X13980000Y-5390000D01*
X13980000Y-11230000D02*
X14020000Y-11270000D01*
X14020000Y-11230000D02*
X13980000Y-11270000D01*
X13980000Y-11730000D02*
X14020000Y-11770000D01*
X14020000Y-11730000D02*
X13980000Y-11770000D01*
X13980000Y-11980000D02*
X14020000Y-12020000D01*
X14020000Y-11980000D02*
X13980000Y-12020000D01*
X13980000Y-12230000D02*
X14020000Y-12270000D01*
X14020000Y-12230000D02*
X13980000Y-12270000D01*
X14034000Y-7484000D02*
X14074000Y-7524000D01*
X14074000Y-7484000D02*
X14034000Y-7524000D01*
X14090000Y-8300000D02*
X14130000Y-8340000D01*
X14130000Y-8300000D02*
X14090000Y-8340000D01*
X14170000Y-6470000D02*
X14210000Y-6510000D01*
X14210000Y-6470000D02*
X14170000Y-6510000D01*
X14230000Y-5230000D02*
X14270000Y-5270000D01*
X14270000Y-5230000D02*
X14230000Y-5270000D01*
X14260000Y-8450000D02*
X14300000Y-8490000D01*
X14300000Y-8450000D02*
X14260000Y-8490000D01*
X14260000Y-8590000D02*
X14300000Y-8630000D01*
X14300000Y-8590000D02*
X14260000Y-8630000D01*
X14300000Y-8980000D02*
X14340000Y-9020000D01*
X14340000Y-8980000D02*
X14300000Y-9020000D01*
X14366250Y-5606250D02*
X14406250Y-5646250D01*
X14406250Y-5606250D02*
X14366250Y-5646250D01*
X14366250Y-7013750D02*
X14406250Y-7053750D01*
X14406250Y-7013750D02*
X14366250Y-7053750D01*
X14376250Y-5356250D02*
X14416250Y-5396250D01*
X14416250Y-5356250D02*
X14376250Y-5396250D01*
X14573750Y-7003750D02*
X14613750Y-7043750D01*
X14613750Y-7003750D02*
X14573750Y-7043750D01*
X14573750Y-7336250D02*
X14613750Y-7376250D01*
X14613750Y-7336250D02*
X14573750Y-7376250D01*
X14700000Y-6850000D02*
X14740000Y-6890000D01*
X14740000Y-6850000D02*
X14700000Y-6890000D01*
X14730000Y-5230000D02*
X14770000Y-5270000D01*
X14770000Y-5230000D02*
X14730000Y-5270000D01*
X14790000Y-5970000D02*
X14830000Y-6010000D01*
X14830000Y-5970000D02*
X14790000Y-6010000D01*
X14920000Y-9320000D02*
X14960000Y-9360000D01*
X14960000Y-9320000D02*
X14920000Y-9360000D01*
X14920000Y-9440000D02*
X14960000Y-9480000D01*
X14960000Y-9440000D02*
X14920000Y-9480000D01*
X14920000Y-9560000D02*
X14960000Y-9600000D01*
X14960000Y-9560000D02*
X14920000Y-9600000D01*
X15230000Y-5230000D02*
X15270000Y-5270000D01*
X15270000Y-5230000D02*
X15230000Y-5270000D01*
X15730000Y-12230000D02*
X15770000Y-12270000D01*
X15770000Y-12230000D02*
X15730000Y-12270000D01*
X16480000Y-6230000D02*
X16520000Y-6270000D01*
X16520000Y-6230000D02*
X16480000Y-6270000D01*
X16480000Y-6730000D02*
X16520000Y-6770000D01*
X16520000Y-6730000D02*
X16480000Y-6770000D01*
X16480000Y-7230000D02*
X16520000Y-7270000D01*
X16520000Y-7230000D02*
X16480000Y-7270000D01*
X16480000Y-7730000D02*
X16520000Y-7770000D01*
X16520000Y-7730000D02*
X16480000Y-7770000D01*
X16480000Y-8230000D02*
X16520000Y-8270000D01*
X16520000Y-8230000D02*
X16480000Y-8270000D01*
X16480000Y-8730000D02*
X16520000Y-8770000D01*
X16520000Y-8730000D02*
X16480000Y-8770000D01*
X16480000Y-9230000D02*
X16520000Y-9270000D01*
X16520000Y-9230000D02*
X16480000Y-9270000D01*
X16480000Y-9980000D02*
X16520000Y-10020000D01*
X16520000Y-9980000D02*
X16480000Y-10020000D01*
X16480000Y-10480000D02*
X16520000Y-10520000D01*
X16520000Y-10480000D02*
X16480000Y-10520000D01*
X16480000Y-10980000D02*
X16520000Y-11020000D01*
X16520000Y-10980000D02*
X16480000Y-11020000D01*
X16480000Y-11480000D02*
X16520000Y-11520000D01*
X16520000Y-11480000D02*
X16480000Y-11520000D01*
X6785000Y-5500000D02*
G75*
G02*
X6735000Y-5500000I-25000J0D01*
G01*
X6735000Y-5500000D02*
G75*
G02*
X6785000Y-5500000I25000J0D01*
G01*
X6785000Y-9620000D02*
G75*
G02*
X6735000Y-9620000I-25000J0D01*
G01*
X6735000Y-9620000D02*
G75*
G02*
X6785000Y-9620000I25000J0D01*
G01*
X6785000Y-12020000D02*
G75*
G02*
X6735000Y-12020000I-25000J0D01*
G01*
X6735000Y-12020000D02*
G75*
G02*
X6785000Y-12020000I25000J0D01*
G01*
X6855294Y-5330294D02*
G75*
G02*
X6805294Y-5330294I-25000J0D01*
G01*
X6805294Y-5330294D02*
G75*
G02*
X6855294Y-5330294I25000J0D01*
G01*
X6855294Y-5669706D02*
G75*
G02*
X6805294Y-5669706I-25000J0D01*
G01*
X6805294Y-5669706D02*
G75*
G02*
X6855294Y-5669706I25000J0D01*
G01*
X6855294Y-9450294D02*
G75*
G02*
X6805294Y-9450294I-25000J0D01*
G01*
X6805294Y-9450294D02*
G75*
G02*
X6855294Y-9450294I25000J0D01*
G01*
X6855294Y-9789706D02*
G75*
G02*
X6805294Y-9789706I-25000J0D01*
G01*
X6805294Y-9789706D02*
G75*
G02*
X6855294Y-9789706I25000J0D01*
G01*
X6855294Y-11850294D02*
G75*
G02*
X6805294Y-11850294I-25000J0D01*
G01*
X6805294Y-11850294D02*
G75*
G02*
X6855294Y-11850294I25000J0D01*
G01*
X6855294Y-12189706D02*
G75*
G02*
X6805294Y-12189706I-25000J0D01*
G01*
X6805294Y-12189706D02*
G75*
G02*
X6855294Y-12189706I25000J0D01*
G01*
X7025000Y-5260000D02*
G75*
G02*
X6975000Y-5260000I-25000J0D01*
G01*
X6975000Y-5260000D02*
G75*
G02*
X7025000Y-5260000I25000J0D01*
G01*
X7025000Y-5740000D02*
G75*
G02*
X6975000Y-5740000I-25000J0D01*
G01*
X6975000Y-5740000D02*
G75*
G02*
X7025000Y-5740000I25000J0D01*
G01*
X7025000Y-9380000D02*
G75*
G02*
X6975000Y-9380000I-25000J0D01*
G01*
X6975000Y-9380000D02*
G75*
G02*
X7025000Y-9380000I25000J0D01*
G01*
X7025000Y-9860000D02*
G75*
G02*
X6975000Y-9860000I-25000J0D01*
G01*
X6975000Y-9860000D02*
G75*
G02*
X7025000Y-9860000I25000J0D01*
G01*
X7025000Y-11780000D02*
G75*
G02*
X6975000Y-11780000I-25000J0D01*
G01*
X6975000Y-11780000D02*
G75*
G02*
X7025000Y-11780000I25000J0D01*
G01*
X7025000Y-12260000D02*
G75*
G02*
X6975000Y-12260000I-25000J0D01*
G01*
X6975000Y-12260000D02*
G75*
G02*
X7025000Y-12260000I25000J0D01*
G01*
X7194706Y-5330294D02*
G75*
G02*
X7144706Y-5330294I-25000J0D01*
G01*
X7144706Y-5330294D02*
G75*
G02*
X7194706Y-5330294I25000J0D01*
G01*
X7194706Y-5669706D02*
G75*
G02*
X7144706Y-5669706I-25000J0D01*
G01*
X7144706Y-5669706D02*
G75*
G02*
X7194706Y-5669706I25000J0D01*
G01*
X7194706Y-9450294D02*
G75*
G02*
X7144706Y-9450294I-25000J0D01*
G01*
X7144706Y-9450294D02*
G75*
G02*
X7194706Y-9450294I25000J0D01*
G01*
X7194706Y-9789706D02*
G75*
G02*
X7144706Y-9789706I-25000J0D01*
G01*
X7144706Y-9789706D02*
G75*
G02*
X7194706Y-9789706I25000J0D01*
G01*
X7194706Y-11850294D02*
G75*
G02*
X7144706Y-11850294I-25000J0D01*
G01*
X7144706Y-11850294D02*
G75*
G02*
X7194706Y-11850294I25000J0D01*
G01*
X7194706Y-12189706D02*
G75*
G02*
X7144706Y-12189706I-25000J0D01*
G01*
X7144706Y-12189706D02*
G75*
G02*
X7194706Y-12189706I25000J0D01*
G01*
X7265000Y-5500000D02*
G75*
G02*
X7215000Y-5500000I-25000J0D01*
G01*
X7215000Y-5500000D02*
G75*
G02*
X7265000Y-5500000I25000J0D01*
G01*
X7265000Y-9620000D02*
G75*
G02*
X7215000Y-9620000I-25000J0D01*
G01*
X7215000Y-9620000D02*
G75*
G02*
X7265000Y-9620000I25000J0D01*
G01*
X7265000Y-12020000D02*
G75*
G02*
X7215000Y-12020000I-25000J0D01*
G01*
X7215000Y-12020000D02*
G75*
G02*
X7265000Y-12020000I25000J0D01*
G01*
X15645000Y-5500000D02*
G75*
G02*
X15595000Y-5500000I-25000J0D01*
G01*
X15595000Y-5500000D02*
G75*
G02*
X15645000Y-5500000I25000J0D01*
G01*
X15645000Y-9620000D02*
G75*
G02*
X15595000Y-9620000I-25000J0D01*
G01*
X15595000Y-9620000D02*
G75*
G02*
X15645000Y-9620000I25000J0D01*
G01*
X15715294Y-5330294D02*
G75*
G02*
X15665294Y-5330294I-25000J0D01*
G01*
X15665294Y-5330294D02*
G75*
G02*
X15715294Y-5330294I25000J0D01*
G01*
X15715294Y-5669706D02*
G75*
G02*
X15665294Y-5669706I-25000J0D01*
G01*
X15665294Y-5669706D02*
G75*
G02*
X15715294Y-5669706I25000J0D01*
G01*
X15715294Y-9450294D02*
G75*
G02*
X15665294Y-9450294I-25000J0D01*
G01*
X15665294Y-9450294D02*
G75*
G02*
X15715294Y-9450294I25000J0D01*
G01*
X15715294Y-9789706D02*
G75*
G02*
X15665294Y-9789706I-25000J0D01*
G01*
X15665294Y-9789706D02*
G75*
G02*
X15715294Y-9789706I25000J0D01*
G01*
X15885000Y-5260000D02*
G75*
G02*
X15835000Y-5260000I-25000J0D01*
G01*
X15835000Y-5260000D02*
G75*
G02*
X15885000Y-5260000I25000J0D01*
G01*
X15885000Y-5740000D02*
G75*
G02*
X15835000Y-5740000I-25000J0D01*
G01*
X15835000Y-5740000D02*
G75*
G02*
X15885000Y-5740000I25000J0D01*
G01*
X15885000Y-9380000D02*
G75*
G02*
X15835000Y-9380000I-25000J0D01*
G01*
X15835000Y-9380000D02*
G75*
G02*
X15885000Y-9380000I25000J0D01*
G01*
X15885000Y-9860000D02*
G75*
G02*
X15835000Y-9860000I-25000J0D01*
G01*
X15835000Y-9860000D02*
G75*
G02*
X15885000Y-9860000I25000J0D01*
G01*
X16054706Y-5330294D02*
G75*
G02*
X16004706Y-5330294I-25000J0D01*
G01*
X16004706Y-5330294D02*
G75*
G02*
X16054706Y-5330294I25000J0D01*
G01*
X16054706Y-5669706D02*
G75*
G02*
X16004706Y-5669706I-25000J0D01*
G01*
X16004706Y-5669706D02*
G75*
G02*
X16054706Y-5669706I25000J0D01*
G01*
X16054706Y-9450294D02*
G75*
G02*
X16004706Y-9450294I-25000J0D01*
G01*
X16004706Y-9450294D02*
G75*
G02*
X16054706Y-9450294I25000J0D01*
G01*
X16054706Y-9789706D02*
G75*
G02*
X16004706Y-9789706I-25000J0D01*
G01*
X16004706Y-9789706D02*
G75*
G02*
X16054706Y-9789706I25000J0D01*
G01*
X16125000Y-5500000D02*
G75*
G02*
X16075000Y-5500000I-25000J0D01*
G01*
X16075000Y-5500000D02*
G75*
G02*
X16125000Y-5500000I25000J0D01*
G01*
X16125000Y-9620000D02*
G75*
G02*
X16075000Y-9620000I-25000J0D01*
G01*
X16075000Y-9620000D02*
G75*
G02*
X16125000Y-9620000I25000J0D01*
G01*
X16145000Y-12000000D02*
G75*
G02*
X16095000Y-12000000I-25000J0D01*
G01*
X16095000Y-12000000D02*
G75*
G02*
X16145000Y-12000000I25000J0D01*
G01*
X16215294Y-11830294D02*
G75*
G02*
X16165294Y-11830294I-25000J0D01*
G01*
X16165294Y-11830294D02*
G75*
G02*
X16215294Y-11830294I25000J0D01*
G01*
X16215294Y-12169706D02*
G75*
G02*
X16165294Y-12169706I-25000J0D01*
G01*
X16165294Y-12169706D02*
G75*
G02*
X16215294Y-12169706I25000J0D01*
G01*
X16385000Y-11760000D02*
G75*
G02*
X16335000Y-11760000I-25000J0D01*
G01*
X16335000Y-11760000D02*
G75*
G02*
X16385000Y-11760000I25000J0D01*
G01*
X16385000Y-12240000D02*
G75*
G02*
X16335000Y-12240000I-25000J0D01*
G01*
X16335000Y-12240000D02*
G75*
G02*
X16385000Y-12240000I25000J0D01*
G01*
X16554706Y-11830294D02*
G75*
G02*
X16504706Y-11830294I-25000J0D01*
G01*
X16504706Y-11830294D02*
G75*
G02*
X16554706Y-11830294I25000J0D01*
G01*
X16554706Y-12169706D02*
G75*
G02*
X16504706Y-12169706I-25000J0D01*
G01*
X16504706Y-12169706D02*
G75*
G02*
X16554706Y-12169706I25000J0D01*
G01*
X16625000Y-12000000D02*
G75*
G02*
X16575000Y-12000000I-25000J0D01*
G01*
X16575000Y-12000000D02*
G75*
G02*
X16625000Y-12000000I25000J0D01*
G01*
X7974750Y-5792000D02*
X7974750Y-5892000D01*
X7924750Y-5842000D02*
X8024750Y-5842000D01*
X7974750Y-6046000D02*
X7974750Y-6146000D01*
X7924750Y-6096000D02*
X8024750Y-6096000D01*
X7974750Y-6300000D02*
X7974750Y-6400000D01*
X7924750Y-6350000D02*
X8024750Y-6350000D01*
X7974750Y-6554000D02*
X7974750Y-6654000D01*
X7924750Y-6604000D02*
X8024750Y-6604000D01*
X7974750Y-6808000D02*
X7974750Y-6908000D01*
X7924750Y-6858000D02*
X8024750Y-6858000D01*
X8000000Y-8034000D02*
X8000000Y-8134000D01*
X7950000Y-8084000D02*
X8050000Y-8084000D01*
X8000000Y-8288000D02*
X8000000Y-8388000D01*
X7950000Y-8338000D02*
X8050000Y-8338000D01*
X8000000Y-8542000D02*
X8000000Y-8642000D01*
X7950000Y-8592000D02*
X8050000Y-8592000D01*
X8000000Y-8796000D02*
X8000000Y-8896000D01*
X7950000Y-8846000D02*
X8050000Y-8846000D01*
X8000000Y-9050000D02*
X8000000Y-9150000D01*
X7950000Y-9100000D02*
X8050000Y-9100000D01*
X8228750Y-5792000D02*
X8228750Y-5892000D01*
X8178750Y-5842000D02*
X8278750Y-5842000D01*
X8228750Y-6046000D02*
X8228750Y-6146000D01*
X8178750Y-6096000D02*
X8278750Y-6096000D01*
X8228750Y-6300000D02*
X8228750Y-6400000D01*
X8178750Y-6350000D02*
X8278750Y-6350000D01*
X8228750Y-6554000D02*
X8228750Y-6654000D01*
X8178750Y-6604000D02*
X8278750Y-6604000D01*
X8228750Y-6808000D02*
X8228750Y-6908000D01*
X8178750Y-6858000D02*
X8278750Y-6858000D01*
X8254000Y-8034000D02*
X8254000Y-8134000D01*
X8204000Y-8084000D02*
X8304000Y-8084000D01*
X8254000Y-8288000D02*
X8254000Y-8388000D01*
X8204000Y-8338000D02*
X8304000Y-8338000D01*
X8254000Y-8542000D02*
X8254000Y-8642000D01*
X8204000Y-8592000D02*
X8304000Y-8592000D01*
X8254000Y-8796000D02*
X8254000Y-8896000D01*
X8204000Y-8846000D02*
X8304000Y-8846000D01*
X8254000Y-9050000D02*
X8254000Y-9150000D01*
X8204000Y-9100000D02*
X8304000Y-9100000D01*
X8708000Y-10421000D02*
X8708000Y-10521000D01*
X8658000Y-10471000D02*
X8758000Y-10471000D01*
X8708000Y-12199000D02*
X8708000Y-12299000D01*
X8658000Y-12249000D02*
X8758000Y-12249000D01*
X10396000Y-8250000D02*
X10396000Y-8350000D01*
X10346000Y-8300000D02*
X10446000Y-8300000D01*
X10396000Y-8504000D02*
X10396000Y-8604000D01*
X10346000Y-8554000D02*
X10446000Y-8554000D01*
X10396000Y-8758000D02*
X10396000Y-8858000D01*
X10346000Y-8808000D02*
X10446000Y-8808000D01*
X10396000Y-9012000D02*
X10396000Y-9112000D01*
X10346000Y-9062000D02*
X10446000Y-9062000D01*
X10396000Y-9266000D02*
X10396000Y-9366000D01*
X10346000Y-9316000D02*
X10446000Y-9316000D01*
X10650000Y-8250000D02*
X10650000Y-8350000D01*
X10600000Y-8300000D02*
X10700000Y-8300000D01*
X10650000Y-8504000D02*
X10650000Y-8604000D01*
X10600000Y-8554000D02*
X10700000Y-8554000D01*
X10650000Y-8758000D02*
X10650000Y-8858000D01*
X10600000Y-8808000D02*
X10700000Y-8808000D01*
X10650000Y-9012000D02*
X10650000Y-9112000D01*
X10600000Y-9062000D02*
X10700000Y-9062000D01*
X10650000Y-9266000D02*
X10650000Y-9366000D01*
X10600000Y-9316000D02*
X10700000Y-9316000D01*
X12772000Y-10421000D02*
X12772000Y-10521000D01*
X12722000Y-10471000D02*
X12822000Y-10471000D01*
X12772000Y-12199000D02*
X12772000Y-12299000D01*
X12722000Y-12249000D02*
X12822000Y-12249000D01*
X14780000Y-9853750D02*
X14780000Y-9953750D01*
X14730000Y-9903750D02*
X14830000Y-9903750D01*
X14780000Y-10103750D02*
X14780000Y-10203750D01*
X14730000Y-10153750D02*
X14830000Y-10153750D01*
X14780000Y-11553750D02*
X14780000Y-11653750D01*
X14730000Y-11603750D02*
X14830000Y-11603750D01*
X15030000Y-9853750D02*
X15030000Y-9953750D01*
X14980000Y-9903750D02*
X15080000Y-9903750D01*
X15030000Y-11553750D02*
X15030000Y-11653750D01*
X14980000Y-11603750D02*
X15080000Y-11603750D01*
X15280000Y-9853750D02*
X15280000Y-9953750D01*
X15230000Y-9903750D02*
X15330000Y-9903750D01*
X15280000Y-10103750D02*
X15280000Y-10203750D01*
X15230000Y-10153750D02*
X15330000Y-10153750D01*
X15280000Y-11553750D02*
X15280000Y-11653750D01*
X15230000Y-11603750D02*
X15330000Y-11603750D01*
D12*
X7394073Y-10838073D02*
X7394073Y-10753927D01*
X7309927Y-10753927D01*
X7309927Y-10838073D01*
X7394073Y-10838073D01*
X7394073Y-11092073D02*
X7394073Y-11007927D01*
X7309927Y-11007927D01*
X7309927Y-11092073D01*
X7394073Y-11092073D01*
X7394073Y-11346073D02*
X7394073Y-11261927D01*
X7309927Y-11261927D01*
X7309927Y-11346073D01*
X7394073Y-11346073D01*
X9340073Y-7015073D02*
X9340073Y-6930927D01*
X9255927Y-6930927D01*
X9255927Y-7015073D01*
X9340073Y-7015073D01*
X9340073Y-7269073D02*
X9340073Y-7184927D01*
X9255927Y-7184927D01*
X9255927Y-7269073D01*
X9340073Y-7269073D01*
X11890073Y-7315073D02*
X11890073Y-7230927D01*
X11805927Y-7230927D01*
X11805927Y-7315073D01*
X11890073Y-7315073D01*
X11890073Y-7569073D02*
X11890073Y-7484927D01*
X11805927Y-7484927D01*
X11805927Y-7569073D01*
X11890073Y-7569073D01*
X13760073Y-10180073D02*
X13760073Y-10095927D01*
X13675927Y-10095927D01*
X13675927Y-10180073D01*
X13760073Y-10180073D01*
X13760073Y-10434073D02*
X13760073Y-10349927D01*
X13675927Y-10349927D01*
X13675927Y-10434073D01*
X13760073Y-10434073D01*
X13760073Y-10688073D02*
X13760073Y-10603927D01*
X13675927Y-10603927D01*
X13675927Y-10688073D01*
X13760073Y-10688073D01*
X13760073Y-10942073D02*
X13760073Y-10857927D01*
X13675927Y-10857927D01*
X13675927Y-10942073D01*
X13760073Y-10942073D01*
X14692073Y-12142073D02*
X14692073Y-12057927D01*
X14607927Y-12057927D01*
X14607927Y-12142073D01*
X14692073Y-12142073D01*
X14946073Y-12142073D02*
X14946073Y-12057927D01*
X14861927Y-12057927D01*
X14861927Y-12142073D01*
X14946073Y-12142073D01*
X15200073Y-12142073D02*
X15200073Y-12057927D01*
X15115927Y-12057927D01*
X15115927Y-12142073D01*
X15200073Y-12142073D01*
X15454073Y-12142073D02*
X15454073Y-12057927D01*
X15369927Y-12057927D01*
X15369927Y-12142073D01*
X15454073Y-12142073D01*
D13*
X14470000Y-10928750D02*
X14545000Y-10853750D01*
X14470000Y-10778750D01*
X14395000Y-10853750D01*
X14470000Y-10928750D01*
D10*
X14545000Y-10918750D02*
X14545000Y-10788750D01*
X14395000Y-10788750D02*
G75*
G02*
X14545000Y-10788750I75000J0D01*
G01*
X14395000Y-10788750D02*
X14395000Y-10918750D01*
X14395000Y-10918750D02*
G75*
G03*
X14545000Y-10918750I75000J0D01*
G01*
D13*
X15590000Y-10928750D02*
X15665000Y-10853750D01*
X15590000Y-10778750D01*
X15515000Y-10853750D01*
X15590000Y-10928750D01*
D10*
X15665000Y-10918750D02*
X15665000Y-10788750D01*
X15515000Y-10788750D02*
G75*
G02*
X15665000Y-10788750I75000J0D01*
G01*
X15515000Y-10788750D02*
X15515000Y-10918750D01*
X15515000Y-10918750D02*
G75*
G03*
X15665000Y-10918750I75000J0D01*
G01*
D14*
X6840000Y-5340000D02*
X7160000Y-5660000D01*
X7160000Y-5340000D02*
X6840000Y-5660000D01*
X7160000Y-5500000D02*
G75*
G02*
X6840000Y-5500000I-160000J0D01*
G01*
X6840000Y-5500000D02*
G75*
G02*
X7160000Y-5500000I160000J0D01*
G01*
X6840000Y-9460000D02*
X7160000Y-9780000D01*
X7160000Y-9460000D02*
X6840000Y-9780000D01*
X7160000Y-9620000D02*
G75*
G02*
X6840000Y-9620000I-160000J0D01*
G01*
X6840000Y-9620000D02*
G75*
G02*
X7160000Y-9620000I160000J0D01*
G01*
X6840000Y-11860000D02*
X7160000Y-12180000D01*
X7160000Y-11860000D02*
X6840000Y-12180000D01*
X7160000Y-12020000D02*
G75*
G02*
X6840000Y-12020000I-160000J0D01*
G01*
X6840000Y-12020000D02*
G75*
G02*
X7160000Y-12020000I160000J0D01*
G01*
X15700000Y-5340000D02*
X16020000Y-5660000D01*
X16020000Y-5340000D02*
X15700000Y-5660000D01*
X16020000Y-5500000D02*
G75*
G02*
X15700000Y-5500000I-160000J0D01*
G01*
X15700000Y-5500000D02*
G75*
G02*
X16020000Y-5500000I160000J0D01*
G01*
X15700000Y-9460000D02*
X16020000Y-9780000D01*
X16020000Y-9460000D02*
X15700000Y-9780000D01*
X16020000Y-9620000D02*
G75*
G02*
X15700000Y-9620000I-160000J0D01*
G01*
X15700000Y-9620000D02*
G75*
G02*
X16020000Y-9620000I160000J0D01*
G01*
X16200000Y-11840000D02*
X16520000Y-12160000D01*
X16520000Y-11840000D02*
X16200000Y-12160000D01*
X16520000Y-12000000D02*
G75*
G02*
X16200000Y-12000000I-160000J0D01*
G01*
X16200000Y-12000000D02*
G75*
G02*
X16520000Y-12000000I160000J0D01*
G01*
D11*
X6755777Y-12816484D02*
X6755777Y-12616484D01*
X6755777Y-12616484D02*
X6803396Y-12616484D01*
X6803396Y-12616484D02*
X6831967Y-12626008D01*
X6831967Y-12626008D02*
X6851015Y-12645055D01*
X6851015Y-12645055D02*
X6860539Y-12664103D01*
X6860539Y-12664103D02*
X6870062Y-12702198D01*
X6870062Y-12702198D02*
X6870062Y-12730769D01*
X6870062Y-12730769D02*
X6860539Y-12768865D01*
X6860539Y-12768865D02*
X6851015Y-12787912D01*
X6851015Y-12787912D02*
X6831967Y-12806960D01*
X6831967Y-12806960D02*
X6803396Y-12816484D01*
X6803396Y-12816484D02*
X6755777Y-12816484D01*
X6955777Y-12816484D02*
X6955777Y-12683150D01*
X6955777Y-12721246D02*
X6965301Y-12702198D01*
X6965301Y-12702198D02*
X6974824Y-12692674D01*
X6974824Y-12692674D02*
X6993872Y-12683150D01*
X6993872Y-12683150D02*
X7012920Y-12683150D01*
X7079586Y-12816484D02*
X7079586Y-12683150D01*
X7079586Y-12616484D02*
X7070062Y-12626008D01*
X7070062Y-12626008D02*
X7079586Y-12635531D01*
X7079586Y-12635531D02*
X7089110Y-12626008D01*
X7089110Y-12626008D02*
X7079586Y-12616484D01*
X7079586Y-12616484D02*
X7079586Y-12635531D01*
X7203396Y-12816484D02*
X7184348Y-12806960D01*
X7184348Y-12806960D02*
X7174824Y-12787912D01*
X7174824Y-12787912D02*
X7174824Y-12616484D01*
X7308158Y-12816484D02*
X7289110Y-12806960D01*
X7289110Y-12806960D02*
X7279586Y-12787912D01*
X7279586Y-12787912D02*
X7279586Y-12616484D01*
X7536729Y-12816484D02*
X7536729Y-12616484D01*
X7536729Y-12616484D02*
X7603396Y-12759341D01*
X7603396Y-12759341D02*
X7670062Y-12616484D01*
X7670062Y-12616484D02*
X7670062Y-12816484D01*
X7851015Y-12816484D02*
X7851015Y-12711722D01*
X7851015Y-12711722D02*
X7841491Y-12692674D01*
X7841491Y-12692674D02*
X7822443Y-12683150D01*
X7822443Y-12683150D02*
X7784348Y-12683150D01*
X7784348Y-12683150D02*
X7765301Y-12692674D01*
X7851015Y-12806960D02*
X7831967Y-12816484D01*
X7831967Y-12816484D02*
X7784348Y-12816484D01*
X7784348Y-12816484D02*
X7765301Y-12806960D01*
X7765301Y-12806960D02*
X7755777Y-12787912D01*
X7755777Y-12787912D02*
X7755777Y-12768865D01*
X7755777Y-12768865D02*
X7765301Y-12749817D01*
X7765301Y-12749817D02*
X7784348Y-12740293D01*
X7784348Y-12740293D02*
X7831967Y-12740293D01*
X7831967Y-12740293D02*
X7851015Y-12730769D01*
X7946253Y-12683150D02*
X7946253Y-12883150D01*
X7946253Y-12692674D02*
X7965301Y-12683150D01*
X7965301Y-12683150D02*
X8003396Y-12683150D01*
X8003396Y-12683150D02*
X8022443Y-12692674D01*
X8022443Y-12692674D02*
X8031967Y-12702198D01*
X8031967Y-12702198D02*
X8041491Y-12721246D01*
X8041491Y-12721246D02*
X8041491Y-12778388D01*
X8041491Y-12778388D02*
X8031967Y-12797436D01*
X8031967Y-12797436D02*
X8022443Y-12806960D01*
X8022443Y-12806960D02*
X8003396Y-12816484D01*
X8003396Y-12816484D02*
X7965301Y-12816484D01*
X7965301Y-12816484D02*
X7946253Y-12806960D01*
X8127205Y-12797436D02*
X8136729Y-12806960D01*
X8136729Y-12806960D02*
X8127205Y-12816484D01*
X8127205Y-12816484D02*
X8117682Y-12806960D01*
X8117682Y-12806960D02*
X8127205Y-12797436D01*
X8127205Y-12797436D02*
X8127205Y-12816484D01*
X8127205Y-12692674D02*
X8136729Y-12702198D01*
X8136729Y-12702198D02*
X8127205Y-12711722D01*
X8127205Y-12711722D02*
X8117682Y-12702198D01*
X8117682Y-12702198D02*
X8127205Y-12692674D01*
X8127205Y-12692674D02*
X8127205Y-12711722D01*
D10*
X6455000Y-13125000D02*
X6495000Y-13165000D01*
X6495000Y-13125000D02*
X6455000Y-13165000D01*
D11*
X6793872Y-13036484D02*
X6812920Y-13036484D01*
X6812920Y-13036484D02*
X6831967Y-13046008D01*
X6831967Y-13046008D02*
X6841491Y-13055531D01*
X6841491Y-13055531D02*
X6851015Y-13074579D01*
X6851015Y-13074579D02*
X6860539Y-13112674D01*
X6860539Y-13112674D02*
X6860539Y-13160293D01*
X6860539Y-13160293D02*
X6851015Y-13198388D01*
X6851015Y-13198388D02*
X6841491Y-13217436D01*
X6841491Y-13217436D02*
X6831967Y-13226960D01*
X6831967Y-13226960D02*
X6812920Y-13236484D01*
X6812920Y-13236484D02*
X6793872Y-13236484D01*
X6793872Y-13236484D02*
X6774824Y-13226960D01*
X6774824Y-13226960D02*
X6765301Y-13217436D01*
X6765301Y-13217436D02*
X6755777Y-13198388D01*
X6755777Y-13198388D02*
X6746253Y-13160293D01*
X6746253Y-13160293D02*
X6746253Y-13112674D01*
X6746253Y-13112674D02*
X6755777Y-13074579D01*
X6755777Y-13074579D02*
X6765301Y-13055531D01*
X6765301Y-13055531D02*
X6774824Y-13046008D01*
X6774824Y-13046008D02*
X6793872Y-13036484D01*
X6946253Y-13217436D02*
X6955777Y-13226960D01*
X6955777Y-13226960D02*
X6946253Y-13236484D01*
X6946253Y-13236484D02*
X6936729Y-13226960D01*
X6936729Y-13226960D02*
X6946253Y-13217436D01*
X6946253Y-13217436D02*
X6946253Y-13236484D01*
X7127205Y-13103150D02*
X7127205Y-13236484D01*
X7079586Y-13026960D02*
X7031967Y-13169817D01*
X7031967Y-13169817D02*
X7155777Y-13169817D01*
X7270062Y-13036484D02*
X7289110Y-13036484D01*
X7289110Y-13036484D02*
X7308158Y-13046008D01*
X7308158Y-13046008D02*
X7317682Y-13055531D01*
X7317682Y-13055531D02*
X7327205Y-13074579D01*
X7327205Y-13074579D02*
X7336729Y-13112674D01*
X7336729Y-13112674D02*
X7336729Y-13160293D01*
X7336729Y-13160293D02*
X7327205Y-13198388D01*
X7327205Y-13198388D02*
X7317682Y-13217436D01*
X7317682Y-13217436D02*
X7308158Y-13226960D01*
X7308158Y-13226960D02*
X7289110Y-13236484D01*
X7289110Y-13236484D02*
X7270062Y-13236484D01*
X7270062Y-13236484D02*
X7251015Y-13226960D01*
X7251015Y-13226960D02*
X7241491Y-13217436D01*
X7241491Y-13217436D02*
X7231967Y-13198388D01*
X7231967Y-13198388D02*
X7222443Y-13160293D01*
X7222443Y-13160293D02*
X7222443Y-13112674D01*
X7222443Y-13112674D02*
X7231967Y-13074579D01*
X7231967Y-13074579D02*
X7241491Y-13055531D01*
X7241491Y-13055531D02*
X7251015Y-13046008D01*
X7251015Y-13046008D02*
X7270062Y-13036484D01*
X7460539Y-13036484D02*
X7479586Y-13036484D01*
X7479586Y-13036484D02*
X7498634Y-13046008D01*
X7498634Y-13046008D02*
X7508158Y-13055531D01*
X7508158Y-13055531D02*
X7517682Y-13074579D01*
X7517682Y-13074579D02*
X7527205Y-13112674D01*
X7527205Y-13112674D02*
X7527205Y-13160293D01*
X7527205Y-13160293D02*
X7517682Y-13198388D01*
X7517682Y-13198388D02*
X7508158Y-13217436D01*
X7508158Y-13217436D02*
X7498634Y-13226960D01*
X7498634Y-13226960D02*
X7479586Y-13236484D01*
X7479586Y-13236484D02*
X7460539Y-13236484D01*
X7460539Y-13236484D02*
X7441491Y-13226960D01*
X7441491Y-13226960D02*
X7431967Y-13217436D01*
X7431967Y-13217436D02*
X7422443Y-13198388D01*
X7422443Y-13198388D02*
X7412920Y-13160293D01*
X7412920Y-13160293D02*
X7412920Y-13112674D01*
X7412920Y-13112674D02*
X7422443Y-13074579D01*
X7422443Y-13074579D02*
X7431967Y-13055531D01*
X7431967Y-13055531D02*
X7441491Y-13046008D01*
X7441491Y-13046008D02*
X7460539Y-13036484D01*
X7612920Y-13236484D02*
X7612920Y-13103150D01*
X7612920Y-13122198D02*
X7622443Y-13112674D01*
X7622443Y-13112674D02*
X7641491Y-13103150D01*
X7641491Y-13103150D02*
X7670063Y-13103150D01*
X7670063Y-13103150D02*
X7689110Y-13112674D01*
X7689110Y-13112674D02*
X7698634Y-13131722D01*
X7698634Y-13131722D02*
X7698634Y-13236484D01*
X7698634Y-13131722D02*
X7708158Y-13112674D01*
X7708158Y-13112674D02*
X7727205Y-13103150D01*
X7727205Y-13103150D02*
X7755777Y-13103150D01*
X7755777Y-13103150D02*
X7774824Y-13112674D01*
X7774824Y-13112674D02*
X7784348Y-13131722D01*
X7784348Y-13131722D02*
X7784348Y-13236484D01*
X7879586Y-13236484D02*
X7879586Y-13103150D01*
X7879586Y-13122198D02*
X7889110Y-13112674D01*
X7889110Y-13112674D02*
X7908158Y-13103150D01*
X7908158Y-13103150D02*
X7936729Y-13103150D01*
X7936729Y-13103150D02*
X7955777Y-13112674D01*
X7955777Y-13112674D02*
X7965301Y-13131722D01*
X7965301Y-13131722D02*
X7965301Y-13236484D01*
X7965301Y-13131722D02*
X7974824Y-13112674D01*
X7974824Y-13112674D02*
X7993872Y-13103150D01*
X7993872Y-13103150D02*
X8022443Y-13103150D01*
X8022443Y-13103150D02*
X8041491Y-13112674D01*
X8041491Y-13112674D02*
X8051015Y-13131722D01*
X8051015Y-13131722D02*
X8051015Y-13236484D01*
X8441491Y-13026960D02*
X8270063Y-13284103D01*
X8698634Y-13036484D02*
X8717682Y-13036484D01*
X8717682Y-13036484D02*
X8736729Y-13046008D01*
X8736729Y-13046008D02*
X8746253Y-13055531D01*
X8746253Y-13055531D02*
X8755777Y-13074579D01*
X8755777Y-13074579D02*
X8765301Y-13112674D01*
X8765301Y-13112674D02*
X8765301Y-13160293D01*
X8765301Y-13160293D02*
X8755777Y-13198388D01*
X8755777Y-13198388D02*
X8746253Y-13217436D01*
X8746253Y-13217436D02*
X8736729Y-13226960D01*
X8736729Y-13226960D02*
X8717682Y-13236484D01*
X8717682Y-13236484D02*
X8698634Y-13236484D01*
X8698634Y-13236484D02*
X8679587Y-13226960D01*
X8679587Y-13226960D02*
X8670063Y-13217436D01*
X8670063Y-13217436D02*
X8660539Y-13198388D01*
X8660539Y-13198388D02*
X8651015Y-13160293D01*
X8651015Y-13160293D02*
X8651015Y-13112674D01*
X8651015Y-13112674D02*
X8660539Y-13074579D01*
X8660539Y-13074579D02*
X8670063Y-13055531D01*
X8670063Y-13055531D02*
X8679587Y-13046008D01*
X8679587Y-13046008D02*
X8698634Y-13036484D01*
X8851015Y-13217436D02*
X8860539Y-13226960D01*
X8860539Y-13226960D02*
X8851015Y-13236484D01*
X8851015Y-13236484D02*
X8841491Y-13226960D01*
X8841491Y-13226960D02*
X8851015Y-13217436D01*
X8851015Y-13217436D02*
X8851015Y-13236484D01*
X8984348Y-13036484D02*
X9003396Y-13036484D01*
X9003396Y-13036484D02*
X9022444Y-13046008D01*
X9022444Y-13046008D02*
X9031968Y-13055531D01*
X9031968Y-13055531D02*
X9041491Y-13074579D01*
X9041491Y-13074579D02*
X9051015Y-13112674D01*
X9051015Y-13112674D02*
X9051015Y-13160293D01*
X9051015Y-13160293D02*
X9041491Y-13198388D01*
X9041491Y-13198388D02*
X9031968Y-13217436D01*
X9031968Y-13217436D02*
X9022444Y-13226960D01*
X9022444Y-13226960D02*
X9003396Y-13236484D01*
X9003396Y-13236484D02*
X8984348Y-13236484D01*
X8984348Y-13236484D02*
X8965301Y-13226960D01*
X8965301Y-13226960D02*
X8955777Y-13217436D01*
X8955777Y-13217436D02*
X8946253Y-13198388D01*
X8946253Y-13198388D02*
X8936729Y-13160293D01*
X8936729Y-13160293D02*
X8936729Y-13112674D01*
X8936729Y-13112674D02*
X8946253Y-13074579D01*
X8946253Y-13074579D02*
X8955777Y-13055531D01*
X8955777Y-13055531D02*
X8965301Y-13046008D01*
X8965301Y-13046008D02*
X8984348Y-13036484D01*
X9241491Y-13236484D02*
X9127206Y-13236484D01*
X9184348Y-13236484D02*
X9184348Y-13036484D01*
X9184348Y-13036484D02*
X9165301Y-13065055D01*
X9165301Y-13065055D02*
X9146253Y-13084103D01*
X9146253Y-13084103D02*
X9127206Y-13093627D01*
X9422444Y-13036484D02*
X9327206Y-13036484D01*
X9327206Y-13036484D02*
X9317682Y-13131722D01*
X9317682Y-13131722D02*
X9327206Y-13122198D01*
X9327206Y-13122198D02*
X9346253Y-13112674D01*
X9346253Y-13112674D02*
X9393872Y-13112674D01*
X9393872Y-13112674D02*
X9412920Y-13122198D01*
X9412920Y-13122198D02*
X9422444Y-13131722D01*
X9422444Y-13131722D02*
X9431968Y-13150769D01*
X9431968Y-13150769D02*
X9431968Y-13198388D01*
X9431968Y-13198388D02*
X9422444Y-13217436D01*
X9422444Y-13217436D02*
X9412920Y-13226960D01*
X9412920Y-13226960D02*
X9393872Y-13236484D01*
X9393872Y-13236484D02*
X9346253Y-13236484D01*
X9346253Y-13236484D02*
X9327206Y-13226960D01*
X9327206Y-13226960D02*
X9317682Y-13217436D01*
X9498634Y-13036484D02*
X9631968Y-13036484D01*
X9631968Y-13036484D02*
X9546253Y-13236484D01*
X9698634Y-13036484D02*
X9698634Y-13074579D01*
X9774825Y-13036484D02*
X9774825Y-13074579D01*
X10070063Y-13312674D02*
X10060539Y-13303150D01*
X10060539Y-13303150D02*
X10041491Y-13274579D01*
X10041491Y-13274579D02*
X10031968Y-13255531D01*
X10031968Y-13255531D02*
X10022444Y-13226960D01*
X10022444Y-13226960D02*
X10012920Y-13179341D01*
X10012920Y-13179341D02*
X10012920Y-13141246D01*
X10012920Y-13141246D02*
X10022444Y-13093627D01*
X10022444Y-13093627D02*
X10031968Y-13065055D01*
X10031968Y-13065055D02*
X10041491Y-13046008D01*
X10041491Y-13046008D02*
X10060539Y-13017436D01*
X10060539Y-13017436D02*
X10070063Y-13007912D01*
X10251015Y-13236484D02*
X10136730Y-13236484D01*
X10193872Y-13236484D02*
X10193872Y-13036484D01*
X10193872Y-13036484D02*
X10174825Y-13065055D01*
X10174825Y-13065055D02*
X10155777Y-13084103D01*
X10155777Y-13084103D02*
X10136730Y-13093627D01*
X10346253Y-13236484D02*
X10384349Y-13236484D01*
X10384349Y-13236484D02*
X10403396Y-13226960D01*
X10403396Y-13226960D02*
X10412920Y-13217436D01*
X10412920Y-13217436D02*
X10431968Y-13188865D01*
X10431968Y-13188865D02*
X10441491Y-13150769D01*
X10441491Y-13150769D02*
X10441491Y-13074579D01*
X10441491Y-13074579D02*
X10431968Y-13055531D01*
X10431968Y-13055531D02*
X10422444Y-13046008D01*
X10422444Y-13046008D02*
X10403396Y-13036484D01*
X10403396Y-13036484D02*
X10365301Y-13036484D01*
X10365301Y-13036484D02*
X10346253Y-13046008D01*
X10346253Y-13046008D02*
X10336730Y-13055531D01*
X10336730Y-13055531D02*
X10327206Y-13074579D01*
X10327206Y-13074579D02*
X10327206Y-13122198D01*
X10327206Y-13122198D02*
X10336730Y-13141246D01*
X10336730Y-13141246D02*
X10346253Y-13150769D01*
X10346253Y-13150769D02*
X10365301Y-13160293D01*
X10365301Y-13160293D02*
X10403396Y-13160293D01*
X10403396Y-13160293D02*
X10422444Y-13150769D01*
X10422444Y-13150769D02*
X10431968Y-13141246D01*
X10431968Y-13141246D02*
X10441491Y-13122198D01*
X10612920Y-13103150D02*
X10612920Y-13236484D01*
X10565301Y-13026960D02*
X10517682Y-13169817D01*
X10517682Y-13169817D02*
X10641491Y-13169817D01*
X10870063Y-13236484D02*
X10870063Y-13036484D01*
X10955777Y-13236484D02*
X10955777Y-13131722D01*
X10955777Y-13131722D02*
X10946253Y-13112674D01*
X10946253Y-13112674D02*
X10927206Y-13103150D01*
X10927206Y-13103150D02*
X10898634Y-13103150D01*
X10898634Y-13103150D02*
X10879587Y-13112674D01*
X10879587Y-13112674D02*
X10870063Y-13122198D01*
X11079587Y-13236484D02*
X11060539Y-13226960D01*
X11060539Y-13226960D02*
X11051015Y-13217436D01*
X11051015Y-13217436D02*
X11041492Y-13198388D01*
X11041492Y-13198388D02*
X11041492Y-13141246D01*
X11041492Y-13141246D02*
X11051015Y-13122198D01*
X11051015Y-13122198D02*
X11060539Y-13112674D01*
X11060539Y-13112674D02*
X11079587Y-13103150D01*
X11079587Y-13103150D02*
X11108158Y-13103150D01*
X11108158Y-13103150D02*
X11127206Y-13112674D01*
X11127206Y-13112674D02*
X11136730Y-13122198D01*
X11136730Y-13122198D02*
X11146253Y-13141246D01*
X11146253Y-13141246D02*
X11146253Y-13198388D01*
X11146253Y-13198388D02*
X11136730Y-13217436D01*
X11136730Y-13217436D02*
X11127206Y-13226960D01*
X11127206Y-13226960D02*
X11108158Y-13236484D01*
X11108158Y-13236484D02*
X11079587Y-13236484D01*
X11260539Y-13236484D02*
X11241491Y-13226960D01*
X11241491Y-13226960D02*
X11231968Y-13207912D01*
X11231968Y-13207912D02*
X11231968Y-13036484D01*
X11412920Y-13226960D02*
X11393872Y-13236484D01*
X11393872Y-13236484D02*
X11355777Y-13236484D01*
X11355777Y-13236484D02*
X11336730Y-13226960D01*
X11336730Y-13226960D02*
X11327206Y-13207912D01*
X11327206Y-13207912D02*
X11327206Y-13131722D01*
X11327206Y-13131722D02*
X11336730Y-13112674D01*
X11336730Y-13112674D02*
X11355777Y-13103150D01*
X11355777Y-13103150D02*
X11393872Y-13103150D01*
X11393872Y-13103150D02*
X11412920Y-13112674D01*
X11412920Y-13112674D02*
X11422444Y-13131722D01*
X11422444Y-13131722D02*
X11422444Y-13150769D01*
X11422444Y-13150769D02*
X11327206Y-13169817D01*
X11498634Y-13226960D02*
X11517682Y-13236484D01*
X11517682Y-13236484D02*
X11555777Y-13236484D01*
X11555777Y-13236484D02*
X11574825Y-13226960D01*
X11574825Y-13226960D02*
X11584349Y-13207912D01*
X11584349Y-13207912D02*
X11584349Y-13198388D01*
X11584349Y-13198388D02*
X11574825Y-13179341D01*
X11574825Y-13179341D02*
X11555777Y-13169817D01*
X11555777Y-13169817D02*
X11527206Y-13169817D01*
X11527206Y-13169817D02*
X11508158Y-13160293D01*
X11508158Y-13160293D02*
X11498634Y-13141246D01*
X11498634Y-13141246D02*
X11498634Y-13131722D01*
X11498634Y-13131722D02*
X11508158Y-13112674D01*
X11508158Y-13112674D02*
X11527206Y-13103150D01*
X11527206Y-13103150D02*
X11555777Y-13103150D01*
X11555777Y-13103150D02*
X11574825Y-13112674D01*
X11651015Y-13312674D02*
X11660539Y-13303150D01*
X11660539Y-13303150D02*
X11679587Y-13274579D01*
X11679587Y-13274579D02*
X11689111Y-13255531D01*
X11689111Y-13255531D02*
X11698634Y-13226960D01*
X11698634Y-13226960D02*
X11708158Y-13179341D01*
X11708158Y-13179341D02*
X11708158Y-13141246D01*
X11708158Y-13141246D02*
X11698634Y-13093627D01*
X11698634Y-13093627D02*
X11689111Y-13065055D01*
X11689111Y-13065055D02*
X11679587Y-13046008D01*
X11679587Y-13046008D02*
X11660539Y-13017436D01*
X11660539Y-13017436D02*
X11651015Y-13007912D01*
D10*
X6495000Y-13409000D02*
G75*
G02*
X6445000Y-13409000I-25000J0D01*
G01*
X6445000Y-13409000D02*
G75*
G02*
X6495000Y-13409000I25000J0D01*
G01*
D11*
X6793872Y-13300484D02*
X6812920Y-13300484D01*
X6812920Y-13300484D02*
X6831967Y-13310008D01*
X6831967Y-13310008D02*
X6841491Y-13319531D01*
X6841491Y-13319531D02*
X6851015Y-13338579D01*
X6851015Y-13338579D02*
X6860539Y-13376674D01*
X6860539Y-13376674D02*
X6860539Y-13424293D01*
X6860539Y-13424293D02*
X6851015Y-13462388D01*
X6851015Y-13462388D02*
X6841491Y-13481436D01*
X6841491Y-13481436D02*
X6831967Y-13490960D01*
X6831967Y-13490960D02*
X6812920Y-13500484D01*
X6812920Y-13500484D02*
X6793872Y-13500484D01*
X6793872Y-13500484D02*
X6774824Y-13490960D01*
X6774824Y-13490960D02*
X6765301Y-13481436D01*
X6765301Y-13481436D02*
X6755777Y-13462388D01*
X6755777Y-13462388D02*
X6746253Y-13424293D01*
X6746253Y-13424293D02*
X6746253Y-13376674D01*
X6746253Y-13376674D02*
X6755777Y-13338579D01*
X6755777Y-13338579D02*
X6765301Y-13319531D01*
X6765301Y-13319531D02*
X6774824Y-13310008D01*
X6774824Y-13310008D02*
X6793872Y-13300484D01*
X6946253Y-13481436D02*
X6955777Y-13490960D01*
X6955777Y-13490960D02*
X6946253Y-13500484D01*
X6946253Y-13500484D02*
X6936729Y-13490960D01*
X6936729Y-13490960D02*
X6946253Y-13481436D01*
X6946253Y-13481436D02*
X6946253Y-13500484D01*
X7136729Y-13300484D02*
X7041491Y-13300484D01*
X7041491Y-13300484D02*
X7031967Y-13395722D01*
X7031967Y-13395722D02*
X7041491Y-13386198D01*
X7041491Y-13386198D02*
X7060539Y-13376674D01*
X7060539Y-13376674D02*
X7108158Y-13376674D01*
X7108158Y-13376674D02*
X7127205Y-13386198D01*
X7127205Y-13386198D02*
X7136729Y-13395722D01*
X7136729Y-13395722D02*
X7146253Y-13414769D01*
X7146253Y-13414769D02*
X7146253Y-13462388D01*
X7146253Y-13462388D02*
X7136729Y-13481436D01*
X7136729Y-13481436D02*
X7127205Y-13490960D01*
X7127205Y-13490960D02*
X7108158Y-13500484D01*
X7108158Y-13500484D02*
X7060539Y-13500484D01*
X7060539Y-13500484D02*
X7041491Y-13490960D01*
X7041491Y-13490960D02*
X7031967Y-13481436D01*
X7270062Y-13300484D02*
X7289110Y-13300484D01*
X7289110Y-13300484D02*
X7308158Y-13310008D01*
X7308158Y-13310008D02*
X7317682Y-13319531D01*
X7317682Y-13319531D02*
X7327205Y-13338579D01*
X7327205Y-13338579D02*
X7336729Y-13376674D01*
X7336729Y-13376674D02*
X7336729Y-13424293D01*
X7336729Y-13424293D02*
X7327205Y-13462388D01*
X7327205Y-13462388D02*
X7317682Y-13481436D01*
X7317682Y-13481436D02*
X7308158Y-13490960D01*
X7308158Y-13490960D02*
X7289110Y-13500484D01*
X7289110Y-13500484D02*
X7270062Y-13500484D01*
X7270062Y-13500484D02*
X7251015Y-13490960D01*
X7251015Y-13490960D02*
X7241491Y-13481436D01*
X7241491Y-13481436D02*
X7231967Y-13462388D01*
X7231967Y-13462388D02*
X7222443Y-13424293D01*
X7222443Y-13424293D02*
X7222443Y-13376674D01*
X7222443Y-13376674D02*
X7231967Y-13338579D01*
X7231967Y-13338579D02*
X7241491Y-13319531D01*
X7241491Y-13319531D02*
X7251015Y-13310008D01*
X7251015Y-13310008D02*
X7270062Y-13300484D01*
X7460539Y-13300484D02*
X7479586Y-13300484D01*
X7479586Y-13300484D02*
X7498634Y-13310008D01*
X7498634Y-13310008D02*
X7508158Y-13319531D01*
X7508158Y-13319531D02*
X7517682Y-13338579D01*
X7517682Y-13338579D02*
X7527205Y-13376674D01*
X7527205Y-13376674D02*
X7527205Y-13424293D01*
X7527205Y-13424293D02*
X7517682Y-13462388D01*
X7517682Y-13462388D02*
X7508158Y-13481436D01*
X7508158Y-13481436D02*
X7498634Y-13490960D01*
X7498634Y-13490960D02*
X7479586Y-13500484D01*
X7479586Y-13500484D02*
X7460539Y-13500484D01*
X7460539Y-13500484D02*
X7441491Y-13490960D01*
X7441491Y-13490960D02*
X7431967Y-13481436D01*
X7431967Y-13481436D02*
X7422443Y-13462388D01*
X7422443Y-13462388D02*
X7412920Y-13424293D01*
X7412920Y-13424293D02*
X7412920Y-13376674D01*
X7412920Y-13376674D02*
X7422443Y-13338579D01*
X7422443Y-13338579D02*
X7431967Y-13319531D01*
X7431967Y-13319531D02*
X7441491Y-13310008D01*
X7441491Y-13310008D02*
X7460539Y-13300484D01*
X7612920Y-13500484D02*
X7612920Y-13367150D01*
X7612920Y-13386198D02*
X7622443Y-13376674D01*
X7622443Y-13376674D02*
X7641491Y-13367150D01*
X7641491Y-13367150D02*
X7670063Y-13367150D01*
X7670063Y-13367150D02*
X7689110Y-13376674D01*
X7689110Y-13376674D02*
X7698634Y-13395722D01*
X7698634Y-13395722D02*
X7698634Y-13500484D01*
X7698634Y-13395722D02*
X7708158Y-13376674D01*
X7708158Y-13376674D02*
X7727205Y-13367150D01*
X7727205Y-13367150D02*
X7755777Y-13367150D01*
X7755777Y-13367150D02*
X7774824Y-13376674D01*
X7774824Y-13376674D02*
X7784348Y-13395722D01*
X7784348Y-13395722D02*
X7784348Y-13500484D01*
X7879586Y-13500484D02*
X7879586Y-13367150D01*
X7879586Y-13386198D02*
X7889110Y-13376674D01*
X7889110Y-13376674D02*
X7908158Y-13367150D01*
X7908158Y-13367150D02*
X7936729Y-13367150D01*
X7936729Y-13367150D02*
X7955777Y-13376674D01*
X7955777Y-13376674D02*
X7965301Y-13395722D01*
X7965301Y-13395722D02*
X7965301Y-13500484D01*
X7965301Y-13395722D02*
X7974824Y-13376674D01*
X7974824Y-13376674D02*
X7993872Y-13367150D01*
X7993872Y-13367150D02*
X8022443Y-13367150D01*
X8022443Y-13367150D02*
X8041491Y-13376674D01*
X8041491Y-13376674D02*
X8051015Y-13395722D01*
X8051015Y-13395722D02*
X8051015Y-13500484D01*
X8441491Y-13290960D02*
X8270063Y-13548103D01*
X8698634Y-13300484D02*
X8717682Y-13300484D01*
X8717682Y-13300484D02*
X8736729Y-13310008D01*
X8736729Y-13310008D02*
X8746253Y-13319531D01*
X8746253Y-13319531D02*
X8755777Y-13338579D01*
X8755777Y-13338579D02*
X8765301Y-13376674D01*
X8765301Y-13376674D02*
X8765301Y-13424293D01*
X8765301Y-13424293D02*
X8755777Y-13462388D01*
X8755777Y-13462388D02*
X8746253Y-13481436D01*
X8746253Y-13481436D02*
X8736729Y-13490960D01*
X8736729Y-13490960D02*
X8717682Y-13500484D01*
X8717682Y-13500484D02*
X8698634Y-13500484D01*
X8698634Y-13500484D02*
X8679587Y-13490960D01*
X8679587Y-13490960D02*
X8670063Y-13481436D01*
X8670063Y-13481436D02*
X8660539Y-13462388D01*
X8660539Y-13462388D02*
X8651015Y-13424293D01*
X8651015Y-13424293D02*
X8651015Y-13376674D01*
X8651015Y-13376674D02*
X8660539Y-13338579D01*
X8660539Y-13338579D02*
X8670063Y-13319531D01*
X8670063Y-13319531D02*
X8679587Y-13310008D01*
X8679587Y-13310008D02*
X8698634Y-13300484D01*
X8851015Y-13481436D02*
X8860539Y-13490960D01*
X8860539Y-13490960D02*
X8851015Y-13500484D01*
X8851015Y-13500484D02*
X8841491Y-13490960D01*
X8841491Y-13490960D02*
X8851015Y-13481436D01*
X8851015Y-13481436D02*
X8851015Y-13500484D01*
X8984348Y-13300484D02*
X9003396Y-13300484D01*
X9003396Y-13300484D02*
X9022444Y-13310008D01*
X9022444Y-13310008D02*
X9031968Y-13319531D01*
X9031968Y-13319531D02*
X9041491Y-13338579D01*
X9041491Y-13338579D02*
X9051015Y-13376674D01*
X9051015Y-13376674D02*
X9051015Y-13424293D01*
X9051015Y-13424293D02*
X9041491Y-13462388D01*
X9041491Y-13462388D02*
X9031968Y-13481436D01*
X9031968Y-13481436D02*
X9022444Y-13490960D01*
X9022444Y-13490960D02*
X9003396Y-13500484D01*
X9003396Y-13500484D02*
X8984348Y-13500484D01*
X8984348Y-13500484D02*
X8965301Y-13490960D01*
X8965301Y-13490960D02*
X8955777Y-13481436D01*
X8955777Y-13481436D02*
X8946253Y-13462388D01*
X8946253Y-13462388D02*
X8936729Y-13424293D01*
X8936729Y-13424293D02*
X8936729Y-13376674D01*
X8936729Y-13376674D02*
X8946253Y-13338579D01*
X8946253Y-13338579D02*
X8955777Y-13319531D01*
X8955777Y-13319531D02*
X8965301Y-13310008D01*
X8965301Y-13310008D02*
X8984348Y-13300484D01*
X9241491Y-13500484D02*
X9127206Y-13500484D01*
X9184348Y-13500484D02*
X9184348Y-13300484D01*
X9184348Y-13300484D02*
X9165301Y-13329055D01*
X9165301Y-13329055D02*
X9146253Y-13348103D01*
X9146253Y-13348103D02*
X9127206Y-13357627D01*
X9336729Y-13500484D02*
X9374825Y-13500484D01*
X9374825Y-13500484D02*
X9393872Y-13490960D01*
X9393872Y-13490960D02*
X9403396Y-13481436D01*
X9403396Y-13481436D02*
X9422444Y-13452865D01*
X9422444Y-13452865D02*
X9431968Y-13414769D01*
X9431968Y-13414769D02*
X9431968Y-13338579D01*
X9431968Y-13338579D02*
X9422444Y-13319531D01*
X9422444Y-13319531D02*
X9412920Y-13310008D01*
X9412920Y-13310008D02*
X9393872Y-13300484D01*
X9393872Y-13300484D02*
X9355777Y-13300484D01*
X9355777Y-13300484D02*
X9336729Y-13310008D01*
X9336729Y-13310008D02*
X9327206Y-13319531D01*
X9327206Y-13319531D02*
X9317682Y-13338579D01*
X9317682Y-13338579D02*
X9317682Y-13386198D01*
X9317682Y-13386198D02*
X9327206Y-13405246D01*
X9327206Y-13405246D02*
X9336729Y-13414769D01*
X9336729Y-13414769D02*
X9355777Y-13424293D01*
X9355777Y-13424293D02*
X9393872Y-13424293D01*
X9393872Y-13424293D02*
X9412920Y-13414769D01*
X9412920Y-13414769D02*
X9422444Y-13405246D01*
X9422444Y-13405246D02*
X9431968Y-13386198D01*
X9498634Y-13300484D02*
X9631968Y-13300484D01*
X9631968Y-13300484D02*
X9546253Y-13500484D01*
X9698634Y-13300484D02*
X9698634Y-13338579D01*
X9774825Y-13300484D02*
X9774825Y-13338579D01*
X10070063Y-13576674D02*
X10060539Y-13567150D01*
X10060539Y-13567150D02*
X10041491Y-13538579D01*
X10041491Y-13538579D02*
X10031968Y-13519531D01*
X10031968Y-13519531D02*
X10022444Y-13490960D01*
X10022444Y-13490960D02*
X10012920Y-13443341D01*
X10012920Y-13443341D02*
X10012920Y-13405246D01*
X10012920Y-13405246D02*
X10022444Y-13357627D01*
X10022444Y-13357627D02*
X10031968Y-13329055D01*
X10031968Y-13329055D02*
X10041491Y-13310008D01*
X10041491Y-13310008D02*
X10060539Y-13281436D01*
X10060539Y-13281436D02*
X10070063Y-13271912D01*
X10231968Y-13367150D02*
X10231968Y-13500484D01*
X10184349Y-13290960D02*
X10136730Y-13433817D01*
X10136730Y-13433817D02*
X10260539Y-13433817D01*
X10365301Y-13386198D02*
X10346253Y-13376674D01*
X10346253Y-13376674D02*
X10336730Y-13367150D01*
X10336730Y-13367150D02*
X10327206Y-13348103D01*
X10327206Y-13348103D02*
X10327206Y-13338579D01*
X10327206Y-13338579D02*
X10336730Y-13319531D01*
X10336730Y-13319531D02*
X10346253Y-13310008D01*
X10346253Y-13310008D02*
X10365301Y-13300484D01*
X10365301Y-13300484D02*
X10403396Y-13300484D01*
X10403396Y-13300484D02*
X10422444Y-13310008D01*
X10422444Y-13310008D02*
X10431968Y-13319531D01*
X10431968Y-13319531D02*
X10441491Y-13338579D01*
X10441491Y-13338579D02*
X10441491Y-13348103D01*
X10441491Y-13348103D02*
X10431968Y-13367150D01*
X10431968Y-13367150D02*
X10422444Y-13376674D01*
X10422444Y-13376674D02*
X10403396Y-13386198D01*
X10403396Y-13386198D02*
X10365301Y-13386198D01*
X10365301Y-13386198D02*
X10346253Y-13395722D01*
X10346253Y-13395722D02*
X10336730Y-13405246D01*
X10336730Y-13405246D02*
X10327206Y-13424293D01*
X10327206Y-13424293D02*
X10327206Y-13462388D01*
X10327206Y-13462388D02*
X10336730Y-13481436D01*
X10336730Y-13481436D02*
X10346253Y-13490960D01*
X10346253Y-13490960D02*
X10365301Y-13500484D01*
X10365301Y-13500484D02*
X10403396Y-13500484D01*
X10403396Y-13500484D02*
X10422444Y-13490960D01*
X10422444Y-13490960D02*
X10431968Y-13481436D01*
X10431968Y-13481436D02*
X10441491Y-13462388D01*
X10441491Y-13462388D02*
X10441491Y-13424293D01*
X10441491Y-13424293D02*
X10431968Y-13405246D01*
X10431968Y-13405246D02*
X10422444Y-13395722D01*
X10422444Y-13395722D02*
X10403396Y-13386198D01*
X10679587Y-13500484D02*
X10679587Y-13300484D01*
X10765301Y-13500484D02*
X10765301Y-13395722D01*
X10765301Y-13395722D02*
X10755777Y-13376674D01*
X10755777Y-13376674D02*
X10736730Y-13367150D01*
X10736730Y-13367150D02*
X10708158Y-13367150D01*
X10708158Y-13367150D02*
X10689111Y-13376674D01*
X10689111Y-13376674D02*
X10679587Y-13386198D01*
X10889111Y-13500484D02*
X10870063Y-13490960D01*
X10870063Y-13490960D02*
X10860539Y-13481436D01*
X10860539Y-13481436D02*
X10851015Y-13462388D01*
X10851015Y-13462388D02*
X10851015Y-13405246D01*
X10851015Y-13405246D02*
X10860539Y-13386198D01*
X10860539Y-13386198D02*
X10870063Y-13376674D01*
X10870063Y-13376674D02*
X10889111Y-13367150D01*
X10889111Y-13367150D02*
X10917682Y-13367150D01*
X10917682Y-13367150D02*
X10936730Y-13376674D01*
X10936730Y-13376674D02*
X10946253Y-13386198D01*
X10946253Y-13386198D02*
X10955777Y-13405246D01*
X10955777Y-13405246D02*
X10955777Y-13462388D01*
X10955777Y-13462388D02*
X10946253Y-13481436D01*
X10946253Y-13481436D02*
X10936730Y-13490960D01*
X10936730Y-13490960D02*
X10917682Y-13500484D01*
X10917682Y-13500484D02*
X10889111Y-13500484D01*
X11070063Y-13500484D02*
X11051015Y-13490960D01*
X11051015Y-13490960D02*
X11041492Y-13471912D01*
X11041492Y-13471912D02*
X11041492Y-13300484D01*
X11222444Y-13490960D02*
X11203396Y-13500484D01*
X11203396Y-13500484D02*
X11165301Y-13500484D01*
X11165301Y-13500484D02*
X11146253Y-13490960D01*
X11146253Y-13490960D02*
X11136730Y-13471912D01*
X11136730Y-13471912D02*
X11136730Y-13395722D01*
X11136730Y-13395722D02*
X11146253Y-13376674D01*
X11146253Y-13376674D02*
X11165301Y-13367150D01*
X11165301Y-13367150D02*
X11203396Y-13367150D01*
X11203396Y-13367150D02*
X11222444Y-13376674D01*
X11222444Y-13376674D02*
X11231968Y-13395722D01*
X11231968Y-13395722D02*
X11231968Y-13414769D01*
X11231968Y-13414769D02*
X11136730Y-13433817D01*
X11308158Y-13490960D02*
X11327206Y-13500484D01*
X11327206Y-13500484D02*
X11365301Y-13500484D01*
X11365301Y-13500484D02*
X11384349Y-13490960D01*
X11384349Y-13490960D02*
X11393872Y-13471912D01*
X11393872Y-13471912D02*
X11393872Y-13462388D01*
X11393872Y-13462388D02*
X11384349Y-13443341D01*
X11384349Y-13443341D02*
X11365301Y-13433817D01*
X11365301Y-13433817D02*
X11336730Y-13433817D01*
X11336730Y-13433817D02*
X11317682Y-13424293D01*
X11317682Y-13424293D02*
X11308158Y-13405246D01*
X11308158Y-13405246D02*
X11308158Y-13395722D01*
X11308158Y-13395722D02*
X11317682Y-13376674D01*
X11317682Y-13376674D02*
X11336730Y-13367150D01*
X11336730Y-13367150D02*
X11365301Y-13367150D01*
X11365301Y-13367150D02*
X11384349Y-13376674D01*
X11460539Y-13576674D02*
X11470063Y-13567150D01*
X11470063Y-13567150D02*
X11489111Y-13538579D01*
X11489111Y-13538579D02*
X11498634Y-13519531D01*
X11498634Y-13519531D02*
X11508158Y-13490960D01*
X11508158Y-13490960D02*
X11517682Y-13443341D01*
X11517682Y-13443341D02*
X11517682Y-13405246D01*
X11517682Y-13405246D02*
X11508158Y-13357627D01*
X11508158Y-13357627D02*
X11498634Y-13329055D01*
X11498634Y-13329055D02*
X11489111Y-13310008D01*
X11489111Y-13310008D02*
X11470063Y-13281436D01*
X11470063Y-13281436D02*
X11460539Y-13271912D01*
D10*
X6445000Y-13623000D02*
X6445000Y-13723000D01*
X6395000Y-13673000D02*
X6495000Y-13673000D01*
D11*
X6860539Y-13764484D02*
X6746253Y-13764484D01*
X6803396Y-13764484D02*
X6803396Y-13564484D01*
X6803396Y-13564484D02*
X6784348Y-13593055D01*
X6784348Y-13593055D02*
X6765301Y-13612103D01*
X6765301Y-13612103D02*
X6746253Y-13621627D01*
X6946253Y-13745436D02*
X6955777Y-13754960D01*
X6955777Y-13754960D02*
X6946253Y-13764484D01*
X6946253Y-13764484D02*
X6936729Y-13754960D01*
X6936729Y-13754960D02*
X6946253Y-13745436D01*
X6946253Y-13745436D02*
X6946253Y-13764484D01*
X7079586Y-13564484D02*
X7098634Y-13564484D01*
X7098634Y-13564484D02*
X7117682Y-13574008D01*
X7117682Y-13574008D02*
X7127205Y-13583531D01*
X7127205Y-13583531D02*
X7136729Y-13602579D01*
X7136729Y-13602579D02*
X7146253Y-13640674D01*
X7146253Y-13640674D02*
X7146253Y-13688293D01*
X7146253Y-13688293D02*
X7136729Y-13726388D01*
X7136729Y-13726388D02*
X7127205Y-13745436D01*
X7127205Y-13745436D02*
X7117682Y-13754960D01*
X7117682Y-13754960D02*
X7098634Y-13764484D01*
X7098634Y-13764484D02*
X7079586Y-13764484D01*
X7079586Y-13764484D02*
X7060539Y-13754960D01*
X7060539Y-13754960D02*
X7051015Y-13745436D01*
X7051015Y-13745436D02*
X7041491Y-13726388D01*
X7041491Y-13726388D02*
X7031967Y-13688293D01*
X7031967Y-13688293D02*
X7031967Y-13640674D01*
X7031967Y-13640674D02*
X7041491Y-13602579D01*
X7041491Y-13602579D02*
X7051015Y-13583531D01*
X7051015Y-13583531D02*
X7060539Y-13574008D01*
X7060539Y-13574008D02*
X7079586Y-13564484D01*
X7270062Y-13564484D02*
X7289110Y-13564484D01*
X7289110Y-13564484D02*
X7308158Y-13574008D01*
X7308158Y-13574008D02*
X7317682Y-13583531D01*
X7317682Y-13583531D02*
X7327205Y-13602579D01*
X7327205Y-13602579D02*
X7336729Y-13640674D01*
X7336729Y-13640674D02*
X7336729Y-13688293D01*
X7336729Y-13688293D02*
X7327205Y-13726388D01*
X7327205Y-13726388D02*
X7317682Y-13745436D01*
X7317682Y-13745436D02*
X7308158Y-13754960D01*
X7308158Y-13754960D02*
X7289110Y-13764484D01*
X7289110Y-13764484D02*
X7270062Y-13764484D01*
X7270062Y-13764484D02*
X7251015Y-13754960D01*
X7251015Y-13754960D02*
X7241491Y-13745436D01*
X7241491Y-13745436D02*
X7231967Y-13726388D01*
X7231967Y-13726388D02*
X7222443Y-13688293D01*
X7222443Y-13688293D02*
X7222443Y-13640674D01*
X7222443Y-13640674D02*
X7231967Y-13602579D01*
X7231967Y-13602579D02*
X7241491Y-13583531D01*
X7241491Y-13583531D02*
X7251015Y-13574008D01*
X7251015Y-13574008D02*
X7270062Y-13564484D01*
X7460539Y-13564484D02*
X7479586Y-13564484D01*
X7479586Y-13564484D02*
X7498634Y-13574008D01*
X7498634Y-13574008D02*
X7508158Y-13583531D01*
X7508158Y-13583531D02*
X7517682Y-13602579D01*
X7517682Y-13602579D02*
X7527205Y-13640674D01*
X7527205Y-13640674D02*
X7527205Y-13688293D01*
X7527205Y-13688293D02*
X7517682Y-13726388D01*
X7517682Y-13726388D02*
X7508158Y-13745436D01*
X7508158Y-13745436D02*
X7498634Y-13754960D01*
X7498634Y-13754960D02*
X7479586Y-13764484D01*
X7479586Y-13764484D02*
X7460539Y-13764484D01*
X7460539Y-13764484D02*
X7441491Y-13754960D01*
X7441491Y-13754960D02*
X7431967Y-13745436D01*
X7431967Y-13745436D02*
X7422443Y-13726388D01*
X7422443Y-13726388D02*
X7412920Y-13688293D01*
X7412920Y-13688293D02*
X7412920Y-13640674D01*
X7412920Y-13640674D02*
X7422443Y-13602579D01*
X7422443Y-13602579D02*
X7431967Y-13583531D01*
X7431967Y-13583531D02*
X7441491Y-13574008D01*
X7441491Y-13574008D02*
X7460539Y-13564484D01*
X7612920Y-13764484D02*
X7612920Y-13631150D01*
X7612920Y-13650198D02*
X7622443Y-13640674D01*
X7622443Y-13640674D02*
X7641491Y-13631150D01*
X7641491Y-13631150D02*
X7670063Y-13631150D01*
X7670063Y-13631150D02*
X7689110Y-13640674D01*
X7689110Y-13640674D02*
X7698634Y-13659722D01*
X7698634Y-13659722D02*
X7698634Y-13764484D01*
X7698634Y-13659722D02*
X7708158Y-13640674D01*
X7708158Y-13640674D02*
X7727205Y-13631150D01*
X7727205Y-13631150D02*
X7755777Y-13631150D01*
X7755777Y-13631150D02*
X7774824Y-13640674D01*
X7774824Y-13640674D02*
X7784348Y-13659722D01*
X7784348Y-13659722D02*
X7784348Y-13764484D01*
X7879586Y-13764484D02*
X7879586Y-13631150D01*
X7879586Y-13650198D02*
X7889110Y-13640674D01*
X7889110Y-13640674D02*
X7908158Y-13631150D01*
X7908158Y-13631150D02*
X7936729Y-13631150D01*
X7936729Y-13631150D02*
X7955777Y-13640674D01*
X7955777Y-13640674D02*
X7965301Y-13659722D01*
X7965301Y-13659722D02*
X7965301Y-13764484D01*
X7965301Y-13659722D02*
X7974824Y-13640674D01*
X7974824Y-13640674D02*
X7993872Y-13631150D01*
X7993872Y-13631150D02*
X8022443Y-13631150D01*
X8022443Y-13631150D02*
X8041491Y-13640674D01*
X8041491Y-13640674D02*
X8051015Y-13659722D01*
X8051015Y-13659722D02*
X8051015Y-13764484D01*
X8441491Y-13554960D02*
X8270063Y-13812103D01*
X8698634Y-13564484D02*
X8717682Y-13564484D01*
X8717682Y-13564484D02*
X8736729Y-13574008D01*
X8736729Y-13574008D02*
X8746253Y-13583531D01*
X8746253Y-13583531D02*
X8755777Y-13602579D01*
X8755777Y-13602579D02*
X8765301Y-13640674D01*
X8765301Y-13640674D02*
X8765301Y-13688293D01*
X8765301Y-13688293D02*
X8755777Y-13726388D01*
X8755777Y-13726388D02*
X8746253Y-13745436D01*
X8746253Y-13745436D02*
X8736729Y-13754960D01*
X8736729Y-13754960D02*
X8717682Y-13764484D01*
X8717682Y-13764484D02*
X8698634Y-13764484D01*
X8698634Y-13764484D02*
X8679587Y-13754960D01*
X8679587Y-13754960D02*
X8670063Y-13745436D01*
X8670063Y-13745436D02*
X8660539Y-13726388D01*
X8660539Y-13726388D02*
X8651015Y-13688293D01*
X8651015Y-13688293D02*
X8651015Y-13640674D01*
X8651015Y-13640674D02*
X8660539Y-13602579D01*
X8660539Y-13602579D02*
X8670063Y-13583531D01*
X8670063Y-13583531D02*
X8679587Y-13574008D01*
X8679587Y-13574008D02*
X8698634Y-13564484D01*
X8851015Y-13745436D02*
X8860539Y-13754960D01*
X8860539Y-13754960D02*
X8851015Y-13764484D01*
X8851015Y-13764484D02*
X8841491Y-13754960D01*
X8841491Y-13754960D02*
X8851015Y-13745436D01*
X8851015Y-13745436D02*
X8851015Y-13764484D01*
X8984348Y-13564484D02*
X9003396Y-13564484D01*
X9003396Y-13564484D02*
X9022444Y-13574008D01*
X9022444Y-13574008D02*
X9031968Y-13583531D01*
X9031968Y-13583531D02*
X9041491Y-13602579D01*
X9041491Y-13602579D02*
X9051015Y-13640674D01*
X9051015Y-13640674D02*
X9051015Y-13688293D01*
X9051015Y-13688293D02*
X9041491Y-13726388D01*
X9041491Y-13726388D02*
X9031968Y-13745436D01*
X9031968Y-13745436D02*
X9022444Y-13754960D01*
X9022444Y-13754960D02*
X9003396Y-13764484D01*
X9003396Y-13764484D02*
X8984348Y-13764484D01*
X8984348Y-13764484D02*
X8965301Y-13754960D01*
X8965301Y-13754960D02*
X8955777Y-13745436D01*
X8955777Y-13745436D02*
X8946253Y-13726388D01*
X8946253Y-13726388D02*
X8936729Y-13688293D01*
X8936729Y-13688293D02*
X8936729Y-13640674D01*
X8936729Y-13640674D02*
X8946253Y-13602579D01*
X8946253Y-13602579D02*
X8955777Y-13583531D01*
X8955777Y-13583531D02*
X8965301Y-13574008D01*
X8965301Y-13574008D02*
X8984348Y-13564484D01*
X9117682Y-13564484D02*
X9241491Y-13564484D01*
X9241491Y-13564484D02*
X9174825Y-13640674D01*
X9174825Y-13640674D02*
X9203396Y-13640674D01*
X9203396Y-13640674D02*
X9222444Y-13650198D01*
X9222444Y-13650198D02*
X9231968Y-13659722D01*
X9231968Y-13659722D02*
X9241491Y-13678769D01*
X9241491Y-13678769D02*
X9241491Y-13726388D01*
X9241491Y-13726388D02*
X9231968Y-13745436D01*
X9231968Y-13745436D02*
X9222444Y-13754960D01*
X9222444Y-13754960D02*
X9203396Y-13764484D01*
X9203396Y-13764484D02*
X9146253Y-13764484D01*
X9146253Y-13764484D02*
X9127206Y-13754960D01*
X9127206Y-13754960D02*
X9117682Y-13745436D01*
X9336729Y-13764484D02*
X9374825Y-13764484D01*
X9374825Y-13764484D02*
X9393872Y-13754960D01*
X9393872Y-13754960D02*
X9403396Y-13745436D01*
X9403396Y-13745436D02*
X9422444Y-13716865D01*
X9422444Y-13716865D02*
X9431968Y-13678769D01*
X9431968Y-13678769D02*
X9431968Y-13602579D01*
X9431968Y-13602579D02*
X9422444Y-13583531D01*
X9422444Y-13583531D02*
X9412920Y-13574008D01*
X9412920Y-13574008D02*
X9393872Y-13564484D01*
X9393872Y-13564484D02*
X9355777Y-13564484D01*
X9355777Y-13564484D02*
X9336729Y-13574008D01*
X9336729Y-13574008D02*
X9327206Y-13583531D01*
X9327206Y-13583531D02*
X9317682Y-13602579D01*
X9317682Y-13602579D02*
X9317682Y-13650198D01*
X9317682Y-13650198D02*
X9327206Y-13669246D01*
X9327206Y-13669246D02*
X9336729Y-13678769D01*
X9336729Y-13678769D02*
X9355777Y-13688293D01*
X9355777Y-13688293D02*
X9393872Y-13688293D01*
X9393872Y-13688293D02*
X9412920Y-13678769D01*
X9412920Y-13678769D02*
X9422444Y-13669246D01*
X9422444Y-13669246D02*
X9431968Y-13650198D01*
X9603396Y-13631150D02*
X9603396Y-13764484D01*
X9555777Y-13554960D02*
X9508158Y-13697817D01*
X9508158Y-13697817D02*
X9631968Y-13697817D01*
X9698634Y-13564484D02*
X9698634Y-13602579D01*
X9774825Y-13564484D02*
X9774825Y-13602579D01*
X10070063Y-13840674D02*
X10060539Y-13831150D01*
X10060539Y-13831150D02*
X10041491Y-13802579D01*
X10041491Y-13802579D02*
X10031968Y-13783531D01*
X10031968Y-13783531D02*
X10022444Y-13754960D01*
X10022444Y-13754960D02*
X10012920Y-13707341D01*
X10012920Y-13707341D02*
X10012920Y-13669246D01*
X10012920Y-13669246D02*
X10022444Y-13621627D01*
X10022444Y-13621627D02*
X10031968Y-13593055D01*
X10031968Y-13593055D02*
X10041491Y-13574008D01*
X10041491Y-13574008D02*
X10060539Y-13545436D01*
X10060539Y-13545436D02*
X10070063Y-13535912D01*
X10231968Y-13631150D02*
X10231968Y-13764484D01*
X10184349Y-13554960D02*
X10136730Y-13697817D01*
X10136730Y-13697817D02*
X10260539Y-13697817D01*
X10327206Y-13583531D02*
X10336730Y-13574008D01*
X10336730Y-13574008D02*
X10355777Y-13564484D01*
X10355777Y-13564484D02*
X10403396Y-13564484D01*
X10403396Y-13564484D02*
X10422444Y-13574008D01*
X10422444Y-13574008D02*
X10431968Y-13583531D01*
X10431968Y-13583531D02*
X10441491Y-13602579D01*
X10441491Y-13602579D02*
X10441491Y-13621627D01*
X10441491Y-13621627D02*
X10431968Y-13650198D01*
X10431968Y-13650198D02*
X10317682Y-13764484D01*
X10317682Y-13764484D02*
X10441491Y-13764484D01*
X10679587Y-13764484D02*
X10679587Y-13564484D01*
X10765301Y-13764484D02*
X10765301Y-13659722D01*
X10765301Y-13659722D02*
X10755777Y-13640674D01*
X10755777Y-13640674D02*
X10736730Y-13631150D01*
X10736730Y-13631150D02*
X10708158Y-13631150D01*
X10708158Y-13631150D02*
X10689111Y-13640674D01*
X10689111Y-13640674D02*
X10679587Y-13650198D01*
X10889111Y-13764484D02*
X10870063Y-13754960D01*
X10870063Y-13754960D02*
X10860539Y-13745436D01*
X10860539Y-13745436D02*
X10851015Y-13726388D01*
X10851015Y-13726388D02*
X10851015Y-13669246D01*
X10851015Y-13669246D02*
X10860539Y-13650198D01*
X10860539Y-13650198D02*
X10870063Y-13640674D01*
X10870063Y-13640674D02*
X10889111Y-13631150D01*
X10889111Y-13631150D02*
X10917682Y-13631150D01*
X10917682Y-13631150D02*
X10936730Y-13640674D01*
X10936730Y-13640674D02*
X10946253Y-13650198D01*
X10946253Y-13650198D02*
X10955777Y-13669246D01*
X10955777Y-13669246D02*
X10955777Y-13726388D01*
X10955777Y-13726388D02*
X10946253Y-13745436D01*
X10946253Y-13745436D02*
X10936730Y-13754960D01*
X10936730Y-13754960D02*
X10917682Y-13764484D01*
X10917682Y-13764484D02*
X10889111Y-13764484D01*
X11070063Y-13764484D02*
X11051015Y-13754960D01*
X11051015Y-13754960D02*
X11041492Y-13735912D01*
X11041492Y-13735912D02*
X11041492Y-13564484D01*
X11222444Y-13754960D02*
X11203396Y-13764484D01*
X11203396Y-13764484D02*
X11165301Y-13764484D01*
X11165301Y-13764484D02*
X11146253Y-13754960D01*
X11146253Y-13754960D02*
X11136730Y-13735912D01*
X11136730Y-13735912D02*
X11136730Y-13659722D01*
X11136730Y-13659722D02*
X11146253Y-13640674D01*
X11146253Y-13640674D02*
X11165301Y-13631150D01*
X11165301Y-13631150D02*
X11203396Y-13631150D01*
X11203396Y-13631150D02*
X11222444Y-13640674D01*
X11222444Y-13640674D02*
X11231968Y-13659722D01*
X11231968Y-13659722D02*
X11231968Y-13678769D01*
X11231968Y-13678769D02*
X11136730Y-13697817D01*
X11308158Y-13754960D02*
X11327206Y-13764484D01*
X11327206Y-13764484D02*
X11365301Y-13764484D01*
X11365301Y-13764484D02*
X11384349Y-13754960D01*
X11384349Y-13754960D02*
X11393872Y-13735912D01*
X11393872Y-13735912D02*
X11393872Y-13726388D01*
X11393872Y-13726388D02*
X11384349Y-13707341D01*
X11384349Y-13707341D02*
X11365301Y-13697817D01*
X11365301Y-13697817D02*
X11336730Y-13697817D01*
X11336730Y-13697817D02*
X11317682Y-13688293D01*
X11317682Y-13688293D02*
X11308158Y-13669246D01*
X11308158Y-13669246D02*
X11308158Y-13659722D01*
X11308158Y-13659722D02*
X11317682Y-13640674D01*
X11317682Y-13640674D02*
X11336730Y-13631150D01*
X11336730Y-13631150D02*
X11365301Y-13631150D01*
X11365301Y-13631150D02*
X11384349Y-13640674D01*
X11460539Y-13840674D02*
X11470063Y-13831150D01*
X11470063Y-13831150D02*
X11489111Y-13802579D01*
X11489111Y-13802579D02*
X11498634Y-13783531D01*
X11498634Y-13783531D02*
X11508158Y-13754960D01*
X11508158Y-13754960D02*
X11517682Y-13707341D01*
X11517682Y-13707341D02*
X11517682Y-13669246D01*
X11517682Y-13669246D02*
X11508158Y-13621627D01*
X11508158Y-13621627D02*
X11498634Y-13593055D01*
X11498634Y-13593055D02*
X11489111Y-13574008D01*
X11489111Y-13574008D02*
X11470063Y-13545436D01*
X11470063Y-13545436D02*
X11460539Y-13535912D01*
D12*
X6477573Y-13979073D02*
X6477573Y-13894927D01*
X6393427Y-13894927D01*
X6393427Y-13979073D01*
X6477573Y-13979073D01*
D11*
X6860539Y-14028484D02*
X6746253Y-14028484D01*
X6803396Y-14028484D02*
X6803396Y-13828484D01*
X6803396Y-13828484D02*
X6784348Y-13857055D01*
X6784348Y-13857055D02*
X6765301Y-13876103D01*
X6765301Y-13876103D02*
X6746253Y-13885627D01*
X6946253Y-14009436D02*
X6955777Y-14018960D01*
X6955777Y-14018960D02*
X6946253Y-14028484D01*
X6946253Y-14028484D02*
X6936729Y-14018960D01*
X6936729Y-14018960D02*
X6946253Y-14009436D01*
X6946253Y-14009436D02*
X6946253Y-14028484D01*
X7146253Y-14028484D02*
X7031967Y-14028484D01*
X7089110Y-14028484D02*
X7089110Y-13828484D01*
X7089110Y-13828484D02*
X7070062Y-13857055D01*
X7070062Y-13857055D02*
X7051015Y-13876103D01*
X7051015Y-13876103D02*
X7031967Y-13885627D01*
X7241491Y-14028484D02*
X7279586Y-14028484D01*
X7279586Y-14028484D02*
X7298634Y-14018960D01*
X7298634Y-14018960D02*
X7308158Y-14009436D01*
X7308158Y-14009436D02*
X7327205Y-13980865D01*
X7327205Y-13980865D02*
X7336729Y-13942769D01*
X7336729Y-13942769D02*
X7336729Y-13866579D01*
X7336729Y-13866579D02*
X7327205Y-13847531D01*
X7327205Y-13847531D02*
X7317682Y-13838008D01*
X7317682Y-13838008D02*
X7298634Y-13828484D01*
X7298634Y-13828484D02*
X7260539Y-13828484D01*
X7260539Y-13828484D02*
X7241491Y-13838008D01*
X7241491Y-13838008D02*
X7231967Y-13847531D01*
X7231967Y-13847531D02*
X7222443Y-13866579D01*
X7222443Y-13866579D02*
X7222443Y-13914198D01*
X7222443Y-13914198D02*
X7231967Y-13933246D01*
X7231967Y-13933246D02*
X7241491Y-13942769D01*
X7241491Y-13942769D02*
X7260539Y-13952293D01*
X7260539Y-13952293D02*
X7298634Y-13952293D01*
X7298634Y-13952293D02*
X7317682Y-13942769D01*
X7317682Y-13942769D02*
X7327205Y-13933246D01*
X7327205Y-13933246D02*
X7336729Y-13914198D01*
X7460539Y-13828484D02*
X7479586Y-13828484D01*
X7479586Y-13828484D02*
X7498634Y-13838008D01*
X7498634Y-13838008D02*
X7508158Y-13847531D01*
X7508158Y-13847531D02*
X7517682Y-13866579D01*
X7517682Y-13866579D02*
X7527205Y-13904674D01*
X7527205Y-13904674D02*
X7527205Y-13952293D01*
X7527205Y-13952293D02*
X7517682Y-13990388D01*
X7517682Y-13990388D02*
X7508158Y-14009436D01*
X7508158Y-14009436D02*
X7498634Y-14018960D01*
X7498634Y-14018960D02*
X7479586Y-14028484D01*
X7479586Y-14028484D02*
X7460539Y-14028484D01*
X7460539Y-14028484D02*
X7441491Y-14018960D01*
X7441491Y-14018960D02*
X7431967Y-14009436D01*
X7431967Y-14009436D02*
X7422443Y-13990388D01*
X7422443Y-13990388D02*
X7412920Y-13952293D01*
X7412920Y-13952293D02*
X7412920Y-13904674D01*
X7412920Y-13904674D02*
X7422443Y-13866579D01*
X7422443Y-13866579D02*
X7431967Y-13847531D01*
X7431967Y-13847531D02*
X7441491Y-13838008D01*
X7441491Y-13838008D02*
X7460539Y-13828484D01*
X7612920Y-14028484D02*
X7612920Y-13895150D01*
X7612920Y-13914198D02*
X7622443Y-13904674D01*
X7622443Y-13904674D02*
X7641491Y-13895150D01*
X7641491Y-13895150D02*
X7670063Y-13895150D01*
X7670063Y-13895150D02*
X7689110Y-13904674D01*
X7689110Y-13904674D02*
X7698634Y-13923722D01*
X7698634Y-13923722D02*
X7698634Y-14028484D01*
X7698634Y-13923722D02*
X7708158Y-13904674D01*
X7708158Y-13904674D02*
X7727205Y-13895150D01*
X7727205Y-13895150D02*
X7755777Y-13895150D01*
X7755777Y-13895150D02*
X7774824Y-13904674D01*
X7774824Y-13904674D02*
X7784348Y-13923722D01*
X7784348Y-13923722D02*
X7784348Y-14028484D01*
X7879586Y-14028484D02*
X7879586Y-13895150D01*
X7879586Y-13914198D02*
X7889110Y-13904674D01*
X7889110Y-13904674D02*
X7908158Y-13895150D01*
X7908158Y-13895150D02*
X7936729Y-13895150D01*
X7936729Y-13895150D02*
X7955777Y-13904674D01*
X7955777Y-13904674D02*
X7965301Y-13923722D01*
X7965301Y-13923722D02*
X7965301Y-14028484D01*
X7965301Y-13923722D02*
X7974824Y-13904674D01*
X7974824Y-13904674D02*
X7993872Y-13895150D01*
X7993872Y-13895150D02*
X8022443Y-13895150D01*
X8022443Y-13895150D02*
X8041491Y-13904674D01*
X8041491Y-13904674D02*
X8051015Y-13923722D01*
X8051015Y-13923722D02*
X8051015Y-14028484D01*
X8441491Y-13818960D02*
X8270063Y-14076103D01*
X8698634Y-13828484D02*
X8717682Y-13828484D01*
X8717682Y-13828484D02*
X8736729Y-13838008D01*
X8736729Y-13838008D02*
X8746253Y-13847531D01*
X8746253Y-13847531D02*
X8755777Y-13866579D01*
X8755777Y-13866579D02*
X8765301Y-13904674D01*
X8765301Y-13904674D02*
X8765301Y-13952293D01*
X8765301Y-13952293D02*
X8755777Y-13990388D01*
X8755777Y-13990388D02*
X8746253Y-14009436D01*
X8746253Y-14009436D02*
X8736729Y-14018960D01*
X8736729Y-14018960D02*
X8717682Y-14028484D01*
X8717682Y-14028484D02*
X8698634Y-14028484D01*
X8698634Y-14028484D02*
X8679587Y-14018960D01*
X8679587Y-14018960D02*
X8670063Y-14009436D01*
X8670063Y-14009436D02*
X8660539Y-13990388D01*
X8660539Y-13990388D02*
X8651015Y-13952293D01*
X8651015Y-13952293D02*
X8651015Y-13904674D01*
X8651015Y-13904674D02*
X8660539Y-13866579D01*
X8660539Y-13866579D02*
X8670063Y-13847531D01*
X8670063Y-13847531D02*
X8679587Y-13838008D01*
X8679587Y-13838008D02*
X8698634Y-13828484D01*
X8851015Y-14009436D02*
X8860539Y-14018960D01*
X8860539Y-14018960D02*
X8851015Y-14028484D01*
X8851015Y-14028484D02*
X8841491Y-14018960D01*
X8841491Y-14018960D02*
X8851015Y-14009436D01*
X8851015Y-14009436D02*
X8851015Y-14028484D01*
X8984348Y-13828484D02*
X9003396Y-13828484D01*
X9003396Y-13828484D02*
X9022444Y-13838008D01*
X9022444Y-13838008D02*
X9031968Y-13847531D01*
X9031968Y-13847531D02*
X9041491Y-13866579D01*
X9041491Y-13866579D02*
X9051015Y-13904674D01*
X9051015Y-13904674D02*
X9051015Y-13952293D01*
X9051015Y-13952293D02*
X9041491Y-13990388D01*
X9041491Y-13990388D02*
X9031968Y-14009436D01*
X9031968Y-14009436D02*
X9022444Y-14018960D01*
X9022444Y-14018960D02*
X9003396Y-14028484D01*
X9003396Y-14028484D02*
X8984348Y-14028484D01*
X8984348Y-14028484D02*
X8965301Y-14018960D01*
X8965301Y-14018960D02*
X8955777Y-14009436D01*
X8955777Y-14009436D02*
X8946253Y-13990388D01*
X8946253Y-13990388D02*
X8936729Y-13952293D01*
X8936729Y-13952293D02*
X8936729Y-13904674D01*
X8936729Y-13904674D02*
X8946253Y-13866579D01*
X8946253Y-13866579D02*
X8955777Y-13847531D01*
X8955777Y-13847531D02*
X8965301Y-13838008D01*
X8965301Y-13838008D02*
X8984348Y-13828484D01*
X9222444Y-13895150D02*
X9222444Y-14028484D01*
X9174825Y-13818960D02*
X9127206Y-13961817D01*
X9127206Y-13961817D02*
X9251015Y-13961817D01*
X9412920Y-13828484D02*
X9374825Y-13828484D01*
X9374825Y-13828484D02*
X9355777Y-13838008D01*
X9355777Y-13838008D02*
X9346253Y-13847531D01*
X9346253Y-13847531D02*
X9327206Y-13876103D01*
X9327206Y-13876103D02*
X9317682Y-13914198D01*
X9317682Y-13914198D02*
X9317682Y-13990388D01*
X9317682Y-13990388D02*
X9327206Y-14009436D01*
X9327206Y-14009436D02*
X9336729Y-14018960D01*
X9336729Y-14018960D02*
X9355777Y-14028484D01*
X9355777Y-14028484D02*
X9393872Y-14028484D01*
X9393872Y-14028484D02*
X9412920Y-14018960D01*
X9412920Y-14018960D02*
X9422444Y-14009436D01*
X9422444Y-14009436D02*
X9431968Y-13990388D01*
X9431968Y-13990388D02*
X9431968Y-13942769D01*
X9431968Y-13942769D02*
X9422444Y-13923722D01*
X9422444Y-13923722D02*
X9412920Y-13914198D01*
X9412920Y-13914198D02*
X9393872Y-13904674D01*
X9393872Y-13904674D02*
X9355777Y-13904674D01*
X9355777Y-13904674D02*
X9336729Y-13914198D01*
X9336729Y-13914198D02*
X9327206Y-13923722D01*
X9327206Y-13923722D02*
X9317682Y-13942769D01*
X9527206Y-14028484D02*
X9565301Y-14028484D01*
X9565301Y-14028484D02*
X9584349Y-14018960D01*
X9584349Y-14018960D02*
X9593872Y-14009436D01*
X9593872Y-14009436D02*
X9612920Y-13980865D01*
X9612920Y-13980865D02*
X9622444Y-13942769D01*
X9622444Y-13942769D02*
X9622444Y-13866579D01*
X9622444Y-13866579D02*
X9612920Y-13847531D01*
X9612920Y-13847531D02*
X9603396Y-13838008D01*
X9603396Y-13838008D02*
X9584349Y-13828484D01*
X9584349Y-13828484D02*
X9546253Y-13828484D01*
X9546253Y-13828484D02*
X9527206Y-13838008D01*
X9527206Y-13838008D02*
X9517682Y-13847531D01*
X9517682Y-13847531D02*
X9508158Y-13866579D01*
X9508158Y-13866579D02*
X9508158Y-13914198D01*
X9508158Y-13914198D02*
X9517682Y-13933246D01*
X9517682Y-13933246D02*
X9527206Y-13942769D01*
X9527206Y-13942769D02*
X9546253Y-13952293D01*
X9546253Y-13952293D02*
X9584349Y-13952293D01*
X9584349Y-13952293D02*
X9603396Y-13942769D01*
X9603396Y-13942769D02*
X9612920Y-13933246D01*
X9612920Y-13933246D02*
X9622444Y-13914198D01*
X9698634Y-13828484D02*
X9698634Y-13866579D01*
X9774825Y-13828484D02*
X9774825Y-13866579D01*
X10070063Y-14104674D02*
X10060539Y-14095150D01*
X10060539Y-14095150D02*
X10041491Y-14066579D01*
X10041491Y-14066579D02*
X10031968Y-14047531D01*
X10031968Y-14047531D02*
X10022444Y-14018960D01*
X10022444Y-14018960D02*
X10012920Y-13971341D01*
X10012920Y-13971341D02*
X10012920Y-13933246D01*
X10012920Y-13933246D02*
X10022444Y-13885627D01*
X10022444Y-13885627D02*
X10031968Y-13857055D01*
X10031968Y-13857055D02*
X10041491Y-13838008D01*
X10041491Y-13838008D02*
X10060539Y-13809436D01*
X10060539Y-13809436D02*
X10070063Y-13799912D01*
X10251015Y-14028484D02*
X10136730Y-14028484D01*
X10193872Y-14028484D02*
X10193872Y-13828484D01*
X10193872Y-13828484D02*
X10174825Y-13857055D01*
X10174825Y-13857055D02*
X10155777Y-13876103D01*
X10155777Y-13876103D02*
X10136730Y-13885627D01*
X10431968Y-13828484D02*
X10336730Y-13828484D01*
X10336730Y-13828484D02*
X10327206Y-13923722D01*
X10327206Y-13923722D02*
X10336730Y-13914198D01*
X10336730Y-13914198D02*
X10355777Y-13904674D01*
X10355777Y-13904674D02*
X10403396Y-13904674D01*
X10403396Y-13904674D02*
X10422444Y-13914198D01*
X10422444Y-13914198D02*
X10431968Y-13923722D01*
X10431968Y-13923722D02*
X10441491Y-13942769D01*
X10441491Y-13942769D02*
X10441491Y-13990388D01*
X10441491Y-13990388D02*
X10431968Y-14009436D01*
X10431968Y-14009436D02*
X10422444Y-14018960D01*
X10422444Y-14018960D02*
X10403396Y-14028484D01*
X10403396Y-14028484D02*
X10355777Y-14028484D01*
X10355777Y-14028484D02*
X10336730Y-14018960D01*
X10336730Y-14018960D02*
X10327206Y-14009436D01*
X10679587Y-14028484D02*
X10679587Y-13828484D01*
X10765301Y-14028484D02*
X10765301Y-13923722D01*
X10765301Y-13923722D02*
X10755777Y-13904674D01*
X10755777Y-13904674D02*
X10736730Y-13895150D01*
X10736730Y-13895150D02*
X10708158Y-13895150D01*
X10708158Y-13895150D02*
X10689111Y-13904674D01*
X10689111Y-13904674D02*
X10679587Y-13914198D01*
X10889111Y-14028484D02*
X10870063Y-14018960D01*
X10870063Y-14018960D02*
X10860539Y-14009436D01*
X10860539Y-14009436D02*
X10851015Y-13990388D01*
X10851015Y-13990388D02*
X10851015Y-13933246D01*
X10851015Y-13933246D02*
X10860539Y-13914198D01*
X10860539Y-13914198D02*
X10870063Y-13904674D01*
X10870063Y-13904674D02*
X10889111Y-13895150D01*
X10889111Y-13895150D02*
X10917682Y-13895150D01*
X10917682Y-13895150D02*
X10936730Y-13904674D01*
X10936730Y-13904674D02*
X10946253Y-13914198D01*
X10946253Y-13914198D02*
X10955777Y-13933246D01*
X10955777Y-13933246D02*
X10955777Y-13990388D01*
X10955777Y-13990388D02*
X10946253Y-14009436D01*
X10946253Y-14009436D02*
X10936730Y-14018960D01*
X10936730Y-14018960D02*
X10917682Y-14028484D01*
X10917682Y-14028484D02*
X10889111Y-14028484D01*
X11070063Y-14028484D02*
X11051015Y-14018960D01*
X11051015Y-14018960D02*
X11041492Y-13999912D01*
X11041492Y-13999912D02*
X11041492Y-13828484D01*
X11222444Y-14018960D02*
X11203396Y-14028484D01*
X11203396Y-14028484D02*
X11165301Y-14028484D01*
X11165301Y-14028484D02*
X11146253Y-14018960D01*
X11146253Y-14018960D02*
X11136730Y-13999912D01*
X11136730Y-13999912D02*
X11136730Y-13923722D01*
X11136730Y-13923722D02*
X11146253Y-13904674D01*
X11146253Y-13904674D02*
X11165301Y-13895150D01*
X11165301Y-13895150D02*
X11203396Y-13895150D01*
X11203396Y-13895150D02*
X11222444Y-13904674D01*
X11222444Y-13904674D02*
X11231968Y-13923722D01*
X11231968Y-13923722D02*
X11231968Y-13942769D01*
X11231968Y-13942769D02*
X11136730Y-13961817D01*
X11308158Y-14018960D02*
X11327206Y-14028484D01*
X11327206Y-14028484D02*
X11365301Y-14028484D01*
X11365301Y-14028484D02*
X11384349Y-14018960D01*
X11384349Y-14018960D02*
X11393872Y-13999912D01*
X11393872Y-13999912D02*
X11393872Y-13990388D01*
X11393872Y-13990388D02*
X11384349Y-13971341D01*
X11384349Y-13971341D02*
X11365301Y-13961817D01*
X11365301Y-13961817D02*
X11336730Y-13961817D01*
X11336730Y-13961817D02*
X11317682Y-13952293D01*
X11317682Y-13952293D02*
X11308158Y-13933246D01*
X11308158Y-13933246D02*
X11308158Y-13923722D01*
X11308158Y-13923722D02*
X11317682Y-13904674D01*
X11317682Y-13904674D02*
X11336730Y-13895150D01*
X11336730Y-13895150D02*
X11365301Y-13895150D01*
X11365301Y-13895150D02*
X11384349Y-13904674D01*
X11460539Y-14104674D02*
X11470063Y-14095150D01*
X11470063Y-14095150D02*
X11489111Y-14066579D01*
X11489111Y-14066579D02*
X11498634Y-14047531D01*
X11498634Y-14047531D02*
X11508158Y-14018960D01*
X11508158Y-14018960D02*
X11517682Y-13971341D01*
X11517682Y-13971341D02*
X11517682Y-13933246D01*
X11517682Y-13933246D02*
X11508158Y-13885627D01*
X11508158Y-13885627D02*
X11498634Y-13857055D01*
X11498634Y-13857055D02*
X11489111Y-13838008D01*
X11489111Y-13838008D02*
X11470063Y-13809436D01*
X11470063Y-13809436D02*
X11460539Y-13799912D01*
D13*
X6420000Y-14276000D02*
X6495000Y-14201000D01*
X6420000Y-14126000D01*
X6345000Y-14201000D01*
X6420000Y-14276000D01*
D11*
X6860539Y-14292484D02*
X6746253Y-14292484D01*
X6803396Y-14292484D02*
X6803396Y-14092484D01*
X6803396Y-14092484D02*
X6784348Y-14121055D01*
X6784348Y-14121055D02*
X6765301Y-14140103D01*
X6765301Y-14140103D02*
X6746253Y-14149627D01*
X6946253Y-14273436D02*
X6955777Y-14282960D01*
X6955777Y-14282960D02*
X6946253Y-14292484D01*
X6946253Y-14292484D02*
X6936729Y-14282960D01*
X6936729Y-14282960D02*
X6946253Y-14273436D01*
X6946253Y-14273436D02*
X6946253Y-14292484D01*
X7136729Y-14092484D02*
X7041491Y-14092484D01*
X7041491Y-14092484D02*
X7031967Y-14187722D01*
X7031967Y-14187722D02*
X7041491Y-14178198D01*
X7041491Y-14178198D02*
X7060539Y-14168674D01*
X7060539Y-14168674D02*
X7108158Y-14168674D01*
X7108158Y-14168674D02*
X7127205Y-14178198D01*
X7127205Y-14178198D02*
X7136729Y-14187722D01*
X7136729Y-14187722D02*
X7146253Y-14206769D01*
X7146253Y-14206769D02*
X7146253Y-14254388D01*
X7146253Y-14254388D02*
X7136729Y-14273436D01*
X7136729Y-14273436D02*
X7127205Y-14282960D01*
X7127205Y-14282960D02*
X7108158Y-14292484D01*
X7108158Y-14292484D02*
X7060539Y-14292484D01*
X7060539Y-14292484D02*
X7041491Y-14282960D01*
X7041491Y-14282960D02*
X7031967Y-14273436D01*
X7270062Y-14092484D02*
X7289110Y-14092484D01*
X7289110Y-14092484D02*
X7308158Y-14102008D01*
X7308158Y-14102008D02*
X7317682Y-14111531D01*
X7317682Y-14111531D02*
X7327205Y-14130579D01*
X7327205Y-14130579D02*
X7336729Y-14168674D01*
X7336729Y-14168674D02*
X7336729Y-14216293D01*
X7336729Y-14216293D02*
X7327205Y-14254388D01*
X7327205Y-14254388D02*
X7317682Y-14273436D01*
X7317682Y-14273436D02*
X7308158Y-14282960D01*
X7308158Y-14282960D02*
X7289110Y-14292484D01*
X7289110Y-14292484D02*
X7270062Y-14292484D01*
X7270062Y-14292484D02*
X7251015Y-14282960D01*
X7251015Y-14282960D02*
X7241491Y-14273436D01*
X7241491Y-14273436D02*
X7231967Y-14254388D01*
X7231967Y-14254388D02*
X7222443Y-14216293D01*
X7222443Y-14216293D02*
X7222443Y-14168674D01*
X7222443Y-14168674D02*
X7231967Y-14130579D01*
X7231967Y-14130579D02*
X7241491Y-14111531D01*
X7241491Y-14111531D02*
X7251015Y-14102008D01*
X7251015Y-14102008D02*
X7270062Y-14092484D01*
X7460539Y-14092484D02*
X7479586Y-14092484D01*
X7479586Y-14092484D02*
X7498634Y-14102008D01*
X7498634Y-14102008D02*
X7508158Y-14111531D01*
X7508158Y-14111531D02*
X7517682Y-14130579D01*
X7517682Y-14130579D02*
X7527205Y-14168674D01*
X7527205Y-14168674D02*
X7527205Y-14216293D01*
X7527205Y-14216293D02*
X7517682Y-14254388D01*
X7517682Y-14254388D02*
X7508158Y-14273436D01*
X7508158Y-14273436D02*
X7498634Y-14282960D01*
X7498634Y-14282960D02*
X7479586Y-14292484D01*
X7479586Y-14292484D02*
X7460539Y-14292484D01*
X7460539Y-14292484D02*
X7441491Y-14282960D01*
X7441491Y-14282960D02*
X7431967Y-14273436D01*
X7431967Y-14273436D02*
X7422443Y-14254388D01*
X7422443Y-14254388D02*
X7412920Y-14216293D01*
X7412920Y-14216293D02*
X7412920Y-14168674D01*
X7412920Y-14168674D02*
X7422443Y-14130579D01*
X7422443Y-14130579D02*
X7431967Y-14111531D01*
X7431967Y-14111531D02*
X7441491Y-14102008D01*
X7441491Y-14102008D02*
X7460539Y-14092484D01*
X7612920Y-14292484D02*
X7612920Y-14159150D01*
X7612920Y-14178198D02*
X7622443Y-14168674D01*
X7622443Y-14168674D02*
X7641491Y-14159150D01*
X7641491Y-14159150D02*
X7670063Y-14159150D01*
X7670063Y-14159150D02*
X7689110Y-14168674D01*
X7689110Y-14168674D02*
X7698634Y-14187722D01*
X7698634Y-14187722D02*
X7698634Y-14292484D01*
X7698634Y-14187722D02*
X7708158Y-14168674D01*
X7708158Y-14168674D02*
X7727205Y-14159150D01*
X7727205Y-14159150D02*
X7755777Y-14159150D01*
X7755777Y-14159150D02*
X7774824Y-14168674D01*
X7774824Y-14168674D02*
X7784348Y-14187722D01*
X7784348Y-14187722D02*
X7784348Y-14292484D01*
X7879586Y-14292484D02*
X7879586Y-14159150D01*
X7879586Y-14178198D02*
X7889110Y-14168674D01*
X7889110Y-14168674D02*
X7908158Y-14159150D01*
X7908158Y-14159150D02*
X7936729Y-14159150D01*
X7936729Y-14159150D02*
X7955777Y-14168674D01*
X7955777Y-14168674D02*
X7965301Y-14187722D01*
X7965301Y-14187722D02*
X7965301Y-14292484D01*
X7965301Y-14187722D02*
X7974824Y-14168674D01*
X7974824Y-14168674D02*
X7993872Y-14159150D01*
X7993872Y-14159150D02*
X8022443Y-14159150D01*
X8022443Y-14159150D02*
X8041491Y-14168674D01*
X8041491Y-14168674D02*
X8051015Y-14187722D01*
X8051015Y-14187722D02*
X8051015Y-14292484D01*
X8441491Y-14082960D02*
X8270063Y-14340103D01*
X8698634Y-14092484D02*
X8717682Y-14092484D01*
X8717682Y-14092484D02*
X8736729Y-14102008D01*
X8736729Y-14102008D02*
X8746253Y-14111531D01*
X8746253Y-14111531D02*
X8755777Y-14130579D01*
X8755777Y-14130579D02*
X8765301Y-14168674D01*
X8765301Y-14168674D02*
X8765301Y-14216293D01*
X8765301Y-14216293D02*
X8755777Y-14254388D01*
X8755777Y-14254388D02*
X8746253Y-14273436D01*
X8746253Y-14273436D02*
X8736729Y-14282960D01*
X8736729Y-14282960D02*
X8717682Y-14292484D01*
X8717682Y-14292484D02*
X8698634Y-14292484D01*
X8698634Y-14292484D02*
X8679587Y-14282960D01*
X8679587Y-14282960D02*
X8670063Y-14273436D01*
X8670063Y-14273436D02*
X8660539Y-14254388D01*
X8660539Y-14254388D02*
X8651015Y-14216293D01*
X8651015Y-14216293D02*
X8651015Y-14168674D01*
X8651015Y-14168674D02*
X8660539Y-14130579D01*
X8660539Y-14130579D02*
X8670063Y-14111531D01*
X8670063Y-14111531D02*
X8679587Y-14102008D01*
X8679587Y-14102008D02*
X8698634Y-14092484D01*
X8851015Y-14273436D02*
X8860539Y-14282960D01*
X8860539Y-14282960D02*
X8851015Y-14292484D01*
X8851015Y-14292484D02*
X8841491Y-14282960D01*
X8841491Y-14282960D02*
X8851015Y-14273436D01*
X8851015Y-14273436D02*
X8851015Y-14292484D01*
X8984348Y-14092484D02*
X9003396Y-14092484D01*
X9003396Y-14092484D02*
X9022444Y-14102008D01*
X9022444Y-14102008D02*
X9031968Y-14111531D01*
X9031968Y-14111531D02*
X9041491Y-14130579D01*
X9041491Y-14130579D02*
X9051015Y-14168674D01*
X9051015Y-14168674D02*
X9051015Y-14216293D01*
X9051015Y-14216293D02*
X9041491Y-14254388D01*
X9041491Y-14254388D02*
X9031968Y-14273436D01*
X9031968Y-14273436D02*
X9022444Y-14282960D01*
X9022444Y-14282960D02*
X9003396Y-14292484D01*
X9003396Y-14292484D02*
X8984348Y-14292484D01*
X8984348Y-14292484D02*
X8965301Y-14282960D01*
X8965301Y-14282960D02*
X8955777Y-14273436D01*
X8955777Y-14273436D02*
X8946253Y-14254388D01*
X8946253Y-14254388D02*
X8936729Y-14216293D01*
X8936729Y-14216293D02*
X8936729Y-14168674D01*
X8936729Y-14168674D02*
X8946253Y-14130579D01*
X8946253Y-14130579D02*
X8955777Y-14111531D01*
X8955777Y-14111531D02*
X8965301Y-14102008D01*
X8965301Y-14102008D02*
X8984348Y-14092484D01*
X9231968Y-14092484D02*
X9136729Y-14092484D01*
X9136729Y-14092484D02*
X9127206Y-14187722D01*
X9127206Y-14187722D02*
X9136729Y-14178198D01*
X9136729Y-14178198D02*
X9155777Y-14168674D01*
X9155777Y-14168674D02*
X9203396Y-14168674D01*
X9203396Y-14168674D02*
X9222444Y-14178198D01*
X9222444Y-14178198D02*
X9231968Y-14187722D01*
X9231968Y-14187722D02*
X9241491Y-14206769D01*
X9241491Y-14206769D02*
X9241491Y-14254388D01*
X9241491Y-14254388D02*
X9231968Y-14273436D01*
X9231968Y-14273436D02*
X9222444Y-14282960D01*
X9222444Y-14282960D02*
X9203396Y-14292484D01*
X9203396Y-14292484D02*
X9155777Y-14292484D01*
X9155777Y-14292484D02*
X9136729Y-14282960D01*
X9136729Y-14282960D02*
X9127206Y-14273436D01*
X9336729Y-14292484D02*
X9374825Y-14292484D01*
X9374825Y-14292484D02*
X9393872Y-14282960D01*
X9393872Y-14282960D02*
X9403396Y-14273436D01*
X9403396Y-14273436D02*
X9422444Y-14244865D01*
X9422444Y-14244865D02*
X9431968Y-14206769D01*
X9431968Y-14206769D02*
X9431968Y-14130579D01*
X9431968Y-14130579D02*
X9422444Y-14111531D01*
X9422444Y-14111531D02*
X9412920Y-14102008D01*
X9412920Y-14102008D02*
X9393872Y-14092484D01*
X9393872Y-14092484D02*
X9355777Y-14092484D01*
X9355777Y-14092484D02*
X9336729Y-14102008D01*
X9336729Y-14102008D02*
X9327206Y-14111531D01*
X9327206Y-14111531D02*
X9317682Y-14130579D01*
X9317682Y-14130579D02*
X9317682Y-14178198D01*
X9317682Y-14178198D02*
X9327206Y-14197246D01*
X9327206Y-14197246D02*
X9336729Y-14206769D01*
X9336729Y-14206769D02*
X9355777Y-14216293D01*
X9355777Y-14216293D02*
X9393872Y-14216293D01*
X9393872Y-14216293D02*
X9412920Y-14206769D01*
X9412920Y-14206769D02*
X9422444Y-14197246D01*
X9422444Y-14197246D02*
X9431968Y-14178198D01*
X9622444Y-14292484D02*
X9508158Y-14292484D01*
X9565301Y-14292484D02*
X9565301Y-14092484D01*
X9565301Y-14092484D02*
X9546253Y-14121055D01*
X9546253Y-14121055D02*
X9527206Y-14140103D01*
X9527206Y-14140103D02*
X9508158Y-14149627D01*
X9698634Y-14092484D02*
X9698634Y-14130579D01*
X9774825Y-14092484D02*
X9774825Y-14130579D01*
X10070063Y-14368674D02*
X10060539Y-14359150D01*
X10060539Y-14359150D02*
X10041491Y-14330579D01*
X10041491Y-14330579D02*
X10031968Y-14311531D01*
X10031968Y-14311531D02*
X10022444Y-14282960D01*
X10022444Y-14282960D02*
X10012920Y-14235341D01*
X10012920Y-14235341D02*
X10012920Y-14197246D01*
X10012920Y-14197246D02*
X10022444Y-14149627D01*
X10022444Y-14149627D02*
X10031968Y-14121055D01*
X10031968Y-14121055D02*
X10041491Y-14102008D01*
X10041491Y-14102008D02*
X10060539Y-14073436D01*
X10060539Y-14073436D02*
X10070063Y-14063912D01*
X10184349Y-14092484D02*
X10203396Y-14092484D01*
X10203396Y-14092484D02*
X10222444Y-14102008D01*
X10222444Y-14102008D02*
X10231968Y-14111531D01*
X10231968Y-14111531D02*
X10241491Y-14130579D01*
X10241491Y-14130579D02*
X10251015Y-14168674D01*
X10251015Y-14168674D02*
X10251015Y-14216293D01*
X10251015Y-14216293D02*
X10241491Y-14254388D01*
X10241491Y-14254388D02*
X10231968Y-14273436D01*
X10231968Y-14273436D02*
X10222444Y-14282960D01*
X10222444Y-14282960D02*
X10203396Y-14292484D01*
X10203396Y-14292484D02*
X10184349Y-14292484D01*
X10184349Y-14292484D02*
X10165301Y-14282960D01*
X10165301Y-14282960D02*
X10155777Y-14273436D01*
X10155777Y-14273436D02*
X10146253Y-14254388D01*
X10146253Y-14254388D02*
X10136730Y-14216293D01*
X10136730Y-14216293D02*
X10136730Y-14168674D01*
X10136730Y-14168674D02*
X10146253Y-14130579D01*
X10146253Y-14130579D02*
X10155777Y-14111531D01*
X10155777Y-14111531D02*
X10165301Y-14102008D01*
X10165301Y-14102008D02*
X10184349Y-14092484D01*
X10489111Y-14292484D02*
X10489111Y-14092484D01*
X10574825Y-14292484D02*
X10574825Y-14187722D01*
X10574825Y-14187722D02*
X10565301Y-14168674D01*
X10565301Y-14168674D02*
X10546253Y-14159150D01*
X10546253Y-14159150D02*
X10517682Y-14159150D01*
X10517682Y-14159150D02*
X10498634Y-14168674D01*
X10498634Y-14168674D02*
X10489111Y-14178198D01*
X10698634Y-14292484D02*
X10679587Y-14282960D01*
X10679587Y-14282960D02*
X10670063Y-14273436D01*
X10670063Y-14273436D02*
X10660539Y-14254388D01*
X10660539Y-14254388D02*
X10660539Y-14197246D01*
X10660539Y-14197246D02*
X10670063Y-14178198D01*
X10670063Y-14178198D02*
X10679587Y-14168674D01*
X10679587Y-14168674D02*
X10698634Y-14159150D01*
X10698634Y-14159150D02*
X10727206Y-14159150D01*
X10727206Y-14159150D02*
X10746253Y-14168674D01*
X10746253Y-14168674D02*
X10755777Y-14178198D01*
X10755777Y-14178198D02*
X10765301Y-14197246D01*
X10765301Y-14197246D02*
X10765301Y-14254388D01*
X10765301Y-14254388D02*
X10755777Y-14273436D01*
X10755777Y-14273436D02*
X10746253Y-14282960D01*
X10746253Y-14282960D02*
X10727206Y-14292484D01*
X10727206Y-14292484D02*
X10698634Y-14292484D01*
X10879587Y-14292484D02*
X10860539Y-14282960D01*
X10860539Y-14282960D02*
X10851015Y-14263912D01*
X10851015Y-14263912D02*
X10851015Y-14092484D01*
X11031968Y-14282960D02*
X11012920Y-14292484D01*
X11012920Y-14292484D02*
X10974825Y-14292484D01*
X10974825Y-14292484D02*
X10955777Y-14282960D01*
X10955777Y-14282960D02*
X10946253Y-14263912D01*
X10946253Y-14263912D02*
X10946253Y-14187722D01*
X10946253Y-14187722D02*
X10955777Y-14168674D01*
X10955777Y-14168674D02*
X10974825Y-14159150D01*
X10974825Y-14159150D02*
X11012920Y-14159150D01*
X11012920Y-14159150D02*
X11031968Y-14168674D01*
X11031968Y-14168674D02*
X11041492Y-14187722D01*
X11041492Y-14187722D02*
X11041492Y-14206769D01*
X11041492Y-14206769D02*
X10946253Y-14225817D01*
X11117682Y-14282960D02*
X11136730Y-14292484D01*
X11136730Y-14292484D02*
X11174825Y-14292484D01*
X11174825Y-14292484D02*
X11193872Y-14282960D01*
X11193872Y-14282960D02*
X11203396Y-14263912D01*
X11203396Y-14263912D02*
X11203396Y-14254388D01*
X11203396Y-14254388D02*
X11193872Y-14235341D01*
X11193872Y-14235341D02*
X11174825Y-14225817D01*
X11174825Y-14225817D02*
X11146253Y-14225817D01*
X11146253Y-14225817D02*
X11127206Y-14216293D01*
X11127206Y-14216293D02*
X11117682Y-14197246D01*
X11117682Y-14197246D02*
X11117682Y-14187722D01*
X11117682Y-14187722D02*
X11127206Y-14168674D01*
X11127206Y-14168674D02*
X11146253Y-14159150D01*
X11146253Y-14159150D02*
X11174825Y-14159150D01*
X11174825Y-14159150D02*
X11193872Y-14168674D01*
X11441492Y-14216293D02*
X11593873Y-14216293D01*
X11517682Y-14292484D02*
X11517682Y-14140103D01*
X11831968Y-14111531D02*
X11841492Y-14102008D01*
X11841492Y-14102008D02*
X11860539Y-14092484D01*
X11860539Y-14092484D02*
X11908158Y-14092484D01*
X11908158Y-14092484D02*
X11927206Y-14102008D01*
X11927206Y-14102008D02*
X11936730Y-14111531D01*
X11936730Y-14111531D02*
X11946253Y-14130579D01*
X11946253Y-14130579D02*
X11946253Y-14149627D01*
X11946253Y-14149627D02*
X11936730Y-14178198D01*
X11936730Y-14178198D02*
X11822444Y-14292484D01*
X11822444Y-14292484D02*
X11946253Y-14292484D01*
X12174825Y-14282960D02*
X12193873Y-14292484D01*
X12193873Y-14292484D02*
X12231968Y-14292484D01*
X12231968Y-14292484D02*
X12251015Y-14282960D01*
X12251015Y-14282960D02*
X12260539Y-14263912D01*
X12260539Y-14263912D02*
X12260539Y-14254388D01*
X12260539Y-14254388D02*
X12251015Y-14235341D01*
X12251015Y-14235341D02*
X12231968Y-14225817D01*
X12231968Y-14225817D02*
X12203396Y-14225817D01*
X12203396Y-14225817D02*
X12184349Y-14216293D01*
X12184349Y-14216293D02*
X12174825Y-14197246D01*
X12174825Y-14197246D02*
X12174825Y-14187722D01*
X12174825Y-14187722D02*
X12184349Y-14168674D01*
X12184349Y-14168674D02*
X12203396Y-14159150D01*
X12203396Y-14159150D02*
X12231968Y-14159150D01*
X12231968Y-14159150D02*
X12251015Y-14168674D01*
X12374825Y-14292484D02*
X12355777Y-14282960D01*
X12355777Y-14282960D02*
X12346254Y-14263912D01*
X12346254Y-14263912D02*
X12346254Y-14092484D01*
X12479587Y-14292484D02*
X12460539Y-14282960D01*
X12460539Y-14282960D02*
X12451015Y-14273436D01*
X12451015Y-14273436D02*
X12441492Y-14254388D01*
X12441492Y-14254388D02*
X12441492Y-14197246D01*
X12441492Y-14197246D02*
X12451015Y-14178198D01*
X12451015Y-14178198D02*
X12460539Y-14168674D01*
X12460539Y-14168674D02*
X12479587Y-14159150D01*
X12479587Y-14159150D02*
X12508158Y-14159150D01*
X12508158Y-14159150D02*
X12527206Y-14168674D01*
X12527206Y-14168674D02*
X12536730Y-14178198D01*
X12536730Y-14178198D02*
X12546254Y-14197246D01*
X12546254Y-14197246D02*
X12546254Y-14254388D01*
X12546254Y-14254388D02*
X12536730Y-14273436D01*
X12536730Y-14273436D02*
X12527206Y-14282960D01*
X12527206Y-14282960D02*
X12508158Y-14292484D01*
X12508158Y-14292484D02*
X12479587Y-14292484D01*
X12603396Y-14159150D02*
X12679587Y-14159150D01*
X12631968Y-14092484D02*
X12631968Y-14263912D01*
X12631968Y-14263912D02*
X12641492Y-14282960D01*
X12641492Y-14282960D02*
X12660539Y-14292484D01*
X12660539Y-14292484D02*
X12679587Y-14292484D01*
X12736730Y-14282960D02*
X12755777Y-14292484D01*
X12755777Y-14292484D02*
X12793873Y-14292484D01*
X12793873Y-14292484D02*
X12812920Y-14282960D01*
X12812920Y-14282960D02*
X12822444Y-14263912D01*
X12822444Y-14263912D02*
X12822444Y-14254388D01*
X12822444Y-14254388D02*
X12812920Y-14235341D01*
X12812920Y-14235341D02*
X12793873Y-14225817D01*
X12793873Y-14225817D02*
X12765301Y-14225817D01*
X12765301Y-14225817D02*
X12746254Y-14216293D01*
X12746254Y-14216293D02*
X12736730Y-14197246D01*
X12736730Y-14197246D02*
X12736730Y-14187722D01*
X12736730Y-14187722D02*
X12746254Y-14168674D01*
X12746254Y-14168674D02*
X12765301Y-14159150D01*
X12765301Y-14159150D02*
X12793873Y-14159150D01*
X12793873Y-14159150D02*
X12812920Y-14168674D01*
X12889111Y-14368674D02*
X12898635Y-14359150D01*
X12898635Y-14359150D02*
X12917682Y-14330579D01*
X12917682Y-14330579D02*
X12927206Y-14311531D01*
X12927206Y-14311531D02*
X12936730Y-14282960D01*
X12936730Y-14282960D02*
X12946254Y-14235341D01*
X12946254Y-14235341D02*
X12946254Y-14197246D01*
X12946254Y-14197246D02*
X12936730Y-14149627D01*
X12936730Y-14149627D02*
X12927206Y-14121055D01*
X12927206Y-14121055D02*
X12917682Y-14102008D01*
X12917682Y-14102008D02*
X12898635Y-14073436D01*
X12898635Y-14073436D02*
X12889111Y-14063912D01*
X6295000Y-14371000D02*
X6495000Y-14571000D01*
X6495000Y-14371000D02*
X6295000Y-14571000D01*
X6495000Y-14471000D02*
G75*
G02*
X6295000Y-14471000I-100000J0D01*
G01*
X6295000Y-14471000D02*
G75*
G02*
X6495000Y-14471000I100000J0D01*
G01*
X6736729Y-14362484D02*
X6860539Y-14362484D01*
X6860539Y-14362484D02*
X6793872Y-14438674D01*
X6793872Y-14438674D02*
X6822443Y-14438674D01*
X6822443Y-14438674D02*
X6841491Y-14448198D01*
X6841491Y-14448198D02*
X6851015Y-14457722D01*
X6851015Y-14457722D02*
X6860539Y-14476769D01*
X6860539Y-14476769D02*
X6860539Y-14524388D01*
X6860539Y-14524388D02*
X6851015Y-14543436D01*
X6851015Y-14543436D02*
X6841491Y-14552960D01*
X6841491Y-14552960D02*
X6822443Y-14562484D01*
X6822443Y-14562484D02*
X6765301Y-14562484D01*
X6765301Y-14562484D02*
X6746253Y-14552960D01*
X6746253Y-14552960D02*
X6736729Y-14543436D01*
X6946253Y-14543436D02*
X6955777Y-14552960D01*
X6955777Y-14552960D02*
X6946253Y-14562484D01*
X6946253Y-14562484D02*
X6936729Y-14552960D01*
X6936729Y-14552960D02*
X6946253Y-14543436D01*
X6946253Y-14543436D02*
X6946253Y-14562484D01*
X7031967Y-14381531D02*
X7041491Y-14372008D01*
X7041491Y-14372008D02*
X7060539Y-14362484D01*
X7060539Y-14362484D02*
X7108158Y-14362484D01*
X7108158Y-14362484D02*
X7127205Y-14372008D01*
X7127205Y-14372008D02*
X7136729Y-14381531D01*
X7136729Y-14381531D02*
X7146253Y-14400579D01*
X7146253Y-14400579D02*
X7146253Y-14419627D01*
X7146253Y-14419627D02*
X7136729Y-14448198D01*
X7136729Y-14448198D02*
X7022443Y-14562484D01*
X7022443Y-14562484D02*
X7146253Y-14562484D01*
X7270062Y-14362484D02*
X7289110Y-14362484D01*
X7289110Y-14362484D02*
X7308158Y-14372008D01*
X7308158Y-14372008D02*
X7317682Y-14381531D01*
X7317682Y-14381531D02*
X7327205Y-14400579D01*
X7327205Y-14400579D02*
X7336729Y-14438674D01*
X7336729Y-14438674D02*
X7336729Y-14486293D01*
X7336729Y-14486293D02*
X7327205Y-14524388D01*
X7327205Y-14524388D02*
X7317682Y-14543436D01*
X7317682Y-14543436D02*
X7308158Y-14552960D01*
X7308158Y-14552960D02*
X7289110Y-14562484D01*
X7289110Y-14562484D02*
X7270062Y-14562484D01*
X7270062Y-14562484D02*
X7251015Y-14552960D01*
X7251015Y-14552960D02*
X7241491Y-14543436D01*
X7241491Y-14543436D02*
X7231967Y-14524388D01*
X7231967Y-14524388D02*
X7222443Y-14486293D01*
X7222443Y-14486293D02*
X7222443Y-14438674D01*
X7222443Y-14438674D02*
X7231967Y-14400579D01*
X7231967Y-14400579D02*
X7241491Y-14381531D01*
X7241491Y-14381531D02*
X7251015Y-14372008D01*
X7251015Y-14372008D02*
X7270062Y-14362484D01*
X7460539Y-14362484D02*
X7479586Y-14362484D01*
X7479586Y-14362484D02*
X7498634Y-14372008D01*
X7498634Y-14372008D02*
X7508158Y-14381531D01*
X7508158Y-14381531D02*
X7517682Y-14400579D01*
X7517682Y-14400579D02*
X7527205Y-14438674D01*
X7527205Y-14438674D02*
X7527205Y-14486293D01*
X7527205Y-14486293D02*
X7517682Y-14524388D01*
X7517682Y-14524388D02*
X7508158Y-14543436D01*
X7508158Y-14543436D02*
X7498634Y-14552960D01*
X7498634Y-14552960D02*
X7479586Y-14562484D01*
X7479586Y-14562484D02*
X7460539Y-14562484D01*
X7460539Y-14562484D02*
X7441491Y-14552960D01*
X7441491Y-14552960D02*
X7431967Y-14543436D01*
X7431967Y-14543436D02*
X7422443Y-14524388D01*
X7422443Y-14524388D02*
X7412920Y-14486293D01*
X7412920Y-14486293D02*
X7412920Y-14438674D01*
X7412920Y-14438674D02*
X7422443Y-14400579D01*
X7422443Y-14400579D02*
X7431967Y-14381531D01*
X7431967Y-14381531D02*
X7441491Y-14372008D01*
X7441491Y-14372008D02*
X7460539Y-14362484D01*
X7612920Y-14562484D02*
X7612920Y-14429150D01*
X7612920Y-14448198D02*
X7622443Y-14438674D01*
X7622443Y-14438674D02*
X7641491Y-14429150D01*
X7641491Y-14429150D02*
X7670063Y-14429150D01*
X7670063Y-14429150D02*
X7689110Y-14438674D01*
X7689110Y-14438674D02*
X7698634Y-14457722D01*
X7698634Y-14457722D02*
X7698634Y-14562484D01*
X7698634Y-14457722D02*
X7708158Y-14438674D01*
X7708158Y-14438674D02*
X7727205Y-14429150D01*
X7727205Y-14429150D02*
X7755777Y-14429150D01*
X7755777Y-14429150D02*
X7774824Y-14438674D01*
X7774824Y-14438674D02*
X7784348Y-14457722D01*
X7784348Y-14457722D02*
X7784348Y-14562484D01*
X7879586Y-14562484D02*
X7879586Y-14429150D01*
X7879586Y-14448198D02*
X7889110Y-14438674D01*
X7889110Y-14438674D02*
X7908158Y-14429150D01*
X7908158Y-14429150D02*
X7936729Y-14429150D01*
X7936729Y-14429150D02*
X7955777Y-14438674D01*
X7955777Y-14438674D02*
X7965301Y-14457722D01*
X7965301Y-14457722D02*
X7965301Y-14562484D01*
X7965301Y-14457722D02*
X7974824Y-14438674D01*
X7974824Y-14438674D02*
X7993872Y-14429150D01*
X7993872Y-14429150D02*
X8022443Y-14429150D01*
X8022443Y-14429150D02*
X8041491Y-14438674D01*
X8041491Y-14438674D02*
X8051015Y-14457722D01*
X8051015Y-14457722D02*
X8051015Y-14562484D01*
X8441491Y-14352960D02*
X8270063Y-14610103D01*
X8698634Y-14362484D02*
X8717682Y-14362484D01*
X8717682Y-14362484D02*
X8736729Y-14372008D01*
X8736729Y-14372008D02*
X8746253Y-14381531D01*
X8746253Y-14381531D02*
X8755777Y-14400579D01*
X8755777Y-14400579D02*
X8765301Y-14438674D01*
X8765301Y-14438674D02*
X8765301Y-14486293D01*
X8765301Y-14486293D02*
X8755777Y-14524388D01*
X8755777Y-14524388D02*
X8746253Y-14543436D01*
X8746253Y-14543436D02*
X8736729Y-14552960D01*
X8736729Y-14552960D02*
X8717682Y-14562484D01*
X8717682Y-14562484D02*
X8698634Y-14562484D01*
X8698634Y-14562484D02*
X8679587Y-14552960D01*
X8679587Y-14552960D02*
X8670063Y-14543436D01*
X8670063Y-14543436D02*
X8660539Y-14524388D01*
X8660539Y-14524388D02*
X8651015Y-14486293D01*
X8651015Y-14486293D02*
X8651015Y-14438674D01*
X8651015Y-14438674D02*
X8660539Y-14400579D01*
X8660539Y-14400579D02*
X8670063Y-14381531D01*
X8670063Y-14381531D02*
X8679587Y-14372008D01*
X8679587Y-14372008D02*
X8698634Y-14362484D01*
X8851015Y-14543436D02*
X8860539Y-14552960D01*
X8860539Y-14552960D02*
X8851015Y-14562484D01*
X8851015Y-14562484D02*
X8841491Y-14552960D01*
X8841491Y-14552960D02*
X8851015Y-14543436D01*
X8851015Y-14543436D02*
X8851015Y-14562484D01*
X9051015Y-14562484D02*
X8936729Y-14562484D01*
X8993872Y-14562484D02*
X8993872Y-14362484D01*
X8993872Y-14362484D02*
X8974825Y-14391055D01*
X8974825Y-14391055D02*
X8955777Y-14410103D01*
X8955777Y-14410103D02*
X8936729Y-14419627D01*
X9127206Y-14381531D02*
X9136729Y-14372008D01*
X9136729Y-14372008D02*
X9155777Y-14362484D01*
X9155777Y-14362484D02*
X9203396Y-14362484D01*
X9203396Y-14362484D02*
X9222444Y-14372008D01*
X9222444Y-14372008D02*
X9231968Y-14381531D01*
X9231968Y-14381531D02*
X9241491Y-14400579D01*
X9241491Y-14400579D02*
X9241491Y-14419627D01*
X9241491Y-14419627D02*
X9231968Y-14448198D01*
X9231968Y-14448198D02*
X9117682Y-14562484D01*
X9117682Y-14562484D02*
X9241491Y-14562484D01*
X9412920Y-14362484D02*
X9374825Y-14362484D01*
X9374825Y-14362484D02*
X9355777Y-14372008D01*
X9355777Y-14372008D02*
X9346253Y-14381531D01*
X9346253Y-14381531D02*
X9327206Y-14410103D01*
X9327206Y-14410103D02*
X9317682Y-14448198D01*
X9317682Y-14448198D02*
X9317682Y-14524388D01*
X9317682Y-14524388D02*
X9327206Y-14543436D01*
X9327206Y-14543436D02*
X9336729Y-14552960D01*
X9336729Y-14552960D02*
X9355777Y-14562484D01*
X9355777Y-14562484D02*
X9393872Y-14562484D01*
X9393872Y-14562484D02*
X9412920Y-14552960D01*
X9412920Y-14552960D02*
X9422444Y-14543436D01*
X9422444Y-14543436D02*
X9431968Y-14524388D01*
X9431968Y-14524388D02*
X9431968Y-14476769D01*
X9431968Y-14476769D02*
X9422444Y-14457722D01*
X9422444Y-14457722D02*
X9412920Y-14448198D01*
X9412920Y-14448198D02*
X9393872Y-14438674D01*
X9393872Y-14438674D02*
X9355777Y-14438674D01*
X9355777Y-14438674D02*
X9336729Y-14448198D01*
X9336729Y-14448198D02*
X9327206Y-14457722D01*
X9327206Y-14457722D02*
X9317682Y-14476769D01*
X9555777Y-14362484D02*
X9574825Y-14362484D01*
X9574825Y-14362484D02*
X9593872Y-14372008D01*
X9593872Y-14372008D02*
X9603396Y-14381531D01*
X9603396Y-14381531D02*
X9612920Y-14400579D01*
X9612920Y-14400579D02*
X9622444Y-14438674D01*
X9622444Y-14438674D02*
X9622444Y-14486293D01*
X9622444Y-14486293D02*
X9612920Y-14524388D01*
X9612920Y-14524388D02*
X9603396Y-14543436D01*
X9603396Y-14543436D02*
X9593872Y-14552960D01*
X9593872Y-14552960D02*
X9574825Y-14562484D01*
X9574825Y-14562484D02*
X9555777Y-14562484D01*
X9555777Y-14562484D02*
X9536729Y-14552960D01*
X9536729Y-14552960D02*
X9527206Y-14543436D01*
X9527206Y-14543436D02*
X9517682Y-14524388D01*
X9517682Y-14524388D02*
X9508158Y-14486293D01*
X9508158Y-14486293D02*
X9508158Y-14438674D01*
X9508158Y-14438674D02*
X9517682Y-14400579D01*
X9517682Y-14400579D02*
X9527206Y-14381531D01*
X9527206Y-14381531D02*
X9536729Y-14372008D01*
X9536729Y-14372008D02*
X9555777Y-14362484D01*
X9698634Y-14362484D02*
X9698634Y-14400579D01*
X9774825Y-14362484D02*
X9774825Y-14400579D01*
X10070063Y-14638674D02*
X10060539Y-14629150D01*
X10060539Y-14629150D02*
X10041491Y-14600579D01*
X10041491Y-14600579D02*
X10031968Y-14581531D01*
X10031968Y-14581531D02*
X10022444Y-14552960D01*
X10022444Y-14552960D02*
X10012920Y-14505341D01*
X10012920Y-14505341D02*
X10012920Y-14467246D01*
X10012920Y-14467246D02*
X10022444Y-14419627D01*
X10022444Y-14419627D02*
X10031968Y-14391055D01*
X10031968Y-14391055D02*
X10041491Y-14372008D01*
X10041491Y-14372008D02*
X10060539Y-14343436D01*
X10060539Y-14343436D02*
X10070063Y-14333912D01*
X10231968Y-14362484D02*
X10193872Y-14362484D01*
X10193872Y-14362484D02*
X10174825Y-14372008D01*
X10174825Y-14372008D02*
X10165301Y-14381531D01*
X10165301Y-14381531D02*
X10146253Y-14410103D01*
X10146253Y-14410103D02*
X10136730Y-14448198D01*
X10136730Y-14448198D02*
X10136730Y-14524388D01*
X10136730Y-14524388D02*
X10146253Y-14543436D01*
X10146253Y-14543436D02*
X10155777Y-14552960D01*
X10155777Y-14552960D02*
X10174825Y-14562484D01*
X10174825Y-14562484D02*
X10212920Y-14562484D01*
X10212920Y-14562484D02*
X10231968Y-14552960D01*
X10231968Y-14552960D02*
X10241491Y-14543436D01*
X10241491Y-14543436D02*
X10251015Y-14524388D01*
X10251015Y-14524388D02*
X10251015Y-14476769D01*
X10251015Y-14476769D02*
X10241491Y-14457722D01*
X10241491Y-14457722D02*
X10231968Y-14448198D01*
X10231968Y-14448198D02*
X10212920Y-14438674D01*
X10212920Y-14438674D02*
X10174825Y-14438674D01*
X10174825Y-14438674D02*
X10155777Y-14448198D01*
X10155777Y-14448198D02*
X10146253Y-14457722D01*
X10146253Y-14457722D02*
X10136730Y-14476769D01*
X10489111Y-14562484D02*
X10489111Y-14362484D01*
X10574825Y-14562484D02*
X10574825Y-14457722D01*
X10574825Y-14457722D02*
X10565301Y-14438674D01*
X10565301Y-14438674D02*
X10546253Y-14429150D01*
X10546253Y-14429150D02*
X10517682Y-14429150D01*
X10517682Y-14429150D02*
X10498634Y-14438674D01*
X10498634Y-14438674D02*
X10489111Y-14448198D01*
X10698634Y-14562484D02*
X10679587Y-14552960D01*
X10679587Y-14552960D02*
X10670063Y-14543436D01*
X10670063Y-14543436D02*
X10660539Y-14524388D01*
X10660539Y-14524388D02*
X10660539Y-14467246D01*
X10660539Y-14467246D02*
X10670063Y-14448198D01*
X10670063Y-14448198D02*
X10679587Y-14438674D01*
X10679587Y-14438674D02*
X10698634Y-14429150D01*
X10698634Y-14429150D02*
X10727206Y-14429150D01*
X10727206Y-14429150D02*
X10746253Y-14438674D01*
X10746253Y-14438674D02*
X10755777Y-14448198D01*
X10755777Y-14448198D02*
X10765301Y-14467246D01*
X10765301Y-14467246D02*
X10765301Y-14524388D01*
X10765301Y-14524388D02*
X10755777Y-14543436D01*
X10755777Y-14543436D02*
X10746253Y-14552960D01*
X10746253Y-14552960D02*
X10727206Y-14562484D01*
X10727206Y-14562484D02*
X10698634Y-14562484D01*
X10879587Y-14562484D02*
X10860539Y-14552960D01*
X10860539Y-14552960D02*
X10851015Y-14533912D01*
X10851015Y-14533912D02*
X10851015Y-14362484D01*
X11031968Y-14552960D02*
X11012920Y-14562484D01*
X11012920Y-14562484D02*
X10974825Y-14562484D01*
X10974825Y-14562484D02*
X10955777Y-14552960D01*
X10955777Y-14552960D02*
X10946253Y-14533912D01*
X10946253Y-14533912D02*
X10946253Y-14457722D01*
X10946253Y-14457722D02*
X10955777Y-14438674D01*
X10955777Y-14438674D02*
X10974825Y-14429150D01*
X10974825Y-14429150D02*
X11012920Y-14429150D01*
X11012920Y-14429150D02*
X11031968Y-14438674D01*
X11031968Y-14438674D02*
X11041492Y-14457722D01*
X11041492Y-14457722D02*
X11041492Y-14476769D01*
X11041492Y-14476769D02*
X10946253Y-14495817D01*
X11117682Y-14552960D02*
X11136730Y-14562484D01*
X11136730Y-14562484D02*
X11174825Y-14562484D01*
X11174825Y-14562484D02*
X11193872Y-14552960D01*
X11193872Y-14552960D02*
X11203396Y-14533912D01*
X11203396Y-14533912D02*
X11203396Y-14524388D01*
X11203396Y-14524388D02*
X11193872Y-14505341D01*
X11193872Y-14505341D02*
X11174825Y-14495817D01*
X11174825Y-14495817D02*
X11146253Y-14495817D01*
X11146253Y-14495817D02*
X11127206Y-14486293D01*
X11127206Y-14486293D02*
X11117682Y-14467246D01*
X11117682Y-14467246D02*
X11117682Y-14457722D01*
X11117682Y-14457722D02*
X11127206Y-14438674D01*
X11127206Y-14438674D02*
X11146253Y-14429150D01*
X11146253Y-14429150D02*
X11174825Y-14429150D01*
X11174825Y-14429150D02*
X11193872Y-14438674D01*
X11270063Y-14638674D02*
X11279587Y-14629150D01*
X11279587Y-14629150D02*
X11298634Y-14600579D01*
X11298634Y-14600579D02*
X11308158Y-14581531D01*
X11308158Y-14581531D02*
X11317682Y-14552960D01*
X11317682Y-14552960D02*
X11327206Y-14505341D01*
X11327206Y-14505341D02*
X11327206Y-14467246D01*
X11327206Y-14467246D02*
X11317682Y-14419627D01*
X11317682Y-14419627D02*
X11308158Y-14391055D01*
X11308158Y-14391055D02*
X11298634Y-14372008D01*
X11298634Y-14372008D02*
X11279587Y-14343436D01*
X11279587Y-14343436D02*
X11270063Y-14333912D01*
M02*
