G04 #@! TF.GenerationSoftware,KiCad,Pcbnew,7.0.1*
G04 #@! TF.CreationDate,2023-05-26T07:23:59+02:00*
G04 #@! TF.ProjectId,K_PA_Protec,4b5f5041-5f50-4726-9f74-65632e6b6963,rev?*
G04 #@! TF.SameCoordinates,Original*
G04 #@! TF.FileFunction,Copper,L1,Top*
G04 #@! TF.FilePolarity,Positive*
%FSLAX46Y46*%
G04 Gerber Fmt 4.6, Leading zero omitted, Abs format (unit mm)*
G04 Created by KiCad (PCBNEW 7.0.1) date 2023-05-26 07:23:59*
%MOMM*%
%LPD*%
G01*
G04 APERTURE LIST*
G04 Aperture macros list*
%AMRoundRect*
0 Rectangle with rounded corners*
0 $1 Rounding radius*
0 $2 $3 $4 $5 $6 $7 $8 $9 X,Y pos of 4 corners*
0 Add a 4 corners polygon primitive as box body*
4,1,4,$2,$3,$4,$5,$6,$7,$8,$9,$2,$3,0*
0 Add four circle primitives for the rounded corners*
1,1,$1+$1,$2,$3*
1,1,$1+$1,$4,$5*
1,1,$1+$1,$6,$7*
1,1,$1+$1,$8,$9*
0 Add four rect primitives between the rounded corners*
20,1,$1+$1,$2,$3,$4,$5,0*
20,1,$1+$1,$4,$5,$6,$7,0*
20,1,$1+$1,$6,$7,$8,$9,0*
20,1,$1+$1,$8,$9,$2,$3,0*%
G04 Aperture macros list end*
G04 #@! TA.AperFunction,SMDPad,CuDef*
%ADD10RoundRect,0.250000X-0.350000X-0.450000X0.350000X-0.450000X0.350000X0.450000X-0.350000X0.450000X0*%
G04 #@! TD*
G04 #@! TA.AperFunction,SMDPad,CuDef*
%ADD11RoundRect,0.250000X0.337500X0.475000X-0.337500X0.475000X-0.337500X-0.475000X0.337500X-0.475000X0*%
G04 #@! TD*
G04 #@! TA.AperFunction,ComponentPad*
%ADD12C,0.800000*%
G04 #@! TD*
G04 #@! TA.AperFunction,ComponentPad*
%ADD13C,6.400000*%
G04 #@! TD*
G04 #@! TA.AperFunction,SMDPad,CuDef*
%ADD14RoundRect,0.250000X-0.337500X-0.475000X0.337500X-0.475000X0.337500X0.475000X-0.337500X0.475000X0*%
G04 #@! TD*
G04 #@! TA.AperFunction,SMDPad,CuDef*
%ADD15RoundRect,0.250000X0.475000X-0.337500X0.475000X0.337500X-0.475000X0.337500X-0.475000X-0.337500X0*%
G04 #@! TD*
G04 #@! TA.AperFunction,ComponentPad*
%ADD16R,2.000000X2.000000*%
G04 #@! TD*
G04 #@! TA.AperFunction,ComponentPad*
%ADD17C,2.000000*%
G04 #@! TD*
G04 #@! TA.AperFunction,ComponentPad*
%ADD18R,2.000000X3.200000*%
G04 #@! TD*
G04 #@! TA.AperFunction,ComponentPad*
%ADD19RoundRect,0.250000X0.845000X-0.620000X0.845000X0.620000X-0.845000X0.620000X-0.845000X-0.620000X0*%
G04 #@! TD*
G04 #@! TA.AperFunction,ComponentPad*
%ADD20O,2.190000X1.740000*%
G04 #@! TD*
G04 #@! TA.AperFunction,ComponentPad*
%ADD21RoundRect,0.250000X0.600000X0.600000X-0.600000X0.600000X-0.600000X-0.600000X0.600000X-0.600000X0*%
G04 #@! TD*
G04 #@! TA.AperFunction,ComponentPad*
%ADD22C,1.700000*%
G04 #@! TD*
G04 #@! TA.AperFunction,ComponentPad*
%ADD23RoundRect,0.250000X-0.620000X-0.845000X0.620000X-0.845000X0.620000X0.845000X-0.620000X0.845000X0*%
G04 #@! TD*
G04 #@! TA.AperFunction,ComponentPad*
%ADD24O,1.740000X2.190000*%
G04 #@! TD*
G04 #@! TA.AperFunction,ComponentPad*
%ADD25RoundRect,0.250000X-0.845000X0.620000X-0.845000X-0.620000X0.845000X-0.620000X0.845000X0.620000X0*%
G04 #@! TD*
G04 #@! TA.AperFunction,ComponentPad*
%ADD26R,2.540000X2.540000*%
G04 #@! TD*
G04 #@! TA.AperFunction,ComponentPad*
%ADD27C,2.540000*%
G04 #@! TD*
G04 #@! TA.AperFunction,ComponentPad*
%ADD28RoundRect,0.250000X-0.600000X-0.600000X0.600000X-0.600000X0.600000X0.600000X-0.600000X0.600000X0*%
G04 #@! TD*
G04 #@! TA.AperFunction,ViaPad*
%ADD29C,0.800000*%
G04 #@! TD*
G04 #@! TA.AperFunction,Conductor*
%ADD30C,0.500000*%
G04 #@! TD*
G04 #@! TA.AperFunction,Conductor*
%ADD31C,0.800000*%
G04 #@! TD*
G04 #@! TA.AperFunction,Conductor*
%ADD32C,1.000000*%
G04 #@! TD*
G04 #@! TA.AperFunction,Conductor*
%ADD33C,1.200000*%
G04 #@! TD*
G04 APERTURE END LIST*
D10*
X131000000Y-82000000D03*
X133000000Y-82000000D03*
D11*
X87037500Y-86000000D03*
X84962500Y-86000000D03*
D12*
X67600000Y-55000000D03*
X68302944Y-53302944D03*
X68302944Y-56697056D03*
X70000000Y-52600000D03*
D13*
X70000000Y-55000000D03*
D12*
X70000000Y-57400000D03*
X71697056Y-53302944D03*
X71697056Y-56697056D03*
X72400000Y-55000000D03*
D14*
X75462500Y-85500000D03*
X77537500Y-85500000D03*
D15*
X95500000Y-72500000D03*
X95500000Y-70425000D03*
D10*
X131000000Y-88000000D03*
X133000000Y-88000000D03*
D12*
X156200000Y-96200000D03*
X156902944Y-94502944D03*
X156902944Y-97897056D03*
X158600000Y-93800000D03*
D13*
X158600000Y-96200000D03*
D12*
X158600000Y-98600000D03*
X160297056Y-94502944D03*
X160297056Y-97897056D03*
X161000000Y-96200000D03*
D10*
X131000000Y-80000000D03*
X133000000Y-80000000D03*
D12*
X67600000Y-120200000D03*
X68302944Y-118502944D03*
X68302944Y-121897056D03*
X70000000Y-117800000D03*
D13*
X70000000Y-120200000D03*
D12*
X70000000Y-122600000D03*
X71697056Y-118502944D03*
X71697056Y-121897056D03*
X72400000Y-120200000D03*
D15*
X79800000Y-95637500D03*
X79800000Y-93562500D03*
D10*
X84500000Y-62500000D03*
X86500000Y-62500000D03*
D12*
X156200000Y-55000000D03*
X156902944Y-53302944D03*
X156902944Y-56697056D03*
X158600000Y-52600000D03*
D13*
X158600000Y-55000000D03*
D12*
X158600000Y-57400000D03*
X160297056Y-53302944D03*
X160297056Y-56697056D03*
X161000000Y-55000000D03*
D10*
X131000000Y-84000000D03*
X133000000Y-84000000D03*
X131000000Y-78000000D03*
X133000000Y-78000000D03*
D12*
X161200000Y-120000000D03*
X161902944Y-118302944D03*
X161902944Y-121697056D03*
X163600000Y-117600000D03*
D13*
X163600000Y-120000000D03*
D12*
X163600000Y-122400000D03*
X165297056Y-118302944D03*
X165297056Y-121697056D03*
X166000000Y-120000000D03*
D11*
X87037500Y-81000000D03*
X84962500Y-81000000D03*
D16*
X147800000Y-99037500D03*
D17*
X152800000Y-99037500D03*
X150300000Y-99037500D03*
D16*
X147800000Y-116037500D03*
D17*
X152800000Y-116037500D03*
X150300000Y-116037500D03*
D18*
X144700000Y-108537500D03*
X155900000Y-108537500D03*
D17*
X152800000Y-101537500D03*
X147800000Y-101537500D03*
D15*
X79800000Y-56337500D03*
X79800000Y-54262500D03*
D14*
X75462500Y-88500000D03*
X77537500Y-88500000D03*
X84462500Y-60500000D03*
X86537500Y-60500000D03*
D12*
X67600000Y-96200000D03*
X68302944Y-94502944D03*
X68302944Y-97897056D03*
X70000000Y-93800000D03*
D13*
X70000000Y-96200000D03*
D12*
X70000000Y-98600000D03*
X71697056Y-94502944D03*
X71697056Y-97897056D03*
X72400000Y-96200000D03*
D10*
X131000000Y-86000000D03*
X133000000Y-86000000D03*
D11*
X87037500Y-91000000D03*
X84962500Y-91000000D03*
D19*
X137180000Y-109000000D03*
D20*
X137180000Y-106460000D03*
X137180000Y-103920000D03*
X137180000Y-101380000D03*
D19*
X92980000Y-72270000D03*
D20*
X92980000Y-69730000D03*
D21*
X106500000Y-83000000D03*
D22*
X103960000Y-83000000D03*
X106500000Y-85540000D03*
X103960000Y-85540000D03*
X106500000Y-88080000D03*
X103960000Y-88080000D03*
X106500000Y-90620000D03*
X103960000Y-90620000D03*
X106500000Y-93160000D03*
X103960000Y-93160000D03*
D23*
X146500000Y-121000000D03*
D24*
X149040000Y-121000000D03*
X151580000Y-121000000D03*
X154120000Y-121000000D03*
D25*
X73520000Y-107960000D03*
D20*
X73520000Y-110500000D03*
X73520000Y-113040000D03*
D26*
X87080000Y-122490000D03*
D27*
X87080000Y-104710000D03*
X127720000Y-104710000D03*
X127720000Y-122490000D03*
D28*
X79747500Y-68580000D03*
D22*
X82287500Y-68580000D03*
X79747500Y-66040000D03*
X82287500Y-66040000D03*
X79747500Y-63500000D03*
X82287500Y-63500000D03*
X79747500Y-60960000D03*
X82287500Y-60960000D03*
X79747500Y-58420000D03*
X82287500Y-58420000D03*
D28*
X80000000Y-91000000D03*
D22*
X82540000Y-91000000D03*
X80000000Y-88460000D03*
X82540000Y-88460000D03*
X80000000Y-85920000D03*
X82540000Y-85920000D03*
X80000000Y-83380000D03*
X82540000Y-83380000D03*
X80000000Y-80840000D03*
X82540000Y-80840000D03*
D19*
X118480000Y-75270000D03*
D20*
X118480000Y-72730000D03*
D29*
X99800000Y-72500000D03*
X93200000Y-92200000D03*
X137259078Y-80247561D03*
X92000000Y-92200000D03*
X137300000Y-81500000D03*
X90100000Y-87800000D03*
X137300000Y-82800000D03*
X83900000Y-98500000D03*
X88900000Y-94100000D03*
X77537500Y-98437500D03*
X77300000Y-82300000D03*
X77300000Y-78300000D03*
X137300000Y-85300000D03*
X137300000Y-86500000D03*
X91500000Y-58200000D03*
X80200000Y-77000000D03*
X89000000Y-77000000D03*
X107900000Y-54449500D03*
X109600000Y-54449500D03*
X119500000Y-54400000D03*
X76900000Y-72800000D03*
X101400000Y-81600000D03*
X100000000Y-82400000D03*
X96400000Y-66200000D03*
X140540000Y-75040000D03*
X117200000Y-67310000D03*
X124700000Y-52700000D03*
X140000000Y-53700000D03*
X73649500Y-88799312D03*
X87100000Y-75600000D03*
X71941121Y-90050468D03*
X72000000Y-62400000D03*
X71000000Y-68600000D03*
X71100000Y-90600000D03*
X129600000Y-99400000D03*
X129600000Y-95800000D03*
X142800000Y-86100000D03*
X148100000Y-59900000D03*
X147200000Y-68700000D03*
X142800000Y-84700000D03*
X137300000Y-84100000D03*
X137230000Y-64670000D03*
X135460000Y-70140000D03*
X76400000Y-52400000D03*
X98600000Y-73600000D03*
X101262500Y-67037500D03*
X98600000Y-104600000D03*
X115400000Y-64700000D03*
X116600000Y-64770000D03*
X122600000Y-85000000D03*
X130800000Y-76000000D03*
X127600000Y-73900000D03*
X131000000Y-70700000D03*
X89600000Y-62600000D03*
X110400000Y-86200000D03*
X111000000Y-78100000D03*
X122400000Y-60960000D03*
X109200000Y-69400000D03*
X104200000Y-56900000D03*
X110700000Y-63500000D03*
X113949500Y-64400688D03*
X122400000Y-62200000D03*
X141100000Y-83200000D03*
X141900000Y-64900000D03*
X139200000Y-70200000D03*
X135200000Y-59600000D03*
X136400000Y-59600000D03*
X132000000Y-91000000D03*
X122500000Y-52500000D03*
X130000000Y-92000000D03*
X116000000Y-93000000D03*
X100000000Y-122500000D03*
X165000000Y-67500000D03*
X126975000Y-77975000D03*
X67500000Y-100000000D03*
X120000000Y-91000000D03*
X67500000Y-67500000D03*
X123000000Y-70499500D03*
X67500000Y-82500000D03*
X138088237Y-94688237D03*
X145937500Y-70237500D03*
X165000000Y-100000000D03*
X129000000Y-94000000D03*
X123400000Y-56449500D03*
X113100000Y-78100000D03*
X152500000Y-52500000D03*
X67500000Y-62500000D03*
X67500000Y-77500000D03*
X139000000Y-85000000D03*
X140000000Y-112500000D03*
X118000000Y-89000000D03*
X67500000Y-110000000D03*
X95500000Y-70425000D03*
X165000000Y-92500000D03*
X67500000Y-115000000D03*
X126975000Y-75825000D03*
X101100000Y-74100000D03*
X147500000Y-52500000D03*
X124000000Y-87000000D03*
X120000000Y-87000000D03*
X110000000Y-122500000D03*
X143962500Y-53762500D03*
X87400000Y-84800000D03*
X140000000Y-122500000D03*
X109000000Y-91000000D03*
X111762500Y-55600000D03*
X89200000Y-81600000D03*
X112000000Y-93000000D03*
X109000000Y-89000000D03*
X140000000Y-117500000D03*
X140000000Y-120000000D03*
X116000000Y-89000000D03*
X109799312Y-65399312D03*
X125000000Y-122500000D03*
X95000000Y-122500000D03*
X107800000Y-66000000D03*
X112000000Y-95000000D03*
X88000000Y-86000000D03*
X116000000Y-91000000D03*
X118000000Y-93000000D03*
X95000000Y-55400000D03*
X113437500Y-82037500D03*
X115000000Y-122500000D03*
X67500000Y-72500000D03*
X95000000Y-53000000D03*
X112100000Y-78100000D03*
X138500000Y-56200000D03*
X122000000Y-89000000D03*
X165000000Y-62500000D03*
X109000000Y-77500000D03*
X120500000Y-83000000D03*
X116000000Y-95000000D03*
X139690500Y-56210790D03*
X134690000Y-61110000D03*
X165000000Y-115000000D03*
X90000000Y-122500000D03*
X127500000Y-83100000D03*
X107000000Y-77500000D03*
X125250000Y-70499500D03*
X104000000Y-65000000D03*
X114000000Y-95000000D03*
X139000000Y-83000000D03*
X114000000Y-93000000D03*
X100837500Y-64962500D03*
X105000000Y-122500000D03*
X149400000Y-95800000D03*
X113437500Y-85937500D03*
X103000000Y-77500000D03*
X149400000Y-94600000D03*
X165000000Y-82500000D03*
X149400000Y-93400000D03*
X112200000Y-85900000D03*
X137500000Y-120000000D03*
X135000000Y-122500000D03*
X135000000Y-120000000D03*
X138000000Y-95800000D03*
X80000000Y-122500000D03*
X142500000Y-52500000D03*
X165000000Y-72500000D03*
X87037500Y-89662500D03*
X145937500Y-73562500D03*
X165000000Y-110000000D03*
X67500000Y-92500000D03*
X110749312Y-61050688D03*
X165000000Y-105000000D03*
X157500000Y-122500000D03*
X67500000Y-105000000D03*
X75000000Y-122500000D03*
X165000000Y-87500000D03*
X120000000Y-89000000D03*
X112237500Y-82037500D03*
X120000000Y-122500000D03*
X165000000Y-77500000D03*
X105000000Y-77500000D03*
X118000000Y-87000000D03*
X123400000Y-63500000D03*
X118000000Y-91000000D03*
X67500000Y-87500000D03*
X122000000Y-87000000D03*
X111762500Y-56962500D03*
X127000000Y-96000000D03*
X138000000Y-93615000D03*
X95000000Y-54400000D03*
X111700000Y-65700000D03*
X129800000Y-54500000D03*
X127200000Y-66800000D03*
X129500000Y-78900000D03*
X143862500Y-70337500D03*
X111800000Y-69400000D03*
X143200000Y-90000000D03*
X143862500Y-56262500D03*
X128000000Y-78900000D03*
X112900000Y-62000000D03*
X125150000Y-80700000D03*
D30*
X79747500Y-58420000D02*
X79747500Y-56390000D01*
X79747500Y-56390000D02*
X79800000Y-56337500D01*
X84462500Y-60500000D02*
X82747500Y-60500000D01*
X82747500Y-60500000D02*
X82287500Y-60960000D01*
X84500000Y-62500000D02*
X84500000Y-60537500D01*
X84500000Y-60537500D02*
X84462500Y-60500000D01*
X95500000Y-72500000D02*
X99800000Y-72500000D01*
X93210000Y-72500000D02*
X92980000Y-72270000D01*
X95500000Y-72500000D02*
X93210000Y-72500000D01*
X133000000Y-78000000D02*
X134700000Y-78000000D01*
D31*
X91400000Y-92200000D02*
X92000000Y-92200000D01*
X79800000Y-91200000D02*
X80000000Y-91000000D01*
X80000000Y-91600000D02*
X81400000Y-93000000D01*
X79800000Y-93562500D02*
X79800000Y-91200000D01*
X90600000Y-93000000D02*
X91000000Y-92600000D01*
D30*
X136947561Y-80247561D02*
X137259078Y-80247561D01*
D31*
X80000000Y-91000000D02*
X80000000Y-91600000D01*
X92000000Y-92200000D02*
X93200000Y-92200000D01*
X81400000Y-93000000D02*
X90600000Y-93000000D01*
D30*
X134700000Y-78000000D02*
X136947561Y-80247561D01*
D31*
X91000000Y-92600000D02*
X91400000Y-92200000D01*
D30*
X136745239Y-80945239D02*
X137300000Y-81500000D01*
D31*
X85740000Y-87800000D02*
X90100000Y-87800000D01*
X82540000Y-91000000D02*
X85740000Y-87800000D01*
D30*
X133945239Y-80945239D02*
X136745239Y-80945239D01*
D31*
X84962500Y-91000000D02*
X82540000Y-91000000D01*
D30*
X133000000Y-80000000D02*
X133945239Y-80945239D01*
D31*
X79960000Y-88500000D02*
X80000000Y-88460000D01*
X77537500Y-88500000D02*
X79960000Y-88500000D01*
X77537500Y-88500000D02*
X77537500Y-98437500D01*
X88900000Y-94100000D02*
X84500000Y-98500000D01*
X84500000Y-98500000D02*
X83900000Y-98500000D01*
D30*
X136500000Y-82000000D02*
X137300000Y-82800000D01*
X133000000Y-82000000D02*
X136500000Y-82000000D01*
X77300000Y-82300000D02*
X77300000Y-78300000D01*
D31*
X79580000Y-85500000D02*
X80000000Y-85920000D01*
D30*
X133000000Y-86000000D02*
X134200000Y-84800000D01*
D31*
X77537500Y-85500000D02*
X79580000Y-85500000D01*
D30*
X136800000Y-84800000D02*
X137300000Y-85300000D01*
X134200000Y-84800000D02*
X136800000Y-84800000D01*
D31*
X84962500Y-86000000D02*
X82620000Y-86000000D01*
D30*
X134500000Y-86500000D02*
X137300000Y-86500000D01*
X133000000Y-88000000D02*
X134500000Y-86500000D01*
D31*
X82620000Y-86000000D02*
X82540000Y-85920000D01*
D30*
X80200000Y-80640000D02*
X80000000Y-80840000D01*
X90600000Y-75400000D02*
X90600000Y-68700000D01*
X89000000Y-77000000D02*
X90600000Y-75400000D01*
X92400000Y-59100000D02*
X91500000Y-58200000D01*
X80200000Y-77000000D02*
X80200000Y-80640000D01*
X90600000Y-68700000D02*
X92400000Y-66900000D01*
X92400000Y-66900000D02*
X92400000Y-59100000D01*
X109649500Y-54400000D02*
X109600000Y-54449500D01*
X109600000Y-54449500D02*
X107900000Y-54449500D01*
X119500000Y-54400000D02*
X109649500Y-54400000D01*
X105400000Y-81200000D02*
X106500000Y-82300000D01*
D31*
X78160000Y-66040000D02*
X79747500Y-66040000D01*
D30*
X101800000Y-81200000D02*
X105400000Y-81200000D01*
D31*
X76900000Y-67300000D02*
X78160000Y-66040000D01*
X76900000Y-72800000D02*
X76900000Y-67300000D01*
D30*
X101400000Y-81600000D02*
X101800000Y-81200000D01*
X106500000Y-82300000D02*
X106500000Y-83000000D01*
X102000000Y-78400000D02*
X102000000Y-70200000D01*
X107200000Y-79400000D02*
X109000000Y-81200000D01*
X102000000Y-70200000D02*
X98000000Y-66200000D01*
X97000000Y-66200000D02*
X96400000Y-66200000D01*
X98000000Y-66200000D02*
X97000000Y-66200000D01*
X100000000Y-82400000D02*
X100000000Y-80400000D01*
X100000000Y-80400000D02*
X101000000Y-79400000D01*
X100000000Y-80400000D02*
X102000000Y-78400000D01*
X109000000Y-81200000D02*
X109000000Y-85580000D01*
X109000000Y-85580000D02*
X106500000Y-88080000D01*
X101000000Y-79400000D02*
X107200000Y-79400000D01*
X140540000Y-54240000D02*
X140000000Y-53700000D01*
X140540000Y-75040000D02*
X140540000Y-54240000D01*
X117200000Y-67310000D02*
X121690000Y-67310000D01*
X124700000Y-64300000D02*
X124700000Y-52700000D01*
X121690000Y-67310000D02*
X124700000Y-64300000D01*
X74120000Y-83380000D02*
X73600000Y-83900000D01*
X80000000Y-83380000D02*
X74120000Y-83380000D01*
X73600000Y-83900000D02*
X73600000Y-88749812D01*
X73600000Y-88749812D02*
X73649500Y-88799312D01*
X87100000Y-68312500D02*
X87100000Y-75600000D01*
X82287500Y-63500000D02*
X87100000Y-68312500D01*
X71850499Y-89959846D02*
X71941121Y-90050468D01*
X72000000Y-62400000D02*
X71850499Y-62549501D01*
X71850499Y-62549501D02*
X71850499Y-89959846D01*
X129700000Y-95900000D02*
X129700000Y-99300000D01*
X71000000Y-90500000D02*
X71100000Y-90600000D01*
X129700000Y-99300000D02*
X129600000Y-99400000D01*
X71000000Y-68600000D02*
X71000000Y-90500000D01*
X129600000Y-95800000D02*
X129700000Y-95900000D01*
X142800000Y-86100000D02*
X148100000Y-80800000D01*
X148100000Y-80800000D02*
X148100000Y-59900000D01*
X142800000Y-84700000D02*
X147200000Y-80300000D01*
X147200000Y-80300000D02*
X147200000Y-68700000D01*
X136600000Y-83400000D02*
X137300000Y-84100000D01*
X133600000Y-83400000D02*
X136600000Y-83400000D01*
X133000000Y-84000000D02*
X133600000Y-83400000D01*
X79747500Y-63500000D02*
X77900000Y-63500000D01*
X77900000Y-63500000D02*
X76400000Y-62000000D01*
X137230000Y-64670000D02*
X135500000Y-66400000D01*
X135500000Y-70100000D02*
X135460000Y-70140000D01*
X135500000Y-66400000D02*
X135500000Y-70100000D01*
X76400000Y-52400000D02*
X76400000Y-62000000D01*
D32*
X103960000Y-85540000D02*
X99560000Y-85540000D01*
D30*
X110500000Y-68400000D02*
X110500000Y-75270000D01*
D33*
X95480000Y-83380000D02*
X98600000Y-86500000D01*
D31*
X82540000Y-83380000D02*
X84120000Y-83380000D01*
D30*
X110800000Y-68100000D02*
X110500000Y-68400000D01*
D33*
X98600000Y-94000000D02*
X98600000Y-99400000D01*
D30*
X112800000Y-68100000D02*
X110800000Y-68100000D01*
D33*
X98600000Y-86500000D02*
X98600000Y-94000000D01*
D32*
X109495000Y-75270000D02*
X118480000Y-75270000D01*
D30*
X116600000Y-64770000D02*
X115470000Y-64770000D01*
D32*
X98600000Y-73600000D02*
X98600000Y-94000000D01*
D33*
X98600000Y-99400000D02*
X98600000Y-104600000D01*
D30*
X110500000Y-75270000D02*
X118480000Y-75270000D01*
X115400000Y-65500000D02*
X112800000Y-68100000D01*
D33*
X82540000Y-83380000D02*
X95480000Y-83380000D01*
D31*
X84962500Y-82537500D02*
X84962500Y-81000000D01*
D32*
X101262500Y-67037500D02*
X109495000Y-75270000D01*
X99560000Y-85540000D02*
X98600000Y-86500000D01*
D30*
X115470000Y-64770000D02*
X115400000Y-64700000D01*
X115400000Y-64700000D02*
X115400000Y-65500000D01*
D31*
X84120000Y-83380000D02*
X84962500Y-82537500D01*
D30*
X122600000Y-78900000D02*
X122600000Y-85000000D01*
X131000000Y-70700000D02*
X131000000Y-75800000D01*
X127600000Y-73900000D02*
X122600000Y-78900000D01*
X131000000Y-75800000D02*
X130800000Y-76000000D01*
X88400000Y-62600000D02*
X89600000Y-62600000D01*
X86500000Y-62500000D02*
X86600000Y-62600000D01*
X86600000Y-62600000D02*
X88400000Y-62600000D01*
X110400000Y-86200000D02*
X110400000Y-78700000D01*
X110400000Y-78700000D02*
X111000000Y-78100000D01*
X109600000Y-66800000D02*
X109200000Y-67200000D01*
X112900000Y-66100000D02*
X112200000Y-66800000D01*
X112900000Y-63600000D02*
X112900000Y-66100000D01*
X109200000Y-67200000D02*
X109200000Y-69400000D01*
X122400000Y-60960000D02*
X115540000Y-60960000D01*
X115540000Y-60960000D02*
X112900000Y-63600000D01*
X112200000Y-66800000D02*
X109600000Y-66800000D01*
X104200000Y-61200000D02*
X106500000Y-63500000D01*
X106500000Y-63500000D02*
X110700000Y-63500000D01*
X104200000Y-56900000D02*
X104200000Y-61200000D01*
X113949500Y-64400688D02*
X116150188Y-62200000D01*
X116150188Y-62200000D02*
X122400000Y-62200000D01*
X141900000Y-82400000D02*
X141100000Y-83200000D01*
X141900000Y-64900000D02*
X141900000Y-82400000D01*
X136400000Y-59600000D02*
X135200000Y-59600000D01*
X139200000Y-60900000D02*
X139200000Y-70200000D01*
X136400000Y-59600000D02*
X137900000Y-59600000D01*
X137900000Y-59600000D02*
X139200000Y-60900000D01*
X99525000Y-70425000D02*
X95500000Y-70425000D01*
X87037500Y-81000000D02*
X87037500Y-80437500D01*
X87037500Y-81000000D02*
X88600000Y-81000000D01*
X84180000Y-79200000D02*
X82540000Y-80840000D01*
X101100000Y-72000000D02*
X99525000Y-70425000D01*
X123400000Y-63500000D02*
X123400000Y-56449500D01*
X88600000Y-81000000D02*
X89200000Y-81600000D01*
X101100000Y-74100000D02*
X101100000Y-72000000D01*
X92980000Y-69730000D02*
X94805000Y-69730000D01*
X87037500Y-86000000D02*
X87037500Y-85162500D01*
X85800000Y-79200000D02*
X84180000Y-79200000D01*
X87037500Y-85162500D02*
X87400000Y-84800000D01*
X87037500Y-86000000D02*
X88000000Y-86000000D01*
X94805000Y-69730000D02*
X95500000Y-70425000D01*
X87037500Y-91000000D02*
X90000000Y-91000000D01*
X87037500Y-80437500D02*
X85800000Y-79200000D01*
X87037500Y-91000000D02*
X87037500Y-89662500D01*
X127200000Y-66800000D02*
X127800000Y-66800000D01*
X127800000Y-66800000D02*
X129500000Y-68500000D01*
D31*
X131000000Y-84000000D02*
X131000000Y-82000000D01*
X129500000Y-70700000D02*
X129500000Y-68500000D01*
D30*
X112900000Y-62000000D02*
X111700000Y-63200000D01*
D31*
X131000000Y-82000000D02*
X131000000Y-80000000D01*
D30*
X132400000Y-90000000D02*
X143200000Y-90000000D01*
D32*
X126200000Y-80700000D02*
X128000000Y-78900000D01*
X129500000Y-78900000D02*
X130100000Y-78900000D01*
X129500000Y-78900000D02*
X129500000Y-75200000D01*
D30*
X143862500Y-70337500D02*
X143862500Y-56262500D01*
D31*
X131000000Y-84000000D02*
X131000000Y-86000000D01*
X131000000Y-80000000D02*
X131000000Y-78000000D01*
D32*
X130100000Y-78900000D02*
X131000000Y-78000000D01*
D31*
X129500000Y-54800000D02*
X129800000Y-54500000D01*
X131000000Y-86000000D02*
X131000000Y-88000000D01*
D30*
X131000000Y-88600000D02*
X132400000Y-90000000D01*
D31*
X129500000Y-68500000D02*
X129500000Y-54800000D01*
D32*
X129500000Y-78900000D02*
X128000000Y-78900000D01*
X125150000Y-80700000D02*
X126200000Y-80700000D01*
D30*
X131000000Y-88000000D02*
X131000000Y-88600000D01*
D32*
X128200000Y-69400000D02*
X129500000Y-70700000D01*
D30*
X111700000Y-63200000D02*
X111700000Y-65700000D01*
D32*
X129500000Y-75200000D02*
X129500000Y-70700000D01*
X111800000Y-69400000D02*
X128200000Y-69400000D01*
G04 #@! TA.AperFunction,Conductor*
G36*
X167436500Y-50017381D02*
G01*
X167482619Y-50063500D01*
X167499500Y-50126500D01*
X167499500Y-119316272D01*
X167484231Y-119376394D01*
X167442125Y-119421944D01*
X167383386Y-119441884D01*
X167322251Y-119431379D01*
X167273537Y-119392976D01*
X167249051Y-119335983D01*
X167231948Y-119228004D01*
X167131355Y-118852586D01*
X166992078Y-118489755D01*
X166815628Y-118143455D01*
X166603948Y-117817496D01*
X166397122Y-117562087D01*
X166397121Y-117562086D01*
X163959210Y-119999999D01*
X163959210Y-120000001D01*
X166397121Y-122437912D01*
X166603953Y-122182497D01*
X166815627Y-121856548D01*
X166992078Y-121510244D01*
X167131355Y-121147413D01*
X167231948Y-120771995D01*
X167249051Y-120664017D01*
X167273537Y-120607024D01*
X167322251Y-120568621D01*
X167383386Y-120558116D01*
X167442125Y-120578056D01*
X167484231Y-120623606D01*
X167499500Y-120683728D01*
X167499500Y-124873500D01*
X167482619Y-124936500D01*
X167436500Y-124982619D01*
X167373500Y-124999500D01*
X65126500Y-124999500D01*
X65063500Y-124982619D01*
X65017381Y-124936500D01*
X65000500Y-124873500D01*
X65000500Y-122997121D01*
X67562086Y-122997121D01*
X67562087Y-122997122D01*
X67817497Y-123203950D01*
X68143451Y-123415627D01*
X68489755Y-123592078D01*
X68852586Y-123731355D01*
X69228004Y-123831948D01*
X69611882Y-123892748D01*
X70000000Y-123913089D01*
X70388117Y-123892748D01*
X70771995Y-123831948D01*
X70858989Y-123808638D01*
X85301500Y-123808638D01*
X85308011Y-123869200D01*
X85359111Y-124006205D01*
X85446738Y-124123261D01*
X85563794Y-124210888D01*
X85563795Y-124210888D01*
X85563796Y-124210889D01*
X85700799Y-124261989D01*
X85761362Y-124268500D01*
X88398638Y-124268500D01*
X88459201Y-124261989D01*
X88596204Y-124210889D01*
X88713261Y-124123261D01*
X88800889Y-124006204D01*
X88851989Y-123869201D01*
X88858500Y-123808638D01*
X88858500Y-122490000D01*
X125936513Y-122490000D01*
X125956433Y-122755817D01*
X126015747Y-123015691D01*
X126089634Y-123203950D01*
X126113134Y-123263826D01*
X126246414Y-123494674D01*
X126412612Y-123703079D01*
X126608014Y-123884386D01*
X126608016Y-123884387D01*
X126608018Y-123884389D01*
X126709685Y-123953704D01*
X126828257Y-124034545D01*
X126952762Y-124094503D01*
X127068418Y-124150201D01*
X127141531Y-124172753D01*
X127323137Y-124228771D01*
X127586720Y-124268500D01*
X127853277Y-124268500D01*
X127853280Y-124268500D01*
X128116863Y-124228771D01*
X128371581Y-124150201D01*
X128611744Y-124034545D01*
X128831986Y-123884386D01*
X129027388Y-123703079D01*
X129193586Y-123494674D01*
X129326866Y-123263826D01*
X129424252Y-123015692D01*
X129474139Y-122797121D01*
X161162086Y-122797121D01*
X161162087Y-122797122D01*
X161417497Y-123003950D01*
X161743451Y-123215627D01*
X162089755Y-123392078D01*
X162452586Y-123531355D01*
X162828004Y-123631948D01*
X163211882Y-123692748D01*
X163600000Y-123713089D01*
X163988117Y-123692748D01*
X164371995Y-123631948D01*
X164747413Y-123531355D01*
X165110244Y-123392078D01*
X165456548Y-123215627D01*
X165782497Y-123003953D01*
X166037912Y-122797121D01*
X163600001Y-120359210D01*
X163599999Y-120359210D01*
X161162086Y-122797121D01*
X129474139Y-122797121D01*
X129483567Y-122755815D01*
X129503487Y-122490000D01*
X129483567Y-122224185D01*
X129424252Y-121964308D01*
X129397262Y-121895540D01*
X145121500Y-121895540D01*
X145129411Y-121972980D01*
X145132113Y-121999426D01*
X145187885Y-122167738D01*
X145246980Y-122263545D01*
X145280972Y-122318655D01*
X145406344Y-122444027D01*
X145406346Y-122444028D01*
X145406348Y-122444030D01*
X145557262Y-122537115D01*
X145725574Y-122592887D01*
X145829455Y-122603500D01*
X147170544Y-122603499D01*
X147274426Y-122592887D01*
X147442738Y-122537115D01*
X147593652Y-122444030D01*
X147719030Y-122318652D01*
X147812115Y-122167738D01*
X147812116Y-122167732D01*
X147813547Y-122165414D01*
X147853653Y-122124935D01*
X147907489Y-122106264D01*
X147964045Y-122113218D01*
X148011754Y-122144375D01*
X148125602Y-122263162D01*
X148125969Y-122263545D01*
X148314624Y-122403074D01*
X148314626Y-122403075D01*
X148314629Y-122403077D01*
X148524159Y-122508720D01*
X148748529Y-122577432D01*
X148864906Y-122592334D01*
X148981282Y-122607237D01*
X148981282Y-122607236D01*
X148981283Y-122607237D01*
X149215727Y-122597278D01*
X149445116Y-122547841D01*
X149662850Y-122460349D01*
X149862665Y-122337317D01*
X150038815Y-122182286D01*
X150186230Y-121999716D01*
X150201166Y-121972978D01*
X150245101Y-121927136D01*
X150305817Y-121908541D01*
X150367891Y-121921918D01*
X150415558Y-121963870D01*
X150421715Y-121972980D01*
X150503600Y-122094132D01*
X150665602Y-122263162D01*
X150665969Y-122263545D01*
X150854624Y-122403074D01*
X150854626Y-122403075D01*
X150854629Y-122403077D01*
X151064159Y-122508720D01*
X151288529Y-122577432D01*
X151404906Y-122592334D01*
X151521282Y-122607237D01*
X151521282Y-122607236D01*
X151521283Y-122607237D01*
X151755727Y-122597278D01*
X151985116Y-122547841D01*
X152202850Y-122460349D01*
X152402665Y-122337317D01*
X152578815Y-122182286D01*
X152726230Y-121999716D01*
X152741439Y-121972488D01*
X152785374Y-121926647D01*
X152846089Y-121908052D01*
X152908164Y-121921429D01*
X152955831Y-121963381D01*
X153043992Y-122093819D01*
X153206294Y-122263162D01*
X153394896Y-122402651D01*
X153604344Y-122508254D01*
X153828634Y-122576941D01*
X153865999Y-122581726D01*
X153866000Y-122581726D01*
X153866000Y-121254000D01*
X154374000Y-121254000D01*
X154374000Y-122579897D01*
X154524968Y-122547361D01*
X154742624Y-122459899D01*
X154942366Y-122336914D01*
X155118453Y-122181937D01*
X155265812Y-121999437D01*
X155380213Y-121794650D01*
X155458356Y-121573481D01*
X155498000Y-121342282D01*
X155498000Y-121254000D01*
X154374000Y-121254000D01*
X153866000Y-121254000D01*
X153866000Y-119420102D01*
X153715031Y-119452638D01*
X153497375Y-119540100D01*
X153297633Y-119663085D01*
X153121546Y-119818062D01*
X152974183Y-120000566D01*
X152959144Y-120027488D01*
X152915207Y-120073330D01*
X152854492Y-120091923D01*
X152792419Y-120078544D01*
X152744755Y-120036594D01*
X152656400Y-119905868D01*
X152494033Y-119736457D01*
X152494032Y-119736456D01*
X152494030Y-119736454D01*
X152305375Y-119596925D01*
X152095837Y-119491278D01*
X151871469Y-119422567D01*
X151837936Y-119418273D01*
X154374000Y-119418273D01*
X154374000Y-120746000D01*
X155498000Y-120746000D01*
X155498000Y-120716465D01*
X155483089Y-120541273D01*
X155423984Y-120314278D01*
X155327361Y-120100524D01*
X155259418Y-119999999D01*
X159886910Y-119999999D01*
X159907251Y-120388117D01*
X159968051Y-120771995D01*
X160068644Y-121147413D01*
X160207921Y-121510244D01*
X160384372Y-121856548D01*
X160596049Y-122182502D01*
X160802876Y-122437911D01*
X160802877Y-122437912D01*
X163240790Y-120000001D01*
X163240790Y-119999999D01*
X160802877Y-117562086D01*
X160596047Y-117817502D01*
X160384371Y-118143455D01*
X160207921Y-118489755D01*
X160068644Y-118852586D01*
X159968051Y-119228004D01*
X159907251Y-119611882D01*
X159886910Y-119999999D01*
X155259418Y-119999999D01*
X155196007Y-119906180D01*
X155033705Y-119736837D01*
X154845103Y-119597348D01*
X154635655Y-119491745D01*
X154411365Y-119423058D01*
X154374000Y-119418273D01*
X151837936Y-119418273D01*
X151638717Y-119392762D01*
X151404275Y-119402721D01*
X151174884Y-119452158D01*
X150957152Y-119539650D01*
X150957150Y-119539651D01*
X150930643Y-119555972D01*
X150757333Y-119662683D01*
X150581183Y-119817715D01*
X150433771Y-120000281D01*
X150418832Y-120027023D01*
X150374894Y-120072865D01*
X150314180Y-120091458D01*
X150252107Y-120078079D01*
X150204441Y-120036128D01*
X150116401Y-119905869D01*
X149954030Y-119736454D01*
X149765375Y-119596925D01*
X149555837Y-119491278D01*
X149331469Y-119422567D01*
X149098717Y-119392762D01*
X148864275Y-119402721D01*
X148634884Y-119452158D01*
X148417152Y-119539650D01*
X148417150Y-119539651D01*
X148390643Y-119555972D01*
X148217333Y-119662683D01*
X148041182Y-119817716D01*
X148018056Y-119846357D01*
X147970724Y-119882550D01*
X147912055Y-119892948D01*
X147855168Y-119875226D01*
X147812784Y-119833347D01*
X147803142Y-119817715D01*
X147719030Y-119681348D01*
X147719028Y-119681346D01*
X147719027Y-119681344D01*
X147593655Y-119555972D01*
X147593652Y-119555970D01*
X147442738Y-119462885D01*
X147274426Y-119407113D01*
X147170545Y-119396500D01*
X147170540Y-119396500D01*
X145829459Y-119396500D01*
X145725573Y-119407113D01*
X145557262Y-119462885D01*
X145406344Y-119555972D01*
X145280972Y-119681344D01*
X145280970Y-119681348D01*
X145187885Y-119832262D01*
X145132113Y-120000574D01*
X145121927Y-120100282D01*
X145121500Y-120104459D01*
X145121500Y-121895540D01*
X129397262Y-121895540D01*
X129326866Y-121716174D01*
X129193586Y-121485326D01*
X129027388Y-121276921D01*
X128831986Y-121095614D01*
X128611744Y-120945455D01*
X128611743Y-120945454D01*
X128611741Y-120945453D01*
X128371581Y-120829798D01*
X128116866Y-120751230D01*
X128116863Y-120751229D01*
X127853280Y-120711500D01*
X127586720Y-120711500D01*
X127323137Y-120751229D01*
X127323134Y-120751229D01*
X127323133Y-120751230D01*
X127068418Y-120829798D01*
X126828256Y-120945455D01*
X126608018Y-121095610D01*
X126412611Y-121276922D01*
X126246412Y-121485329D01*
X126113134Y-121716173D01*
X126015747Y-121964308D01*
X125956433Y-122224182D01*
X125936513Y-122490000D01*
X88858500Y-122490000D01*
X88858500Y-121171362D01*
X88851989Y-121110799D01*
X88800889Y-120973796D01*
X88799541Y-120971995D01*
X88713261Y-120856738D01*
X88596205Y-120769111D01*
X88527702Y-120743561D01*
X88459201Y-120718011D01*
X88398638Y-120711500D01*
X85761362Y-120711500D01*
X85700799Y-120718011D01*
X85563794Y-120769111D01*
X85446738Y-120856738D01*
X85359111Y-120973794D01*
X85308011Y-121110799D01*
X85301500Y-121171362D01*
X85301500Y-123808638D01*
X70858989Y-123808638D01*
X71147413Y-123731355D01*
X71510244Y-123592078D01*
X71856548Y-123415627D01*
X72182497Y-123203953D01*
X72437912Y-122997121D01*
X70000001Y-120559210D01*
X69999999Y-120559210D01*
X67562086Y-122997121D01*
X65000500Y-122997121D01*
X65000500Y-120200000D01*
X66286910Y-120200000D01*
X66307251Y-120588117D01*
X66368051Y-120971995D01*
X66468644Y-121347413D01*
X66607921Y-121710244D01*
X66784372Y-122056548D01*
X66996049Y-122382502D01*
X67202876Y-122637911D01*
X67202877Y-122637912D01*
X69640790Y-120200001D01*
X70359210Y-120200001D01*
X72797121Y-122637912D01*
X73003953Y-122382497D01*
X73215627Y-122056548D01*
X73392078Y-121710244D01*
X73531355Y-121347413D01*
X73631948Y-120971995D01*
X73692748Y-120588117D01*
X73713089Y-120200000D01*
X73692748Y-119811882D01*
X73631948Y-119428004D01*
X73531355Y-119052586D01*
X73392078Y-118689755D01*
X73215628Y-118343455D01*
X73003948Y-118017496D01*
X72797122Y-117762087D01*
X72797121Y-117762086D01*
X70359210Y-120199999D01*
X70359210Y-120200001D01*
X69640790Y-120200001D01*
X69640790Y-120199999D01*
X67202877Y-117762086D01*
X66996047Y-118017502D01*
X66784371Y-118343455D01*
X66607921Y-118689755D01*
X66468644Y-119052586D01*
X66368051Y-119428004D01*
X66307251Y-119811882D01*
X66286910Y-120200000D01*
X65000500Y-120200000D01*
X65000500Y-117402877D01*
X67562086Y-117402877D01*
X69999999Y-119840790D01*
X70000001Y-119840790D01*
X72437912Y-117402877D01*
X72437911Y-117402876D01*
X72182502Y-117196049D01*
X72013254Y-117086138D01*
X146291500Y-117086138D01*
X146298011Y-117146700D01*
X146349111Y-117283705D01*
X146436738Y-117400761D01*
X146553794Y-117488388D01*
X146553795Y-117488388D01*
X146553796Y-117488389D01*
X146690799Y-117539489D01*
X146751362Y-117546000D01*
X148848638Y-117546000D01*
X148909201Y-117539489D01*
X149046204Y-117488389D01*
X149104732Y-117444574D01*
X149163260Y-117400762D01*
X149163261Y-117400761D01*
X149243908Y-117293028D01*
X149291616Y-117254301D01*
X149351969Y-117242744D01*
X149410611Y-117261106D01*
X149613261Y-117385291D01*
X149832559Y-117476127D01*
X150063366Y-117531539D01*
X150300000Y-117550162D01*
X150536633Y-117531539D01*
X150767440Y-117476127D01*
X150986738Y-117385291D01*
X151173891Y-117270602D01*
X151173892Y-117270601D01*
X150029885Y-116126594D01*
X149997273Y-116070110D01*
X149997273Y-116037501D01*
X150659210Y-116037501D01*
X151544454Y-116922745D01*
X151553709Y-116923933D01*
X151603599Y-116959437D01*
X151730030Y-117107469D01*
X151910584Y-117261676D01*
X152113033Y-117385738D01*
X152113035Y-117385738D01*
X152113037Y-117385740D01*
X152332406Y-117476605D01*
X152507857Y-117518727D01*
X152563288Y-117532035D01*
X152580558Y-117533394D01*
X152800000Y-117550665D01*
X153036711Y-117532035D01*
X153267594Y-117476605D01*
X153486963Y-117385740D01*
X153689416Y-117261676D01*
X153758261Y-117202877D01*
X161162086Y-117202877D01*
X163599999Y-119640790D01*
X163600001Y-119640790D01*
X166037912Y-117202877D01*
X166037911Y-117202876D01*
X165782502Y-116996049D01*
X165456548Y-116784372D01*
X165110244Y-116607921D01*
X164747413Y-116468644D01*
X164371995Y-116368051D01*
X163988117Y-116307251D01*
X163600000Y-116286910D01*
X163211882Y-116307251D01*
X162828004Y-116368051D01*
X162452586Y-116468644D01*
X162089755Y-116607921D01*
X161743455Y-116784371D01*
X161417502Y-116996047D01*
X161162086Y-117202877D01*
X153758261Y-117202877D01*
X153869969Y-117107469D01*
X154024176Y-116926916D01*
X154148240Y-116724463D01*
X154239105Y-116505094D01*
X154294535Y-116274211D01*
X154313165Y-116037500D01*
X154294535Y-115800789D01*
X154239105Y-115569906D01*
X154148240Y-115350537D01*
X154024176Y-115148084D01*
X153996400Y-115115562D01*
X153869969Y-114967530D01*
X153689415Y-114813323D01*
X153486966Y-114689261D01*
X153267594Y-114598395D01*
X153036711Y-114542964D01*
X152800000Y-114524335D01*
X152563288Y-114542964D01*
X152332405Y-114598395D01*
X152113033Y-114689261D01*
X151910584Y-114813323D01*
X151730033Y-114967528D01*
X151603599Y-115115562D01*
X151553712Y-115151064D01*
X151544457Y-115152251D01*
X150659210Y-116037500D01*
X150659210Y-116037501D01*
X149997273Y-116037501D01*
X149997273Y-116004888D01*
X150029885Y-115948403D01*
X150300000Y-115678289D01*
X150300003Y-115678286D01*
X151173891Y-114804397D01*
X151173891Y-114804396D01*
X150986738Y-114689708D01*
X150767440Y-114598872D01*
X150536633Y-114543460D01*
X150300000Y-114524837D01*
X150063366Y-114543460D01*
X149832559Y-114598872D01*
X149613266Y-114689706D01*
X149410611Y-114813894D01*
X149351969Y-114832256D01*
X149291617Y-114820698D01*
X149243908Y-114781970D01*
X149163261Y-114674238D01*
X149046205Y-114586611D01*
X148977702Y-114561061D01*
X148909201Y-114535511D01*
X148848638Y-114529000D01*
X146751362Y-114529000D01*
X146690799Y-114535511D01*
X146553794Y-114586611D01*
X146436738Y-114674238D01*
X146349111Y-114791294D01*
X146298011Y-114928299D01*
X146291500Y-114988862D01*
X146291500Y-117086138D01*
X72013254Y-117086138D01*
X71856548Y-116984372D01*
X71510244Y-116807921D01*
X71147413Y-116668644D01*
X70771995Y-116568051D01*
X70388117Y-116507251D01*
X70000000Y-116486910D01*
X69611882Y-116507251D01*
X69228004Y-116568051D01*
X68852586Y-116668644D01*
X68489755Y-116807921D01*
X68143455Y-116984371D01*
X67817502Y-117196047D01*
X67562086Y-117402877D01*
X65000500Y-117402877D01*
X65000500Y-112981282D01*
X71912762Y-112981282D01*
X71922721Y-113215724D01*
X71972158Y-113445115D01*
X72037279Y-113607174D01*
X72059651Y-113662850D01*
X72122776Y-113765371D01*
X72182683Y-113862666D01*
X72337715Y-114038816D01*
X72520283Y-114186230D01*
X72725137Y-114300668D01*
X72725141Y-114300670D01*
X72946392Y-114378843D01*
X73177672Y-114418500D01*
X73803558Y-114418500D01*
X73803559Y-114418500D01*
X73978811Y-114403584D01*
X74083966Y-114376203D01*
X74205894Y-114344456D01*
X74419718Y-114247801D01*
X74614132Y-114116400D01*
X74783543Y-113954033D01*
X74923077Y-113765371D01*
X75028720Y-113555841D01*
X75097432Y-113331471D01*
X75127237Y-113098717D01*
X75117278Y-112864273D01*
X75067841Y-112634884D01*
X74980349Y-112417150D01*
X74857317Y-112217335D01*
X74857316Y-112217333D01*
X74702284Y-112041183D01*
X74519717Y-111893770D01*
X74492489Y-111878560D01*
X74446646Y-111834623D01*
X74428052Y-111773908D01*
X74441429Y-111711834D01*
X74483381Y-111664168D01*
X74613819Y-111576007D01*
X74783162Y-111413705D01*
X74922651Y-111225103D01*
X75028254Y-111015655D01*
X75096941Y-110791365D01*
X75101726Y-110754000D01*
X71940103Y-110754000D01*
X71972638Y-110904968D01*
X72060100Y-111122624D01*
X72183085Y-111322366D01*
X72338062Y-111498453D01*
X72520562Y-111645812D01*
X72547486Y-111660853D01*
X72593329Y-111704790D01*
X72611922Y-111765506D01*
X72598545Y-111827579D01*
X72556593Y-111875245D01*
X72425869Y-111963599D01*
X72256454Y-112125969D01*
X72116925Y-112314624D01*
X72011278Y-112524162D01*
X71942567Y-112748530D01*
X71912762Y-112981282D01*
X65000500Y-112981282D01*
X65000500Y-108630540D01*
X71916500Y-108630540D01*
X71916501Y-108630545D01*
X71927113Y-108734426D01*
X71982885Y-108902738D01*
X72075970Y-109053652D01*
X72075972Y-109053655D01*
X72201344Y-109179027D01*
X72201346Y-109179028D01*
X72201348Y-109179030D01*
X72352262Y-109272115D01*
X72352264Y-109272115D01*
X72355026Y-109273819D01*
X72395504Y-109313925D01*
X72414175Y-109367761D01*
X72407221Y-109424317D01*
X72376063Y-109472026D01*
X72256837Y-109586294D01*
X72117348Y-109774896D01*
X72011745Y-109984344D01*
X71943058Y-110208634D01*
X71938273Y-110245999D01*
X71938274Y-110246000D01*
X75099897Y-110246000D01*
X75067361Y-110095031D01*
X74979899Y-109877375D01*
X74856914Y-109677633D01*
X74850671Y-109670540D01*
X135576500Y-109670540D01*
X135576501Y-109670545D01*
X135587113Y-109774426D01*
X135642885Y-109942738D01*
X135668548Y-109984344D01*
X135735972Y-110093655D01*
X135861344Y-110219027D01*
X135861346Y-110219028D01*
X135861348Y-110219030D01*
X136012262Y-110312115D01*
X136180574Y-110367887D01*
X136284455Y-110378500D01*
X138075544Y-110378499D01*
X138179426Y-110367887D01*
X138347738Y-110312115D01*
X138498652Y-110219030D01*
X138531544Y-110186138D01*
X143191500Y-110186138D01*
X143193918Y-110208634D01*
X143198011Y-110246700D01*
X143249111Y-110383705D01*
X143336738Y-110500761D01*
X143453794Y-110588388D01*
X143453795Y-110588388D01*
X143453796Y-110588389D01*
X143590799Y-110639489D01*
X143651362Y-110646000D01*
X145748638Y-110646000D01*
X145809201Y-110639489D01*
X145946204Y-110588389D01*
X146063261Y-110500761D01*
X146150889Y-110383704D01*
X146201989Y-110246701D01*
X146208500Y-110186138D01*
X154391500Y-110186138D01*
X154393918Y-110208634D01*
X154398011Y-110246700D01*
X154449111Y-110383705D01*
X154536738Y-110500761D01*
X154653794Y-110588388D01*
X154653795Y-110588388D01*
X154653796Y-110588389D01*
X154790799Y-110639489D01*
X154851362Y-110646000D01*
X156948638Y-110646000D01*
X157009201Y-110639489D01*
X157146204Y-110588389D01*
X157263261Y-110500761D01*
X157350889Y-110383704D01*
X157401989Y-110246701D01*
X157408500Y-110186138D01*
X157408500Y-106888862D01*
X157401989Y-106828299D01*
X157350889Y-106691296D01*
X157318392Y-106647885D01*
X157263261Y-106574238D01*
X157146205Y-106486611D01*
X157044752Y-106448771D01*
X157009201Y-106435511D01*
X156948638Y-106429000D01*
X154851362Y-106429000D01*
X154790799Y-106435511D01*
X154653794Y-106486611D01*
X154536738Y-106574238D01*
X154449111Y-106691294D01*
X154426706Y-106751365D01*
X154398011Y-106828299D01*
X154391500Y-106888862D01*
X154391500Y-110186138D01*
X146208500Y-110186138D01*
X146208500Y-106888862D01*
X146201989Y-106828299D01*
X146150889Y-106691296D01*
X146118392Y-106647885D01*
X146063261Y-106574238D01*
X145946205Y-106486611D01*
X145844752Y-106448771D01*
X145809201Y-106435511D01*
X145748638Y-106429000D01*
X143651362Y-106429000D01*
X143590799Y-106435511D01*
X143453794Y-106486611D01*
X143336738Y-106574238D01*
X143249111Y-106691294D01*
X143226706Y-106751365D01*
X143198011Y-106828299D01*
X143191500Y-106888862D01*
X143191500Y-110186138D01*
X138531544Y-110186138D01*
X138624030Y-110093652D01*
X138717115Y-109942738D01*
X138772887Y-109774426D01*
X138783500Y-109670545D01*
X138783499Y-108329456D01*
X138772887Y-108225574D01*
X138717115Y-108057262D01*
X138624030Y-107906348D01*
X138624028Y-107906346D01*
X138624027Y-107906344D01*
X138498655Y-107780972D01*
X138498652Y-107780970D01*
X138347738Y-107687885D01*
X138347736Y-107687884D01*
X138344973Y-107686180D01*
X138304495Y-107646074D01*
X138285824Y-107592237D01*
X138292778Y-107535681D01*
X138323936Y-107487972D01*
X138443165Y-107373701D01*
X138582651Y-107185103D01*
X138688254Y-106975655D01*
X138756941Y-106751365D01*
X138761726Y-106714000D01*
X135600103Y-106714000D01*
X135632638Y-106864968D01*
X135720100Y-107082624D01*
X135843085Y-107282366D01*
X135998062Y-107458452D01*
X136026809Y-107481664D01*
X136063002Y-107528995D01*
X136073401Y-107587665D01*
X136055679Y-107644553D01*
X136013800Y-107686937D01*
X136012264Y-107687884D01*
X136012262Y-107687885D01*
X135925040Y-107741684D01*
X135861344Y-107780972D01*
X135735972Y-107906344D01*
X135735970Y-107906348D01*
X135642885Y-108057262D01*
X135587113Y-108225573D01*
X135587113Y-108225574D01*
X135576500Y-108329459D01*
X135576500Y-109670540D01*
X74850671Y-109670540D01*
X74701936Y-109501545D01*
X74673190Y-109478334D01*
X74636997Y-109431002D01*
X74626599Y-109372333D01*
X74644322Y-109315445D01*
X74686201Y-109273062D01*
X74687734Y-109272116D01*
X74687738Y-109272115D01*
X74838652Y-109179030D01*
X74964030Y-109053652D01*
X75057115Y-108902738D01*
X75112887Y-108734426D01*
X75123500Y-108630545D01*
X75123499Y-107289456D01*
X75112887Y-107185574D01*
X75057115Y-107017262D01*
X74964030Y-106866348D01*
X74964028Y-106866346D01*
X74964027Y-106866344D01*
X74838655Y-106740972D01*
X74838652Y-106740970D01*
X74687738Y-106647885D01*
X74519426Y-106592113D01*
X74415545Y-106581500D01*
X74415540Y-106581500D01*
X72624459Y-106581500D01*
X72520573Y-106592113D01*
X72352262Y-106647885D01*
X72201344Y-106740972D01*
X72075972Y-106866344D01*
X72075970Y-106866348D01*
X71982885Y-107017262D01*
X71927113Y-107185574D01*
X71917225Y-107282366D01*
X71916500Y-107289459D01*
X71916500Y-108630540D01*
X65000500Y-108630540D01*
X65000500Y-104710000D01*
X85296513Y-104710000D01*
X85303153Y-104798605D01*
X85316433Y-104975817D01*
X85375747Y-105235691D01*
X85427845Y-105368432D01*
X85473134Y-105483826D01*
X85606414Y-105714674D01*
X85772612Y-105923079D01*
X85968014Y-106104386D01*
X86188257Y-106254545D01*
X86312762Y-106314503D01*
X86428418Y-106370201D01*
X86501531Y-106392753D01*
X86683137Y-106448771D01*
X86946720Y-106488500D01*
X87213277Y-106488500D01*
X87213280Y-106488500D01*
X87476863Y-106448771D01*
X87731581Y-106370201D01*
X87971744Y-106254545D01*
X88191986Y-106104386D01*
X88387388Y-105923079D01*
X88553586Y-105714674D01*
X88686866Y-105483826D01*
X88784252Y-105235692D01*
X88843567Y-104975815D01*
X88863487Y-104710000D01*
X88843567Y-104444185D01*
X88784252Y-104184308D01*
X88686866Y-103936174D01*
X88553586Y-103705326D01*
X88387388Y-103496921D01*
X88191986Y-103315614D01*
X87971744Y-103165455D01*
X87971743Y-103165454D01*
X87971741Y-103165453D01*
X87731581Y-103049798D01*
X87476866Y-102971230D01*
X87476863Y-102971229D01*
X87213280Y-102931500D01*
X86946720Y-102931500D01*
X86683137Y-102971229D01*
X86683134Y-102971229D01*
X86683133Y-102971230D01*
X86428418Y-103049798D01*
X86188256Y-103165455D01*
X85968018Y-103315610D01*
X85968015Y-103315613D01*
X85968014Y-103315614D01*
X85772612Y-103496921D01*
X85637777Y-103665999D01*
X85606412Y-103705329D01*
X85473134Y-103936173D01*
X85375747Y-104184308D01*
X85316433Y-104444182D01*
X85316433Y-104444185D01*
X85296513Y-104710000D01*
X65000500Y-104710000D01*
X65000500Y-98997121D01*
X67562086Y-98997121D01*
X67562087Y-98997122D01*
X67817497Y-99203950D01*
X68143451Y-99415627D01*
X68489755Y-99592078D01*
X68852586Y-99731355D01*
X69228004Y-99831948D01*
X69611882Y-99892748D01*
X70000000Y-99913089D01*
X70388117Y-99892748D01*
X70771995Y-99831948D01*
X71147413Y-99731355D01*
X71510244Y-99592078D01*
X71856548Y-99415627D01*
X72182497Y-99203953D01*
X72437912Y-98997121D01*
X70000001Y-96559210D01*
X69999999Y-96559210D01*
X67562086Y-98997121D01*
X65000500Y-98997121D01*
X65000500Y-96200000D01*
X66286910Y-96200000D01*
X66307251Y-96588117D01*
X66368051Y-96971995D01*
X66468644Y-97347413D01*
X66607921Y-97710244D01*
X66784372Y-98056548D01*
X66996049Y-98382502D01*
X67202876Y-98637911D01*
X67202877Y-98637912D01*
X69640790Y-96200001D01*
X70359210Y-96200001D01*
X72797121Y-98637912D01*
X73003953Y-98382497D01*
X73215627Y-98056548D01*
X73392078Y-97710244D01*
X73531355Y-97347413D01*
X73631948Y-96971995D01*
X73692748Y-96588117D01*
X73713089Y-96200000D01*
X73692748Y-95811882D01*
X73631948Y-95428004D01*
X73531355Y-95052586D01*
X73392078Y-94689755D01*
X73215628Y-94343455D01*
X73003948Y-94017496D01*
X72797122Y-93762087D01*
X72797121Y-93762086D01*
X70359210Y-96199999D01*
X70359210Y-96200001D01*
X69640790Y-96200001D01*
X69640790Y-96199999D01*
X67202877Y-93762086D01*
X66996047Y-94017502D01*
X66784371Y-94343455D01*
X66607921Y-94689755D01*
X66468644Y-95052586D01*
X66368051Y-95428004D01*
X66307251Y-95811882D01*
X66286910Y-96200000D01*
X65000500Y-96200000D01*
X65000500Y-93402877D01*
X67562086Y-93402877D01*
X69999999Y-95840790D01*
X70000001Y-95840790D01*
X72437912Y-93402877D01*
X72437911Y-93402876D01*
X72182502Y-93196049D01*
X71856548Y-92984372D01*
X71510244Y-92807921D01*
X71147413Y-92668644D01*
X70771995Y-92568051D01*
X70388117Y-92507251D01*
X70000000Y-92486910D01*
X69611882Y-92507251D01*
X69228004Y-92568051D01*
X68852586Y-92668644D01*
X68489755Y-92807921D01*
X68143455Y-92984371D01*
X67817502Y-93196047D01*
X67562086Y-93402877D01*
X65000500Y-93402877D01*
X65000500Y-68600000D01*
X70086496Y-68600000D01*
X70106458Y-68789929D01*
X70165472Y-68971555D01*
X70224619Y-69074000D01*
X70241500Y-69137000D01*
X70241500Y-90282268D01*
X70235333Y-90321204D01*
X70206458Y-90410069D01*
X70186496Y-90599999D01*
X70206458Y-90789929D01*
X70265472Y-90971556D01*
X70360958Y-91136942D01*
X70479675Y-91268790D01*
X70488747Y-91278866D01*
X70643248Y-91391118D01*
X70817712Y-91468794D01*
X71004513Y-91508500D01*
X71195485Y-91508500D01*
X71195487Y-91508500D01*
X71382288Y-91468794D01*
X71556752Y-91391118D01*
X71711253Y-91278866D01*
X71839040Y-91136944D01*
X71856556Y-91106606D01*
X71905422Y-91021968D01*
X71951541Y-90975849D01*
X72014541Y-90958968D01*
X72036606Y-90958968D01*
X72036608Y-90958968D01*
X72223409Y-90919262D01*
X72397873Y-90841586D01*
X72552374Y-90729334D01*
X72680161Y-90587412D01*
X72775648Y-90422024D01*
X72834663Y-90240396D01*
X72854625Y-90050468D01*
X72834663Y-89860540D01*
X72795540Y-89740133D01*
X72775648Y-89678911D01*
X72680162Y-89513525D01*
X72641363Y-89470435D01*
X72617368Y-89431279D01*
X72608999Y-89386124D01*
X72608999Y-89284349D01*
X72625880Y-89221349D01*
X72671999Y-89175230D01*
X72734999Y-89158349D01*
X72797999Y-89175230D01*
X72844118Y-89221349D01*
X72910458Y-89336254D01*
X73004093Y-89440246D01*
X73038247Y-89478178D01*
X73192748Y-89590430D01*
X73367212Y-89668106D01*
X73554013Y-89707812D01*
X73744985Y-89707812D01*
X73744987Y-89707812D01*
X73931788Y-89668106D01*
X74106252Y-89590430D01*
X74260753Y-89478178D01*
X74316743Y-89415994D01*
X74364369Y-89383007D01*
X74421724Y-89374818D01*
X74476681Y-89393162D01*
X74517619Y-89434159D01*
X74526367Y-89448342D01*
X74651657Y-89573632D01*
X74802477Y-89666659D01*
X74970671Y-89722393D01*
X75074497Y-89733000D01*
X75208500Y-89733000D01*
X75208500Y-87267000D01*
X75074497Y-87267000D01*
X74970671Y-87277606D01*
X74802477Y-87333340D01*
X74651657Y-87426367D01*
X74573595Y-87504430D01*
X74523436Y-87535168D01*
X74464789Y-87539784D01*
X74410439Y-87517271D01*
X74372233Y-87472538D01*
X74358500Y-87415335D01*
X74358500Y-86584665D01*
X74372233Y-86527462D01*
X74410439Y-86482729D01*
X74464789Y-86460216D01*
X74523436Y-86464832D01*
X74573595Y-86495570D01*
X74651657Y-86573632D01*
X74802477Y-86666659D01*
X74970671Y-86722393D01*
X75074497Y-86733000D01*
X75208500Y-86733000D01*
X75208500Y-85372000D01*
X75225381Y-85309000D01*
X75271500Y-85262881D01*
X75334500Y-85246000D01*
X75590500Y-85246000D01*
X75653500Y-85262881D01*
X75699619Y-85309000D01*
X75716500Y-85372000D01*
X75716500Y-86733000D01*
X75850503Y-86733000D01*
X75954328Y-86722393D01*
X76122522Y-86666659D01*
X76273342Y-86573632D01*
X76409049Y-86437926D01*
X76411369Y-86440246D01*
X76438262Y-86414484D01*
X76499671Y-86398488D01*
X76561089Y-86414451D01*
X76588301Y-86440493D01*
X76590556Y-86438239D01*
X76726344Y-86574027D01*
X76726346Y-86574028D01*
X76726348Y-86574030D01*
X76877262Y-86667115D01*
X77045574Y-86722887D01*
X77149455Y-86733500D01*
X77925544Y-86733499D01*
X78029426Y-86722887D01*
X78197738Y-86667115D01*
X78348652Y-86574030D01*
X78397179Y-86525503D01*
X78477278Y-86445405D01*
X78518155Y-86418091D01*
X78566373Y-86408500D01*
X78648510Y-86408500D01*
X78695925Y-86417762D01*
X78736370Y-86444186D01*
X78763897Y-86483885D01*
X78771204Y-86500544D01*
X78801139Y-86568790D01*
X78874573Y-86681189D01*
X78924278Y-86757268D01*
X79075237Y-86921252D01*
X79076762Y-86922908D01*
X79254418Y-87061185D01*
X79254420Y-87061186D01*
X79254424Y-87061189D01*
X79287682Y-87079187D01*
X79335952Y-87125503D01*
X79353711Y-87190000D01*
X79335952Y-87254497D01*
X79287682Y-87300812D01*
X79262794Y-87314281D01*
X79254418Y-87318814D01*
X79076758Y-87457094D01*
X78990460Y-87550838D01*
X78948373Y-87580888D01*
X78897760Y-87591500D01*
X78566373Y-87591500D01*
X78518155Y-87581909D01*
X78477278Y-87554595D01*
X78348655Y-87425972D01*
X78331410Y-87415335D01*
X78197738Y-87332885D01*
X78029426Y-87277113D01*
X77925545Y-87266500D01*
X77925540Y-87266500D01*
X77149459Y-87266500D01*
X77045573Y-87277113D01*
X76877262Y-87332885D01*
X76726344Y-87425972D01*
X76590556Y-87561761D01*
X76588302Y-87559507D01*
X76561081Y-87585552D01*
X76499672Y-87601511D01*
X76438272Y-87585520D01*
X76411368Y-87559754D01*
X76409049Y-87562074D01*
X76273342Y-87426367D01*
X76122522Y-87333340D01*
X75954328Y-87277606D01*
X75850503Y-87267000D01*
X75716500Y-87267000D01*
X75716500Y-89733000D01*
X75850503Y-89733000D01*
X75954328Y-89722393D01*
X76122522Y-89666659D01*
X76273342Y-89573632D01*
X76409049Y-89437926D01*
X76411369Y-89440246D01*
X76438262Y-89414484D01*
X76499671Y-89398488D01*
X76561089Y-89414451D01*
X76588301Y-89440493D01*
X76590556Y-89438239D01*
X76592095Y-89439778D01*
X76600148Y-89451830D01*
X76606936Y-89458326D01*
X76608692Y-89461172D01*
X76607062Y-89462177D01*
X76619409Y-89480655D01*
X76629000Y-89528873D01*
X76629000Y-98383284D01*
X76628310Y-98396454D01*
X76623996Y-98437499D01*
X76643958Y-98627429D01*
X76702972Y-98809056D01*
X76798458Y-98974442D01*
X76886767Y-99072519D01*
X76926247Y-99116366D01*
X77080748Y-99228618D01*
X77255212Y-99306294D01*
X77442013Y-99346000D01*
X77632985Y-99346000D01*
X77632987Y-99346000D01*
X77819788Y-99306294D01*
X77994252Y-99228618D01*
X78148753Y-99116366D01*
X78276540Y-98974444D01*
X78372027Y-98809056D01*
X78431042Y-98627428D01*
X78451004Y-98437500D01*
X78446690Y-98396454D01*
X78446000Y-98383284D01*
X78446000Y-96438085D01*
X78462516Y-96375721D01*
X78507735Y-96329706D01*
X78569801Y-96312104D01*
X78632444Y-96327530D01*
X78679241Y-96371938D01*
X78726367Y-96448342D01*
X78851657Y-96573632D01*
X79002477Y-96666659D01*
X79170671Y-96722393D01*
X79274497Y-96733000D01*
X79546000Y-96733000D01*
X79546000Y-95891500D01*
X80054000Y-95891500D01*
X80054000Y-96733000D01*
X80325503Y-96733000D01*
X80429328Y-96722393D01*
X80597522Y-96666659D01*
X80748342Y-96573632D01*
X80873632Y-96448342D01*
X80966659Y-96297522D01*
X81022393Y-96129328D01*
X81033000Y-96025503D01*
X81033000Y-95891500D01*
X80054000Y-95891500D01*
X79546000Y-95891500D01*
X79546000Y-95509500D01*
X79562881Y-95446500D01*
X79609000Y-95400381D01*
X79672000Y-95383500D01*
X81033000Y-95383500D01*
X81033000Y-95249497D01*
X81022393Y-95145671D01*
X80966659Y-94977477D01*
X80873632Y-94826657D01*
X80737926Y-94690951D01*
X80740246Y-94688630D01*
X80714467Y-94661706D01*
X80698488Y-94600294D01*
X80714468Y-94538881D01*
X80740493Y-94511698D01*
X80738239Y-94509444D01*
X80874027Y-94373655D01*
X80874027Y-94373654D01*
X80874030Y-94373652D01*
X80967115Y-94222738D01*
X81022887Y-94054426D01*
X81028948Y-93995092D01*
X81046719Y-93942303D01*
X81085517Y-93902330D01*
X81137758Y-93882993D01*
X81193230Y-93888069D01*
X81210072Y-93893542D01*
X81224065Y-93895012D01*
X81243501Y-93898613D01*
X81257097Y-93902257D01*
X81325406Y-93905836D01*
X81331930Y-93906349D01*
X81352390Y-93908500D01*
X81372926Y-93908500D01*
X81379519Y-93908672D01*
X81447810Y-93912252D01*
X81461574Y-93910072D01*
X81461707Y-93910051D01*
X81481416Y-93908500D01*
X87502497Y-93908500D01*
X87559700Y-93922233D01*
X87604433Y-93960439D01*
X87626946Y-94014789D01*
X87622330Y-94073436D01*
X87591592Y-94123595D01*
X84160592Y-97554595D01*
X84119715Y-97581909D01*
X84071497Y-97591500D01*
X83804510Y-97591500D01*
X83764143Y-97600079D01*
X83751126Y-97602141D01*
X83710071Y-97606457D01*
X83670817Y-97619212D01*
X83658079Y-97622625D01*
X83617713Y-97631205D01*
X83580005Y-97647993D01*
X83567698Y-97652717D01*
X83528445Y-97665471D01*
X83492709Y-97686104D01*
X83480959Y-97692091D01*
X83443247Y-97708881D01*
X83409851Y-97733144D01*
X83398798Y-97740323D01*
X83363055Y-97760960D01*
X83332387Y-97788574D01*
X83322141Y-97796871D01*
X83288746Y-97821134D01*
X83261129Y-97851806D01*
X83251806Y-97861129D01*
X83221134Y-97888746D01*
X83196871Y-97922141D01*
X83188574Y-97932387D01*
X83160960Y-97963055D01*
X83140323Y-97998798D01*
X83133144Y-98009851D01*
X83108881Y-98043247D01*
X83092091Y-98080959D01*
X83086104Y-98092709D01*
X83065471Y-98128445D01*
X83052717Y-98167698D01*
X83047993Y-98180005D01*
X83031205Y-98217713D01*
X83022625Y-98258079D01*
X83019212Y-98270817D01*
X83006457Y-98310071D01*
X83002141Y-98351126D01*
X83000079Y-98364143D01*
X82991500Y-98404510D01*
X82991500Y-98445784D01*
X82990810Y-98458954D01*
X82986496Y-98500000D01*
X82990810Y-98541046D01*
X82991500Y-98554216D01*
X82991500Y-98595489D01*
X83000079Y-98635855D01*
X83002141Y-98648874D01*
X83006457Y-98689927D01*
X83019212Y-98729183D01*
X83022625Y-98741921D01*
X83031205Y-98782286D01*
X83047994Y-98819996D01*
X83052720Y-98832308D01*
X83065471Y-98871554D01*
X83086107Y-98907295D01*
X83092095Y-98919048D01*
X83108882Y-98956753D01*
X83133144Y-98990148D01*
X83140325Y-99001205D01*
X83160959Y-99036943D01*
X83188575Y-99067614D01*
X83196873Y-99077861D01*
X83221134Y-99111253D01*
X83251812Y-99138875D01*
X83261131Y-99148195D01*
X83286229Y-99176070D01*
X83288747Y-99178866D01*
X83322142Y-99203129D01*
X83332385Y-99211424D01*
X83351479Y-99228616D01*
X83363056Y-99239040D01*
X83392384Y-99255973D01*
X83398796Y-99259675D01*
X83409852Y-99266854D01*
X83443248Y-99291118D01*
X83450061Y-99294151D01*
X83480957Y-99307907D01*
X83492710Y-99313896D01*
X83528440Y-99334525D01*
X83528441Y-99334525D01*
X83528444Y-99334527D01*
X83567706Y-99347283D01*
X83580003Y-99352004D01*
X83617712Y-99368794D01*
X83658086Y-99377375D01*
X83670801Y-99380781D01*
X83710072Y-99393542D01*
X83751131Y-99397857D01*
X83764139Y-99399918D01*
X83804513Y-99408500D01*
X83852390Y-99408500D01*
X83995487Y-99408500D01*
X84418584Y-99408500D01*
X84438293Y-99410051D01*
X84439402Y-99410226D01*
X84452190Y-99412252D01*
X84520480Y-99408672D01*
X84527074Y-99408500D01*
X84547613Y-99408500D01*
X84562077Y-99406979D01*
X84568039Y-99406352D01*
X84574589Y-99405837D01*
X84642903Y-99402257D01*
X84656494Y-99398614D01*
X84675938Y-99395012D01*
X84689928Y-99393542D01*
X84755014Y-99372393D01*
X84761299Y-99370532D01*
X84827370Y-99352829D01*
X84839910Y-99346439D01*
X84858162Y-99338878D01*
X84871556Y-99334527D01*
X84930799Y-99300321D01*
X84936584Y-99297181D01*
X84981667Y-99274211D01*
X84997530Y-99266129D01*
X85008467Y-99257272D01*
X85024764Y-99246072D01*
X85036944Y-99239040D01*
X85069118Y-99210070D01*
X85087768Y-99193278D01*
X85092765Y-99189008D01*
X85108741Y-99176072D01*
X85123282Y-99161529D01*
X85128028Y-99157026D01*
X85178866Y-99111253D01*
X85187136Y-99099868D01*
X85199972Y-99084839D01*
X89484839Y-94799972D01*
X89499868Y-94787136D01*
X89511253Y-94778866D01*
X89557026Y-94728028D01*
X89561529Y-94723282D01*
X89576072Y-94708741D01*
X89589008Y-94692765D01*
X89593278Y-94687768D01*
X89639038Y-94636946D01*
X89639037Y-94636946D01*
X89639040Y-94636944D01*
X89646073Y-94624760D01*
X89657265Y-94608475D01*
X89666129Y-94597530D01*
X89697196Y-94536557D01*
X89700324Y-94530795D01*
X89734527Y-94471556D01*
X89738873Y-94458177D01*
X89746437Y-94439915D01*
X89752830Y-94427370D01*
X89770531Y-94361302D01*
X89772402Y-94354986D01*
X89776149Y-94343455D01*
X89793542Y-94289928D01*
X89795012Y-94275937D01*
X89798614Y-94256494D01*
X89802257Y-94242903D01*
X89805837Y-94174590D01*
X89806349Y-94168069D01*
X89813504Y-94100000D01*
X89812032Y-94086005D01*
X89811515Y-94066236D01*
X89812946Y-94038960D01*
X89813469Y-94038987D01*
X89815751Y-94000299D01*
X89841209Y-93952670D01*
X89884270Y-93920074D01*
X89937021Y-93908500D01*
X90518584Y-93908500D01*
X90538293Y-93910051D01*
X90538426Y-93910072D01*
X90552190Y-93912252D01*
X90620480Y-93908672D01*
X90627074Y-93908500D01*
X90647613Y-93908500D01*
X90662077Y-93906979D01*
X90668039Y-93906352D01*
X90674589Y-93905837D01*
X90742903Y-93902257D01*
X90756494Y-93898614D01*
X90775938Y-93895012D01*
X90789928Y-93893542D01*
X90855014Y-93872393D01*
X90861299Y-93870532D01*
X90927370Y-93852829D01*
X90939910Y-93846439D01*
X90958162Y-93838878D01*
X90971556Y-93834527D01*
X91030799Y-93800321D01*
X91036584Y-93797181D01*
X91097530Y-93766129D01*
X91108467Y-93757272D01*
X91124764Y-93746072D01*
X91136944Y-93739040D01*
X91187768Y-93693278D01*
X91192765Y-93689008D01*
X91208741Y-93676072D01*
X91223282Y-93661529D01*
X91228028Y-93657026D01*
X91278866Y-93611253D01*
X91287134Y-93599871D01*
X91299969Y-93584842D01*
X91676072Y-93208741D01*
X91735604Y-93149209D01*
X91735609Y-93149214D01*
X91735623Y-93149188D01*
X91739430Y-93145381D01*
X91780301Y-93118085D01*
X91828504Y-93108500D01*
X93295487Y-93108500D01*
X93335857Y-93099918D01*
X93348870Y-93097857D01*
X93389928Y-93093542D01*
X93429178Y-93080787D01*
X93441914Y-93077375D01*
X93482288Y-93068794D01*
X93519997Y-93052003D01*
X93532286Y-93047285D01*
X93571556Y-93034527D01*
X93577917Y-93030853D01*
X93607294Y-93013893D01*
X93619052Y-93007902D01*
X93619167Y-93007850D01*
X93656752Y-92991118D01*
X93690148Y-92966853D01*
X93701202Y-92959675D01*
X93736944Y-92939040D01*
X93767618Y-92911419D01*
X93777857Y-92903128D01*
X93811253Y-92878866D01*
X93838886Y-92848174D01*
X93848174Y-92838886D01*
X93878866Y-92811253D01*
X93903128Y-92777857D01*
X93911419Y-92767618D01*
X93939040Y-92736944D01*
X93959675Y-92701202D01*
X93966854Y-92690148D01*
X93979027Y-92673393D01*
X93991118Y-92656752D01*
X94007901Y-92619052D01*
X94013893Y-92607294D01*
X94034524Y-92571561D01*
X94034523Y-92571561D01*
X94034527Y-92571556D01*
X94047285Y-92532286D01*
X94052003Y-92519997D01*
X94068794Y-92482288D01*
X94077375Y-92441914D01*
X94080789Y-92429174D01*
X94093542Y-92389928D01*
X94097857Y-92348870D01*
X94099920Y-92335849D01*
X94102709Y-92322732D01*
X94108500Y-92295487D01*
X94108500Y-92254216D01*
X94109190Y-92241046D01*
X94111783Y-92216372D01*
X94113504Y-92200000D01*
X94109190Y-92158954D01*
X94108500Y-92145784D01*
X94108500Y-92104513D01*
X94103695Y-92081909D01*
X94099918Y-92064139D01*
X94097856Y-92051123D01*
X94093542Y-92010072D01*
X94080781Y-91970801D01*
X94077375Y-91958086D01*
X94068794Y-91917712D01*
X94052004Y-91880003D01*
X94047283Y-91867706D01*
X94034527Y-91828444D01*
X94034525Y-91828440D01*
X94013896Y-91792710D01*
X94007907Y-91780957D01*
X93998196Y-91759147D01*
X93991118Y-91743248D01*
X93966854Y-91709852D01*
X93959675Y-91698796D01*
X93955973Y-91692384D01*
X93939040Y-91663056D01*
X93911424Y-91632385D01*
X93903129Y-91622142D01*
X93878866Y-91588747D01*
X93848195Y-91561131D01*
X93838875Y-91551812D01*
X93811253Y-91521134D01*
X93777861Y-91496873D01*
X93767614Y-91488575D01*
X93736943Y-91460959D01*
X93701205Y-91440325D01*
X93690148Y-91433144D01*
X93656753Y-91408882D01*
X93619048Y-91392095D01*
X93607295Y-91386107D01*
X93571554Y-91365471D01*
X93532308Y-91352720D01*
X93519996Y-91347994D01*
X93482286Y-91331205D01*
X93441921Y-91322625D01*
X93429183Y-91319212D01*
X93389927Y-91306457D01*
X93348874Y-91302141D01*
X93335855Y-91300079D01*
X93295489Y-91291500D01*
X93295487Y-91291500D01*
X93247610Y-91291500D01*
X92095487Y-91291500D01*
X92047610Y-91291500D01*
X91481415Y-91291500D01*
X91461706Y-91289949D01*
X91456787Y-91289170D01*
X91447809Y-91287748D01*
X91447808Y-91287748D01*
X91379519Y-91291327D01*
X91372925Y-91291500D01*
X91352385Y-91291500D01*
X91331967Y-91293645D01*
X91325399Y-91294162D01*
X91257098Y-91297742D01*
X91249572Y-91299758D01*
X91243499Y-91301385D01*
X91224070Y-91304986D01*
X91210071Y-91306457D01*
X91145016Y-91327595D01*
X91138695Y-91329468D01*
X91072626Y-91347172D01*
X91060090Y-91353559D01*
X91041840Y-91361118D01*
X91028447Y-91365470D01*
X90969222Y-91399664D01*
X90963425Y-91402812D01*
X90902469Y-91433870D01*
X90891529Y-91442730D01*
X90875240Y-91453925D01*
X90863054Y-91460960D01*
X90812229Y-91506722D01*
X90807225Y-91510997D01*
X90791252Y-91523933D01*
X90776727Y-91538457D01*
X90771950Y-91542990D01*
X90721136Y-91588743D01*
X90712860Y-91600134D01*
X90700022Y-91615163D01*
X90331731Y-91983453D01*
X90331726Y-91983460D01*
X90260589Y-92054597D01*
X90219716Y-92081909D01*
X90171497Y-92091500D01*
X88111090Y-92091500D01*
X88047298Y-92074158D01*
X88001066Y-92026906D01*
X87985120Y-91962751D01*
X88003849Y-91899353D01*
X88066659Y-91797521D01*
X88122393Y-91629328D01*
X88133000Y-91525503D01*
X88133000Y-91254000D01*
X86909500Y-91254000D01*
X86846500Y-91237119D01*
X86800381Y-91191000D01*
X86783500Y-91128000D01*
X86783500Y-89767000D01*
X87291500Y-89767000D01*
X87291500Y-90746000D01*
X88133000Y-90746000D01*
X88133000Y-90474497D01*
X88122393Y-90370671D01*
X88066659Y-90202477D01*
X87973632Y-90051657D01*
X87848342Y-89926367D01*
X87697522Y-89833340D01*
X87529328Y-89777606D01*
X87425503Y-89767000D01*
X87291500Y-89767000D01*
X86783500Y-89767000D01*
X86649497Y-89767000D01*
X86545671Y-89777606D01*
X86377477Y-89833340D01*
X86226657Y-89926367D01*
X86090951Y-90062074D01*
X86088631Y-90059754D01*
X86061696Y-90085537D01*
X86000293Y-90101511D01*
X85938890Y-90085536D01*
X85911697Y-90059507D01*
X85909444Y-90061761D01*
X85773655Y-89925972D01*
X85761773Y-89918643D01*
X85622738Y-89832885D01*
X85454426Y-89777113D01*
X85350545Y-89766500D01*
X85350543Y-89766500D01*
X85349182Y-89766361D01*
X85284198Y-89740133D01*
X85243276Y-89683245D01*
X85239075Y-89613294D01*
X85272890Y-89551921D01*
X86079410Y-88745402D01*
X86120285Y-88718091D01*
X86168503Y-88708500D01*
X90195487Y-88708500D01*
X90235857Y-88699918D01*
X90248870Y-88697857D01*
X90289928Y-88693542D01*
X90329178Y-88680787D01*
X90341914Y-88677375D01*
X90382288Y-88668794D01*
X90419997Y-88652003D01*
X90432286Y-88647285D01*
X90471556Y-88634527D01*
X90477917Y-88630853D01*
X90507294Y-88613893D01*
X90519052Y-88607902D01*
X90526862Y-88604425D01*
X90556752Y-88591118D01*
X90590148Y-88566853D01*
X90601202Y-88559675D01*
X90636944Y-88539040D01*
X90667618Y-88511419D01*
X90677857Y-88503128D01*
X90711253Y-88478866D01*
X90738886Y-88448174D01*
X90748174Y-88438886D01*
X90778866Y-88411253D01*
X90803128Y-88377857D01*
X90811419Y-88367618D01*
X90839040Y-88336944D01*
X90859675Y-88301202D01*
X90866854Y-88290148D01*
X90891118Y-88256752D01*
X90907901Y-88219052D01*
X90913893Y-88207294D01*
X90934524Y-88171561D01*
X90934523Y-88171561D01*
X90934527Y-88171556D01*
X90947285Y-88132286D01*
X90952003Y-88119997D01*
X90968794Y-88082288D01*
X90977375Y-88041914D01*
X90980789Y-88029174D01*
X90993542Y-87989928D01*
X90997857Y-87948870D01*
X90999920Y-87935849D01*
X91008500Y-87895487D01*
X91008500Y-87854216D01*
X91009190Y-87841046D01*
X91009573Y-87837398D01*
X91013504Y-87800000D01*
X91009190Y-87758954D01*
X91008500Y-87745784D01*
X91008500Y-87704513D01*
X91008499Y-87704512D01*
X90999918Y-87664139D01*
X90997856Y-87651123D01*
X90996412Y-87637384D01*
X90993542Y-87610072D01*
X90980781Y-87570801D01*
X90977375Y-87558086D01*
X90968794Y-87517712D01*
X90952004Y-87480003D01*
X90947283Y-87467706D01*
X90934527Y-87428444D01*
X90930229Y-87421000D01*
X90913896Y-87392710D01*
X90907907Y-87380957D01*
X90891118Y-87343249D01*
X90891118Y-87343248D01*
X90866854Y-87309852D01*
X90859675Y-87298796D01*
X90850303Y-87282564D01*
X90839040Y-87263056D01*
X90820739Y-87242731D01*
X90811424Y-87232385D01*
X90803129Y-87222142D01*
X90778866Y-87188747D01*
X90748195Y-87161131D01*
X90738875Y-87151812D01*
X90711253Y-87121134D01*
X90677861Y-87096873D01*
X90667614Y-87088575D01*
X90636943Y-87060959D01*
X90601205Y-87040325D01*
X90590148Y-87033144D01*
X90556753Y-87008882D01*
X90519048Y-86992095D01*
X90507295Y-86986107D01*
X90471554Y-86965471D01*
X90432308Y-86952720D01*
X90419996Y-86947994D01*
X90382286Y-86931205D01*
X90341921Y-86922625D01*
X90329183Y-86919212D01*
X90289927Y-86906457D01*
X90248874Y-86902141D01*
X90235855Y-86900079D01*
X90195489Y-86891500D01*
X90195487Y-86891500D01*
X90147610Y-86891500D01*
X88210007Y-86891500D01*
X88152641Y-86877683D01*
X88107856Y-86839264D01*
X88085473Y-86784667D01*
X88090403Y-86725867D01*
X88122393Y-86629328D01*
X88133000Y-86525503D01*
X88133000Y-86254000D01*
X86909500Y-86254000D01*
X86846500Y-86237119D01*
X86800381Y-86191000D01*
X86783500Y-86128000D01*
X86783500Y-84767000D01*
X87291500Y-84767000D01*
X87291500Y-85746000D01*
X88133000Y-85746000D01*
X88133000Y-85474497D01*
X88122393Y-85370671D01*
X88066659Y-85202477D01*
X87973632Y-85051657D01*
X87848342Y-84926367D01*
X87697522Y-84833340D01*
X87529328Y-84777606D01*
X87425503Y-84767000D01*
X87291500Y-84767000D01*
X86783500Y-84767000D01*
X86649497Y-84767000D01*
X86545671Y-84777606D01*
X86377477Y-84833340D01*
X86226657Y-84926367D01*
X86090951Y-85062074D01*
X86088631Y-85059754D01*
X86061696Y-85085537D01*
X86000293Y-85101511D01*
X85938890Y-85085536D01*
X85911697Y-85059507D01*
X85909444Y-85061761D01*
X85773655Y-84925972D01*
X85769894Y-84923652D01*
X85622738Y-84832885D01*
X85454426Y-84777113D01*
X85350545Y-84766500D01*
X85350540Y-84766500D01*
X84574459Y-84766500D01*
X84470573Y-84777113D01*
X84302262Y-84832885D01*
X84151344Y-84925972D01*
X84022722Y-85054595D01*
X83981845Y-85081909D01*
X83933627Y-85091500D01*
X83679062Y-85091500D01*
X83628449Y-85080888D01*
X83586361Y-85050838D01*
X83478668Y-84933853D01*
X83463240Y-84917094D01*
X83463239Y-84917093D01*
X83463237Y-84917091D01*
X83285578Y-84778812D01*
X83252317Y-84760812D01*
X83204046Y-84714495D01*
X83186288Y-84649997D01*
X83204049Y-84585499D01*
X83252317Y-84539187D01*
X83285576Y-84521189D01*
X83293440Y-84515067D01*
X83329917Y-84495327D01*
X83370830Y-84488500D01*
X94968655Y-84488500D01*
X95016873Y-84498091D01*
X95057750Y-84525405D01*
X97454595Y-86922251D01*
X97481909Y-86963128D01*
X97491500Y-87011346D01*
X97491500Y-104652808D01*
X97506580Y-104810737D01*
X97566222Y-105013861D01*
X97663230Y-105202028D01*
X97731110Y-105288344D01*
X97794092Y-105368432D01*
X97954082Y-105507065D01*
X98137418Y-105612913D01*
X98337473Y-105682153D01*
X98442244Y-105697217D01*
X98547014Y-105712281D01*
X98547015Y-105712280D01*
X98547016Y-105712281D01*
X98758474Y-105702208D01*
X98964204Y-105652298D01*
X99156771Y-105564356D01*
X99156771Y-105564355D01*
X99156775Y-105564354D01*
X99329211Y-105441563D01*
X99329215Y-105441559D01*
X99475303Y-105288346D01*
X99589756Y-105110254D01*
X99643577Y-104975817D01*
X99668435Y-104913724D01*
X99688285Y-104810737D01*
X99707700Y-104710000D01*
X125936513Y-104710000D01*
X125943153Y-104798605D01*
X125956433Y-104975817D01*
X126015747Y-105235691D01*
X126067845Y-105368432D01*
X126113134Y-105483826D01*
X126246414Y-105714674D01*
X126412612Y-105923079D01*
X126608014Y-106104386D01*
X126828257Y-106254545D01*
X126952762Y-106314503D01*
X127068418Y-106370201D01*
X127141531Y-106392753D01*
X127323137Y-106448771D01*
X127586720Y-106488500D01*
X127853277Y-106488500D01*
X127853280Y-106488500D01*
X128116863Y-106448771D01*
X128371581Y-106370201D01*
X128611744Y-106254545D01*
X128682948Y-106205999D01*
X135598273Y-106205999D01*
X135598274Y-106206000D01*
X136926000Y-106206000D01*
X136926000Y-104174000D01*
X137434000Y-104174000D01*
X137434000Y-106206000D01*
X138759897Y-106206000D01*
X138727361Y-106055031D01*
X138639899Y-105837375D01*
X138516914Y-105637633D01*
X138361937Y-105461546D01*
X138179435Y-105314185D01*
X138152026Y-105298874D01*
X138106182Y-105254937D01*
X138087589Y-105194222D01*
X138100966Y-105132149D01*
X138142918Y-105084482D01*
X138273819Y-104996007D01*
X138443162Y-104833705D01*
X138582651Y-104645103D01*
X138688254Y-104435655D01*
X138756941Y-104211365D01*
X138761726Y-104174000D01*
X137434000Y-104174000D01*
X136926000Y-104174000D01*
X135600103Y-104174000D01*
X135632638Y-104324968D01*
X135720100Y-104542624D01*
X135843085Y-104742366D01*
X135998062Y-104918453D01*
X136180564Y-105065814D01*
X136207974Y-105081126D01*
X136253818Y-105125063D01*
X136272411Y-105185778D01*
X136259034Y-105247851D01*
X136217082Y-105295518D01*
X136086180Y-105383992D01*
X135916837Y-105546294D01*
X135777348Y-105734896D01*
X135671745Y-105944344D01*
X135603058Y-106168634D01*
X135598273Y-106205999D01*
X128682948Y-106205999D01*
X128831986Y-106104386D01*
X129027388Y-105923079D01*
X129193586Y-105714674D01*
X129326866Y-105483826D01*
X129424252Y-105235692D01*
X129483567Y-104975815D01*
X129503487Y-104710000D01*
X129483567Y-104444185D01*
X129424252Y-104184308D01*
X129326866Y-103936174D01*
X129193586Y-103705326D01*
X129027388Y-103496921D01*
X128831986Y-103315614D01*
X128611744Y-103165455D01*
X128611743Y-103165454D01*
X128611741Y-103165453D01*
X128371581Y-103049798D01*
X128116866Y-102971230D01*
X128116863Y-102971229D01*
X127853280Y-102931500D01*
X127586720Y-102931500D01*
X127323137Y-102971229D01*
X127323134Y-102971229D01*
X127323133Y-102971230D01*
X127068418Y-103049798D01*
X126828256Y-103165455D01*
X126608018Y-103315610D01*
X126608015Y-103315613D01*
X126608014Y-103315614D01*
X126412612Y-103496921D01*
X126277777Y-103665999D01*
X126246412Y-103705329D01*
X126113134Y-103936173D01*
X126015747Y-104184308D01*
X125956433Y-104444182D01*
X125956433Y-104444185D01*
X125936513Y-104710000D01*
X99707700Y-104710000D01*
X99708500Y-104705849D01*
X99708500Y-101321282D01*
X135572762Y-101321282D01*
X135582721Y-101555724D01*
X135632158Y-101785115D01*
X135677001Y-101896710D01*
X135719651Y-102002850D01*
X135782776Y-102105371D01*
X135842683Y-102202666D01*
X135997715Y-102378816D01*
X136057284Y-102426915D01*
X136180284Y-102526230D01*
X136207510Y-102541439D01*
X136253353Y-102585375D01*
X136271947Y-102646090D01*
X136258570Y-102708164D01*
X136216618Y-102755831D01*
X136086180Y-102843992D01*
X135916837Y-103006294D01*
X135777348Y-103194896D01*
X135671745Y-103404344D01*
X135603058Y-103628634D01*
X135598273Y-103665999D01*
X135598274Y-103666000D01*
X138759897Y-103666000D01*
X138727361Y-103515031D01*
X138639899Y-103297375D01*
X138516914Y-103097633D01*
X138361937Y-102921546D01*
X138179437Y-102774187D01*
X138152514Y-102759147D01*
X138106671Y-102715210D01*
X138088078Y-102654494D01*
X138101455Y-102592421D01*
X138143407Y-102544755D01*
X138170820Y-102526227D01*
X138274132Y-102456400D01*
X138443543Y-102294033D01*
X138583077Y-102105371D01*
X138688720Y-101895841D01*
X138757432Y-101671471D01*
X138774588Y-101537499D01*
X146286835Y-101537499D01*
X146305464Y-101774211D01*
X146360895Y-102005094D01*
X146451761Y-102224466D01*
X146575823Y-102426915D01*
X146730030Y-102607469D01*
X146910584Y-102761676D01*
X147113033Y-102885738D01*
X147113035Y-102885738D01*
X147113037Y-102885740D01*
X147332406Y-102976605D01*
X147507858Y-103018727D01*
X147563288Y-103032035D01*
X147580558Y-103033394D01*
X147800000Y-103050665D01*
X148036711Y-103032035D01*
X148267594Y-102976605D01*
X148486963Y-102885740D01*
X148674850Y-102770602D01*
X151926107Y-102770602D01*
X152113261Y-102885291D01*
X152332559Y-102976127D01*
X152563366Y-103031539D01*
X152800000Y-103050162D01*
X153036633Y-103031539D01*
X153267440Y-102976127D01*
X153486738Y-102885291D01*
X153673891Y-102770602D01*
X153673892Y-102770601D01*
X152800001Y-101896710D01*
X152800000Y-101896710D01*
X151926107Y-102770601D01*
X151926107Y-102770602D01*
X148674850Y-102770602D01*
X148689416Y-102761676D01*
X148869969Y-102607469D01*
X149024176Y-102426916D01*
X149148240Y-102224463D01*
X149239105Y-102005094D01*
X149294535Y-101774211D01*
X149313165Y-101537500D01*
X151287337Y-101537500D01*
X151305960Y-101774133D01*
X151361372Y-102004940D01*
X151452208Y-102224238D01*
X151566896Y-102411391D01*
X151566897Y-102411391D01*
X152440789Y-101537501D01*
X153159210Y-101537501D01*
X154033101Y-102411392D01*
X154033102Y-102411391D01*
X154147791Y-102224238D01*
X154238627Y-102004940D01*
X154294039Y-101774133D01*
X154312662Y-101537500D01*
X154294039Y-101300866D01*
X154238627Y-101070059D01*
X154147791Y-100850761D01*
X154033102Y-100663607D01*
X154033101Y-100663607D01*
X153159210Y-101537500D01*
X153159210Y-101537501D01*
X152440789Y-101537501D01*
X152440790Y-101537500D01*
X152440790Y-101537499D01*
X151566898Y-100663607D01*
X151566896Y-100663607D01*
X151452207Y-100850764D01*
X151361372Y-101070059D01*
X151305960Y-101300866D01*
X151287337Y-101537500D01*
X149313165Y-101537500D01*
X149294535Y-101300789D01*
X149239105Y-101069906D01*
X149148240Y-100850537D01*
X149091013Y-100757152D01*
X149024008Y-100647810D01*
X149005646Y-100589168D01*
X149017203Y-100528815D01*
X149055930Y-100481107D01*
X149163261Y-100400761D01*
X149243607Y-100293430D01*
X149291315Y-100254703D01*
X149351668Y-100243146D01*
X149410310Y-100261508D01*
X149410583Y-100261675D01*
X149410584Y-100261676D01*
X149444555Y-100282493D01*
X149613033Y-100385738D01*
X149613035Y-100385738D01*
X149613037Y-100385740D01*
X149832406Y-100476605D01*
X150007857Y-100518727D01*
X150063288Y-100532035D01*
X150078104Y-100533201D01*
X150300000Y-100550665D01*
X150536711Y-100532035D01*
X150767594Y-100476605D01*
X150986963Y-100385740D01*
X151189416Y-100261676D01*
X151369969Y-100107469D01*
X151454189Y-100008859D01*
X151497249Y-99976264D01*
X151550000Y-99964690D01*
X151602751Y-99976264D01*
X151645811Y-100008860D01*
X151730030Y-100107469D01*
X151878061Y-100233899D01*
X151913564Y-100283786D01*
X151914752Y-100293043D01*
X152799999Y-101178290D01*
X152800000Y-101178290D01*
X153685245Y-100293043D01*
X153686433Y-100283790D01*
X153721937Y-100233900D01*
X153721939Y-100233899D01*
X153869969Y-100107469D01*
X154024176Y-99926916D01*
X154148240Y-99724463D01*
X154239105Y-99505094D01*
X154294535Y-99274211D01*
X154313165Y-99037500D01*
X154309987Y-98997121D01*
X156162086Y-98997121D01*
X156162087Y-98997122D01*
X156417497Y-99203950D01*
X156743451Y-99415627D01*
X157089755Y-99592078D01*
X157452586Y-99731355D01*
X157828004Y-99831948D01*
X158211882Y-99892748D01*
X158600000Y-99913089D01*
X158988117Y-99892748D01*
X159371995Y-99831948D01*
X159747413Y-99731355D01*
X160110244Y-99592078D01*
X160456548Y-99415627D01*
X160782497Y-99203953D01*
X161037912Y-98997121D01*
X158600001Y-96559210D01*
X158599999Y-96559210D01*
X156162086Y-98997121D01*
X154309987Y-98997121D01*
X154294535Y-98800789D01*
X154239105Y-98569906D01*
X154148240Y-98350537D01*
X154123442Y-98310071D01*
X154024176Y-98148084D01*
X153869969Y-97967530D01*
X153689415Y-97813323D01*
X153486966Y-97689261D01*
X153267594Y-97598395D01*
X153036711Y-97542964D01*
X152800000Y-97524335D01*
X152563288Y-97542964D01*
X152332405Y-97598395D01*
X152113033Y-97689261D01*
X151910584Y-97813323D01*
X151730033Y-97967528D01*
X151645811Y-98066140D01*
X151602751Y-98098735D01*
X151550000Y-98110309D01*
X151497249Y-98098735D01*
X151454189Y-98066140D01*
X151434637Y-98043248D01*
X151369969Y-97967531D01*
X151369967Y-97967529D01*
X151369966Y-97967528D01*
X151189415Y-97813323D01*
X150986966Y-97689261D01*
X150767594Y-97598395D01*
X150536711Y-97542964D01*
X150300000Y-97524335D01*
X150063288Y-97542964D01*
X149832405Y-97598395D01*
X149613038Y-97689259D01*
X149410310Y-97813492D01*
X149351668Y-97831854D01*
X149291316Y-97820296D01*
X149243607Y-97781568D01*
X149163261Y-97674238D01*
X149046205Y-97586611D01*
X148977702Y-97561060D01*
X148909201Y-97535511D01*
X148848638Y-97529000D01*
X146751362Y-97529000D01*
X146690799Y-97535511D01*
X146553794Y-97586611D01*
X146436738Y-97674238D01*
X146349111Y-97791294D01*
X146312763Y-97888747D01*
X146298011Y-97928299D01*
X146291500Y-97988862D01*
X146291500Y-100086138D01*
X146298011Y-100146701D01*
X146307522Y-100172200D01*
X146349111Y-100283705D01*
X146436738Y-100400761D01*
X146544068Y-100481107D01*
X146582796Y-100528816D01*
X146594354Y-100589168D01*
X146575992Y-100647810D01*
X146451759Y-100850538D01*
X146360895Y-101069905D01*
X146305464Y-101300788D01*
X146286835Y-101537499D01*
X138774588Y-101537499D01*
X138787237Y-101438717D01*
X138777278Y-101204273D01*
X138727841Y-100974884D01*
X138640349Y-100757150D01*
X138517317Y-100557335D01*
X138517316Y-100557333D01*
X138362284Y-100381183D01*
X138179716Y-100233769D01*
X137974862Y-100119331D01*
X137941289Y-100107469D01*
X137753608Y-100041157D01*
X137522328Y-100001500D01*
X136896442Y-100001500D01*
X136896441Y-100001500D01*
X136721188Y-100016415D01*
X136494110Y-100075542D01*
X136280279Y-100172200D01*
X136085869Y-100303599D01*
X135916454Y-100465969D01*
X135776925Y-100654624D01*
X135671278Y-100864162D01*
X135602567Y-101088530D01*
X135572762Y-101321282D01*
X99708500Y-101321282D01*
X99708500Y-99400000D01*
X128686496Y-99400000D01*
X128706458Y-99589929D01*
X128765472Y-99771556D01*
X128860958Y-99936942D01*
X128896364Y-99976264D01*
X128988747Y-100078866D01*
X129143248Y-100191118D01*
X129317712Y-100268794D01*
X129504513Y-100308500D01*
X129695485Y-100308500D01*
X129695487Y-100308500D01*
X129882288Y-100268794D01*
X130056752Y-100191118D01*
X130211253Y-100078866D01*
X130339040Y-99936944D01*
X130434527Y-99771556D01*
X130493542Y-99589928D01*
X130513504Y-99400000D01*
X130493542Y-99210072D01*
X130488085Y-99193278D01*
X130464667Y-99121204D01*
X130458500Y-99082268D01*
X130458500Y-96200000D01*
X154886910Y-96200000D01*
X154907251Y-96588117D01*
X154968051Y-96971995D01*
X155068644Y-97347413D01*
X155207921Y-97710244D01*
X155384372Y-98056548D01*
X155596049Y-98382502D01*
X155802876Y-98637911D01*
X155802877Y-98637912D01*
X158240790Y-96200001D01*
X158959210Y-96200001D01*
X161397121Y-98637912D01*
X161603953Y-98382497D01*
X161815627Y-98056548D01*
X161992078Y-97710244D01*
X162131355Y-97347413D01*
X162231948Y-96971995D01*
X162292748Y-96588117D01*
X162313089Y-96200000D01*
X162292748Y-95811882D01*
X162231948Y-95428004D01*
X162131355Y-95052586D01*
X161992078Y-94689755D01*
X161815628Y-94343455D01*
X161603948Y-94017496D01*
X161397122Y-93762087D01*
X161397121Y-93762086D01*
X158959210Y-96199999D01*
X158959210Y-96200001D01*
X158240790Y-96200001D01*
X158240790Y-96199999D01*
X155802877Y-93762086D01*
X155596047Y-94017502D01*
X155384371Y-94343455D01*
X155207921Y-94689755D01*
X155068644Y-95052586D01*
X154968051Y-95428004D01*
X154907251Y-95811882D01*
X154886910Y-96200000D01*
X130458500Y-96200000D01*
X130458500Y-96117732D01*
X130464667Y-96078796D01*
X130493541Y-95989930D01*
X130493542Y-95989928D01*
X130513504Y-95800000D01*
X130493542Y-95610072D01*
X130434527Y-95428444D01*
X130434527Y-95428443D01*
X130339041Y-95263057D01*
X130211252Y-95121133D01*
X130056753Y-95008883D01*
X130056752Y-95008882D01*
X129882288Y-94931206D01*
X129695487Y-94891500D01*
X129504513Y-94891500D01*
X129379978Y-94917970D01*
X129317711Y-94931206D01*
X129143246Y-95008883D01*
X128988747Y-95121133D01*
X128860958Y-95263057D01*
X128765472Y-95428443D01*
X128706458Y-95610070D01*
X128686496Y-95800000D01*
X128706458Y-95989929D01*
X128765472Y-96171556D01*
X128860958Y-96336942D01*
X128860960Y-96336944D01*
X128909137Y-96390451D01*
X128933131Y-96429604D01*
X128941500Y-96474759D01*
X128941500Y-98725241D01*
X128933131Y-98770396D01*
X128909137Y-98809548D01*
X128894303Y-98826025D01*
X128860958Y-98863057D01*
X128765472Y-99028443D01*
X128706458Y-99210070D01*
X128686496Y-99400000D01*
X99708500Y-99400000D01*
X99708500Y-99347197D01*
X99708500Y-93947197D01*
X99708500Y-88079999D01*
X102597346Y-88079999D01*
X102615931Y-88304283D01*
X102671180Y-88522456D01*
X102761580Y-88728548D01*
X102836922Y-88843866D01*
X103600790Y-88080000D01*
X102836922Y-87316133D01*
X102761580Y-87431451D01*
X102671180Y-87637543D01*
X102615931Y-87855716D01*
X102597346Y-88079999D01*
X99708500Y-88079999D01*
X99708500Y-86869924D01*
X99718091Y-86821706D01*
X99745405Y-86780829D01*
X99940829Y-86585405D01*
X99981706Y-86558091D01*
X100029924Y-86548500D01*
X103000691Y-86548500D01*
X103041603Y-86555327D01*
X103078082Y-86575069D01*
X103214422Y-86681188D01*
X103214424Y-86681189D01*
X103248205Y-86699470D01*
X103296477Y-86745785D01*
X103314237Y-86810282D01*
X103296479Y-86874780D01*
X103248208Y-86921097D01*
X103214700Y-86939230D01*
X103194310Y-86955099D01*
X103194310Y-86955101D01*
X103959999Y-87720790D01*
X103960000Y-87720790D01*
X104725689Y-86955100D01*
X104725688Y-86955099D01*
X104705300Y-86939230D01*
X104671792Y-86921097D01*
X104623521Y-86874781D01*
X104605762Y-86810282D01*
X104623522Y-86745785D01*
X104671791Y-86699471D01*
X104705576Y-86681189D01*
X104883240Y-86542906D01*
X105035722Y-86377268D01*
X105124518Y-86241354D01*
X105170031Y-86199458D01*
X105230000Y-86184272D01*
X105289969Y-86199458D01*
X105335481Y-86241354D01*
X105424278Y-86377268D01*
X105446618Y-86401536D01*
X105576762Y-86542908D01*
X105754418Y-86681185D01*
X105754420Y-86681186D01*
X105754424Y-86681189D01*
X105787682Y-86699187D01*
X105835952Y-86745503D01*
X105853711Y-86810000D01*
X105835952Y-86874497D01*
X105787682Y-86920812D01*
X105762794Y-86934281D01*
X105754418Y-86938814D01*
X105576762Y-87077091D01*
X105424278Y-87242731D01*
X105335183Y-87379102D01*
X105289669Y-87421000D01*
X105229700Y-87436186D01*
X105169731Y-87421000D01*
X105124218Y-87379102D01*
X105083076Y-87316132D01*
X104319210Y-88080000D01*
X104319210Y-88080001D01*
X105083076Y-88843867D01*
X105083077Y-88843866D01*
X105124218Y-88780898D01*
X105169731Y-88739000D01*
X105229700Y-88723814D01*
X105289669Y-88739000D01*
X105335183Y-88780898D01*
X105424278Y-88917268D01*
X105576762Y-89082908D01*
X105754418Y-89221185D01*
X105754420Y-89221186D01*
X105754424Y-89221189D01*
X105787682Y-89239187D01*
X105835952Y-89285503D01*
X105853711Y-89350000D01*
X105835952Y-89414497D01*
X105787682Y-89460812D01*
X105769902Y-89470435D01*
X105754418Y-89478814D01*
X105576762Y-89617091D01*
X105424278Y-89782731D01*
X105335483Y-89918643D01*
X105289969Y-89960541D01*
X105230000Y-89975727D01*
X105170031Y-89960541D01*
X105124517Y-89918643D01*
X105068489Y-89832886D01*
X105035722Y-89782732D01*
X104883240Y-89617094D01*
X104883239Y-89617093D01*
X104883237Y-89617091D01*
X104750175Y-89513524D01*
X104705576Y-89478811D01*
X104671792Y-89460528D01*
X104623521Y-89414212D01*
X104605762Y-89349715D01*
X104623521Y-89285217D01*
X104671793Y-89238901D01*
X104705303Y-89220765D01*
X104725688Y-89204899D01*
X104725689Y-89204898D01*
X103960001Y-88439210D01*
X103960000Y-88439210D01*
X103194310Y-89204899D01*
X103214697Y-89220767D01*
X103248206Y-89238901D01*
X103296478Y-89285217D01*
X103314237Y-89349714D01*
X103296478Y-89414212D01*
X103248207Y-89460528D01*
X103214423Y-89478811D01*
X103036762Y-89617091D01*
X102884278Y-89782731D01*
X102761139Y-89971209D01*
X102670702Y-90177388D01*
X102621757Y-90370671D01*
X102615436Y-90395632D01*
X102596844Y-90620000D01*
X102615436Y-90844368D01*
X102615436Y-90844371D01*
X102615437Y-90844372D01*
X102670702Y-91062611D01*
X102761139Y-91268790D01*
X102821460Y-91361118D01*
X102884278Y-91457268D01*
X103005310Y-91588743D01*
X103036762Y-91622908D01*
X103088344Y-91663056D01*
X103214424Y-91761189D01*
X103247682Y-91779187D01*
X103295951Y-91825500D01*
X103313711Y-91889997D01*
X103295953Y-91954494D01*
X103247683Y-92000811D01*
X103214423Y-92018810D01*
X103036762Y-92157091D01*
X102884278Y-92322731D01*
X102761139Y-92511209D01*
X102670702Y-92717388D01*
X102621566Y-92911424D01*
X102615436Y-92935632D01*
X102596844Y-93160000D01*
X102615436Y-93384368D01*
X102615436Y-93384371D01*
X102615437Y-93384372D01*
X102670702Y-93602611D01*
X102761139Y-93808790D01*
X102824880Y-93906352D01*
X102884278Y-93997268D01*
X102978849Y-94099999D01*
X103036762Y-94162908D01*
X103199956Y-94289928D01*
X103214424Y-94301189D01*
X103412426Y-94408342D01*
X103625365Y-94481444D01*
X103847431Y-94518500D01*
X104072566Y-94518500D01*
X104072569Y-94518500D01*
X104294635Y-94481444D01*
X104507574Y-94408342D01*
X104705576Y-94301189D01*
X104883240Y-94162906D01*
X105035722Y-93997268D01*
X105124518Y-93861354D01*
X105170031Y-93819458D01*
X105230000Y-93804272D01*
X105289969Y-93819458D01*
X105335481Y-93861354D01*
X105424278Y-93997268D01*
X105518849Y-94099999D01*
X105576762Y-94162908D01*
X105739956Y-94289928D01*
X105754424Y-94301189D01*
X105952426Y-94408342D01*
X106165365Y-94481444D01*
X106387431Y-94518500D01*
X106612566Y-94518500D01*
X106612569Y-94518500D01*
X106834635Y-94481444D01*
X107047574Y-94408342D01*
X107245576Y-94301189D01*
X107423240Y-94162906D01*
X107575722Y-93997268D01*
X107698860Y-93808791D01*
X107789296Y-93602616D01*
X107839877Y-93402877D01*
X156162086Y-93402877D01*
X158599999Y-95840790D01*
X158600001Y-95840790D01*
X161037912Y-93402877D01*
X161037911Y-93402876D01*
X160782502Y-93196049D01*
X160456548Y-92984372D01*
X160110244Y-92807921D01*
X159747413Y-92668644D01*
X159371995Y-92568051D01*
X158988117Y-92507251D01*
X158600000Y-92486910D01*
X158211882Y-92507251D01*
X157828004Y-92568051D01*
X157452586Y-92668644D01*
X157089755Y-92807921D01*
X156743455Y-92984371D01*
X156417502Y-93196047D01*
X156162086Y-93402877D01*
X107839877Y-93402877D01*
X107844564Y-93384368D01*
X107863156Y-93160000D01*
X107844564Y-92935632D01*
X107789296Y-92717384D01*
X107698860Y-92511209D01*
X107575722Y-92322732D01*
X107423240Y-92157094D01*
X107423239Y-92157093D01*
X107423237Y-92157091D01*
X107245579Y-92018813D01*
X107245577Y-92018812D01*
X107245576Y-92018811D01*
X107212317Y-92000812D01*
X107164047Y-91954498D01*
X107146288Y-91890000D01*
X107164047Y-91825502D01*
X107212317Y-91779187D01*
X107245576Y-91761189D01*
X107423240Y-91622906D01*
X107575722Y-91457268D01*
X107698860Y-91268791D01*
X107789296Y-91062616D01*
X107844564Y-90844368D01*
X107863156Y-90620000D01*
X107844564Y-90395632D01*
X107789296Y-90177384D01*
X107698860Y-89971209D01*
X107575722Y-89782732D01*
X107423240Y-89617094D01*
X107423239Y-89617093D01*
X107423237Y-89617091D01*
X107245579Y-89478813D01*
X107245577Y-89478812D01*
X107245576Y-89478811D01*
X107212317Y-89460812D01*
X107164047Y-89414498D01*
X107146288Y-89350000D01*
X107164047Y-89285502D01*
X107212317Y-89239187D01*
X107245576Y-89221189D01*
X107423240Y-89082906D01*
X107575722Y-88917268D01*
X107698860Y-88728791D01*
X107789296Y-88522616D01*
X107844564Y-88304368D01*
X107863156Y-88080000D01*
X107845750Y-87869951D01*
X107853018Y-87816183D01*
X107882223Y-87770456D01*
X109301304Y-86351375D01*
X109356196Y-86319203D01*
X109419811Y-86317953D01*
X109475926Y-86347947D01*
X109510229Y-86401535D01*
X109514426Y-86414451D01*
X109565472Y-86571556D01*
X109660958Y-86736942D01*
X109737280Y-86821706D01*
X109788747Y-86878866D01*
X109943248Y-86991118D01*
X110117712Y-87068794D01*
X110304513Y-87108500D01*
X110495485Y-87108500D01*
X110495487Y-87108500D01*
X110682288Y-87068794D01*
X110856752Y-86991118D01*
X111011253Y-86878866D01*
X111139040Y-86736944D01*
X111234527Y-86571556D01*
X111293542Y-86389928D01*
X111313504Y-86200000D01*
X111293542Y-86010072D01*
X111234527Y-85828444D01*
X111175381Y-85726000D01*
X111158500Y-85663000D01*
X111158500Y-79097139D01*
X111171252Y-79041905D01*
X111206926Y-78997850D01*
X111258301Y-78973893D01*
X111266631Y-78972121D01*
X111282288Y-78968794D01*
X111456752Y-78891118D01*
X111611253Y-78778866D01*
X111739040Y-78636944D01*
X111834527Y-78471556D01*
X111893542Y-78289928D01*
X111913504Y-78100000D01*
X111893542Y-77910072D01*
X111854891Y-77791116D01*
X111834527Y-77728443D01*
X111739041Y-77563057D01*
X111611252Y-77421133D01*
X111529818Y-77361968D01*
X111456752Y-77308882D01*
X111282288Y-77231206D01*
X111095487Y-77191500D01*
X110904513Y-77191500D01*
X110779979Y-77217970D01*
X110717711Y-77231206D01*
X110543246Y-77308883D01*
X110388747Y-77421133D01*
X110260958Y-77563057D01*
X110165473Y-77728443D01*
X110110612Y-77897285D01*
X110079874Y-77947443D01*
X109909225Y-78118092D01*
X109895377Y-78130061D01*
X109875941Y-78144531D01*
X109843771Y-78182869D01*
X109836357Y-78190961D01*
X109832422Y-78194895D01*
X109812997Y-78219461D01*
X109810688Y-78222294D01*
X109761119Y-78281369D01*
X109750589Y-78297899D01*
X109717995Y-78367794D01*
X109716401Y-78371087D01*
X109681795Y-78439997D01*
X109675363Y-78458500D01*
X109659759Y-78534064D01*
X109658967Y-78537637D01*
X109641192Y-78612640D01*
X109639202Y-78632114D01*
X109641447Y-78709259D01*
X109641500Y-78712923D01*
X109641500Y-80464629D01*
X109627767Y-80521832D01*
X109589561Y-80566565D01*
X109535211Y-80589078D01*
X109476564Y-80584462D01*
X109426405Y-80553724D01*
X107781909Y-78909228D01*
X107769937Y-78895375D01*
X107755470Y-78875943D01*
X107717130Y-78843772D01*
X107709032Y-78836351D01*
X107705101Y-78832420D01*
X107687311Y-78818353D01*
X107680528Y-78812989D01*
X107677690Y-78810677D01*
X107618622Y-78761113D01*
X107602110Y-78750594D01*
X107532205Y-78717996D01*
X107528909Y-78716401D01*
X107459996Y-78681792D01*
X107441504Y-78675365D01*
X107365942Y-78659762D01*
X107362367Y-78658969D01*
X107287356Y-78641191D01*
X107267885Y-78639202D01*
X107190741Y-78641447D01*
X107187077Y-78641500D01*
X102881628Y-78641500D01*
X102826722Y-78628908D01*
X102782790Y-78593648D01*
X102758614Y-78542768D01*
X102758901Y-78503384D01*
X102758500Y-78503384D01*
X102758500Y-78490367D01*
X102760796Y-78467888D01*
X102760757Y-78466560D01*
X102760758Y-78466558D01*
X102758553Y-78390776D01*
X102758500Y-78387112D01*
X102758500Y-70264441D01*
X102759828Y-70246196D01*
X102759894Y-70245745D01*
X102788036Y-70183008D01*
X102844925Y-70144388D01*
X102913619Y-70141385D01*
X102973661Y-70174895D01*
X108742461Y-75943695D01*
X108750766Y-75952857D01*
X108778434Y-75986571D01*
X108931992Y-76112593D01*
X109097213Y-76200905D01*
X109107196Y-76206241D01*
X109107198Y-76206241D01*
X109107199Y-76206242D01*
X109297298Y-76263908D01*
X109494998Y-76283380D01*
X109494999Y-76283379D01*
X109495000Y-76283380D01*
X109538384Y-76279106D01*
X109550735Y-76278500D01*
X116913125Y-76278500D01*
X116974531Y-76294476D01*
X117020364Y-76338351D01*
X117035970Y-76363652D01*
X117161348Y-76489030D01*
X117312262Y-76582115D01*
X117480574Y-76637887D01*
X117584455Y-76648500D01*
X119375544Y-76648499D01*
X119479426Y-76637887D01*
X119647738Y-76582115D01*
X119798652Y-76489030D01*
X119924030Y-76363652D01*
X120017115Y-76212738D01*
X120072887Y-76044426D01*
X120083500Y-75940545D01*
X120083499Y-74599456D01*
X120072887Y-74495574D01*
X120017115Y-74327262D01*
X119924030Y-74176348D01*
X119924028Y-74176346D01*
X119924027Y-74176344D01*
X119798655Y-74050972D01*
X119798652Y-74050970D01*
X119647738Y-73957885D01*
X119647736Y-73957884D01*
X119644973Y-73956180D01*
X119604495Y-73916074D01*
X119585824Y-73862237D01*
X119592778Y-73805681D01*
X119623936Y-73757972D01*
X119743165Y-73643701D01*
X119882651Y-73455103D01*
X119988254Y-73245655D01*
X120056941Y-73021365D01*
X120061726Y-72984000D01*
X116900103Y-72984000D01*
X116932638Y-73134968D01*
X117020100Y-73352624D01*
X117143085Y-73552366D01*
X117298062Y-73728452D01*
X117326809Y-73751664D01*
X117363002Y-73798995D01*
X117373401Y-73857665D01*
X117355679Y-73914553D01*
X117313800Y-73956937D01*
X117312264Y-73957884D01*
X117312262Y-73957885D01*
X117235512Y-74005224D01*
X117161347Y-74050970D01*
X117035969Y-74176349D01*
X117020365Y-74201648D01*
X116974531Y-74245524D01*
X116913125Y-74261500D01*
X111384500Y-74261500D01*
X111321500Y-74244619D01*
X111275381Y-74198500D01*
X111258500Y-74135500D01*
X111258500Y-72475999D01*
X116898273Y-72475999D01*
X116898274Y-72476000D01*
X118226000Y-72476000D01*
X118226000Y-71352000D01*
X118734000Y-71352000D01*
X118734000Y-72476000D01*
X120059897Y-72476000D01*
X120027361Y-72325031D01*
X119939899Y-72107375D01*
X119816914Y-71907633D01*
X119661937Y-71731546D01*
X119479437Y-71584187D01*
X119274650Y-71469786D01*
X119053481Y-71391643D01*
X118822282Y-71352000D01*
X118734000Y-71352000D01*
X118226000Y-71352000D01*
X118196465Y-71352000D01*
X118021273Y-71366910D01*
X117794278Y-71426015D01*
X117580524Y-71522638D01*
X117386180Y-71653992D01*
X117216837Y-71816294D01*
X117077348Y-72004896D01*
X116971745Y-72214344D01*
X116903058Y-72438634D01*
X116898273Y-72475999D01*
X111258500Y-72475999D01*
X111258500Y-70459509D01*
X111271954Y-70402858D01*
X111309442Y-70358305D01*
X111362959Y-70335364D01*
X111421076Y-70338935D01*
X111602298Y-70393908D01*
X111750450Y-70408500D01*
X111750453Y-70408500D01*
X127730076Y-70408500D01*
X127778294Y-70418091D01*
X127819171Y-70445405D01*
X128454595Y-71080829D01*
X128481909Y-71121706D01*
X128491500Y-71169924D01*
X128491500Y-73204138D01*
X128477162Y-73262513D01*
X128437410Y-73307603D01*
X128381292Y-73329144D01*
X128321580Y-73322236D01*
X128271864Y-73288449D01*
X128211252Y-73221133D01*
X128056753Y-73108883D01*
X128056752Y-73108882D01*
X127882288Y-73031206D01*
X127695487Y-72991500D01*
X127504513Y-72991500D01*
X127379978Y-73017970D01*
X127317711Y-73031206D01*
X127143246Y-73108883D01*
X126988747Y-73221133D01*
X126860958Y-73363057D01*
X126765473Y-73528443D01*
X126710612Y-73697285D01*
X126679874Y-73747443D01*
X122109225Y-78318092D01*
X122095377Y-78330061D01*
X122075941Y-78344531D01*
X122043771Y-78382869D01*
X122036357Y-78390961D01*
X122032422Y-78394895D01*
X122012997Y-78419461D01*
X122010688Y-78422294D01*
X121961119Y-78481369D01*
X121950589Y-78497899D01*
X121917995Y-78567794D01*
X121916401Y-78571087D01*
X121881795Y-78639997D01*
X121875363Y-78658500D01*
X121859759Y-78734064D01*
X121858967Y-78737637D01*
X121841192Y-78812640D01*
X121839202Y-78832114D01*
X121841447Y-78909259D01*
X121841500Y-78912923D01*
X121841500Y-84463000D01*
X121824619Y-84526000D01*
X121765472Y-84628444D01*
X121706458Y-84810070D01*
X121686496Y-85000000D01*
X121706458Y-85189929D01*
X121765472Y-85371556D01*
X121860958Y-85536942D01*
X121884471Y-85563056D01*
X121988747Y-85678866D01*
X122143248Y-85791118D01*
X122317712Y-85868794D01*
X122504513Y-85908500D01*
X122695485Y-85908500D01*
X122695487Y-85908500D01*
X122882288Y-85868794D01*
X123056752Y-85791118D01*
X123211253Y-85678866D01*
X123339040Y-85536944D01*
X123434527Y-85371556D01*
X123493542Y-85189928D01*
X123513504Y-85000000D01*
X123493542Y-84810072D01*
X123434527Y-84628444D01*
X123396208Y-84562074D01*
X123375381Y-84526000D01*
X123358500Y-84463000D01*
X123358500Y-79266371D01*
X123368091Y-79218153D01*
X123395405Y-79177276D01*
X124472682Y-78099999D01*
X127756333Y-74816346D01*
X127785303Y-74794713D01*
X127819223Y-74782198D01*
X127882288Y-74768794D01*
X128056752Y-74691118D01*
X128211253Y-74578866D01*
X128271863Y-74511551D01*
X128321580Y-74477764D01*
X128381292Y-74470856D01*
X128437410Y-74492397D01*
X128477162Y-74537487D01*
X128491500Y-74595862D01*
X128491500Y-77765500D01*
X128474619Y-77828500D01*
X128428500Y-77874619D01*
X128365500Y-77891500D01*
X128055735Y-77891500D01*
X128043384Y-77890893D01*
X128000000Y-77886619D01*
X127958608Y-77890696D01*
X127950453Y-77891500D01*
X127802298Y-77906091D01*
X127612197Y-77963758D01*
X127436995Y-78057404D01*
X127283430Y-78183433D01*
X127255765Y-78217142D01*
X127247463Y-78226301D01*
X125819168Y-79654597D01*
X125778294Y-79681909D01*
X125730076Y-79691500D01*
X125100450Y-79691500D01*
X124952298Y-79706091D01*
X124762197Y-79763758D01*
X124586992Y-79857406D01*
X124433431Y-79983431D01*
X124307406Y-80136992D01*
X124213758Y-80312197D01*
X124156091Y-80502298D01*
X124136619Y-80700000D01*
X124156091Y-80897701D01*
X124213758Y-81087802D01*
X124307406Y-81263007D01*
X124433431Y-81416568D01*
X124586992Y-81542593D01*
X124586996Y-81542595D01*
X124762196Y-81636241D01*
X124857247Y-81665074D01*
X124952298Y-81693908D01*
X125100450Y-81708500D01*
X125100453Y-81708500D01*
X126144263Y-81708500D01*
X126156612Y-81709106D01*
X126200000Y-81713380D01*
X126200000Y-81713379D01*
X126200001Y-81713380D01*
X126397701Y-81693909D01*
X126452568Y-81677265D01*
X126587804Y-81636241D01*
X126603832Y-81627674D01*
X126763004Y-81542595D01*
X126916568Y-81416568D01*
X126944248Y-81382838D01*
X126952514Y-81373718D01*
X128380831Y-79945402D01*
X128421706Y-79918091D01*
X128469924Y-79908500D01*
X129444265Y-79908500D01*
X129456615Y-79909106D01*
X129500000Y-79913380D01*
X129543384Y-79909106D01*
X129555735Y-79908500D01*
X129765500Y-79908500D01*
X129828500Y-79925381D01*
X129874619Y-79971500D01*
X129891500Y-80034500D01*
X129891500Y-80500540D01*
X129900545Y-80589078D01*
X129902113Y-80604426D01*
X129957885Y-80772738D01*
X130050970Y-80923652D01*
X130050971Y-80923653D01*
X130057262Y-80933852D01*
X130076021Y-80999999D01*
X130057262Y-81066145D01*
X129957886Y-81227258D01*
X129915402Y-81355469D01*
X129902113Y-81395574D01*
X129891547Y-81499000D01*
X129891500Y-81499459D01*
X129891500Y-82500540D01*
X129898181Y-82565935D01*
X129902113Y-82604426D01*
X129957885Y-82772738D01*
X130048326Y-82919365D01*
X130057262Y-82933853D01*
X130076021Y-83000000D01*
X130057262Y-83066147D01*
X130050969Y-83076348D01*
X130050970Y-83076348D01*
X129957885Y-83227262D01*
X129902113Y-83395574D01*
X129893439Y-83480483D01*
X129891500Y-83499459D01*
X129891500Y-84500540D01*
X129901815Y-84601511D01*
X129902113Y-84604426D01*
X129957885Y-84772738D01*
X130018231Y-84870574D01*
X130057262Y-84933853D01*
X130076021Y-85000000D01*
X130057262Y-85066147D01*
X130050969Y-85076348D01*
X130050970Y-85076348D01*
X129957885Y-85227262D01*
X129902113Y-85395574D01*
X129892474Y-85489929D01*
X129891500Y-85499459D01*
X129891500Y-86500540D01*
X129899008Y-86574030D01*
X129902113Y-86604426D01*
X129957885Y-86772738D01*
X130050970Y-86923652D01*
X130050971Y-86923653D01*
X130057262Y-86933852D01*
X130076021Y-86999999D01*
X130057262Y-87066145D01*
X129957886Y-87227258D01*
X129904958Y-87386987D01*
X129902113Y-87395574D01*
X129894104Y-87473974D01*
X129891500Y-87499459D01*
X129891500Y-88500540D01*
X129902112Y-88604425D01*
X129902113Y-88604426D01*
X129957885Y-88772738D01*
X130001758Y-88843867D01*
X130050972Y-88923655D01*
X130176344Y-89049027D01*
X130176346Y-89049028D01*
X130176348Y-89049030D01*
X130327262Y-89142115D01*
X130495574Y-89197887D01*
X130495575Y-89197887D01*
X130508675Y-89202228D01*
X130508256Y-89203491D01*
X130525248Y-89208241D01*
X130560275Y-89232956D01*
X131818092Y-90490773D01*
X131830060Y-90504620D01*
X131844530Y-90524057D01*
X131844531Y-90524058D01*
X131882868Y-90556226D01*
X131890965Y-90563646D01*
X131894899Y-90567580D01*
X131919438Y-90586982D01*
X131922281Y-90589298D01*
X131981380Y-90638888D01*
X131997889Y-90649404D01*
X131999093Y-90649965D01*
X131999095Y-90649967D01*
X132067786Y-90681998D01*
X132071078Y-90683591D01*
X132138812Y-90717609D01*
X132138814Y-90717609D01*
X132140008Y-90718209D01*
X132158490Y-90724633D01*
X132159791Y-90724901D01*
X132159794Y-90724903D01*
X132234078Y-90740241D01*
X132237630Y-90741029D01*
X132311344Y-90758500D01*
X132311346Y-90758500D01*
X132312641Y-90758807D01*
X132332114Y-90760797D01*
X132333439Y-90760758D01*
X132333442Y-90760759D01*
X132407477Y-90758604D01*
X132409259Y-90758553D01*
X132412923Y-90758500D01*
X142657414Y-90758500D01*
X142696351Y-90764667D01*
X142731470Y-90782561D01*
X142743248Y-90791118D01*
X142917712Y-90868794D01*
X143104513Y-90908500D01*
X143295485Y-90908500D01*
X143295487Y-90908500D01*
X143482288Y-90868794D01*
X143656752Y-90791118D01*
X143811253Y-90678866D01*
X143939040Y-90536944D01*
X144034527Y-90371556D01*
X144093542Y-90189928D01*
X144113504Y-90000000D01*
X144093542Y-89810072D01*
X144050925Y-89678911D01*
X144034527Y-89628443D01*
X143939041Y-89463057D01*
X143836987Y-89349715D01*
X143811253Y-89321134D01*
X143779051Y-89297738D01*
X143729174Y-89261500D01*
X143656752Y-89208882D01*
X143482288Y-89131206D01*
X143295487Y-89091500D01*
X143104513Y-89091500D01*
X143023166Y-89108791D01*
X142917711Y-89131206D01*
X142849991Y-89161357D01*
X142743248Y-89208882D01*
X142731470Y-89217438D01*
X142696351Y-89235333D01*
X142657414Y-89241500D01*
X133935373Y-89241500D01*
X133878170Y-89227767D01*
X133833437Y-89189561D01*
X133810924Y-89135211D01*
X133815540Y-89076564D01*
X133846278Y-89026405D01*
X133949027Y-88923655D01*
X133949027Y-88923654D01*
X133949030Y-88923652D01*
X134042115Y-88772738D01*
X134097887Y-88604426D01*
X134108500Y-88500545D01*
X134108499Y-88016370D01*
X134118090Y-87968153D01*
X134145401Y-87927278D01*
X134777276Y-87295404D01*
X134818154Y-87268091D01*
X134866372Y-87258500D01*
X136757414Y-87258500D01*
X136796351Y-87264667D01*
X136831470Y-87282561D01*
X136843248Y-87291118D01*
X137017712Y-87368794D01*
X137204513Y-87408500D01*
X137395485Y-87408500D01*
X137395487Y-87408500D01*
X137582288Y-87368794D01*
X137756752Y-87291118D01*
X137911253Y-87178866D01*
X138039040Y-87036944D01*
X138134527Y-86871556D01*
X138193542Y-86689928D01*
X138213504Y-86500000D01*
X138193542Y-86310072D01*
X138152667Y-86184272D01*
X138134527Y-86128443D01*
X138118105Y-86100000D01*
X141886496Y-86100000D01*
X141906458Y-86289929D01*
X141965472Y-86471556D01*
X142060958Y-86636942D01*
X142151000Y-86736944D01*
X142188747Y-86778866D01*
X142343248Y-86891118D01*
X142517712Y-86968794D01*
X142704513Y-87008500D01*
X142895485Y-87008500D01*
X142895487Y-87008500D01*
X143082288Y-86968794D01*
X143256752Y-86891118D01*
X143411253Y-86778866D01*
X143539040Y-86636944D01*
X143634527Y-86471556D01*
X143689388Y-86302711D01*
X143720124Y-86252555D01*
X148590777Y-81381902D01*
X148604624Y-81369936D01*
X148624058Y-81355469D01*
X148656226Y-81317131D01*
X148663642Y-81309037D01*
X148667581Y-81305100D01*
X148687012Y-81280523D01*
X148689286Y-81277731D01*
X148738032Y-81219640D01*
X148738033Y-81219636D01*
X148738890Y-81218616D01*
X148749402Y-81202117D01*
X148769515Y-81158983D01*
X148782036Y-81132131D01*
X148783544Y-81129015D01*
X148817609Y-81061188D01*
X148817610Y-81061179D01*
X148818212Y-81059983D01*
X148824634Y-81041509D01*
X148826883Y-81030616D01*
X148840241Y-80965919D01*
X148841022Y-80962397D01*
X148858500Y-80888656D01*
X148858500Y-80888654D01*
X148858808Y-80887355D01*
X148860797Y-80867885D01*
X148860758Y-80866560D01*
X148860759Y-80866558D01*
X148858553Y-80790741D01*
X148858500Y-80787077D01*
X148858500Y-60437000D01*
X148875381Y-60374000D01*
X148928997Y-60281134D01*
X148934527Y-60271556D01*
X148993542Y-60089928D01*
X149013504Y-59900000D01*
X148993542Y-59710072D01*
X148953078Y-59585537D01*
X148934527Y-59528443D01*
X148839041Y-59363057D01*
X148711252Y-59221133D01*
X148608088Y-59146180D01*
X148556752Y-59108882D01*
X148382288Y-59031206D01*
X148195487Y-58991500D01*
X148004513Y-58991500D01*
X147903416Y-59012989D01*
X147817711Y-59031206D01*
X147643246Y-59108883D01*
X147488747Y-59221133D01*
X147360958Y-59363057D01*
X147265472Y-59528443D01*
X147206458Y-59710070D01*
X147186496Y-59900000D01*
X147206458Y-60089929D01*
X147265472Y-60271555D01*
X147324619Y-60374000D01*
X147341500Y-60437000D01*
X147341500Y-67665500D01*
X147324619Y-67728500D01*
X147278500Y-67774619D01*
X147215500Y-67791500D01*
X147104513Y-67791500D01*
X146988629Y-67816132D01*
X146917711Y-67831206D01*
X146777696Y-67893544D01*
X146744493Y-67908328D01*
X146743246Y-67908883D01*
X146588747Y-68021133D01*
X146460958Y-68163057D01*
X146365472Y-68328443D01*
X146306458Y-68510070D01*
X146286496Y-68700000D01*
X146306458Y-68889929D01*
X146365472Y-69071555D01*
X146424619Y-69174000D01*
X146441500Y-69237000D01*
X146441500Y-79933629D01*
X146431909Y-79981847D01*
X146404595Y-80022724D01*
X142643667Y-83783650D01*
X142614695Y-83805285D01*
X142580771Y-83817801D01*
X142517714Y-83831205D01*
X142343246Y-83908883D01*
X142188747Y-84021133D01*
X142060958Y-84163057D01*
X141965472Y-84328443D01*
X141906458Y-84510070D01*
X141886496Y-84700000D01*
X141906458Y-84889929D01*
X141965472Y-85071556D01*
X142060960Y-85236945D01*
X142131862Y-85315690D01*
X142160483Y-85369518D01*
X142160483Y-85430482D01*
X142131862Y-85484310D01*
X142060960Y-85563054D01*
X141965472Y-85728443D01*
X141906458Y-85910070D01*
X141886496Y-86100000D01*
X138118105Y-86100000D01*
X138039008Y-85963000D01*
X138022127Y-85900000D01*
X138039008Y-85837000D01*
X138134527Y-85671556D01*
X138169781Y-85563056D01*
X138193542Y-85489928D01*
X138213504Y-85300000D01*
X138193542Y-85110072D01*
X138134527Y-84928444D01*
X138134527Y-84928443D01*
X138039008Y-84763000D01*
X138022127Y-84700000D01*
X138039008Y-84637000D01*
X138134527Y-84471556D01*
X138155990Y-84405500D01*
X138193542Y-84289928D01*
X138213504Y-84100000D01*
X138193542Y-83910072D01*
X138137288Y-83736942D01*
X138134527Y-83728443D01*
X138039041Y-83563057D01*
X138036195Y-83559897D01*
X138013156Y-83534309D01*
X137984536Y-83480483D01*
X137984536Y-83419517D01*
X138013156Y-83365690D01*
X138039040Y-83336944D01*
X138134527Y-83171556D01*
X138193542Y-82989928D01*
X138213504Y-82800000D01*
X138193542Y-82610072D01*
X138152309Y-82483172D01*
X138134527Y-82428443D01*
X138039041Y-82263057D01*
X138017212Y-82238814D01*
X138013156Y-82234309D01*
X137984536Y-82180483D01*
X137984536Y-82119517D01*
X138013156Y-82065690D01*
X138039040Y-82036944D01*
X138134527Y-81871556D01*
X138193542Y-81689928D01*
X138213504Y-81500000D01*
X138193542Y-81310072D01*
X138158071Y-81200905D01*
X138134527Y-81128443D01*
X138039041Y-80963057D01*
X138029586Y-80952556D01*
X138012549Y-80933635D01*
X137986353Y-80888261D01*
X137980876Y-80836154D01*
X137997067Y-80786325D01*
X137998118Y-80784505D01*
X138093605Y-80619117D01*
X138152620Y-80437489D01*
X138172582Y-80247561D01*
X138152620Y-80057633D01*
X138109969Y-79926367D01*
X138093605Y-79876004D01*
X137998119Y-79710618D01*
X137870330Y-79568694D01*
X137780905Y-79503723D01*
X137715830Y-79456443D01*
X137541366Y-79378767D01*
X137354565Y-79339061D01*
X137163932Y-79339061D01*
X137115714Y-79329470D01*
X137074837Y-79302156D01*
X135281909Y-77509228D01*
X135269937Y-77495375D01*
X135255470Y-77475943D01*
X135255469Y-77475942D01*
X135217127Y-77443769D01*
X135209032Y-77436351D01*
X135205101Y-77432420D01*
X135190827Y-77421133D01*
X135180528Y-77412989D01*
X135177690Y-77410677D01*
X135118622Y-77361113D01*
X135102110Y-77350594D01*
X135032205Y-77317996D01*
X135028909Y-77316401D01*
X134959996Y-77281792D01*
X134941504Y-77275365D01*
X134865942Y-77259762D01*
X134862367Y-77258969D01*
X134787356Y-77241191D01*
X134767885Y-77239202D01*
X134690741Y-77241447D01*
X134687077Y-77241500D01*
X134121220Y-77241500D01*
X134059814Y-77225524D01*
X134013979Y-77181647D01*
X133996034Y-77152553D01*
X133949030Y-77076348D01*
X133949028Y-77076346D01*
X133949027Y-77076344D01*
X133823655Y-76950972D01*
X133823652Y-76950970D01*
X133672738Y-76857885D01*
X133504426Y-76802113D01*
X133400545Y-76791500D01*
X133400540Y-76791500D01*
X132599459Y-76791500D01*
X132495573Y-76802113D01*
X132327262Y-76857885D01*
X132176344Y-76950972D01*
X132089095Y-77038222D01*
X132032611Y-77070834D01*
X131967389Y-77070834D01*
X131910905Y-77038222D01*
X131823655Y-76950972D01*
X131823652Y-76950970D01*
X131672738Y-76857885D01*
X131530198Y-76810652D01*
X131478058Y-76777382D01*
X131448032Y-76723306D01*
X131447357Y-76661456D01*
X131476197Y-76606738D01*
X131539040Y-76536944D01*
X131634527Y-76371556D01*
X131693542Y-76189928D01*
X131701882Y-76110566D01*
X131714597Y-76067185D01*
X131717609Y-76061188D01*
X131717609Y-76061185D01*
X131718209Y-76059992D01*
X131724633Y-76041513D01*
X131738281Y-75975414D01*
X131740241Y-75965919D01*
X131741022Y-75962397D01*
X131758500Y-75888656D01*
X131758500Y-75888654D01*
X131758808Y-75887355D01*
X131760797Y-75867885D01*
X131760758Y-75866560D01*
X131760759Y-75866558D01*
X131758553Y-75790741D01*
X131758500Y-75787077D01*
X131758500Y-71237000D01*
X131775381Y-71174000D01*
X131829173Y-71080829D01*
X131834527Y-71071556D01*
X131893542Y-70889928D01*
X131913504Y-70700000D01*
X131893542Y-70510072D01*
X131837936Y-70338935D01*
X131834527Y-70328443D01*
X131739041Y-70163057D01*
X131718279Y-70139999D01*
X134546496Y-70139999D01*
X134566458Y-70329929D01*
X134625472Y-70511556D01*
X134720958Y-70676942D01*
X134720960Y-70676944D01*
X134848747Y-70818866D01*
X135003248Y-70931118D01*
X135177712Y-71008794D01*
X135364513Y-71048500D01*
X135555485Y-71048500D01*
X135555487Y-71048500D01*
X135742288Y-71008794D01*
X135916752Y-70931118D01*
X136071253Y-70818866D01*
X136199040Y-70676944D01*
X136294527Y-70511556D01*
X136353542Y-70329928D01*
X136373504Y-70140000D01*
X136353542Y-69950072D01*
X136323626Y-69858000D01*
X136294528Y-69768446D01*
X136275381Y-69735283D01*
X136258500Y-69672282D01*
X136258500Y-66766371D01*
X136268091Y-66718153D01*
X136295402Y-66677278D01*
X137386336Y-65586343D01*
X137415303Y-65564713D01*
X137449223Y-65552198D01*
X137512288Y-65538794D01*
X137686752Y-65461118D01*
X137841253Y-65348866D01*
X137969040Y-65206944D01*
X138064527Y-65041556D01*
X138123542Y-64859928D01*
X138143504Y-64670000D01*
X138123542Y-64480072D01*
X138077141Y-64337265D01*
X138064527Y-64298443D01*
X137969041Y-64133057D01*
X137846774Y-63997266D01*
X137841253Y-63991134D01*
X137840756Y-63990773D01*
X137686753Y-63878883D01*
X137686752Y-63878882D01*
X137512288Y-63801206D01*
X137325487Y-63761500D01*
X137134513Y-63761500D01*
X137020624Y-63785708D01*
X136947711Y-63801206D01*
X136773246Y-63878883D01*
X136618747Y-63991133D01*
X136490958Y-64133057D01*
X136395473Y-64298443D01*
X136340612Y-64467285D01*
X136309874Y-64517443D01*
X135009225Y-65818092D01*
X134995377Y-65830061D01*
X134975941Y-65844531D01*
X134943771Y-65882869D01*
X134936357Y-65890961D01*
X134932422Y-65894895D01*
X134912997Y-65919461D01*
X134910688Y-65922294D01*
X134861119Y-65981369D01*
X134850589Y-65997899D01*
X134817995Y-66067794D01*
X134816401Y-66071087D01*
X134781795Y-66139997D01*
X134775363Y-66158500D01*
X134759759Y-66234064D01*
X134758967Y-66237637D01*
X134741192Y-66312640D01*
X134739202Y-66332114D01*
X134741447Y-66409259D01*
X134741500Y-66412923D01*
X134741500Y-69533717D01*
X134724619Y-69596717D01*
X134625472Y-69768443D01*
X134566458Y-69950070D01*
X134546496Y-70139999D01*
X131718279Y-70139999D01*
X131625536Y-70036997D01*
X131611253Y-70021134D01*
X131456752Y-69908882D01*
X131282288Y-69831206D01*
X131095487Y-69791500D01*
X130904513Y-69791500D01*
X130779978Y-69817970D01*
X130717711Y-69831206D01*
X130659977Y-69856911D01*
X130585746Y-69889960D01*
X130524614Y-69900465D01*
X130465875Y-69880525D01*
X130423769Y-69834975D01*
X130408500Y-69774853D01*
X130408500Y-59600000D01*
X134286496Y-59600000D01*
X134306458Y-59789929D01*
X134365472Y-59971556D01*
X134460958Y-60136942D01*
X134539761Y-60224462D01*
X134588747Y-60278866D01*
X134743248Y-60391118D01*
X134917712Y-60468794D01*
X135104513Y-60508500D01*
X135295485Y-60508500D01*
X135295487Y-60508500D01*
X135482288Y-60468794D01*
X135656752Y-60391118D01*
X135668529Y-60382561D01*
X135703649Y-60364667D01*
X135742586Y-60358500D01*
X135857414Y-60358500D01*
X135896351Y-60364667D01*
X135931470Y-60382561D01*
X135943248Y-60391118D01*
X136117712Y-60468794D01*
X136304513Y-60508500D01*
X136495485Y-60508500D01*
X136495487Y-60508500D01*
X136682288Y-60468794D01*
X136856752Y-60391118D01*
X136868529Y-60382561D01*
X136903649Y-60364667D01*
X136942586Y-60358500D01*
X137533629Y-60358500D01*
X137581847Y-60368091D01*
X137622724Y-60395405D01*
X138404595Y-61177276D01*
X138431909Y-61218153D01*
X138441500Y-61266371D01*
X138441500Y-69663000D01*
X138424619Y-69726000D01*
X138365472Y-69828444D01*
X138306458Y-70010070D01*
X138286496Y-70200000D01*
X138306458Y-70389929D01*
X138365472Y-70571556D01*
X138460958Y-70736942D01*
X138460960Y-70736944D01*
X138588747Y-70878866D01*
X138743248Y-70991118D01*
X138917712Y-71068794D01*
X139104513Y-71108500D01*
X139295485Y-71108500D01*
X139295487Y-71108500D01*
X139482288Y-71068794D01*
X139604254Y-71014491D01*
X139665386Y-71003987D01*
X139724124Y-71023926D01*
X139766231Y-71069477D01*
X139781500Y-71129599D01*
X139781500Y-74503000D01*
X139764619Y-74566000D01*
X139705472Y-74668444D01*
X139646458Y-74850070D01*
X139626496Y-75040000D01*
X139646458Y-75229929D01*
X139705472Y-75411556D01*
X139800958Y-75576942D01*
X139928746Y-75718865D01*
X139928747Y-75718866D01*
X140083248Y-75831118D01*
X140257712Y-75908794D01*
X140444513Y-75948500D01*
X140635485Y-75948500D01*
X140635487Y-75948500D01*
X140822288Y-75908794D01*
X140964252Y-75845587D01*
X141025386Y-75835083D01*
X141084125Y-75855023D01*
X141126231Y-75900573D01*
X141141500Y-75960695D01*
X141141500Y-82033628D01*
X141131909Y-82081846D01*
X141104595Y-82122723D01*
X141010763Y-82216555D01*
X140943666Y-82283652D01*
X140914693Y-82305287D01*
X140880769Y-82317802D01*
X140817715Y-82331205D01*
X140817713Y-82331205D01*
X140817712Y-82331206D01*
X140643248Y-82408882D01*
X140643246Y-82408883D01*
X140488747Y-82521133D01*
X140360958Y-82663057D01*
X140265472Y-82828443D01*
X140206458Y-83010070D01*
X140186496Y-83200000D01*
X140206458Y-83389929D01*
X140265472Y-83571556D01*
X140360958Y-83736942D01*
X140437997Y-83822502D01*
X140488747Y-83878866D01*
X140643248Y-83991118D01*
X140817712Y-84068794D01*
X141004513Y-84108500D01*
X141195485Y-84108500D01*
X141195487Y-84108500D01*
X141382288Y-84068794D01*
X141556752Y-83991118D01*
X141711253Y-83878866D01*
X141839040Y-83736944D01*
X141934527Y-83571556D01*
X141989388Y-83402711D01*
X142020124Y-83352555D01*
X142390777Y-82981902D01*
X142404624Y-82969936D01*
X142424058Y-82955469D01*
X142456226Y-82917131D01*
X142463642Y-82909037D01*
X142467581Y-82905100D01*
X142487012Y-82880523D01*
X142489286Y-82877731D01*
X142538032Y-82819640D01*
X142538033Y-82819636D01*
X142538890Y-82818616D01*
X142549402Y-82802117D01*
X142555583Y-82788861D01*
X142582036Y-82732131D01*
X142583544Y-82729015D01*
X142617609Y-82661188D01*
X142617610Y-82661179D01*
X142618212Y-82659983D01*
X142624634Y-82641509D01*
X142632291Y-82604426D01*
X142640241Y-82565919D01*
X142641022Y-82562397D01*
X142658500Y-82488656D01*
X142658500Y-82488654D01*
X142658808Y-82487355D01*
X142660797Y-82467885D01*
X142660758Y-82466560D01*
X142660759Y-82466558D01*
X142658553Y-82390741D01*
X142658500Y-82387077D01*
X142658500Y-70337499D01*
X142948996Y-70337499D01*
X142968958Y-70527429D01*
X143027972Y-70709056D01*
X143123458Y-70874442D01*
X143228512Y-70991116D01*
X143251247Y-71016366D01*
X143405748Y-71128618D01*
X143580212Y-71206294D01*
X143767013Y-71246000D01*
X143957985Y-71246000D01*
X143957987Y-71246000D01*
X144144788Y-71206294D01*
X144319252Y-71128618D01*
X144473753Y-71016366D01*
X144601540Y-70874444D01*
X144697027Y-70709056D01*
X144756042Y-70527428D01*
X144776004Y-70337500D01*
X144756042Y-70147572D01*
X144697027Y-69965944D01*
X144681182Y-69938499D01*
X144637881Y-69863500D01*
X144621000Y-69800500D01*
X144621000Y-57797121D01*
X156162086Y-57797121D01*
X156162087Y-57797122D01*
X156417497Y-58003950D01*
X156743451Y-58215627D01*
X157089755Y-58392078D01*
X157452586Y-58531355D01*
X157828004Y-58631948D01*
X158211882Y-58692748D01*
X158600000Y-58713089D01*
X158988117Y-58692748D01*
X159371995Y-58631948D01*
X159747413Y-58531355D01*
X160110244Y-58392078D01*
X160456548Y-58215627D01*
X160782497Y-58003953D01*
X161037912Y-57797121D01*
X158600001Y-55359210D01*
X158599999Y-55359210D01*
X156162086Y-57797121D01*
X144621000Y-57797121D01*
X144621000Y-56799500D01*
X144637881Y-56736500D01*
X144660302Y-56697664D01*
X144697027Y-56634056D01*
X144756042Y-56452428D01*
X144776004Y-56262500D01*
X144756042Y-56072572D01*
X144697027Y-55890944D01*
X144697027Y-55890943D01*
X144601541Y-55725557D01*
X144473752Y-55583633D01*
X144319253Y-55471383D01*
X144319252Y-55471382D01*
X144144788Y-55393706D01*
X143957987Y-55354000D01*
X143767013Y-55354000D01*
X143642478Y-55380470D01*
X143580211Y-55393706D01*
X143405746Y-55471383D01*
X143251247Y-55583633D01*
X143123458Y-55725557D01*
X143027972Y-55890943D01*
X142968958Y-56072570D01*
X142948996Y-56262499D01*
X142968958Y-56452429D01*
X143027972Y-56634055D01*
X143087119Y-56736500D01*
X143104000Y-56799500D01*
X143104000Y-69800500D01*
X143087119Y-69863500D01*
X143027972Y-69965944D01*
X142968958Y-70147570D01*
X142948996Y-70337499D01*
X142658500Y-70337499D01*
X142658500Y-65437000D01*
X142675381Y-65374000D01*
X142700088Y-65331206D01*
X142734527Y-65271556D01*
X142793542Y-65089928D01*
X142813504Y-64900000D01*
X142793542Y-64710072D01*
X142751302Y-64580072D01*
X142734527Y-64528443D01*
X142639041Y-64363057D01*
X142528444Y-64240227D01*
X142511253Y-64221134D01*
X142506401Y-64217609D01*
X142390026Y-64133057D01*
X142356752Y-64108882D01*
X142182288Y-64031206D01*
X141995487Y-63991500D01*
X141804513Y-63991500D01*
X141710421Y-64011500D01*
X141617711Y-64031206D01*
X141544830Y-64063655D01*
X141475747Y-64094412D01*
X141414614Y-64104917D01*
X141355875Y-64084977D01*
X141313769Y-64039427D01*
X141298500Y-63979305D01*
X141298500Y-55000000D01*
X154886910Y-55000000D01*
X154907251Y-55388117D01*
X154968051Y-55771995D01*
X155068644Y-56147413D01*
X155207921Y-56510244D01*
X155384372Y-56856548D01*
X155596049Y-57182502D01*
X155802876Y-57437911D01*
X155802877Y-57437912D01*
X158240790Y-55000001D01*
X158959210Y-55000001D01*
X161397121Y-57437912D01*
X161603953Y-57182497D01*
X161815627Y-56856548D01*
X161992078Y-56510244D01*
X162131355Y-56147413D01*
X162231948Y-55771995D01*
X162292748Y-55388117D01*
X162313089Y-55000000D01*
X162292748Y-54611882D01*
X162231948Y-54228004D01*
X162131355Y-53852586D01*
X161992078Y-53489755D01*
X161815628Y-53143455D01*
X161603948Y-52817496D01*
X161397122Y-52562087D01*
X161397121Y-52562086D01*
X158959210Y-54999999D01*
X158959210Y-55000001D01*
X158240790Y-55000001D01*
X158240790Y-54999999D01*
X155802877Y-52562086D01*
X155596047Y-52817502D01*
X155384371Y-53143455D01*
X155207921Y-53489755D01*
X155068644Y-53852586D01*
X154968051Y-54228004D01*
X154907251Y-54611882D01*
X154886910Y-55000000D01*
X141298500Y-55000000D01*
X141298500Y-54304441D01*
X141299830Y-54286180D01*
X141301431Y-54275248D01*
X141303341Y-54262211D01*
X141298979Y-54212353D01*
X141298500Y-54201372D01*
X141298500Y-54195823D01*
X141298228Y-54193495D01*
X141294862Y-54164705D01*
X141294492Y-54161079D01*
X141290998Y-54121136D01*
X141287887Y-54085573D01*
X141287886Y-54085570D01*
X141287770Y-54084242D01*
X141283537Y-54065147D01*
X141283079Y-54063889D01*
X141283079Y-54063887D01*
X141257137Y-53992611D01*
X141255977Y-53989277D01*
X141232114Y-53917261D01*
X141232111Y-53917256D01*
X141231691Y-53915988D01*
X141223167Y-53898380D01*
X141180775Y-53833925D01*
X141178807Y-53830836D01*
X141138328Y-53765211D01*
X141125964Y-53750034D01*
X141069825Y-53697069D01*
X141067197Y-53694516D01*
X140920126Y-53547445D01*
X140889388Y-53497286D01*
X140834527Y-53328444D01*
X140739041Y-53163057D01*
X140611252Y-53021133D01*
X140456753Y-52908883D01*
X140456752Y-52908882D01*
X140282288Y-52831206D01*
X140095487Y-52791500D01*
X139904513Y-52791500D01*
X139782212Y-52817496D01*
X139717711Y-52831206D01*
X139543246Y-52908883D01*
X139388747Y-53021133D01*
X139260958Y-53163057D01*
X139165472Y-53328443D01*
X139106458Y-53510070D01*
X139086496Y-53700000D01*
X139106458Y-53889929D01*
X139165472Y-54071556D01*
X139260958Y-54236942D01*
X139326804Y-54310071D01*
X139388747Y-54378866D01*
X139543248Y-54491118D01*
X139664263Y-54544997D01*
X139706749Y-54563913D01*
X139746137Y-54591493D01*
X139772325Y-54631820D01*
X139781500Y-54679020D01*
X139781500Y-60104629D01*
X139767767Y-60161832D01*
X139729561Y-60206565D01*
X139675211Y-60229078D01*
X139616564Y-60224462D01*
X139566405Y-60193724D01*
X138481909Y-59109228D01*
X138469937Y-59095375D01*
X138455470Y-59075943D01*
X138446947Y-59068791D01*
X138417127Y-59043769D01*
X138409032Y-59036351D01*
X138405101Y-59032420D01*
X138393068Y-59022905D01*
X138380528Y-59012989D01*
X138377690Y-59010677D01*
X138318622Y-58961113D01*
X138302110Y-58950594D01*
X138232205Y-58917996D01*
X138228909Y-58916401D01*
X138159996Y-58881792D01*
X138141504Y-58875365D01*
X138065942Y-58859762D01*
X138062367Y-58858969D01*
X137987356Y-58841191D01*
X137967885Y-58839202D01*
X137890741Y-58841447D01*
X137887077Y-58841500D01*
X136942586Y-58841500D01*
X136903649Y-58835333D01*
X136868529Y-58817438D01*
X136856752Y-58808882D01*
X136682288Y-58731206D01*
X136495487Y-58691500D01*
X136304513Y-58691500D01*
X136179979Y-58717970D01*
X136117711Y-58731206D01*
X136056678Y-58758380D01*
X135943248Y-58808882D01*
X135931470Y-58817438D01*
X135896351Y-58835333D01*
X135857414Y-58841500D01*
X135742586Y-58841500D01*
X135703649Y-58835333D01*
X135668529Y-58817438D01*
X135656752Y-58808882D01*
X135482288Y-58731206D01*
X135295487Y-58691500D01*
X135104513Y-58691500D01*
X134979979Y-58717970D01*
X134917711Y-58731206D01*
X134743246Y-58808883D01*
X134588747Y-58921133D01*
X134460958Y-59063057D01*
X134365472Y-59228443D01*
X134306458Y-59410070D01*
X134286496Y-59600000D01*
X130408500Y-59600000D01*
X130408500Y-55230290D01*
X130416868Y-55185138D01*
X130440861Y-55145983D01*
X130457004Y-55128053D01*
X130461550Y-55123262D01*
X130476072Y-55108741D01*
X130489008Y-55092765D01*
X130493278Y-55087768D01*
X130539039Y-55036945D01*
X130546072Y-55024764D01*
X130557272Y-55008467D01*
X130566129Y-54997530D01*
X130597182Y-54936581D01*
X130600321Y-54930799D01*
X130634527Y-54871556D01*
X130638878Y-54858162D01*
X130646439Y-54839910D01*
X130652829Y-54827370D01*
X130670532Y-54761298D01*
X130672393Y-54755014D01*
X130693542Y-54689928D01*
X130695012Y-54675937D01*
X130698614Y-54656495D01*
X130702257Y-54642904D01*
X130705837Y-54574589D01*
X130706349Y-54568068D01*
X130713504Y-54500000D01*
X130712032Y-54486005D01*
X130711515Y-54466236D01*
X130712252Y-54452190D01*
X130701549Y-54384622D01*
X130700690Y-54378089D01*
X130699148Y-54363420D01*
X130693542Y-54310072D01*
X130689194Y-54296691D01*
X130684577Y-54277461D01*
X130682377Y-54263570D01*
X130682377Y-54263568D01*
X130657847Y-54199667D01*
X130655663Y-54193495D01*
X130654936Y-54191259D01*
X130634527Y-54128444D01*
X130627490Y-54116255D01*
X130618980Y-54098413D01*
X130613938Y-54085278D01*
X130576678Y-54027903D01*
X130573233Y-54022280D01*
X130554154Y-53989235D01*
X130539040Y-53963056D01*
X130529623Y-53952598D01*
X130517591Y-53936917D01*
X130509926Y-53925113D01*
X130461555Y-53876742D01*
X130457033Y-53871978D01*
X130411253Y-53821134D01*
X130411252Y-53821133D01*
X130411250Y-53821131D01*
X130399866Y-53812860D01*
X130384836Y-53800023D01*
X130374887Y-53790074D01*
X130360802Y-53780927D01*
X130317528Y-53752824D01*
X130312093Y-53749089D01*
X130268140Y-53717156D01*
X130256752Y-53708882D01*
X130256750Y-53708881D01*
X130243894Y-53703157D01*
X130226520Y-53693724D01*
X130214722Y-53686062D01*
X130150858Y-53661546D01*
X130144772Y-53659025D01*
X130082287Y-53631204D01*
X130068516Y-53628277D01*
X130049570Y-53622665D01*
X130036432Y-53617622D01*
X129968873Y-53606921D01*
X129962390Y-53605720D01*
X129895487Y-53591500D01*
X129881416Y-53591500D01*
X129861707Y-53589949D01*
X129856788Y-53589170D01*
X129847810Y-53587748D01*
X129847809Y-53587748D01*
X129779519Y-53591327D01*
X129772925Y-53591500D01*
X129704511Y-53591500D01*
X129690737Y-53594427D01*
X129671145Y-53597006D01*
X129657095Y-53597742D01*
X129591027Y-53615445D01*
X129584616Y-53616984D01*
X129517711Y-53631206D01*
X129504841Y-53636935D01*
X129486223Y-53643527D01*
X129472633Y-53647169D01*
X129411703Y-53678214D01*
X129405753Y-53681052D01*
X129343242Y-53708884D01*
X129331856Y-53717156D01*
X129315015Y-53727477D01*
X129302471Y-53733869D01*
X129249313Y-53776915D01*
X129244083Y-53780927D01*
X129188746Y-53821132D01*
X129142983Y-53871958D01*
X129138443Y-53876742D01*
X128915163Y-54100022D01*
X128900134Y-54112860D01*
X128888743Y-54121136D01*
X128842991Y-54171949D01*
X128838456Y-54176729D01*
X128823927Y-54191259D01*
X128811004Y-54207216D01*
X128806728Y-54212223D01*
X128760957Y-54263059D01*
X128753919Y-54275248D01*
X128742733Y-54291523D01*
X128733870Y-54302469D01*
X128702814Y-54363420D01*
X128699667Y-54369217D01*
X128665471Y-54428445D01*
X128661118Y-54441841D01*
X128653559Y-54460089D01*
X128647172Y-54472626D01*
X128629472Y-54538678D01*
X128627600Y-54544997D01*
X128606457Y-54610072D01*
X128604985Y-54624077D01*
X128601383Y-54643509D01*
X128597742Y-54657095D01*
X128594162Y-54725399D01*
X128593645Y-54731966D01*
X128591500Y-54752385D01*
X128591500Y-54772926D01*
X128591327Y-54779520D01*
X128587748Y-54847809D01*
X128589949Y-54861707D01*
X128591500Y-54881416D01*
X128591500Y-66212740D01*
X128576056Y-66273184D01*
X128533509Y-66318810D01*
X128474290Y-66338433D01*
X128412916Y-66327243D01*
X128364433Y-66287982D01*
X128355470Y-66275943D01*
X128350154Y-66271482D01*
X128317127Y-66243769D01*
X128309032Y-66236351D01*
X128305101Y-66232420D01*
X128297081Y-66226078D01*
X128280528Y-66212989D01*
X128277690Y-66210677D01*
X128218622Y-66161113D01*
X128202110Y-66150594D01*
X128132205Y-66117996D01*
X128128909Y-66116401D01*
X128123622Y-66113746D01*
X128098754Y-66101257D01*
X128059996Y-66081792D01*
X128041504Y-66075365D01*
X127965942Y-66059762D01*
X127962367Y-66058969D01*
X127887356Y-66041191D01*
X127867885Y-66039202D01*
X127790741Y-66041447D01*
X127787077Y-66041500D01*
X127742586Y-66041500D01*
X127703649Y-66035333D01*
X127668529Y-66017438D01*
X127656752Y-66008882D01*
X127482288Y-65931206D01*
X127295487Y-65891500D01*
X127104513Y-65891500D01*
X126979978Y-65917970D01*
X126917711Y-65931206D01*
X126743246Y-66008883D01*
X126588747Y-66121133D01*
X126460958Y-66263057D01*
X126365472Y-66428443D01*
X126306458Y-66610070D01*
X126286496Y-66800000D01*
X126306458Y-66989929D01*
X126365472Y-67171556D01*
X126460958Y-67336942D01*
X126497667Y-67377711D01*
X126588747Y-67478866D01*
X126743248Y-67591118D01*
X126917712Y-67668794D01*
X127104513Y-67708500D01*
X127295485Y-67708500D01*
X127295487Y-67708500D01*
X127482288Y-67668794D01*
X127482291Y-67668792D01*
X127490964Y-67666949D01*
X127530978Y-67658075D01*
X127580382Y-67667229D01*
X127622280Y-67694961D01*
X128103724Y-68176405D01*
X128134462Y-68226564D01*
X128139078Y-68285211D01*
X128116565Y-68339561D01*
X128071832Y-68377767D01*
X128014629Y-68391500D01*
X117597326Y-68391500D01*
X117532055Y-68373276D01*
X117485664Y-68323875D01*
X117471575Y-68257588D01*
X117493861Y-68193590D01*
X117546075Y-68150393D01*
X117656752Y-68101118D01*
X117668529Y-68092561D01*
X117703649Y-68074667D01*
X117742586Y-68068500D01*
X121625559Y-68068500D01*
X121643820Y-68069830D01*
X121667789Y-68073341D01*
X121714253Y-68069275D01*
X121717647Y-68068979D01*
X121728628Y-68068500D01*
X121734177Y-68068500D01*
X121734180Y-68068500D01*
X121765301Y-68064861D01*
X121768889Y-68064495D01*
X121844426Y-68057887D01*
X121844430Y-68057885D01*
X121845751Y-68057770D01*
X121864856Y-68053535D01*
X121866106Y-68053079D01*
X121866113Y-68053079D01*
X121937400Y-68027132D01*
X121940769Y-68025961D01*
X122012738Y-68002114D01*
X122012739Y-68002112D01*
X122014007Y-68001693D01*
X122031613Y-67993169D01*
X122032725Y-67992437D01*
X122032732Y-67992435D01*
X122096138Y-67950730D01*
X122099161Y-67948806D01*
X122163651Y-67909030D01*
X122163652Y-67909028D01*
X122164788Y-67908328D01*
X122179959Y-67895970D01*
X122180871Y-67895002D01*
X122180874Y-67895001D01*
X122232929Y-67839824D01*
X122235448Y-67837231D01*
X125190777Y-64881902D01*
X125204624Y-64869936D01*
X125224058Y-64855469D01*
X125256226Y-64817131D01*
X125263642Y-64809037D01*
X125267581Y-64805100D01*
X125287012Y-64780523D01*
X125289286Y-64777731D01*
X125338032Y-64719640D01*
X125338033Y-64719636D01*
X125338890Y-64718616D01*
X125349402Y-64702117D01*
X125364378Y-64669999D01*
X125382036Y-64632131D01*
X125383544Y-64629015D01*
X125417609Y-64561188D01*
X125417610Y-64561179D01*
X125418212Y-64559983D01*
X125424634Y-64541509D01*
X125432604Y-64502908D01*
X125440241Y-64465919D01*
X125441022Y-64462397D01*
X125458500Y-64388656D01*
X125458500Y-64388654D01*
X125458808Y-64387355D01*
X125460797Y-64367885D01*
X125460758Y-64366560D01*
X125460759Y-64366558D01*
X125458553Y-64290741D01*
X125458500Y-64287077D01*
X125458500Y-53237000D01*
X125475381Y-53174000D01*
X125497802Y-53135164D01*
X125534527Y-53071556D01*
X125593542Y-52889928D01*
X125613504Y-52700000D01*
X125593542Y-52510072D01*
X125534527Y-52328444D01*
X125534527Y-52328443D01*
X125462031Y-52202877D01*
X156162086Y-52202877D01*
X158599999Y-54640790D01*
X158600001Y-54640790D01*
X161037912Y-52202877D01*
X161037911Y-52202876D01*
X160782502Y-51996049D01*
X160456548Y-51784372D01*
X160110244Y-51607921D01*
X159747413Y-51468644D01*
X159371995Y-51368051D01*
X158988117Y-51307251D01*
X158600000Y-51286910D01*
X158211882Y-51307251D01*
X157828004Y-51368051D01*
X157452586Y-51468644D01*
X157089755Y-51607921D01*
X156743455Y-51784371D01*
X156417502Y-51996047D01*
X156162086Y-52202877D01*
X125462031Y-52202877D01*
X125439041Y-52163057D01*
X125311252Y-52021133D01*
X125156753Y-51908883D01*
X125156752Y-51908882D01*
X124982288Y-51831206D01*
X124795487Y-51791500D01*
X124604513Y-51791500D01*
X124479979Y-51817970D01*
X124417711Y-51831206D01*
X124243246Y-51908883D01*
X124088747Y-52021133D01*
X123960958Y-52163057D01*
X123865472Y-52328443D01*
X123806458Y-52510070D01*
X123786496Y-52699999D01*
X123806458Y-52889929D01*
X123865472Y-53071555D01*
X123924619Y-53174000D01*
X123941500Y-53237000D01*
X123941500Y-63933629D01*
X123931909Y-63981847D01*
X123904595Y-64022724D01*
X121412724Y-66514595D01*
X121371847Y-66541909D01*
X121323629Y-66551500D01*
X117742586Y-66551500D01*
X117703649Y-66545333D01*
X117668529Y-66527438D01*
X117656752Y-66518882D01*
X117482288Y-66441206D01*
X117295487Y-66401500D01*
X117104513Y-66401500D01*
X116979979Y-66427970D01*
X116917711Y-66441206D01*
X116743246Y-66518883D01*
X116588747Y-66631133D01*
X116460958Y-66773057D01*
X116365472Y-66938443D01*
X116306458Y-67120070D01*
X116286496Y-67310000D01*
X116306458Y-67499929D01*
X116365472Y-67681556D01*
X116460958Y-67846942D01*
X116513138Y-67904894D01*
X116588747Y-67988866D01*
X116743248Y-68101118D01*
X116853924Y-68150393D01*
X116906139Y-68193590D01*
X116928425Y-68257588D01*
X116914336Y-68323875D01*
X116867945Y-68373276D01*
X116802674Y-68391500D01*
X113885371Y-68391500D01*
X113828168Y-68377767D01*
X113783435Y-68339561D01*
X113760922Y-68285211D01*
X113765538Y-68226564D01*
X113796276Y-68176405D01*
X114315420Y-67657261D01*
X115890777Y-66081902D01*
X115904624Y-66069936D01*
X115924058Y-66055469D01*
X115956228Y-66017128D01*
X115963645Y-66009034D01*
X115967580Y-66005101D01*
X115987043Y-65980484D01*
X115989268Y-65977753D01*
X116038032Y-65919640D01*
X116038033Y-65919636D01*
X116038890Y-65918616D01*
X116049402Y-65902117D01*
X116058378Y-65882869D01*
X116081992Y-65832226D01*
X116083587Y-65828932D01*
X116096888Y-65802446D01*
X116117609Y-65761188D01*
X116117609Y-65761185D01*
X116118207Y-65759996D01*
X116124632Y-65741512D01*
X116128659Y-65722009D01*
X116151759Y-65671220D01*
X116194526Y-65635386D01*
X116248574Y-65621534D01*
X116303305Y-65632379D01*
X116317712Y-65638794D01*
X116504513Y-65678500D01*
X116695485Y-65678500D01*
X116695487Y-65678500D01*
X116882288Y-65638794D01*
X117056752Y-65561118D01*
X117211253Y-65448866D01*
X117339040Y-65306944D01*
X117434527Y-65141556D01*
X117493542Y-64959928D01*
X117513504Y-64770000D01*
X117493542Y-64580072D01*
X117455876Y-64464149D01*
X117434527Y-64398443D01*
X117339041Y-64233057D01*
X117223663Y-64104917D01*
X117211253Y-64091134D01*
X117205553Y-64086993D01*
X117134002Y-64035007D01*
X117056752Y-63978882D01*
X116882288Y-63901206D01*
X116695487Y-63861500D01*
X116504513Y-63861500D01*
X116379979Y-63887970D01*
X116317711Y-63901206D01*
X116300471Y-63908882D01*
X116143248Y-63978882D01*
X116131470Y-63987438D01*
X116096351Y-64005333D01*
X116057414Y-64011500D01*
X116038933Y-64011500D01*
X115999997Y-64005333D01*
X115964872Y-63987436D01*
X115856751Y-63908881D01*
X115787061Y-63877853D01*
X115739361Y-63840752D01*
X115714421Y-63785708D01*
X115717979Y-63725382D01*
X115749214Y-63673653D01*
X116427464Y-62995404D01*
X116468342Y-62968091D01*
X116516560Y-62958500D01*
X121857414Y-62958500D01*
X121896351Y-62964667D01*
X121931470Y-62982561D01*
X121943248Y-62991118D01*
X122117712Y-63068794D01*
X122304513Y-63108500D01*
X122495485Y-63108500D01*
X122495487Y-63108500D01*
X122682288Y-63068794D01*
X122856752Y-62991118D01*
X123011253Y-62878866D01*
X123139040Y-62736944D01*
X123234527Y-62571556D01*
X123293542Y-62389928D01*
X123313504Y-62200000D01*
X123293542Y-62010072D01*
X123238769Y-61841500D01*
X123234527Y-61828443D01*
X123132419Y-61651587D01*
X123133173Y-61651151D01*
X123111549Y-61610483D01*
X123111549Y-61549517D01*
X123133173Y-61508848D01*
X123132419Y-61508413D01*
X123234527Y-61331556D01*
X123251626Y-61278932D01*
X123293542Y-61149928D01*
X123313504Y-60960000D01*
X123293542Y-60770072D01*
X123234527Y-60588444D01*
X123234527Y-60588443D01*
X123139041Y-60423057D01*
X123011252Y-60281133D01*
X122907162Y-60205507D01*
X122856752Y-60168882D01*
X122682288Y-60091206D01*
X122495487Y-60051500D01*
X122304513Y-60051500D01*
X122179979Y-60077970D01*
X122117711Y-60091206D01*
X122087563Y-60104629D01*
X121943248Y-60168882D01*
X121931470Y-60177438D01*
X121896351Y-60195333D01*
X121857414Y-60201500D01*
X115604442Y-60201500D01*
X115586182Y-60200170D01*
X115562212Y-60196659D01*
X115562211Y-60196659D01*
X115536075Y-60198945D01*
X115512353Y-60201021D01*
X115501372Y-60201500D01*
X115495816Y-60201500D01*
X115464712Y-60205135D01*
X115461070Y-60205507D01*
X115384260Y-60212227D01*
X115365123Y-60216470D01*
X115292634Y-60242853D01*
X115289176Y-60244055D01*
X115216000Y-60268303D01*
X115198372Y-60276838D01*
X115133918Y-60319229D01*
X115130831Y-60321196D01*
X115065218Y-60361667D01*
X115050032Y-60374038D01*
X114997087Y-60430156D01*
X114994534Y-60432783D01*
X113874191Y-61553126D01*
X113825597Y-61583344D01*
X113768650Y-61588953D01*
X113715094Y-61568796D01*
X113675977Y-61527031D01*
X113639041Y-61463057D01*
X113511252Y-61321133D01*
X113390114Y-61233121D01*
X113356752Y-61208882D01*
X113182288Y-61131206D01*
X112995487Y-61091500D01*
X112804513Y-61091500D01*
X112679979Y-61117970D01*
X112617711Y-61131206D01*
X112443246Y-61208883D01*
X112288747Y-61321133D01*
X112160958Y-61463057D01*
X112065473Y-61628443D01*
X112010612Y-61797285D01*
X111979874Y-61847443D01*
X111209225Y-62618092D01*
X111195376Y-62630062D01*
X111173812Y-62646117D01*
X111112468Y-62670283D01*
X111047318Y-62660159D01*
X110982288Y-62631206D01*
X110795487Y-62591500D01*
X110604513Y-62591500D01*
X110479979Y-62617970D01*
X110417711Y-62631206D01*
X110330480Y-62670043D01*
X110243248Y-62708882D01*
X110231470Y-62717438D01*
X110196351Y-62735333D01*
X110157414Y-62741500D01*
X106866371Y-62741500D01*
X106818153Y-62731909D01*
X106777276Y-62704595D01*
X104995405Y-60922724D01*
X104968091Y-60881847D01*
X104958500Y-60833629D01*
X104958500Y-57437000D01*
X104975381Y-57374000D01*
X105009592Y-57314744D01*
X105034527Y-57271556D01*
X105093542Y-57089928D01*
X105113504Y-56900000D01*
X105093542Y-56710072D01*
X105034527Y-56528444D01*
X105034527Y-56528443D01*
X104939041Y-56363057D01*
X104811252Y-56221133D01*
X104656753Y-56108883D01*
X104656752Y-56108882D01*
X104482288Y-56031206D01*
X104295487Y-55991500D01*
X104104513Y-55991500D01*
X103979979Y-56017970D01*
X103917711Y-56031206D01*
X103743246Y-56108883D01*
X103588747Y-56221133D01*
X103460958Y-56363057D01*
X103365472Y-56528443D01*
X103306458Y-56710070D01*
X103286496Y-56899999D01*
X103306458Y-57089929D01*
X103365472Y-57271555D01*
X103424619Y-57374000D01*
X103441500Y-57437000D01*
X103441500Y-61135559D01*
X103440170Y-61153820D01*
X103436659Y-61177788D01*
X103441021Y-61227647D01*
X103441500Y-61238628D01*
X103441500Y-61244184D01*
X103445135Y-61275290D01*
X103445507Y-61278932D01*
X103452228Y-61355744D01*
X103456469Y-61374873D01*
X103482846Y-61447342D01*
X103484049Y-61450804D01*
X103508304Y-61524000D01*
X103516837Y-61541627D01*
X103559232Y-61606084D01*
X103561171Y-61609127D01*
X103594435Y-61663056D01*
X103601674Y-61674792D01*
X103614038Y-61689967D01*
X103614998Y-61690873D01*
X103614999Y-61690874D01*
X103670155Y-61742911D01*
X103672784Y-61745465D01*
X105918092Y-63990773D01*
X105930060Y-64004620D01*
X105930591Y-64005333D01*
X105944531Y-64024058D01*
X105982870Y-64056228D01*
X105990974Y-64063655D01*
X105994899Y-64067580D01*
X106019502Y-64087034D01*
X106022284Y-64089300D01*
X106040895Y-64104917D01*
X106081382Y-64138890D01*
X106097889Y-64149405D01*
X106167794Y-64182002D01*
X106171094Y-64183600D01*
X106240000Y-64218206D01*
X106258485Y-64224631D01*
X106259791Y-64224900D01*
X106259794Y-64224902D01*
X106334113Y-64240247D01*
X106337525Y-64241003D01*
X106411344Y-64258500D01*
X106411347Y-64258500D01*
X106412642Y-64258807D01*
X106432111Y-64260796D01*
X106433438Y-64260757D01*
X106433442Y-64260758D01*
X106507697Y-64258597D01*
X106509224Y-64258553D01*
X106512888Y-64258500D01*
X110157414Y-64258500D01*
X110196351Y-64264667D01*
X110231470Y-64282561D01*
X110243248Y-64291118D01*
X110417712Y-64368794D01*
X110604513Y-64408500D01*
X110604515Y-64408500D01*
X110808730Y-64408500D01*
X110808730Y-64410068D01*
X110844914Y-64410542D01*
X110894794Y-64435141D01*
X110929226Y-64478817D01*
X110941500Y-64533061D01*
X110941500Y-65163000D01*
X110924619Y-65226000D01*
X110865472Y-65328444D01*
X110806458Y-65510070D01*
X110795884Y-65610677D01*
X110786496Y-65700000D01*
X110806458Y-65889928D01*
X110806458Y-65889930D01*
X110807762Y-65902329D01*
X110795700Y-65970735D01*
X110749222Y-66022354D01*
X110682452Y-66041500D01*
X109664441Y-66041500D01*
X109646180Y-66040170D01*
X109622211Y-66036659D01*
X109572353Y-66041021D01*
X109561372Y-66041500D01*
X109555815Y-66041500D01*
X109524708Y-66045135D01*
X109521067Y-66045507D01*
X109444251Y-66052228D01*
X109425139Y-66056465D01*
X109352653Y-66082846D01*
X109349198Y-66084047D01*
X109275995Y-66108305D01*
X109258373Y-66116837D01*
X109193927Y-66159224D01*
X109190838Y-66161192D01*
X109125218Y-66201667D01*
X109110036Y-66214034D01*
X109057087Y-66270156D01*
X109054534Y-66272783D01*
X108709225Y-66618092D01*
X108695377Y-66630061D01*
X108675941Y-66644531D01*
X108643771Y-66682869D01*
X108636357Y-66690961D01*
X108632422Y-66694895D01*
X108612997Y-66719461D01*
X108610688Y-66722294D01*
X108561119Y-66781369D01*
X108550589Y-66797899D01*
X108517995Y-66867794D01*
X108516401Y-66871087D01*
X108481795Y-66939997D01*
X108475363Y-66958500D01*
X108459759Y-67034064D01*
X108458967Y-67037637D01*
X108441192Y-67112640D01*
X108439202Y-67132114D01*
X108441447Y-67209259D01*
X108441500Y-67212923D01*
X108441500Y-68863000D01*
X108424619Y-68926000D01*
X108365472Y-69028444D01*
X108306458Y-69210070D01*
X108286496Y-69399999D01*
X108306458Y-69589929D01*
X108365472Y-69771556D01*
X108460958Y-69936942D01*
X108551048Y-70036997D01*
X108588747Y-70078866D01*
X108743248Y-70191118D01*
X108917712Y-70268794D01*
X109104513Y-70308500D01*
X109295485Y-70308500D01*
X109295487Y-70308500D01*
X109482288Y-70268794D01*
X109564254Y-70232300D01*
X109625386Y-70221796D01*
X109684124Y-70241735D01*
X109726231Y-70287286D01*
X109741500Y-70347408D01*
X109741500Y-73786076D01*
X109727767Y-73843279D01*
X109689561Y-73888012D01*
X109635211Y-73910525D01*
X109576564Y-73905909D01*
X109526405Y-73875171D01*
X101940586Y-66289352D01*
X101940582Y-66289348D01*
X101833743Y-66201667D01*
X101825502Y-66194904D01*
X101650302Y-66101258D01*
X101460201Y-66043590D01*
X101262500Y-66024119D01*
X101064798Y-66043590D01*
X100874697Y-66101257D01*
X100699498Y-66194904D01*
X100545931Y-66320931D01*
X100419904Y-66474498D01*
X100326257Y-66649697D01*
X100268590Y-66839798D01*
X100249119Y-67037500D01*
X100251632Y-67063020D01*
X100242647Y-67123588D01*
X100206172Y-67172768D01*
X100150820Y-67198947D01*
X100089663Y-67195942D01*
X100037144Y-67164463D01*
X98581909Y-65709228D01*
X98569937Y-65695375D01*
X98555470Y-65675943D01*
X98555469Y-65675942D01*
X98517127Y-65643769D01*
X98509032Y-65636351D01*
X98505101Y-65632420D01*
X98491334Y-65621534D01*
X98480528Y-65612989D01*
X98477690Y-65610677D01*
X98418622Y-65561113D01*
X98402110Y-65550594D01*
X98332205Y-65517996D01*
X98328909Y-65516401D01*
X98259996Y-65481792D01*
X98241504Y-65475365D01*
X98165942Y-65459762D01*
X98162367Y-65458969D01*
X98087356Y-65441191D01*
X98067885Y-65439202D01*
X97990741Y-65441447D01*
X97987077Y-65441500D01*
X97088656Y-65441500D01*
X96942586Y-65441500D01*
X96903649Y-65435333D01*
X96868529Y-65417438D01*
X96856752Y-65408882D01*
X96682288Y-65331206D01*
X96495487Y-65291500D01*
X96304513Y-65291500D01*
X96179979Y-65317970D01*
X96117711Y-65331206D01*
X95943246Y-65408883D01*
X95788747Y-65521133D01*
X95660958Y-65663057D01*
X95565472Y-65828443D01*
X95506458Y-66010070D01*
X95486496Y-66200000D01*
X95506458Y-66389929D01*
X95565472Y-66571556D01*
X95660958Y-66736942D01*
X95684471Y-66763056D01*
X95788747Y-66878866D01*
X95943248Y-66991118D01*
X96117712Y-67068794D01*
X96304513Y-67108500D01*
X96495485Y-67108500D01*
X96495487Y-67108500D01*
X96682288Y-67068794D01*
X96856752Y-66991118D01*
X96868529Y-66982561D01*
X96903649Y-66964667D01*
X96942586Y-66958500D01*
X97044180Y-66958500D01*
X97633629Y-66958500D01*
X97681847Y-66968091D01*
X97722724Y-66995405D01*
X101204595Y-70477276D01*
X101231909Y-70518153D01*
X101241500Y-70566371D01*
X101241500Y-78033628D01*
X101231909Y-78081846D01*
X101204595Y-78122724D01*
X100527555Y-78799762D01*
X100510035Y-78814035D01*
X100457104Y-78870138D01*
X100454552Y-78872765D01*
X99823596Y-79503723D01*
X99773436Y-79534461D01*
X99714789Y-79539077D01*
X99660439Y-79516564D01*
X99622233Y-79471831D01*
X99608500Y-79414628D01*
X99608500Y-73550459D01*
X99608500Y-73550453D01*
X99608145Y-73546853D01*
X99608500Y-73544905D01*
X99608500Y-73544263D01*
X99608617Y-73544263D01*
X99620530Y-73478775D01*
X99667000Y-73427501D01*
X99733538Y-73408500D01*
X99895485Y-73408500D01*
X99895487Y-73408500D01*
X100082288Y-73368794D01*
X100256752Y-73291118D01*
X100411253Y-73178866D01*
X100539040Y-73036944D01*
X100634527Y-72871556D01*
X100693542Y-72689928D01*
X100713504Y-72500000D01*
X100693542Y-72310072D01*
X100634527Y-72128444D01*
X100634527Y-72128443D01*
X100539041Y-71963057D01*
X100411252Y-71821133D01*
X100334002Y-71765008D01*
X100256752Y-71708882D01*
X100082288Y-71631206D01*
X99895487Y-71591500D01*
X99704513Y-71591500D01*
X99579979Y-71617970D01*
X99517711Y-71631206D01*
X99430480Y-71670043D01*
X99343248Y-71708882D01*
X99331470Y-71717438D01*
X99296351Y-71735333D01*
X99257414Y-71741500D01*
X96676829Y-71741500D01*
X96615422Y-71725524D01*
X96586177Y-71697527D01*
X96584444Y-71699261D01*
X96438239Y-71553056D01*
X96440493Y-71550801D01*
X96414451Y-71523589D01*
X96398488Y-71462171D01*
X96414484Y-71400762D01*
X96440246Y-71373869D01*
X96437926Y-71371549D01*
X96573632Y-71235842D01*
X96666659Y-71085022D01*
X96722393Y-70916828D01*
X96733000Y-70813003D01*
X96733000Y-70679000D01*
X95372000Y-70679000D01*
X95309000Y-70662119D01*
X95262881Y-70616000D01*
X95246000Y-70553000D01*
X95246000Y-69329500D01*
X95754000Y-69329500D01*
X95754000Y-70171000D01*
X96733000Y-70171000D01*
X96733000Y-70036997D01*
X96722393Y-69933171D01*
X96666659Y-69764977D01*
X96573632Y-69614157D01*
X96448342Y-69488867D01*
X96297522Y-69395840D01*
X96129328Y-69340106D01*
X96025503Y-69329500D01*
X95754000Y-69329500D01*
X95246000Y-69329500D01*
X94974497Y-69329500D01*
X94870671Y-69340106D01*
X94688496Y-69400474D01*
X94687786Y-69398332D01*
X94660822Y-69407713D01*
X94606682Y-69402254D01*
X94559893Y-69374475D01*
X94529180Y-69329557D01*
X94439899Y-69107375D01*
X94316914Y-68907633D01*
X94161937Y-68731546D01*
X93979437Y-68584187D01*
X93774650Y-68469786D01*
X93553481Y-68391643D01*
X93322282Y-68352000D01*
X93234000Y-68352000D01*
X93234000Y-69858000D01*
X93217119Y-69921000D01*
X93171000Y-69967119D01*
X93108000Y-69984000D01*
X92852000Y-69984000D01*
X92789000Y-69967119D01*
X92742881Y-69921000D01*
X92726000Y-69858000D01*
X92726000Y-68352000D01*
X92696465Y-68352000D01*
X92521273Y-68366910D01*
X92294278Y-68426015D01*
X92289333Y-68428251D01*
X92220899Y-68438345D01*
X92157449Y-68410791D01*
X92118107Y-68353894D01*
X92114732Y-68284801D01*
X92148337Y-68224343D01*
X92890783Y-67481896D01*
X92904624Y-67469936D01*
X92924058Y-67455469D01*
X92956228Y-67417128D01*
X92963645Y-67409034D01*
X92967580Y-67405101D01*
X92987043Y-67380484D01*
X92989268Y-67377753D01*
X93038032Y-67319640D01*
X93038034Y-67319634D01*
X93038892Y-67318613D01*
X93049403Y-67302114D01*
X93049965Y-67300908D01*
X93049967Y-67300906D01*
X93082022Y-67232159D01*
X93083572Y-67228958D01*
X93117609Y-67161188D01*
X93117610Y-67161183D01*
X93118207Y-67159995D01*
X93124631Y-67141517D01*
X93124901Y-67140209D01*
X93124902Y-67140207D01*
X93140251Y-67065866D01*
X93141001Y-67062484D01*
X93158500Y-66988656D01*
X93158500Y-66988651D01*
X93158807Y-66987356D01*
X93160796Y-66967888D01*
X93160757Y-66966560D01*
X93160758Y-66966558D01*
X93158553Y-66890776D01*
X93158500Y-66887112D01*
X93158500Y-59164441D01*
X93159830Y-59146180D01*
X93160067Y-59144556D01*
X93163341Y-59122211D01*
X93158979Y-59072353D01*
X93158500Y-59061372D01*
X93158500Y-59055823D01*
X93158500Y-59055820D01*
X93154862Y-59024705D01*
X93154492Y-59021079D01*
X93147887Y-58945573D01*
X93147886Y-58945570D01*
X93147770Y-58944242D01*
X93143537Y-58925147D01*
X93143079Y-58923889D01*
X93143079Y-58923887D01*
X93117137Y-58852611D01*
X93115977Y-58849277D01*
X93092114Y-58777261D01*
X93092111Y-58777256D01*
X93091691Y-58775988D01*
X93083167Y-58758380D01*
X93040775Y-58693925D01*
X93038807Y-58690836D01*
X92998328Y-58625211D01*
X92985964Y-58610034D01*
X92929825Y-58557069D01*
X92927197Y-58554516D01*
X92420126Y-58047445D01*
X92389388Y-57997286D01*
X92334527Y-57828444D01*
X92239041Y-57663057D01*
X92111252Y-57521133D01*
X91968539Y-57417446D01*
X91956752Y-57408882D01*
X91782288Y-57331206D01*
X91595487Y-57291500D01*
X91404513Y-57291500D01*
X91295159Y-57314744D01*
X91217711Y-57331206D01*
X91043246Y-57408883D01*
X90888747Y-57521133D01*
X90760958Y-57663057D01*
X90665472Y-57828443D01*
X90606458Y-58010070D01*
X90586496Y-58200000D01*
X90606458Y-58389929D01*
X90665472Y-58571556D01*
X90760958Y-58736942D01*
X90862067Y-58849235D01*
X90888747Y-58878866D01*
X91043248Y-58991118D01*
X91217712Y-59068794D01*
X91280772Y-59082197D01*
X91314695Y-59094713D01*
X91343668Y-59116349D01*
X91604595Y-59377276D01*
X91631909Y-59418153D01*
X91641500Y-59466371D01*
X91641500Y-66533629D01*
X91631909Y-66581847D01*
X91604597Y-66622721D01*
X90460302Y-67767016D01*
X90109225Y-68118093D01*
X90095377Y-68130061D01*
X90075941Y-68144531D01*
X90043771Y-68182869D01*
X90036357Y-68190961D01*
X90032422Y-68194895D01*
X90012997Y-68219461D01*
X90010688Y-68222294D01*
X89961119Y-68281369D01*
X89950589Y-68297899D01*
X89917995Y-68367794D01*
X89916401Y-68371087D01*
X89881795Y-68439997D01*
X89875363Y-68458500D01*
X89859759Y-68534064D01*
X89858967Y-68537637D01*
X89841192Y-68612640D01*
X89839202Y-68632114D01*
X89841447Y-68709259D01*
X89841500Y-68712923D01*
X89841500Y-75033629D01*
X89831909Y-75081847D01*
X89804597Y-75122721D01*
X89081730Y-75845588D01*
X88843667Y-76083651D01*
X88814695Y-76105285D01*
X88780771Y-76117801D01*
X88717714Y-76131205D01*
X88543246Y-76208883D01*
X88388747Y-76321133D01*
X88260958Y-76463057D01*
X88165472Y-76628443D01*
X88106458Y-76810070D01*
X88086496Y-77000000D01*
X88106458Y-77189929D01*
X88165472Y-77371556D01*
X88260958Y-77536942D01*
X88260960Y-77536944D01*
X88388747Y-77678866D01*
X88543248Y-77791118D01*
X88717712Y-77868794D01*
X88904513Y-77908500D01*
X89095485Y-77908500D01*
X89095487Y-77908500D01*
X89282288Y-77868794D01*
X89456752Y-77791118D01*
X89611253Y-77678866D01*
X89739040Y-77536944D01*
X89834527Y-77371556D01*
X89889388Y-77202711D01*
X89920124Y-77152555D01*
X91090777Y-75981902D01*
X91104624Y-75969936D01*
X91124058Y-75955469D01*
X91156226Y-75917131D01*
X91163642Y-75909037D01*
X91167581Y-75905100D01*
X91187012Y-75880523D01*
X91189286Y-75877731D01*
X91238032Y-75819640D01*
X91238033Y-75819636D01*
X91238890Y-75818616D01*
X91249402Y-75802117D01*
X91256415Y-75787077D01*
X91282036Y-75732131D01*
X91283544Y-75729015D01*
X91317609Y-75661188D01*
X91317610Y-75661179D01*
X91318212Y-75659983D01*
X91324634Y-75641509D01*
X91326883Y-75630616D01*
X91340241Y-75565919D01*
X91341022Y-75562397D01*
X91358500Y-75488656D01*
X91358500Y-75488654D01*
X91358808Y-75487355D01*
X91360797Y-75467885D01*
X91360758Y-75466560D01*
X91360759Y-75466558D01*
X91358553Y-75390741D01*
X91358500Y-75387077D01*
X91358500Y-73490373D01*
X91372233Y-73433170D01*
X91410439Y-73388437D01*
X91464789Y-73365924D01*
X91523436Y-73370540D01*
X91573595Y-73401278D01*
X91661344Y-73489027D01*
X91661346Y-73489028D01*
X91661348Y-73489030D01*
X91812262Y-73582115D01*
X91980574Y-73637887D01*
X92084455Y-73648500D01*
X93875544Y-73648499D01*
X93979426Y-73637887D01*
X94147738Y-73582115D01*
X94298652Y-73489030D01*
X94362156Y-73425525D01*
X94418639Y-73392915D01*
X94483863Y-73392916D01*
X94540345Y-73425527D01*
X94551348Y-73436530D01*
X94702262Y-73529615D01*
X94870574Y-73585387D01*
X94974455Y-73596000D01*
X96025544Y-73595999D01*
X96129426Y-73585387D01*
X96297738Y-73529615D01*
X96448652Y-73436530D01*
X96516389Y-73368793D01*
X96584444Y-73300739D01*
X96586177Y-73302472D01*
X96615422Y-73274476D01*
X96676829Y-73258500D01*
X97481235Y-73258500D01*
X97547771Y-73277500D01*
X97594241Y-73328771D01*
X97606628Y-73396850D01*
X97591500Y-73550450D01*
X97591500Y-83619654D01*
X97577767Y-83676857D01*
X97539561Y-83721590D01*
X97485211Y-83744103D01*
X97426564Y-83739487D01*
X97376405Y-83708749D01*
X96336714Y-82669058D01*
X96323172Y-82653049D01*
X96321561Y-82650787D01*
X96255564Y-82587859D01*
X96253459Y-82585803D01*
X96226491Y-82558835D01*
X96219758Y-82553275D01*
X96213039Y-82547311D01*
X96168347Y-82504697D01*
X96141168Y-82487231D01*
X96129063Y-82478392D01*
X96104148Y-82457820D01*
X96049942Y-82428221D01*
X96042208Y-82423632D01*
X95990254Y-82390243D01*
X95960255Y-82378233D01*
X95946703Y-82371848D01*
X95918348Y-82356365D01*
X95859526Y-82337562D01*
X95851064Y-82334520D01*
X95793721Y-82311564D01*
X95761989Y-82305448D01*
X95747470Y-82301742D01*
X95716702Y-82291906D01*
X95655375Y-82284573D01*
X95646492Y-82283187D01*
X95585851Y-82271500D01*
X95585849Y-82271500D01*
X95553533Y-82271500D01*
X95538576Y-82270609D01*
X95506500Y-82266774D01*
X95506499Y-82266774D01*
X95444905Y-82271179D01*
X95435917Y-82271500D01*
X87954665Y-82271500D01*
X87897462Y-82257767D01*
X87852729Y-82219561D01*
X87830216Y-82165211D01*
X87834832Y-82106564D01*
X87865570Y-82056405D01*
X87973632Y-81948342D01*
X88066659Y-81797522D01*
X88122393Y-81629328D01*
X88133000Y-81525503D01*
X88133000Y-81254000D01*
X86909500Y-81254000D01*
X86846500Y-81237119D01*
X86800381Y-81191000D01*
X86783500Y-81128000D01*
X86783500Y-79767000D01*
X87291500Y-79767000D01*
X87291500Y-80746000D01*
X88133000Y-80746000D01*
X88133000Y-80474497D01*
X88122393Y-80370671D01*
X88066659Y-80202477D01*
X87973632Y-80051657D01*
X87848342Y-79926367D01*
X87697522Y-79833340D01*
X87529328Y-79777606D01*
X87425503Y-79767000D01*
X87291500Y-79767000D01*
X86783500Y-79767000D01*
X86649497Y-79767000D01*
X86545671Y-79777606D01*
X86377477Y-79833340D01*
X86226657Y-79926367D01*
X86090951Y-80062074D01*
X86088631Y-80059754D01*
X86061696Y-80085537D01*
X86000293Y-80101511D01*
X85938890Y-80085536D01*
X85911697Y-80059507D01*
X85909444Y-80061761D01*
X85773655Y-79925972D01*
X85750301Y-79911567D01*
X85622738Y-79832885D01*
X85454426Y-79777113D01*
X85350545Y-79766500D01*
X85350540Y-79766500D01*
X84574459Y-79766500D01*
X84470573Y-79777113D01*
X84302262Y-79832885D01*
X84151344Y-79925972D01*
X84025972Y-80051344D01*
X83946060Y-80180902D01*
X83900940Y-80224377D01*
X83840459Y-80240744D01*
X83779573Y-80225957D01*
X83733337Y-80183671D01*
X83663076Y-80076132D01*
X82899210Y-80840000D01*
X82899210Y-80840001D01*
X83663076Y-81603867D01*
X83668810Y-81603272D01*
X83709365Y-81568294D01*
X83778301Y-81557805D01*
X83842259Y-81585583D01*
X83881650Y-81643119D01*
X83932885Y-81797738D01*
X84012213Y-81926348D01*
X84033702Y-81961187D01*
X84032072Y-81962192D01*
X84044409Y-81980655D01*
X84054000Y-82028873D01*
X84054000Y-82108997D01*
X84044409Y-82157215D01*
X84017095Y-82198092D01*
X83980592Y-82234595D01*
X83939715Y-82261909D01*
X83891497Y-82271500D01*
X83370830Y-82271500D01*
X83329917Y-82264673D01*
X83293440Y-82244932D01*
X83285576Y-82238811D01*
X83285575Y-82238810D01*
X83252320Y-82220814D01*
X83251792Y-82220528D01*
X83203521Y-82174212D01*
X83185762Y-82109715D01*
X83203521Y-82045217D01*
X83251793Y-81998901D01*
X83285303Y-81980765D01*
X83305688Y-81964899D01*
X83305689Y-81964898D01*
X82540001Y-81199210D01*
X82540000Y-81199210D01*
X81774310Y-81964899D01*
X81794697Y-81980767D01*
X81828206Y-81998901D01*
X81876478Y-82045217D01*
X81894237Y-82109714D01*
X81876478Y-82174212D01*
X81828207Y-82220528D01*
X81794423Y-82238811D01*
X81616762Y-82377091D01*
X81464278Y-82542731D01*
X81375483Y-82678643D01*
X81329969Y-82720541D01*
X81270000Y-82735727D01*
X81210031Y-82720541D01*
X81164517Y-82678643D01*
X81136412Y-82635625D01*
X81075722Y-82542732D01*
X80923240Y-82377094D01*
X80923239Y-82377093D01*
X80923237Y-82377091D01*
X80745579Y-82238813D01*
X80745577Y-82238812D01*
X80745576Y-82238811D01*
X80712317Y-82220812D01*
X80664047Y-82174498D01*
X80646288Y-82110000D01*
X80664047Y-82045502D01*
X80712317Y-81999187D01*
X80745576Y-81981189D01*
X80923240Y-81842906D01*
X81075722Y-81677268D01*
X81164816Y-81540898D01*
X81210329Y-81499000D01*
X81270299Y-81483814D01*
X81330268Y-81499000D01*
X81375782Y-81540898D01*
X81416922Y-81603866D01*
X82180790Y-80840000D01*
X81416921Y-80076132D01*
X81375782Y-80139101D01*
X81330268Y-80180999D01*
X81270299Y-80196185D01*
X81210330Y-80180999D01*
X81164816Y-80139101D01*
X81140257Y-80101511D01*
X81075722Y-80002732D01*
X81046971Y-79971500D01*
X80991799Y-79911567D01*
X80967120Y-79872032D01*
X80958500Y-79826230D01*
X80958500Y-79715101D01*
X81774310Y-79715101D01*
X82539999Y-80480790D01*
X82540000Y-80480790D01*
X83305689Y-79715100D01*
X83305688Y-79715099D01*
X83285302Y-79699232D01*
X83087371Y-79592117D01*
X82874508Y-79519042D01*
X82652530Y-79482000D01*
X82427470Y-79482000D01*
X82205491Y-79519042D01*
X81992628Y-79592117D01*
X81794700Y-79699231D01*
X81774310Y-79715099D01*
X81774310Y-79715101D01*
X80958500Y-79715101D01*
X80958500Y-77537000D01*
X80975381Y-77474000D01*
X81005903Y-77421134D01*
X81034527Y-77371556D01*
X81093542Y-77189928D01*
X81113504Y-77000000D01*
X81093542Y-76810072D01*
X81050910Y-76678866D01*
X81034527Y-76628443D01*
X80939041Y-76463057D01*
X80849536Y-76363652D01*
X80811253Y-76321134D01*
X80656752Y-76208882D01*
X80482288Y-76131206D01*
X80295487Y-76091500D01*
X80104513Y-76091500D01*
X79980777Y-76117801D01*
X79917711Y-76131206D01*
X79743246Y-76208883D01*
X79588747Y-76321133D01*
X79460958Y-76463057D01*
X79365472Y-76628443D01*
X79306458Y-76810070D01*
X79286496Y-77000000D01*
X79306458Y-77189929D01*
X79365472Y-77371555D01*
X79424619Y-77474000D01*
X79441500Y-77537000D01*
X79441500Y-79522491D01*
X79423741Y-79586988D01*
X79375469Y-79633305D01*
X79254421Y-79698812D01*
X79076762Y-79837091D01*
X78924278Y-80002731D01*
X78801139Y-80191209D01*
X78710702Y-80397388D01*
X78655596Y-80614999D01*
X78655436Y-80615632D01*
X78636844Y-80840000D01*
X78655436Y-81064368D01*
X78655436Y-81064371D01*
X78655437Y-81064372D01*
X78710702Y-81282611D01*
X78801139Y-81488790D01*
X78924278Y-81677268D01*
X79076762Y-81842908D01*
X79254418Y-81981185D01*
X79254420Y-81981186D01*
X79254424Y-81981189D01*
X79287682Y-81999187D01*
X79335952Y-82045503D01*
X79353711Y-82110000D01*
X79335952Y-82174497D01*
X79287682Y-82220812D01*
X79262794Y-82234281D01*
X79254418Y-82238814D01*
X79076762Y-82377091D01*
X78924276Y-82542734D01*
X78921286Y-82547311D01*
X78910286Y-82564149D01*
X78910112Y-82564415D01*
X78864598Y-82606314D01*
X78804629Y-82621500D01*
X78319650Y-82621500D01*
X78252880Y-82602354D01*
X78206402Y-82550735D01*
X78194340Y-82482331D01*
X78213504Y-82300000D01*
X78193542Y-82110072D01*
X78134527Y-81928444D01*
X78085143Y-81842908D01*
X78075381Y-81826000D01*
X78058500Y-81763000D01*
X78058500Y-78837000D01*
X78075381Y-78774000D01*
X78108163Y-78717220D01*
X78134527Y-78671556D01*
X78193542Y-78489928D01*
X78213504Y-78300000D01*
X78193542Y-78110072D01*
X78146002Y-77963759D01*
X78134527Y-77928443D01*
X78039041Y-77763057D01*
X77911252Y-77621133D01*
X77756753Y-77508883D01*
X77756752Y-77508882D01*
X77582288Y-77431206D01*
X77395487Y-77391500D01*
X77204513Y-77391500D01*
X77103416Y-77412989D01*
X77017711Y-77431206D01*
X76843246Y-77508883D01*
X76688747Y-77621133D01*
X76560958Y-77763057D01*
X76465472Y-77928443D01*
X76406458Y-78110070D01*
X76386496Y-78299999D01*
X76406458Y-78489929D01*
X76465472Y-78671555D01*
X76524619Y-78774000D01*
X76541500Y-78837000D01*
X76541500Y-81763000D01*
X76524619Y-81826000D01*
X76465472Y-81928444D01*
X76406458Y-82110070D01*
X76397207Y-82198092D01*
X76386496Y-82300000D01*
X76405659Y-82482331D01*
X76393598Y-82550735D01*
X76347120Y-82602354D01*
X76280350Y-82621500D01*
X74184441Y-82621500D01*
X74166180Y-82620170D01*
X74142211Y-82616659D01*
X74092353Y-82621021D01*
X74081372Y-82621500D01*
X74075815Y-82621500D01*
X74044708Y-82625135D01*
X74041067Y-82625507D01*
X73964251Y-82632228D01*
X73945135Y-82636466D01*
X73872659Y-82662844D01*
X73869202Y-82664046D01*
X73795999Y-82688304D01*
X73778372Y-82696838D01*
X73713918Y-82739229D01*
X73710831Y-82741196D01*
X73645218Y-82781667D01*
X73630032Y-82794038D01*
X73577087Y-82850156D01*
X73574534Y-82852783D01*
X73109225Y-83318092D01*
X73095377Y-83330061D01*
X73075941Y-83344531D01*
X73043771Y-83382869D01*
X73036357Y-83390961D01*
X73032422Y-83394895D01*
X73012997Y-83419461D01*
X73010688Y-83422294D01*
X72961119Y-83481369D01*
X72950589Y-83497899D01*
X72917995Y-83567794D01*
X72916401Y-83571087D01*
X72881795Y-83639997D01*
X72875363Y-83658500D01*
X72859759Y-83734064D01*
X72858972Y-83737617D01*
X72857608Y-83743377D01*
X72829945Y-83797175D01*
X72780396Y-83831880D01*
X72720383Y-83839491D01*
X72663739Y-83818256D01*
X72623521Y-83773067D01*
X72608999Y-83714342D01*
X72608999Y-63129737D01*
X72617368Y-63084583D01*
X72641363Y-63045427D01*
X72739039Y-62936945D01*
X72834527Y-62771556D01*
X72854891Y-62708882D01*
X72893542Y-62589928D01*
X72913504Y-62400000D01*
X72893542Y-62210072D01*
X72862931Y-62115862D01*
X72834527Y-62028443D01*
X72739041Y-61863057D01*
X72611252Y-61721133D01*
X72490813Y-61633629D01*
X72456752Y-61608882D01*
X72282288Y-61531206D01*
X72095487Y-61491500D01*
X71904513Y-61491500D01*
X71822898Y-61508848D01*
X71717711Y-61531206D01*
X71588009Y-61588953D01*
X71543453Y-61608791D01*
X71543246Y-61608883D01*
X71388747Y-61721133D01*
X71260958Y-61863057D01*
X71165472Y-62028443D01*
X71106458Y-62210070D01*
X71086496Y-62399999D01*
X71091309Y-62445801D01*
X71091999Y-62458969D01*
X71091999Y-62459129D01*
X71089701Y-62481615D01*
X71091946Y-62558760D01*
X71091999Y-62562424D01*
X71091999Y-67565500D01*
X71075118Y-67628500D01*
X71028999Y-67674619D01*
X70965999Y-67691500D01*
X70904513Y-67691500D01*
X70824535Y-67708500D01*
X70717711Y-67731206D01*
X70582289Y-67791500D01*
X70549643Y-67806035D01*
X70543246Y-67808883D01*
X70388747Y-67921133D01*
X70260958Y-68063057D01*
X70165472Y-68228443D01*
X70106458Y-68410070D01*
X70086496Y-68600000D01*
X65000500Y-68600000D01*
X65000500Y-57797121D01*
X67562086Y-57797121D01*
X67562087Y-57797122D01*
X67817497Y-58003950D01*
X68143451Y-58215627D01*
X68489755Y-58392078D01*
X68852586Y-58531355D01*
X69228004Y-58631948D01*
X69611882Y-58692748D01*
X70000000Y-58713089D01*
X70388117Y-58692748D01*
X70771995Y-58631948D01*
X71147413Y-58531355D01*
X71510244Y-58392078D01*
X71856548Y-58215627D01*
X72182497Y-58003953D01*
X72437912Y-57797121D01*
X70000001Y-55359210D01*
X69999999Y-55359210D01*
X67562086Y-57797121D01*
X65000500Y-57797121D01*
X65000500Y-54999999D01*
X66286910Y-54999999D01*
X66307251Y-55388117D01*
X66368051Y-55771995D01*
X66468644Y-56147413D01*
X66607921Y-56510244D01*
X66784372Y-56856548D01*
X66996049Y-57182502D01*
X67202876Y-57437911D01*
X67202877Y-57437912D01*
X69640790Y-55000001D01*
X70359210Y-55000001D01*
X72797121Y-57437912D01*
X73003953Y-57182497D01*
X73215627Y-56856548D01*
X73392078Y-56510244D01*
X73531355Y-56147413D01*
X73631948Y-55771995D01*
X73692748Y-55388117D01*
X73713089Y-54999999D01*
X73692748Y-54611882D01*
X73631948Y-54228004D01*
X73531355Y-53852586D01*
X73392078Y-53489755D01*
X73215628Y-53143455D01*
X73003948Y-52817496D01*
X72797122Y-52562087D01*
X72797121Y-52562086D01*
X70359210Y-54999999D01*
X70359210Y-55000001D01*
X69640790Y-55000001D01*
X69640790Y-54999999D01*
X67202877Y-52562086D01*
X66996047Y-52817502D01*
X66784371Y-53143455D01*
X66607921Y-53489755D01*
X66468644Y-53852586D01*
X66368051Y-54228004D01*
X66307251Y-54611882D01*
X66286910Y-54999999D01*
X65000500Y-54999999D01*
X65000500Y-52202877D01*
X67562086Y-52202877D01*
X69999999Y-54640790D01*
X70000001Y-54640790D01*
X72240790Y-52399999D01*
X75486496Y-52399999D01*
X75506458Y-52589929D01*
X75565472Y-52771555D01*
X75624619Y-52874000D01*
X75641500Y-52937000D01*
X75641500Y-61935559D01*
X75640170Y-61953820D01*
X75636659Y-61977788D01*
X75641021Y-62027647D01*
X75641500Y-62038628D01*
X75641500Y-62044184D01*
X75645135Y-62075290D01*
X75645507Y-62078932D01*
X75652228Y-62155744D01*
X75656469Y-62174873D01*
X75682846Y-62247342D01*
X75684049Y-62250804D01*
X75708304Y-62324000D01*
X75716837Y-62341627D01*
X75759232Y-62406084D01*
X75761171Y-62409127D01*
X75799954Y-62472003D01*
X75801674Y-62474792D01*
X75814038Y-62489967D01*
X75870155Y-62542911D01*
X75872784Y-62545465D01*
X77318092Y-63990773D01*
X77330060Y-64004620D01*
X77330591Y-64005333D01*
X77344531Y-64024058D01*
X77382870Y-64056228D01*
X77390974Y-64063655D01*
X77394899Y-64067580D01*
X77419502Y-64087034D01*
X77422284Y-64089300D01*
X77474430Y-64133056D01*
X77481378Y-64138886D01*
X77497887Y-64149403D01*
X77499090Y-64149964D01*
X77499094Y-64149967D01*
X77567867Y-64182035D01*
X77571036Y-64183570D01*
X77631722Y-64214048D01*
X77640001Y-64218206D01*
X77658493Y-64224633D01*
X77659790Y-64224900D01*
X77659793Y-64224902D01*
X77734066Y-64240237D01*
X77737530Y-64241004D01*
X77811344Y-64258500D01*
X77811347Y-64258500D01*
X77812642Y-64258807D01*
X77832111Y-64260796D01*
X77833438Y-64260757D01*
X77833442Y-64260758D01*
X77907697Y-64258597D01*
X77909224Y-64258553D01*
X77912888Y-64258500D01*
X78552129Y-64258500D01*
X78612098Y-64273686D01*
X78657611Y-64315584D01*
X78671778Y-64337268D01*
X78803238Y-64480070D01*
X78824262Y-64502908D01*
X79001918Y-64641185D01*
X79001920Y-64641186D01*
X79001924Y-64641189D01*
X79035182Y-64659187D01*
X79083452Y-64705503D01*
X79101211Y-64770000D01*
X79083452Y-64834497D01*
X79035182Y-64880812D01*
X79010294Y-64894281D01*
X79001918Y-64898814D01*
X78824262Y-65037091D01*
X78820152Y-65041556D01*
X78775622Y-65089929D01*
X78774785Y-65090838D01*
X78732697Y-65120888D01*
X78682084Y-65131500D01*
X78241416Y-65131500D01*
X78221707Y-65129949D01*
X78216788Y-65129170D01*
X78207810Y-65127748D01*
X78207809Y-65127748D01*
X78139519Y-65131327D01*
X78132925Y-65131500D01*
X78112385Y-65131500D01*
X78091967Y-65133645D01*
X78085399Y-65134162D01*
X78017098Y-65137742D01*
X78009572Y-65139758D01*
X78003499Y-65141385D01*
X77984070Y-65144986D01*
X77970071Y-65146457D01*
X77905016Y-65167595D01*
X77898695Y-65169468D01*
X77832626Y-65187172D01*
X77820090Y-65193559D01*
X77801840Y-65201118D01*
X77788447Y-65205470D01*
X77729217Y-65239667D01*
X77723420Y-65242814D01*
X77662469Y-65273870D01*
X77651523Y-65282733D01*
X77635248Y-65293919D01*
X77623059Y-65300957D01*
X77572223Y-65346728D01*
X77567216Y-65351004D01*
X77551259Y-65363927D01*
X77536729Y-65378456D01*
X77531949Y-65382991D01*
X77481136Y-65428743D01*
X77472860Y-65440134D01*
X77460022Y-65455163D01*
X76315163Y-66600022D01*
X76300134Y-66612860D01*
X76288743Y-66621136D01*
X76242991Y-66671949D01*
X76238456Y-66676729D01*
X76223927Y-66691259D01*
X76211004Y-66707216D01*
X76206728Y-66712223D01*
X76160957Y-66763059D01*
X76153919Y-66775248D01*
X76142733Y-66791523D01*
X76133870Y-66802469D01*
X76102814Y-66863420D01*
X76099667Y-66869217D01*
X76065471Y-66928445D01*
X76061118Y-66941841D01*
X76053559Y-66960089D01*
X76047172Y-66972626D01*
X76029472Y-67038678D01*
X76027600Y-67044997D01*
X76006457Y-67110072D01*
X76004985Y-67124077D01*
X76001383Y-67143509D01*
X75997742Y-67157095D01*
X75994162Y-67225399D01*
X75993645Y-67231966D01*
X75991500Y-67252385D01*
X75991500Y-67272926D01*
X75991327Y-67279520D01*
X75987748Y-67347809D01*
X75989949Y-67361707D01*
X75991500Y-67381416D01*
X75991500Y-72745784D01*
X75990810Y-72758954D01*
X75986496Y-72799999D01*
X75991500Y-72847611D01*
X76006458Y-72989929D01*
X76065472Y-73171556D01*
X76160958Y-73336942D01*
X76267351Y-73455103D01*
X76288747Y-73478866D01*
X76443248Y-73591118D01*
X76617712Y-73668794D01*
X76804513Y-73708500D01*
X76995485Y-73708500D01*
X76995487Y-73708500D01*
X77182288Y-73668794D01*
X77356752Y-73591118D01*
X77511253Y-73478866D01*
X77639040Y-73336944D01*
X77734527Y-73171556D01*
X77793542Y-72989928D01*
X77808500Y-72847610D01*
X77813504Y-72800000D01*
X77809190Y-72758954D01*
X77808500Y-72745784D01*
X77808500Y-67728503D01*
X77818091Y-67680285D01*
X77845405Y-67639408D01*
X78499408Y-66985405D01*
X78540285Y-66958091D01*
X78588503Y-66948500D01*
X78682084Y-66948500D01*
X78732697Y-66959112D01*
X78774783Y-66989160D01*
X78824260Y-67042906D01*
X78859064Y-67069995D01*
X78899174Y-67123938D01*
X78905841Y-67190829D01*
X78877165Y-67251628D01*
X78836497Y-67278858D01*
X78837297Y-67280154D01*
X78824764Y-67287884D01*
X78824762Y-67287885D01*
X78745228Y-67336942D01*
X78673844Y-67380972D01*
X78548472Y-67506344D01*
X78508295Y-67571482D01*
X78455385Y-67657262D01*
X78399613Y-67825574D01*
X78389851Y-67921133D01*
X78389000Y-67929459D01*
X78389000Y-69230540D01*
X78399110Y-69329500D01*
X78399613Y-69334426D01*
X78455385Y-69502738D01*
X78509165Y-69589928D01*
X78548472Y-69653655D01*
X78673844Y-69779027D01*
X78673846Y-69779028D01*
X78673848Y-69779030D01*
X78824762Y-69872115D01*
X78993074Y-69927887D01*
X79096955Y-69938500D01*
X80398044Y-69938499D01*
X80501926Y-69927887D01*
X80670238Y-69872115D01*
X80821152Y-69779030D01*
X80895283Y-69704899D01*
X81521810Y-69704899D01*
X81542197Y-69720767D01*
X81740128Y-69827882D01*
X81952991Y-69900957D01*
X82174970Y-69938000D01*
X82400030Y-69938000D01*
X82622008Y-69900957D01*
X82834868Y-69827883D01*
X83032805Y-69720764D01*
X83053188Y-69704899D01*
X83053189Y-69704898D01*
X82287501Y-68939210D01*
X82287500Y-68939210D01*
X81521810Y-69704899D01*
X80895283Y-69704899D01*
X80946530Y-69653652D01*
X81039615Y-69502738D01*
X81062799Y-69432771D01*
X81092065Y-69384571D01*
X81139428Y-69353962D01*
X81156416Y-69351872D01*
X81928289Y-68580001D01*
X82646710Y-68580001D01*
X83410576Y-69343867D01*
X83410577Y-69343866D01*
X83485918Y-69228551D01*
X83576319Y-69022457D01*
X83631568Y-68804283D01*
X83650153Y-68580000D01*
X83631568Y-68355716D01*
X83576319Y-68137543D01*
X83485917Y-67931446D01*
X83410576Y-67816132D01*
X82646710Y-68580000D01*
X82646710Y-68580001D01*
X81928289Y-68580001D01*
X81928290Y-68580000D01*
X81928290Y-68579999D01*
X81156415Y-67808124D01*
X81139426Y-67806035D01*
X81092064Y-67775426D01*
X81062798Y-67727226D01*
X81039615Y-67657262D01*
X80946530Y-67506348D01*
X80946528Y-67506346D01*
X80946527Y-67506344D01*
X80821155Y-67380972D01*
X80821152Y-67380970D01*
X80670238Y-67287885D01*
X80670235Y-67287884D01*
X80657703Y-67280154D01*
X80658502Y-67278858D01*
X80617835Y-67251628D01*
X80589159Y-67190829D01*
X80595826Y-67123938D01*
X80635935Y-67069995D01*
X80670740Y-67042906D01*
X80823222Y-66877268D01*
X80912018Y-66741354D01*
X80957531Y-66699458D01*
X81017500Y-66684272D01*
X81077469Y-66699458D01*
X81122981Y-66741354D01*
X81211778Y-66877268D01*
X81359409Y-67037637D01*
X81364262Y-67042908D01*
X81541922Y-67181188D01*
X81541924Y-67181189D01*
X81575705Y-67199470D01*
X81623977Y-67245785D01*
X81641737Y-67310282D01*
X81623979Y-67374780D01*
X81575708Y-67421097D01*
X81542200Y-67439230D01*
X81521810Y-67455099D01*
X81521810Y-67455101D01*
X82287499Y-68220790D01*
X82287500Y-68220790D01*
X83053189Y-67455100D01*
X83053188Y-67455099D01*
X83032800Y-67439230D01*
X82999292Y-67421097D01*
X82951021Y-67374781D01*
X82933262Y-67310282D01*
X82951022Y-67245785D01*
X82999291Y-67199471D01*
X83033076Y-67181189D01*
X83210740Y-67042906D01*
X83363222Y-66877268D01*
X83486360Y-66688791D01*
X83576796Y-66482616D01*
X83632064Y-66264368D01*
X83636178Y-66214708D01*
X83661520Y-66148760D01*
X83718380Y-66106816D01*
X83788877Y-66102073D01*
X83850842Y-66136023D01*
X86304595Y-68589776D01*
X86331909Y-68630653D01*
X86341500Y-68678871D01*
X86341500Y-75063000D01*
X86324619Y-75126000D01*
X86265472Y-75228444D01*
X86206458Y-75410070D01*
X86186496Y-75600000D01*
X86206458Y-75789929D01*
X86265472Y-75971556D01*
X86360958Y-76136942D01*
X86360960Y-76136944D01*
X86488747Y-76278866D01*
X86643248Y-76391118D01*
X86817712Y-76468794D01*
X87004513Y-76508500D01*
X87195485Y-76508500D01*
X87195487Y-76508500D01*
X87382288Y-76468794D01*
X87556752Y-76391118D01*
X87711253Y-76278866D01*
X87839040Y-76136944D01*
X87934527Y-75971556D01*
X87993542Y-75789928D01*
X88013504Y-75600000D01*
X87993542Y-75410072D01*
X87934527Y-75228444D01*
X87875381Y-75126000D01*
X87858500Y-75063000D01*
X87858500Y-68376942D01*
X87859830Y-68358682D01*
X87860648Y-68353095D01*
X87863341Y-68334711D01*
X87858979Y-68284853D01*
X87858500Y-68273872D01*
X87858500Y-68268324D01*
X87857245Y-68257588D01*
X87854860Y-68237184D01*
X87854496Y-68233623D01*
X87847887Y-68158074D01*
X87847885Y-68158069D01*
X87847770Y-68156750D01*
X87843534Y-68137638D01*
X87843079Y-68136387D01*
X87817147Y-68065141D01*
X87815952Y-68061703D01*
X87813524Y-68054375D01*
X87792114Y-67989762D01*
X87792112Y-67989760D01*
X87791692Y-67988490D01*
X87783170Y-67970886D01*
X87782435Y-67969768D01*
X87740756Y-67906400D01*
X87738812Y-67903346D01*
X87698330Y-67837713D01*
X87685964Y-67822534D01*
X87629825Y-67769569D01*
X87627197Y-67767016D01*
X83717170Y-63856989D01*
X83684187Y-63799087D01*
X83685350Y-63732460D01*
X83720333Y-63675743D01*
X83779352Y-63644802D01*
X83845893Y-63648288D01*
X83995574Y-63697887D01*
X84099455Y-63708500D01*
X84900544Y-63708499D01*
X85004426Y-63697887D01*
X85172738Y-63642115D01*
X85323652Y-63549030D01*
X85410906Y-63461775D01*
X85467389Y-63429165D01*
X85532611Y-63429165D01*
X85589093Y-63461775D01*
X85676348Y-63549030D01*
X85827262Y-63642115D01*
X85995574Y-63697887D01*
X86099455Y-63708500D01*
X86900544Y-63708499D01*
X87004426Y-63697887D01*
X87172738Y-63642115D01*
X87323652Y-63549030D01*
X87449030Y-63423652D01*
X87452297Y-63418354D01*
X87498132Y-63374476D01*
X87559539Y-63358500D01*
X88311344Y-63358500D01*
X88444180Y-63358500D01*
X89057414Y-63358500D01*
X89096351Y-63364667D01*
X89131470Y-63382561D01*
X89143248Y-63391118D01*
X89317712Y-63468794D01*
X89504513Y-63508500D01*
X89695485Y-63508500D01*
X89695487Y-63508500D01*
X89882288Y-63468794D01*
X90056752Y-63391118D01*
X90211253Y-63278866D01*
X90339040Y-63136944D01*
X90434527Y-62971556D01*
X90493542Y-62789928D01*
X90513504Y-62600000D01*
X90493542Y-62410072D01*
X90462931Y-62315862D01*
X90434527Y-62228443D01*
X90339041Y-62063057D01*
X90211252Y-61921133D01*
X90109826Y-61847443D01*
X90056752Y-61808882D01*
X89882288Y-61731206D01*
X89695487Y-61691500D01*
X89504513Y-61691500D01*
X89379978Y-61717970D01*
X89317711Y-61731206D01*
X89230480Y-61770043D01*
X89143248Y-61808882D01*
X89131470Y-61817438D01*
X89096351Y-61835333D01*
X89057414Y-61841500D01*
X88488656Y-61841500D01*
X87670955Y-61841500D01*
X87619930Y-61830706D01*
X87577647Y-61800174D01*
X87551351Y-61755134D01*
X87547300Y-61742911D01*
X87542115Y-61727262D01*
X87461882Y-61597184D01*
X87443839Y-61544448D01*
X87450314Y-61489086D01*
X87467484Y-61461849D01*
X87465903Y-61460874D01*
X87566659Y-61297522D01*
X87622393Y-61129328D01*
X87633000Y-61025503D01*
X87633000Y-60754000D01*
X86409500Y-60754000D01*
X86346500Y-60737119D01*
X86300381Y-60691000D01*
X86283500Y-60628000D01*
X86283500Y-59267000D01*
X86791500Y-59267000D01*
X86791500Y-60246000D01*
X87633000Y-60246000D01*
X87633000Y-59974497D01*
X87622393Y-59870671D01*
X87566659Y-59702477D01*
X87473632Y-59551657D01*
X87348342Y-59426367D01*
X87197522Y-59333340D01*
X87029328Y-59277606D01*
X86925503Y-59267000D01*
X86791500Y-59267000D01*
X86283500Y-59267000D01*
X86149497Y-59267000D01*
X86045671Y-59277606D01*
X85877477Y-59333340D01*
X85726657Y-59426367D01*
X85590951Y-59562074D01*
X85588631Y-59559754D01*
X85561696Y-59585537D01*
X85500293Y-59601511D01*
X85438890Y-59585536D01*
X85411697Y-59559507D01*
X85409444Y-59561761D01*
X85273655Y-59425972D01*
X85273652Y-59425970D01*
X85122738Y-59332885D01*
X84954426Y-59277113D01*
X84850545Y-59266500D01*
X84850540Y-59266500D01*
X84074459Y-59266500D01*
X83970573Y-59277113D01*
X83802262Y-59332885D01*
X83651344Y-59425972D01*
X83525972Y-59551344D01*
X83504882Y-59585537D01*
X83453808Y-59668342D01*
X83445601Y-59681647D01*
X83399766Y-59725524D01*
X83338360Y-59741500D01*
X83168437Y-59741500D01*
X83108468Y-59726314D01*
X83062954Y-59684416D01*
X83042867Y-59625905D01*
X83053049Y-59564887D01*
X83091046Y-59516069D01*
X83206293Y-59426367D01*
X83210740Y-59422906D01*
X83363222Y-59257268D01*
X83486360Y-59068791D01*
X83576796Y-58862616D01*
X83632064Y-58644368D01*
X83650656Y-58420000D01*
X83632064Y-58195632D01*
X83576796Y-57977384D01*
X83486360Y-57771209D01*
X83363222Y-57582732D01*
X83210740Y-57417094D01*
X83210739Y-57417093D01*
X83210737Y-57417091D01*
X83033078Y-57278812D01*
X82835073Y-57171657D01*
X82690927Y-57122172D01*
X82622135Y-57098556D01*
X82400069Y-57061500D01*
X82174931Y-57061500D01*
X81952865Y-57098556D01*
X81952862Y-57098556D01*
X81952862Y-57098557D01*
X81739926Y-57171657D01*
X81541921Y-57278812D01*
X81364262Y-57417091D01*
X81211778Y-57582731D01*
X81122983Y-57718643D01*
X81077469Y-57760541D01*
X81017500Y-57775727D01*
X80957531Y-57760541D01*
X80912017Y-57718643D01*
X80823221Y-57582731D01*
X80718413Y-57468880D01*
X80690873Y-57421200D01*
X80686295Y-57366328D01*
X80705554Y-57314744D01*
X80744966Y-57276302D01*
X80748652Y-57274030D01*
X80874030Y-57148652D01*
X80967115Y-56997738D01*
X81022887Y-56829426D01*
X81033500Y-56725545D01*
X81033499Y-55949456D01*
X81022887Y-55845574D01*
X80967115Y-55677262D01*
X80874030Y-55526348D01*
X80874028Y-55526346D01*
X80874027Y-55526344D01*
X80738239Y-55390556D01*
X80740493Y-55388301D01*
X80714451Y-55361089D01*
X80698488Y-55299671D01*
X80714484Y-55238262D01*
X80740246Y-55211369D01*
X80737926Y-55209049D01*
X80873632Y-55073342D01*
X80966659Y-54922522D01*
X81022393Y-54754328D01*
X81033000Y-54650503D01*
X81033000Y-54516500D01*
X78567000Y-54516500D01*
X78567000Y-54650503D01*
X78577606Y-54754328D01*
X78633340Y-54922522D01*
X78726367Y-55073342D01*
X78862074Y-55209049D01*
X78859754Y-55211368D01*
X78885520Y-55238272D01*
X78901511Y-55299672D01*
X78885552Y-55361081D01*
X78859507Y-55388302D01*
X78861761Y-55390556D01*
X78725972Y-55526344D01*
X78674829Y-55609259D01*
X78632885Y-55677262D01*
X78616882Y-55725557D01*
X78577113Y-55845574D01*
X78566500Y-55949459D01*
X78566500Y-56725540D01*
X78566501Y-56725545D01*
X78577113Y-56829426D01*
X78632885Y-56997738D01*
X78695071Y-57098557D01*
X78725972Y-57148655D01*
X78820330Y-57243013D01*
X78852481Y-57297823D01*
X78853794Y-57361353D01*
X78823936Y-57417446D01*
X78671778Y-57582731D01*
X78548639Y-57771209D01*
X78458202Y-57977388D01*
X78402937Y-58195627D01*
X78402936Y-58195632D01*
X78384344Y-58420000D01*
X78402936Y-58644368D01*
X78402936Y-58644371D01*
X78402937Y-58644372D01*
X78458202Y-58862611D01*
X78548639Y-59068790D01*
X78652946Y-59228443D01*
X78671778Y-59257268D01*
X78812445Y-59410072D01*
X78824262Y-59422908D01*
X78880103Y-59466371D01*
X79001924Y-59561189D01*
X79035182Y-59579187D01*
X79083451Y-59625500D01*
X79101211Y-59689997D01*
X79083453Y-59754494D01*
X79035183Y-59800811D01*
X79001923Y-59818810D01*
X78824262Y-59957091D01*
X78671778Y-60122731D01*
X78548639Y-60311209D01*
X78458202Y-60517388D01*
X78430192Y-60628000D01*
X78402936Y-60735632D01*
X78384344Y-60960000D01*
X78402936Y-61184368D01*
X78402936Y-61184371D01*
X78402937Y-61184372D01*
X78458202Y-61402611D01*
X78458203Y-61402614D01*
X78458204Y-61402616D01*
X78478397Y-61448652D01*
X78548639Y-61608790D01*
X78671778Y-61797268D01*
X78824262Y-61962908D01*
X79001918Y-62101185D01*
X79001920Y-62101186D01*
X79001924Y-62101189D01*
X79035182Y-62119187D01*
X79083452Y-62165503D01*
X79101211Y-62230000D01*
X79083452Y-62294497D01*
X79035182Y-62340812D01*
X79010294Y-62354281D01*
X79001918Y-62358814D01*
X78824262Y-62497091D01*
X78671776Y-62662734D01*
X78657612Y-62684415D01*
X78612098Y-62726314D01*
X78552129Y-62741500D01*
X78266371Y-62741500D01*
X78218153Y-62731909D01*
X78177276Y-62704595D01*
X77195405Y-61722724D01*
X77168091Y-61681847D01*
X77158500Y-61633629D01*
X77158500Y-54449500D01*
X106986496Y-54449500D01*
X107006458Y-54639429D01*
X107065472Y-54821056D01*
X107160958Y-54986442D01*
X107160960Y-54986444D01*
X107288747Y-55128366D01*
X107443248Y-55240618D01*
X107617712Y-55318294D01*
X107804513Y-55358000D01*
X107995485Y-55358000D01*
X107995487Y-55358000D01*
X108182288Y-55318294D01*
X108356752Y-55240618D01*
X108368529Y-55232061D01*
X108403649Y-55214167D01*
X108442586Y-55208000D01*
X109057414Y-55208000D01*
X109096351Y-55214167D01*
X109131470Y-55232061D01*
X109143248Y-55240618D01*
X109317712Y-55318294D01*
X109504513Y-55358000D01*
X109695485Y-55358000D01*
X109695487Y-55358000D01*
X109882288Y-55318294D01*
X110056752Y-55240618D01*
X110136655Y-55182564D01*
X110171781Y-55164667D01*
X110210717Y-55158500D01*
X118957414Y-55158500D01*
X118996351Y-55164667D01*
X119031470Y-55182561D01*
X119043248Y-55191118D01*
X119217712Y-55268794D01*
X119404513Y-55308500D01*
X119595485Y-55308500D01*
X119595487Y-55308500D01*
X119782288Y-55268794D01*
X119956752Y-55191118D01*
X120111253Y-55078866D01*
X120239040Y-54936944D01*
X120334527Y-54771556D01*
X120393542Y-54589928D01*
X120413504Y-54400000D01*
X120393542Y-54210072D01*
X120357784Y-54100022D01*
X120334527Y-54028443D01*
X120239041Y-53863057D01*
X120111252Y-53721133D01*
X120009449Y-53647169D01*
X119956752Y-53608882D01*
X119782288Y-53531206D01*
X119595487Y-53491500D01*
X119404513Y-53491500D01*
X119279978Y-53517970D01*
X119217711Y-53531206D01*
X119181238Y-53547445D01*
X119043248Y-53608882D01*
X119031470Y-53617438D01*
X118996351Y-53635333D01*
X118957414Y-53641500D01*
X110045617Y-53641500D01*
X109994369Y-53630607D01*
X109882290Y-53580707D01*
X109882288Y-53580706D01*
X109695487Y-53541000D01*
X109504513Y-53541000D01*
X109379978Y-53567470D01*
X109317711Y-53580706D01*
X109237773Y-53616297D01*
X109143248Y-53658382D01*
X109131470Y-53666938D01*
X109096351Y-53684833D01*
X109057414Y-53691000D01*
X108442586Y-53691000D01*
X108403649Y-53684833D01*
X108368529Y-53666938D01*
X108356752Y-53658382D01*
X108182288Y-53580706D01*
X107995487Y-53541000D01*
X107804513Y-53541000D01*
X107679978Y-53567470D01*
X107617711Y-53580706D01*
X107495017Y-53635333D01*
X107468429Y-53647171D01*
X107443246Y-53658383D01*
X107288747Y-53770633D01*
X107160958Y-53912557D01*
X107065472Y-54077943D01*
X107006458Y-54259570D01*
X106986496Y-54449500D01*
X77158500Y-54449500D01*
X77158500Y-54008500D01*
X78567000Y-54008500D01*
X79546000Y-54008500D01*
X79546000Y-53167000D01*
X80054000Y-53167000D01*
X80054000Y-54008500D01*
X81033000Y-54008500D01*
X81033000Y-53874497D01*
X81022393Y-53770671D01*
X80966659Y-53602477D01*
X80873632Y-53451657D01*
X80748342Y-53326367D01*
X80597522Y-53233340D01*
X80429328Y-53177606D01*
X80325503Y-53167000D01*
X80054000Y-53167000D01*
X79546000Y-53167000D01*
X79274497Y-53167000D01*
X79170671Y-53177606D01*
X79002477Y-53233340D01*
X78851657Y-53326367D01*
X78726367Y-53451657D01*
X78633340Y-53602477D01*
X78577606Y-53770671D01*
X78567000Y-53874497D01*
X78567000Y-54008500D01*
X77158500Y-54008500D01*
X77158500Y-52937000D01*
X77175381Y-52874000D01*
X77223012Y-52791500D01*
X77234527Y-52771556D01*
X77293542Y-52589928D01*
X77313504Y-52400000D01*
X77293542Y-52210072D01*
X77234527Y-52028444D01*
X77234527Y-52028443D01*
X77139041Y-51863057D01*
X77011252Y-51721133D01*
X76856753Y-51608883D01*
X76856752Y-51608882D01*
X76682288Y-51531206D01*
X76495487Y-51491500D01*
X76304513Y-51491500D01*
X76179979Y-51517970D01*
X76117711Y-51531206D01*
X75977696Y-51593544D01*
X75945407Y-51607921D01*
X75943246Y-51608883D01*
X75788747Y-51721133D01*
X75660958Y-51863057D01*
X75565472Y-52028443D01*
X75506458Y-52210070D01*
X75486496Y-52399999D01*
X72240790Y-52399999D01*
X72437912Y-52202877D01*
X72437911Y-52202876D01*
X72182502Y-51996049D01*
X71856548Y-51784372D01*
X71510244Y-51607921D01*
X71147413Y-51468644D01*
X70771995Y-51368051D01*
X70388117Y-51307251D01*
X70000000Y-51286910D01*
X69611882Y-51307251D01*
X69228004Y-51368051D01*
X68852586Y-51468644D01*
X68489755Y-51607921D01*
X68143455Y-51784371D01*
X67817502Y-51996047D01*
X67562086Y-52202877D01*
X65000500Y-52202877D01*
X65000500Y-50126500D01*
X65017381Y-50063500D01*
X65063500Y-50017381D01*
X65126500Y-50000500D01*
X167373500Y-50000500D01*
X167436500Y-50017381D01*
G37*
G04 #@! TD.AperFunction*
M02*
