%FSLAX45Y45*%
G04 Gerber Fmt 4.5, Leading zero omitted, Abs format (unit mm)*
G04 Created by KiCad (PCBNEW (6.0.0)) date 2022-09-04 10:15:44*
%MOMM*%
%LPD*%
G01*
G04 APERTURE LIST*
%TA.AperFunction,Profile*%
%ADD10C,0.100000*%
%TD*%
%ADD11C,0.200000*%
G04 APERTURE END LIST*
D10*
X16750000Y-5000000D02*
X16750000Y-12500000D01*
X6500000Y-5000000D02*
X16750000Y-5000000D01*
X6500000Y-12500000D02*
X6500000Y-5000000D01*
X16750000Y-12500000D02*
X6500000Y-12500000D01*
D11*
X6752619Y-12815476D02*
X6752619Y-12615476D01*
X6800238Y-12615476D01*
X6828809Y-12625000D01*
X6847857Y-12644048D01*
X6857381Y-12663095D01*
X6866905Y-12701190D01*
X6866905Y-12729762D01*
X6857381Y-12767857D01*
X6847857Y-12786905D01*
X6828809Y-12805952D01*
X6800238Y-12815476D01*
X6752619Y-12815476D01*
X6952619Y-12815476D02*
X6952619Y-12682143D01*
X6952619Y-12720238D02*
X6962143Y-12701190D01*
X6971667Y-12691667D01*
X6990714Y-12682143D01*
X7009762Y-12682143D01*
X7076428Y-12815476D02*
X7076428Y-12682143D01*
X7076428Y-12615476D02*
X7066905Y-12625000D01*
X7076428Y-12634524D01*
X7085952Y-12625000D01*
X7076428Y-12615476D01*
X7076428Y-12634524D01*
X7200238Y-12815476D02*
X7181190Y-12805952D01*
X7171667Y-12786905D01*
X7171667Y-12615476D01*
X7305000Y-12815476D02*
X7285952Y-12805952D01*
X7276428Y-12786905D01*
X7276428Y-12615476D01*
X7533571Y-12815476D02*
X7533571Y-12615476D01*
X7600238Y-12758333D01*
X7666905Y-12615476D01*
X7666905Y-12815476D01*
X7847857Y-12815476D02*
X7847857Y-12710714D01*
X7838333Y-12691667D01*
X7819286Y-12682143D01*
X7781190Y-12682143D01*
X7762143Y-12691667D01*
X7847857Y-12805952D02*
X7828809Y-12815476D01*
X7781190Y-12815476D01*
X7762143Y-12805952D01*
X7752619Y-12786905D01*
X7752619Y-12767857D01*
X7762143Y-12748809D01*
X7781190Y-12739286D01*
X7828809Y-12739286D01*
X7847857Y-12729762D01*
X7943095Y-12682143D02*
X7943095Y-12882143D01*
X7943095Y-12691667D02*
X7962143Y-12682143D01*
X8000238Y-12682143D01*
X8019286Y-12691667D01*
X8028809Y-12701190D01*
X8038333Y-12720238D01*
X8038333Y-12777381D01*
X8028809Y-12796428D01*
X8019286Y-12805952D01*
X8000238Y-12815476D01*
X7962143Y-12815476D01*
X7943095Y-12805952D01*
X8124048Y-12796428D02*
X8133571Y-12805952D01*
X8124048Y-12815476D01*
X8114524Y-12805952D01*
X8124048Y-12796428D01*
X8124048Y-12815476D01*
X8124048Y-12691667D02*
X8133571Y-12701190D01*
X8124048Y-12710714D01*
X8114524Y-12701190D01*
X8124048Y-12691667D01*
X8124048Y-12710714D01*
M02*
